%FSLAX25Y25*%
%MOIN*%
G70*
G01*
G75*
G04 Layer_Color=8388736*
%ADD10C,0.03200*%
%ADD11C,0.02400*%
%ADD12R,0.06693X0.06693*%
%ADD13R,0.06693X0.06693*%
%ADD14C,0.00400*%
%ADD15C,0.01200*%
%ADD16R,0.07500X0.09000*%
%ADD17O,0.07500X0.09000*%
%ADD18O,0.07500X0.09000*%
%ADD19R,0.07500X0.09000*%
%ADD20O,0.09000X0.07500*%
%ADD21R,0.09000X0.07500*%
%ADD22R,0.10500X0.10500*%
%ADD23C,0.10500*%
%ADD24R,0.10500X0.10500*%
%ADD25C,0.10000*%
%ADD26C,0.09000*%
%ADD27C,0.07500*%
%ADD28C,0.06000*%
%ADD29C,0.04000*%
%ADD30R,0.06693X0.05118*%
%ADD31R,0.05118X0.06693*%
%ADD32C,0.01400*%
%ADD33C,0.00600*%
%ADD34C,0.00800*%
%ADD35C,0.00787*%
%ADD36C,0.01600*%
%ADD37C,0.01000*%
%ADD38R,0.07493X0.07493*%
%ADD39R,0.07493X0.07493*%
%ADD40R,0.08300X0.09800*%
%ADD41O,0.08300X0.09800*%
%ADD42O,0.08300X0.09800*%
%ADD43R,0.08300X0.09800*%
%ADD44O,0.09800X0.08300*%
%ADD45R,0.09800X0.08300*%
%ADD46R,0.11300X0.11300*%
%ADD47C,0.11300*%
%ADD48C,0.00800*%
%ADD49R,0.11300X0.11300*%
%ADD50C,0.10800*%
%ADD51C,0.09800*%
%ADD52C,0.08300*%
D14*
X393701Y420276D02*
X423228D01*
Y437992D01*
X393701D02*
X423228D01*
X393701D02*
Y644685D01*
X423228D01*
Y662402D01*
X393701D02*
X423228D01*
X393701D02*
Y688976D01*
X763779D01*
Y393701D02*
Y688976D01*
X763779Y393701D02*
X763779Y393701D01*
X393701Y393701D02*
X763779D01*
X393701Y393701D02*
X393701Y393701D01*
X393701Y393701D02*
Y420276D01*
D15*
X773404Y603831D02*
X778069D01*
X775737D01*
Y596833D01*
X783901Y603831D02*
X781568D01*
X780402Y602665D01*
Y597999D01*
X781568Y596833D01*
X783901D01*
X785067Y597999D01*
Y602665D01*
X783901Y603831D01*
X787399Y596833D02*
Y603831D01*
X790898D01*
X792065Y602665D01*
Y600332D01*
X790898Y599166D01*
X787399D01*
X806060Y602665D02*
X804894Y603831D01*
X802561D01*
X801395Y602665D01*
Y601498D01*
X802561Y600332D01*
X804894D01*
X806060Y599166D01*
Y597999D01*
X804894Y596833D01*
X802561D01*
X801395Y597999D01*
X811891Y603831D02*
X809559D01*
X808393Y602665D01*
Y597999D01*
X809559Y596833D01*
X811891D01*
X813058Y597999D01*
Y602665D01*
X811891Y603831D01*
X815390D02*
Y596833D01*
X820055D01*
X822388Y603831D02*
Y596833D01*
X825887D01*
X827053Y597999D01*
Y602665D01*
X825887Y603831D01*
X822388D01*
X834051D02*
X829386D01*
Y596833D01*
X834051D01*
X829386Y600332D02*
X831718D01*
X836384Y596833D02*
Y603831D01*
X839882D01*
X841049Y602665D01*
Y600332D01*
X839882Y599166D01*
X836384D01*
X838716D02*
X841049Y596833D01*
D38*
X607504Y677000D02*
D03*
X620496D02*
D03*
Y666500D02*
D03*
X607504D02*
D03*
X620496Y656000D02*
D03*
X607504D02*
D03*
D39*
X627500Y638996D02*
D03*
Y626004D02*
D03*
D40*
X722500Y647500D02*
D03*
D41*
X712500D02*
D03*
X702500D02*
D03*
X692500D02*
D03*
X682500D02*
D03*
X672500D02*
D03*
X662500D02*
D03*
X652500D02*
D03*
X642500D02*
D03*
X722500Y617500D02*
D03*
X712500D02*
D03*
X702500D02*
D03*
X692500D02*
D03*
X682500D02*
D03*
X672500D02*
D03*
X662500D02*
D03*
X652500D02*
D03*
X642500D02*
D03*
D42*
X511339Y659449D02*
D03*
X501339D02*
D03*
X491339D02*
D03*
X697323Y423228D02*
D03*
X707323D02*
D03*
X717323D02*
D03*
X658976Y659449D02*
D03*
X678976D02*
D03*
X688976D02*
D03*
X698976D02*
D03*
X708976D02*
D03*
X718976D02*
D03*
X728976D02*
D03*
X738976D02*
D03*
X668976D02*
D03*
X452205Y423228D02*
D03*
X472205D02*
D03*
X482205D02*
D03*
X492205D02*
D03*
X502205D02*
D03*
X512205D02*
D03*
X522205D02*
D03*
X532205D02*
D03*
X462205D02*
D03*
D43*
X481339Y659449D02*
D03*
X727323Y423228D02*
D03*
X648976Y659449D02*
D03*
X442205Y423228D02*
D03*
D44*
X425197Y479921D02*
D03*
Y489921D02*
D03*
Y499921D02*
D03*
Y509921D02*
D03*
Y519921D02*
D03*
Y529921D02*
D03*
Y539921D02*
D03*
Y549921D02*
D03*
Y559921D02*
D03*
Y569921D02*
D03*
Y579921D02*
D03*
Y589921D02*
D03*
Y599921D02*
D03*
Y609921D02*
D03*
Y619921D02*
D03*
D45*
Y629921D02*
D03*
D46*
X741874Y471378D02*
D03*
X512374Y618878D02*
D03*
Y554378D02*
D03*
D47*
X734000Y495000D02*
D03*
Y447756D02*
D03*
X685968D02*
D03*
Y495000D02*
D03*
X456468Y642500D02*
D03*
Y595256D02*
D03*
X504500D02*
D03*
Y642500D02*
D03*
X456468Y578000D02*
D03*
X504500Y530756D02*
D03*
Y578000D02*
D03*
X742500Y578031D02*
D03*
X695256D02*
D03*
Y530000D02*
D03*
X742500D02*
D03*
X581500Y593000D02*
D03*
X534256D02*
D03*
Y641032D02*
D03*
X581500D02*
D03*
X665000Y578031D02*
D03*
X617756D02*
D03*
Y530000D02*
D03*
X665000D02*
D03*
D48*
X456468Y530756D02*
D03*
D49*
X718878Y522126D02*
D03*
X557878Y585126D02*
D03*
X641378Y522126D02*
D03*
D50*
X444000Y468000D02*
D03*
Y438000D02*
D03*
X464000D02*
D03*
Y468000D02*
D03*
X484000D02*
D03*
Y438000D02*
D03*
X514000Y468000D02*
D03*
Y438000D02*
D03*
X444000Y513000D02*
D03*
Y483000D02*
D03*
X464000D02*
D03*
Y513000D02*
D03*
X484000D02*
D03*
Y483000D02*
D03*
X514000Y513000D02*
D03*
Y483000D02*
D03*
D51*
X554000Y483500D02*
D03*
X559500Y541500D02*
D03*
X558500Y517000D02*
D03*
X471000Y574000D02*
D03*
X602000Y462000D02*
D03*
X584000Y461500D02*
D03*
Y553500D02*
D03*
X617000Y628500D02*
D03*
X588500Y658000D02*
D03*
X678000Y599500D02*
D03*
X594500Y555500D02*
D03*
X547000Y517000D02*
D03*
X546500Y541500D02*
D03*
X594500Y480500D02*
D03*
X631500Y656000D02*
D03*
D52*
X551996Y458496D02*
D03*
X632500Y679500D02*
D03*
M02*
