G04 Layer_Color=65535*
%FSLAX25Y25*%
%MOIN*%
G70*
G01*
G75*
%ADD10C,0.02000*%
%ADD20C,0.03000*%
%ADD21C,0.00800*%
%ADD23C,0.01200*%
%ADD43C,0.00984*%
%ADD44C,0.01000*%
%ADD45C,0.00787*%
%ADD46C,0.01400*%
%ADD47R,0.07874X0.03937*%
%ADD48R,0.03937X0.07874*%
G36*
X647469Y407107D02*
X647574D01*
X647715Y407095D01*
X647855Y407084D01*
X648007Y407060D01*
X648031D01*
X648078Y407049D01*
X648148D01*
X648230Y407037D01*
X648417Y407013D01*
X648499Y407002D01*
X648558Y406990D01*
Y405573D01*
X648370D01*
X648347Y405585D01*
X648312Y405596D01*
X648265Y405608D01*
X648207Y405632D01*
X648125Y405655D01*
X648031Y405690D01*
X647926Y405714D01*
X647914D01*
X647867Y405725D01*
X647808Y405737D01*
X647726Y405760D01*
X647621Y405772D01*
X647504Y405784D01*
X647363Y405795D01*
X647141D01*
X647071Y405784D01*
X647000D01*
X646907Y405772D01*
X646708Y405737D01*
X646473Y405690D01*
X646239Y405608D01*
X646005Y405491D01*
X645794Y405339D01*
X645771Y405315D01*
X645712Y405257D01*
X645630Y405152D01*
X645525Y405011D01*
X645420Y404835D01*
X645314Y404625D01*
X645232Y404367D01*
X645174Y404086D01*
X645185Y404098D01*
X645244Y404121D01*
X645314Y404168D01*
X645408Y404215D01*
X645525Y404273D01*
X645665Y404332D01*
X645958Y404449D01*
X645982Y404461D01*
X646028Y404472D01*
X646110Y404496D01*
X646228Y404519D01*
X646356Y404542D01*
X646497Y404566D01*
X646661Y404589D01*
X646989D01*
X647094Y404578D01*
X647211Y404566D01*
X647340Y404542D01*
X647609Y404484D01*
X647621D01*
X647668Y404472D01*
X647738Y404449D01*
X647832Y404414D01*
X647937Y404367D01*
X648043Y404320D01*
X648277Y404179D01*
X648300Y404168D01*
X648347Y404133D01*
X648417Y404062D01*
X648511Y403980D01*
X648616Y403875D01*
X648722Y403735D01*
X648827Y403594D01*
X648921Y403418D01*
X648933Y403395D01*
X648956Y403336D01*
X649003Y403231D01*
X649050Y403102D01*
X649085Y402927D01*
X649132Y402728D01*
X649155Y402505D01*
X649167Y402247D01*
Y402236D01*
Y402224D01*
Y402154D01*
X649155Y402048D01*
X649143Y401908D01*
X649120Y401756D01*
X649073Y401580D01*
X649026Y401393D01*
X648956Y401205D01*
X648944Y401182D01*
X648921Y401123D01*
X648874Y401030D01*
X648815Y400924D01*
X648733Y400784D01*
X648640Y400655D01*
X648523Y400514D01*
X648394Y400386D01*
X648370Y400374D01*
X648324Y400327D01*
X648242Y400268D01*
X648136Y400186D01*
X647996Y400105D01*
X647844Y400011D01*
X647668Y399929D01*
X647480Y399847D01*
X647457Y399835D01*
X647387Y399823D01*
X647281Y399788D01*
X647141Y399753D01*
X646965Y399718D01*
X646766Y399695D01*
X646532Y399671D01*
X646286Y399659D01*
X646181D01*
X646052Y399671D01*
X645900Y399683D01*
X645712Y399706D01*
X645513Y399730D01*
X645314Y399777D01*
X645103Y399835D01*
X645080Y399847D01*
X645010Y399870D01*
X644916Y399905D01*
X644787Y399964D01*
X644647Y400046D01*
X644494Y400128D01*
X644342Y400233D01*
X644190Y400362D01*
X644167Y400386D01*
X644120Y400444D01*
X644038Y400526D01*
X643944Y400655D01*
X643839Y400807D01*
X643722Y400994D01*
X643616Y401205D01*
X643523Y401439D01*
Y401451D01*
X643511Y401475D01*
X643499Y401510D01*
X643487Y401556D01*
X643476Y401615D01*
X643452Y401697D01*
X643429Y401779D01*
X643417Y401884D01*
X643370Y402107D01*
X643335Y402376D01*
X643312Y402669D01*
X643300Y402997D01*
Y403009D01*
Y403044D01*
Y403090D01*
Y403161D01*
X643312Y403243D01*
Y403336D01*
X643323Y403442D01*
Y403559D01*
X643347Y403828D01*
X643394Y404109D01*
X643440Y404390D01*
X643511Y404671D01*
Y404683D01*
X643523Y404706D01*
X643534Y404742D01*
X643558Y404800D01*
X643581Y404859D01*
X643605Y404929D01*
X643686Y405116D01*
X643780Y405315D01*
X643897Y405526D01*
X644049Y405749D01*
X644213Y405971D01*
X644225Y405983D01*
X644237Y405995D01*
X644295Y406065D01*
X644401Y406158D01*
X644553Y406276D01*
X644729Y406416D01*
X644939Y406557D01*
X645174Y406685D01*
X645443Y406814D01*
X645455D01*
X645478Y406826D01*
X645525Y406838D01*
X645572Y406861D01*
X645654Y406884D01*
X645736Y406908D01*
X645841Y406943D01*
X645947Y406966D01*
X646075Y406990D01*
X646216Y407025D01*
X646520Y407072D01*
X646860Y407107D01*
X647235Y407119D01*
X647363D01*
X647469Y407107D01*
D02*
G37*
G36*
X658741Y405737D02*
X655450D01*
Y404402D01*
X658495D01*
Y403020D01*
X655450D01*
Y399952D01*
X653600D01*
Y407119D01*
X658741D01*
Y405737D01*
D02*
G37*
G36*
X779059Y430443D02*
X779217Y430434D01*
X779410Y430425D01*
X779612Y430399D01*
X779823Y430372D01*
X780034Y430329D01*
X780043D01*
X780060Y430320D01*
X780086D01*
X780122Y430302D01*
X780218Y430276D01*
X780341Y430232D01*
X780481Y430179D01*
X780631Y430118D01*
X780771Y430039D01*
X780912Y429942D01*
X780929Y429933D01*
X780973Y429889D01*
X781035Y429837D01*
X781105Y429758D01*
X781193Y429653D01*
X781281Y429538D01*
X781368Y429398D01*
X781438Y429249D01*
Y429240D01*
X781447Y429231D01*
X781456Y429205D01*
X781465Y429178D01*
X781491Y429082D01*
X781526Y428968D01*
X781562Y428818D01*
X781588Y428643D01*
X781605Y428441D01*
X781614Y428221D01*
Y428213D01*
Y428195D01*
Y428160D01*
Y428116D01*
X781605Y428072D01*
Y428011D01*
X781588Y427861D01*
X781570Y427703D01*
X781544Y427528D01*
X781500Y427352D01*
X781438Y427185D01*
Y427177D01*
X781430Y427168D01*
X781403Y427115D01*
X781359Y427036D01*
X781298Y426939D01*
X781228Y426834D01*
X781131Y426720D01*
X781026Y426606D01*
X780903Y426501D01*
X780885Y426492D01*
X780841Y426457D01*
X780762Y426413D01*
X780657Y426351D01*
X780534Y426290D01*
X780385Y426228D01*
X780209Y426167D01*
X780025Y426114D01*
X780016D01*
X779999Y426105D01*
X779972D01*
X779928Y426097D01*
X779884Y426088D01*
X779823Y426079D01*
X779753Y426070D01*
X779674Y426061D01*
X779498Y426035D01*
X779287Y426018D01*
X779059Y426009D01*
X778813Y426000D01*
X778638D01*
X778568Y426009D01*
X778401Y426018D01*
X778216Y426026D01*
X778006Y426053D01*
X777804Y426079D01*
X777602Y426114D01*
X777593D01*
X777575Y426123D01*
X777549Y426132D01*
X777514Y426140D01*
X777417Y426167D01*
X777294Y426211D01*
X777163Y426263D01*
X777013Y426334D01*
X776864Y426413D01*
X776724Y426509D01*
X776706Y426518D01*
X776662Y426553D01*
X776601Y426615D01*
X776522Y426694D01*
X776443Y426799D01*
X776355Y426913D01*
X776267Y427054D01*
X776197Y427203D01*
Y427212D01*
X776188Y427220D01*
X776179Y427247D01*
X776170Y427282D01*
X776135Y427370D01*
X776100Y427493D01*
X776074Y427642D01*
X776039Y427817D01*
X776021Y428011D01*
X776013Y428221D01*
Y428230D01*
Y428248D01*
Y428283D01*
Y428327D01*
X776021Y428379D01*
Y428441D01*
X776039Y428581D01*
X776056Y428748D01*
X776091Y428915D01*
X776135Y429091D01*
X776197Y429257D01*
Y429266D01*
X776206Y429275D01*
X776232Y429328D01*
X776276Y429407D01*
X776337Y429503D01*
X776408Y429609D01*
X776504Y429723D01*
X776618Y429837D01*
X776741Y429942D01*
X776759Y429951D01*
X776803Y429986D01*
X776882Y430030D01*
X776987Y430091D01*
X777110Y430153D01*
X777259Y430214D01*
X777435Y430276D01*
X777619Y430329D01*
X777628D01*
X777646Y430337D01*
X777672D01*
X777707Y430346D01*
X777760Y430355D01*
X777821Y430364D01*
X777883Y430381D01*
X777962Y430390D01*
X778137Y430416D01*
X778339Y430434D01*
X778568Y430443D01*
X778813Y430451D01*
X778989D01*
X779059Y430443D01*
D02*
G37*
G36*
X638675Y405749D02*
X635302D01*
Y404566D01*
X635361D01*
X635408Y404578D01*
X635525D01*
X635677Y404589D01*
X635759D01*
X635818Y404601D01*
X636286D01*
X636438Y404589D01*
X636602Y404578D01*
X636778Y404554D01*
X636965Y404519D01*
X637141Y404484D01*
X637164D01*
X637223Y404461D01*
X637305Y404437D01*
X637422Y404402D01*
X637539Y404355D01*
X637679Y404297D01*
X637820Y404238D01*
X637949Y404168D01*
X637972Y404156D01*
X638019Y404121D01*
X638101Y404062D01*
X638195Y403980D01*
X638300Y403875D01*
X638417Y403758D01*
X638534Y403617D01*
X638628Y403465D01*
X638640Y403442D01*
X638663Y403383D01*
X638710Y403290D01*
X638757Y403172D01*
X638804Y403009D01*
X638850Y402821D01*
X638874Y402610D01*
X638886Y402376D01*
Y402364D01*
Y402353D01*
Y402282D01*
X638874Y402177D01*
X638862Y402037D01*
X638839Y401873D01*
X638792Y401697D01*
X638745Y401521D01*
X638675Y401334D01*
X638663Y401311D01*
X638640Y401252D01*
X638581Y401170D01*
X638523Y401053D01*
X638429Y400924D01*
X638324Y400784D01*
X638195Y400643D01*
X638054Y400514D01*
X638031Y400503D01*
X637972Y400456D01*
X637890Y400386D01*
X637761Y400315D01*
X637621Y400222D01*
X637445Y400140D01*
X637246Y400046D01*
X637036Y399976D01*
X637024D01*
X637012Y399964D01*
X636977D01*
X636930Y399952D01*
X636813Y399917D01*
X636661Y399894D01*
X636462Y399859D01*
X636239Y399823D01*
X635993Y399812D01*
X635724Y399800D01*
X635583D01*
X635501Y399812D01*
X635420D01*
X635220Y399823D01*
X634986Y399835D01*
X634740Y399870D01*
X634494Y399894D01*
X634260Y399940D01*
X634237D01*
X634166Y399964D01*
X634061Y399987D01*
X633921Y400023D01*
X633768Y400058D01*
X633604Y400105D01*
X633452Y400163D01*
X633300Y400222D01*
Y401814D01*
X633499D01*
X633523Y401802D01*
X633581Y401767D01*
X633663Y401720D01*
X633780Y401662D01*
X633932Y401592D01*
X634085Y401510D01*
X634260Y401439D01*
X634448Y401369D01*
X634459D01*
X634471Y401357D01*
X634530Y401346D01*
X634635Y401322D01*
X634764Y401287D01*
X634916Y401252D01*
X635080Y401229D01*
X635267Y401217D01*
X635455Y401205D01*
X635572D01*
X635654Y401217D01*
X635747D01*
X635864Y401229D01*
X636110Y401264D01*
X636122D01*
X636169Y401275D01*
X636239Y401299D01*
X636321Y401322D01*
X636509Y401404D01*
X636602Y401451D01*
X636684Y401521D01*
X636696Y401533D01*
X636708Y401545D01*
X636778Y401615D01*
X636860Y401709D01*
X636930Y401826D01*
Y401837D01*
X636942Y401861D01*
X636965Y401896D01*
X636977Y401943D01*
X637000Y402013D01*
X637012Y402095D01*
X637024Y402189D01*
Y402306D01*
Y402318D01*
Y402353D01*
Y402400D01*
X637012Y402458D01*
X636977Y402599D01*
X636907Y402739D01*
Y402751D01*
X636883Y402774D01*
X636825Y402845D01*
X636731Y402938D01*
X636614Y403032D01*
X636602Y403044D01*
X636567Y403055D01*
X636509Y403090D01*
X636438Y403126D01*
X636345Y403161D01*
X636239Y403196D01*
X636110Y403219D01*
X635982Y403243D01*
X635970D01*
X635923Y403254D01*
X635853Y403266D01*
X635759Y403278D01*
X635654D01*
X635548Y403290D01*
X635314Y403301D01*
X635150D01*
X635045Y403290D01*
X634916Y403278D01*
X634775Y403266D01*
X634471Y403219D01*
X634459D01*
X634401Y403208D01*
X634331Y403196D01*
X634237Y403172D01*
X634131Y403149D01*
X634014Y403126D01*
X633780Y403079D01*
X633569D01*
Y407119D01*
X638675D01*
Y405749D01*
D02*
G37*
G36*
X750659Y548263D02*
X750817Y548254D01*
X751010Y548245D01*
X751212Y548219D01*
X751423Y548193D01*
X751634Y548149D01*
X751643D01*
X751660Y548140D01*
X751686D01*
X751721Y548123D01*
X751818Y548096D01*
X751941Y548052D01*
X752081Y548000D01*
X752231Y547938D01*
X752371Y547859D01*
X752512Y547763D01*
X752529Y547754D01*
X752573Y547710D01*
X752635Y547657D01*
X752705Y547578D01*
X752793Y547473D01*
X752880Y547359D01*
X752968Y547218D01*
X753039Y547069D01*
Y547060D01*
X753047Y547051D01*
X753056Y547025D01*
X753065Y546999D01*
X753091Y546902D01*
X753126Y546788D01*
X753161Y546639D01*
X753188Y546463D01*
X753205Y546261D01*
X753214Y546042D01*
Y546033D01*
Y546015D01*
Y545980D01*
Y545936D01*
X753205Y545892D01*
Y545831D01*
X753188Y545682D01*
X753170Y545524D01*
X753144Y545348D01*
X753100Y545173D01*
X753039Y545006D01*
Y544997D01*
X753030Y544988D01*
X753003Y544935D01*
X752959Y544856D01*
X752898Y544760D01*
X752828Y544655D01*
X752731Y544540D01*
X752626Y544426D01*
X752503Y544321D01*
X752485Y544312D01*
X752442Y544277D01*
X752362Y544233D01*
X752257Y544172D01*
X752134Y544110D01*
X751985Y544049D01*
X751809Y543987D01*
X751625Y543934D01*
X751616D01*
X751599Y543926D01*
X751572D01*
X751528Y543917D01*
X751484Y543908D01*
X751423Y543899D01*
X751353Y543891D01*
X751274Y543882D01*
X751098Y543855D01*
X750887Y543838D01*
X750659Y543829D01*
X750413Y543820D01*
X750238D01*
X750168Y543829D01*
X750001Y543838D01*
X749816Y543847D01*
X749606Y543873D01*
X749404Y543899D01*
X749202Y543934D01*
X749193D01*
X749175Y543943D01*
X749149Y543952D01*
X749114Y543961D01*
X749017Y543987D01*
X748894Y544031D01*
X748763Y544084D01*
X748613Y544154D01*
X748464Y544233D01*
X748324Y544330D01*
X748306Y544338D01*
X748262Y544374D01*
X748201Y544435D01*
X748122Y544514D01*
X748043Y544619D01*
X747955Y544733D01*
X747867Y544874D01*
X747797Y545023D01*
Y545032D01*
X747788Y545041D01*
X747779Y545067D01*
X747771Y545102D01*
X747735Y545190D01*
X747700Y545313D01*
X747674Y545462D01*
X747639Y545638D01*
X747621Y545831D01*
X747612Y546042D01*
Y546051D01*
Y546068D01*
Y546103D01*
Y546147D01*
X747621Y546200D01*
Y546261D01*
X747639Y546402D01*
X747656Y546568D01*
X747691Y546735D01*
X747735Y546911D01*
X747797Y547078D01*
Y547086D01*
X747806Y547095D01*
X747832Y547148D01*
X747876Y547227D01*
X747937Y547324D01*
X748008Y547429D01*
X748104Y547543D01*
X748218Y547657D01*
X748341Y547763D01*
X748359Y547771D01*
X748403Y547807D01*
X748482Y547850D01*
X748587Y547912D01*
X748710Y547973D01*
X748859Y548035D01*
X749035Y548096D01*
X749219Y548149D01*
X749228D01*
X749246Y548158D01*
X749272D01*
X749307Y548167D01*
X749360Y548175D01*
X749421Y548184D01*
X749483Y548202D01*
X749562Y548210D01*
X749737Y548237D01*
X749939Y548254D01*
X750168Y548263D01*
X750413Y548272D01*
X750589D01*
X750659Y548263D01*
D02*
G37*
G36*
X420600Y654066D02*
X418770Y653437D01*
Y650172D01*
X420600Y649528D01*
Y647200D01*
X411640Y650509D01*
Y653159D01*
X420600Y656482D01*
Y654066D01*
D02*
G37*
G36*
X678575Y405596D02*
X675202D01*
Y404414D01*
X675261D01*
X675308Y404425D01*
X675425D01*
X675577Y404437D01*
X675659D01*
X675718Y404449D01*
X676186D01*
X676338Y404437D01*
X676502Y404425D01*
X676678Y404402D01*
X676865Y404367D01*
X677041Y404332D01*
X677064D01*
X677123Y404308D01*
X677205Y404285D01*
X677322Y404250D01*
X677439Y404203D01*
X677579Y404144D01*
X677720Y404086D01*
X677849Y404016D01*
X677872Y404004D01*
X677919Y403969D01*
X678001Y403910D01*
X678095Y403828D01*
X678200Y403723D01*
X678317Y403606D01*
X678434Y403465D01*
X678528Y403313D01*
X678540Y403290D01*
X678563Y403231D01*
X678610Y403137D01*
X678657Y403020D01*
X678704Y402856D01*
X678751Y402669D01*
X678774Y402458D01*
X678786Y402224D01*
Y402212D01*
Y402201D01*
Y402130D01*
X678774Y402025D01*
X678762Y401884D01*
X678739Y401720D01*
X678692Y401545D01*
X678645Y401369D01*
X678575Y401182D01*
X678563Y401158D01*
X678540Y401100D01*
X678481Y401018D01*
X678423Y400901D01*
X678329Y400772D01*
X678224Y400631D01*
X678095Y400491D01*
X677954Y400362D01*
X677931Y400350D01*
X677872Y400304D01*
X677790Y400233D01*
X677662Y400163D01*
X677521Y400069D01*
X677345Y399987D01*
X677146Y399894D01*
X676935Y399823D01*
X676924D01*
X676912Y399812D01*
X676877D01*
X676830Y399800D01*
X676713Y399765D01*
X676561Y399741D01*
X676362Y399706D01*
X676139Y399671D01*
X675893Y399659D01*
X675624Y399648D01*
X675483D01*
X675401Y399659D01*
X675319D01*
X675120Y399671D01*
X674886Y399683D01*
X674640Y399718D01*
X674394Y399741D01*
X674160Y399788D01*
X674137D01*
X674066Y399812D01*
X673961Y399835D01*
X673821Y399870D01*
X673668Y399905D01*
X673504Y399952D01*
X673352Y400011D01*
X673200Y400069D01*
Y401662D01*
X673399D01*
X673422Y401650D01*
X673481Y401615D01*
X673563Y401568D01*
X673680Y401510D01*
X673832Y401439D01*
X673985Y401357D01*
X674160Y401287D01*
X674348Y401217D01*
X674359D01*
X674371Y401205D01*
X674430Y401194D01*
X674535Y401170D01*
X674664Y401135D01*
X674816Y401100D01*
X674980Y401076D01*
X675167Y401065D01*
X675355Y401053D01*
X675472D01*
X675554Y401065D01*
X675647D01*
X675765Y401076D01*
X676010Y401112D01*
X676022D01*
X676069Y401123D01*
X676139Y401147D01*
X676221Y401170D01*
X676408Y401252D01*
X676502Y401299D01*
X676584Y401369D01*
X676596Y401381D01*
X676608Y401393D01*
X676678Y401463D01*
X676760Y401556D01*
X676830Y401674D01*
Y401685D01*
X676842Y401709D01*
X676865Y401744D01*
X676877Y401791D01*
X676900Y401861D01*
X676912Y401943D01*
X676924Y402037D01*
Y402154D01*
Y402165D01*
Y402201D01*
Y402247D01*
X676912Y402306D01*
X676877Y402447D01*
X676807Y402587D01*
Y402599D01*
X676783Y402622D01*
X676725Y402692D01*
X676631Y402786D01*
X676514Y402880D01*
X676502Y402891D01*
X676467Y402903D01*
X676408Y402938D01*
X676338Y402973D01*
X676245Y403009D01*
X676139Y403044D01*
X676010Y403067D01*
X675882Y403090D01*
X675870D01*
X675823Y403102D01*
X675753Y403114D01*
X675659Y403126D01*
X675554D01*
X675448Y403137D01*
X675214Y403149D01*
X675050D01*
X674945Y403137D01*
X674816Y403126D01*
X674676Y403114D01*
X674371Y403067D01*
X674359D01*
X674301Y403055D01*
X674230Y403044D01*
X674137Y403020D01*
X674031Y402997D01*
X673914Y402973D01*
X673680Y402927D01*
X673469D01*
Y406966D01*
X678575D01*
Y405596D01*
D02*
G37*
G36*
X686573Y407259D02*
X686655D01*
X686843Y407236D01*
X687065Y407212D01*
X687288Y407166D01*
X687522Y407107D01*
X687744Y407025D01*
X687756D01*
X687768Y407013D01*
X687838Y406978D01*
X687944Y406920D01*
X688072Y406838D01*
X688213Y406744D01*
X688365Y406615D01*
X688517Y406463D01*
X688658Y406299D01*
X688669Y406276D01*
X688716Y406217D01*
X688775Y406112D01*
X688857Y405971D01*
X688939Y405807D01*
X689021Y405608D01*
X689103Y405374D01*
X689173Y405128D01*
Y405116D01*
X689185Y405093D01*
Y405058D01*
X689196Y405011D01*
X689208Y404941D01*
X689220Y404859D01*
X689243Y404777D01*
X689255Y404671D01*
X689290Y404437D01*
X689314Y404168D01*
X689325Y403863D01*
X689337Y403536D01*
Y403524D01*
Y403500D01*
Y403453D01*
Y403383D01*
Y403301D01*
X689325Y403208D01*
X689314Y402997D01*
X689302Y402739D01*
X689267Y402470D01*
X689232Y402189D01*
X689173Y401908D01*
Y401896D01*
X689161Y401873D01*
Y401837D01*
X689138Y401791D01*
X689103Y401662D01*
X689044Y401498D01*
X688974Y401311D01*
X688892Y401112D01*
X688787Y400924D01*
X688658Y400737D01*
X688646Y400713D01*
X688588Y400655D01*
X688517Y400573D01*
X688412Y400479D01*
X688271Y400362D01*
X688119Y400245D01*
X687932Y400128D01*
X687733Y400034D01*
X687721D01*
X687709Y400023D01*
X687674Y400011D01*
X687639Y399999D01*
X687510Y399964D01*
X687358Y399917D01*
X687159Y399870D01*
X686925Y399835D01*
X686655Y399812D01*
X686363Y399800D01*
X686222D01*
X686164Y399812D01*
X686082D01*
X685883Y399835D01*
X685672Y399859D01*
X685437Y399894D01*
X685203Y399952D01*
X684981Y400034D01*
X684969D01*
X684957Y400046D01*
X684887Y400081D01*
X684782Y400140D01*
X684653Y400222D01*
X684512Y400315D01*
X684360Y400444D01*
X684208Y400585D01*
X684067Y400748D01*
X684056Y400772D01*
X684009Y400831D01*
X683950Y400936D01*
X683868Y401076D01*
X683786Y401240D01*
X683705Y401439D01*
X683623Y401674D01*
X683552Y401920D01*
Y401931D01*
X683540Y401955D01*
Y401990D01*
X683529Y402048D01*
X683517Y402107D01*
X683505Y402189D01*
X683494Y402282D01*
X683482Y402388D01*
X683447Y402622D01*
X683423Y402903D01*
X683412Y403208D01*
X683400Y403536D01*
Y403547D01*
Y403582D01*
Y403629D01*
Y403688D01*
Y403770D01*
X683412Y403863D01*
X683423Y404086D01*
X683435Y404332D01*
X683470Y404613D01*
X683505Y404882D01*
X683552Y405152D01*
Y405163D01*
X683564Y405187D01*
X683576Y405222D01*
X683587Y405269D01*
X683623Y405397D01*
X683681Y405561D01*
X683751Y405737D01*
X683845Y405936D01*
X683950Y406135D01*
X684079Y406322D01*
X684091Y406346D01*
X684138Y406404D01*
X684220Y406486D01*
X684325Y406592D01*
X684466Y406697D01*
X684618Y406814D01*
X684805Y406931D01*
X685004Y407025D01*
X685016D01*
X685028Y407037D01*
X685063Y407049D01*
X685110Y407060D01*
X685227Y407107D01*
X685391Y407154D01*
X685590Y407189D01*
X685824Y407236D01*
X686082Y407259D01*
X686363Y407271D01*
X686503D01*
X686573Y407259D01*
D02*
G37*
G36*
X627434Y402927D02*
X628406D01*
Y401603D01*
X627434D01*
Y399929D01*
X625666D01*
Y401603D01*
X622200D01*
Y402973D01*
X625549Y407119D01*
X627434D01*
Y402927D01*
D02*
G37*
G36*
X781500Y434446D02*
Y432901D01*
X776127Y430943D01*
Y432401D01*
X779893Y433691D01*
X776127Y434991D01*
Y436413D01*
X781500Y434446D01*
D02*
G37*
G36*
X571167Y699900D02*
X569622D01*
X567664Y705273D01*
X569122D01*
X570412Y701507D01*
X571712Y705273D01*
X573134D01*
X571167Y699900D01*
D02*
G37*
G36*
X779059Y441347D02*
X779217Y441339D01*
X779410Y441330D01*
X779612Y441303D01*
X779823Y441277D01*
X780034Y441233D01*
X780043D01*
X780060Y441224D01*
X780086D01*
X780122Y441207D01*
X780218Y441181D01*
X780341Y441137D01*
X780481Y441084D01*
X780631Y441023D01*
X780771Y440944D01*
X780912Y440847D01*
X780929Y440838D01*
X780973Y440794D01*
X781035Y440742D01*
X781105Y440663D01*
X781193Y440557D01*
X781281Y440443D01*
X781368Y440303D01*
X781438Y440153D01*
Y440145D01*
X781447Y440136D01*
X781456Y440109D01*
X781465Y440083D01*
X781491Y439987D01*
X781526Y439872D01*
X781562Y439723D01*
X781588Y439547D01*
X781605Y439346D01*
X781614Y439126D01*
Y439117D01*
Y439100D01*
Y439065D01*
Y439021D01*
X781605Y438977D01*
Y438915D01*
X781588Y438766D01*
X781570Y438608D01*
X781544Y438433D01*
X781500Y438257D01*
X781438Y438090D01*
Y438081D01*
X781430Y438072D01*
X781403Y438020D01*
X781359Y437941D01*
X781298Y437844D01*
X781228Y437739D01*
X781131Y437625D01*
X781026Y437511D01*
X780903Y437405D01*
X780885Y437396D01*
X780841Y437361D01*
X780762Y437317D01*
X780657Y437256D01*
X780534Y437194D01*
X780385Y437133D01*
X780209Y437072D01*
X780025Y437019D01*
X780016D01*
X779999Y437010D01*
X779972D01*
X779928Y437001D01*
X779884Y436993D01*
X779823Y436984D01*
X779753Y436975D01*
X779674Y436966D01*
X779498Y436940D01*
X779287Y436922D01*
X779059Y436913D01*
X778813Y436905D01*
X778638D01*
X778568Y436913D01*
X778401Y436922D01*
X778216Y436931D01*
X778006Y436957D01*
X777804Y436984D01*
X777602Y437019D01*
X777593D01*
X777575Y437028D01*
X777549Y437037D01*
X777514Y437045D01*
X777417Y437072D01*
X777294Y437115D01*
X777163Y437168D01*
X777013Y437238D01*
X776864Y437317D01*
X776724Y437414D01*
X776706Y437423D01*
X776662Y437458D01*
X776601Y437519D01*
X776522Y437598D01*
X776443Y437704D01*
X776355Y437818D01*
X776267Y437958D01*
X776197Y438108D01*
Y438116D01*
X776188Y438125D01*
X776179Y438152D01*
X776170Y438187D01*
X776135Y438274D01*
X776100Y438397D01*
X776074Y438547D01*
X776039Y438722D01*
X776021Y438915D01*
X776013Y439126D01*
Y439135D01*
Y439152D01*
Y439188D01*
Y439231D01*
X776021Y439284D01*
Y439346D01*
X776039Y439486D01*
X776056Y439653D01*
X776091Y439820D01*
X776135Y439995D01*
X776197Y440162D01*
Y440171D01*
X776206Y440180D01*
X776232Y440232D01*
X776276Y440311D01*
X776337Y440408D01*
X776408Y440513D01*
X776504Y440627D01*
X776618Y440742D01*
X776741Y440847D01*
X776759Y440856D01*
X776803Y440891D01*
X776882Y440935D01*
X776987Y440996D01*
X777110Y441058D01*
X777259Y441119D01*
X777435Y441181D01*
X777619Y441233D01*
X777628D01*
X777646Y441242D01*
X777672D01*
X777707Y441251D01*
X777760Y441260D01*
X777821Y441268D01*
X777883Y441286D01*
X777962Y441295D01*
X778137Y441321D01*
X778339Y441339D01*
X778568Y441347D01*
X778813Y441356D01*
X778989D01*
X779059Y441347D01*
D02*
G37*
G36*
X576005Y705379D02*
X576067D01*
X576207Y705361D01*
X576374Y705344D01*
X576541Y705308D01*
X576716Y705265D01*
X576883Y705203D01*
X576892D01*
X576901Y705194D01*
X576953Y705168D01*
X577032Y705124D01*
X577129Y705063D01*
X577234Y704992D01*
X577349Y704896D01*
X577463Y704782D01*
X577568Y704659D01*
X577577Y704641D01*
X577612Y704597D01*
X577656Y704518D01*
X577717Y704413D01*
X577779Y704290D01*
X577840Y704141D01*
X577902Y703965D01*
X577954Y703781D01*
Y703772D01*
X577963Y703754D01*
Y703728D01*
X577972Y703693D01*
X577981Y703640D01*
X577989Y703579D01*
X578007Y703517D01*
X578016Y703438D01*
X578042Y703263D01*
X578060Y703061D01*
X578068Y702833D01*
X578077Y702587D01*
Y702578D01*
Y702560D01*
Y702525D01*
Y702472D01*
Y702411D01*
X578068Y702341D01*
X578060Y702183D01*
X578051Y701990D01*
X578024Y701788D01*
X577998Y701577D01*
X577954Y701366D01*
Y701358D01*
X577946Y701340D01*
Y701314D01*
X577928Y701278D01*
X577902Y701182D01*
X577858Y701059D01*
X577805Y700918D01*
X577744Y700769D01*
X577665Y700629D01*
X577568Y700488D01*
X577559Y700471D01*
X577515Y700427D01*
X577463Y700365D01*
X577384Y700295D01*
X577278Y700207D01*
X577164Y700119D01*
X577024Y700032D01*
X576874Y699962D01*
X576866D01*
X576857Y699953D01*
X576830Y699944D01*
X576804Y699935D01*
X576708Y699909D01*
X576593Y699874D01*
X576444Y699838D01*
X576268Y699812D01*
X576067Y699795D01*
X575847Y699786D01*
X575742D01*
X575698Y699795D01*
X575636D01*
X575487Y699812D01*
X575329Y699830D01*
X575153Y699856D01*
X574978Y699900D01*
X574811Y699962D01*
X574802D01*
X574793Y699970D01*
X574741Y699997D01*
X574662Y700040D01*
X574565Y700102D01*
X574460Y700172D01*
X574346Y700269D01*
X574232Y700374D01*
X574126Y700497D01*
X574117Y700515D01*
X574082Y700559D01*
X574038Y700637D01*
X573977Y700743D01*
X573915Y700866D01*
X573854Y701015D01*
X573793Y701191D01*
X573740Y701375D01*
Y701384D01*
X573731Y701401D01*
Y701428D01*
X573722Y701472D01*
X573713Y701515D01*
X573705Y701577D01*
X573696Y701647D01*
X573687Y701726D01*
X573661Y701902D01*
X573643Y702113D01*
X573634Y702341D01*
X573626Y702587D01*
Y702596D01*
Y702622D01*
Y702657D01*
Y702701D01*
Y702762D01*
X573634Y702833D01*
X573643Y702999D01*
X573652Y703184D01*
X573678Y703394D01*
X573705Y703596D01*
X573740Y703798D01*
Y703807D01*
X573749Y703825D01*
X573757Y703851D01*
X573766Y703886D01*
X573793Y703983D01*
X573837Y704106D01*
X573889Y704237D01*
X573959Y704387D01*
X574038Y704536D01*
X574135Y704676D01*
X574144Y704694D01*
X574179Y704738D01*
X574240Y704799D01*
X574319Y704878D01*
X574425Y704957D01*
X574539Y705045D01*
X574679Y705133D01*
X574829Y705203D01*
X574837D01*
X574846Y705212D01*
X574872Y705221D01*
X574908Y705230D01*
X574995Y705265D01*
X575118Y705300D01*
X575268Y705326D01*
X575443Y705361D01*
X575636Y705379D01*
X575847Y705387D01*
X575952D01*
X576005Y705379D01*
D02*
G37*
G36*
X605440Y407107D02*
X605557D01*
X605686Y407084D01*
X605827Y407072D01*
X605979Y407049D01*
X606307Y406978D01*
X606646Y406873D01*
X606822Y406814D01*
X606974Y406732D01*
X607126Y406650D01*
X607267Y406545D01*
X607279Y406533D01*
X607302Y406522D01*
X607337Y406486D01*
X607384Y406440D01*
X607431Y406381D01*
X607489Y406311D01*
X607560Y406229D01*
X607630Y406135D01*
X607689Y406030D01*
X607759Y405901D01*
X607817Y405772D01*
X607876Y405632D01*
X607911Y405479D01*
X607946Y405304D01*
X607970Y405128D01*
X607981Y404941D01*
Y404929D01*
Y404906D01*
Y404870D01*
Y404824D01*
X607970Y404695D01*
X607934Y404519D01*
X607899Y404320D01*
X607841Y404109D01*
X607759Y403875D01*
X607642Y403641D01*
Y403629D01*
X607630Y403617D01*
X607607Y403582D01*
X607583Y403536D01*
X607501Y403418D01*
X607384Y403254D01*
X607243Y403067D01*
X607056Y402856D01*
X606845Y402622D01*
X606599Y402388D01*
X606576Y402364D01*
X606529Y402318D01*
X606435Y402236D01*
X606330Y402142D01*
X606190Y402025D01*
X606049Y401896D01*
X605721Y401639D01*
X605698Y401627D01*
X605651Y401580D01*
X605569Y401521D01*
X605475Y401451D01*
X605276Y401299D01*
X605183Y401229D01*
X605101Y401170D01*
X608309D01*
Y399800D01*
X602700D01*
Y400971D01*
X602712D01*
X602723Y400994D01*
X602759Y401018D01*
X602805Y401053D01*
X602934Y401147D01*
X603098Y401275D01*
X603286Y401416D01*
X603508Y401592D01*
X603742Y401767D01*
X603976Y401966D01*
X603988Y401978D01*
X604000Y401990D01*
X604035Y402013D01*
X604082Y402060D01*
X604199Y402154D01*
X604351Y402282D01*
X604515Y402423D01*
X604679Y402575D01*
X604855Y402728D01*
X605007Y402880D01*
X605019Y402891D01*
X605030Y402903D01*
X605101Y402973D01*
X605206Y403079D01*
X605335Y403219D01*
X605464Y403371D01*
X605604Y403536D01*
X605733Y403699D01*
X605838Y403863D01*
X605850Y403887D01*
X605873Y403934D01*
X605920Y404016D01*
X605967Y404121D01*
X606002Y404250D01*
X606049Y404390D01*
X606073Y404542D01*
X606084Y404695D01*
Y404718D01*
Y404777D01*
X606073Y404870D01*
X606049Y404976D01*
X606002Y405093D01*
X605955Y405222D01*
X605873Y405350D01*
X605768Y405456D01*
X605756Y405468D01*
X605710Y405503D01*
X605639Y405538D01*
X605534Y405596D01*
X605405Y405643D01*
X605253Y405678D01*
X605077Y405714D01*
X604866Y405725D01*
X604784D01*
X604702Y405714D01*
X604585Y405702D01*
X604445Y405678D01*
X604281Y405643D01*
X604117Y405596D01*
X603930Y405538D01*
X603906Y405526D01*
X603848Y405503D01*
X603754Y405468D01*
X603637Y405421D01*
X603496Y405350D01*
X603356Y405269D01*
X603040Y405081D01*
X602887D01*
Y406662D01*
X602899Y406674D01*
X602946Y406685D01*
X603028Y406721D01*
X603145Y406756D01*
X603286Y406803D01*
X603449Y406849D01*
X603649Y406908D01*
X603883Y406966D01*
X603894D01*
X603918Y406978D01*
X603953D01*
X604000Y406990D01*
X604058Y407002D01*
X604129Y407013D01*
X604304Y407049D01*
X604503Y407072D01*
X604726Y407095D01*
X604972Y407107D01*
X605218Y407119D01*
X605346D01*
X605440Y407107D01*
D02*
G37*
G36*
X615504D02*
X615656D01*
X615844Y407084D01*
X616043Y407060D01*
X616242Y407037D01*
X616441Y406990D01*
X616464D01*
X616523Y406966D01*
X616616Y406943D01*
X616745Y406908D01*
X616874Y406861D01*
X617015Y406814D01*
X617155Y406756D01*
X617284Y406685D01*
X617307Y406674D01*
X617354Y406639D01*
X617424Y406592D01*
X617507Y406522D01*
X617600Y406440D01*
X617694Y406334D01*
X617788Y406229D01*
X617870Y406100D01*
X617881Y406088D01*
X617905Y406041D01*
X617928Y405971D01*
X617975Y405877D01*
X618010Y405760D01*
X618033Y405632D01*
X618057Y405479D01*
X618069Y405315D01*
Y405304D01*
Y405292D01*
Y405257D01*
Y405210D01*
X618045Y405105D01*
X618022Y404964D01*
X617975Y404788D01*
X617916Y404613D01*
X617823Y404425D01*
X617694Y404250D01*
X617682Y404226D01*
X617624Y404179D01*
X617542Y404098D01*
X617436Y404004D01*
X617284Y403898D01*
X617120Y403805D01*
X616933Y403711D01*
X616710Y403653D01*
Y403582D01*
X616722D01*
X616757Y403571D01*
X616804D01*
X616862Y403547D01*
X616944Y403536D01*
X617026Y403512D01*
X617226Y403442D01*
X617237D01*
X617272Y403430D01*
X617331Y403407D01*
X617401Y403371D01*
X617565Y403290D01*
X617741Y403161D01*
X617752Y403149D01*
X617776Y403126D01*
X617823Y403079D01*
X617881Y403020D01*
X617940Y402950D01*
X617998Y402868D01*
X618115Y402681D01*
X618127Y402669D01*
X618139Y402634D01*
X618162Y402575D01*
X618186Y402493D01*
X618209Y402388D01*
X618232Y402271D01*
X618256Y402130D01*
Y401966D01*
Y401943D01*
Y401884D01*
X618244Y401779D01*
X618232Y401662D01*
X618209Y401510D01*
X618162Y401357D01*
X618115Y401182D01*
X618045Y401018D01*
X618033Y400994D01*
X618010Y400948D01*
X617963Y400866D01*
X617893Y400760D01*
X617811Y400643D01*
X617706Y400514D01*
X617577Y400397D01*
X617436Y400268D01*
X617413Y400257D01*
X617366Y400222D01*
X617284Y400163D01*
X617167Y400093D01*
X617026Y400023D01*
X616874Y399940D01*
X616687Y399870D01*
X616488Y399800D01*
X616476D01*
X616464Y399788D01*
X616429D01*
X616394Y399777D01*
X616277Y399753D01*
X616113Y399730D01*
X615926Y399695D01*
X615703Y399671D01*
X615446Y399659D01*
X615165Y399648D01*
X614942D01*
X614848Y399659D01*
X614638Y399671D01*
X614403Y399683D01*
X614146Y399706D01*
X613876Y399741D01*
X613630Y399788D01*
X613619D01*
X613607Y399800D01*
X613572D01*
X613525Y399812D01*
X613408Y399835D01*
X613268Y399870D01*
X613103Y399917D01*
X612928Y399976D01*
X612764Y400034D01*
X612600Y400093D01*
Y401674D01*
X612787D01*
X612811Y401662D01*
X612858Y401627D01*
X612951Y401580D01*
X613068Y401521D01*
X613209Y401451D01*
X613373Y401381D01*
X613560Y401299D01*
X613771Y401229D01*
X613783D01*
X613794Y401217D01*
X613865Y401205D01*
X613982Y401170D01*
X614122Y401147D01*
X614286Y401112D01*
X614474Y401076D01*
X614649Y401065D01*
X614837Y401053D01*
X615024D01*
X615106Y401065D01*
X615211D01*
X615446Y401088D01*
X615457D01*
X615504Y401100D01*
X615563Y401112D01*
X615633Y401135D01*
X615820Y401194D01*
X615996Y401299D01*
X616008D01*
X616031Y401322D01*
X616101Y401381D01*
X616183Y401463D01*
X616277Y401580D01*
Y401592D01*
X616300Y401615D01*
X616312Y401650D01*
X616335Y401709D01*
X616359Y401779D01*
X616371Y401873D01*
X616394Y401966D01*
Y402083D01*
Y402095D01*
Y402130D01*
X616382Y402189D01*
X616371Y402259D01*
X616335Y402423D01*
X616289Y402493D01*
X616242Y402564D01*
X616230Y402575D01*
X616218Y402587D01*
X616183Y402622D01*
X616136Y402657D01*
X616019Y402751D01*
X615855Y402821D01*
X615844D01*
X615808Y402833D01*
X615762Y402845D01*
X615691Y402856D01*
X615610Y402868D01*
X615516Y402891D01*
X615399D01*
X615282Y402903D01*
X615165D01*
X615083Y402915D01*
X614275D01*
Y404191D01*
X614907D01*
X615012Y404203D01*
X615129D01*
X615352Y404215D01*
X615399D01*
X615457Y404226D01*
X615527Y404238D01*
X615680Y404273D01*
X615844Y404320D01*
X615855D01*
X615879Y404332D01*
X615914Y404355D01*
X615961Y404390D01*
X616066Y404461D01*
X616160Y404566D01*
Y404578D01*
X616183Y404589D01*
X616195Y404625D01*
X616218Y404683D01*
X616242Y404742D01*
X616254Y404824D01*
X616277Y404906D01*
Y405011D01*
Y405023D01*
Y405046D01*
Y405081D01*
X616265Y405128D01*
X616230Y405245D01*
X616160Y405350D01*
Y405362D01*
X616136Y405374D01*
X616090Y405433D01*
X615996Y405503D01*
X615879Y405561D01*
X615867D01*
X615844Y405573D01*
X615808Y405596D01*
X615750Y405608D01*
X615691Y405632D01*
X615610Y405655D01*
X615434Y405678D01*
X615422D01*
X615387Y405690D01*
X615340D01*
X615282Y405702D01*
X615141Y405714D01*
X614919D01*
X614825Y405702D01*
X614708Y405690D01*
X614556Y405678D01*
X614392Y405643D01*
X614204Y405608D01*
X614005Y405550D01*
X613982Y405538D01*
X613911Y405526D01*
X613818Y405491D01*
X613677Y405444D01*
X613525Y405374D01*
X613349Y405304D01*
X613174Y405222D01*
X612986Y405116D01*
X612811D01*
Y406662D01*
X612834Y406674D01*
X612881Y406685D01*
X612975Y406721D01*
X613092Y406756D01*
X613244Y406803D01*
X613420Y406849D01*
X613630Y406908D01*
X613876Y406966D01*
X613888D01*
X613911Y406978D01*
X613947D01*
X613994Y406990D01*
X614052Y407002D01*
X614134Y407013D01*
X614310Y407049D01*
X614509Y407072D01*
X614743Y407095D01*
X615001Y407107D01*
X615258Y407119D01*
X615375D01*
X615504Y407107D01*
D02*
G37*
G36*
X565926Y705370D02*
X566005D01*
X566110Y705361D01*
X566215Y705352D01*
X566330Y705335D01*
X566347D01*
X566382Y705326D01*
X566435D01*
X566496Y705317D01*
X566637Y705300D01*
X566698Y705291D01*
X566742Y705282D01*
Y704220D01*
X566602D01*
X566584Y704228D01*
X566558Y704237D01*
X566523Y704246D01*
X566479Y704264D01*
X566417Y704281D01*
X566347Y704308D01*
X566268Y704325D01*
X566259D01*
X566224Y704334D01*
X566180Y704343D01*
X566119Y704360D01*
X566040Y704369D01*
X565952Y704378D01*
X565847Y704387D01*
X565680D01*
X565627Y704378D01*
X565575D01*
X565504Y704369D01*
X565355Y704343D01*
X565179Y704308D01*
X565004Y704246D01*
X564828Y704158D01*
X564670Y704044D01*
X564653Y704027D01*
X564609Y703983D01*
X564547Y703904D01*
X564468Y703798D01*
X564389Y703667D01*
X564310Y703509D01*
X564249Y703315D01*
X564205Y703105D01*
X564214Y703114D01*
X564257Y703131D01*
X564310Y703166D01*
X564380Y703201D01*
X564468Y703245D01*
X564574Y703289D01*
X564793Y703377D01*
X564811Y703386D01*
X564846Y703394D01*
X564907Y703412D01*
X564995Y703430D01*
X565092Y703447D01*
X565197Y703465D01*
X565320Y703482D01*
X565566D01*
X565645Y703474D01*
X565732Y703465D01*
X565829Y703447D01*
X566031Y703403D01*
X566040D01*
X566075Y703394D01*
X566128Y703377D01*
X566198Y703350D01*
X566277Y703315D01*
X566356Y703280D01*
X566532Y703175D01*
X566549Y703166D01*
X566584Y703140D01*
X566637Y703087D01*
X566707Y703026D01*
X566786Y702947D01*
X566865Y702841D01*
X566944Y702736D01*
X567014Y702604D01*
X567023Y702587D01*
X567041Y702543D01*
X567076Y702464D01*
X567111Y702367D01*
X567137Y702236D01*
X567172Y702086D01*
X567190Y701919D01*
X567199Y701726D01*
Y701718D01*
Y701709D01*
Y701656D01*
X567190Y701577D01*
X567181Y701472D01*
X567164Y701358D01*
X567129Y701226D01*
X567093Y701085D01*
X567041Y700945D01*
X567032Y700927D01*
X567014Y700883D01*
X566979Y700813D01*
X566935Y700734D01*
X566874Y700629D01*
X566804Y700532D01*
X566716Y700427D01*
X566619Y700330D01*
X566602Y700321D01*
X566567Y700286D01*
X566505Y700242D01*
X566426Y700181D01*
X566321Y700119D01*
X566207Y700049D01*
X566075Y699988D01*
X565935Y699926D01*
X565917Y699918D01*
X565864Y699909D01*
X565785Y699882D01*
X565680Y699856D01*
X565548Y699830D01*
X565399Y699812D01*
X565223Y699795D01*
X565039Y699786D01*
X564960D01*
X564863Y699795D01*
X564749Y699803D01*
X564609Y699821D01*
X564459Y699838D01*
X564310Y699874D01*
X564152Y699918D01*
X564135Y699926D01*
X564082Y699944D01*
X564012Y699970D01*
X563915Y700014D01*
X563810Y700076D01*
X563696Y700137D01*
X563581Y700216D01*
X563467Y700313D01*
X563450Y700330D01*
X563415Y700374D01*
X563353Y700436D01*
X563283Y700532D01*
X563204Y700646D01*
X563116Y700787D01*
X563037Y700945D01*
X562967Y701120D01*
Y701129D01*
X562958Y701147D01*
X562949Y701173D01*
X562941Y701208D01*
X562932Y701252D01*
X562914Y701314D01*
X562897Y701375D01*
X562888Y701454D01*
X562853Y701621D01*
X562826Y701823D01*
X562809Y702042D01*
X562800Y702288D01*
Y702297D01*
Y702323D01*
Y702358D01*
Y702411D01*
X562809Y702472D01*
Y702543D01*
X562818Y702622D01*
Y702710D01*
X562835Y702912D01*
X562870Y703122D01*
X562905Y703333D01*
X562958Y703544D01*
Y703552D01*
X562967Y703570D01*
X562976Y703596D01*
X562993Y703640D01*
X563011Y703684D01*
X563028Y703737D01*
X563090Y703877D01*
X563160Y704027D01*
X563248Y704185D01*
X563362Y704352D01*
X563485Y704518D01*
X563494Y704527D01*
X563502Y704536D01*
X563546Y704589D01*
X563625Y704659D01*
X563739Y704747D01*
X563871Y704852D01*
X564029Y704957D01*
X564205Y705054D01*
X564407Y705150D01*
X564416D01*
X564433Y705159D01*
X564468Y705168D01*
X564503Y705186D01*
X564565Y705203D01*
X564626Y705221D01*
X564705Y705247D01*
X564784Y705265D01*
X564881Y705282D01*
X564986Y705308D01*
X565214Y705344D01*
X565469Y705370D01*
X565750Y705379D01*
X565847D01*
X565926Y705370D01*
D02*
G37*
G36*
X596702Y401182D02*
X598178D01*
Y399929D01*
X593400D01*
Y401182D01*
X594911D01*
Y404976D01*
X593400D01*
Y406147D01*
X593611D01*
X593705Y406158D01*
X593822D01*
X594056Y406182D01*
X594067D01*
X594114Y406194D01*
X594173D01*
X594243Y406217D01*
X594407Y406252D01*
X594583Y406322D01*
X594594D01*
X594630Y406346D01*
X594676Y406369D01*
X594723Y406404D01*
X594852Y406498D01*
X594911Y406557D01*
X594957Y406627D01*
X594969Y406639D01*
X594981Y406662D01*
X595004Y406709D01*
X595028Y406768D01*
X595051Y406838D01*
X595075Y406920D01*
X595110Y407119D01*
X596702D01*
Y401182D01*
D02*
G37*
G36*
X529640Y456407D02*
X529757D01*
X529886Y456384D01*
X530027Y456372D01*
X530179Y456349D01*
X530507Y456278D01*
X530846Y456173D01*
X531022Y456114D01*
X531174Y456032D01*
X531326Y455950D01*
X531467Y455845D01*
X531479Y455833D01*
X531502Y455822D01*
X531537Y455786D01*
X531584Y455740D01*
X531631Y455681D01*
X531689Y455611D01*
X531760Y455529D01*
X531830Y455435D01*
X531888Y455330D01*
X531959Y455201D01*
X532017Y455072D01*
X532076Y454932D01*
X532111Y454779D01*
X532146Y454604D01*
X532169Y454428D01*
X532181Y454241D01*
Y454229D01*
Y454206D01*
Y454170D01*
Y454124D01*
X532169Y453995D01*
X532134Y453819D01*
X532099Y453620D01*
X532041Y453409D01*
X531959Y453175D01*
X531842Y452941D01*
Y452929D01*
X531830Y452917D01*
X531807Y452882D01*
X531783Y452836D01*
X531701Y452718D01*
X531584Y452554D01*
X531444Y452367D01*
X531256Y452156D01*
X531045Y451922D01*
X530799Y451688D01*
X530776Y451664D01*
X530729Y451618D01*
X530635Y451536D01*
X530530Y451442D01*
X530390Y451325D01*
X530249Y451196D01*
X529921Y450939D01*
X529898Y450927D01*
X529851Y450880D01*
X529769Y450821D01*
X529675Y450751D01*
X529476Y450599D01*
X529383Y450529D01*
X529301Y450470D01*
X532509D01*
Y449100D01*
X526900D01*
Y450271D01*
X526912D01*
X526923Y450294D01*
X526959Y450318D01*
X527005Y450353D01*
X527134Y450447D01*
X527298Y450575D01*
X527486Y450716D01*
X527708Y450892D01*
X527942Y451067D01*
X528176Y451266D01*
X528188Y451278D01*
X528200Y451290D01*
X528235Y451313D01*
X528282Y451360D01*
X528399Y451454D01*
X528551Y451582D01*
X528715Y451723D01*
X528879Y451875D01*
X529055Y452028D01*
X529207Y452180D01*
X529219Y452191D01*
X529230Y452203D01*
X529301Y452273D01*
X529406Y452379D01*
X529535Y452519D01*
X529664Y452672D01*
X529804Y452836D01*
X529933Y452999D01*
X530038Y453163D01*
X530050Y453187D01*
X530073Y453234D01*
X530120Y453316D01*
X530167Y453421D01*
X530202Y453550D01*
X530249Y453690D01*
X530272Y453843D01*
X530284Y453995D01*
Y454018D01*
Y454077D01*
X530272Y454170D01*
X530249Y454276D01*
X530202Y454393D01*
X530155Y454522D01*
X530073Y454650D01*
X529968Y454756D01*
X529956Y454768D01*
X529910Y454803D01*
X529839Y454838D01*
X529734Y454896D01*
X529605Y454943D01*
X529453Y454978D01*
X529277Y455014D01*
X529066Y455025D01*
X528984D01*
X528902Y455014D01*
X528785Y455002D01*
X528645Y454978D01*
X528481Y454943D01*
X528317Y454896D01*
X528130Y454838D01*
X528106Y454826D01*
X528048Y454803D01*
X527954Y454768D01*
X527837Y454721D01*
X527696Y454650D01*
X527556Y454569D01*
X527240Y454381D01*
X527087D01*
Y455962D01*
X527099Y455974D01*
X527146Y455985D01*
X527228Y456021D01*
X527345Y456056D01*
X527486Y456103D01*
X527649Y456149D01*
X527848Y456208D01*
X528083Y456266D01*
X528094D01*
X528118Y456278D01*
X528153D01*
X528200Y456290D01*
X528258Y456302D01*
X528329Y456313D01*
X528504Y456349D01*
X528703Y456372D01*
X528926Y456395D01*
X529172Y456407D01*
X529418Y456419D01*
X529546D01*
X529640Y456407D01*
D02*
G37*
G36*
X537104Y491107D02*
X537256D01*
X537444Y491084D01*
X537643Y491060D01*
X537842Y491037D01*
X538041Y490990D01*
X538064D01*
X538123Y490967D01*
X538216Y490943D01*
X538345Y490908D01*
X538474Y490861D01*
X538615Y490814D01*
X538755Y490756D01*
X538884Y490686D01*
X538907Y490674D01*
X538954Y490639D01*
X539024Y490592D01*
X539107Y490521D01*
X539200Y490440D01*
X539294Y490334D01*
X539388Y490229D01*
X539469Y490100D01*
X539481Y490088D01*
X539505Y490041D01*
X539528Y489971D01*
X539575Y489878D01*
X539610Y489760D01*
X539633Y489632D01*
X539657Y489479D01*
X539669Y489315D01*
Y489304D01*
Y489292D01*
Y489257D01*
Y489210D01*
X539645Y489105D01*
X539622Y488964D01*
X539575Y488789D01*
X539516Y488613D01*
X539423Y488425D01*
X539294Y488250D01*
X539282Y488226D01*
X539224Y488179D01*
X539142Y488098D01*
X539036Y488004D01*
X538884Y487898D01*
X538720Y487805D01*
X538533Y487711D01*
X538310Y487653D01*
Y487582D01*
X538322D01*
X538357Y487571D01*
X538404D01*
X538462Y487547D01*
X538544Y487535D01*
X538626Y487512D01*
X538826Y487442D01*
X538837D01*
X538872Y487430D01*
X538931Y487407D01*
X539001Y487372D01*
X539165Y487290D01*
X539341Y487161D01*
X539352Y487149D01*
X539376Y487126D01*
X539423Y487079D01*
X539481Y487020D01*
X539540Y486950D01*
X539598Y486868D01*
X539715Y486681D01*
X539727Y486669D01*
X539739Y486634D01*
X539762Y486575D01*
X539786Y486493D01*
X539809Y486388D01*
X539832Y486271D01*
X539856Y486130D01*
Y485966D01*
Y485943D01*
Y485884D01*
X539844Y485779D01*
X539832Y485662D01*
X539809Y485510D01*
X539762Y485357D01*
X539715Y485182D01*
X539645Y485018D01*
X539633Y484994D01*
X539610Y484948D01*
X539563Y484866D01*
X539493Y484760D01*
X539411Y484643D01*
X539306Y484514D01*
X539177Y484397D01*
X539036Y484268D01*
X539013Y484257D01*
X538966Y484222D01*
X538884Y484163D01*
X538767Y484093D01*
X538626Y484023D01*
X538474Y483941D01*
X538287Y483870D01*
X538088Y483800D01*
X538076D01*
X538064Y483788D01*
X538029D01*
X537994Y483777D01*
X537877Y483753D01*
X537713Y483730D01*
X537526Y483695D01*
X537303Y483671D01*
X537045Y483660D01*
X536764Y483648D01*
X536542D01*
X536448Y483660D01*
X536237Y483671D01*
X536003Y483683D01*
X535746Y483706D01*
X535476Y483741D01*
X535230Y483788D01*
X535219D01*
X535207Y483800D01*
X535172D01*
X535125Y483812D01*
X535008Y483835D01*
X534867Y483870D01*
X534703Y483917D01*
X534528Y483976D01*
X534364Y484034D01*
X534200Y484093D01*
Y485674D01*
X534387D01*
X534411Y485662D01*
X534458Y485627D01*
X534551Y485580D01*
X534668Y485521D01*
X534809Y485451D01*
X534973Y485381D01*
X535160Y485299D01*
X535371Y485229D01*
X535383D01*
X535394Y485217D01*
X535465Y485205D01*
X535582Y485170D01*
X535722Y485147D01*
X535886Y485112D01*
X536074Y485076D01*
X536249Y485065D01*
X536437Y485053D01*
X536624D01*
X536706Y485065D01*
X536811D01*
X537045Y485088D01*
X537057D01*
X537104Y485100D01*
X537163Y485112D01*
X537233Y485135D01*
X537420Y485193D01*
X537596Y485299D01*
X537608D01*
X537631Y485322D01*
X537701Y485381D01*
X537783Y485463D01*
X537877Y485580D01*
Y485592D01*
X537900Y485615D01*
X537912Y485650D01*
X537935Y485709D01*
X537959Y485779D01*
X537971Y485873D01*
X537994Y485966D01*
Y486083D01*
Y486095D01*
Y486130D01*
X537982Y486189D01*
X537971Y486259D01*
X537935Y486423D01*
X537889Y486493D01*
X537842Y486564D01*
X537830Y486575D01*
X537818Y486587D01*
X537783Y486622D01*
X537736Y486657D01*
X537619Y486751D01*
X537455Y486821D01*
X537444D01*
X537408Y486833D01*
X537362Y486845D01*
X537291Y486856D01*
X537210Y486868D01*
X537116Y486891D01*
X536999D01*
X536882Y486903D01*
X536764D01*
X536683Y486915D01*
X535875D01*
Y488191D01*
X536507D01*
X536612Y488203D01*
X536729D01*
X536952Y488215D01*
X536999D01*
X537057Y488226D01*
X537127Y488238D01*
X537280Y488273D01*
X537444Y488320D01*
X537455D01*
X537479Y488332D01*
X537514Y488355D01*
X537561Y488390D01*
X537666Y488461D01*
X537760Y488566D01*
Y488578D01*
X537783Y488589D01*
X537795Y488624D01*
X537818Y488683D01*
X537842Y488742D01*
X537853Y488824D01*
X537877Y488906D01*
Y489011D01*
Y489023D01*
Y489046D01*
Y489081D01*
X537865Y489128D01*
X537830Y489245D01*
X537760Y489351D01*
Y489362D01*
X537736Y489374D01*
X537690Y489432D01*
X537596Y489503D01*
X537479Y489561D01*
X537467D01*
X537444Y489573D01*
X537408Y489597D01*
X537350Y489608D01*
X537291Y489632D01*
X537210Y489655D01*
X537034Y489678D01*
X537022D01*
X536987Y489690D01*
X536940D01*
X536882Y489702D01*
X536741Y489714D01*
X536519D01*
X536425Y489702D01*
X536308Y489690D01*
X536156Y489678D01*
X535992Y489643D01*
X535804Y489608D01*
X535605Y489550D01*
X535582Y489538D01*
X535511Y489526D01*
X535418Y489491D01*
X535277Y489444D01*
X535125Y489374D01*
X534949Y489304D01*
X534774Y489222D01*
X534586Y489116D01*
X534411D01*
Y490662D01*
X534434Y490674D01*
X534481Y490686D01*
X534575Y490721D01*
X534692Y490756D01*
X534844Y490803D01*
X535020Y490849D01*
X535230Y490908D01*
X535476Y490967D01*
X535488D01*
X535511Y490978D01*
X535547D01*
X535594Y490990D01*
X535652Y491002D01*
X535734Y491013D01*
X535910Y491048D01*
X536109Y491072D01*
X536343Y491095D01*
X536601Y491107D01*
X536858Y491119D01*
X536975D01*
X537104Y491107D01*
D02*
G37*
G36*
X779059Y522063D02*
X779217Y522054D01*
X779410Y522046D01*
X779612Y522019D01*
X779823Y521993D01*
X780034Y521949D01*
X780043D01*
X780060Y521940D01*
X780086D01*
X780122Y521923D01*
X780218Y521896D01*
X780341Y521852D01*
X780481Y521800D01*
X780631Y521738D01*
X780771Y521659D01*
X780912Y521563D01*
X780929Y521554D01*
X780973Y521510D01*
X781035Y521457D01*
X781105Y521378D01*
X781193Y521273D01*
X781281Y521159D01*
X781368Y521018D01*
X781438Y520869D01*
Y520860D01*
X781447Y520851D01*
X781456Y520825D01*
X781465Y520799D01*
X781491Y520702D01*
X781526Y520588D01*
X781562Y520439D01*
X781588Y520263D01*
X781605Y520061D01*
X781614Y519842D01*
Y519833D01*
Y519815D01*
Y519780D01*
Y519736D01*
X781605Y519693D01*
Y519631D01*
X781588Y519482D01*
X781570Y519324D01*
X781544Y519148D01*
X781500Y518972D01*
X781438Y518806D01*
Y518797D01*
X781430Y518788D01*
X781403Y518735D01*
X781359Y518656D01*
X781298Y518560D01*
X781228Y518455D01*
X781131Y518340D01*
X781026Y518226D01*
X780903Y518121D01*
X780885Y518112D01*
X780841Y518077D01*
X780762Y518033D01*
X780657Y517972D01*
X780534Y517910D01*
X780385Y517849D01*
X780209Y517787D01*
X780025Y517734D01*
X780016D01*
X779999Y517726D01*
X779972D01*
X779928Y517717D01*
X779884Y517708D01*
X779823Y517699D01*
X779753Y517691D01*
X779674Y517682D01*
X779498Y517656D01*
X779287Y517638D01*
X779059Y517629D01*
X778813Y517620D01*
X778638D01*
X778568Y517629D01*
X778401Y517638D01*
X778216Y517647D01*
X778006Y517673D01*
X777804Y517699D01*
X777602Y517734D01*
X777593D01*
X777575Y517743D01*
X777549Y517752D01*
X777514Y517761D01*
X777417Y517787D01*
X777294Y517831D01*
X777163Y517884D01*
X777013Y517954D01*
X776864Y518033D01*
X776724Y518130D01*
X776706Y518138D01*
X776662Y518174D01*
X776601Y518235D01*
X776522Y518314D01*
X776443Y518419D01*
X776355Y518534D01*
X776267Y518674D01*
X776197Y518823D01*
Y518832D01*
X776188Y518841D01*
X776179Y518867D01*
X776170Y518902D01*
X776135Y518990D01*
X776100Y519113D01*
X776074Y519262D01*
X776039Y519438D01*
X776021Y519631D01*
X776013Y519842D01*
Y519850D01*
Y519868D01*
Y519903D01*
Y519947D01*
X776021Y520000D01*
Y520061D01*
X776039Y520202D01*
X776056Y520368D01*
X776091Y520535D01*
X776135Y520711D01*
X776197Y520878D01*
Y520887D01*
X776206Y520895D01*
X776232Y520948D01*
X776276Y521027D01*
X776337Y521124D01*
X776408Y521229D01*
X776504Y521343D01*
X776618Y521457D01*
X776741Y521563D01*
X776759Y521571D01*
X776803Y521606D01*
X776882Y521650D01*
X776987Y521712D01*
X777110Y521773D01*
X777259Y521835D01*
X777435Y521896D01*
X777619Y521949D01*
X777628D01*
X777646Y521958D01*
X777672D01*
X777707Y521967D01*
X777760Y521975D01*
X777821Y521984D01*
X777883Y522002D01*
X777962Y522010D01*
X778137Y522037D01*
X778339Y522054D01*
X778568Y522063D01*
X778813Y522072D01*
X778989D01*
X779059Y522063D01*
D02*
G37*
G36*
X726402Y446453D02*
X727878D01*
Y445200D01*
X723100D01*
Y446453D01*
X724611D01*
Y450247D01*
X723100D01*
Y451418D01*
X723311D01*
X723405Y451430D01*
X723522D01*
X723756Y451453D01*
X723768D01*
X723814Y451465D01*
X723873D01*
X723943Y451488D01*
X724107Y451523D01*
X724283Y451594D01*
X724294D01*
X724330Y451617D01*
X724376Y451641D01*
X724423Y451676D01*
X724552Y451769D01*
X724611Y451828D01*
X724657Y451898D01*
X724669Y451910D01*
X724681Y451933D01*
X724704Y451980D01*
X724728Y452039D01*
X724751Y452109D01*
X724775Y452191D01*
X724810Y452390D01*
X726402D01*
Y446453D01*
D02*
G37*
G36*
X589034Y598674D02*
X590006D01*
Y597351D01*
X589034D01*
Y595677D01*
X587266D01*
Y597351D01*
X583800D01*
Y598721D01*
X587149Y602867D01*
X589034D01*
Y598674D01*
D02*
G37*
G36*
X779832Y511079D02*
X779937Y511070D01*
X780060Y511053D01*
X780192Y511018D01*
X780324Y510983D01*
X780464Y510930D01*
X780481Y510921D01*
X780525Y510904D01*
X780587Y510860D01*
X780675Y510816D01*
X780771Y510746D01*
X780877Y510667D01*
X780982Y510570D01*
X781079Y510465D01*
X781087Y510447D01*
X781122Y510403D01*
X781175Y510342D01*
X781228Y510245D01*
X781298Y510140D01*
X781359Y510008D01*
X781430Y509859D01*
X781482Y509701D01*
Y509692D01*
X781491Y509683D01*
Y509657D01*
X781500Y509622D01*
X781526Y509534D01*
X781544Y509420D01*
X781570Y509271D01*
X781597Y509104D01*
X781605Y508919D01*
X781614Y508717D01*
Y508709D01*
Y508691D01*
Y508656D01*
Y508612D01*
X781605Y508551D01*
Y508489D01*
X781597Y508340D01*
X781588Y508164D01*
X781562Y507980D01*
X781544Y507796D01*
X781509Y507620D01*
Y507611D01*
Y507602D01*
X781491Y507550D01*
X781474Y507471D01*
X781447Y507365D01*
X781421Y507251D01*
X781386Y507128D01*
X781342Y507014D01*
X781298Y506900D01*
X780104D01*
Y507049D01*
X780113Y507067D01*
X780139Y507111D01*
X780174Y507172D01*
X780218Y507260D01*
X780271Y507374D01*
X780332Y507488D01*
X780385Y507620D01*
X780438Y507760D01*
Y507769D01*
X780446Y507778D01*
X780455Y507822D01*
X780473Y507901D01*
X780499Y507998D01*
X780525Y508112D01*
X780543Y508235D01*
X780552Y508375D01*
X780560Y508516D01*
Y508524D01*
Y508559D01*
Y508603D01*
X780552Y508665D01*
Y508735D01*
X780543Y508823D01*
X780517Y509007D01*
Y509016D01*
X780508Y509051D01*
X780490Y509104D01*
X780473Y509165D01*
X780411Y509306D01*
X780376Y509376D01*
X780324Y509437D01*
X780315Y509446D01*
X780306Y509455D01*
X780253Y509508D01*
X780183Y509569D01*
X780095Y509622D01*
X780086D01*
X780069Y509631D01*
X780043Y509648D01*
X780007Y509657D01*
X779955Y509675D01*
X779893Y509683D01*
X779823Y509692D01*
X779665D01*
X779621Y509683D01*
X779516Y509657D01*
X779410Y509604D01*
X779402D01*
X779384Y509587D01*
X779331Y509543D01*
X779261Y509473D01*
X779191Y509385D01*
X779182Y509376D01*
X779173Y509350D01*
X779147Y509306D01*
X779121Y509253D01*
X779094Y509183D01*
X779068Y509104D01*
X779050Y509007D01*
X779033Y508911D01*
Y508902D01*
X779024Y508867D01*
X779015Y508814D01*
X779006Y508744D01*
Y508665D01*
X778998Y508586D01*
X778989Y508410D01*
Y508393D01*
Y508357D01*
Y508287D01*
X778998Y508208D01*
X779006Y508112D01*
X779015Y508006D01*
X779050Y507778D01*
Y507769D01*
X779059Y507725D01*
X779068Y507673D01*
X779085Y507602D01*
X779103Y507523D01*
X779121Y507436D01*
X779156Y507260D01*
Y507102D01*
X776127D01*
Y510930D01*
X777154D01*
Y508401D01*
X778041D01*
Y508410D01*
Y508419D01*
Y508445D01*
X778032Y508480D01*
Y508568D01*
X778023Y508682D01*
Y508691D01*
Y508709D01*
Y508744D01*
X778014Y508788D01*
Y508884D01*
Y508981D01*
Y508990D01*
Y508998D01*
Y509025D01*
Y509060D01*
Y509139D01*
X778023Y509253D01*
X778032Y509376D01*
X778050Y509508D01*
X778076Y509648D01*
X778102Y509780D01*
Y509797D01*
X778120Y509841D01*
X778137Y509903D01*
X778164Y509991D01*
X778199Y510078D01*
X778243Y510184D01*
X778287Y510289D01*
X778339Y510386D01*
X778348Y510403D01*
X778374Y510438D01*
X778418Y510500D01*
X778480Y510570D01*
X778559Y510649D01*
X778647Y510737D01*
X778752Y510825D01*
X778866Y510895D01*
X778884Y510904D01*
X778928Y510921D01*
X778998Y510956D01*
X779085Y510991D01*
X779208Y511027D01*
X779349Y511062D01*
X779507Y511079D01*
X779682Y511088D01*
X779753D01*
X779832Y511079D01*
D02*
G37*
G36*
X731069Y560295D02*
X731174D01*
X731315Y560284D01*
X731455Y560272D01*
X731607Y560249D01*
X731631D01*
X731678Y560237D01*
X731748D01*
X731830Y560225D01*
X732017Y560202D01*
X732099Y560190D01*
X732158Y560178D01*
Y558761D01*
X731970D01*
X731947Y558773D01*
X731912Y558785D01*
X731865Y558797D01*
X731807Y558820D01*
X731725Y558843D01*
X731631Y558878D01*
X731526Y558902D01*
X731514D01*
X731467Y558914D01*
X731408Y558925D01*
X731326Y558949D01*
X731221Y558960D01*
X731104Y558972D01*
X730963Y558984D01*
X730741D01*
X730671Y558972D01*
X730600D01*
X730507Y558960D01*
X730308Y558925D01*
X730073Y558878D01*
X729839Y558797D01*
X729605Y558679D01*
X729394Y558527D01*
X729371Y558504D01*
X729312Y558445D01*
X729230Y558340D01*
X729125Y558199D01*
X729019Y558024D01*
X728914Y557813D01*
X728832Y557555D01*
X728774Y557274D01*
X728785Y557286D01*
X728844Y557309D01*
X728914Y557356D01*
X729008Y557403D01*
X729125Y557462D01*
X729265Y557520D01*
X729558Y557637D01*
X729582Y557649D01*
X729628Y557661D01*
X729710Y557684D01*
X729827Y557707D01*
X729956Y557731D01*
X730097Y557754D01*
X730261Y557778D01*
X730589D01*
X730694Y557766D01*
X730811Y557754D01*
X730940Y557731D01*
X731209Y557672D01*
X731221D01*
X731268Y557661D01*
X731338Y557637D01*
X731432Y557602D01*
X731537Y557555D01*
X731643Y557508D01*
X731877Y557368D01*
X731900Y557356D01*
X731947Y557321D01*
X732017Y557251D01*
X732111Y557169D01*
X732216Y557063D01*
X732322Y556923D01*
X732427Y556782D01*
X732521Y556607D01*
X732533Y556583D01*
X732556Y556525D01*
X732603Y556419D01*
X732650Y556290D01*
X732685Y556115D01*
X732732Y555916D01*
X732755Y555693D01*
X732767Y555436D01*
Y555424D01*
Y555412D01*
Y555342D01*
X732755Y555237D01*
X732743Y555096D01*
X732720Y554944D01*
X732673Y554768D01*
X732626Y554581D01*
X732556Y554393D01*
X732544Y554370D01*
X732521Y554312D01*
X732474Y554218D01*
X732415Y554112D01*
X732333Y553972D01*
X732240Y553843D01*
X732123Y553703D01*
X731994Y553574D01*
X731970Y553562D01*
X731924Y553515D01*
X731842Y553457D01*
X731736Y553375D01*
X731596Y553293D01*
X731444Y553199D01*
X731268Y553117D01*
X731080Y553035D01*
X731057Y553023D01*
X730987Y553012D01*
X730881Y552977D01*
X730741Y552941D01*
X730565Y552906D01*
X730366Y552883D01*
X730132Y552859D01*
X729886Y552848D01*
X729781D01*
X729652Y552859D01*
X729500Y552871D01*
X729312Y552895D01*
X729113Y552918D01*
X728914Y552965D01*
X728703Y553023D01*
X728680Y553035D01*
X728610Y553059D01*
X728516Y553094D01*
X728387Y553152D01*
X728247Y553234D01*
X728094Y553316D01*
X727942Y553422D01*
X727790Y553550D01*
X727767Y553574D01*
X727720Y553632D01*
X727638Y553714D01*
X727544Y553843D01*
X727439Y553995D01*
X727322Y554183D01*
X727216Y554393D01*
X727122Y554628D01*
Y554639D01*
X727111Y554663D01*
X727099Y554698D01*
X727087Y554745D01*
X727076Y554803D01*
X727052Y554885D01*
X727029Y554967D01*
X727017Y555073D01*
X726970Y555295D01*
X726935Y555564D01*
X726912Y555857D01*
X726900Y556185D01*
Y556197D01*
Y556232D01*
Y556279D01*
Y556349D01*
X726912Y556431D01*
Y556525D01*
X726923Y556630D01*
Y556747D01*
X726947Y557017D01*
X726994Y557298D01*
X727040Y557579D01*
X727111Y557860D01*
Y557871D01*
X727122Y557895D01*
X727134Y557930D01*
X727158Y557989D01*
X727181Y558047D01*
X727205Y558117D01*
X727286Y558305D01*
X727380Y558504D01*
X727497Y558714D01*
X727649Y558937D01*
X727813Y559160D01*
X727825Y559171D01*
X727837Y559183D01*
X727895Y559253D01*
X728001Y559347D01*
X728153Y559464D01*
X728329Y559604D01*
X728539Y559745D01*
X728774Y559874D01*
X729043Y560003D01*
X729055D01*
X729078Y560014D01*
X729125Y560026D01*
X729172Y560049D01*
X729254Y560073D01*
X729336Y560096D01*
X729441Y560131D01*
X729546Y560155D01*
X729675Y560178D01*
X729816Y560213D01*
X730120Y560260D01*
X730460Y560295D01*
X730835Y560307D01*
X730963D01*
X731069Y560295D01*
D02*
G37*
G36*
X781500Y515162D02*
Y513617D01*
X776127Y511659D01*
Y513116D01*
X779893Y514407D01*
X776127Y515706D01*
Y517129D01*
X781500Y515162D01*
D02*
G37*
G36*
X443375Y542097D02*
X440002D01*
Y540914D01*
X440061D01*
X440108Y540926D01*
X440225D01*
X440377Y540937D01*
X440459D01*
X440518Y540949D01*
X440986D01*
X441138Y540937D01*
X441302Y540926D01*
X441478Y540902D01*
X441665Y540867D01*
X441841Y540832D01*
X441864D01*
X441923Y540808D01*
X442005Y540785D01*
X442122Y540750D01*
X442239Y540703D01*
X442380Y540644D01*
X442520Y540586D01*
X442649Y540516D01*
X442672Y540504D01*
X442719Y540469D01*
X442801Y540410D01*
X442895Y540328D01*
X443000Y540223D01*
X443117Y540106D01*
X443234Y539965D01*
X443328Y539813D01*
X443340Y539790D01*
X443363Y539731D01*
X443410Y539637D01*
X443457Y539520D01*
X443504Y539356D01*
X443550Y539169D01*
X443574Y538958D01*
X443586Y538724D01*
Y538712D01*
Y538701D01*
Y538630D01*
X443574Y538525D01*
X443562Y538384D01*
X443539Y538220D01*
X443492Y538045D01*
X443445Y537869D01*
X443375Y537682D01*
X443363Y537658D01*
X443340Y537600D01*
X443281Y537518D01*
X443223Y537401D01*
X443129Y537272D01*
X443024Y537131D01*
X442895Y536991D01*
X442754Y536862D01*
X442731Y536850D01*
X442672Y536803D01*
X442590Y536733D01*
X442461Y536663D01*
X442321Y536569D01*
X442145Y536487D01*
X441946Y536394D01*
X441736Y536323D01*
X441724D01*
X441712Y536312D01*
X441677D01*
X441630Y536300D01*
X441513Y536265D01*
X441361Y536241D01*
X441162Y536206D01*
X440939Y536171D01*
X440693Y536160D01*
X440424Y536148D01*
X440283D01*
X440202Y536160D01*
X440120D01*
X439920Y536171D01*
X439686Y536183D01*
X439440Y536218D01*
X439194Y536241D01*
X438960Y536288D01*
X438937D01*
X438867Y536312D01*
X438761Y536335D01*
X438621Y536370D01*
X438468Y536405D01*
X438305Y536452D01*
X438152Y536511D01*
X438000Y536569D01*
Y538162D01*
X438199D01*
X438223Y538150D01*
X438281Y538115D01*
X438363Y538068D01*
X438480Y538010D01*
X438632Y537939D01*
X438785Y537857D01*
X438960Y537787D01*
X439148Y537717D01*
X439159D01*
X439171Y537705D01*
X439230Y537694D01*
X439335Y537670D01*
X439464Y537635D01*
X439616Y537600D01*
X439780Y537576D01*
X439967Y537565D01*
X440155Y537553D01*
X440272D01*
X440354Y537565D01*
X440447D01*
X440564Y537576D01*
X440810Y537611D01*
X440822D01*
X440869Y537623D01*
X440939Y537647D01*
X441021Y537670D01*
X441209Y537752D01*
X441302Y537799D01*
X441384Y537869D01*
X441396Y537881D01*
X441408Y537893D01*
X441478Y537963D01*
X441560Y538057D01*
X441630Y538174D01*
Y538185D01*
X441642Y538209D01*
X441665Y538244D01*
X441677Y538291D01*
X441700Y538361D01*
X441712Y538443D01*
X441724Y538537D01*
Y538654D01*
Y538665D01*
Y538701D01*
Y538747D01*
X441712Y538806D01*
X441677Y538946D01*
X441607Y539087D01*
Y539099D01*
X441583Y539122D01*
X441525Y539192D01*
X441431Y539286D01*
X441314Y539380D01*
X441302Y539391D01*
X441267Y539403D01*
X441209Y539438D01*
X441138Y539473D01*
X441045Y539508D01*
X440939Y539544D01*
X440810Y539567D01*
X440682Y539591D01*
X440670D01*
X440623Y539602D01*
X440553Y539614D01*
X440459Y539626D01*
X440354D01*
X440248Y539637D01*
X440014Y539649D01*
X439850D01*
X439745Y539637D01*
X439616Y539626D01*
X439475Y539614D01*
X439171Y539567D01*
X439159D01*
X439101Y539555D01*
X439031Y539544D01*
X438937Y539520D01*
X438831Y539497D01*
X438714Y539473D01*
X438480Y539427D01*
X438269D01*
Y543467D01*
X443375D01*
Y542097D01*
D02*
G37*
G36*
X751432Y537279D02*
X751537Y537270D01*
X751660Y537253D01*
X751792Y537218D01*
X751924Y537183D01*
X752064Y537130D01*
X752081Y537121D01*
X752125Y537104D01*
X752187Y537060D01*
X752275Y537016D01*
X752371Y536946D01*
X752477Y536867D01*
X752582Y536770D01*
X752679Y536665D01*
X752687Y536647D01*
X752723Y536603D01*
X752775Y536542D01*
X752828Y536445D01*
X752898Y536340D01*
X752959Y536208D01*
X753030Y536059D01*
X753082Y535901D01*
Y535892D01*
X753091Y535883D01*
Y535857D01*
X753100Y535822D01*
X753126Y535734D01*
X753144Y535620D01*
X753170Y535471D01*
X753197Y535304D01*
X753205Y535119D01*
X753214Y534917D01*
Y534909D01*
Y534891D01*
Y534856D01*
Y534812D01*
X753205Y534751D01*
Y534689D01*
X753197Y534540D01*
X753188Y534364D01*
X753161Y534180D01*
X753144Y533996D01*
X753109Y533820D01*
Y533811D01*
Y533802D01*
X753091Y533750D01*
X753074Y533671D01*
X753047Y533565D01*
X753021Y533451D01*
X752986Y533328D01*
X752942Y533214D01*
X752898Y533100D01*
X751704D01*
Y533249D01*
X751713Y533267D01*
X751739Y533311D01*
X751774Y533372D01*
X751818Y533460D01*
X751871Y533574D01*
X751932Y533688D01*
X751985Y533820D01*
X752038Y533960D01*
Y533969D01*
X752046Y533978D01*
X752055Y534022D01*
X752073Y534101D01*
X752099Y534198D01*
X752125Y534312D01*
X752143Y534435D01*
X752152Y534575D01*
X752161Y534716D01*
Y534724D01*
Y534759D01*
Y534803D01*
X752152Y534865D01*
Y534935D01*
X752143Y535023D01*
X752117Y535207D01*
Y535216D01*
X752108Y535251D01*
X752090Y535304D01*
X752073Y535365D01*
X752011Y535506D01*
X751976Y535576D01*
X751924Y535637D01*
X751915Y535646D01*
X751906Y535655D01*
X751853Y535708D01*
X751783Y535769D01*
X751695Y535822D01*
X751686D01*
X751669Y535831D01*
X751643Y535848D01*
X751607Y535857D01*
X751555Y535875D01*
X751493Y535883D01*
X751423Y535892D01*
X751265D01*
X751221Y535883D01*
X751116Y535857D01*
X751010Y535804D01*
X751002D01*
X750984Y535787D01*
X750931Y535743D01*
X750861Y535673D01*
X750791Y535585D01*
X750782Y535576D01*
X750773Y535550D01*
X750747Y535506D01*
X750721Y535453D01*
X750694Y535383D01*
X750668Y535304D01*
X750650Y535207D01*
X750633Y535111D01*
Y535102D01*
X750624Y535067D01*
X750615Y535014D01*
X750606Y534944D01*
Y534865D01*
X750598Y534786D01*
X750589Y534610D01*
Y534593D01*
Y534557D01*
Y534487D01*
X750598Y534408D01*
X750606Y534312D01*
X750615Y534206D01*
X750650Y533978D01*
Y533969D01*
X750659Y533925D01*
X750668Y533873D01*
X750686Y533802D01*
X750703Y533723D01*
X750721Y533636D01*
X750756Y533460D01*
Y533302D01*
X747727D01*
Y537130D01*
X748754D01*
Y534601D01*
X749641D01*
Y534610D01*
Y534619D01*
Y534645D01*
X749632Y534680D01*
Y534768D01*
X749623Y534882D01*
Y534891D01*
Y534909D01*
Y534944D01*
X749614Y534988D01*
Y535084D01*
Y535181D01*
Y535190D01*
Y535198D01*
Y535225D01*
Y535260D01*
Y535339D01*
X749623Y535453D01*
X749632Y535576D01*
X749649Y535708D01*
X749676Y535848D01*
X749702Y535980D01*
Y535997D01*
X749720Y536041D01*
X749737Y536103D01*
X749764Y536191D01*
X749799Y536278D01*
X749843Y536384D01*
X749887Y536489D01*
X749939Y536586D01*
X749948Y536603D01*
X749974Y536638D01*
X750018Y536700D01*
X750080Y536770D01*
X750159Y536849D01*
X750246Y536937D01*
X750352Y537025D01*
X750466Y537095D01*
X750484Y537104D01*
X750527Y537121D01*
X750598Y537156D01*
X750686Y537191D01*
X750808Y537227D01*
X750949Y537262D01*
X751107Y537279D01*
X751283Y537288D01*
X751353D01*
X751432Y537279D01*
D02*
G37*
G36*
X420600Y674826D02*
Y672366D01*
X413836Y669790D01*
Y672073D01*
X418521Y673655D01*
X413836Y675206D01*
Y677446D01*
X420600Y674826D01*
D02*
G37*
G36*
X753100Y541362D02*
Y539817D01*
X747727Y537859D01*
Y539316D01*
X751493Y540607D01*
X747727Y541906D01*
Y543329D01*
X753100Y541362D01*
D02*
G37*
G36*
X418536Y663685D02*
X420629D01*
Y661474D01*
X418536D01*
Y657141D01*
X416823D01*
X411640Y661328D01*
Y663685D01*
X416881D01*
Y664900D01*
X418536D01*
Y663685D01*
D02*
G37*
G36*
Y684678D02*
X420629D01*
Y682468D01*
X418536D01*
Y678134D01*
X416823D01*
X411640Y682321D01*
Y684678D01*
X416881D01*
Y685893D01*
X418536D01*
Y684678D01*
D02*
G37*
G36*
X420600Y687489D02*
X418228D01*
Y689744D01*
X420600D01*
Y687489D01*
D02*
G37*
G36*
X416530Y698923D02*
X416794Y698909D01*
X417116Y698894D01*
X417452Y698850D01*
X417804Y698806D01*
X418155Y698733D01*
X418170D01*
X418199Y698718D01*
X418243D01*
X418301Y698689D01*
X418463Y698645D01*
X418668Y698572D01*
X418902Y698484D01*
X419151Y698381D01*
X419385Y698250D01*
X419619Y698089D01*
X419648Y698074D01*
X419722Y698001D01*
X419824Y697913D01*
X419941Y697781D01*
X420088Y697606D01*
X420234Y697415D01*
X420380Y697181D01*
X420498Y696932D01*
Y696917D01*
X420512Y696903D01*
X420527Y696859D01*
X420541Y696815D01*
X420585Y696654D01*
X420644Y696464D01*
X420703Y696215D01*
X420746Y695922D01*
X420776Y695585D01*
X420790Y695219D01*
Y695205D01*
Y695175D01*
Y695117D01*
Y695044D01*
X420776Y694970D01*
Y694868D01*
X420746Y694619D01*
X420717Y694355D01*
X420673Y694063D01*
X420600Y693770D01*
X420498Y693492D01*
Y693477D01*
X420483Y693462D01*
X420439Y693375D01*
X420366Y693243D01*
X420263Y693082D01*
X420146Y692906D01*
X419985Y692716D01*
X419809Y692525D01*
X419604Y692350D01*
X419575Y692335D01*
X419502Y692277D01*
X419370Y692203D01*
X419195Y692101D01*
X418990Y691998D01*
X418741Y691896D01*
X418448Y691793D01*
X418141Y691706D01*
X418126D01*
X418097Y691691D01*
X418053D01*
X417979Y691676D01*
X417906Y691662D01*
X417804Y691647D01*
X417687Y691632D01*
X417555Y691618D01*
X417262Y691574D01*
X416911Y691545D01*
X416530Y691530D01*
X416120Y691515D01*
X415827D01*
X415710Y691530D01*
X415432Y691545D01*
X415125Y691559D01*
X414773Y691603D01*
X414437Y691647D01*
X414100Y691706D01*
X414085D01*
X414056Y691720D01*
X414012Y691735D01*
X413953Y691749D01*
X413792Y691793D01*
X413587Y691867D01*
X413368Y691955D01*
X413119Y692072D01*
X412870Y692203D01*
X412636Y692364D01*
X412607Y692379D01*
X412533Y692438D01*
X412431Y692540D01*
X412299Y692672D01*
X412167Y692847D01*
X412021Y693038D01*
X411875Y693272D01*
X411757Y693521D01*
Y693536D01*
X411743Y693550D01*
X411728Y693594D01*
X411714Y693653D01*
X411655Y693799D01*
X411596Y694004D01*
X411552Y694253D01*
X411494Y694546D01*
X411465Y694868D01*
X411450Y695219D01*
Y695234D01*
Y695263D01*
Y695322D01*
Y695395D01*
X411465Y695483D01*
Y695585D01*
X411494Y695819D01*
X411523Y696098D01*
X411582Y696376D01*
X411655Y696669D01*
X411757Y696947D01*
Y696961D01*
X411772Y696976D01*
X411816Y697064D01*
X411889Y697196D01*
X411992Y697357D01*
X412109Y697532D01*
X412270Y697723D01*
X412460Y697913D01*
X412665Y698089D01*
X412694Y698103D01*
X412768Y698162D01*
X412899Y698235D01*
X413075Y698338D01*
X413280Y698440D01*
X413529Y698542D01*
X413822Y698645D01*
X414129Y698733D01*
X414144D01*
X414173Y698747D01*
X414217D01*
X414276Y698762D01*
X414363Y698777D01*
X414466Y698791D01*
X414568Y698821D01*
X414700Y698835D01*
X414993Y698879D01*
X415330Y698909D01*
X415710Y698923D01*
X416120Y698938D01*
X416413D01*
X416530Y698923D01*
D02*
G37*
%LPC*%
G36*
X646028Y403336D02*
X645947D01*
X645900Y403325D01*
X645747Y403313D01*
X645583Y403278D01*
X645572D01*
X645548Y403266D01*
X645502Y403254D01*
X645443Y403243D01*
X645314Y403208D01*
X645162Y403161D01*
Y403149D01*
Y403126D01*
Y403067D01*
Y402997D01*
Y402973D01*
Y402927D01*
Y402845D01*
Y402728D01*
Y402716D01*
Y402704D01*
Y402634D01*
X645174Y402517D01*
Y402376D01*
X645185Y402224D01*
X645209Y402060D01*
X645244Y401896D01*
X645279Y401744D01*
Y401732D01*
X645302Y401685D01*
X645326Y401615D01*
X645361Y401533D01*
X645455Y401334D01*
X645513Y401240D01*
X645583Y401158D01*
X645595Y401147D01*
X645607Y401135D01*
X645677Y401076D01*
X645771Y401006D01*
X645900Y400936D01*
X645911D01*
X645935Y400924D01*
X645970Y400912D01*
X646017D01*
X646145Y400889D01*
X646298Y400877D01*
X646321D01*
X646403Y400889D01*
X646509Y400912D01*
X646637Y400948D01*
X646649D01*
X646672Y400959D01*
X646708Y400983D01*
X646754Y401006D01*
X646860Y401065D01*
X646977Y401158D01*
X646989Y401170D01*
X647000Y401194D01*
X647024Y401217D01*
X647059Y401264D01*
X647141Y401393D01*
X647211Y401545D01*
Y401556D01*
X647223Y401592D01*
X647246Y401639D01*
X647258Y401709D01*
X647281Y401802D01*
X647293Y401896D01*
X647305Y402025D01*
Y402154D01*
Y402165D01*
Y402212D01*
Y402282D01*
X647293Y402364D01*
X647258Y402552D01*
X647235Y402645D01*
X647199Y402739D01*
Y402751D01*
X647176Y402774D01*
X647153Y402821D01*
X647129Y402868D01*
X647036Y402985D01*
X646918Y403090D01*
X646907Y403102D01*
X646883Y403114D01*
X646848Y403137D01*
X646801Y403172D01*
X646672Y403231D01*
X646509Y403278D01*
X646497D01*
X646473Y403290D01*
X646427Y403301D01*
X646356Y403313D01*
X646204Y403325D01*
X646028Y403336D01*
D02*
G37*
G36*
X778989Y429055D02*
X778655D01*
X778576Y429047D01*
X778480D01*
X778383Y429038D01*
X778278Y429029D01*
X778050Y429011D01*
X777812Y428976D01*
X777602Y428924D01*
X777505Y428897D01*
X777426Y428862D01*
X777417D01*
X777409Y428854D01*
X777356Y428827D01*
X777294Y428774D01*
X777215Y428713D01*
X777136Y428625D01*
X777066Y428511D01*
X777022Y428379D01*
X777013Y428300D01*
X777005Y428221D01*
Y428213D01*
Y428204D01*
X777013Y428151D01*
X777022Y428072D01*
X777057Y427976D01*
X777110Y427870D01*
X777180Y427765D01*
X777286Y427659D01*
X777356Y427615D01*
X777426Y427580D01*
X777435D01*
X777444Y427572D01*
X777470Y427563D01*
X777505Y427554D01*
X777549Y427536D01*
X777610Y427519D01*
X777672Y427501D01*
X777751Y427493D01*
X777847Y427475D01*
X777944Y427458D01*
X778058Y427440D01*
X778190Y427422D01*
X778330Y427414D01*
X778480Y427405D01*
X778647Y427396D01*
X778980D01*
X779059Y427405D01*
X779147D01*
X779244Y427414D01*
X779349Y427422D01*
X779577Y427440D01*
X779806Y427475D01*
X780016Y427528D01*
X780113Y427554D01*
X780201Y427589D01*
X780209D01*
X780218Y427598D01*
X780262Y427624D01*
X780332Y427677D01*
X780411Y427738D01*
X780490Y427826D01*
X780552Y427940D01*
X780604Y428072D01*
X780613Y428142D01*
X780622Y428221D01*
Y428230D01*
Y428239D01*
X780613Y428292D01*
X780596Y428371D01*
X780569Y428467D01*
X780517Y428573D01*
X780446Y428678D01*
X780341Y428774D01*
X780271Y428818D01*
X780201Y428854D01*
X780192D01*
X780183Y428862D01*
X780157Y428871D01*
X780122Y428889D01*
X780069Y428897D01*
X780016Y428915D01*
X779946Y428933D01*
X779867Y428959D01*
X779779Y428976D01*
X779674Y428994D01*
X779560Y429011D01*
X779437Y429020D01*
X779296Y429038D01*
X779147Y429047D01*
X778989Y429055D01*
D02*
G37*
G36*
X750589Y546876D02*
X750255D01*
X750176Y546867D01*
X750080D01*
X749983Y546858D01*
X749878Y546849D01*
X749649Y546832D01*
X749412Y546797D01*
X749202Y546744D01*
X749105Y546718D01*
X749026Y546683D01*
X749017D01*
X749009Y546674D01*
X748956Y546648D01*
X748894Y546595D01*
X748815Y546533D01*
X748736Y546446D01*
X748666Y546332D01*
X748622Y546200D01*
X748613Y546121D01*
X748605Y546042D01*
Y546033D01*
Y546024D01*
X748613Y545971D01*
X748622Y545892D01*
X748657Y545796D01*
X748710Y545690D01*
X748780Y545585D01*
X748886Y545480D01*
X748956Y545436D01*
X749026Y545401D01*
X749035D01*
X749044Y545392D01*
X749070Y545383D01*
X749105Y545374D01*
X749149Y545357D01*
X749211Y545339D01*
X749272Y545322D01*
X749351Y545313D01*
X749447Y545295D01*
X749544Y545278D01*
X749658Y545260D01*
X749790Y545243D01*
X749930Y545234D01*
X750080Y545225D01*
X750246Y545216D01*
X750580D01*
X750659Y545225D01*
X750747D01*
X750843Y545234D01*
X750949Y545243D01*
X751177Y545260D01*
X751405Y545295D01*
X751616Y545348D01*
X751713Y545374D01*
X751801Y545410D01*
X751809D01*
X751818Y545418D01*
X751862Y545445D01*
X751932Y545497D01*
X752011Y545559D01*
X752090Y545647D01*
X752152Y545761D01*
X752204Y545892D01*
X752213Y545963D01*
X752222Y546042D01*
Y546051D01*
Y546059D01*
X752213Y546112D01*
X752196Y546191D01*
X752169Y546288D01*
X752117Y546393D01*
X752046Y546498D01*
X751941Y546595D01*
X751871Y546639D01*
X751801Y546674D01*
X751792D01*
X751783Y546683D01*
X751757Y546691D01*
X751721Y546709D01*
X751669Y546718D01*
X751616Y546735D01*
X751546Y546753D01*
X751467Y546779D01*
X751379Y546797D01*
X751274Y546814D01*
X751160Y546832D01*
X751037Y546841D01*
X750896Y546858D01*
X750747Y546867D01*
X750589Y546876D01*
D02*
G37*
G36*
X417145Y652895D02*
X413983Y651797D01*
X417145Y650714D01*
Y652895D01*
D02*
G37*
G36*
X686363Y405948D02*
X686339D01*
X686269Y405936D01*
X686164Y405924D01*
X686035Y405877D01*
X685894Y405807D01*
X685754Y405714D01*
X685613Y405573D01*
X685555Y405479D01*
X685508Y405386D01*
Y405374D01*
X685496Y405362D01*
X685484Y405327D01*
X685473Y405280D01*
X685449Y405222D01*
X685426Y405140D01*
X685402Y405058D01*
X685391Y404952D01*
X685367Y404824D01*
X685344Y404695D01*
X685320Y404542D01*
X685297Y404367D01*
X685285Y404179D01*
X685274Y403980D01*
X685262Y403758D01*
Y403524D01*
Y403512D01*
Y403465D01*
Y403407D01*
Y403313D01*
X685274Y403208D01*
Y403090D01*
X685285Y402962D01*
X685297Y402821D01*
X685320Y402517D01*
X685367Y402212D01*
X685437Y401931D01*
X685473Y401802D01*
X685520Y401685D01*
Y401674D01*
X685531Y401662D01*
X685566Y401603D01*
X685637Y401510D01*
X685719Y401404D01*
X685836Y401299D01*
X685988Y401217D01*
X686164Y401147D01*
X686257Y401135D01*
X686363Y401123D01*
X686386D01*
X686456Y401135D01*
X686562Y401158D01*
X686691Y401194D01*
X686831Y401264D01*
X686972Y401357D01*
X687100Y401498D01*
X687159Y401592D01*
X687206Y401685D01*
Y401697D01*
X687218Y401709D01*
X687229Y401744D01*
X687253Y401791D01*
X687264Y401861D01*
X687288Y401931D01*
X687311Y402025D01*
X687346Y402130D01*
X687370Y402247D01*
X687393Y402388D01*
X687417Y402540D01*
X687428Y402704D01*
X687452Y402891D01*
X687463Y403090D01*
X687475Y403301D01*
Y403536D01*
Y403547D01*
Y403594D01*
Y403664D01*
Y403746D01*
X687463Y403852D01*
Y403980D01*
X687452Y404109D01*
X687440Y404250D01*
X687417Y404554D01*
X687370Y404870D01*
X687299Y405152D01*
X687264Y405280D01*
X687218Y405386D01*
Y405397D01*
X687206Y405409D01*
X687171Y405479D01*
X687100Y405561D01*
X687018Y405667D01*
X686901Y405772D01*
X686749Y405866D01*
X686573Y405924D01*
X686468Y405936D01*
X686363Y405948D01*
D02*
G37*
G36*
X625666Y405491D02*
X623582Y402927D01*
X625666D01*
Y405491D01*
D02*
G37*
G36*
X778989Y439960D02*
X778655D01*
X778576Y439951D01*
X778480D01*
X778383Y439943D01*
X778278Y439934D01*
X778050Y439916D01*
X777812Y439881D01*
X777602Y439828D01*
X777505Y439802D01*
X777426Y439767D01*
X777417D01*
X777409Y439758D01*
X777356Y439732D01*
X777294Y439679D01*
X777215Y439618D01*
X777136Y439530D01*
X777066Y439416D01*
X777022Y439284D01*
X777013Y439205D01*
X777005Y439126D01*
Y439117D01*
Y439109D01*
X777013Y439056D01*
X777022Y438977D01*
X777057Y438880D01*
X777110Y438775D01*
X777180Y438669D01*
X777286Y438564D01*
X777356Y438520D01*
X777426Y438485D01*
X777435D01*
X777444Y438476D01*
X777470Y438468D01*
X777505Y438459D01*
X777549Y438441D01*
X777610Y438424D01*
X777672Y438406D01*
X777751Y438397D01*
X777847Y438380D01*
X777944Y438362D01*
X778058Y438345D01*
X778190Y438327D01*
X778330Y438318D01*
X778480Y438310D01*
X778647Y438301D01*
X778980D01*
X779059Y438310D01*
X779147D01*
X779244Y438318D01*
X779349Y438327D01*
X779577Y438345D01*
X779806Y438380D01*
X780016Y438433D01*
X780113Y438459D01*
X780201Y438494D01*
X780209D01*
X780218Y438503D01*
X780262Y438529D01*
X780332Y438582D01*
X780411Y438643D01*
X780490Y438731D01*
X780552Y438845D01*
X780604Y438977D01*
X780613Y439047D01*
X780622Y439126D01*
Y439135D01*
Y439144D01*
X780613Y439196D01*
X780596Y439275D01*
X780569Y439372D01*
X780517Y439477D01*
X780446Y439583D01*
X780341Y439679D01*
X780271Y439723D01*
X780201Y439758D01*
X780192D01*
X780183Y439767D01*
X780157Y439776D01*
X780122Y439793D01*
X780069Y439802D01*
X780016Y439820D01*
X779946Y439837D01*
X779867Y439864D01*
X779779Y439881D01*
X779674Y439899D01*
X779560Y439916D01*
X779437Y439925D01*
X779296Y439943D01*
X779147Y439951D01*
X778989Y439960D01*
D02*
G37*
G36*
X575847Y704395D02*
X575830D01*
X575777Y704387D01*
X575698Y704378D01*
X575601Y704343D01*
X575496Y704290D01*
X575390Y704220D01*
X575285Y704114D01*
X575241Y704044D01*
X575206Y703974D01*
Y703965D01*
X575197Y703956D01*
X575189Y703930D01*
X575180Y703895D01*
X575162Y703851D01*
X575145Y703790D01*
X575127Y703728D01*
X575118Y703649D01*
X575101Y703552D01*
X575083Y703456D01*
X575066Y703342D01*
X575048Y703210D01*
X575039Y703070D01*
X575031Y702920D01*
X575022Y702753D01*
Y702578D01*
Y702569D01*
Y702534D01*
Y702490D01*
Y702420D01*
X575031Y702341D01*
Y702253D01*
X575039Y702156D01*
X575048Y702051D01*
X575066Y701823D01*
X575101Y701594D01*
X575153Y701384D01*
X575180Y701287D01*
X575215Y701199D01*
Y701191D01*
X575224Y701182D01*
X575250Y701138D01*
X575303Y701068D01*
X575364Y700989D01*
X575452Y700910D01*
X575566Y700848D01*
X575698Y700796D01*
X575768Y700787D01*
X575847Y700778D01*
X575865D01*
X575917Y700787D01*
X575996Y700804D01*
X576093Y700831D01*
X576198Y700883D01*
X576304Y700954D01*
X576400Y701059D01*
X576444Y701129D01*
X576479Y701199D01*
Y701208D01*
X576488Y701217D01*
X576497Y701243D01*
X576514Y701278D01*
X576523Y701331D01*
X576541Y701384D01*
X576558Y701454D01*
X576585Y701533D01*
X576602Y701621D01*
X576620Y701726D01*
X576637Y701840D01*
X576646Y701963D01*
X576664Y702104D01*
X576672Y702253D01*
X576681Y702411D01*
Y702587D01*
Y702596D01*
Y702631D01*
Y702683D01*
Y702745D01*
X576672Y702824D01*
Y702920D01*
X576664Y703017D01*
X576655Y703122D01*
X576637Y703350D01*
X576602Y703588D01*
X576549Y703798D01*
X576523Y703895D01*
X576488Y703974D01*
Y703983D01*
X576479Y703992D01*
X576453Y704044D01*
X576400Y704106D01*
X576339Y704185D01*
X576251Y704264D01*
X576137Y704334D01*
X576005Y704378D01*
X575926Y704387D01*
X575847Y704395D01*
D02*
G37*
G36*
X564846Y702543D02*
X564784D01*
X564749Y702534D01*
X564635Y702525D01*
X564512Y702499D01*
X564503D01*
X564486Y702490D01*
X564451Y702481D01*
X564407Y702472D01*
X564310Y702446D01*
X564196Y702411D01*
Y702402D01*
Y702385D01*
Y702341D01*
Y702288D01*
Y702271D01*
Y702236D01*
Y702174D01*
Y702086D01*
Y702077D01*
Y702069D01*
Y702016D01*
X564205Y701928D01*
Y701823D01*
X564214Y701709D01*
X564231Y701586D01*
X564257Y701463D01*
X564284Y701349D01*
Y701340D01*
X564301Y701305D01*
X564319Y701252D01*
X564345Y701191D01*
X564416Y701041D01*
X564459Y700971D01*
X564512Y700910D01*
X564521Y700901D01*
X564530Y700892D01*
X564582Y700848D01*
X564653Y700796D01*
X564749Y700743D01*
X564758D01*
X564776Y700734D01*
X564802Y700725D01*
X564837D01*
X564933Y700708D01*
X565048Y700699D01*
X565065D01*
X565127Y700708D01*
X565206Y700725D01*
X565302Y700752D01*
X565311D01*
X565329Y700760D01*
X565355Y700778D01*
X565390Y700796D01*
X565469Y700840D01*
X565557Y700910D01*
X565566Y700918D01*
X565575Y700936D01*
X565592Y700954D01*
X565618Y700989D01*
X565680Y701085D01*
X565732Y701199D01*
Y701208D01*
X565741Y701235D01*
X565759Y701270D01*
X565768Y701322D01*
X565785Y701393D01*
X565794Y701463D01*
X565803Y701559D01*
Y701656D01*
Y701665D01*
Y701700D01*
Y701753D01*
X565794Y701814D01*
X565768Y701955D01*
X565750Y702025D01*
X565724Y702095D01*
Y702104D01*
X565706Y702121D01*
X565689Y702156D01*
X565671Y702192D01*
X565601Y702279D01*
X565513Y702358D01*
X565504Y702367D01*
X565487Y702376D01*
X565460Y702393D01*
X565425Y702420D01*
X565329Y702464D01*
X565206Y702499D01*
X565197D01*
X565179Y702508D01*
X565144Y702516D01*
X565092Y702525D01*
X564977Y702534D01*
X564846Y702543D01*
D02*
G37*
G36*
X778989Y520676D02*
X778655D01*
X778576Y520667D01*
X778480D01*
X778383Y520658D01*
X778278Y520649D01*
X778050Y520632D01*
X777812Y520597D01*
X777602Y520544D01*
X777505Y520518D01*
X777426Y520483D01*
X777417D01*
X777409Y520474D01*
X777356Y520447D01*
X777294Y520395D01*
X777215Y520333D01*
X777136Y520246D01*
X777066Y520131D01*
X777022Y520000D01*
X777013Y519921D01*
X777005Y519842D01*
Y519833D01*
Y519824D01*
X777013Y519771D01*
X777022Y519693D01*
X777057Y519596D01*
X777110Y519490D01*
X777180Y519385D01*
X777286Y519280D01*
X777356Y519236D01*
X777426Y519201D01*
X777435D01*
X777444Y519192D01*
X777470Y519183D01*
X777505Y519174D01*
X777549Y519157D01*
X777610Y519139D01*
X777672Y519122D01*
X777751Y519113D01*
X777847Y519095D01*
X777944Y519078D01*
X778058Y519060D01*
X778190Y519043D01*
X778330Y519034D01*
X778480Y519025D01*
X778647Y519016D01*
X778980D01*
X779059Y519025D01*
X779147D01*
X779244Y519034D01*
X779349Y519043D01*
X779577Y519060D01*
X779806Y519095D01*
X780016Y519148D01*
X780113Y519174D01*
X780201Y519210D01*
X780209D01*
X780218Y519218D01*
X780262Y519245D01*
X780332Y519297D01*
X780411Y519359D01*
X780490Y519447D01*
X780552Y519561D01*
X780604Y519693D01*
X780613Y519763D01*
X780622Y519842D01*
Y519850D01*
Y519859D01*
X780613Y519912D01*
X780596Y519991D01*
X780569Y520088D01*
X780517Y520193D01*
X780446Y520298D01*
X780341Y520395D01*
X780271Y520439D01*
X780201Y520474D01*
X780192D01*
X780183Y520483D01*
X780157Y520491D01*
X780122Y520509D01*
X780069Y520518D01*
X780016Y520535D01*
X779946Y520553D01*
X779867Y520579D01*
X779779Y520597D01*
X779674Y520614D01*
X779560Y520632D01*
X779437Y520641D01*
X779296Y520658D01*
X779147Y520667D01*
X778989Y520676D01*
D02*
G37*
G36*
X587266Y601239D02*
X585182Y598674D01*
X587266D01*
Y601239D01*
D02*
G37*
G36*
X729628Y556525D02*
X729546D01*
X729500Y556513D01*
X729347Y556501D01*
X729183Y556466D01*
X729172D01*
X729148Y556454D01*
X729102Y556443D01*
X729043Y556431D01*
X728914Y556396D01*
X728762Y556349D01*
Y556337D01*
Y556314D01*
Y556255D01*
Y556185D01*
Y556162D01*
Y556115D01*
Y556033D01*
Y555916D01*
Y555904D01*
Y555892D01*
Y555822D01*
X728774Y555705D01*
Y555564D01*
X728785Y555412D01*
X728809Y555248D01*
X728844Y555084D01*
X728879Y554932D01*
Y554920D01*
X728902Y554874D01*
X728926Y554803D01*
X728961Y554721D01*
X729055Y554522D01*
X729113Y554429D01*
X729183Y554347D01*
X729195Y554335D01*
X729207Y554323D01*
X729277Y554265D01*
X729371Y554194D01*
X729500Y554124D01*
X729511D01*
X729535Y554112D01*
X729570Y554101D01*
X729617D01*
X729745Y554077D01*
X729898Y554066D01*
X729921D01*
X730003Y554077D01*
X730108Y554101D01*
X730237Y554136D01*
X730249D01*
X730272Y554148D01*
X730308Y554171D01*
X730354Y554194D01*
X730460Y554253D01*
X730577Y554347D01*
X730589Y554358D01*
X730600Y554382D01*
X730624Y554405D01*
X730659Y554452D01*
X730741Y554581D01*
X730811Y554733D01*
Y554745D01*
X730823Y554780D01*
X730846Y554827D01*
X730858Y554897D01*
X730881Y554991D01*
X730893Y555084D01*
X730905Y555213D01*
Y555342D01*
Y555354D01*
Y555401D01*
Y555471D01*
X730893Y555553D01*
X730858Y555740D01*
X730835Y555834D01*
X730799Y555928D01*
Y555939D01*
X730776Y555963D01*
X730753Y556009D01*
X730729Y556056D01*
X730635Y556173D01*
X730518Y556279D01*
X730507Y556290D01*
X730483Y556302D01*
X730448Y556326D01*
X730401Y556361D01*
X730272Y556419D01*
X730108Y556466D01*
X730097D01*
X730073Y556478D01*
X730027Y556490D01*
X729956Y556501D01*
X729804Y556513D01*
X729628Y556525D01*
D02*
G37*
G36*
X416881Y661474D02*
X413675D01*
X416881Y658868D01*
Y661474D01*
D02*
G37*
G36*
Y682468D02*
X413675D01*
X416881Y679862D01*
Y682468D01*
D02*
G37*
G36*
X416413Y696610D02*
X415857D01*
X415725Y696595D01*
X415564D01*
X415403Y696581D01*
X415227Y696566D01*
X414847Y696537D01*
X414451Y696478D01*
X414100Y696390D01*
X413939Y696347D01*
X413807Y696288D01*
X413792D01*
X413778Y696273D01*
X413690Y696229D01*
X413587Y696141D01*
X413456Y696039D01*
X413324Y695893D01*
X413207Y695702D01*
X413134Y695483D01*
X413119Y695351D01*
X413104Y695219D01*
Y695205D01*
Y695190D01*
X413119Y695102D01*
X413134Y694970D01*
X413192Y694809D01*
X413280Y694634D01*
X413397Y694458D01*
X413573Y694282D01*
X413690Y694209D01*
X413807Y694150D01*
X413822D01*
X413836Y694136D01*
X413880Y694121D01*
X413939Y694107D01*
X414012Y694077D01*
X414115Y694048D01*
X414217Y694019D01*
X414349Y694004D01*
X414510Y693975D01*
X414671Y693946D01*
X414861Y693916D01*
X415081Y693887D01*
X415315Y693872D01*
X415564Y693858D01*
X415842Y693843D01*
X416398D01*
X416530Y693858D01*
X416677D01*
X416838Y693872D01*
X417013Y693887D01*
X417394Y693916D01*
X417774Y693975D01*
X418126Y694063D01*
X418287Y694107D01*
X418433Y694165D01*
X418448D01*
X418463Y694180D01*
X418536Y694224D01*
X418653Y694312D01*
X418785Y694414D01*
X418916Y694560D01*
X419019Y694751D01*
X419107Y694970D01*
X419121Y695087D01*
X419136Y695219D01*
Y695234D01*
Y695249D01*
X419121Y695336D01*
X419092Y695468D01*
X419048Y695629D01*
X418960Y695805D01*
X418843Y695981D01*
X418668Y696141D01*
X418550Y696215D01*
X418433Y696273D01*
X418419D01*
X418404Y696288D01*
X418360Y696303D01*
X418301Y696332D01*
X418214Y696347D01*
X418126Y696376D01*
X418009Y696405D01*
X417877Y696449D01*
X417731Y696478D01*
X417555Y696508D01*
X417365Y696537D01*
X417160Y696551D01*
X416925Y696581D01*
X416677Y696595D01*
X416413Y696610D01*
D02*
G37*
%LPD*%
D10*
X716206Y584665D02*
G03*
X755749Y584500I19794J5335D01*
G01*
X515665Y653794D02*
G03*
X515500Y614252I5335J-19794D01*
G01*
D20*
X640000Y608500D02*
G03*
X702000Y608500I31000J0D01*
G01*
D21*
X638000Y619472D02*
Y641126D01*
X613000Y619472D02*
X638000D01*
X613000D02*
Y641126D01*
X638000Y656874D02*
Y678528D01*
X613000D02*
X638000D01*
X613000Y656874D02*
Y678528D01*
X606311Y671579D02*
Y681421D01*
X582689Y671579D02*
Y681421D01*
X591547D01*
X597453D02*
X606311D01*
X582689Y671579D02*
X591547D01*
X597453D02*
X606311D01*
X579811D02*
Y681421D01*
X556189Y671579D02*
Y681421D01*
X565047D01*
X570953D02*
X579811D01*
X556189Y671579D02*
X565047D01*
X570953D02*
X579811D01*
X557811Y510579D02*
Y520421D01*
X534189Y510579D02*
Y520421D01*
X543047D01*
X548953D02*
X557811D01*
X534189Y510579D02*
X543047D01*
X548953D02*
X557811D01*
X586811Y571629D02*
Y581471D01*
X563189Y571629D02*
Y581471D01*
X572047D01*
X577953D02*
X586811D01*
X563189Y571629D02*
X572047D01*
X577953D02*
X586811D01*
X487311Y523079D02*
Y532921D01*
X463689Y523079D02*
Y532921D01*
X472547D01*
X478453D02*
X487311D01*
X463689Y523079D02*
X472547D01*
X478453D02*
X487311D01*
X699689Y528745D02*
Y538588D01*
X723311Y528745D02*
Y538588D01*
X714453Y528745D02*
X723311D01*
X699689D02*
X708547D01*
X714453Y538588D02*
X723311D01*
X699689D02*
X708547D01*
X557811Y432579D02*
Y442421D01*
X534189Y432579D02*
Y442421D01*
X543047D01*
X548953D02*
X557811D01*
X534189Y432579D02*
X543047D01*
X548953D02*
X557811D01*
X675750Y500000D02*
X679250D01*
X675750Y506000D02*
X679250D01*
X638250Y504500D02*
X641750D01*
X638250Y498500D02*
X641750D01*
X729250Y666000D02*
X732750D01*
X729250Y672000D02*
X732750D01*
X718811Y443579D02*
Y453421D01*
X695189Y443579D02*
Y453421D01*
X704047D01*
X709953D02*
X718811D01*
X695189Y443579D02*
X704047D01*
X709953D02*
X718811D01*
X487311Y536579D02*
Y546421D01*
X463689Y536579D02*
Y546421D01*
X472547D01*
X478453D02*
X487311D01*
X463689Y536579D02*
X472547D01*
X478453D02*
X487311D01*
X497689Y524079D02*
Y533921D01*
X521311Y524079D02*
Y533921D01*
X512453Y524079D02*
X521311D01*
X497689D02*
X506547D01*
X512453Y533921D02*
X521311D01*
X497689D02*
X506547D01*
X781500Y468250D02*
Y471750D01*
X775500Y468250D02*
Y471750D01*
X638250Y576000D02*
X641750D01*
X638250Y582000D02*
X641750D01*
X473750Y518500D02*
X477250D01*
X473750Y512500D02*
X477250D01*
X709750Y523000D02*
X713250D01*
X709750Y517000D02*
X713250D01*
X734250Y473500D02*
X737750D01*
X734250Y479500D02*
X737750D01*
X544250Y456500D02*
X547750D01*
X544250Y450500D02*
X547750D01*
X742850Y527100D02*
X746350D01*
X742850Y521100D02*
X746350D01*
X592189Y570579D02*
Y580421D01*
X615811Y570579D02*
Y580421D01*
X606953Y570579D02*
X615811D01*
X592189D02*
X601047D01*
X606953Y580421D02*
X615811D01*
X592189D02*
X601047D01*
X592189Y555579D02*
Y565421D01*
X615811Y555579D02*
Y565421D01*
X606953Y555579D02*
X615811D01*
X592189D02*
X601047D01*
X606953Y565421D02*
X615811D01*
X592189D02*
X601047D01*
X615811Y585579D02*
Y595421D01*
X592189Y585579D02*
Y595421D01*
X601047D01*
X606953D02*
X615811D01*
X592189Y585579D02*
X601047D01*
X606953D02*
X615811D01*
X563189Y540579D02*
Y550421D01*
X586811Y540579D02*
Y550421D01*
X577953Y540579D02*
X586811D01*
X563189D02*
X572047D01*
X577953Y550421D02*
X586811D01*
X563189D02*
X572047D01*
X592189Y540579D02*
Y550421D01*
X615811Y540579D02*
Y550421D01*
X606953Y540579D02*
X615811D01*
X592189D02*
X601047D01*
X606953Y550421D02*
X615811D01*
X592189D02*
X601047D01*
X586811Y556104D02*
Y565946D01*
X563189Y556104D02*
Y565946D01*
X572047D01*
X577953D02*
X586811D01*
X563189Y556104D02*
X572047D01*
X577953D02*
X586811D01*
X497689Y537079D02*
Y546921D01*
X521311Y537079D02*
Y546921D01*
X512453Y537079D02*
X521311D01*
X497689D02*
X506547D01*
X512453Y546921D02*
X521311D01*
X497689D02*
X506547D01*
X521311Y510579D02*
Y520421D01*
X497689Y510579D02*
Y520421D01*
X506547D01*
X512453D02*
X521311D01*
X497689Y510579D02*
X506547D01*
X512453D02*
X521311D01*
X463689Y551579D02*
Y561421D01*
X487311Y551579D02*
Y561421D01*
X478453Y551579D02*
X487311D01*
X463689D02*
X472547D01*
X478453Y561421D02*
X487311D01*
X463689D02*
X472547D01*
X497689Y551579D02*
Y561421D01*
X521311Y551579D02*
Y561421D01*
X512453Y551579D02*
X521311D01*
X497689D02*
X506547D01*
X512453Y561421D02*
X521311D01*
X497689D02*
X506547D01*
X693811Y528745D02*
Y538588D01*
X670189Y528745D02*
Y538588D01*
X679047D01*
X684953D02*
X693811D01*
X670189Y528745D02*
X679047D01*
X684953D02*
X693811D01*
Y542412D02*
Y552255D01*
X670189Y542412D02*
Y552255D01*
X679047D01*
X684953D02*
X693811D01*
X670189Y542412D02*
X679047D01*
X684953D02*
X693811D01*
X670189Y515079D02*
Y524921D01*
X693811Y515079D02*
Y524921D01*
X684953Y515079D02*
X693811D01*
X670189D02*
X679047D01*
X684953Y524921D02*
X693811D01*
X670189D02*
X679047D01*
X723311Y556079D02*
Y565921D01*
X699689Y556079D02*
Y565921D01*
X708547D01*
X714453D02*
X723311D01*
X699689Y556079D02*
X708547D01*
X714453D02*
X723311D01*
X693811Y556079D02*
Y565921D01*
X670189Y556079D02*
Y565921D01*
X679047D01*
X684953D02*
X693811D01*
X670189Y556079D02*
X679047D01*
X684953D02*
X693811D01*
X699689Y542412D02*
Y552255D01*
X723311Y542412D02*
Y552255D01*
X714453Y542412D02*
X723311D01*
X699689D02*
X708547D01*
X714453Y552255D02*
X723311D01*
X699689D02*
X708547D01*
X689311Y485579D02*
Y495421D01*
X665689Y485579D02*
Y495421D01*
X674547D01*
X680453D02*
X689311D01*
X665689Y485579D02*
X674547D01*
X680453D02*
X689311D01*
X718811D02*
Y495421D01*
X695189Y485579D02*
Y495421D01*
X704047D01*
X709953D02*
X718811D01*
X695189Y485579D02*
X704047D01*
X709953D02*
X718811D01*
X665689Y471579D02*
Y481421D01*
X689311Y471579D02*
Y481421D01*
X680453Y471579D02*
X689311D01*
X665689D02*
X674547D01*
X680453Y481421D02*
X689311D01*
X665689D02*
X674547D01*
X718811Y457579D02*
Y467421D01*
X695189Y457579D02*
Y467421D01*
X704047D01*
X709953D02*
X718811D01*
X695189Y457579D02*
X704047D01*
X709953D02*
X718811D01*
X689311D02*
Y467421D01*
X665689Y457579D02*
Y467421D01*
X674547D01*
X680453D02*
X689311D01*
X665689Y457579D02*
X674547D01*
X680453D02*
X689311D01*
Y443579D02*
Y453421D01*
X665689Y443579D02*
Y453421D01*
X674547D01*
X680453D02*
X689311D01*
X665689Y443579D02*
X674547D01*
X680453D02*
X689311D01*
X695189Y471579D02*
Y481421D01*
X718811Y471579D02*
Y481421D01*
X709953Y471579D02*
X718811D01*
X695189D02*
X704047D01*
X709953Y481421D02*
X718811D01*
X695189D02*
X704047D01*
X592189Y432579D02*
Y442421D01*
X615811Y432579D02*
Y442421D01*
X606953Y432579D02*
X615811D01*
X592189D02*
X601047D01*
X606953Y442421D02*
X615811D01*
X592189D02*
X601047D01*
X563189Y432579D02*
Y442421D01*
X586811Y432579D02*
Y442421D01*
X577953Y432579D02*
X586811D01*
X563189D02*
X572047D01*
X577953Y442421D02*
X586811D01*
X563189D02*
X572047D01*
X615811Y448579D02*
Y458421D01*
X592189Y448579D02*
Y458421D01*
X601047D01*
X606953D02*
X615811D01*
X592189Y448579D02*
X601047D01*
X606953D02*
X615811D01*
X586811Y448179D02*
Y458021D01*
X563189Y448179D02*
Y458021D01*
X572047D01*
X577953D02*
X586811D01*
X563189Y448179D02*
X572047D01*
X577953D02*
X586811D01*
X724189Y485579D02*
Y495421D01*
X747811Y485579D02*
Y495421D01*
X738953Y485579D02*
X747811D01*
X724189D02*
X733047D01*
X738953Y495421D02*
X747811D01*
X724189D02*
X733047D01*
X734250Y465500D02*
X737750D01*
X734250Y459500D02*
X737750D01*
X740000Y584000D02*
X741000Y585000D01*
X741500Y581500D02*
X745000Y585000D01*
X742250Y571250D02*
X754750Y583750D01*
X737625Y570375D02*
X752250Y585000D01*
X734125Y570625D02*
X748500Y585000D01*
X731000Y571250D02*
X734375Y574625D01*
X728125Y572125D02*
X732000Y576000D01*
X726000Y573750D02*
X730625Y578375D01*
X723500Y575000D02*
X733500Y585000D01*
X721500Y576750D02*
X729750Y585000D01*
X719750Y578750D02*
X726000Y585000D01*
X718500Y581250D02*
X722250Y585000D01*
X717250Y583750D02*
X718500Y585000D01*
X719750D01*
X717000D02*
X755000D01*
X516000Y615000D02*
Y653000D01*
Y650250D02*
Y651500D01*
X514750Y652750D02*
X516000Y651500D01*
X512250D02*
X516000Y647750D01*
X509750Y650250D02*
X516000Y644000D01*
X507750Y648500D02*
X516000Y640250D01*
X506000Y646500D02*
X516000Y636500D01*
X504750Y644000D02*
X509375Y639375D01*
X503125Y641875D02*
X507000Y638000D01*
X502250Y639000D02*
X505625Y635625D01*
X501625Y635875D02*
X516000Y621500D01*
X501375Y632375D02*
X516000Y617750D01*
X502250Y627750D02*
X514750Y615250D01*
X512500Y628500D02*
X516000Y625000D01*
X515000Y630000D02*
X516000Y629000D01*
X586811Y494979D02*
Y504821D01*
X563189Y494979D02*
Y504821D01*
X572047D01*
X577953D02*
X586811D01*
X563189Y494979D02*
X572047D01*
X577953D02*
X586811D01*
X592189Y479579D02*
Y489421D01*
X615811Y479579D02*
Y489421D01*
X606953Y479579D02*
X615811D01*
X592189D02*
X601047D01*
X606953Y489421D02*
X615811D01*
X592189D02*
X601047D01*
X563189Y479379D02*
Y489221D01*
X586811Y479379D02*
Y489221D01*
X577953Y479379D02*
X586811D01*
X563189D02*
X572047D01*
X577953Y489221D02*
X586811D01*
X563189D02*
X572047D01*
X615811Y494979D02*
Y504821D01*
X592189Y494979D02*
Y504821D01*
X601047D01*
X606953D02*
X615811D01*
X592189Y494979D02*
X601047D01*
X606953D02*
X615811D01*
X563189Y510579D02*
Y520421D01*
X586811Y510579D02*
Y520421D01*
X577953Y510579D02*
X586811D01*
X563189D02*
X572047D01*
X577953Y520421D02*
X586811D01*
X563189D02*
X572047D01*
X592189Y510579D02*
Y520421D01*
X615811Y510579D02*
Y520421D01*
X606953Y510579D02*
X615811D01*
X592189D02*
X601047D01*
X606953Y520421D02*
X615811D01*
X592189D02*
X601047D01*
X592189Y464079D02*
Y473921D01*
X615811Y464079D02*
Y473921D01*
X606953Y464079D02*
X615811D01*
X592189D02*
X601047D01*
X606953Y473921D02*
X615811D01*
X592189D02*
X601047D01*
X563189Y463779D02*
Y473621D01*
X586811Y463779D02*
Y473621D01*
X577953Y463779D02*
X586811D01*
X563189D02*
X572047D01*
X577953Y473621D02*
X586811D01*
X563189D02*
X572047D01*
X651811Y443579D02*
Y453421D01*
X628189Y443579D02*
Y453421D01*
X637047D01*
X642953D02*
X651811D01*
X628189Y443579D02*
X637047D01*
X642953D02*
X651811D01*
X657750Y679000D02*
X661250D01*
X657750Y673000D02*
X661250D01*
X544250Y496900D02*
X547750D01*
X544250Y502900D02*
X547750D01*
X704250Y413500D02*
X707750D01*
X704250Y407500D02*
X707750D01*
X573250Y587500D02*
X576750D01*
X573250Y593500D02*
X576750D01*
X685250Y673000D02*
X688750D01*
X685250Y679000D02*
X688750D01*
X545000Y666998D02*
Y662833D01*
X545833Y662000D01*
X547499D01*
X548332Y662833D01*
Y666998D01*
X553331D02*
X549998D01*
Y664499D01*
X551664Y665332D01*
X552498D01*
X553331Y664499D01*
Y662833D01*
X552498Y662000D01*
X550831D01*
X549998Y662833D01*
X554997Y666165D02*
X555830Y666998D01*
X557496D01*
X558329Y666165D01*
Y662833D01*
X557496Y662000D01*
X555830D01*
X554997Y662833D01*
Y666165D01*
X648132Y614865D02*
X647299Y615698D01*
X645633D01*
X644800Y614865D01*
Y611533D01*
X645633Y610700D01*
X647299D01*
X648132Y611533D01*
X653131Y615698D02*
X649798D01*
Y613199D01*
X651465Y614032D01*
X652298D01*
X653131Y613199D01*
Y611533D01*
X652298Y610700D01*
X650631D01*
X649798Y611533D01*
X658129Y615698D02*
X656463Y614865D01*
X654797Y613199D01*
Y611533D01*
X655630Y610700D01*
X657296D01*
X658129Y611533D01*
Y612366D01*
X657296Y613199D01*
X654797D01*
X597502Y632500D02*
X602500D01*
Y634999D01*
X601667Y635832D01*
X598335D01*
X597502Y634999D01*
Y632500D01*
Y640831D02*
X598335Y639164D01*
X600001Y637498D01*
X601667D01*
X602500Y638331D01*
Y639998D01*
X601667Y640831D01*
X600834D01*
X600001Y639998D01*
Y637498D01*
X602500Y642497D02*
Y644163D01*
Y643330D01*
X597502D01*
X598335Y642497D01*
X620500Y685998D02*
Y681000D01*
X623832D01*
X628831Y685998D02*
X625498D01*
Y683499D01*
X627165Y684332D01*
X627998D01*
X628831Y683499D01*
Y681833D01*
X627998Y681000D01*
X626331D01*
X625498Y681833D01*
X585500Y683000D02*
Y687998D01*
X587999D01*
X588832Y687165D01*
Y685499D01*
X587999Y684666D01*
X585500D01*
X587166D02*
X588832Y683000D01*
X590498D02*
X592165D01*
X591331D01*
Y687998D01*
X590498Y687165D01*
X594664D02*
X595497Y687998D01*
X597163D01*
X597996Y687165D01*
Y683833D01*
X597163Y683000D01*
X595497D01*
X594664Y683833D01*
Y687165D01*
X602994Y687998D02*
X599662D01*
Y685499D01*
X601328Y686332D01*
X602161D01*
X602994Y685499D01*
Y683833D01*
X602161Y683000D01*
X600495D01*
X599662Y683833D01*
X557500Y683000D02*
Y687998D01*
X559999D01*
X560832Y687165D01*
Y685499D01*
X559999Y684666D01*
X557500D01*
X559166D02*
X560832Y683000D01*
X562498D02*
X564164D01*
X563331D01*
Y687998D01*
X562498Y687165D01*
X566664D02*
X567497Y687998D01*
X569163D01*
X569996Y687165D01*
Y683833D01*
X569163Y683000D01*
X567497D01*
X566664Y683833D01*
Y687165D01*
X574994Y687998D02*
X573328Y687165D01*
X571662Y685499D01*
Y683833D01*
X572495Y683000D01*
X574161D01*
X574994Y683833D01*
Y684666D01*
X574161Y685499D01*
X571662D01*
X445500Y459000D02*
Y463998D01*
X447999D01*
X448832Y463165D01*
Y461499D01*
X447999Y460666D01*
X445500D01*
X447166D02*
X448832Y459000D01*
X450498D02*
X452165D01*
X451331D01*
Y463998D01*
X450498Y463165D01*
X454664Y459000D02*
X456330D01*
X455497D01*
Y463998D01*
X454664Y463165D01*
X458829D02*
X459662Y463998D01*
X461328D01*
X462161Y463165D01*
Y462332D01*
X461328Y461499D01*
X460495D01*
X461328D01*
X462161Y460666D01*
Y459833D01*
X461328Y459000D01*
X459662D01*
X458829Y459833D01*
X444500Y485500D02*
Y490498D01*
X446999D01*
X447832Y489665D01*
Y487999D01*
X446999Y487166D01*
X444500D01*
X446166D02*
X447832Y485500D01*
X449498D02*
X451164D01*
X450331D01*
Y490498D01*
X449498Y489665D01*
X453664Y485500D02*
X455330D01*
X454497D01*
Y490498D01*
X453664Y489665D01*
X461161Y490498D02*
X457829D01*
Y487999D01*
X459495Y488832D01*
X460328D01*
X461161Y487999D01*
Y486333D01*
X460328Y485500D01*
X458662D01*
X457829Y486333D01*
X535000Y522500D02*
Y527498D01*
X537499D01*
X538332Y526665D01*
Y524999D01*
X537499Y524166D01*
X535000D01*
X536666D02*
X538332Y522500D01*
X539998D02*
X541665D01*
X540831D01*
Y527498D01*
X539998Y526665D01*
X544164Y522500D02*
X545830D01*
X544997D01*
Y527498D01*
X544164Y526665D01*
X551661Y527498D02*
X549995Y526665D01*
X548329Y524999D01*
Y523333D01*
X549162Y522500D01*
X550828D01*
X551661Y523333D01*
Y524166D01*
X550828Y524999D01*
X548329D01*
X562200Y573600D02*
X557202D01*
Y576099D01*
X558035Y576932D01*
X559701D01*
X560534Y576099D01*
Y573600D01*
Y575266D02*
X562200Y576932D01*
X561367Y578598D02*
X562200Y579431D01*
Y581098D01*
X561367Y581931D01*
X558035D01*
X557202Y581098D01*
Y579431D01*
X558035Y578598D01*
X558868D01*
X559701Y579431D01*
Y581931D01*
X557202Y583597D02*
Y586929D01*
X558035D01*
X561367Y583597D01*
X562200D01*
X443400Y526200D02*
Y531198D01*
X445899D01*
X446732Y530365D01*
Y528699D01*
X445899Y527866D01*
X443400D01*
X445066D02*
X446732Y526200D01*
X448398D02*
X450065D01*
X449231D01*
Y531198D01*
X448398Y530365D01*
X452564Y526200D02*
X454230D01*
X453397D01*
Y531198D01*
X452564Y530365D01*
X456729D02*
X457562Y531198D01*
X459228D01*
X460061Y530365D01*
Y527033D01*
X459228Y526200D01*
X457562D01*
X456729Y527033D01*
Y530365D01*
X724700Y529000D02*
Y533998D01*
X727199D01*
X728032Y533165D01*
Y531499D01*
X727199Y530666D01*
X724700D01*
X726366D02*
X728032Y529000D01*
X729698D02*
X731364D01*
X730531D01*
Y533998D01*
X729698Y533165D01*
X733864Y529000D02*
X735530D01*
X734697D01*
Y533998D01*
X733864Y533165D01*
X741361Y529000D02*
X738029D01*
X741361Y532332D01*
Y533165D01*
X740528Y533998D01*
X738862D01*
X738029Y533165D01*
X535000Y425600D02*
Y430598D01*
X537499D01*
X538332Y429765D01*
Y428099D01*
X537499Y427266D01*
X535000D01*
X536666D02*
X538332Y425600D01*
X539998D02*
X541665D01*
X540831D01*
Y430598D01*
X539998Y429765D01*
X544164Y425600D02*
X545830D01*
X544997D01*
Y430598D01*
X544164Y429765D01*
X550828Y425600D02*
Y430598D01*
X548329Y428099D01*
X551661D01*
X660832Y506165D02*
X659999Y506998D01*
X658333D01*
X657500Y506165D01*
Y502833D01*
X658333Y502000D01*
X659999D01*
X660832Y502833D01*
X662498Y506165D02*
X663331Y506998D01*
X664998D01*
X665831Y506165D01*
Y505332D01*
X664998Y504499D01*
X664164D01*
X664998D01*
X665831Y503666D01*
Y502833D01*
X664998Y502000D01*
X663331D01*
X662498Y502833D01*
X637032Y510665D02*
X636199Y511498D01*
X634533D01*
X633700Y510665D01*
Y507333D01*
X634533Y506500D01*
X636199D01*
X637032Y507333D01*
X642031Y506500D02*
X638698D01*
X642031Y509832D01*
Y510665D01*
X641198Y511498D01*
X639531D01*
X638698Y510665D01*
X460800Y576500D02*
Y581498D01*
X463299D01*
X464132Y580665D01*
Y578999D01*
X463299Y578166D01*
X460800D01*
X462466D02*
X464132Y576500D01*
X465798Y581498D02*
X469131D01*
Y580665D01*
X465798Y577333D01*
Y576500D01*
X522800Y570500D02*
Y575498D01*
X525299D01*
X526132Y574665D01*
Y572999D01*
X525299Y572166D01*
X522800D01*
X524466D02*
X526132Y570500D01*
X527798Y574665D02*
X528631Y575498D01*
X530298D01*
X531131Y574665D01*
Y573832D01*
X530298Y572999D01*
X531131Y572166D01*
Y571333D01*
X530298Y570500D01*
X528631D01*
X527798Y571333D01*
Y572166D01*
X528631Y572999D01*
X527798Y573832D01*
Y574665D01*
X528631Y572999D02*
X530298D01*
X460800Y590800D02*
Y595798D01*
X463299D01*
X464132Y594965D01*
Y593299D01*
X463299Y592466D01*
X460800D01*
X462466D02*
X464132Y590800D01*
X465798Y591633D02*
X466631Y590800D01*
X468298D01*
X469131Y591633D01*
Y594965D01*
X468298Y595798D01*
X466631D01*
X465798Y594965D01*
Y594132D01*
X466631Y593299D01*
X469131D01*
X520800Y584800D02*
Y589798D01*
X523299D01*
X524132Y588965D01*
Y587299D01*
X523299Y586466D01*
X520800D01*
X522466D02*
X524132Y584800D01*
X525798D02*
X527464D01*
X526631D01*
Y589798D01*
X525798Y588965D01*
X529964D02*
X530797Y589798D01*
X532463D01*
X533296Y588965D01*
Y585633D01*
X532463Y584800D01*
X530797D01*
X529964Y585633D01*
Y588965D01*
X459600Y605000D02*
Y609998D01*
X462099D01*
X462932Y609165D01*
Y607499D01*
X462099Y606666D01*
X459600D01*
X461266D02*
X462932Y605000D01*
X464598D02*
X466264D01*
X465431D01*
Y609998D01*
X464598Y609165D01*
X468764Y605000D02*
X470430D01*
X469597D01*
Y609998D01*
X468764Y609165D01*
X520800Y599000D02*
Y603998D01*
X523299D01*
X524132Y603165D01*
Y601499D01*
X523299Y600666D01*
X520800D01*
X522466D02*
X524132Y599000D01*
X525798D02*
X527464D01*
X526631D01*
Y603998D01*
X525798Y603165D01*
X533296Y599000D02*
X529964D01*
X533296Y602332D01*
Y603165D01*
X532463Y603998D01*
X530797D01*
X529964Y603165D01*
X494300Y436000D02*
Y440998D01*
X496799D01*
X497632Y440165D01*
Y438499D01*
X496799Y437666D01*
X494300D01*
X495966D02*
X497632Y436000D01*
X502631Y440998D02*
X500964Y440165D01*
X499298Y438499D01*
Y436833D01*
X500131Y436000D01*
X501798D01*
X502631Y436833D01*
Y437666D01*
X501798Y438499D01*
X499298D01*
X433800Y436000D02*
Y440998D01*
X436299D01*
X437132Y440165D01*
Y438499D01*
X436299Y437666D01*
X433800D01*
X435466D02*
X437132Y436000D01*
X442131Y440998D02*
X438798D01*
Y438499D01*
X440464Y439332D01*
X441298D01*
X442131Y438499D01*
Y436833D01*
X441298Y436000D01*
X439631D01*
X438798Y436833D01*
X494300Y420800D02*
Y425798D01*
X496799D01*
X497632Y424965D01*
Y423299D01*
X496799Y422466D01*
X494300D01*
X495966D02*
X497632Y420800D01*
X501798D02*
Y425798D01*
X499298Y423299D01*
X502631D01*
X433800Y420800D02*
Y425798D01*
X436299D01*
X437132Y424965D01*
Y423299D01*
X436299Y422466D01*
X433800D01*
X435466D02*
X437132Y420800D01*
X438798Y424965D02*
X439631Y425798D01*
X441298D01*
X442131Y424965D01*
Y424132D01*
X441298Y423299D01*
X440464D01*
X441298D01*
X442131Y422466D01*
Y421633D01*
X441298Y420800D01*
X439631D01*
X438798Y421633D01*
X494300Y405500D02*
Y410498D01*
X496799D01*
X497632Y409665D01*
Y407999D01*
X496799Y407166D01*
X494300D01*
X495966D02*
X497632Y405500D01*
X502631D02*
X499298D01*
X502631Y408832D01*
Y409665D01*
X501798Y410498D01*
X500131D01*
X499298Y409665D01*
X434700Y405500D02*
Y410498D01*
X437199D01*
X438032Y409665D01*
Y407999D01*
X437199Y407166D01*
X434700D01*
X436366D02*
X438032Y405500D01*
X439698D02*
X441364D01*
X440531D01*
Y410498D01*
X439698Y409665D01*
X749132Y670365D02*
X748299Y671198D01*
X746633D01*
X745800Y670365D01*
Y667033D01*
X746633Y666200D01*
X748299D01*
X749132Y667033D01*
X754131Y671198D02*
X750798D01*
Y668699D01*
X752464Y669532D01*
X753298D01*
X754131Y668699D01*
Y667033D01*
X753298Y666200D01*
X751631D01*
X750798Y667033D01*
X477500Y470000D02*
Y474998D01*
X479999D01*
X480832Y474165D01*
Y472499D01*
X479999Y471666D01*
X477500D01*
X479166D02*
X480832Y470000D01*
X482498D02*
X484164D01*
X483331D01*
Y474998D01*
X482498Y474165D01*
X486664D02*
X487497Y474998D01*
X489163D01*
X489996Y474165D01*
Y470833D01*
X489163Y470000D01*
X487497D01*
X486664Y470833D01*
Y474165D01*
X491662Y470833D02*
X492495Y470000D01*
X494161D01*
X494994Y470833D01*
Y474165D01*
X494161Y474998D01*
X492495D01*
X491662Y474165D01*
Y473332D01*
X492495Y472499D01*
X494994D01*
X478500Y497000D02*
Y501998D01*
X480999D01*
X481832Y501165D01*
Y499499D01*
X480999Y498666D01*
X478500D01*
X480166D02*
X481832Y497000D01*
X483498D02*
X485164D01*
X484331D01*
Y501998D01*
X483498Y501165D01*
X487664Y497000D02*
X489330D01*
X488497D01*
Y501998D01*
X487664Y501165D01*
X491829Y497000D02*
X493495D01*
X492662D01*
Y501998D01*
X491829Y501165D01*
X432502Y645700D02*
X437500D01*
Y648199D01*
X436667Y649032D01*
X433335D01*
X432502Y648199D01*
Y645700D01*
X437500Y650698D02*
Y652364D01*
Y651531D01*
X432502D01*
X433335Y650698D01*
X759502Y423800D02*
X764500D01*
Y426299D01*
X763667Y427132D01*
X760335D01*
X759502Y426299D01*
Y423800D01*
X764500Y432131D02*
Y428798D01*
X761168Y432131D01*
X760335D01*
X759502Y431298D01*
Y429631D01*
X760335Y428798D01*
X445002Y644800D02*
X450000D01*
Y647299D01*
X449167Y648132D01*
X445835D01*
X445002Y647299D01*
Y644800D01*
Y649798D02*
Y653131D01*
X445835D01*
X449167Y649798D01*
X450000D01*
X637702Y549000D02*
X641450D01*
X642200Y549750D01*
Y551249D01*
X641450Y551999D01*
X637702D01*
X642200Y553499D02*
Y554998D01*
Y554248D01*
X637702D01*
X638451Y553499D01*
X642200Y560246D02*
Y557247D01*
X639201Y560246D01*
X638451D01*
X637702Y559497D01*
Y557997D01*
X638451Y557247D01*
X637702Y470000D02*
X641450D01*
X642200Y470750D01*
Y472249D01*
X641450Y472999D01*
X637702D01*
X642200Y474499D02*
Y475998D01*
Y475248D01*
X637702D01*
X638451Y474499D01*
Y478247D02*
X637702Y478997D01*
Y480497D01*
X638451Y481246D01*
X639201D01*
X639951Y480497D01*
Y479747D01*
Y480497D01*
X640700Y481246D01*
X641450D01*
X642200Y480497D01*
Y478997D01*
X641450Y478247D01*
X695300Y436600D02*
Y441598D01*
X697799D01*
X698632Y440765D01*
Y439099D01*
X697799Y438266D01*
X695300D01*
X696966D02*
X698632Y436600D01*
X700298Y441598D02*
X703631D01*
Y440765D01*
X700298Y437433D01*
Y436600D01*
X708629Y441598D02*
X705297D01*
Y439099D01*
X706963Y439932D01*
X707796D01*
X708629Y439099D01*
Y437433D01*
X707796Y436600D01*
X706130D01*
X705297Y437433D01*
X446600Y539000D02*
Y543998D01*
X449099D01*
X449932Y543165D01*
Y541499D01*
X449099Y540666D01*
X446600D01*
X448266D02*
X449932Y539000D01*
X454931Y543998D02*
X451598D01*
Y541499D01*
X453265Y542332D01*
X454098D01*
X454931Y541499D01*
Y539833D01*
X454098Y539000D01*
X452431D01*
X451598Y539833D01*
X459096Y539000D02*
Y543998D01*
X456597Y541499D01*
X459929D01*
X523900Y530200D02*
Y535198D01*
X526399D01*
X527232Y534365D01*
Y532699D01*
X526399Y531866D01*
X523900D01*
X525566D02*
X527232Y530200D01*
X531398D02*
Y535198D01*
X528898Y532699D01*
X532231D01*
X537229Y535198D02*
X533897D01*
Y532699D01*
X535563Y533532D01*
X536396D01*
X537229Y532699D01*
Y531033D01*
X536396Y530200D01*
X534730D01*
X533897Y531033D01*
X776335Y488232D02*
X775502Y487399D01*
Y485733D01*
X776335Y484900D01*
X779667D01*
X780500Y485733D01*
Y487399D01*
X779667Y488232D01*
X776335Y489898D02*
X775502Y490731D01*
Y492398D01*
X776335Y493231D01*
X777168D01*
X778001Y492398D01*
Y491565D01*
Y492398D01*
X778834Y493231D01*
X779667D01*
X780500Y492398D01*
Y490731D01*
X779667Y489898D01*
X780500Y498229D02*
Y494897D01*
X777168Y498229D01*
X776335D01*
X775502Y497396D01*
Y495730D01*
X776335Y494897D01*
X623835Y578632D02*
X623002Y577799D01*
Y576133D01*
X623835Y575300D01*
X627167D01*
X628000Y576133D01*
Y577799D01*
X627167Y578632D01*
X623835Y580298D02*
X623002Y581131D01*
Y582798D01*
X623835Y583631D01*
X624668D01*
X625501Y582798D01*
Y581964D01*
Y582798D01*
X626334Y583631D01*
X627167D01*
X628000Y582798D01*
Y581131D01*
X627167Y580298D01*
X623835Y585297D02*
X623002Y586130D01*
Y587796D01*
X623835Y588629D01*
X624668D01*
X625501Y587796D01*
Y586963D01*
Y587796D01*
X626334Y588629D01*
X627167D01*
X628000Y587796D01*
Y586130D01*
X627167Y585297D01*
X449632Y517165D02*
X448799Y517998D01*
X447133D01*
X446300Y517165D01*
Y513833D01*
X447133Y513000D01*
X448799D01*
X449632Y513833D01*
X451298Y517165D02*
X452131Y517998D01*
X453798D01*
X454631Y517165D01*
Y516332D01*
X453798Y515499D01*
X452964D01*
X453798D01*
X454631Y514666D01*
Y513833D01*
X453798Y513000D01*
X452131D01*
X451298Y513833D01*
X458796Y513000D02*
Y517998D01*
X456297Y515499D01*
X459629D01*
X708832Y513965D02*
X707999Y514798D01*
X706333D01*
X705500Y513965D01*
Y510633D01*
X706333Y509800D01*
X707999D01*
X708832Y510633D01*
X710498Y513965D02*
X711331Y514798D01*
X712998D01*
X713831Y513965D01*
Y513132D01*
X712998Y512299D01*
X712164D01*
X712998D01*
X713831Y511466D01*
Y510633D01*
X712998Y509800D01*
X711331D01*
X710498Y510633D01*
X718829Y514798D02*
X715497D01*
Y512299D01*
X717163Y513132D01*
X717996D01*
X718829Y512299D01*
Y510633D01*
X717996Y509800D01*
X716330D01*
X715497Y510633D01*
X749435Y472532D02*
X748602Y471699D01*
Y470033D01*
X749435Y469200D01*
X752767D01*
X753600Y470033D01*
Y471699D01*
X752767Y472532D01*
X749435Y474198D02*
X748602Y475031D01*
Y476698D01*
X749435Y477531D01*
X750268D01*
X751101Y476698D01*
Y475865D01*
Y476698D01*
X751934Y477531D01*
X752767D01*
X753600Y476698D01*
Y475031D01*
X752767Y474198D01*
X748602Y482529D02*
X749435Y480863D01*
X751101Y479197D01*
X752767D01*
X753600Y480030D01*
Y481696D01*
X752767Y482529D01*
X751934D01*
X751101Y481696D01*
Y479197D01*
X543132Y463465D02*
X542299Y464298D01*
X540633D01*
X539800Y463465D01*
Y460133D01*
X540633Y459300D01*
X542299D01*
X543132Y460133D01*
X544798Y463465D02*
X545631Y464298D01*
X547298D01*
X548131Y463465D01*
Y462632D01*
X547298Y461799D01*
X546464D01*
X547298D01*
X548131Y460966D01*
Y460133D01*
X547298Y459300D01*
X545631D01*
X544798Y460133D01*
X549797D02*
X550630Y459300D01*
X552296D01*
X553129Y460133D01*
Y463465D01*
X552296Y464298D01*
X550630D01*
X549797Y463465D01*
Y462632D01*
X550630Y461799D01*
X553129D01*
X738632Y517365D02*
X737799Y518198D01*
X736133D01*
X735300Y517365D01*
Y514033D01*
X736133Y513200D01*
X737799D01*
X738632Y514033D01*
X742798Y513200D02*
Y518198D01*
X740298Y515699D01*
X743631D01*
X745297Y517365D02*
X746130Y518198D01*
X747796D01*
X748629Y517365D01*
Y516532D01*
X747796Y515699D01*
X746963D01*
X747796D01*
X748629Y514866D01*
Y514033D01*
X747796Y513200D01*
X746130D01*
X745297Y514033D01*
X621900Y571500D02*
X616902D01*
Y573999D01*
X617735Y574832D01*
X619401D01*
X620234Y573999D01*
Y571500D01*
Y573166D02*
X621900Y574832D01*
X617735Y576498D02*
X616902Y577331D01*
Y578998D01*
X617735Y579831D01*
X618568D01*
X619401Y578998D01*
Y578164D01*
Y578998D01*
X620234Y579831D01*
X621067D01*
X621900Y578998D01*
Y577331D01*
X621067Y576498D01*
X616902Y581497D02*
Y584829D01*
X617735D01*
X621067Y581497D01*
X621900D01*
X622300Y555700D02*
X617302D01*
Y558199D01*
X618135Y559032D01*
X619801D01*
X620634Y558199D01*
Y555700D01*
Y557366D02*
X622300Y559032D01*
X618135Y560698D02*
X617302Y561531D01*
Y563198D01*
X618135Y564031D01*
X618968D01*
X619801Y563198D01*
Y562364D01*
Y563198D01*
X620634Y564031D01*
X621467D01*
X622300Y563198D01*
Y561531D01*
X621467Y560698D01*
Y565697D02*
X622300Y566530D01*
Y568196D01*
X621467Y569029D01*
X618135D01*
X617302Y568196D01*
Y566530D01*
X618135Y565697D01*
X618968D01*
X619801Y566530D01*
Y569029D01*
X602700Y597000D02*
Y601998D01*
X605199D01*
X606032Y601165D01*
Y599499D01*
X605199Y598666D01*
X602700D01*
X604366D02*
X606032Y597000D01*
X610198D02*
Y601998D01*
X607698Y599499D01*
X611031D01*
X612697Y601165D02*
X613530Y601998D01*
X615196D01*
X616029Y601165D01*
Y597833D01*
X615196Y597000D01*
X613530D01*
X612697Y597833D01*
Y601165D01*
X563900Y533700D02*
Y538698D01*
X566399D01*
X567232Y537865D01*
Y536199D01*
X566399Y535366D01*
X563900D01*
X565566D02*
X567232Y533700D01*
X571398D02*
Y538698D01*
X568898Y536199D01*
X572231D01*
X573897Y533700D02*
X575563D01*
X574730D01*
Y538698D01*
X573897Y537865D01*
X593200Y533500D02*
Y538498D01*
X595699D01*
X596532Y537665D01*
Y535999D01*
X595699Y535166D01*
X593200D01*
X594866D02*
X596532Y533500D01*
X600698D02*
Y538498D01*
X598198Y535999D01*
X601531D01*
X603197Y537665D02*
X604030Y538498D01*
X605696D01*
X606529Y537665D01*
Y536832D01*
X605696Y535999D01*
X604863D01*
X605696D01*
X606529Y535166D01*
Y534333D01*
X605696Y533500D01*
X604030D01*
X603197Y534333D01*
X561400Y556100D02*
X556402D01*
Y558599D01*
X557235Y559432D01*
X558901D01*
X559734Y558599D01*
Y556100D01*
Y557766D02*
X561400Y559432D01*
Y563598D02*
X556402D01*
X558901Y561098D01*
Y564431D01*
X561400Y568596D02*
X556402D01*
X558901Y566097D01*
Y569429D01*
X523900Y539100D02*
Y544098D01*
X526399D01*
X527232Y543265D01*
Y541599D01*
X526399Y540766D01*
X523900D01*
X525566D02*
X527232Y539100D01*
X531398D02*
Y544098D01*
X528898Y541599D01*
X532231D01*
X533897Y543265D02*
X534730Y544098D01*
X536396D01*
X537229Y543265D01*
Y542432D01*
X536396Y541599D01*
X537229Y540766D01*
Y539933D01*
X536396Y539100D01*
X534730D01*
X533897Y539933D01*
Y540766D01*
X534730Y541599D01*
X533897Y542432D01*
Y543265D01*
X534730Y541599D02*
X536396D01*
X528000Y504700D02*
X523002D01*
Y507199D01*
X523835Y508032D01*
X525501D01*
X526334Y507199D01*
Y504700D01*
Y506366D02*
X528000Y508032D01*
Y512198D02*
X523002D01*
X525501Y509698D01*
Y513031D01*
X527167Y514697D02*
X528000Y515530D01*
Y517196D01*
X527167Y518029D01*
X523835D01*
X523002Y517196D01*
Y515530D01*
X523835Y514697D01*
X524668D01*
X525501Y515530D01*
Y518029D01*
X446100Y553900D02*
Y558898D01*
X448599D01*
X449432Y558065D01*
Y556399D01*
X448599Y555566D01*
X446100D01*
X447766D02*
X449432Y553900D01*
X454431Y558898D02*
X451098D01*
Y556399D01*
X452765Y557232D01*
X453598D01*
X454431Y556399D01*
Y554733D01*
X453598Y553900D01*
X451931D01*
X451098Y554733D01*
X456097Y558065D02*
X456930Y558898D01*
X458596D01*
X459429Y558065D01*
Y554733D01*
X458596Y553900D01*
X456930D01*
X456097Y554733D01*
Y558065D01*
X524700Y556100D02*
Y561098D01*
X527199D01*
X528032Y560265D01*
Y558599D01*
X527199Y557766D01*
X524700D01*
X526366D02*
X528032Y556100D01*
X533031Y561098D02*
X529698D01*
Y558599D01*
X531364Y559432D01*
X532198D01*
X533031Y558599D01*
Y556933D01*
X532198Y556100D01*
X530531D01*
X529698Y556933D01*
X538029Y556100D02*
X534697D01*
X538029Y559432D01*
Y560265D01*
X537196Y561098D01*
X535530D01*
X534697Y560265D01*
X668700Y526300D02*
X663702D01*
Y528799D01*
X664535Y529632D01*
X666201D01*
X667034Y528799D01*
Y526300D01*
Y527966D02*
X668700Y529632D01*
X663702Y534631D02*
Y531298D01*
X666201D01*
X665368Y532965D01*
Y533798D01*
X666201Y534631D01*
X667867D01*
X668700Y533798D01*
Y532131D01*
X667867Y531298D01*
X663702Y539629D02*
Y536297D01*
X666201D01*
X665368Y537963D01*
Y538796D01*
X666201Y539629D01*
X667867D01*
X668700Y538796D01*
Y537130D01*
X667867Y536297D01*
X668600Y543100D02*
X663602D01*
Y545599D01*
X664435Y546432D01*
X666101D01*
X666934Y545599D01*
Y543100D01*
Y544766D02*
X668600Y546432D01*
X663602Y551431D02*
Y548098D01*
X666101D01*
X665268Y549764D01*
Y550598D01*
X666101Y551431D01*
X667767D01*
X668600Y550598D01*
Y548931D01*
X667767Y548098D01*
X663602Y553097D02*
Y556429D01*
X664435D01*
X667767Y553097D01*
X668600D01*
X656000Y517400D02*
Y522398D01*
X658499D01*
X659332Y521565D01*
Y519899D01*
X658499Y519066D01*
X656000D01*
X657666D02*
X659332Y517400D01*
X664331Y522398D02*
X660998D01*
Y519899D01*
X662665Y520732D01*
X663498D01*
X664331Y519899D01*
Y518233D01*
X663498Y517400D01*
X661831D01*
X660998Y518233D01*
X665997Y521565D02*
X666830Y522398D01*
X668496D01*
X669329Y521565D01*
Y520732D01*
X668496Y519899D01*
X669329Y519066D01*
Y518233D01*
X668496Y517400D01*
X666830D01*
X665997Y518233D01*
Y519066D01*
X666830Y519899D01*
X665997Y520732D01*
Y521565D01*
X666830Y519899D02*
X668496D01*
X700100Y567100D02*
Y572098D01*
X702599D01*
X703432Y571265D01*
Y569599D01*
X702599Y568766D01*
X700100D01*
X701766D02*
X703432Y567100D01*
X708431Y572098D02*
X705098D01*
Y569599D01*
X706765Y570432D01*
X707598D01*
X708431Y569599D01*
Y567933D01*
X707598Y567100D01*
X705931D01*
X705098Y567933D01*
X710097D02*
X710930Y567100D01*
X712596D01*
X713429Y567933D01*
Y571265D01*
X712596Y572098D01*
X710930D01*
X710097Y571265D01*
Y570432D01*
X710930Y569599D01*
X713429D01*
X682000Y567300D02*
Y572298D01*
X684499D01*
X685332Y571465D01*
Y569799D01*
X684499Y568966D01*
X682000D01*
X683666D02*
X685332Y567300D01*
X690331Y572298D02*
X688664Y571465D01*
X686998Y569799D01*
Y568133D01*
X687831Y567300D01*
X689498D01*
X690331Y568133D01*
Y568966D01*
X689498Y569799D01*
X686998D01*
X691997Y567300D02*
X693663D01*
X692830D01*
Y572298D01*
X691997Y571465D01*
X724600Y546000D02*
Y550998D01*
X727099D01*
X727932Y550165D01*
Y548499D01*
X727099Y547666D01*
X724600D01*
X726266D02*
X727932Y546000D01*
X732931Y550998D02*
X731264Y550165D01*
X729598Y548499D01*
Y546833D01*
X730431Y546000D01*
X732098D01*
X732931Y546833D01*
Y547666D01*
X732098Y548499D01*
X729598D01*
X734597Y550165D02*
X735430Y550998D01*
X737096D01*
X737929Y550165D01*
Y549332D01*
X737096Y548499D01*
X736263D01*
X737096D01*
X737929Y547666D01*
Y546833D01*
X737096Y546000D01*
X735430D01*
X734597Y546833D01*
X664000Y480200D02*
X659002D01*
Y482699D01*
X659835Y483532D01*
X661501D01*
X662334Y482699D01*
Y480200D01*
Y481866D02*
X664000Y483532D01*
X659002Y488531D02*
X659835Y486865D01*
X661501Y485198D01*
X663167D01*
X664000Y486031D01*
Y487698D01*
X663167Y488531D01*
X662334D01*
X661501Y487698D01*
Y485198D01*
X659002Y493529D02*
Y490197D01*
X661501D01*
X660668Y491863D01*
Y492696D01*
X661501Y493529D01*
X663167D01*
X664000Y492696D01*
Y491030D01*
X663167Y490197D01*
X695500Y497200D02*
Y502198D01*
X697999D01*
X698832Y501365D01*
Y499699D01*
X697999Y498866D01*
X695500D01*
X697166D02*
X698832Y497200D01*
X703831Y502198D02*
X702165Y501365D01*
X700498Y499699D01*
Y498033D01*
X701331Y497200D01*
X702998D01*
X703831Y498033D01*
Y498866D01*
X702998Y499699D01*
X700498D01*
X705497Y502198D02*
X708829D01*
Y501365D01*
X705497Y498033D01*
Y497200D01*
X663800Y465500D02*
X658802D01*
Y467999D01*
X659635Y468832D01*
X661301D01*
X662134Y467999D01*
Y465500D01*
Y467166D02*
X663800Y468832D01*
X658802Y473831D02*
X659635Y472164D01*
X661301Y470498D01*
X662967D01*
X663800Y471331D01*
Y472998D01*
X662967Y473831D01*
X662134D01*
X661301Y472998D01*
Y470498D01*
X659635Y475497D02*
X658802Y476330D01*
Y477996D01*
X659635Y478829D01*
X660468D01*
X661301Y477996D01*
X662134Y478829D01*
X662967D01*
X663800Y477996D01*
Y476330D01*
X662967Y475497D01*
X662134D01*
X661301Y476330D01*
X660468Y475497D01*
X659635D01*
X661301Y476330D02*
Y477996D01*
X695200Y456000D02*
X690202D01*
Y458499D01*
X691035Y459332D01*
X692701D01*
X693534Y458499D01*
Y456000D01*
Y457666D02*
X695200Y459332D01*
X690202Y464331D02*
X691035Y462665D01*
X692701Y460998D01*
X694367D01*
X695200Y461831D01*
Y463498D01*
X694367Y464331D01*
X693534D01*
X692701Y463498D01*
Y460998D01*
X694367Y465997D02*
X695200Y466830D01*
Y468496D01*
X694367Y469329D01*
X691035D01*
X690202Y468496D01*
Y466830D01*
X691035Y465997D01*
X691868D01*
X692701Y466830D01*
Y469329D01*
X664000Y451800D02*
X659002D01*
Y454299D01*
X659835Y455132D01*
X661501D01*
X662334Y454299D01*
Y451800D01*
Y453466D02*
X664000Y455132D01*
X659002Y456798D02*
Y460131D01*
X659835D01*
X663167Y456798D01*
X664000D01*
Y461797D02*
Y463463D01*
Y462630D01*
X659002D01*
X659835Y461797D01*
X662200Y436600D02*
Y441598D01*
X664699D01*
X665532Y440765D01*
Y439099D01*
X664699Y438266D01*
X662200D01*
X663866D02*
X665532Y436600D01*
X667198Y441598D02*
X670531D01*
Y440765D01*
X667198Y437433D01*
Y436600D01*
X675529D02*
X672197D01*
X675529Y439932D01*
Y440765D01*
X674696Y441598D01*
X673030D01*
X672197Y440765D01*
X695189Y471579D02*
X690191D01*
Y474078D01*
X691024Y474911D01*
X692690D01*
X693523Y474078D01*
Y471579D01*
Y473245D02*
X695189Y474911D01*
X690191Y476577D02*
Y479909D01*
X691024D01*
X694356Y476577D01*
X695189D01*
Y484075D02*
X690191D01*
X692690Y481575D01*
Y484908D01*
X592800Y425600D02*
Y430598D01*
X595299D01*
X596132Y429765D01*
Y428099D01*
X595299Y427266D01*
X592800D01*
X594466D02*
X596132Y425600D01*
X597798Y430598D02*
X601131D01*
Y429765D01*
X597798Y426433D01*
Y425600D01*
X602797Y430598D02*
X606129D01*
Y429765D01*
X602797Y426433D01*
Y425600D01*
X564100Y426000D02*
Y430998D01*
X566599D01*
X567432Y430165D01*
Y428499D01*
X566599Y427666D01*
X564100D01*
X565766D02*
X567432Y426000D01*
X569098Y430998D02*
X572431D01*
Y430165D01*
X569098Y426833D01*
Y426000D01*
X574097Y426833D02*
X574930Y426000D01*
X576596D01*
X577429Y426833D01*
Y430165D01*
X576596Y430998D01*
X574930D01*
X574097Y430165D01*
Y429332D01*
X574930Y428499D01*
X577429D01*
X621700Y448800D02*
X616702D01*
Y451299D01*
X617535Y452132D01*
X619201D01*
X620034Y451299D01*
Y448800D01*
Y450466D02*
X621700Y452132D01*
X617535Y453798D02*
X616702Y454631D01*
Y456298D01*
X617535Y457131D01*
X618368D01*
X619201Y456298D01*
X620034Y457131D01*
X620867D01*
X621700Y456298D01*
Y454631D01*
X620867Y453798D01*
X620034D01*
X619201Y454631D01*
X618368Y453798D01*
X617535D01*
X619201Y454631D02*
Y456298D01*
X617535Y458797D02*
X616702Y459630D01*
Y461296D01*
X617535Y462129D01*
X620867D01*
X621700Y461296D01*
Y459630D01*
X620867Y458797D01*
X617535D01*
X562500Y445000D02*
X557502D01*
Y447499D01*
X558335Y448332D01*
X560001D01*
X560834Y447499D01*
Y445000D01*
Y446666D02*
X562500Y448332D01*
X558335Y449998D02*
X557502Y450831D01*
Y452498D01*
X558335Y453331D01*
X559168D01*
X560001Y452498D01*
X560834Y453331D01*
X561667D01*
X562500Y452498D01*
Y450831D01*
X561667Y449998D01*
X560834D01*
X560001Y450831D01*
X559168Y449998D01*
X558335D01*
X560001Y450831D02*
Y452498D01*
X562500Y457496D02*
X557502D01*
X560001Y454997D01*
Y458329D01*
X733800Y497500D02*
Y502498D01*
X736299D01*
X737132Y501665D01*
Y499999D01*
X736299Y499166D01*
X733800D01*
X735466D02*
X737132Y497500D01*
X738798Y498333D02*
X739631Y497500D01*
X741298D01*
X742131Y498333D01*
Y501665D01*
X741298Y502498D01*
X739631D01*
X738798Y501665D01*
Y500832D01*
X739631Y499999D01*
X742131D01*
X743797Y498333D02*
X744630Y497500D01*
X746296D01*
X747129Y498333D01*
Y501665D01*
X746296Y502498D01*
X744630D01*
X743797Y501665D01*
Y500832D01*
X744630Y499999D01*
X747129D01*
X742832Y455765D02*
X741999Y456598D01*
X740333D01*
X739500Y455765D01*
Y452433D01*
X740333Y451600D01*
X741999D01*
X742832Y452433D01*
X744498Y455765D02*
X745331Y456598D01*
X746998D01*
X747831Y455765D01*
Y454932D01*
X746998Y454099D01*
X746165D01*
X746998D01*
X747831Y453266D01*
Y452433D01*
X746998Y451600D01*
X745331D01*
X744498Y452433D01*
X749497Y456598D02*
X752829D01*
Y455765D01*
X749497Y452433D01*
Y451600D01*
X682832Y687165D02*
X681999Y687998D01*
X680333D01*
X679500Y687165D01*
Y683833D01*
X680333Y683000D01*
X681999D01*
X682832Y683833D01*
X684498D02*
X685331Y683000D01*
X686998D01*
X687831Y683833D01*
Y687165D01*
X686998Y687998D01*
X685331D01*
X684498Y687165D01*
Y686332D01*
X685331Y685499D01*
X687831D01*
X689497Y683833D02*
X690330Y683000D01*
X691996D01*
X692829Y683833D01*
Y687165D01*
X691996Y687998D01*
X690330D01*
X689497Y687165D01*
Y686332D01*
X690330Y685499D01*
X692829D01*
X569632Y601565D02*
X568799Y602398D01*
X567133D01*
X566300Y601565D01*
Y598233D01*
X567133Y597400D01*
X568799D01*
X569632Y598233D01*
X571298Y597400D02*
X572964D01*
X572131D01*
Y602398D01*
X571298Y601565D01*
X542132Y618765D02*
X541299Y619598D01*
X539633D01*
X538800Y618765D01*
Y615433D01*
X539633Y614600D01*
X541299D01*
X542132Y615433D01*
X543798Y618765D02*
X544631Y619598D01*
X546298D01*
X547131Y618765D01*
Y617932D01*
X546298Y617099D01*
X545465D01*
X546298D01*
X547131Y616266D01*
Y615433D01*
X546298Y614600D01*
X544631D01*
X543798Y615433D01*
X548797Y618765D02*
X549630Y619598D01*
X551296D01*
X552129Y618765D01*
Y615433D01*
X551296Y614600D01*
X549630D01*
X548797Y615433D01*
Y618765D01*
X744032Y593865D02*
X743199Y594698D01*
X741533D01*
X740700Y593865D01*
Y590533D01*
X741533Y589700D01*
X743199D01*
X744032Y590533D01*
X745698Y593865D02*
X746531Y594698D01*
X748198D01*
X749031Y593865D01*
Y593032D01*
X748198Y592199D01*
X747365D01*
X748198D01*
X749031Y591366D01*
Y590533D01*
X748198Y589700D01*
X746531D01*
X745698Y590533D01*
X750697Y589700D02*
X752363D01*
X751530D01*
Y594698D01*
X750697Y593865D01*
X722432Y411965D02*
X721599Y412798D01*
X719933D01*
X719100Y411965D01*
Y408633D01*
X719933Y407800D01*
X721599D01*
X722432Y408633D01*
X724098Y411965D02*
X724931Y412798D01*
X726598D01*
X727431Y411965D01*
Y411132D01*
X726598Y410299D01*
X725765D01*
X726598D01*
X727431Y409466D01*
Y408633D01*
X726598Y407800D01*
X724931D01*
X724098Y408633D01*
X729097Y411965D02*
X729930Y412798D01*
X731596D01*
X732429Y411965D01*
Y411132D01*
X731596Y410299D01*
X732429Y409466D01*
Y408633D01*
X731596Y407800D01*
X729930D01*
X729097Y408633D01*
Y409466D01*
X729930Y410299D01*
X729097Y411132D01*
Y411965D01*
X729930Y410299D02*
X731596D01*
X530335Y498732D02*
X529502Y497899D01*
Y496233D01*
X530335Y495400D01*
X533667D01*
X534500Y496233D01*
Y497899D01*
X533667Y498732D01*
X534500Y502898D02*
X529502D01*
X532001Y500398D01*
Y503731D01*
X530335Y505397D02*
X529502Y506230D01*
Y507896D01*
X530335Y508729D01*
X533667D01*
X534500Y507896D01*
Y506230D01*
X533667Y505397D01*
X530335D01*
X657332Y686665D02*
X656499Y687498D01*
X654833D01*
X654000Y686665D01*
Y683333D01*
X654833Y682500D01*
X656499D01*
X657332Y683333D01*
X661498Y682500D02*
Y687498D01*
X658998Y684999D01*
X662331D01*
X663997Y682500D02*
X665663D01*
X664830D01*
Y687498D01*
X663997Y686665D01*
X510500Y670998D02*
Y666000D01*
X512999D01*
X513832Y666833D01*
Y670165D01*
X512999Y670998D01*
X510500D01*
X515498Y666000D02*
X517165D01*
X516331D01*
Y670998D01*
X515498Y670165D01*
X522996Y670998D02*
X521330Y670165D01*
X519664Y668499D01*
Y666833D01*
X520497Y666000D01*
X522163D01*
X522996Y666833D01*
Y667666D01*
X522163Y668499D01*
X519664D01*
X472500Y625998D02*
Y621000D01*
X475832D01*
X480831D02*
X477498D01*
X480831Y624332D01*
Y625165D01*
X479998Y625998D01*
X478331D01*
X477498Y625165D01*
X778500Y636500D02*
X773502D01*
Y638999D01*
X774335Y639832D01*
X776001D01*
X776834Y638999D01*
Y636500D01*
X778500Y641498D02*
Y643164D01*
Y642331D01*
X773502D01*
X774335Y641498D01*
Y645664D02*
X773502Y646497D01*
Y648163D01*
X774335Y648996D01*
X775168D01*
X776001Y648163D01*
Y647330D01*
Y648163D01*
X776834Y648996D01*
X777667D01*
X778500Y648163D01*
Y646497D01*
X777667Y645664D01*
X773502Y650662D02*
X778500D01*
X776834D01*
X773502Y653994D01*
X776001Y651495D01*
X778500Y653994D01*
X773502Y655660D02*
X778500D01*
Y658160D01*
X777667Y658993D01*
X776834D01*
X776001Y658160D01*
Y655660D01*
Y658160D01*
X775168Y658993D01*
X774335D01*
X773502Y658160D01*
Y655660D01*
X428000Y504000D02*
X423002D01*
Y506499D01*
X423835Y507332D01*
X425501D01*
X426334Y506499D01*
Y504000D01*
X428000Y508998D02*
Y510665D01*
Y509831D01*
X423002D01*
X423835Y508998D01*
X428000Y515663D02*
X423002D01*
X425501Y513164D01*
Y516496D01*
X428000Y518162D02*
X423002D01*
Y520661D01*
X423835Y521494D01*
X425501D01*
X426334Y520661D01*
Y518162D01*
X428000Y523161D02*
X424668D01*
X423002Y524827D01*
X424668Y526493D01*
X428000D01*
X425501D01*
Y523161D01*
X428000Y528159D02*
X423002D01*
X428000Y531491D01*
X423002D01*
Y536489D02*
Y533157D01*
X428000D01*
Y536489D01*
X425501Y533157D02*
Y534823D01*
X423002Y538156D02*
X428000D01*
Y541488D01*
X433400Y695200D02*
Y700198D01*
X435899D01*
X436732Y699365D01*
Y697699D01*
X435899Y696866D01*
X433400D01*
X438398Y695200D02*
X440064D01*
X439231D01*
Y700198D01*
X438398Y699365D01*
X445896Y700198D02*
X442564D01*
Y697699D01*
X444230Y698532D01*
X445063D01*
X445896Y697699D01*
Y696033D01*
X445063Y695200D01*
X443397D01*
X442564Y696033D01*
X447562Y695200D02*
Y700198D01*
X450061D01*
X450894Y699365D01*
Y697699D01*
X450061Y696866D01*
X447562D01*
X449228D02*
X450894Y695200D01*
X452561Y700198D02*
Y695200D01*
X455893D01*
X629500Y422500D02*
Y427498D01*
X631999D01*
X632832Y426665D01*
Y424999D01*
X631999Y424166D01*
X629500D01*
X634498Y422500D02*
X636165D01*
X635331D01*
Y427498D01*
X634498Y426665D01*
X641996Y427498D02*
X640330Y426665D01*
X638664Y424999D01*
Y423333D01*
X639497Y422500D01*
X641163D01*
X641996Y423333D01*
Y424166D01*
X641163Y424999D01*
X638664D01*
X643662Y422500D02*
Y425832D01*
X645328Y427498D01*
X646994Y425832D01*
Y422500D01*
Y424999D01*
X643662D01*
X648661Y422500D02*
Y427498D01*
X651993Y422500D01*
Y427498D01*
X750500Y685000D02*
Y689998D01*
X752999D01*
X753832Y689165D01*
Y687499D01*
X752999Y686666D01*
X750500D01*
X755498Y685000D02*
Y689998D01*
X758831Y685000D01*
Y689998D01*
X760497Y685000D02*
X762163D01*
X761330D01*
Y689998D01*
X760497Y689165D01*
X628600Y436400D02*
Y441398D01*
X631099D01*
X631932Y440565D01*
Y438899D01*
X631099Y438066D01*
X628600D01*
X630266D02*
X631932Y436400D01*
X633598Y441398D02*
X636931D01*
Y440565D01*
X633598Y437233D01*
Y436400D01*
X638597Y440565D02*
X639430Y441398D01*
X641096D01*
X641929Y440565D01*
Y439732D01*
X641096Y438899D01*
X640263D01*
X641096D01*
X641929Y438066D01*
Y437233D01*
X641096Y436400D01*
X639430D01*
X638597Y437233D01*
X562500Y460400D02*
X557502D01*
Y462899D01*
X558335Y463732D01*
X560001D01*
X560834Y462899D01*
Y460400D01*
Y462066D02*
X562500Y463732D01*
X558335Y465398D02*
X557502Y466231D01*
Y467898D01*
X558335Y468731D01*
X559168D01*
X560001Y467898D01*
X560834Y468731D01*
X561667D01*
X562500Y467898D01*
Y466231D01*
X561667Y465398D01*
X560834D01*
X560001Y466231D01*
X559168Y465398D01*
X558335D01*
X560001Y466231D02*
Y467898D01*
X562500Y470397D02*
Y472063D01*
Y471230D01*
X557502D01*
X558335Y470397D01*
X621800Y464400D02*
X616802D01*
Y466899D01*
X617635Y467732D01*
X619301D01*
X620134Y466899D01*
Y464400D01*
Y466066D02*
X621800Y467732D01*
X617635Y469398D02*
X616802Y470231D01*
Y471898D01*
X617635Y472731D01*
X618468D01*
X619301Y471898D01*
X620134Y472731D01*
X620967D01*
X621800Y471898D01*
Y470231D01*
X620967Y469398D01*
X620134D01*
X619301Y470231D01*
X618468Y469398D01*
X617635D01*
X619301Y470231D02*
Y471898D01*
X617635Y474397D02*
X616802Y475230D01*
Y476896D01*
X617635Y477729D01*
X618468D01*
X619301Y476896D01*
Y476063D01*
Y476896D01*
X620134Y477729D01*
X620967D01*
X621800Y476896D01*
Y475230D01*
X620967Y474397D01*
X592100Y521700D02*
Y526698D01*
X594599D01*
X595432Y525865D01*
Y524199D01*
X594599Y523366D01*
X592100D01*
X593766D02*
X595432Y521700D01*
X597098Y525865D02*
X597931Y526698D01*
X599598D01*
X600431Y525865D01*
Y525032D01*
X599598Y524199D01*
X600431Y523366D01*
Y522533D01*
X599598Y521700D01*
X597931D01*
X597098Y522533D01*
Y523366D01*
X597931Y524199D01*
X597098Y525032D01*
Y525865D01*
X597931Y524199D02*
X599598D01*
X605429Y526698D02*
X602097D01*
Y524199D01*
X603763Y525032D01*
X604596D01*
X605429Y524199D01*
Y522533D01*
X604596Y521700D01*
X602930D01*
X602097Y522533D01*
X565000Y522500D02*
Y527498D01*
X567499D01*
X568332Y526665D01*
Y524999D01*
X567499Y524166D01*
X565000D01*
X566666D02*
X568332Y522500D01*
X569998Y526665D02*
X570831Y527498D01*
X572498D01*
X573331Y526665D01*
Y525832D01*
X572498Y524999D01*
X573331Y524166D01*
Y523333D01*
X572498Y522500D01*
X570831D01*
X569998Y523333D01*
Y524166D01*
X570831Y524999D01*
X569998Y525832D01*
Y526665D01*
X570831Y524999D02*
X572498D01*
X574997Y527498D02*
X578329D01*
Y526665D01*
X574997Y523333D01*
Y522500D01*
X621900Y494600D02*
X616902D01*
Y497099D01*
X617735Y497932D01*
X619401D01*
X620234Y497099D01*
Y494600D01*
Y496266D02*
X621900Y497932D01*
X617735Y499598D02*
X616902Y500431D01*
Y502098D01*
X617735Y502931D01*
X618568D01*
X619401Y502098D01*
X620234Y502931D01*
X621067D01*
X621900Y502098D01*
Y500431D01*
X621067Y499598D01*
X620234D01*
X619401Y500431D01*
X618568Y499598D01*
X617735D01*
X619401Y500431D02*
Y502098D01*
X617735Y504597D02*
X616902Y505430D01*
Y507096D01*
X617735Y507929D01*
X618568D01*
X619401Y507096D01*
X620234Y507929D01*
X621067D01*
X621900Y507096D01*
Y505430D01*
X621067Y504597D01*
X620234D01*
X619401Y505430D01*
X618568Y504597D01*
X617735D01*
X619401Y505430D02*
Y507096D01*
X547900Y478500D02*
Y483498D01*
X550399D01*
X551232Y482665D01*
Y480999D01*
X550399Y480166D01*
X547900D01*
X549566D02*
X551232Y478500D01*
X552898Y482665D02*
X553731Y483498D01*
X555398D01*
X556231Y482665D01*
Y481832D01*
X555398Y480999D01*
X556231Y480166D01*
Y479333D01*
X555398Y478500D01*
X553731D01*
X552898Y479333D01*
Y480166D01*
X553731Y480999D01*
X552898Y481832D01*
Y482665D01*
X553731Y480999D02*
X555398D01*
X557897Y479333D02*
X558730Y478500D01*
X560396D01*
X561229Y479333D01*
Y482665D01*
X560396Y483498D01*
X558730D01*
X557897Y482665D01*
Y481832D01*
X558730Y480999D01*
X561229D01*
X621700Y479600D02*
X616702D01*
Y482099D01*
X617535Y482932D01*
X619201D01*
X620034Y482099D01*
Y479600D01*
Y481266D02*
X621700Y482932D01*
X620867Y484598D02*
X621700Y485431D01*
Y487098D01*
X620867Y487931D01*
X617535D01*
X616702Y487098D01*
Y485431D01*
X617535Y484598D01*
X618368D01*
X619201Y485431D01*
Y487931D01*
X621700Y489597D02*
Y491263D01*
Y490430D01*
X616702D01*
X617535Y489597D01*
X562300Y493400D02*
X557302D01*
Y495899D01*
X558135Y496732D01*
X559801D01*
X560634Y495899D01*
Y493400D01*
Y495066D02*
X562300Y496732D01*
X561467Y498398D02*
X562300Y499231D01*
Y500898D01*
X561467Y501731D01*
X558135D01*
X557302Y500898D01*
Y499231D01*
X558135Y498398D01*
X558968D01*
X559801Y499231D01*
Y501731D01*
X562300Y506729D02*
Y503397D01*
X558968Y506729D01*
X558135D01*
X557302Y505896D01*
Y504230D01*
X558135Y503397D01*
D23*
X399102Y467198D02*
X397603Y465698D01*
Y462700D01*
X399102Y461200D01*
X400602D01*
X402102Y462700D01*
Y465698D01*
X403601Y467198D01*
X405100D01*
X406600Y465698D01*
Y462700D01*
X405100Y461200D01*
X406600Y470197D02*
X400602Y476195D01*
X406600Y479194D02*
X397603D01*
X406600Y485192D01*
X397603D01*
X400602Y488191D02*
Y489691D01*
X402102D01*
Y488191D01*
X400602D01*
X405100D02*
Y489691D01*
X406600D01*
Y488191D01*
X405100D01*
X622699Y701998D02*
X621699Y702998D01*
X619700D01*
X618700Y701998D01*
Y700999D01*
X619700Y699999D01*
X621699D01*
X622699Y698999D01*
Y698000D01*
X621699Y697000D01*
X619700D01*
X618700Y698000D01*
X624698Y702998D02*
X626697D01*
X625698D01*
Y697000D01*
X624698D01*
X626697D01*
X629696D02*
Y702998D01*
X631696Y700999D01*
X633695Y702998D01*
Y697000D01*
X639693Y701998D02*
X638694Y702998D01*
X636694D01*
X635695Y701998D01*
Y698000D01*
X636694Y697000D01*
X638694D01*
X639693Y698000D01*
X644692Y702998D02*
X642692D01*
X641693Y701998D01*
Y698000D01*
X642692Y697000D01*
X644692D01*
X645691Y698000D01*
Y701998D01*
X644692Y702998D01*
X647691Y697000D02*
Y702998D01*
X651689Y697000D01*
Y702998D01*
X657687Y701998D02*
X656688Y702998D01*
X654688D01*
X653689Y701998D01*
Y700999D01*
X654688Y699999D01*
X656688D01*
X657687Y698999D01*
Y698000D01*
X656688Y697000D01*
X654688D01*
X653689Y698000D01*
X669684Y701998D02*
X668684Y702998D01*
X666684D01*
X665685Y701998D01*
Y698000D01*
X666684Y697000D01*
X668684D01*
X669684Y698000D01*
X674682Y702998D02*
X672683D01*
X671683Y701998D01*
Y698000D01*
X672683Y697000D01*
X674682D01*
X675682Y698000D01*
Y701998D01*
X674682Y702998D01*
X677681Y697000D02*
Y702998D01*
X681680Y697000D01*
Y702998D01*
X683679D02*
X687678D01*
X685678D01*
Y697000D01*
X689677D02*
Y702998D01*
X692676D01*
X693676Y701998D01*
Y699999D01*
X692676Y698999D01*
X689677D01*
X691676D02*
X693676Y697000D01*
X698674Y702998D02*
X696675D01*
X695675Y701998D01*
Y698000D01*
X696675Y697000D01*
X698674D01*
X699674Y698000D01*
Y701998D01*
X698674Y702998D01*
X701673D02*
Y697000D01*
X705672D01*
X717668Y701998D02*
X716668Y702998D01*
X714669D01*
X713669Y701998D01*
Y700999D01*
X714669Y699999D01*
X716668D01*
X717668Y698999D01*
Y698000D01*
X716668Y697000D01*
X714669D01*
X713669Y698000D01*
X719667Y702998D02*
Y701998D01*
X721667Y699999D01*
X723666Y701998D01*
Y702998D01*
X721667Y699999D02*
Y697000D01*
X729664Y701998D02*
X728664Y702998D01*
X726665D01*
X725665Y701998D01*
Y700999D01*
X726665Y699999D01*
X728664D01*
X729664Y698999D01*
Y698000D01*
X728664Y697000D01*
X726665D01*
X725665Y698000D01*
X731664Y702998D02*
X735662D01*
X733663D01*
Y697000D01*
X737662D02*
Y702998D01*
X739661Y700999D01*
X741660Y702998D01*
Y697000D01*
X747658Y702998D02*
X743660D01*
Y697000D01*
X747658D01*
X743660Y699999D02*
X745659D01*
X753656Y701998D02*
X752657Y702998D01*
X750657D01*
X749658Y701998D01*
Y700999D01*
X750657Y699999D01*
X752657D01*
X753656Y698999D01*
Y698000D01*
X752657Y697000D01*
X750657D01*
X749658Y698000D01*
X799100Y661698D02*
X803765D01*
X801433D01*
Y654700D01*
X809597Y661698D02*
X807264D01*
X806098Y660532D01*
Y655866D01*
X807264Y654700D01*
X809597D01*
X810763Y655866D01*
Y660532D01*
X809597Y661698D01*
X813095Y654700D02*
Y661698D01*
X816594D01*
X817761Y660532D01*
Y658199D01*
X816594Y657033D01*
X813095D01*
X827091Y661698D02*
Y654700D01*
X831756D01*
X838754Y661698D02*
X834089D01*
Y654700D01*
X838754D01*
X834089Y658199D02*
X836421D01*
X845752Y660532D02*
X844585Y661698D01*
X842253D01*
X841086Y660532D01*
Y655866D01*
X842253Y654700D01*
X844585D01*
X845752Y655866D01*
Y658199D01*
X843419D01*
X852749Y661698D02*
X848084D01*
Y654700D01*
X852749D01*
X848084Y658199D02*
X850417D01*
X855082Y654700D02*
Y661698D01*
X859747Y654700D01*
Y661698D01*
X862080D02*
Y654700D01*
X865578D01*
X866745Y655866D01*
Y660532D01*
X865578Y661698D01*
X862080D01*
D43*
X550595Y627626D02*
G03*
X550595Y627626I-492J0D01*
G01*
X630847Y570543D02*
G03*
X630847Y570543I-492J0D01*
G01*
Y493543D02*
G03*
X630847Y493543I-492J0D01*
G01*
X744504Y654626D02*
G03*
X744504Y654626I-492J0D01*
G01*
X654488Y651276D02*
G03*
X654488Y651276I-492J0D01*
G01*
D44*
X701000Y608500D02*
G03*
X701000Y608500I-30000J0D01*
G01*
X755685Y590000D02*
G03*
X755685Y590000I-19685J0D01*
G01*
X540685Y634000D02*
G03*
X540685Y634000I-19685J0D01*
G01*
X496000Y648500D02*
G03*
X496000Y648500I-20000J0D01*
G01*
X640000Y608500D02*
X702000D01*
X701000Y602000D02*
Y608500D01*
X678500Y579500D02*
X701000Y602000D01*
X678500Y578500D02*
Y579500D01*
X700500Y606500D02*
Y608500D01*
X671000Y577000D02*
X700500Y606500D01*
X666500Y577500D02*
X697500Y608500D01*
X691500Y608000D02*
Y608500D01*
X679500Y596000D02*
X691500Y608000D01*
X662500Y579000D02*
X669500Y586000D01*
X677000Y599000D02*
X686500Y608500D01*
X658000Y580000D02*
X666000Y588000D01*
X673500Y601000D02*
X681000Y608500D01*
X655000Y582500D02*
X664000Y591500D01*
X652500Y585500D02*
X675500Y608500D01*
X664000Y608000D02*
Y608500D01*
X646500Y590500D02*
X664000Y608000D01*
X658000D02*
Y608500D01*
X644500Y594500D02*
X658000Y608000D01*
X652000D02*
Y608500D01*
X642500Y598500D02*
X652000Y608000D01*
X646500D02*
Y608500D01*
X641000Y602500D02*
X646500Y608000D01*
X648500Y587000D02*
X669000Y607500D01*
X670000Y608500D01*
X393701Y393701D02*
Y708661D01*
X787402D01*
Y393701D02*
Y708661D01*
X393701Y393701D02*
X787402D01*
X712000Y607000D02*
X706002D01*
Y609999D01*
X707002Y610999D01*
X709001D01*
X710001Y609999D01*
Y607000D01*
Y608999D02*
X712000Y610999D01*
Y612998D02*
Y614997D01*
Y613998D01*
X706002D01*
X707002Y612998D01*
X712000Y617996D02*
Y619996D01*
Y618996D01*
X706002D01*
X707002Y617996D01*
X706002Y622995D02*
Y626994D01*
X707002D01*
X711000Y622995D01*
X712000D01*
X746900Y636098D02*
Y631100D01*
X747900Y630100D01*
X749899D01*
X750899Y631100D01*
Y636098D01*
X752898Y630100D02*
X754897D01*
X753898D01*
Y636098D01*
X752898Y635098D01*
X642702Y656200D02*
X647700D01*
X648700Y657200D01*
Y659199D01*
X647700Y660199D01*
X642702D01*
Y666197D02*
Y662198D01*
X645701D01*
X644701Y664197D01*
Y665197D01*
X645701Y666197D01*
X647700D01*
X648700Y665197D01*
Y663198D01*
X647700Y662198D01*
X648700Y668196D02*
Y670195D01*
Y669196D01*
X642702D01*
X643702Y668196D01*
X723000Y422999D02*
Y419000D01*
Y420999D01*
X724000Y421999D01*
X724999Y422999D01*
X725999D01*
X731997Y419000D02*
X729998D01*
X728998Y420000D01*
Y421999D01*
X729998Y422999D01*
X731997D01*
X732997Y421999D01*
Y420999D01*
X728998D01*
X734996Y422999D02*
X736996Y419000D01*
X738995Y422999D01*
X743993Y419000D02*
Y424998D01*
X740994Y421999D01*
X744993D01*
D45*
X704000Y602000D02*
Y632000D01*
Y602000D02*
X714000D01*
Y632000D01*
X704000D02*
X714000D01*
X709000Y598500D02*
Y602000D01*
Y632000D02*
Y635500D01*
X548134Y658059D02*
X589866D01*
X584173Y641524D02*
X589866D01*
X548134D02*
X553827D01*
X589866D02*
Y660028D01*
X548134Y641524D02*
Y660028D01*
X589866D01*
X596000Y627689D02*
X604000D01*
X596000D02*
Y651311D01*
X604000D01*
Y627689D02*
Y651311D01*
X600000Y624250D02*
Y627689D01*
Y651311D02*
Y654750D01*
X469000Y461500D02*
X472500D01*
X435500D02*
X439000D01*
X469000Y456500D02*
Y466500D01*
X439000Y456500D02*
X469000D01*
X439000D02*
Y466500D01*
X469000D01*
X439000Y493000D02*
X469000D01*
X439000Y483000D02*
Y493000D01*
Y483000D02*
X469000D01*
Y493000D01*
X435500Y488000D02*
X439000D01*
X469000D02*
X472500D01*
X480000Y579000D02*
X483500D01*
X446500D02*
X450000D01*
X480000Y574000D02*
Y584000D01*
X450000Y574000D02*
X480000D01*
X450000D02*
Y584000D01*
X480000D01*
X512000Y578000D02*
X542000D01*
X512000Y568000D02*
Y578000D01*
Y568000D02*
X542000D01*
Y578000D01*
X508500Y573000D02*
X512000D01*
X542000D02*
X545500D01*
X480000Y593250D02*
X483500D01*
X446500D02*
X450000D01*
X480000Y588250D02*
Y598250D01*
X450000Y588250D02*
X480000D01*
X450000D02*
Y598250D01*
X480000D01*
X512000Y592250D02*
X542000D01*
X512000Y582250D02*
Y592250D01*
Y582250D02*
X542000D01*
Y592250D01*
X508500Y587250D02*
X512000D01*
X542000D02*
X545500D01*
X480000Y607500D02*
X483500D01*
X446500D02*
X450000D01*
X480000Y602500D02*
Y612500D01*
X450000Y602500D02*
X480000D01*
X450000D02*
Y612500D01*
X480000D01*
X512000Y606500D02*
X542000D01*
X512000Y596500D02*
Y606500D01*
Y596500D02*
X542000D01*
Y606500D01*
X508500Y601500D02*
X512000D01*
X542000D02*
X545500D01*
X483500Y443500D02*
X513500D01*
X483500Y433500D02*
Y443500D01*
Y433500D02*
X513500D01*
Y443500D01*
X480000Y438500D02*
X483500D01*
X513500D02*
X517000D01*
X453000D02*
X456500D01*
X419500D02*
X423000D01*
X453000Y433500D02*
Y443500D01*
X423000Y433500D02*
X453000D01*
X423000D02*
Y443500D01*
X453000D01*
X483500Y428250D02*
X513500D01*
X483500Y418250D02*
Y428250D01*
Y418250D02*
X513500D01*
Y428250D01*
X480000Y423250D02*
X483500D01*
X513500D02*
X517000D01*
X453000D02*
X456500D01*
X419500D02*
X423000D01*
X453000Y418250D02*
Y428250D01*
X423000Y418250D02*
X453000D01*
X423000D02*
Y428250D01*
X453000D01*
X483500Y413000D02*
X513500D01*
X483500Y403000D02*
Y413000D01*
Y403000D02*
X513500D01*
Y413000D01*
X480000Y408000D02*
X483500D01*
X513500D02*
X517000D01*
X453000D02*
X456500D01*
X419500D02*
X423000D01*
X453000Y403000D02*
Y413000D01*
X423000Y403000D02*
X453000D01*
X423000D02*
Y413000D01*
X453000D01*
X502000Y473000D02*
X505500D01*
X468500D02*
X472000D01*
X502000Y468000D02*
Y478000D01*
X472000Y468000D02*
X502000D01*
X472000D02*
Y478000D01*
X502000D01*
X472000Y505000D02*
X502000D01*
X472000Y495000D02*
Y505000D01*
Y495000D02*
X502000D01*
Y505000D01*
X468500Y500000D02*
X472000D01*
X502000D02*
X505500D01*
X431000Y637189D02*
X439000D01*
X431000D02*
Y660811D01*
X439000D01*
Y637189D02*
Y660811D01*
X435000Y633750D02*
Y637189D01*
Y660811D02*
Y664250D01*
X758000Y439811D02*
X766000D01*
Y416189D02*
Y439811D01*
X758000Y416189D02*
X766000D01*
X758000D02*
Y439811D01*
X762000D02*
Y443250D01*
Y412750D02*
Y416189D01*
X447500Y660811D02*
Y664250D01*
Y633750D02*
Y637189D01*
X451500D02*
Y660811D01*
X443500D02*
X451500D01*
X443500Y637189D02*
Y660811D01*
Y637189D02*
X451500D01*
X636850Y534677D02*
Y569323D01*
X643150Y534677D02*
Y569323D01*
X636850D02*
X643150D01*
X636850Y534677D02*
X643150D01*
X636850Y457677D02*
Y492323D01*
X643150Y457677D02*
Y492323D01*
X636850D02*
X643150D01*
X636850Y457677D02*
X643150D01*
X744189Y645374D02*
Y647342D01*
X717811D02*
X744189D01*
X717811Y645374D02*
Y647342D01*
X529811Y668500D02*
X533250D01*
X502750D02*
X506189D01*
Y664500D02*
X529811D01*
Y672500D01*
X506189D02*
X529811D01*
X506189Y664500D02*
Y672500D01*
X693563Y648717D02*
Y667220D01*
X651437Y648717D02*
Y667220D01*
Y648717D02*
X693563D01*
X651437Y667220D02*
X693563D01*
X651437Y665252D02*
X693563D01*
X760748Y660591D02*
X770748D01*
Y460591D02*
Y660591D01*
X760748Y460591D02*
X770748D01*
X760748D02*
Y468091D01*
Y660591D01*
X748071Y682008D02*
Y692008D01*
X708071Y682008D02*
X748071D01*
X708071Y692008D02*
X748071D01*
X708071Y682008D02*
Y692008D01*
X440532D02*
X553032D01*
X433032D02*
X440532D01*
X433032Y682008D02*
Y692008D01*
Y682008D02*
X553032D01*
Y692008D01*
X420354Y460591D02*
Y633091D01*
X410354Y460591D02*
X420354D01*
X410354D02*
Y640591D01*
X420354D01*
Y633091D02*
Y640591D01*
X690669Y410354D02*
Y420354D01*
X590669Y410354D02*
X690669D01*
X590669D02*
Y420354D01*
X598169D01*
X690669D01*
D46*
X723000Y428000D02*
Y434664D01*
X726332Y437997D01*
X729665Y434664D01*
Y428000D01*
Y432998D01*
X723000D01*
X737995Y428000D02*
Y437997D01*
X732997Y432998D01*
X739661D01*
D47*
X600000Y649342D02*
D03*
X435000Y658842D02*
D03*
X762000Y418157D02*
D03*
X447500Y658842D02*
D03*
D48*
X527843Y668500D02*
D03*
M02*
