G04 Layer_Color=16711935*
%FSLAX25Y25*%
%MOIN*%
G70*
G01*
G75*
%ADD21C,0.00800*%
%ADD23C,0.01200*%
%ADD44C,0.01000*%
D21*
X393701Y393701D02*
X787402D01*
Y708661D01*
X393701D02*
X787402D01*
X393701Y393701D02*
Y708661D01*
D23*
X800300Y570848D02*
Y563850D01*
Y566183D01*
X804965Y570848D01*
X801466Y567349D01*
X804965Y563850D01*
X811963Y570848D02*
X807298D01*
Y563850D01*
X811963D01*
X807298Y567349D02*
X809630D01*
X818961Y570848D02*
X814295D01*
Y563850D01*
X818961D01*
X814295Y567349D02*
X816628D01*
X821293Y563850D02*
Y570848D01*
X824792D01*
X825958Y569682D01*
Y567349D01*
X824792Y566183D01*
X821293D01*
X831790Y570848D02*
X829457D01*
X828291Y569682D01*
Y565016D01*
X829457Y563850D01*
X831790D01*
X832956Y565016D01*
Y569682D01*
X831790Y570848D01*
X835289D02*
Y565016D01*
X836455Y563850D01*
X838788D01*
X839954Y565016D01*
Y570848D01*
X842286D02*
X846952D01*
X844619D01*
Y563850D01*
X856282Y570848D02*
Y563850D01*
X860947D01*
X863280D02*
Y568515D01*
X865612Y570848D01*
X867945Y568515D01*
Y563850D01*
Y567349D01*
X863280D01*
X870277Y570848D02*
Y569682D01*
X872610Y567349D01*
X874943Y569682D01*
Y570848D01*
X872610Y567349D02*
Y563850D01*
X881940Y570848D02*
X877275D01*
Y563850D01*
X881940D01*
X877275Y567349D02*
X879608D01*
X884273Y563850D02*
Y570848D01*
X887772D01*
X888938Y569682D01*
Y567349D01*
X887772Y566183D01*
X884273D01*
X886605D02*
X888938Y563850D01*
X800300Y543663D02*
Y550660D01*
X803799D01*
X804965Y549494D01*
Y547161D01*
X803799Y545995D01*
X800300D01*
X811963Y549494D02*
X810797Y550660D01*
X808464D01*
X807298Y549494D01*
Y544829D01*
X808464Y543663D01*
X810797D01*
X811963Y544829D01*
X814295Y550660D02*
Y543663D01*
X817794D01*
X818961Y544829D01*
Y545995D01*
X817794Y547161D01*
X814295D01*
X817794D01*
X818961Y548328D01*
Y549494D01*
X817794Y550660D01*
X814295D01*
X828291D02*
X830624D01*
X829457D01*
Y543663D01*
X828291D01*
X830624D01*
X834122D02*
Y550660D01*
X838788Y543663D01*
Y550660D01*
X845785D02*
X841120D01*
Y547161D01*
X843453D01*
X841120D01*
Y543663D01*
X851617Y550660D02*
X849284D01*
X848118Y549494D01*
Y544829D01*
X849284Y543663D01*
X851617D01*
X852783Y544829D01*
Y549494D01*
X851617Y550660D01*
X855116Y543663D02*
Y550660D01*
X858615D01*
X859781Y549494D01*
Y547161D01*
X858615Y545995D01*
X855116D01*
X857448D02*
X859781Y543663D01*
X862113D02*
Y550660D01*
X864446Y548328D01*
X866778Y550660D01*
Y543663D01*
X869111D02*
Y548328D01*
X871444Y550660D01*
X873776Y548328D01*
Y543663D01*
Y547161D01*
X869111D01*
X876109Y550660D02*
X880774D01*
X878441D01*
Y543663D01*
X883107Y550660D02*
X885439D01*
X884273D01*
Y543663D01*
X883107D01*
X885439D01*
X892437Y550660D02*
X890104D01*
X888938Y549494D01*
Y544829D01*
X890104Y543663D01*
X892437D01*
X893603Y544829D01*
Y549494D01*
X892437Y550660D01*
X895936Y543663D02*
Y550660D01*
X900601Y543663D01*
Y550660D01*
X902934Y548328D02*
X904100D01*
Y547161D01*
X902934D01*
Y548328D01*
Y544829D02*
X904100D01*
Y543663D01*
X902934D01*
Y544829D01*
X800300Y510285D02*
X804965D01*
X802633D01*
Y503288D01*
X807298Y510285D02*
Y503288D01*
Y506786D01*
X811963D01*
Y510285D01*
Y503288D01*
X814295Y510285D02*
X816628D01*
X815462D01*
Y503288D01*
X814295D01*
X816628D01*
X824792Y509119D02*
X823626Y510285D01*
X821293D01*
X820127Y509119D01*
Y504454D01*
X821293Y503288D01*
X823626D01*
X824792Y504454D01*
X827125Y510285D02*
Y503288D01*
Y505620D01*
X831790Y510285D01*
X828291Y506786D01*
X831790Y503288D01*
X834122D02*
Y510285D01*
X838788Y503288D01*
Y510285D01*
X845785D02*
X841120D01*
Y503288D01*
X845785D01*
X841120Y506786D02*
X843453D01*
X852783Y509119D02*
X851617Y510285D01*
X849284D01*
X848118Y509119D01*
Y507953D01*
X849284Y506786D01*
X851617D01*
X852783Y505620D01*
Y504454D01*
X851617Y503288D01*
X849284D01*
X848118Y504454D01*
X859781Y509119D02*
X858615Y510285D01*
X856282D01*
X855116Y509119D01*
Y507953D01*
X856282Y506786D01*
X858615D01*
X859781Y505620D01*
Y504454D01*
X858615Y503288D01*
X856282D01*
X855116Y504454D01*
X862113Y507953D02*
X863280D01*
Y506786D01*
X862113D01*
Y507953D01*
Y504454D02*
X863280D01*
Y503288D01*
X862113D01*
Y504454D01*
X867945Y509119D02*
X869111Y510285D01*
X871444D01*
X872610Y509119D01*
Y507953D01*
X871444Y506786D01*
X870277D01*
X871444D01*
X872610Y505620D01*
Y504454D01*
X871444Y503288D01*
X869111D01*
X867945Y504454D01*
X879608Y510285D02*
X874943D01*
Y506786D01*
X877275Y507953D01*
X878441D01*
X879608Y506786D01*
Y504454D01*
X878441Y503288D01*
X876109D01*
X874943Y504454D01*
X881940Y503288D02*
Y510285D01*
X884273Y507953D01*
X886605Y510285D01*
Y503288D01*
X888938Y510285D02*
X891271D01*
X890104D01*
Y503288D01*
X888938D01*
X891271D01*
X899435Y509119D02*
X898268Y510285D01*
X895936D01*
X894769Y509119D01*
Y504454D01*
X895936Y503288D01*
X898268D01*
X899435Y504454D01*
X901767Y503288D02*
Y510285D01*
X905266D01*
X906432Y509119D01*
Y506786D01*
X905266Y505620D01*
X901767D01*
X904100D02*
X906432Y503288D01*
X912264Y510285D02*
X909931D01*
X908765Y509119D01*
Y504454D01*
X909931Y503288D01*
X912264D01*
X913430Y504454D01*
Y509119D01*
X912264Y510285D01*
X915763Y503288D02*
Y510285D01*
X920428Y503288D01*
Y510285D01*
X927426Y509119D02*
X926259Y510285D01*
X923927D01*
X922760Y509119D01*
Y507953D01*
X923927Y506786D01*
X926259D01*
X927426Y505620D01*
Y504454D01*
X926259Y503288D01*
X923927D01*
X922760Y504454D01*
X800300Y523475D02*
Y530473D01*
X803799D01*
X804965Y529307D01*
Y526974D01*
X803799Y525808D01*
X800300D01*
X811963Y529307D02*
X810797Y530473D01*
X808464D01*
X807298Y529307D01*
Y524641D01*
X808464Y523475D01*
X810797D01*
X811963Y524641D01*
X814295Y530473D02*
Y523475D01*
X817794D01*
X818961Y524641D01*
Y525808D01*
X817794Y526974D01*
X814295D01*
X817794D01*
X818961Y528140D01*
Y529307D01*
X817794Y530473D01*
X814295D01*
X821293Y528140D02*
X822460D01*
Y526974D01*
X821293D01*
Y528140D01*
Y524641D02*
X822460D01*
Y523475D01*
X821293D01*
Y524641D01*
X838788Y530473D02*
X834122D01*
Y526974D01*
X836455D01*
X834122D01*
Y523475D01*
X841120D02*
Y530473D01*
X844619D01*
X845785Y529307D01*
Y526974D01*
X844619Y525808D01*
X841120D01*
X843453D02*
X845785Y523475D01*
X848118Y526974D02*
X852783D01*
X858615Y523475D02*
Y530473D01*
X855116Y526974D01*
X859781D01*
X800300Y490098D02*
Y483100D01*
X804965D01*
X807298D02*
Y487765D01*
X809630Y490098D01*
X811963Y487765D01*
Y483100D01*
Y486599D01*
X807298D01*
X814295Y490098D02*
Y488932D01*
X816628Y486599D01*
X818961Y488932D01*
Y490098D01*
X816628Y486599D02*
Y483100D01*
X825958Y490098D02*
X821293D01*
Y483100D01*
X825958D01*
X821293Y486599D02*
X823626D01*
X828291Y483100D02*
Y490098D01*
X831790D01*
X832956Y488932D01*
Y486599D01*
X831790Y485433D01*
X828291D01*
X830624D02*
X832956Y483100D01*
X839954Y488932D02*
X838788Y490098D01*
X836455D01*
X835289Y488932D01*
Y487765D01*
X836455Y486599D01*
X838788D01*
X839954Y485433D01*
Y484266D01*
X838788Y483100D01*
X836455D01*
X835289Y484266D01*
X849284Y490098D02*
X853949D01*
X851617D01*
Y483100D01*
X859781Y490098D02*
X857448D01*
X856282Y488932D01*
Y484266D01*
X857448Y483100D01*
X859781D01*
X860947Y484266D01*
Y488932D01*
X859781Y490098D01*
X870277Y483100D02*
Y490098D01*
X873776D01*
X874943Y488932D01*
Y486599D01*
X873776Y485433D01*
X870277D01*
X877275Y483100D02*
Y490098D01*
X880774D01*
X881940Y488932D01*
Y486599D01*
X880774Y485433D01*
X877275D01*
X879608D02*
X881940Y483100D01*
X884273Y490098D02*
X886605D01*
X885439D01*
Y483100D01*
X884273D01*
X886605D01*
X890104D02*
Y490098D01*
X894769Y483100D01*
Y490098D01*
X897102D02*
X901767D01*
X899435D01*
Y483100D01*
X904100Y487765D02*
X905266D01*
Y486599D01*
X904100D01*
Y487765D01*
Y484266D02*
X905266D01*
Y483100D01*
X904100D01*
Y484266D01*
X832200Y426098D02*
Y420100D01*
X835199D01*
X836199Y421100D01*
Y422099D01*
X835199Y423099D01*
X832200D01*
X835199D01*
X836199Y424099D01*
Y425098D01*
X835199Y426098D01*
X832200D01*
X841197D02*
X839198D01*
X838198Y425098D01*
Y421100D01*
X839198Y420100D01*
X841197D01*
X842197Y421100D01*
Y425098D01*
X841197Y426098D01*
X844196D02*
X848195D01*
X846196D01*
Y420100D01*
X850194Y426098D02*
X854193D01*
X852194D01*
Y420100D01*
X859191Y426098D02*
X857192D01*
X856192Y425098D01*
Y421100D01*
X857192Y420100D01*
X859191D01*
X860191Y421100D01*
Y425098D01*
X859191Y426098D01*
X862190Y420100D02*
Y426098D01*
X864190Y424099D01*
X866189Y426098D01*
Y420100D01*
X874186Y426098D02*
Y420100D01*
X878185D01*
X880184D02*
Y424099D01*
X882184Y426098D01*
X884183Y424099D01*
Y420100D01*
Y423099D01*
X880184D01*
X886182Y426098D02*
Y425098D01*
X888182Y423099D01*
X890181Y425098D01*
Y426098D01*
X888182Y423099D02*
Y420100D01*
X896179Y426098D02*
X892181D01*
Y420100D01*
X896179D01*
X892181Y423099D02*
X894180D01*
X898179Y420100D02*
Y426098D01*
X901178D01*
X902177Y425098D01*
Y423099D01*
X901178Y422099D01*
X898179D01*
X900178D02*
X902177Y420100D01*
X914174Y425098D02*
X913174Y426098D01*
X911174D01*
X910175Y425098D01*
Y421100D01*
X911174Y420100D01*
X913174D01*
X914174Y421100D01*
X916173Y426098D02*
Y421100D01*
X917173Y420100D01*
X919172D01*
X920172Y421100D01*
Y426098D01*
X832200Y463223D02*
X836199D01*
X834199D01*
Y457225D01*
X841197Y463223D02*
X839198D01*
X838198Y462223D01*
Y458225D01*
X839198Y457225D01*
X841197D01*
X842197Y458225D01*
Y462223D01*
X841197Y463223D01*
X844196Y457225D02*
Y463223D01*
X847195D01*
X848195Y462223D01*
Y460224D01*
X847195Y459224D01*
X844196D01*
X856192Y463223D02*
Y457225D01*
X860191D01*
X866189Y463223D02*
X862190D01*
Y457225D01*
X866189D01*
X862190Y460224D02*
X864190D01*
X872187Y462223D02*
X871187Y463223D01*
X869188D01*
X868188Y462223D01*
Y458225D01*
X869188Y457225D01*
X871187D01*
X872187Y458225D01*
Y460224D01*
X870188D01*
X878185Y463223D02*
X874186D01*
Y457225D01*
X878185D01*
X874186Y460224D02*
X876186D01*
X880184Y457225D02*
Y463223D01*
X884183Y457225D01*
Y463223D01*
X886182D02*
Y457225D01*
X889182D01*
X890181Y458225D01*
Y462223D01*
X889182Y463223D01*
X886182D01*
X832200Y475598D02*
X836199D01*
X834199D01*
Y469600D01*
X841197Y475598D02*
X839198D01*
X838198Y474598D01*
Y470600D01*
X839198Y469600D01*
X841197D01*
X842197Y470600D01*
Y474598D01*
X841197Y475598D01*
X844196Y469600D02*
Y475598D01*
X847195D01*
X848195Y474598D01*
Y472599D01*
X847195Y471599D01*
X844196D01*
X856192Y475598D02*
Y469600D01*
X860191D01*
X862190D02*
Y473599D01*
X864190Y475598D01*
X866189Y473599D01*
Y469600D01*
Y472599D01*
X862190D01*
X868188Y475598D02*
Y474598D01*
X870188Y472599D01*
X872187Y474598D01*
Y475598D01*
X870188Y472599D02*
Y469600D01*
X878185Y475598D02*
X874186D01*
Y469600D01*
X878185D01*
X874186Y472599D02*
X876186D01*
X880184Y469600D02*
Y475598D01*
X883183D01*
X884183Y474598D01*
Y472599D01*
X883183Y471599D01*
X880184D01*
X882184D02*
X884183Y469600D01*
X896179Y474598D02*
X895180Y475598D01*
X893180D01*
X892181Y474598D01*
Y470600D01*
X893180Y469600D01*
X895180D01*
X896179Y470600D01*
X898179Y475598D02*
Y470600D01*
X899178Y469600D01*
X901178D01*
X902177Y470600D01*
Y475598D01*
X832200Y450848D02*
X836199D01*
X834199D01*
Y444850D01*
X841197Y450848D02*
X839198D01*
X838198Y449848D01*
Y445850D01*
X839198Y444850D01*
X841197D01*
X842197Y445850D01*
Y449848D01*
X841197Y450848D01*
X844196Y444850D02*
Y450848D01*
X847195D01*
X848195Y449848D01*
Y447849D01*
X847195Y446849D01*
X844196D01*
X860191Y449848D02*
X859191Y450848D01*
X857192D01*
X856192Y449848D01*
Y448849D01*
X857192Y447849D01*
X859191D01*
X860191Y446849D01*
Y445850D01*
X859191Y444850D01*
X857192D01*
X856192Y445850D01*
X865189Y450848D02*
X863190D01*
X862190Y449848D01*
Y445850D01*
X863190Y444850D01*
X865189D01*
X866189Y445850D01*
Y449848D01*
X865189Y450848D01*
X868188D02*
Y444850D01*
X872187D01*
X874186Y450848D02*
Y444850D01*
X877185D01*
X878185Y445850D01*
Y449848D01*
X877185Y450848D01*
X874186D01*
X884183D02*
X880184D01*
Y444850D01*
X884183D01*
X880184Y447849D02*
X882184D01*
X886182Y444850D02*
Y450848D01*
X889182D01*
X890181Y449848D01*
Y447849D01*
X889182Y446849D01*
X886182D01*
X888182D02*
X890181Y444850D01*
X832200Y438473D02*
Y432475D01*
X835199D01*
X836199Y433475D01*
Y434474D01*
X835199Y435474D01*
X832200D01*
X835199D01*
X836199Y436474D01*
Y437473D01*
X835199Y438473D01*
X832200D01*
X841197D02*
X839198D01*
X838198Y437473D01*
Y433475D01*
X839198Y432475D01*
X841197D01*
X842197Y433475D01*
Y437473D01*
X841197Y438473D01*
X844196D02*
X848195D01*
X846196D01*
Y432475D01*
X850194Y438473D02*
X854193D01*
X852194D01*
Y432475D01*
X859191Y438473D02*
X857192D01*
X856192Y437473D01*
Y433475D01*
X857192Y432475D01*
X859191D01*
X860191Y433475D01*
Y437473D01*
X859191Y438473D01*
X862190Y432475D02*
Y438473D01*
X864190Y436474D01*
X866189Y438473D01*
Y432475D01*
X878185Y437473D02*
X877185Y438473D01*
X875186D01*
X874186Y437473D01*
Y436474D01*
X875186Y435474D01*
X877185D01*
X878185Y434474D01*
Y433475D01*
X877185Y432475D01*
X875186D01*
X874186Y433475D01*
X883183Y438473D02*
X881184D01*
X880184Y437473D01*
Y433475D01*
X881184Y432475D01*
X883183D01*
X884183Y433475D01*
Y437473D01*
X883183Y438473D01*
X886182D02*
Y432475D01*
X890181D01*
X892181Y438473D02*
Y432475D01*
X895180D01*
X896179Y433475D01*
Y437473D01*
X895180Y438473D01*
X892181D01*
X902177D02*
X898179D01*
Y432475D01*
X902177D01*
X898179Y435474D02*
X900178D01*
X904177Y432475D02*
Y438473D01*
X907176D01*
X908175Y437473D01*
Y435474D01*
X907176Y434474D01*
X904177D01*
X906176D02*
X908175Y432475D01*
D44*
X795913Y411301D02*
Y580592D01*
Y411301D02*
X941582D01*
Y580592D01*
X795913D02*
X941582D01*
M02*
