G04 Layer_Color=8388736*
%FSLAX25Y25*%
%MOIN*%
G70*
G01*
G75*
%ADD23C,0.01200*%
%ADD44C,0.01000*%
%ADD49R,0.07493X0.07493*%
%ADD50O,0.10642X0.03556*%
%ADD51R,0.07493X0.07493*%
%ADD52R,0.05000X0.08600*%
%ADD53R,0.23600X0.27965*%
%ADD54C,0.09800*%
%ADD55R,0.09800X0.09800*%
%ADD56C,0.11800*%
%ADD57C,0.09300*%
%ADD58C,0.08800*%
%ADD59O,0.08300X0.10800*%
%ADD60R,0.08300X0.10800*%
%ADD61R,0.09800X0.08300*%
%ADD62O,0.09800X0.08300*%
%ADD63C,0.10300*%
%ADD64R,0.10300X0.10300*%
%ADD65O,0.08300X0.09800*%
%ADD66R,0.08300X0.09800*%
%ADD67O,0.08300X0.06800*%
%ADD68C,0.08300*%
%ADD69C,0.06800*%
D23*
X799100Y640048D02*
X803765D01*
X801433D01*
Y633050D01*
X809597Y640048D02*
X807264D01*
X806098Y638881D01*
Y634216D01*
X807264Y633050D01*
X809597D01*
X810763Y634216D01*
Y638881D01*
X809597Y640048D01*
X813095Y633050D02*
Y640048D01*
X816594D01*
X817761Y638881D01*
Y636549D01*
X816594Y635383D01*
X813095D01*
X831756Y638881D02*
X830590Y640048D01*
X828257D01*
X827091Y638881D01*
Y637715D01*
X828257Y636549D01*
X830590D01*
X831756Y635383D01*
Y634216D01*
X830590Y633050D01*
X828257D01*
X827091Y634216D01*
X837588Y640048D02*
X835255D01*
X834089Y638881D01*
Y634216D01*
X835255Y633050D01*
X837588D01*
X838754Y634216D01*
Y638881D01*
X837588Y640048D01*
X841086D02*
Y633050D01*
X845752D01*
X848084Y640048D02*
Y633050D01*
X851583D01*
X852749Y634216D01*
Y638881D01*
X851583Y640048D01*
X848084D01*
X859747D02*
X855082D01*
Y633050D01*
X859747D01*
X855082Y636549D02*
X857415D01*
X862080Y633050D02*
Y640048D01*
X865578D01*
X866745Y638881D01*
Y636549D01*
X865578Y635383D01*
X862080D01*
X864412D02*
X866745Y633050D01*
D44*
X393701Y393701D02*
Y708661D01*
X787402D01*
Y393701D02*
Y708661D01*
X393701Y393701D02*
X787402D01*
D49*
X588004Y676500D02*
D03*
X600996D02*
D03*
X561504D02*
D03*
X574496D02*
D03*
X539504Y515500D02*
D03*
X552496D02*
D03*
X568504Y576550D02*
D03*
X581496D02*
D03*
X469004Y528000D02*
D03*
X481996D02*
D03*
X717996Y533667D02*
D03*
X705004D02*
D03*
X539504Y437500D02*
D03*
X552496D02*
D03*
X671004Y503000D02*
D03*
X683996D02*
D03*
X646496Y501500D02*
D03*
X633504D02*
D03*
X724504Y669000D02*
D03*
X737496D02*
D03*
X700504Y448500D02*
D03*
X713496D02*
D03*
X469004Y541500D02*
D03*
X481996D02*
D03*
X515996Y529000D02*
D03*
X503004D02*
D03*
X633504Y579000D02*
D03*
X646496D02*
D03*
X481996Y515500D02*
D03*
X469004D02*
D03*
X717996Y520000D02*
D03*
X705004D02*
D03*
X729504Y476500D02*
D03*
X742496D02*
D03*
X552496Y453500D02*
D03*
X539504D02*
D03*
X751096Y524100D02*
D03*
X738104D02*
D03*
X610496Y575500D02*
D03*
X597504D02*
D03*
X610496Y560500D02*
D03*
X597504D02*
D03*
Y590500D02*
D03*
X610496D02*
D03*
X581496Y545500D02*
D03*
X568504D02*
D03*
X610496D02*
D03*
X597504D02*
D03*
X568504Y561025D02*
D03*
X581496D02*
D03*
X515996Y542000D02*
D03*
X503004D02*
D03*
Y515500D02*
D03*
X515996D02*
D03*
X481996Y556500D02*
D03*
X469004D02*
D03*
X515996D02*
D03*
X503004D02*
D03*
X675504Y533667D02*
D03*
X688496D02*
D03*
X675504Y547333D02*
D03*
X688496D02*
D03*
Y520000D02*
D03*
X675504D02*
D03*
X705004Y561000D02*
D03*
X717996D02*
D03*
X675504Y561000D02*
D03*
X688496D02*
D03*
X717996Y547333D02*
D03*
X705004D02*
D03*
X671004Y490500D02*
D03*
X683996D02*
D03*
X700504D02*
D03*
X713496D02*
D03*
X683996Y476500D02*
D03*
X671004D02*
D03*
X700504Y462500D02*
D03*
X713496D02*
D03*
X671004D02*
D03*
X683996D02*
D03*
X671004Y448500D02*
D03*
X683996D02*
D03*
X713496Y476500D02*
D03*
X700504D02*
D03*
X610496Y437500D02*
D03*
X597504D02*
D03*
X581496D02*
D03*
X568504D02*
D03*
X597504Y453500D02*
D03*
X610496D02*
D03*
X568504Y453100D02*
D03*
X581496D02*
D03*
X742496Y490500D02*
D03*
X729504D02*
D03*
X742496Y462500D02*
D03*
X729504D02*
D03*
X568504Y499900D02*
D03*
X581496D02*
D03*
X610496Y484500D02*
D03*
X597504D02*
D03*
X581496Y484300D02*
D03*
X568504D02*
D03*
X597504Y499900D02*
D03*
X610496D02*
D03*
X581496Y515500D02*
D03*
X568504D02*
D03*
X610496D02*
D03*
X597504D02*
D03*
X610496Y469000D02*
D03*
X597504D02*
D03*
X581496Y468700D02*
D03*
X568504D02*
D03*
X633504Y448500D02*
D03*
X646496D02*
D03*
X665996Y676000D02*
D03*
X653004D02*
D03*
X539504Y499900D02*
D03*
X552496D02*
D03*
X712496Y410500D02*
D03*
X699504D02*
D03*
X568504Y590500D02*
D03*
X581496D02*
D03*
X680504Y676000D02*
D03*
X693496D02*
D03*
D50*
X630354Y567000D02*
D03*
Y562000D02*
D03*
Y557000D02*
D03*
Y552000D02*
D03*
Y547000D02*
D03*
Y542000D02*
D03*
Y537000D02*
D03*
X649646Y567000D02*
D03*
Y562000D02*
D03*
Y557000D02*
D03*
Y552000D02*
D03*
Y547000D02*
D03*
Y542000D02*
D03*
Y537000D02*
D03*
X630354Y490000D02*
D03*
Y485000D02*
D03*
Y480000D02*
D03*
Y475000D02*
D03*
Y470000D02*
D03*
Y465000D02*
D03*
Y460000D02*
D03*
X649646Y490000D02*
D03*
Y485000D02*
D03*
Y480000D02*
D03*
Y475000D02*
D03*
Y470000D02*
D03*
Y465000D02*
D03*
Y460000D02*
D03*
D51*
X778500Y463504D02*
D03*
Y476496D02*
D03*
D52*
X739976Y654626D02*
D03*
X722024D02*
D03*
D53*
X731000Y630217D02*
D03*
D54*
X709000Y592000D02*
D03*
Y642000D02*
D03*
X582386Y627626D02*
D03*
X575693Y643374D02*
D03*
X569000Y627626D02*
D03*
X562307Y643374D02*
D03*
X638000Y649000D02*
D03*
X613000D02*
D03*
X479000Y461500D02*
D03*
X429000D02*
D03*
Y488000D02*
D03*
X479000D02*
D03*
X490000Y579000D02*
D03*
X440000D02*
D03*
X502000Y573000D02*
D03*
X552000D02*
D03*
X490000Y593250D02*
D03*
X440000D02*
D03*
X502000Y587250D02*
D03*
X552000D02*
D03*
X490000Y607500D02*
D03*
X440000D02*
D03*
X502000Y601500D02*
D03*
X552000D02*
D03*
X473500Y438500D02*
D03*
X523500D02*
D03*
X463000D02*
D03*
X413000D02*
D03*
X473500Y423250D02*
D03*
X523500D02*
D03*
X463000D02*
D03*
X413000D02*
D03*
X473500Y408000D02*
D03*
X523500D02*
D03*
X463000D02*
D03*
X413000D02*
D03*
X512000Y473000D02*
D03*
X462000D02*
D03*
Y500000D02*
D03*
X512000D02*
D03*
X435000Y629000D02*
D03*
Y669000D02*
D03*
X762000Y448000D02*
D03*
Y408000D02*
D03*
X447500Y669000D02*
D03*
Y629000D02*
D03*
X736000Y580000D02*
D03*
Y600000D02*
D03*
X531000Y634000D02*
D03*
X511000D02*
D03*
D55*
X555614Y627626D02*
D03*
D56*
X671000Y623500D02*
D03*
Y593500D02*
D03*
D57*
X600000Y619500D02*
D03*
Y659500D02*
D03*
X538000Y668500D02*
D03*
X498000D02*
D03*
D58*
X778400Y544800D02*
D03*
Y531600D02*
D03*
X775000Y448100D02*
D03*
X731300Y540400D02*
D03*
D59*
X682500Y656000D02*
D03*
X672500D02*
D03*
D60*
X662500D02*
D03*
D61*
X765748Y465591D02*
D03*
X415354Y635591D02*
D03*
D62*
X765748Y475591D02*
D03*
Y485591D02*
D03*
Y495591D02*
D03*
Y505591D02*
D03*
Y515591D02*
D03*
Y525591D02*
D03*
Y535591D02*
D03*
Y545591D02*
D03*
Y555591D02*
D03*
Y565591D02*
D03*
Y575591D02*
D03*
Y585591D02*
D03*
Y595591D02*
D03*
Y605591D02*
D03*
Y615591D02*
D03*
Y625591D02*
D03*
Y635591D02*
D03*
Y645591D02*
D03*
Y655591D02*
D03*
X415354Y625591D02*
D03*
Y605591D02*
D03*
Y585591D02*
D03*
Y565591D02*
D03*
Y545591D02*
D03*
Y525591D02*
D03*
Y505591D02*
D03*
Y485591D02*
D03*
Y465591D02*
D03*
D63*
X476000Y658500D02*
D03*
D64*
Y638500D02*
D03*
D65*
X713071Y687008D02*
D03*
X723071D02*
D03*
X733071D02*
D03*
X548032D02*
D03*
X538032D02*
D03*
X528032D02*
D03*
X518032D02*
D03*
X508032D02*
D03*
X498032D02*
D03*
X488032D02*
D03*
X478032D02*
D03*
X468032D02*
D03*
X458032D02*
D03*
X448032D02*
D03*
X605669Y415354D02*
D03*
X625669D02*
D03*
X635669D02*
D03*
X645669D02*
D03*
X655669D02*
D03*
X665669D02*
D03*
X675669D02*
D03*
X685669D02*
D03*
X615669D02*
D03*
D66*
X743071Y687008D02*
D03*
X438032D02*
D03*
X595669Y415354D02*
D03*
D67*
X415354Y615591D02*
D03*
Y595591D02*
D03*
Y575591D02*
D03*
Y555591D02*
D03*
Y535591D02*
D03*
Y515591D02*
D03*
Y495591D02*
D03*
Y475591D02*
D03*
D68*
X751300Y563200D02*
D03*
X751200Y554100D02*
D03*
X518500Y676800D02*
D03*
X527500D02*
D03*
X574800Y692700D02*
D03*
X562600Y692400D02*
D03*
X713357Y675800D02*
D03*
X544100Y486900D02*
D03*
X701100Y431600D02*
D03*
X680000Y436500D02*
D03*
X556500Y551000D02*
D03*
X527000Y523500D02*
D03*
X662500Y573000D02*
D03*
X597504Y601504D02*
D03*
X747000Y439000D02*
D03*
X733000Y449000D02*
D03*
X715254Y419746D02*
D03*
X528500Y487000D02*
D03*
X751096Y573000D02*
D03*
X632500Y588000D02*
D03*
X747500Y507500D02*
D03*
X722000Y498000D02*
D03*
X658000Y512000D02*
D03*
X622000D02*
D03*
X564000Y403000D02*
D03*
X621000Y444500D02*
D03*
D69*
X553000Y487000D02*
D03*
X547500Y469447D02*
D03*
X554200Y473800D02*
D03*
X697500Y510000D02*
D03*
X621500Y429500D02*
D03*
X579600Y607900D02*
D03*
X578400Y421900D02*
D03*
X551000Y558000D02*
D03*
X659500Y497000D02*
D03*
X658000Y440500D02*
D03*
M02*
