G04 Layer_Color=2752767*
%FSLAX25Y25*%
%MOIN*%
G70*
G01*
G75*
%ADD70C,0.00200*%
%ADD71C,0.00267*%
D70*
X708200Y591200D02*
Y592800D01*
X709800D01*
Y591200D01*
X708200D01*
Y641200D02*
Y642800D01*
X709800D01*
Y641200D01*
X708200D01*
X478200Y460700D02*
Y462300D01*
X479800D01*
Y460700D01*
X478200D01*
X428200D02*
Y462300D01*
X429800D01*
Y460700D01*
X428200D01*
Y487200D02*
Y488800D01*
X429800D01*
Y487200D01*
X428200D01*
X478200D02*
Y488800D01*
X479800D01*
Y487200D01*
X478200D01*
X489200Y578200D02*
Y579800D01*
X490800D01*
Y578200D01*
X489200D01*
X439200D02*
Y579800D01*
X440800D01*
Y578200D01*
X439200D01*
X501200Y572200D02*
Y573800D01*
X502800D01*
Y572200D01*
X501200D01*
X551200D02*
Y573800D01*
X552800D01*
Y572200D01*
X551200D01*
X489200Y592450D02*
Y594050D01*
X490800D01*
Y592450D01*
X489200D01*
X439200D02*
Y594050D01*
X440800D01*
Y592450D01*
X439200D01*
X501200Y586450D02*
Y588050D01*
X502800D01*
Y586450D01*
X501200D01*
X551200D02*
Y588050D01*
X552800D01*
Y586450D01*
X551200D01*
X489200Y606700D02*
Y608300D01*
X490800D01*
Y606700D01*
X489200D01*
X439200D02*
Y608300D01*
X440800D01*
Y606700D01*
X439200D01*
X501200Y600700D02*
Y602300D01*
X502800D01*
Y600700D01*
X501200D01*
X551200D02*
Y602300D01*
X552800D01*
Y600700D01*
X551200D01*
X472700Y437700D02*
Y439300D01*
X474300D01*
Y437700D01*
X472700D01*
X522700D02*
Y439300D01*
X524300D01*
Y437700D01*
X522700D01*
X462200D02*
Y439300D01*
X463800D01*
Y437700D01*
X462200D01*
X412200D02*
Y439300D01*
X413800D01*
Y437700D01*
X412200D01*
X472700Y422450D02*
Y424050D01*
X474300D01*
Y422450D01*
X472700D01*
X522700D02*
Y424050D01*
X524300D01*
Y422450D01*
X522700D01*
X462200D02*
Y424050D01*
X463800D01*
Y422450D01*
X462200D01*
X412200D02*
Y424050D01*
X413800D01*
Y422450D01*
X412200D01*
X472700Y407200D02*
Y408800D01*
X474300D01*
Y407200D01*
X472700D01*
X522700D02*
Y408800D01*
X524300D01*
Y407200D01*
X522700D01*
X462200D02*
Y408800D01*
X463800D01*
Y407200D01*
X462200D01*
X412200D02*
Y408800D01*
X413800D01*
Y407200D01*
X412200D01*
X511200Y472200D02*
Y473800D01*
X512800D01*
Y472200D01*
X511200D01*
X461200D02*
Y473800D01*
X462800D01*
Y472200D01*
X461200D01*
Y499200D02*
Y500800D01*
X462800D01*
Y499200D01*
X461200D01*
X511200D02*
Y500800D01*
X512800D01*
Y499200D01*
X511200D01*
X777600Y544000D02*
Y545600D01*
X779200D01*
Y544000D01*
X777600D01*
Y530800D02*
Y532400D01*
X779200D01*
Y530800D01*
X777600D01*
X774200Y447300D02*
Y448900D01*
X775800D01*
Y447300D01*
X774200D01*
X735200Y579200D02*
Y580800D01*
X736800D01*
Y579200D01*
X735200D01*
Y599200D02*
Y600800D01*
X736800D01*
Y599200D01*
X735200D01*
X764948Y464791D02*
Y466391D01*
X766548D01*
Y464791D01*
X764948D01*
Y474791D02*
Y476391D01*
X766548D01*
Y474791D01*
X764948D01*
Y484791D02*
Y486391D01*
X766548D01*
Y484791D01*
X764948D01*
Y494791D02*
Y496391D01*
X766548D01*
Y494791D01*
X764948D01*
Y504791D02*
Y506391D01*
X766548D01*
Y504791D01*
X764948D01*
Y514791D02*
Y516391D01*
X766548D01*
Y514791D01*
X764948D01*
Y524791D02*
Y526391D01*
X766548D01*
Y524791D01*
X764948D01*
Y534791D02*
Y536391D01*
X766548D01*
Y534791D01*
X764948D01*
Y544791D02*
Y546391D01*
X766548D01*
Y544791D01*
X764948D01*
Y554791D02*
Y556391D01*
X766548D01*
Y554791D01*
X764948D01*
Y564791D02*
Y566391D01*
X766548D01*
Y564791D01*
X764948D01*
Y574791D02*
Y576391D01*
X766548D01*
Y574791D01*
X764948D01*
Y584791D02*
Y586391D01*
X766548D01*
Y584791D01*
X764948D01*
Y594791D02*
Y596391D01*
X766548D01*
Y594791D01*
X764948D01*
Y604791D02*
Y606391D01*
X766548D01*
Y604791D01*
X764948D01*
Y614791D02*
Y616391D01*
X766548D01*
Y614791D01*
X764948D01*
Y624791D02*
Y626391D01*
X766548D01*
Y624791D01*
X764948D01*
Y634791D02*
Y636391D01*
X766548D01*
Y634791D01*
X764948D01*
Y644791D02*
Y646391D01*
X766548D01*
Y644791D01*
X764948D01*
Y654791D02*
Y656391D01*
X766548D01*
Y654791D01*
X764948D01*
X712271Y686208D02*
Y687808D01*
X713871D01*
Y686208D01*
X712271D01*
X722271D02*
Y687808D01*
X723871D01*
Y686208D01*
X722271D01*
X732271D02*
Y687808D01*
X733871D01*
Y686208D01*
X732271D01*
X742271D02*
Y687808D01*
X743871D01*
Y686208D01*
X742271D01*
X547232D02*
Y687808D01*
X548832D01*
Y686208D01*
X547232D01*
X537232D02*
Y687808D01*
X538832D01*
Y686208D01*
X537232D01*
X527232D02*
Y687808D01*
X528832D01*
Y686208D01*
X527232D01*
X517232D02*
Y687808D01*
X518832D01*
Y686208D01*
X517232D01*
X507232D02*
Y687808D01*
X508832D01*
Y686208D01*
X507232D01*
X497232D02*
Y687808D01*
X498832D01*
Y686208D01*
X497232D01*
X487232D02*
Y687808D01*
X488832D01*
Y686208D01*
X487232D01*
X477232D02*
Y687808D01*
X478832D01*
Y686208D01*
X477232D01*
X467232D02*
Y687808D01*
X468832D01*
Y686208D01*
X467232D01*
X457232D02*
Y687808D01*
X458832D01*
Y686208D01*
X457232D01*
X447232D02*
Y687808D01*
X448832D01*
Y686208D01*
X447232D01*
X437232D02*
Y687808D01*
X438832D01*
Y686208D01*
X437232D01*
X414554Y634791D02*
Y636391D01*
X416154D01*
Y634791D01*
X414554D01*
Y624791D02*
Y626391D01*
X416154D01*
Y624791D01*
X414554D01*
Y614791D02*
Y616391D01*
X416154D01*
Y614791D01*
X414554D01*
Y604791D02*
Y606391D01*
X416154D01*
Y604791D01*
X414554D01*
Y594791D02*
Y596391D01*
X416154D01*
Y594791D01*
X414554D01*
Y584791D02*
Y586391D01*
X416154D01*
Y584791D01*
X414554D01*
Y574791D02*
Y576391D01*
X416154D01*
Y574791D01*
X414554D01*
Y564791D02*
Y566391D01*
X416154D01*
Y564791D01*
X414554D01*
Y554791D02*
Y556391D01*
X416154D01*
Y554791D01*
X414554D01*
Y544791D02*
Y546391D01*
X416154D01*
Y544791D01*
X414554D01*
Y534791D02*
Y536391D01*
X416154D01*
Y534791D01*
X414554D01*
Y524791D02*
Y526391D01*
X416154D01*
Y524791D01*
X414554D01*
Y514791D02*
Y516391D01*
X416154D01*
Y514791D01*
X414554D01*
Y504791D02*
Y506391D01*
X416154D01*
Y504791D01*
X414554D01*
Y494791D02*
Y496391D01*
X416154D01*
Y494791D01*
X414554D01*
Y484791D02*
Y486391D01*
X416154D01*
Y484791D01*
X414554D01*
Y474791D02*
Y476391D01*
X416154D01*
Y474791D01*
X414554D01*
Y464791D02*
Y466391D01*
X416154D01*
Y464791D01*
X414554D01*
X594869Y414554D02*
Y416154D01*
X596469D01*
Y414554D01*
X594869D01*
X604869D02*
Y416154D01*
X606469D01*
Y414554D01*
X604869D01*
X624869D02*
Y416154D01*
X626469D01*
Y414554D01*
X624869D01*
X634869D02*
Y416154D01*
X636469D01*
Y414554D01*
X634869D01*
X644869D02*
Y416154D01*
X646469D01*
Y414554D01*
X644869D01*
X654869D02*
Y416154D01*
X656469D01*
Y414554D01*
X654869D01*
X664869D02*
Y416154D01*
X666469D01*
Y414554D01*
X664869D01*
X674869D02*
Y416154D01*
X676469D01*
Y414554D01*
X674869D01*
X684869D02*
Y416154D01*
X686469D01*
Y414554D01*
X684869D01*
X614869D02*
Y416154D01*
X616469D01*
Y414554D01*
X614869D01*
X750500Y562400D02*
Y564000D01*
X752100D01*
Y562400D01*
X750500D01*
X750400Y553300D02*
Y554900D01*
X752000D01*
Y553300D01*
X750400D01*
X517700Y676000D02*
Y677600D01*
X519300D01*
Y676000D01*
X517700D01*
X526700D02*
Y677600D01*
X528300D01*
Y676000D01*
X526700D01*
X574000Y691900D02*
Y693500D01*
X575600D01*
Y691900D01*
X574000D01*
X561800Y691600D02*
Y693200D01*
X563400D01*
Y691600D01*
X561800D01*
X712557Y675000D02*
Y676600D01*
X714157D01*
Y675000D01*
X712557D01*
X730500Y539600D02*
Y541200D01*
X732100D01*
Y539600D01*
X730500D01*
X553000Y486200D02*
X552200Y487800D01*
X553800D01*
X553000Y486200D01*
X543300Y486100D02*
Y487700D01*
X544900D01*
Y486100D01*
X543300D01*
X547500Y468646D02*
X546700Y470247D01*
X548300D01*
X547500Y468646D01*
X554200Y473000D02*
X553400Y474600D01*
X555000D01*
X554200Y473000D01*
X697500Y509200D02*
X696700Y510800D01*
X698300D01*
X697500Y509200D01*
X700300Y430800D02*
Y432400D01*
X701900D01*
Y430800D01*
X700300D01*
X679200Y435700D02*
Y437300D01*
X680800D01*
Y435700D01*
X679200D01*
X555700Y550200D02*
Y551800D01*
X557300D01*
Y550200D01*
X555700D01*
X526200Y522700D02*
Y524300D01*
X527800D01*
Y522700D01*
X526200D01*
X661700Y572200D02*
Y573800D01*
X663300D01*
Y572200D01*
X661700D01*
X596704Y600704D02*
Y602304D01*
X598304D01*
Y600704D01*
X596704D01*
X746200Y438200D02*
Y439800D01*
X747800D01*
Y438200D01*
X746200D01*
X732200Y448200D02*
Y449800D01*
X733800D01*
Y448200D01*
X732200D01*
X714454Y418946D02*
Y420546D01*
X716054D01*
Y418946D01*
X714454D01*
X527700Y486200D02*
Y487800D01*
X529300D01*
Y486200D01*
X527700D01*
X750296Y572200D02*
Y573800D01*
X751896D01*
Y572200D01*
X750296D01*
X631700Y587200D02*
Y588800D01*
X633300D01*
Y587200D01*
X631700D01*
X621500Y428700D02*
X620700Y430300D01*
X622300D01*
X621500Y428700D01*
X579600Y607100D02*
X578800Y608700D01*
X580400D01*
X579600Y607100D01*
X746700Y506700D02*
Y508300D01*
X748300D01*
Y506700D01*
X746700D01*
X721200Y497200D02*
Y498800D01*
X722800D01*
Y497200D01*
X721200D01*
X657200Y511200D02*
Y512800D01*
X658800D01*
Y511200D01*
X657200D01*
X621200D02*
Y512800D01*
X622800D01*
Y511200D01*
X621200D01*
X563200Y402200D02*
Y403800D01*
X564800D01*
Y402200D01*
X563200D01*
X620200Y443700D02*
Y445300D01*
X621800D01*
Y443700D01*
X620200D01*
X578400Y421100D02*
X577600Y422700D01*
X579200D01*
X578400Y421100D01*
X551000Y557200D02*
X550200Y558800D01*
X551800D01*
X551000Y557200D01*
X659500Y496200D02*
X658700Y497800D01*
X660300D01*
X659500Y496200D01*
X658000Y439700D02*
X657200Y441300D01*
X658800D01*
X658000Y439700D01*
D71*
X583186Y627626D02*
G03*
X583186Y627626I-800J0D01*
G01*
X576493Y643374D02*
G03*
X576493Y643374I-800J0D01*
G01*
X569800Y627626D02*
G03*
X569800Y627626I-800J0D01*
G01*
X563107Y643374D02*
G03*
X563107Y643374I-800J0D01*
G01*
X556414Y627626D02*
G03*
X556414Y627626I-800J0D01*
G01*
X671800Y623500D02*
G03*
X671800Y623500I-800J0D01*
G01*
Y593500D02*
G03*
X671800Y593500I-800J0D01*
G01*
X600800Y619500D02*
G03*
X600800Y619500I-800J0D01*
G01*
Y659500D02*
G03*
X600800Y659500I-800J0D01*
G01*
X638800Y649000D02*
G03*
X638800Y649000I-800J0D01*
G01*
X613800D02*
G03*
X613800Y649000I-800J0D01*
G01*
X435800Y629000D02*
G03*
X435800Y629000I-800J0D01*
G01*
Y669000D02*
G03*
X435800Y669000I-800J0D01*
G01*
X762800Y448000D02*
G03*
X762800Y448000I-800J0D01*
G01*
Y408000D02*
G03*
X762800Y408000I-800J0D01*
G01*
X448300Y669000D02*
G03*
X448300Y669000I-800J0D01*
G01*
Y629000D02*
G03*
X448300Y629000I-800J0D01*
G01*
X538800Y668500D02*
G03*
X538800Y668500I-800J0D01*
G01*
X498800D02*
G03*
X498800Y668500I-800J0D01*
G01*
X531800Y634000D02*
G03*
X531800Y634000I-800J0D01*
G01*
X511800D02*
G03*
X511800Y634000I-800J0D01*
G01*
X683300Y656000D02*
G03*
X683300Y656000I-800J0D01*
G01*
X673300D02*
G03*
X673300Y656000I-800J0D01*
G01*
X663300D02*
G03*
X663300Y656000I-800J0D01*
G01*
X476800Y658500D02*
G03*
X476800Y658500I-800J0D01*
G01*
Y638500D02*
G03*
X476800Y638500I-800J0D01*
G01*
M02*
