%FSLAX25Y25*%
%MOIN*%
G70*
G01*
G75*
G04 Layer_Color=16711935*
%ADD10C,0.04000*%
%ADD11C,0.01800*%
%ADD12C,0.02400*%
%ADD13C,0.03000*%
%ADD14C,0.02200*%
%ADD15C,0.02000*%
%ADD16C,0.04400*%
%ADD17C,0.01600*%
%ADD18R,0.05906X0.06693*%
%ADD19R,0.10236X0.06693*%
%ADD20R,0.02362X0.06299*%
%ADD21R,0.06693X0.06693*%
%ADD22R,0.06693X0.05906*%
%ADD23O,0.09843X0.02756*%
%ADD24C,0.00800*%
%ADD25C,0.01200*%
%ADD26C,0.01400*%
%ADD27R,0.07500X0.09500*%
%ADD28O,0.07500X0.09500*%
%ADD29C,0.07500*%
%ADD30O,0.07500X0.09000*%
%ADD31R,0.07500X0.09000*%
%ADD32C,0.08500*%
%ADD33C,0.09000*%
%ADD34R,0.09500X0.07500*%
%ADD35O,0.09500X0.07500*%
%ADD36O,0.09000X0.07500*%
%ADD37R,0.09000X0.07500*%
%ADD38C,0.10000*%
%ADD39C,0.06000*%
%ADD40C,0.00787*%
%ADD41C,0.00984*%
%ADD42C,0.01000*%
%ADD43C,0.02362*%
%ADD44C,0.03937*%
%ADD45C,0.01500*%
%ADD46R,0.06000X0.05000*%
%ADD47R,0.07874X0.03937*%
%ADD48R,0.03445X0.12303*%
%ADD49R,0.03445X0.12303*%
%ADD50R,0.30610X0.06890*%
G04:AMPARAMS|DCode=51|XSize=18.01mil|YSize=15.74mil|CornerRadius=0mil|HoleSize=0mil|Usage=FLASHONLY|Rotation=217.000|XOffset=0mil|YOffset=0mil|HoleType=Round|Shape=Rectangle|*
%AMROTATEDRECTD51*
4,1,4,0.00246,0.01170,0.01193,-0.00087,-0.00246,-0.01170,-0.01193,0.00087,0.00246,0.01170,0.0*
%
%ADD51ROTATEDRECTD51*%

G04:AMPARAMS|DCode=52|XSize=18.01mil|YSize=15.74mil|CornerRadius=0mil|HoleSize=0mil|Usage=FLASHONLY|Rotation=143.000|XOffset=0mil|YOffset=0mil|HoleType=Round|Shape=Rectangle|*
%AMROTATEDRECTD52*
4,1,4,0.01193,0.00087,0.00246,-0.01170,-0.01193,-0.00087,-0.00246,0.01170,0.01193,0.00087,0.0*
%
%ADD52ROTATEDRECTD52*%

%ADD53R,0.06706X0.07493*%
%ADD54R,0.11036X0.07493*%
%ADD55R,0.03162X0.07099*%
%ADD56R,0.07493X0.07493*%
%ADD57R,0.07493X0.06706*%
%ADD58O,0.10642X0.03556*%
%ADD59R,0.08300X0.10300*%
%ADD60O,0.08300X0.10300*%
%ADD61C,0.08300*%
%ADD62O,0.08300X0.09800*%
%ADD63R,0.08300X0.09800*%
%ADD64C,0.09300*%
%ADD65C,0.09800*%
%ADD66R,0.10300X0.08300*%
%ADD67O,0.10300X0.08300*%
%ADD68O,0.09800X0.08300*%
%ADD69R,0.09800X0.08300*%
%ADD70C,0.10800*%
%ADD71C,0.06800*%
D24*
X393701Y393701D02*
Y708661D01*
X787402D01*
Y393701D02*
Y708661D01*
X393701Y393701D02*
X787402D01*
D25*
X798035Y554350D02*
Y547352D01*
Y549685D01*
X802700Y554350D01*
X799201Y550851D01*
X802700Y547352D01*
X809698Y554350D02*
X805032D01*
Y547352D01*
X809698D01*
X805032Y550851D02*
X807365D01*
X816695Y554350D02*
X812030D01*
Y547352D01*
X816695D01*
X812030Y550851D02*
X814363D01*
X819028Y547352D02*
Y554350D01*
X822527D01*
X823693Y553184D01*
Y550851D01*
X822527Y549685D01*
X819028D01*
X829525Y554350D02*
X827192D01*
X826026Y553184D01*
Y548519D01*
X827192Y547352D01*
X829525D01*
X830691Y548519D01*
Y553184D01*
X829525Y554350D01*
X833023D02*
Y548519D01*
X834190Y547352D01*
X836522D01*
X837689Y548519D01*
Y554350D01*
X840021D02*
X844686D01*
X842354D01*
Y547352D01*
X854017Y554350D02*
Y547352D01*
X858682D01*
X861014D02*
Y552017D01*
X863347Y554350D01*
X865679Y552017D01*
Y547352D01*
Y550851D01*
X861014D01*
X868012Y554350D02*
Y553184D01*
X870345Y550851D01*
X872677Y553184D01*
Y554350D01*
X870345Y550851D02*
Y547352D01*
X879675Y554350D02*
X875010D01*
Y547352D01*
X879675D01*
X875010Y550851D02*
X877342D01*
X882008Y547352D02*
Y554350D01*
X885506D01*
X886673Y553184D01*
Y550851D01*
X885506Y549685D01*
X882008D01*
X884340D02*
X886673Y547352D01*
X798035Y527165D02*
Y534163D01*
X801534D01*
X802700Y532996D01*
Y530664D01*
X801534Y529497D01*
X798035D01*
X809698Y532996D02*
X808531Y534163D01*
X806199D01*
X805032Y532996D01*
Y528331D01*
X806199Y527165D01*
X808531D01*
X809698Y528331D01*
X812030Y534163D02*
Y527165D01*
X815529D01*
X816695Y528331D01*
Y529497D01*
X815529Y530664D01*
X812030D01*
X815529D01*
X816695Y531830D01*
Y532996D01*
X815529Y534163D01*
X812030D01*
X826026D02*
X828358D01*
X827192D01*
Y527165D01*
X826026D01*
X828358D01*
X831857D02*
Y534163D01*
X836522Y527165D01*
Y534163D01*
X843520D02*
X838855D01*
Y530664D01*
X841187D01*
X838855D01*
Y527165D01*
X849351Y534163D02*
X847019D01*
X845852Y532996D01*
Y528331D01*
X847019Y527165D01*
X849351D01*
X850518Y528331D01*
Y532996D01*
X849351Y534163D01*
X852850Y527165D02*
Y534163D01*
X856349D01*
X857515Y532996D01*
Y530664D01*
X856349Y529497D01*
X852850D01*
X855183D02*
X857515Y527165D01*
X859848D02*
Y534163D01*
X862181Y531830D01*
X864513Y534163D01*
Y527165D01*
X866846D02*
Y531830D01*
X869178Y534163D01*
X871511Y531830D01*
Y527165D01*
Y530664D01*
X866846D01*
X873843Y534163D02*
X878509D01*
X876176D01*
Y527165D01*
X880841Y534163D02*
X883174D01*
X882008D01*
Y527165D01*
X880841D01*
X883174D01*
X890172Y534163D02*
X887839D01*
X886673Y532996D01*
Y528331D01*
X887839Y527165D01*
X890172D01*
X891338Y528331D01*
Y532996D01*
X890172Y534163D01*
X893670Y527165D02*
Y534163D01*
X898336Y527165D01*
Y534163D01*
X900668Y531830D02*
X901834D01*
Y530664D01*
X900668D01*
Y531830D01*
Y528331D02*
X901834D01*
Y527165D01*
X900668D01*
Y528331D01*
X798035Y493788D02*
X802700D01*
X800367D01*
Y486790D01*
X805032Y493788D02*
Y486790D01*
Y490289D01*
X809698D01*
Y493788D01*
Y486790D01*
X812030Y493788D02*
X814363D01*
X813196D01*
Y486790D01*
X812030D01*
X814363D01*
X822527Y492621D02*
X821360Y493788D01*
X819028D01*
X817862Y492621D01*
Y487956D01*
X819028Y486790D01*
X821360D01*
X822527Y487956D01*
X824859Y493788D02*
Y486790D01*
Y489122D01*
X829525Y493788D01*
X826026Y490289D01*
X829525Y486790D01*
X831857D02*
Y493788D01*
X836522Y486790D01*
Y493788D01*
X843520D02*
X838855D01*
Y486790D01*
X843520D01*
X838855Y490289D02*
X841187D01*
X850518Y492621D02*
X849351Y493788D01*
X847019D01*
X845852Y492621D01*
Y491455D01*
X847019Y490289D01*
X849351D01*
X850518Y489122D01*
Y487956D01*
X849351Y486790D01*
X847019D01*
X845852Y487956D01*
X857515Y492621D02*
X856349Y493788D01*
X854017D01*
X852850Y492621D01*
Y491455D01*
X854017Y490289D01*
X856349D01*
X857515Y489122D01*
Y487956D01*
X856349Y486790D01*
X854017D01*
X852850Y487956D01*
X859848Y491455D02*
X861014D01*
Y490289D01*
X859848D01*
Y491455D01*
Y487956D02*
X861014D01*
Y486790D01*
X859848D01*
Y487956D01*
X865679Y492621D02*
X866846Y493788D01*
X869178D01*
X870345Y492621D01*
Y491455D01*
X869178Y490289D01*
X868012D01*
X869178D01*
X870345Y489122D01*
Y487956D01*
X869178Y486790D01*
X866846D01*
X865679Y487956D01*
X877342Y493788D02*
X872677D01*
Y490289D01*
X875010Y491455D01*
X876176D01*
X877342Y490289D01*
Y487956D01*
X876176Y486790D01*
X873843D01*
X872677Y487956D01*
X879675Y486790D02*
Y493788D01*
X882008Y491455D01*
X884340Y493788D01*
Y486790D01*
X886673Y493788D02*
X889005D01*
X887839D01*
Y486790D01*
X886673D01*
X889005D01*
X897169Y492621D02*
X896003Y493788D01*
X893670D01*
X892504Y492621D01*
Y487956D01*
X893670Y486790D01*
X896003D01*
X897169Y487956D01*
X899502Y486790D02*
Y493788D01*
X903001D01*
X904167Y492621D01*
Y490289D01*
X903001Y489122D01*
X899502D01*
X901834D02*
X904167Y486790D01*
X909999Y493788D02*
X907666D01*
X906500Y492621D01*
Y487956D01*
X907666Y486790D01*
X909999D01*
X911165Y487956D01*
Y492621D01*
X909999Y493788D01*
X913497Y486790D02*
Y493788D01*
X918163Y486790D01*
Y493788D01*
X925160Y492621D02*
X923994Y493788D01*
X921661D01*
X920495Y492621D01*
Y491455D01*
X921661Y490289D01*
X923994D01*
X925160Y489122D01*
Y487956D01*
X923994Y486790D01*
X921661D01*
X920495Y487956D01*
X798035Y506977D02*
Y513975D01*
X801534D01*
X802700Y512809D01*
Y510476D01*
X801534Y509310D01*
X798035D01*
X809698Y512809D02*
X808531Y513975D01*
X806199D01*
X805032Y512809D01*
Y508144D01*
X806199Y506977D01*
X808531D01*
X809698Y508144D01*
X812030Y513975D02*
Y506977D01*
X815529D01*
X816695Y508144D01*
Y509310D01*
X815529Y510476D01*
X812030D01*
X815529D01*
X816695Y511643D01*
Y512809D01*
X815529Y513975D01*
X812030D01*
X819028Y511643D02*
X820194D01*
Y510476D01*
X819028D01*
Y511643D01*
Y508144D02*
X820194D01*
Y506977D01*
X819028D01*
Y508144D01*
X836522Y513975D02*
X831857D01*
Y510476D01*
X834190D01*
X831857D01*
Y506977D01*
X838855D02*
Y513975D01*
X842354D01*
X843520Y512809D01*
Y510476D01*
X842354Y509310D01*
X838855D01*
X841187D02*
X843520Y506977D01*
X845852Y510476D02*
X850518D01*
X856349Y506977D02*
Y513975D01*
X852850Y510476D01*
X857515D01*
X798035Y473600D02*
Y466602D01*
X802700D01*
X805032D02*
Y471268D01*
X807365Y473600D01*
X809698Y471268D01*
Y466602D01*
Y470101D01*
X805032D01*
X812030Y473600D02*
Y472434D01*
X814363Y470101D01*
X816695Y472434D01*
Y473600D01*
X814363Y470101D02*
Y466602D01*
X823693Y473600D02*
X819028D01*
Y466602D01*
X823693D01*
X819028Y470101D02*
X821360D01*
X826026Y466602D02*
Y473600D01*
X829525D01*
X830691Y472434D01*
Y470101D01*
X829525Y468935D01*
X826026D01*
X828358D02*
X830691Y466602D01*
X837689Y472434D02*
X836522Y473600D01*
X834190D01*
X833023Y472434D01*
Y471268D01*
X834190Y470101D01*
X836522D01*
X837689Y468935D01*
Y467769D01*
X836522Y466602D01*
X834190D01*
X833023Y467769D01*
X847019Y473600D02*
X851684D01*
X849351D01*
Y466602D01*
X857515Y473600D02*
X855183D01*
X854017Y472434D01*
Y467769D01*
X855183Y466602D01*
X857515D01*
X858682Y467769D01*
Y472434D01*
X857515Y473600D01*
X868012Y466602D02*
Y473600D01*
X871511D01*
X872677Y472434D01*
Y470101D01*
X871511Y468935D01*
X868012D01*
X875010Y466602D02*
Y473600D01*
X878509D01*
X879675Y472434D01*
Y470101D01*
X878509Y468935D01*
X875010D01*
X877342D02*
X879675Y466602D01*
X882008Y473600D02*
X884340D01*
X883174D01*
Y466602D01*
X882008D01*
X884340D01*
X887839D02*
Y473600D01*
X892504Y466602D01*
Y473600D01*
X894837D02*
X899502D01*
X897169D01*
Y466602D01*
X901834Y471268D02*
X903001D01*
Y470101D01*
X901834D01*
Y471268D01*
Y467769D02*
X903001D01*
Y466602D01*
X901834D01*
Y467769D01*
X829935Y409600D02*
Y403602D01*
X832934D01*
X833933Y404602D01*
Y405602D01*
X832934Y406601D01*
X829935D01*
X832934D01*
X833933Y407601D01*
Y408601D01*
X832934Y409600D01*
X829935D01*
X838932D02*
X836932D01*
X835933Y408601D01*
Y404602D01*
X836932Y403602D01*
X838932D01*
X839931Y404602D01*
Y408601D01*
X838932Y409600D01*
X841931D02*
X845930D01*
X843930D01*
Y403602D01*
X847929Y409600D02*
X851927D01*
X849928D01*
Y403602D01*
X856926Y409600D02*
X854927D01*
X853927Y408601D01*
Y404602D01*
X854927Y403602D01*
X856926D01*
X857926Y404602D01*
Y408601D01*
X856926Y409600D01*
X859925Y403602D02*
Y409600D01*
X861924Y407601D01*
X863924Y409600D01*
Y403602D01*
X871921Y409600D02*
Y403602D01*
X875920D01*
X877919D02*
Y407601D01*
X879918Y409600D01*
X881918Y407601D01*
Y403602D01*
Y406601D01*
X877919D01*
X883917Y409600D02*
Y408601D01*
X885917Y406601D01*
X887916Y408601D01*
Y409600D01*
X885917Y406601D02*
Y403602D01*
X893914Y409600D02*
X889915D01*
Y403602D01*
X893914D01*
X889915Y406601D02*
X891915D01*
X895913Y403602D02*
Y409600D01*
X898912D01*
X899912Y408601D01*
Y406601D01*
X898912Y405602D01*
X895913D01*
X897913D02*
X899912Y403602D01*
X911908Y408601D02*
X910909Y409600D01*
X908909D01*
X907909Y408601D01*
Y404602D01*
X908909Y403602D01*
X910909D01*
X911908Y404602D01*
X913908Y409600D02*
Y404602D01*
X914907Y403602D01*
X916907D01*
X917906Y404602D01*
Y409600D01*
X829935Y446725D02*
X833933D01*
X831934D01*
Y440727D01*
X838932Y446725D02*
X836932D01*
X835933Y445726D01*
Y441727D01*
X836932Y440727D01*
X838932D01*
X839931Y441727D01*
Y445726D01*
X838932Y446725D01*
X841931Y440727D02*
Y446725D01*
X844930D01*
X845930Y445726D01*
Y443726D01*
X844930Y442727D01*
X841931D01*
X853927Y446725D02*
Y440727D01*
X857926D01*
X863924Y446725D02*
X859925D01*
Y440727D01*
X863924D01*
X859925Y443726D02*
X861924D01*
X869922Y445726D02*
X868922Y446725D01*
X866923D01*
X865923Y445726D01*
Y441727D01*
X866923Y440727D01*
X868922D01*
X869922Y441727D01*
Y443726D01*
X867922D01*
X875920Y446725D02*
X871921D01*
Y440727D01*
X875920D01*
X871921Y443726D02*
X873920D01*
X877919Y440727D02*
Y446725D01*
X881918Y440727D01*
Y446725D01*
X883917D02*
Y440727D01*
X886916D01*
X887916Y441727D01*
Y445726D01*
X886916Y446725D01*
X883917D01*
X829935Y459100D02*
X833933D01*
X831934D01*
Y453102D01*
X838932Y459100D02*
X836932D01*
X835933Y458101D01*
Y454102D01*
X836932Y453102D01*
X838932D01*
X839931Y454102D01*
Y458101D01*
X838932Y459100D01*
X841931Y453102D02*
Y459100D01*
X844930D01*
X845930Y458101D01*
Y456101D01*
X844930Y455102D01*
X841931D01*
X853927Y459100D02*
Y453102D01*
X857926D01*
X859925D02*
Y457101D01*
X861924Y459100D01*
X863924Y457101D01*
Y453102D01*
Y456101D01*
X859925D01*
X865923Y459100D02*
Y458101D01*
X867922Y456101D01*
X869922Y458101D01*
Y459100D01*
X867922Y456101D02*
Y453102D01*
X875920Y459100D02*
X871921D01*
Y453102D01*
X875920D01*
X871921Y456101D02*
X873920D01*
X877919Y453102D02*
Y459100D01*
X880918D01*
X881918Y458101D01*
Y456101D01*
X880918Y455102D01*
X877919D01*
X879918D02*
X881918Y453102D01*
X893914Y458101D02*
X892914Y459100D01*
X890915D01*
X889915Y458101D01*
Y454102D01*
X890915Y453102D01*
X892914D01*
X893914Y454102D01*
X895913Y459100D02*
Y454102D01*
X896913Y453102D01*
X898912D01*
X899912Y454102D01*
Y459100D01*
X829935Y434350D02*
X833933D01*
X831934D01*
Y428352D01*
X838932Y434350D02*
X836932D01*
X835933Y433351D01*
Y429352D01*
X836932Y428352D01*
X838932D01*
X839931Y429352D01*
Y433351D01*
X838932Y434350D01*
X841931Y428352D02*
Y434350D01*
X844930D01*
X845930Y433351D01*
Y431351D01*
X844930Y430352D01*
X841931D01*
X857926Y433351D02*
X856926Y434350D01*
X854927D01*
X853927Y433351D01*
Y432351D01*
X854927Y431351D01*
X856926D01*
X857926Y430352D01*
Y429352D01*
X856926Y428352D01*
X854927D01*
X853927Y429352D01*
X862924Y434350D02*
X860925D01*
X859925Y433351D01*
Y429352D01*
X860925Y428352D01*
X862924D01*
X863924Y429352D01*
Y433351D01*
X862924Y434350D01*
X865923D02*
Y428352D01*
X869922D01*
X871921Y434350D02*
Y428352D01*
X874920D01*
X875920Y429352D01*
Y433351D01*
X874920Y434350D01*
X871921D01*
X881918D02*
X877919D01*
Y428352D01*
X881918D01*
X877919Y431351D02*
X879918D01*
X883917Y428352D02*
Y434350D01*
X886916D01*
X887916Y433351D01*
Y431351D01*
X886916Y430352D01*
X883917D01*
X885917D02*
X887916Y428352D01*
X829935Y421975D02*
Y415977D01*
X832934D01*
X833933Y416977D01*
Y417977D01*
X832934Y418976D01*
X829935D01*
X832934D01*
X833933Y419976D01*
Y420976D01*
X832934Y421975D01*
X829935D01*
X838932D02*
X836932D01*
X835933Y420976D01*
Y416977D01*
X836932Y415977D01*
X838932D01*
X839931Y416977D01*
Y420976D01*
X838932Y421975D01*
X841931D02*
X845930D01*
X843930D01*
Y415977D01*
X847929Y421975D02*
X851927D01*
X849928D01*
Y415977D01*
X856926Y421975D02*
X854927D01*
X853927Y420976D01*
Y416977D01*
X854927Y415977D01*
X856926D01*
X857926Y416977D01*
Y420976D01*
X856926Y421975D01*
X859925Y415977D02*
Y421975D01*
X861924Y419976D01*
X863924Y421975D01*
Y415977D01*
X875920Y420976D02*
X874920Y421975D01*
X872921D01*
X871921Y420976D01*
Y419976D01*
X872921Y418976D01*
X874920D01*
X875920Y417977D01*
Y416977D01*
X874920Y415977D01*
X872921D01*
X871921Y416977D01*
X880918Y421975D02*
X878919D01*
X877919Y420976D01*
Y416977D01*
X878919Y415977D01*
X880918D01*
X881918Y416977D01*
Y420976D01*
X880918Y421975D01*
X883917D02*
Y415977D01*
X887916D01*
X889915Y421975D02*
Y415977D01*
X892914D01*
X893914Y416977D01*
Y420976D01*
X892914Y421975D01*
X889915D01*
X899912D02*
X895913D01*
Y415977D01*
X899912D01*
X895913Y418976D02*
X897913D01*
X901911Y415977D02*
Y421975D01*
X904910D01*
X905910Y420976D01*
Y418976D01*
X904910Y417977D01*
X901911D01*
X903911D02*
X905910Y415977D01*
D42*
X793647Y394803D02*
Y564094D01*
Y394803D02*
X939317D01*
Y564094D01*
X793647D02*
X939317D01*
M02*
