M48
;Layer_Color=9474304
;FILE_FORMAT=2:5
INCH,LZ
;TYPE=PLATED
T1F00S00C0.03543
T2F00S00C0.05906
T3F00S00C0.07874
%
T01
X04565Y03985
X0466693Y0423228
X04565Y04385
X0476693Y0423228
X0486693
X0496693
X0506693
X0516693
X0526693
X0536693
X0546693
X0556693
X0566693
X0576693
X0586693
X0596693
X0606693
X0616693
X0595Y0455
X05795Y0443
X06295
X0626693Y0423228
X0636693
X0645Y0455
Y04825
Y05025
Y05225
X0595
X05825
Y05025
X0595
Y04825
X05825
X05325
Y05025
Y05225
X0552559Y0574803
Y0594488
X0517Y06075
X0502559Y0594488
Y0574803
X0415354Y0569921
Y0559921
Y0549921
Y0539921
Y0529921
Y0519921
Y0509921
Y0499921
Y0489921
Y0479921
Y0579921
Y0589921
Y0599921
Y0609921
Y0619921
Y0629921
X0517Y06475
X0516772Y0659449
X0526772
X0536772
X0546772
X0556772
X0566772
X0576772
X0586772
X0596772
X0606772
X0616772
X0506772
X0626772
X0636772
T02
X0433071Y0401339
Y0421339
Y0441339
Y0461339
X0669291
Y0441339
Y0421339
Y0401339
Y0481339
Y0501339
Y0521339
Y0541339
Y0561339
Y0581339
Y0601339
Y0621339
X0476516
Y0601339
Y0581339
Y0561339
Y0541339
X0433071
Y0561339
Y0581339
Y0601339
Y0621339
Y0521339
Y0501339
Y0481339
Y0641339
Y0661339
Y0681339
X0476516
Y0661339
Y0641339
X0669291
Y0661339
Y0681339
T03
X0397638Y0429134
X0704724
X0397638Y0653543
X0704724
M30
