%FSLAX25Y25*%
%MOIN*%
G70*
G01*
G75*
G04 Layer_Color=32896*
%ADD10C,0.04000*%
%ADD11C,0.00800*%
%ADD12C,0.01200*%
%ADD13C,0.09000*%
%ADD14R,0.07500X0.09000*%
%ADD15O,0.06000X0.07500*%
%ADD16O,0.07500X0.09000*%
%ADD17C,0.19685*%
%ADD18C,0.11811*%
%ADD19O,0.12000X0.13000*%
%ADD20C,0.07500*%
%ADD21R,0.07500X0.07500*%
%ADD22R,0.12000X0.13000*%
%ADD23O,0.09000X0.07500*%
%ADD24O,0.09000X0.06000*%
%ADD25R,0.09000X0.07500*%
%ADD26C,0.10000*%
%ADD27C,0.03600*%
%ADD28C,0.03000*%
%ADD29C,0.01600*%
%ADD30R,0.27559X0.35433*%
%ADD31R,0.19685X0.35433*%
%ADD32C,0.01000*%
%ADD33C,0.00400*%
%ADD34C,0.01400*%
%ADD35C,0.02000*%
%ADD36C,0.09800*%
%ADD37R,0.08300X0.09800*%
%ADD38O,0.06800X0.08300*%
%ADD39O,0.08300X0.09800*%
%ADD40C,0.20485*%
%ADD41C,0.12611*%
%ADD42O,0.12800X0.13800*%
%ADD43C,0.08300*%
%ADD44R,0.08300X0.08300*%
%ADD45R,0.12800X0.13800*%
%ADD46O,0.09800X0.08300*%
%ADD47O,0.09800X0.06800*%
%ADD48R,0.09800X0.08300*%
%ADD49C,0.10800*%
%ADD50C,0.00787*%
%ADD51R,0.07874X0.03937*%
D12*
X738324Y649910D02*
Y642913D01*
X741823D01*
X742990Y644079D01*
Y645245D01*
X741823Y646412D01*
X738324D01*
X741823D01*
X742990Y647578D01*
Y648744D01*
X741823Y649910D01*
X738324D01*
X748821D02*
X746488D01*
X745322Y648744D01*
Y644079D01*
X746488Y642913D01*
X748821D01*
X749987Y644079D01*
Y648744D01*
X748821Y649910D01*
X752320D02*
X756985D01*
X754653D01*
Y642913D01*
X759318Y649910D02*
X763983D01*
X761650D01*
Y642913D01*
X769814Y649910D02*
X767482D01*
X766315Y648744D01*
Y644079D01*
X767482Y642913D01*
X769814D01*
X770981Y644079D01*
Y648744D01*
X769814Y649910D01*
X773313Y642913D02*
Y649910D01*
X775646Y647578D01*
X777978Y649910D01*
Y642913D01*
X787309Y649910D02*
Y642913D01*
X791974D01*
X798972Y649910D02*
X794306D01*
Y642913D01*
X798972D01*
X794306Y646412D02*
X796639D01*
X805969Y648744D02*
X804803Y649910D01*
X802470D01*
X801304Y648744D01*
Y644079D01*
X802470Y642913D01*
X804803D01*
X805969Y644079D01*
Y646412D01*
X803637D01*
X812967Y649910D02*
X808302D01*
Y642913D01*
X812967D01*
X808302Y646412D02*
X810634D01*
X815300Y642913D02*
Y649910D01*
X819965Y642913D01*
Y649910D01*
X822297D02*
Y642913D01*
X825796D01*
X826962Y644079D01*
Y648744D01*
X825796Y649910D01*
X822297D01*
D29*
X704724Y547244D02*
X699393D01*
X696727Y544578D01*
X699393Y541913D01*
X704724D01*
X700726D01*
Y547244D01*
X698060Y539247D02*
X696727Y537914D01*
Y535248D01*
X698060Y533915D01*
X699393D01*
X700726Y535248D01*
Y536581D01*
Y535248D01*
X702059Y533915D01*
X703392D01*
X704724Y535248D01*
Y537914D01*
X703392Y539247D01*
X699393Y523252D02*
X704724D01*
X702059D01*
X700726Y521919D01*
X699393Y520586D01*
Y519253D01*
X704724Y511256D02*
Y513922D01*
X703392Y515254D01*
X700726D01*
X699393Y513922D01*
Y511256D01*
X700726Y509923D01*
X702059D01*
Y515254D01*
X699393Y507257D02*
X704724Y504591D01*
X699393Y501925D01*
X698060Y499260D02*
X696727Y497927D01*
Y495261D01*
X698060Y493928D01*
X699393D01*
X700726Y495261D01*
Y496594D01*
Y495261D01*
X702059Y493928D01*
X703392D01*
X704724Y495261D01*
Y497927D01*
X703392Y499260D01*
X704724Y491262D02*
X703392D01*
Y489929D01*
X704724D01*
Y491262D01*
Y484598D02*
Y481932D01*
Y483265D01*
X696727D01*
X698060Y484598D01*
X608842Y400365D02*
X610175Y401698D01*
X612840D01*
X614173Y400365D01*
Y399032D01*
X612840Y397699D01*
X610175D01*
X608842Y396367D01*
Y395034D01*
X610175Y393701D01*
X612840D01*
X614173Y395034D01*
X606176Y393701D02*
X600844Y399032D01*
X598178Y393701D02*
Y401698D01*
X592847Y393701D01*
Y401698D01*
X590181Y399032D02*
X588848D01*
Y397699D01*
X590181D01*
Y399032D01*
Y395034D02*
X588848D01*
Y393701D01*
X590181D01*
Y395034D01*
D32*
X385827Y385827D02*
X716535D01*
X385827D02*
Y696850D01*
X716535D01*
Y385827D02*
Y696850D01*
X567500Y519500D02*
Y525498D01*
X564501D01*
X563501Y524498D01*
Y522499D01*
X564501Y521499D01*
X567500D01*
X565501D02*
X563501Y519500D01*
X561502D02*
X559503D01*
X560502D01*
Y525498D01*
X561502Y524498D01*
X556504Y519500D02*
X554504D01*
X555504D01*
Y525498D01*
X556504Y524498D01*
X547507Y525498D02*
X551505D01*
Y522499D01*
X549506Y523499D01*
X548506D01*
X547507Y522499D01*
Y520500D01*
X548506Y519500D01*
X550505D01*
X551505Y520500D01*
X625000Y452000D02*
Y457998D01*
X622001D01*
X621001Y456998D01*
Y454999D01*
X622001Y453999D01*
X625000D01*
X623001D02*
X621001Y452000D01*
X619002Y457998D02*
X615003D01*
Y456998D01*
X619002Y453000D01*
Y452000D01*
X609500Y440000D02*
Y445998D01*
X606501D01*
X605501Y444998D01*
Y442999D01*
X606501Y441999D01*
X609500D01*
X607501D02*
X605501Y440000D01*
X599503Y445998D02*
X601503Y444998D01*
X603502Y442999D01*
Y441000D01*
X602502Y440000D01*
X600503D01*
X599503Y441000D01*
Y441999D01*
X600503Y442999D01*
X603502D01*
X625000Y479500D02*
Y485498D01*
X622001D01*
X621001Y484498D01*
Y482499D01*
X622001Y481499D01*
X625000D01*
X623001D02*
X621001Y479500D01*
X615003Y485498D02*
X619002D01*
Y482499D01*
X617003Y483499D01*
X616003D01*
X615003Y482499D01*
Y480500D01*
X616003Y479500D01*
X618002D01*
X619002Y480500D01*
X562500Y479500D02*
Y485498D01*
X559501D01*
X558501Y484498D01*
Y482499D01*
X559501Y481499D01*
X562500D01*
X560501D02*
X558501Y479500D01*
X553503D02*
Y485498D01*
X556502Y482499D01*
X552503D01*
X625000Y499500D02*
Y505498D01*
X622001D01*
X621001Y504498D01*
Y502499D01*
X622001Y501499D01*
X625000D01*
X623001D02*
X621001Y499500D01*
X619002Y504498D02*
X618002Y505498D01*
X616003D01*
X615003Y504498D01*
Y503499D01*
X616003Y502499D01*
X617003D01*
X616003D01*
X615003Y501499D01*
Y500500D01*
X616003Y499500D01*
X618002D01*
X619002Y500500D01*
X562500Y499500D02*
Y505498D01*
X559501D01*
X558501Y504498D01*
Y502499D01*
X559501Y501499D01*
X562500D01*
X560501D02*
X558501Y499500D01*
X552503D02*
X556502D01*
X552503Y503499D01*
Y504498D01*
X553503Y505498D01*
X555502D01*
X556502Y504498D01*
X624000Y519500D02*
Y525498D01*
X621001D01*
X620001Y524498D01*
Y522499D01*
X621001Y521499D01*
X624000D01*
X622001D02*
X620001Y519500D01*
X618002D02*
X616003D01*
X617002D01*
Y525498D01*
X618002Y524498D01*
X569685Y409842D02*
Y415841D01*
X566686D01*
X565686Y414841D01*
Y412842D01*
X566686Y411842D01*
X569685D01*
X563687Y409842D02*
X561688D01*
X562687D01*
Y415841D01*
X563687Y414841D01*
X555690Y409842D02*
Y415841D01*
X558689Y412842D01*
X554690D01*
X552691Y409842D02*
Y415841D01*
X549691D01*
X548692Y414841D01*
Y412842D01*
X549691Y411842D01*
X552691D01*
X546693Y409842D02*
Y413841D01*
X544693Y415841D01*
X542694Y413841D01*
Y409842D01*
Y412842D01*
X546693D01*
X540694Y409842D02*
Y415841D01*
X536696Y409842D01*
Y415841D01*
X530698D02*
X534696D01*
Y409842D01*
X530698D01*
X534696Y412842D02*
X532697D01*
X528698Y415841D02*
Y409842D01*
X524700D01*
X633858Y641732D02*
Y647730D01*
X630859D01*
X629860Y646731D01*
Y644731D01*
X630859Y643732D01*
X633858D01*
X627860Y647730D02*
X623862D01*
Y646731D01*
X627860Y642732D01*
Y641732D01*
X407874Y637402D02*
X413872D01*
Y640401D01*
X412872Y641400D01*
X410873D01*
X409873Y640401D01*
Y637402D01*
X407874Y643400D02*
X413872D01*
Y646399D01*
X412872Y647398D01*
X410873D01*
X409873Y646399D01*
Y643400D01*
Y645399D02*
X407874Y647398D01*
Y653396D02*
Y649398D01*
X411873Y653396D01*
X412872D01*
X413872Y652397D01*
Y650397D01*
X412872Y649398D01*
X532559Y591488D02*
Y597486D01*
X529560D01*
X528560Y596487D01*
Y594487D01*
X529560Y593488D01*
X532559D01*
X530560D02*
X528560Y591488D01*
X526561Y596487D02*
X525561Y597486D01*
X523562D01*
X522562Y596487D01*
Y595487D01*
X523562Y594487D01*
X522562Y593488D01*
Y592488D01*
X523562Y591488D01*
X525561D01*
X526561Y592488D01*
Y593488D01*
X525561Y594487D01*
X526561Y595487D01*
Y596487D01*
X525561Y594487D02*
X523562D01*
X532559Y571803D02*
Y577801D01*
X529560D01*
X528560Y576801D01*
Y574802D01*
X529560Y573803D01*
X532559D01*
X530560D02*
X528560Y571803D01*
X526561Y572803D02*
X525561Y571803D01*
X523562D01*
X522562Y572803D01*
Y576801D01*
X523562Y577801D01*
X525561D01*
X526561Y576801D01*
Y575802D01*
X525561Y574802D01*
X522562D01*
X514002Y631500D02*
X520000D01*
Y628501D01*
X519000Y627501D01*
X515002D01*
X514002Y628501D01*
Y631500D01*
X520000Y625502D02*
Y623503D01*
Y624502D01*
X514002D01*
X515002Y625502D01*
X453502Y422500D02*
X459500D01*
Y419501D01*
X458500Y418501D01*
X454502D01*
X453502Y419501D01*
Y422500D01*
X459500Y412503D02*
Y416502D01*
X455501Y412503D01*
X454502D01*
X453502Y413503D01*
Y415502D01*
X454502Y416502D01*
D33*
X482877Y451648D02*
X524818D01*
X482552Y451729D02*
X525306D01*
X482308Y451811D02*
X525550D01*
X482227Y451892D02*
X525793D01*
X482064Y451973D02*
X525875D01*
X481983Y452054D02*
X526037D01*
X481902Y452136D02*
X526118D01*
X481821Y452217D02*
X483056D01*
X499614D02*
X526281D01*
X481740Y452298D02*
X482650D01*
X525208D02*
X526362D01*
X481658Y452379D02*
X482487D01*
X525452D02*
X526443D01*
X481577Y452461D02*
X482325D01*
X525615D02*
X526443D01*
X481577Y452542D02*
X482243D01*
X525777D02*
X526524D01*
X481496Y452623D02*
X482162D01*
X525858D02*
X526606D01*
X481415Y452704D02*
X482081D01*
X525940D02*
X526606D01*
X481415Y452786D02*
X481999D01*
X526021D02*
X526687D01*
X481415Y452867D02*
X481999D01*
X526102D02*
X526768D01*
X481333Y452948D02*
X481918D01*
X526183D02*
X526768D01*
X481333Y453029D02*
X481918D01*
X526183D02*
X526768D01*
X481333Y453111D02*
X481837D01*
X526264D02*
X526850D01*
X481333Y453192D02*
X481837D01*
X526264D02*
X526850D01*
X481252Y453273D02*
X481837D01*
X526346D02*
X526850D01*
X481252Y453354D02*
X481837D01*
X526346D02*
X526850D01*
X481252Y453436D02*
X481756D01*
X526346D02*
X526850D01*
X481252Y453517D02*
X481756D01*
X526346D02*
X526931D01*
X481252Y453598D02*
X481756D01*
X526346D02*
X526931D01*
X481252Y453679D02*
X481756D01*
X526346D02*
X526931D01*
X481252Y453761D02*
X481756D01*
X526346D02*
X526931D01*
X481252Y453842D02*
X481756D01*
X526346D02*
X526931D01*
X481252Y453923D02*
X481837D01*
X526346D02*
X526931D01*
X481252Y454004D02*
X481837D01*
X526346D02*
X526850D01*
X481252Y454086D02*
X481837D01*
X526346D02*
X526850D01*
X481333Y454167D02*
X481837D01*
X526346D02*
X526850D01*
X481333Y454248D02*
X481837D01*
X526264D02*
X526850D01*
X481333Y454329D02*
X481918D01*
X526264D02*
X526850D01*
X481333Y454411D02*
X481918D01*
X526264D02*
X526768D01*
X481415Y454492D02*
X481918D01*
X526183D02*
X526768D01*
X481415Y454573D02*
X481999D01*
X526183D02*
X526768D01*
X481415Y454654D02*
X481999D01*
X526102D02*
X526687D01*
X481496Y454736D02*
X482081D01*
X526102D02*
X526687D01*
X481496Y454817D02*
X482081D01*
X526021D02*
X526606D01*
X481496Y454898D02*
X482162D01*
X525940D02*
X526606D01*
X481577Y454979D02*
X482162D01*
X525858D02*
X526524D01*
X481577Y455061D02*
X482243D01*
X525858D02*
X526524D01*
X481658Y455142D02*
X482325D01*
X525777D02*
X526443D01*
X481658Y455223D02*
X482325D01*
X525777D02*
X526443D01*
X481740Y455304D02*
X482406D01*
X525696D02*
X526362D01*
X481821Y455386D02*
X482406D01*
X525696D02*
X526281D01*
X481821Y455467D02*
X482487D01*
X525615D02*
X526281D01*
X481902Y455548D02*
X482568D01*
X525533D02*
X526199D01*
X481902Y455629D02*
X482568D01*
X525533D02*
X526199D01*
X481983Y455711D02*
X482650D01*
X525452D02*
X526118D01*
X482064Y455792D02*
X482650D01*
X525452D02*
X526037D01*
X482064Y455873D02*
X482731D01*
X525371D02*
X526037D01*
X482146Y455954D02*
X482812D01*
X525289D02*
X525956D01*
X482146Y456036D02*
X482812D01*
X525289D02*
X525956D01*
X482227Y456117D02*
X482893D01*
X525208D02*
X525875D01*
X482308Y456198D02*
X482893D01*
X525208D02*
X525793D01*
X482308Y456279D02*
X482974D01*
X525127D02*
X525793D01*
X482389Y456361D02*
X483056D01*
X525046D02*
X525712D01*
X482389Y456442D02*
X483056D01*
X525046D02*
X525712D01*
X482471Y456523D02*
X483137D01*
X488402D02*
X515556D01*
X524965D02*
X525631D01*
X482552Y456604D02*
X483137D01*
X488402D02*
X519862D01*
X524965D02*
X525550D01*
X482552Y456686D02*
X483218D01*
X488483D02*
X519862D01*
X524883D02*
X525550D01*
X482633Y456767D02*
X483218D01*
X488483D02*
X519781D01*
X524802D02*
X525468D01*
X482633Y456848D02*
X483299D01*
X488564D02*
X519781D01*
X524802D02*
X525468D01*
X482715Y456929D02*
X483381D01*
X488564D02*
X519699D01*
X524721D02*
X525387D01*
X482796Y457011D02*
X483381D01*
X488646D02*
X519699D01*
X524721D02*
X525306D01*
X482796Y457092D02*
X483462D01*
X488727D02*
X519618D01*
X524640D02*
X525306D01*
X482877Y457173D02*
X483462D01*
X488727D02*
X519537D01*
X524558D02*
X525224D01*
X482877Y457254D02*
X483543D01*
X488808D02*
X519537D01*
X524558D02*
X525143D01*
X482958Y457336D02*
X483625D01*
X488808D02*
X519456D01*
X524477D02*
X525143D01*
X483040Y457417D02*
X483625D01*
X488890D02*
X519456D01*
X524477D02*
X525062D01*
X483040Y457498D02*
X483706D01*
X488890D02*
X519375D01*
X524396D02*
X525062D01*
X483121Y457579D02*
X483706D01*
X488971D02*
X519293D01*
X524314D02*
X524981D01*
X483121Y457661D02*
X483787D01*
X489052D02*
X519293D01*
X524314D02*
X524899D01*
X483202Y457742D02*
X483868D01*
X489052D02*
X519212D01*
X524233D02*
X524899D01*
X483283Y457823D02*
X483868D01*
X489133D02*
X519212D01*
X524152D02*
X524818D01*
X483283Y457904D02*
X483950D01*
X489133D02*
X519131D01*
X524152D02*
X524818D01*
X483364Y457986D02*
X483950D01*
X489215D02*
X502312D01*
X502458D02*
X519131D01*
X524071D02*
X524737D01*
X483364Y458067D02*
X484031D01*
X489215D02*
X502312D01*
X502539D02*
X519050D01*
X524071D02*
X524656D01*
X483446Y458148D02*
X484112D01*
X489296D02*
X502312D01*
X502621D02*
X518968D01*
X523989D02*
X524656D01*
X483527Y458229D02*
X484112D01*
X489377D02*
X502312D01*
X502702D02*
X518968D01*
X523908D02*
X524575D01*
X483527Y458311D02*
X484193D01*
X489377D02*
X502231D01*
X502783D02*
X518887D01*
X523908D02*
X524575D01*
X483608Y458392D02*
X484193D01*
X489458D02*
X502231D01*
X502783D02*
X518887D01*
X523827D02*
X524493D01*
X483608Y458473D02*
X484274D01*
X489458D02*
X502231D01*
X508227D02*
X518806D01*
X523827D02*
X524412D01*
X483689Y458554D02*
X484356D01*
X489539D02*
X502231D01*
X502946D02*
X518806D01*
X523746D02*
X524412D01*
X483771Y458636D02*
X484356D01*
X489621D02*
X502231D01*
X503027D02*
X518724D01*
X523665D02*
X524331D01*
X483771Y458717D02*
X484437D01*
X489621D02*
X502231D01*
X503108D02*
X518643D01*
X523665D02*
X524331D01*
X483852Y458798D02*
X484437D01*
X489702D02*
X502149D01*
X503190D02*
X518643D01*
X523583D02*
X524250D01*
X483852Y458879D02*
X484518D01*
X489702D02*
X502149D01*
X503271D02*
X518562D01*
X523583D02*
X524168D01*
X483933Y458961D02*
X484599D01*
X489783D02*
X502149D01*
X503271D02*
X518562D01*
X523502D02*
X524168D01*
X484015Y459042D02*
X484599D01*
X489783D02*
X502149D01*
X503352D02*
X518481D01*
X523421D02*
X524087D01*
X484015Y459123D02*
X484681D01*
X489864D02*
X502149D01*
X503433D02*
X518399D01*
X523421D02*
X524087D01*
X484096Y459204D02*
X484681D01*
X489946D02*
X502149D01*
X503514D02*
X518399D01*
X523340D02*
X524006D01*
X484096Y459286D02*
X484762D01*
X489946D02*
X502068D01*
X503596D02*
X518318D01*
X523340D02*
X523924D01*
X484177Y459367D02*
X484843D01*
X490027D02*
X502068D01*
X503677D02*
X518318D01*
X523258D02*
X523924D01*
X484177Y459448D02*
X484843D01*
X490027D02*
X502068D01*
X503677D02*
X518237D01*
X523177D02*
X523843D01*
X484258Y459529D02*
X484925D01*
X490108D02*
X502068D01*
X503758D02*
X518237D01*
X523177D02*
X523843D01*
X484340Y459611D02*
X484925D01*
X490108D02*
X502068D01*
X503839D02*
X518156D01*
X523096D02*
X523762D01*
X484340Y459692D02*
X485006D01*
X490190D02*
X502068D01*
X503921D02*
X518075D01*
X523096D02*
X523681D01*
X484421Y459773D02*
X485087D01*
X490271D02*
X501987D01*
X504002D02*
X518075D01*
X523014D02*
X523681D01*
X484421Y459854D02*
X485087D01*
X490271D02*
X501987D01*
X504083D02*
X517993D01*
X522933D02*
X523599D01*
X484502Y459936D02*
X485168D01*
X490352D02*
X501987D01*
X504165D02*
X517993D01*
X522933D02*
X523518D01*
X484583Y460017D02*
X485168D01*
X490352D02*
X501987D01*
X504165D02*
X517912D01*
X522852D02*
X523518D01*
X484583Y460098D02*
X485250D01*
X490433D02*
X501987D01*
X504246D02*
X517831D01*
X522852D02*
X523437D01*
X484664Y460179D02*
X485331D01*
X490433D02*
X501987D01*
X504327D02*
X517831D01*
X522771D02*
X523437D01*
X484664Y460261D02*
X485331D01*
X490515D02*
X501906D01*
X504408D02*
X517750D01*
X522689D02*
X523356D01*
X484746Y460342D02*
X485412D01*
X490596D02*
X501906D01*
X504490D02*
X517750D01*
X522689D02*
X523275D01*
X484827Y460423D02*
X485412D01*
X490596D02*
X501906D01*
X504571D02*
X517668D01*
X522608D02*
X523275D01*
X484827Y460504D02*
X485493D01*
X490677D02*
X501906D01*
X504652D02*
X517668D01*
X522527D02*
X523193D01*
X484908Y460586D02*
X485574D01*
X490677D02*
X501906D01*
X504652D02*
X517587D01*
X522527D02*
X523193D01*
X484908Y460667D02*
X485574D01*
X490758D02*
X501906D01*
X504733D02*
X517506D01*
X522446D02*
X523112D01*
X484990Y460748D02*
X485656D01*
X490758D02*
X501906D01*
X504814D02*
X517506D01*
X522446D02*
X523031D01*
X485071Y460829D02*
X485656D01*
X490839D02*
X501825D01*
X503514D02*
X503774D01*
X504896D02*
X517424D01*
X522365D02*
X523031D01*
X485071Y460911D02*
X485737D01*
X490921D02*
X501825D01*
X502865D02*
X502962D01*
X503596D02*
X504181D01*
X504977D02*
X517424D01*
X522283D02*
X522950D01*
X485152Y460992D02*
X485818D01*
X490921D02*
X501825D01*
X502783D02*
X502962D01*
X503596D02*
X504506D01*
X508227D02*
X517343D01*
X522283D02*
X522950D01*
X485152Y461073D02*
X485818D01*
X491002D02*
X501825D01*
X502621D02*
X502962D01*
X503596D02*
X504831D01*
X505058D02*
X517262D01*
X522202D02*
X522868D01*
X485233Y461154D02*
X485899D01*
X491002D02*
X501825D01*
X502539D02*
X503043D01*
X503677D02*
X517262D01*
X522202D02*
X522787D01*
X485315Y461236D02*
X485899D01*
X491083D02*
X501825D01*
X502458D02*
X503043D01*
X503677D02*
X517181D01*
X522121D02*
X522787D01*
X485315Y461317D02*
X485981D01*
X491083D02*
X501743D01*
X502377D02*
X503043D01*
X503758D02*
X517181D01*
X522040D02*
X522706D01*
X485396Y461398D02*
X486062D01*
X491164D02*
X501743D01*
X502214D02*
X503043D01*
X503758D02*
X517100D01*
X522040D02*
X522706D01*
X485396Y461479D02*
X486062D01*
X491246D02*
X501743D01*
X502133D02*
X503125D01*
X503839D02*
X517100D01*
X521958D02*
X522624D01*
X485477Y461561D02*
X486143D01*
X491246D02*
X501743D01*
X502052D02*
X503125D01*
X503839D02*
X517018D01*
X521958D02*
X522543D01*
X485558Y461642D02*
X486143D01*
X491327D02*
X501743D01*
X501890D02*
X503125D01*
X503921D02*
X516937D01*
X521877D02*
X522543D01*
X485558Y461723D02*
X486225D01*
X491327D02*
X503125D01*
X503921D02*
X516937D01*
X521796D02*
X522462D01*
X485639Y461804D02*
X486306D01*
X491408D02*
X503206D01*
X504002D02*
X516856D01*
X521796D02*
X522462D01*
X485639Y461886D02*
X486306D01*
X491408D02*
X503206D01*
X504002D02*
X516856D01*
X521714D02*
X522381D01*
X485721Y461967D02*
X486387D01*
X491490D02*
X503206D01*
X504083D02*
X516775D01*
X521714D02*
X522299D01*
X485802Y462048D02*
X486387D01*
X491571D02*
X503206D01*
X504083D02*
X516775D01*
X521633D02*
X522299D01*
X485802Y462129D02*
X486468D01*
X491571D02*
X503287D01*
X504165D02*
X516693D01*
X521552D02*
X522218D01*
X485883Y462211D02*
X486550D01*
X491652D02*
X503287D01*
X504165D02*
X516612D01*
X521552D02*
X522218D01*
X485883Y462292D02*
X486550D01*
X491652D02*
X503287D01*
X504165D02*
X516612D01*
X521471D02*
X522137D01*
X485964Y462373D02*
X486631D01*
X491733D02*
X503368D01*
X504246D02*
X516531D01*
X521471D02*
X522056D01*
X486046Y462454D02*
X486631D01*
X491733D02*
X503368D01*
X504246D02*
X516531D01*
X521389D02*
X522056D01*
X486046Y462536D02*
X486712D01*
X491815D02*
X503368D01*
X504327D02*
X516449D01*
X521308D02*
X521975D01*
X486127Y462617D02*
X486793D01*
X491896D02*
X503368D01*
X504327D02*
X516368D01*
X521308D02*
X521893D01*
X486127Y462698D02*
X486793D01*
X491896D02*
X503449D01*
X504408D02*
X516368D01*
X521227D02*
X521893D01*
X486208Y462779D02*
X486874D01*
X491977D02*
X503449D01*
X504408D02*
X516287D01*
X521227D02*
X521812D01*
X486290Y462861D02*
X486874D01*
X491977D02*
X503449D01*
X504490D02*
X516287D01*
X521146D02*
X521812D01*
X486290Y462942D02*
X486956D01*
X492058D02*
X503449D01*
X504490D02*
X516206D01*
X521065D02*
X521731D01*
X486371Y463023D02*
X487037D01*
X492058D02*
X503531D01*
X504571D02*
X516206D01*
X521065D02*
X521650D01*
X486371Y463104D02*
X487037D01*
X492139D02*
X503531D01*
X504571D02*
X516124D01*
X520983D02*
X521650D01*
X486452Y463186D02*
X487118D01*
X492221D02*
X503531D01*
X504652D02*
X516043D01*
X520902D02*
X521568D01*
X486533Y463267D02*
X487118D01*
X492221D02*
X503612D01*
X504652D02*
X516043D01*
X520902D02*
X521568D01*
X486533Y463348D02*
X487199D01*
X492302D02*
X503612D01*
X504733D02*
X515962D01*
X520821D02*
X521487D01*
X486615Y463429D02*
X487199D01*
X492302D02*
X503612D01*
X504733D02*
X515962D01*
X520821D02*
X521406D01*
X486615Y463511D02*
X487281D01*
X492383D02*
X503612D01*
X504733D02*
X515881D01*
X520740D02*
X521406D01*
X486696Y463592D02*
X487362D01*
X492383D02*
X503693D01*
X504814D02*
X515800D01*
X520658D02*
X521324D01*
X486777Y463673D02*
X487362D01*
X492464D02*
X503693D01*
X504814D02*
X515800D01*
X520658D02*
X521324D01*
X486777Y463754D02*
X487443D01*
X492546D02*
X503693D01*
X504896D02*
X515718D01*
X520577D02*
X521243D01*
X486858Y463836D02*
X487443D01*
X492546D02*
X503693D01*
X504896D02*
X515718D01*
X520577D02*
X521162D01*
X486858Y463917D02*
X487525D01*
X492627D02*
X503774D01*
X504977D02*
X515637D01*
X520496D02*
X521162D01*
X486939Y463998D02*
X487606D01*
X492627D02*
X503774D01*
X504977D02*
X515637D01*
X520414D02*
X521081D01*
X487021Y464079D02*
X487606D01*
X492708D02*
X503774D01*
X505058D02*
X515556D01*
X520414D02*
X521081D01*
X487021Y464161D02*
X487687D01*
X492708D02*
X503774D01*
X505058D02*
X515475D01*
X520333D02*
X520999D01*
X487102Y464242D02*
X487687D01*
X492790D02*
X503856D01*
X505139D02*
X515475D01*
X520333D02*
X520918D01*
X487102Y464323D02*
X487768D01*
X492871D02*
X503856D01*
X505139D02*
X515393D01*
X520252D02*
X520918D01*
X487183Y464404D02*
X487850D01*
X492871D02*
X503856D01*
X505221D02*
X515393D01*
X520171D02*
X520837D01*
X487264Y464486D02*
X487850D01*
X492952D02*
X503937D01*
X505221D02*
X515312D01*
X520171D02*
X520837D01*
X487264Y464567D02*
X487931D01*
X492952D02*
X503937D01*
X505221D02*
X515312D01*
X520089D02*
X520756D01*
X487346Y464648D02*
X487931D01*
X493033D02*
X503937D01*
X505302D02*
X515231D01*
X520089D02*
X520675D01*
X487346Y464729D02*
X488012D01*
X493033D02*
X503937D01*
X505302D02*
X515149D01*
X520008D02*
X520675D01*
X487427Y464811D02*
X488093D01*
X493115D02*
X504018D01*
X505383D02*
X515149D01*
X519927D02*
X520593D01*
X487508Y464892D02*
X488093D01*
X493196D02*
X504018D01*
X505383D02*
X515068D01*
X519927D02*
X520593D01*
X487508Y464973D02*
X488174D01*
X493196D02*
X504018D01*
X505465D02*
X515068D01*
X519846D02*
X520512D01*
X487590Y465054D02*
X488174D01*
X493277D02*
X504018D01*
X505465D02*
X514987D01*
X519846D02*
X520431D01*
X487590Y465136D02*
X488256D01*
X493277D02*
X497762D01*
X497990D02*
X504100D01*
X505546D02*
X514906D01*
X519765D02*
X520431D01*
X487671Y465217D02*
X488337D01*
X493358D02*
X497762D01*
X498233D02*
X504100D01*
X505546D02*
X514906D01*
X519683D02*
X520350D01*
X487752Y465298D02*
X488337D01*
X493358D02*
X497762D01*
X498477D02*
X504100D01*
X505627D02*
X514824D01*
X519683D02*
X520268D01*
X487752Y465379D02*
X488418D01*
X493439D02*
X497843D01*
X498721D02*
X504181D01*
X505627D02*
X514824D01*
X519602D02*
X520268D01*
X487833Y465461D02*
X488418D01*
X493521D02*
X497843D01*
X498965D02*
X504181D01*
X505708D02*
X514743D01*
X519602D02*
X520187D01*
X487833Y465542D02*
X488499D01*
X493521D02*
X497925D01*
X499208D02*
X504181D01*
X505708D02*
X514743D01*
X519521D02*
X520187D01*
X487915Y465623D02*
X488581D01*
X493602D02*
X497925D01*
X499452D02*
X504181D01*
X505790D02*
X514662D01*
X519440D02*
X520106D01*
X487915Y465704D02*
X488581D01*
X493602D02*
X498006D01*
X499696D02*
X504262D01*
X505790D02*
X514581D01*
X519440D02*
X520024D01*
X487996Y465786D02*
X488662D01*
X493683D02*
X498006D01*
X499939D02*
X504262D01*
X505790D02*
X514581D01*
X519358D02*
X520024D01*
X488077Y465867D02*
X488662D01*
X493683D02*
X498006D01*
X500183D02*
X504262D01*
X505871D02*
X514500D01*
X519277D02*
X519943D01*
X488077Y465948D02*
X488743D01*
X493764D02*
X498087D01*
X500427D02*
X504262D01*
X505871D02*
X514500D01*
X519277D02*
X519943D01*
X488158Y466029D02*
X488825D01*
X493846D02*
X498087D01*
X500590D02*
X504343D01*
X505952D02*
X514418D01*
X519196D02*
X519862D01*
X488158Y466111D02*
X488825D01*
X493846D02*
X498168D01*
X500833D02*
X504343D01*
X505952D02*
X514337D01*
X519196D02*
X519781D01*
X488239Y466192D02*
X488906D01*
X493927D02*
X498168D01*
X501077D02*
X504343D01*
X506033D02*
X514337D01*
X519114D02*
X519781D01*
X488321Y466273D02*
X488906D01*
X493927D02*
X498168D01*
X501321D02*
X504343D01*
X506033D02*
X514256D01*
X519033D02*
X519699D01*
X488321Y466354D02*
X488987D01*
X494008D02*
X498249D01*
X501565D02*
X504424D01*
X506114D02*
X514256D01*
X519033D02*
X519699D01*
X488402Y466436D02*
X489068D01*
X494008D02*
X498249D01*
X501808D02*
X504424D01*
X506114D02*
X514175D01*
X518952D02*
X519618D01*
X488402Y466517D02*
X489068D01*
X494090D02*
X498331D01*
X502052D02*
X504424D01*
X506196D02*
X514175D01*
X518952D02*
X519537D01*
X488483Y466598D02*
X489150D01*
X494171D02*
X498331D01*
X502296D02*
X504506D01*
X506196D02*
X514093D01*
X518871D02*
X519537D01*
X488564Y466679D02*
X489150D01*
X494171D02*
X498331D01*
X502539D02*
X504506D01*
X506277D02*
X514012D01*
X518789D02*
X519456D01*
X488564Y466761D02*
X489231D01*
X494252D02*
X498412D01*
X502783D02*
X504506D01*
X506277D02*
X514012D01*
X518789D02*
X519456D01*
X488646Y466842D02*
X489312D01*
X494252D02*
X498412D01*
X503027D02*
X504506D01*
X506358D02*
X513931D01*
X518708D02*
X519375D01*
X488646Y466923D02*
X489312D01*
X494333D02*
X498493D01*
X503271D02*
X504587D01*
X506358D02*
X513931D01*
X518708D02*
X519293D01*
X488727Y467004D02*
X489393D01*
X494333D02*
X498493D01*
X503514D02*
X504587D01*
X506358D02*
X513849D01*
X518627D02*
X519293D01*
X488808Y467086D02*
X489393D01*
X494415D02*
X498493D01*
X503758D02*
X504587D01*
X506439D02*
X513768D01*
X518546D02*
X519212D01*
X488808Y467167D02*
X489474D01*
X494496D02*
X498574D01*
X504002D02*
X504587D01*
X506439D02*
X513768D01*
X518546D02*
X519212D01*
X488890Y467248D02*
X489556D01*
X494496D02*
X498574D01*
X504246D02*
X504668D01*
X506521D02*
X513687D01*
X518465D02*
X519131D01*
X488890Y467329D02*
X489556D01*
X494577D02*
X498656D01*
X500183D02*
X500281D01*
X504408D02*
X504668D01*
X506521D02*
X513606D01*
X518465D02*
X519050D01*
X488971Y467411D02*
X489637D01*
X494577D02*
X498656D01*
X500183D02*
X500525D01*
X504652D02*
X504668D01*
X506602D02*
X513606D01*
X518383D02*
X519050D01*
X489052Y467492D02*
X489637D01*
X494658D02*
X498737D01*
X500265D02*
X500768D01*
X506602D02*
X513524D01*
X518302D02*
X518968D01*
X489052Y467573D02*
X489718D01*
X494658D02*
X498737D01*
X500346D02*
X501012D01*
X506683D02*
X513524D01*
X518302D02*
X518968D01*
X489133Y467654D02*
X489799D01*
X494739D02*
X498737D01*
X500346D02*
X501337D01*
X506683D02*
X513443D01*
X518221D02*
X518887D01*
X489133Y467736D02*
X489799D01*
X494821D02*
X498818D01*
X500427D02*
X501581D01*
X506765D02*
X513362D01*
X518221D02*
X518806D01*
X489215Y467817D02*
X489881D01*
X494821D02*
X498818D01*
X500427D02*
X501825D01*
X506765D02*
X513362D01*
X518140D02*
X518806D01*
X489296Y467898D02*
X489881D01*
X494902D02*
X498900D01*
X500508D02*
X502068D01*
X506846D02*
X513281D01*
X518058D02*
X518724D01*
X489296Y467979D02*
X489962D01*
X494902D02*
X498900D01*
X500508D02*
X502393D01*
X506846D02*
X513281D01*
X518058D02*
X518643D01*
X489377Y468061D02*
X490043D01*
X494983D02*
X498900D01*
X500590D02*
X502637D01*
X506927D02*
X513200D01*
X517977D02*
X518643D01*
X489377Y468142D02*
X490043D01*
X494983D02*
X498981D01*
X500590D02*
X502881D01*
X506927D02*
X513118D01*
X517977D02*
X518562D01*
X489458Y468223D02*
X490125D01*
X495064D02*
X498981D01*
X500671D02*
X503125D01*
X506927D02*
X513118D01*
X517896D02*
X518562D01*
X489539Y468304D02*
X490125D01*
X495146D02*
X499062D01*
X500671D02*
X503368D01*
X507008D02*
X513037D01*
X517814D02*
X518481D01*
X489539Y468386D02*
X490206D01*
X495146D02*
X499062D01*
X500752D02*
X503693D01*
X507008D02*
X513037D01*
X517814D02*
X518399D01*
X489621Y468467D02*
X490287D01*
X495227D02*
X499062D01*
X500752D02*
X503937D01*
X507090D02*
X512956D01*
X517733D02*
X518399D01*
X489621Y468548D02*
X490287D01*
X495227D02*
X499143D01*
X500833D02*
X504181D01*
X507090D02*
X512875D01*
X517652D02*
X518318D01*
X489702Y468629D02*
X490368D01*
X495308D02*
X499143D01*
X500833D02*
X504424D01*
X507171D02*
X512875D01*
X517652D02*
X518318D01*
X489783Y468711D02*
X490368D01*
X495308D02*
X499225D01*
X500914D02*
X504749D01*
X507171D02*
X512793D01*
X517571D02*
X518237D01*
X489783Y468792D02*
X490449D01*
X495390D02*
X499225D01*
X500914D02*
X504993D01*
X507252D02*
X512793D01*
X517571D02*
X518156D01*
X489864Y468873D02*
X490531D01*
X495471D02*
X499225D01*
X500996D02*
X505237D01*
X507252D02*
X512712D01*
X517489D02*
X518156D01*
X489864Y468954D02*
X490531D01*
X495471D02*
X499306D01*
X501077D02*
X505481D01*
X507333D02*
X512631D01*
X517408D02*
X518075D01*
X489946Y469036D02*
X490612D01*
X495552D02*
X499306D01*
X501077D02*
X505806D01*
X507333D02*
X512631D01*
X517408D02*
X518075D01*
X490027Y469117D02*
X490612D01*
X495552D02*
X499387D01*
X501158D02*
X506049D01*
X507414D02*
X512549D01*
X517327D02*
X517993D01*
X490027Y469198D02*
X490693D01*
X495633D02*
X499387D01*
X501158D02*
X506293D01*
X507414D02*
X512549D01*
X517327D02*
X517912D01*
X490108Y469279D02*
X490774D01*
X495633D02*
X499468D01*
X501239D02*
X506537D01*
X507496D02*
X512468D01*
X517246D02*
X517912D01*
X490108Y469361D02*
X490774D01*
X495715D02*
X499468D01*
X501239D02*
X506781D01*
X507496D02*
X512387D01*
X517165D02*
X517831D01*
X490190Y469442D02*
X490856D01*
X495796D02*
X499468D01*
X501321D02*
X507106D01*
X507496D02*
X512387D01*
X517165D02*
X517831D01*
X490271Y469523D02*
X490856D01*
X495796D02*
X499549D01*
X501321D02*
X507349D01*
X507577D02*
X512306D01*
X517083D02*
X517750D01*
X490271Y469604D02*
X490937D01*
X495877D02*
X499549D01*
X501402D02*
X512306D01*
X517083D02*
X517668D01*
X490352Y469686D02*
X490937D01*
X495877D02*
X499631D01*
X501402D02*
X512224D01*
X517002D02*
X517668D01*
X490352Y469767D02*
X491018D01*
X495958D02*
X499631D01*
X501483D02*
X512143D01*
X516921D02*
X517587D01*
X490433Y469848D02*
X491100D01*
X495958D02*
X499631D01*
X501483D02*
X512143D01*
X516921D02*
X517587D01*
X490515Y469929D02*
X491100D01*
X496039D02*
X499712D01*
X501565D02*
X512062D01*
X516840D02*
X517506D01*
X490515Y470011D02*
X491181D01*
X496121D02*
X499712D01*
X501565D02*
X511981D01*
X516840D02*
X517424D01*
X490596Y470092D02*
X491181D01*
X496121D02*
X499793D01*
X501646D02*
X511981D01*
X516758D02*
X517424D01*
X490596Y470173D02*
X491262D01*
X496202D02*
X499793D01*
X501727D02*
X511900D01*
X516677D02*
X517343D01*
X490677Y470254D02*
X491343D01*
X496202D02*
X499793D01*
X501727D02*
X511900D01*
X516677D02*
X517343D01*
X490758Y470336D02*
X491343D01*
X496283D02*
X499874D01*
X501808D02*
X511818D01*
X516596D02*
X517262D01*
X490758Y470417D02*
X491425D01*
X496283D02*
X499874D01*
X501808D02*
X511737D01*
X516596D02*
X517181D01*
X490839Y470498D02*
X491425D01*
X496364D02*
X499956D01*
X501890D02*
X511737D01*
X516514D02*
X517181D01*
X490839Y470579D02*
X491506D01*
X496446D02*
X499956D01*
X501890D02*
X511656D01*
X516433D02*
X517100D01*
X490921Y470661D02*
X491587D01*
X496446D02*
X499956D01*
X501971D02*
X511656D01*
X516433D02*
X517018D01*
X491002Y470742D02*
X491587D01*
X496527D02*
X500037D01*
X501971D02*
X511575D01*
X516352D02*
X517018D01*
X491002Y470823D02*
X491668D01*
X496527D02*
X500037D01*
X502052D02*
X511493D01*
X516352D02*
X516937D01*
X491083Y470904D02*
X491668D01*
X496608D02*
X500118D01*
X502052D02*
X511493D01*
X516271D02*
X516937D01*
X491083Y470986D02*
X491749D01*
X496608D02*
X500118D01*
X502133D02*
X511412D01*
X516189D02*
X516856D01*
X491164Y471067D02*
X491831D01*
X496690D02*
X500200D01*
X502133D02*
X511412D01*
X516189D02*
X516775D01*
X491246Y471148D02*
X491831D01*
X496771D02*
X500200D01*
X502214D02*
X511331D01*
X516108D02*
X516775D01*
X491246Y471229D02*
X491912D01*
X496771D02*
X500200D01*
X502214D02*
X511249D01*
X516027D02*
X516693D01*
X491327Y471311D02*
X491912D01*
X496852D02*
X500281D01*
X502296D02*
X511249D01*
X516027D02*
X516693D01*
X491327Y471392D02*
X491993D01*
X496852D02*
X500281D01*
X502296D02*
X511168D01*
X515946D02*
X516612D01*
X491408Y471473D02*
X492074D01*
X496933D02*
X500362D01*
X502377D02*
X511168D01*
X515946D02*
X516531D01*
X491490Y471554D02*
X492074D01*
X496933D02*
X500362D01*
X502458D02*
X511087D01*
X515865D02*
X516531D01*
X491490Y471636D02*
X492156D01*
X497015D02*
X500362D01*
X502458D02*
X511006D01*
X515783D02*
X516449D01*
X491571Y471717D02*
X492156D01*
X497096D02*
X500443D01*
X502539D02*
X511006D01*
X515783D02*
X516449D01*
X491571Y471798D02*
X492237D01*
X497096D02*
X500443D01*
X502539D02*
X510924D01*
X515702D02*
X516368D01*
X491652Y471879D02*
X492318D01*
X497177D02*
X500525D01*
X502621D02*
X510924D01*
X515702D02*
X516287D01*
X491733Y471961D02*
X492318D01*
X497177D02*
X500525D01*
X502621D02*
X510843D01*
X515621D02*
X516287D01*
X491733Y472042D02*
X492400D01*
X497258D02*
X500525D01*
X502702D02*
X510762D01*
X515540D02*
X516206D01*
X491815Y472123D02*
X492400D01*
X497258D02*
X500606D01*
X502702D02*
X510762D01*
X515540D02*
X516206D01*
X491815Y472204D02*
X492481D01*
X497339D02*
X500606D01*
X502783D02*
X510681D01*
X515458D02*
X516124D01*
X491896Y472286D02*
X492562D01*
X497421D02*
X500687D01*
X502783D02*
X510600D01*
X515458D02*
X516043D01*
X491896Y472367D02*
X492562D01*
X497421D02*
X500687D01*
X502865D02*
X510600D01*
X515377D02*
X516043D01*
X491977Y472448D02*
X492643D01*
X497502D02*
X500687D01*
X502865D02*
X510518D01*
X515296D02*
X515962D01*
X492058Y472529D02*
X492643D01*
X497502D02*
X500768D01*
X502946D02*
X510518D01*
X515296D02*
X515962D01*
X492058Y472611D02*
X492725D01*
X497583D02*
X500768D01*
X502946D02*
X510437D01*
X515214D02*
X515881D01*
X492139Y472692D02*
X492806D01*
X497583D02*
X500849D01*
X503027D02*
X510356D01*
X515214D02*
X515800D01*
X492139Y472773D02*
X492806D01*
X497664D02*
X500849D01*
X503027D02*
X510356D01*
X515133D02*
X515800D01*
X492221Y472854D02*
X492887D01*
X497746D02*
X500931D01*
X503108D02*
X510275D01*
X515052D02*
X515718D01*
X492302Y472936D02*
X492887D01*
X497746D02*
X500931D01*
X503190D02*
X510275D01*
X515052D02*
X515718D01*
X492302Y473017D02*
X492968D01*
X497827D02*
X500931D01*
X503190D02*
X510193D01*
X514971D02*
X515637D01*
X492383Y473098D02*
X493049D01*
X497827D02*
X501012D01*
X503271D02*
X510112D01*
X514971D02*
X515556D01*
X492383Y473179D02*
X493049D01*
X497908D02*
X501012D01*
X503271D02*
X510112D01*
X514889D02*
X515556D01*
X492464Y473261D02*
X493131D01*
X497908D02*
X501093D01*
X503352D02*
X510031D01*
X514808D02*
X515475D01*
X492546Y473342D02*
X493131D01*
X497990D02*
X501093D01*
X503352D02*
X510031D01*
X514808D02*
X515393D01*
X492546Y473423D02*
X493212D01*
X498071D02*
X501093D01*
X503433D02*
X509949D01*
X514727D02*
X515393D01*
X492627Y473504D02*
X493293D01*
X498071D02*
X501174D01*
X503433D02*
X509868D01*
X514727D02*
X515312D01*
X492627Y473586D02*
X493293D01*
X498152D02*
X501174D01*
X503514D02*
X509868D01*
X514646D02*
X515312D01*
X492708Y473667D02*
X493374D01*
X498152D02*
X501256D01*
X503514D02*
X509787D01*
X514565D02*
X515231D01*
X492790Y473748D02*
X493374D01*
X498233D02*
X501256D01*
X503596D02*
X509787D01*
X514565D02*
X515149D01*
X492790Y473829D02*
X493456D01*
X498315D02*
X501256D01*
X503596D02*
X509706D01*
X514483D02*
X515149D01*
X492871Y473911D02*
X493537D01*
X498315D02*
X501337D01*
X503677D02*
X509624D01*
X514402D02*
X515068D01*
X492871Y473992D02*
X493537D01*
X498396D02*
X501337D01*
X503677D02*
X509624D01*
X514402D02*
X515068D01*
X492952Y474073D02*
X493618D01*
X498396D02*
X501418D01*
X503758D02*
X509543D01*
X514321D02*
X514987D01*
X493033Y474154D02*
X493618D01*
X498477D02*
X501418D01*
X503758D02*
X509543D01*
X514321D02*
X514906D01*
X493033Y474236D02*
X493700D01*
X498558D02*
X501418D01*
X503839D02*
X509462D01*
X514240D02*
X514906D01*
X493115Y474317D02*
X493781D01*
X498558D02*
X501500D01*
X503921D02*
X509381D01*
X514158D02*
X514824D01*
X493115Y474398D02*
X493781D01*
X498639D02*
X501500D01*
X503921D02*
X509381D01*
X514158D02*
X514824D01*
X493196Y474479D02*
X493862D01*
X498639D02*
X501581D01*
X504002D02*
X509300D01*
X514077D02*
X514743D01*
X493277Y474561D02*
X493862D01*
X498721D02*
X501581D01*
X504002D02*
X509300D01*
X514077D02*
X514662D01*
X493277Y474642D02*
X493943D01*
X498802D02*
X501581D01*
X504083D02*
X509218D01*
X513996D02*
X514662D01*
X493358Y474723D02*
X494025D01*
X498802D02*
X501662D01*
X504083D02*
X509137D01*
X513914D02*
X514581D01*
X493358Y474804D02*
X494025D01*
X498883D02*
X501662D01*
X504165D02*
X509137D01*
X513914D02*
X514581D01*
X493439Y474886D02*
X494106D01*
X498883D02*
X501743D01*
X504165D02*
X509056D01*
X513833D02*
X514500D01*
X493521Y474967D02*
X494106D01*
X498965D02*
X501743D01*
X504246D02*
X508975D01*
X513833D02*
X514418D01*
X493521Y475048D02*
X494187D01*
X499046D02*
X501825D01*
X504246D02*
X508975D01*
X513752D02*
X514418D01*
X493602Y475129D02*
X494268D01*
X499046D02*
X501825D01*
X504327D02*
X508893D01*
X513671D02*
X514337D01*
X493602Y475211D02*
X494268D01*
X499127D02*
X501825D01*
X504327D02*
X508893D01*
X513671D02*
X514337D01*
X493683Y475292D02*
X494349D01*
X499127D02*
X501906D01*
X504408D02*
X508812D01*
X513589D02*
X514256D01*
X493764Y475373D02*
X494349D01*
X499208D02*
X501906D01*
X504408D02*
X508731D01*
X513589D02*
X514175D01*
X493764Y475454D02*
X494431D01*
X499290D02*
X501987D01*
X504490D02*
X508731D01*
X513508D02*
X514175D01*
X493846Y475536D02*
X494512D01*
X499290D02*
X501987D01*
X504571D02*
X508649D01*
X513427D02*
X514093D01*
X493846Y475617D02*
X494512D01*
X499371D02*
X501987D01*
X504571D02*
X508649D01*
X513427D02*
X514093D01*
X493927Y475698D02*
X494593D01*
X499371D02*
X502068D01*
X504652D02*
X508568D01*
X513346D02*
X514012D01*
X494008Y475779D02*
X494593D01*
X499452D02*
X502068D01*
X504652D02*
X508487D01*
X513346D02*
X513931D01*
X494008Y475861D02*
X494674D01*
X499533D02*
X502149D01*
X504733D02*
X508487D01*
X513265D02*
X513931D01*
X494090Y475942D02*
X494756D01*
X499533D02*
X502149D01*
X504733D02*
X508406D01*
X513183D02*
X513849D01*
X494090Y476023D02*
X494756D01*
X499614D02*
X502149D01*
X504814D02*
X508406D01*
X513183D02*
X513768D01*
X494171Y476104D02*
X494837D01*
X499614D02*
X502231D01*
X504814D02*
X508324D01*
X513102D02*
X513768D01*
X494252Y476186D02*
X494837D01*
X499696D02*
X502231D01*
X504896D02*
X508243D01*
X513102D02*
X513687D01*
X494252Y476267D02*
X494918D01*
X499696D02*
X502312D01*
X504896D02*
X508243D01*
X513021D02*
X513687D01*
X494333Y476348D02*
X494918D01*
X499777D02*
X502312D01*
X504977D02*
X508162D01*
X512940D02*
X513606D01*
X494333Y476429D02*
X495000D01*
X499858D02*
X502312D01*
X504977D02*
X508162D01*
X512940D02*
X513524D01*
X494415Y476511D02*
X495081D01*
X499858D02*
X502393D01*
X505058D02*
X508081D01*
X512858D02*
X513524D01*
X494496Y476592D02*
X495081D01*
X499939D02*
X502393D01*
X505058D02*
X508000D01*
X512777D02*
X513443D01*
X494496Y476673D02*
X495162D01*
X499939D02*
X502474D01*
X505139D02*
X508000D01*
X512777D02*
X513443D01*
X494577Y476754D02*
X495162D01*
X500021D02*
X502474D01*
X505139D02*
X507918D01*
X512696D02*
X513362D01*
X494577Y476836D02*
X495243D01*
X500102D02*
X502556D01*
X505221D02*
X507918D01*
X512696D02*
X513281D01*
X494658Y476917D02*
X495325D01*
X500102D02*
X502556D01*
X505302D02*
X507837D01*
X512614D02*
X513281D01*
X494739Y476998D02*
X495325D01*
X500183D02*
X502556D01*
X505302D02*
X507756D01*
X512533D02*
X513200D01*
X494739Y477079D02*
X495406D01*
X500183D02*
X502637D01*
X505383D02*
X507756D01*
X512533D02*
X513200D01*
X494821Y477161D02*
X495406D01*
X500265D02*
X502637D01*
X505383D02*
X507675D01*
X512452D02*
X513118D01*
X494821Y477242D02*
X495487D01*
X500346D02*
X502718D01*
X505465D02*
X507593D01*
X512452D02*
X513037D01*
X494902Y477323D02*
X495568D01*
X500346D02*
X502800D01*
X505465D02*
X507593D01*
X512371D02*
X513037D01*
X494983Y477404D02*
X495568D01*
X500427D02*
X507512D01*
X512289D02*
X512956D01*
X494983Y477486D02*
X495649D01*
X500427D02*
X507512D01*
X512289D02*
X512956D01*
X495064Y477567D02*
X495649D01*
X500508D02*
X507431D01*
X512208D02*
X512875D01*
X495064Y477648D02*
X495731D01*
X500590D02*
X507349D01*
X512208D02*
X512793D01*
X495146Y477729D02*
X495812D01*
X500590D02*
X507349D01*
X512127D02*
X512793D01*
X495227Y477811D02*
X495812D01*
X500671D02*
X507268D01*
X512046D02*
X512712D01*
X495227Y477892D02*
X495893D01*
X500671D02*
X507268D01*
X512046D02*
X512712D01*
X495308Y477973D02*
X495893D01*
X500752D02*
X507187D01*
X511965D02*
X512631D01*
X495308Y478054D02*
X495974D01*
X500833D02*
X507106D01*
X511965D02*
X512549D01*
X495390Y478136D02*
X496056D01*
X500833D02*
X507106D01*
X511883D02*
X512549D01*
X495471Y478217D02*
X496056D01*
X500914D02*
X507024D01*
X511802D02*
X512468D01*
X495471Y478298D02*
X496137D01*
X500914D02*
X507024D01*
X511802D02*
X512468D01*
X495552Y478379D02*
X496137D01*
X500996D02*
X506943D01*
X511721D02*
X512387D01*
X495552Y478461D02*
X496218D01*
X501077D02*
X506862D01*
X511721D02*
X512306D01*
X495633Y478542D02*
X496300D01*
X501077D02*
X506862D01*
X511639D02*
X512306D01*
X495633Y478623D02*
X496300D01*
X501158D02*
X506781D01*
X511558D02*
X512224D01*
X495715Y478704D02*
X496381D01*
X501158D02*
X506781D01*
X511558D02*
X512143D01*
X495796Y478786D02*
X496381D01*
X501239D02*
X506700D01*
X511477D02*
X512143D01*
X495796Y478867D02*
X496462D01*
X501321D02*
X506618D01*
X511477D02*
X512062D01*
X495877Y478948D02*
X496543D01*
X501321D02*
X506618D01*
X511396D02*
X512062D01*
X495877Y479029D02*
X496543D01*
X501402D02*
X506537D01*
X511314D02*
X511981D01*
X495958Y479111D02*
X496625D01*
X501402D02*
X506537D01*
X511314D02*
X511900D01*
X496039Y479192D02*
X496625D01*
X501483D02*
X506456D01*
X511233D02*
X511900D01*
X496039Y479273D02*
X496706D01*
X501565D02*
X506375D01*
X511152D02*
X511818D01*
X496121Y479354D02*
X496787D01*
X501565D02*
X506375D01*
X511152D02*
X511818D01*
X496121Y479436D02*
X496787D01*
X501646D02*
X506293D01*
X511071D02*
X511737D01*
X496202Y479517D02*
X496868D01*
X501646D02*
X506293D01*
X511071D02*
X511656D01*
X496283Y479598D02*
X496868D01*
X501727D02*
X506212D01*
X510990D02*
X511656D01*
X496283Y479679D02*
X496949D01*
X501808D02*
X506131D01*
X510908D02*
X511575D01*
X496364Y479761D02*
X497031D01*
X501808D02*
X506131D01*
X510908D02*
X511575D01*
X496364Y479842D02*
X497031D01*
X501890D02*
X506049D01*
X510827D02*
X511493D01*
X496446Y479923D02*
X497112D01*
X501890D02*
X505968D01*
X510827D02*
X511412D01*
X496527Y480004D02*
X497112D01*
X501971D02*
X505968D01*
X510746D02*
X511412D01*
X496527Y480086D02*
X497193D01*
X502052D02*
X505887D01*
X510665D02*
X511331D01*
X496608Y480167D02*
X497274D01*
X502052D02*
X505887D01*
X510665D02*
X511331D01*
X496608Y480248D02*
X497274D01*
X502133D02*
X505806D01*
X510583D02*
X511249D01*
X496690Y480329D02*
X497356D01*
X502133D02*
X505724D01*
X510583D02*
X511168D01*
X496771Y480411D02*
X497356D01*
X502214D02*
X505724D01*
X510502D02*
X511168D01*
X496771Y480492D02*
X497437D01*
X502296D02*
X505643D01*
X510421D02*
X511087D01*
X496852Y480573D02*
X497518D01*
X502296D02*
X505643D01*
X510421D02*
X511087D01*
X496852Y480654D02*
X497518D01*
X502377D02*
X505562D01*
X510339D02*
X511006D01*
X496933Y480736D02*
X497600D01*
X502377D02*
X505481D01*
X510339D02*
X510924D01*
X497015Y480817D02*
X497600D01*
X502458D02*
X505481D01*
X510258D02*
X510924D01*
X497015Y480898D02*
X497681D01*
X502539D02*
X505400D01*
X510177D02*
X510843D01*
X497096Y480979D02*
X497762D01*
X502539D02*
X505400D01*
X510177D02*
X510843D01*
X497096Y481061D02*
X497762D01*
X502621D02*
X505318D01*
X510096D02*
X510762D01*
X497177Y481142D02*
X497843D01*
X502621D02*
X505237D01*
X510096D02*
X510681D01*
X497258Y481223D02*
X497843D01*
X502702D02*
X505237D01*
X510014D02*
X510681D01*
X497258Y481304D02*
X497925D01*
X502783D02*
X505156D01*
X509933D02*
X510600D01*
X497339Y481386D02*
X498006D01*
X502783D02*
X505156D01*
X509933D02*
X510518D01*
X497339Y481467D02*
X498006D01*
X502865D02*
X505075D01*
X509852D02*
X510518D01*
X497421Y481548D02*
X498087D01*
X502865D02*
X504993D01*
X509852D02*
X510437D01*
X497502Y481629D02*
X498087D01*
X502946D02*
X504993D01*
X509771D02*
X510437D01*
X497502Y481711D02*
X498168D01*
X503027D02*
X504912D01*
X509690D02*
X510356D01*
X497583Y481792D02*
X498249D01*
X503027D02*
X504912D01*
X509690D02*
X510275D01*
X497583Y481873D02*
X498249D01*
X503108D02*
X504831D01*
X509608D02*
X510275D01*
X497664Y481954D02*
X498331D01*
X503108D02*
X504749D01*
X509527D02*
X510193D01*
X497746Y482036D02*
X498331D01*
X503190D02*
X504749D01*
X509527D02*
X510193D01*
X497746Y482117D02*
X498412D01*
X503271D02*
X504668D01*
X509446D02*
X510112D01*
X497827Y482198D02*
X498493D01*
X503271D02*
X504587D01*
X509446D02*
X510031D01*
X497827Y482279D02*
X498493D01*
X503352D02*
X504587D01*
X509365D02*
X510031D01*
X497908Y482361D02*
X498574D01*
X503352D02*
X504506D01*
X509283D02*
X509949D01*
X497990Y482442D02*
X498574D01*
X503433D02*
X504506D01*
X509283D02*
X509949D01*
X497990Y482523D02*
X498656D01*
X503514D02*
X504424D01*
X509202D02*
X509868D01*
X498071Y482604D02*
X498656D01*
X503514D02*
X504343D01*
X509202D02*
X509787D01*
X498071Y482686D02*
X498737D01*
X503596D02*
X504343D01*
X509121D02*
X509787D01*
X498152Y482767D02*
X498818D01*
X503596D02*
X504262D01*
X509039D02*
X509706D01*
X498233Y482848D02*
X498818D01*
X503677D02*
X504262D01*
X509039D02*
X509706D01*
X498233Y482929D02*
X498900D01*
X503677D02*
X504181D01*
X508958D02*
X509624D01*
X498315Y483011D02*
X498900D01*
X503758D02*
X504100D01*
X508958D02*
X509543D01*
X498315Y483092D02*
X498981D01*
X503839D02*
X504100D01*
X508877D02*
X509543D01*
X498396Y483173D02*
X499062D01*
X503839D02*
X504018D01*
X508796D02*
X509462D01*
X498477Y483254D02*
X499062D01*
X503921D02*
X504018D01*
X508796D02*
X509462D01*
X498477Y483336D02*
X499143D01*
X503921D02*
X503937D01*
X508714D02*
X509381D01*
X498558Y483417D02*
X499143D01*
X508714D02*
X509300D01*
X498558Y483498D02*
X499225D01*
X508633D02*
X509300D01*
X498639Y483579D02*
X499306D01*
X508552D02*
X509218D01*
X498721Y483661D02*
X499306D01*
X508552D02*
X509218D01*
X498721Y483742D02*
X499387D01*
X508471D02*
X509137D01*
X498802Y483823D02*
X499387D01*
X508471D02*
X509056D01*
X498802Y483904D02*
X499468D01*
X508390D02*
X509056D01*
X498883Y483986D02*
X499549D01*
X508308D02*
X508975D01*
X498965Y484067D02*
X499549D01*
X508308D02*
X508893D01*
X498965Y484148D02*
X499631D01*
X508227D02*
X508893D01*
X499046Y484229D02*
X499631D01*
X508227D02*
X508812D01*
X499046Y484311D02*
X499712D01*
X508146D02*
X508812D01*
X499127Y484392D02*
X499793D01*
X508065D02*
X508731D01*
X499208Y484473D02*
X499793D01*
X508065D02*
X508649D01*
X499208Y484554D02*
X499874D01*
X507983D02*
X508649D01*
X499290Y484636D02*
X499874D01*
X507902D02*
X508568D01*
X499290Y484717D02*
X499956D01*
X507902D02*
X508568D01*
X499371Y484798D02*
X500037D01*
X507821D02*
X508487D01*
X499452Y484879D02*
X500037D01*
X507821D02*
X508406D01*
X499452Y484961D02*
X500118D01*
X507739D02*
X508406D01*
X499533Y485042D02*
X500118D01*
X507658D02*
X508324D01*
X499533Y485123D02*
X500200D01*
X507658D02*
X508324D01*
X499614Y485204D02*
X500281D01*
X507577D02*
X508243D01*
X499614Y485286D02*
X500281D01*
X507577D02*
X508162D01*
X499696Y485367D02*
X500362D01*
X507496D02*
X508162D01*
X499777Y485448D02*
X500362D01*
X507414D02*
X508081D01*
X499777Y485529D02*
X500443D01*
X507414D02*
X508081D01*
X499858Y485611D02*
X500525D01*
X507333D02*
X508000D01*
X499858Y485692D02*
X500525D01*
X507333D02*
X507918D01*
X499939Y485773D02*
X500606D01*
X507252D02*
X507918D01*
X500021Y485854D02*
X500606D01*
X507171D02*
X507837D01*
X500021Y485936D02*
X500687D01*
X507171D02*
X507837D01*
X500102Y486017D02*
X500768D01*
X507090D02*
X507756D01*
X500102Y486098D02*
X500768D01*
X507090D02*
X507675D01*
X500183Y486179D02*
X500849D01*
X507008D02*
X507675D01*
X500265Y486261D02*
X500849D01*
X506927D02*
X507593D01*
X500265Y486342D02*
X500931D01*
X506927D02*
X507593D01*
X500346Y486423D02*
X501012D01*
X506846D02*
X507512D01*
X500346Y486504D02*
X501012D01*
X506846D02*
X507431D01*
X500427Y486586D02*
X501093D01*
X506765D02*
X507431D01*
X500508Y486667D02*
X501093D01*
X506683D02*
X507349D01*
X500508Y486748D02*
X501174D01*
X506683D02*
X507349D01*
X500590Y486829D02*
X501256D01*
X506602D02*
X507268D01*
X500590Y486911D02*
X501256D01*
X506602D02*
X507187D01*
X500671Y486992D02*
X501337D01*
X506521D02*
X507187D01*
X500752Y487073D02*
X501337D01*
X506439D02*
X507106D01*
X500752Y487154D02*
X501418D01*
X506439D02*
X507024D01*
X500833Y487236D02*
X501500D01*
X506358D02*
X507024D01*
X500833Y487317D02*
X501500D01*
X506277D02*
X506943D01*
X500914Y487398D02*
X501581D01*
X506277D02*
X506943D01*
X500996Y487479D02*
X501581D01*
X506196D02*
X506862D01*
X500996Y487561D02*
X501662D01*
X506196D02*
X506781D01*
X501077Y487642D02*
X501743D01*
X506114D02*
X506781D01*
X501077Y487723D02*
X501743D01*
X506033D02*
X506700D01*
X501158Y487804D02*
X501825D01*
X506033D02*
X506700D01*
X501239Y487886D02*
X501825D01*
X505952D02*
X506618D01*
X501239Y487967D02*
X501906D01*
X505952D02*
X506537D01*
X501321Y488048D02*
X501987D01*
X505871D02*
X506537D01*
X501321Y488129D02*
X501987D01*
X505790D02*
X506456D01*
X501402Y488211D02*
X502068D01*
X505790D02*
X506456D01*
X501483Y488292D02*
X502149D01*
X505708D02*
X506375D01*
X501483Y488373D02*
X502149D01*
X505627D02*
X506293D01*
X501565Y488454D02*
X502231D01*
X505627D02*
X506293D01*
X501646Y488536D02*
X502312D01*
X505546D02*
X506212D01*
X501646Y488617D02*
X502393D01*
X505465D02*
X506131D01*
X501727Y488698D02*
X502474D01*
X505383D02*
X506131D01*
X501808Y488779D02*
X502556D01*
X505302D02*
X506049D01*
X501890Y488861D02*
X502637D01*
X505221D02*
X505968D01*
X501890Y488942D02*
X502718D01*
X505058D02*
X505887D01*
X501971Y489023D02*
X502881D01*
X504977D02*
X505806D01*
X502052Y489104D02*
X503043D01*
X504814D02*
X505724D01*
X502133Y489186D02*
X503206D01*
X504652D02*
X505643D01*
X502214Y489267D02*
X503368D01*
X504408D02*
X505562D01*
X502377Y489348D02*
X505481D01*
X502458Y489429D02*
X505400D01*
X502539Y489511D02*
X505237D01*
X502702Y489592D02*
X505156D01*
X502865Y489673D02*
X504993D01*
X503027Y489754D02*
X504831D01*
X503271Y489836D02*
X504587D01*
X503677Y489917D02*
X504100D01*
D50*
X506559Y594488D02*
X512559D01*
X542559D02*
X548559D01*
X512559Y589488D02*
Y599488D01*
Y589488D02*
X542559D01*
Y599488D01*
X512559D02*
X542559D01*
X506559Y574803D02*
X512559D01*
X542559D02*
X548559D01*
X512559Y569803D02*
Y579803D01*
Y569803D02*
X542559D01*
Y579803D01*
X512559D02*
X542559D01*
X605000Y450000D02*
X635000D01*
X605000D02*
Y460000D01*
X635000D01*
Y450000D02*
Y460000D01*
X599000Y455000D02*
X605000D01*
X635000D02*
X641000D01*
X589500Y438000D02*
X619500D01*
X589500D02*
Y448000D01*
X619500D01*
Y438000D02*
Y448000D01*
X583500Y443000D02*
X589500D01*
X619500D02*
X625500D01*
X542500Y517500D02*
X572500D01*
X542500D02*
Y527500D01*
X572500D01*
Y517500D02*
Y527500D01*
X536500Y522500D02*
X542500D01*
X572500D02*
X578500D01*
X542500Y477500D02*
X572500D01*
X542500D02*
Y487500D01*
X572500D01*
Y477500D02*
Y487500D01*
X536500Y482500D02*
X542500D01*
X572500D02*
X578500D01*
X605000Y477500D02*
X635000D01*
X605000D02*
Y487500D01*
X635000D01*
Y477500D02*
Y487500D01*
X599000Y482500D02*
X605000D01*
X635000D02*
X641000D01*
X542500Y497500D02*
X572500D01*
X542500D02*
Y507500D01*
X572500D01*
Y497500D02*
Y507500D01*
X536500Y502500D02*
X542500D01*
X572500D02*
X578500D01*
X605000Y497500D02*
X635000D01*
X605000D02*
Y507500D01*
X635000D01*
Y497500D02*
Y507500D01*
X599000Y502500D02*
X605000D01*
X635000D02*
X641000D01*
X605000Y517500D02*
X635000D01*
X605000D02*
Y527500D01*
X635000D01*
Y517500D02*
Y527500D01*
X599000Y522500D02*
X605000D01*
X635000D02*
X641000D01*
X634193Y428228D02*
X641693D01*
Y418228D02*
Y428228D01*
X461693Y418228D02*
X641693D01*
X461693D02*
Y428228D01*
X634193D01*
X420354Y474921D02*
Y634921D01*
X410354D02*
X420354D01*
X410354Y627421D02*
Y634921D01*
Y474921D02*
Y627421D01*
Y474921D02*
X420354D01*
X641772Y654449D02*
Y664449D01*
X501772D02*
X641772D01*
X501772Y654449D02*
Y664449D01*
Y654449D02*
X509272D01*
X641772D01*
X456500Y430311D02*
Y433750D01*
Y403250D02*
Y406689D01*
X452500D02*
Y430311D01*
X460500D01*
Y406689D02*
Y430311D01*
X452500Y406689D02*
X460500D01*
X517000Y639311D02*
Y642750D01*
Y612250D02*
Y615689D01*
X513000D02*
Y639311D01*
X521000D01*
Y615689D02*
Y639311D01*
X513000Y615689D02*
X521000D01*
D51*
X456500Y428355D02*
D03*
X517000Y637345D02*
D03*
M02*
