%FSLAX25Y25*%
%MOIN*%
G70*
G01*
G75*
G04 Layer_Color=2752767*
%ADD10C,0.04000*%
%ADD11C,0.00800*%
%ADD12C,0.01200*%
%ADD13C,0.09000*%
%ADD14R,0.07500X0.09000*%
%ADD15O,0.06000X0.07500*%
%ADD16O,0.07500X0.09000*%
%ADD17C,0.19685*%
%ADD18C,0.11811*%
%ADD19O,0.12000X0.13000*%
%ADD20C,0.07500*%
%ADD21R,0.07500X0.07500*%
%ADD22R,0.12000X0.13000*%
%ADD23O,0.09000X0.07500*%
%ADD24O,0.09000X0.06000*%
%ADD25R,0.09000X0.07500*%
%ADD26C,0.10000*%
%ADD27C,0.03600*%
%ADD28C,0.03000*%
%ADD29C,0.01600*%
%ADD30R,0.27559X0.35433*%
%ADD31R,0.19685X0.35433*%
%ADD32C,0.01000*%
%ADD33C,0.00400*%
%ADD34C,0.01400*%
%ADD35C,0.02000*%
%ADD36C,0.09800*%
%ADD37R,0.08300X0.09800*%
%ADD38O,0.06800X0.08300*%
%ADD39O,0.08300X0.09800*%
%ADD40C,0.20485*%
%ADD41C,0.12611*%
%ADD42O,0.12800X0.13800*%
%ADD43C,0.08300*%
%ADD44R,0.08300X0.08300*%
%ADD45R,0.12800X0.13800*%
%ADD46O,0.09800X0.08300*%
%ADD47O,0.09800X0.06800*%
%ADD48R,0.09800X0.08300*%
%ADD49C,0.10800*%
%ADD50C,0.00787*%
%ADD51R,0.07874X0.03937*%
%ADD52C,0.00500*%
%ADD53C,0.00667*%
D52*
X550559Y592488D02*
Y596488D01*
X554559D01*
Y592488D01*
X550559D01*
X500559D02*
Y596488D01*
X504559D01*
Y592488D01*
X500559D01*
X550559Y572803D02*
Y576803D01*
X554559D01*
Y572803D01*
X550559D01*
X500559D02*
Y576803D01*
X504559D01*
Y572803D01*
X500559D01*
X643000Y453000D02*
Y457000D01*
X647000D01*
Y453000D01*
X643000D01*
X593000D02*
Y457000D01*
X597000D01*
Y453000D01*
X593000D01*
X627500Y441000D02*
Y445000D01*
X631500D01*
Y441000D01*
X627500D01*
X577500D02*
Y445000D01*
X581500D01*
Y441000D01*
X577500D01*
X580500Y520500D02*
Y524500D01*
X584500D01*
Y520500D01*
X580500D01*
X530500D02*
Y524500D01*
X534500D01*
Y520500D01*
X530500D01*
X580500Y480500D02*
Y484500D01*
X584500D01*
Y480500D01*
X580500D01*
X530500D02*
Y484500D01*
X534500D01*
Y480500D01*
X530500D01*
X643000D02*
Y484500D01*
X647000D01*
Y480500D01*
X643000D01*
X593000D02*
Y484500D01*
X597000D01*
Y480500D01*
X593000D01*
X580500Y500500D02*
Y504500D01*
X584500D01*
Y500500D01*
X580500D01*
X530500D02*
Y504500D01*
X534500D01*
Y500500D01*
X530500D01*
X643000D02*
Y504500D01*
X647000D01*
Y500500D01*
X643000D01*
X593000D02*
Y504500D01*
X597000D01*
Y500500D01*
X593000D01*
X643000Y520500D02*
Y524500D01*
X647000D01*
Y520500D01*
X643000D01*
X593000D02*
Y524500D01*
X597000D01*
Y520500D01*
X593000D01*
X634693Y421228D02*
Y425228D01*
X638693D01*
Y421228D01*
X634693D01*
X624693D02*
Y425228D01*
X628693D01*
Y421228D01*
X624693D01*
X614693D02*
Y425228D01*
X618693D01*
Y421228D01*
X614693D01*
X604693D02*
Y425228D01*
X608693D01*
Y421228D01*
X604693D01*
X594693D02*
Y425228D01*
X598693D01*
Y421228D01*
X594693D01*
X584693D02*
Y425228D01*
X588693D01*
Y421228D01*
X584693D01*
X574693D02*
Y425228D01*
X578693D01*
Y421228D01*
X574693D01*
X564693D02*
Y425228D01*
X568693D01*
Y421228D01*
X564693D01*
X554693D02*
Y425228D01*
X558693D01*
Y421228D01*
X554693D01*
X544693D02*
Y425228D01*
X548693D01*
Y421228D01*
X544693D01*
X534693D02*
Y425228D01*
X538693D01*
Y421228D01*
X534693D01*
X524693D02*
Y425228D01*
X528693D01*
Y421228D01*
X524693D01*
X514693D02*
Y425228D01*
X518693D01*
Y421228D01*
X514693D01*
X504693D02*
Y425228D01*
X508693D01*
Y421228D01*
X504693D01*
X494693D02*
Y425228D01*
X498693D01*
Y421228D01*
X494693D01*
X484693D02*
Y425228D01*
X488693D01*
Y421228D01*
X484693D01*
X474693D02*
Y425228D01*
X478693D01*
Y421228D01*
X474693D01*
X464693D02*
Y425228D01*
X468693D01*
Y421228D01*
X464693D01*
X669291Y659339D02*
X667291Y663339D01*
X671291D01*
X669291Y659339D01*
Y639339D02*
X667291Y643339D01*
X671291D01*
X669291Y639339D01*
Y619339D02*
X667291Y623339D01*
X671291D01*
X669291Y619339D01*
Y599339D02*
X667291Y603339D01*
X671291D01*
X669291Y599339D01*
Y579339D02*
X667291Y583339D01*
X671291D01*
X669291Y579339D01*
Y559339D02*
X667291Y563339D01*
X671291D01*
X669291Y559339D01*
Y539339D02*
X667291Y543339D01*
X671291D01*
X669291Y539339D01*
Y519339D02*
X667291Y523339D01*
X671291D01*
X669291Y519339D01*
Y499339D02*
X667291Y503339D01*
X671291D01*
X669291Y499339D01*
Y479339D02*
X667291Y483339D01*
X671291D01*
X669291Y479339D01*
Y459339D02*
X667291Y463339D01*
X671291D01*
X669291Y459339D01*
Y439339D02*
X667291Y443339D01*
X671291D01*
X669291Y439339D01*
Y419339D02*
X667291Y423339D01*
X671291D01*
X669291Y419339D01*
Y399339D02*
X667291Y403339D01*
X671291D01*
X669291Y399339D01*
Y679339D02*
X667291Y683339D01*
X671291D01*
X669291Y679339D01*
X433071Y399339D02*
X431071Y403339D01*
X435071D01*
X433071Y399339D01*
Y679339D02*
X431071Y683339D01*
X435071D01*
X433071Y679339D01*
Y659339D02*
X431071Y663339D01*
X435071D01*
X433071Y659339D01*
Y639339D02*
X431071Y643339D01*
X435071D01*
X433071Y639339D01*
Y619339D02*
X431071Y623339D01*
X435071D01*
X433071Y619339D01*
Y599339D02*
X431071Y603339D01*
X435071D01*
X433071Y599339D01*
Y579339D02*
X431071Y583339D01*
X435071D01*
X433071Y579339D01*
Y559339D02*
X431071Y563339D01*
X435071D01*
X433071Y559339D01*
Y539339D02*
X431071Y543339D01*
X435071D01*
X433071Y539339D01*
Y519339D02*
X431071Y523339D01*
X435071D01*
X433071Y519339D01*
Y499339D02*
X431071Y503339D01*
X435071D01*
X433071Y499339D01*
Y479339D02*
X431071Y483339D01*
X435071D01*
X433071Y479339D01*
Y459339D02*
X431071Y463339D01*
X435071D01*
X433071Y459339D01*
Y439339D02*
X431071Y443339D01*
X435071D01*
X433071Y439339D01*
Y419339D02*
X431071Y423339D01*
X435071D01*
X433071Y419339D01*
X476516Y679339D02*
X474516Y683339D01*
X478516D01*
X476516Y679339D01*
Y659339D02*
X474516Y663339D01*
X478516D01*
X476516Y659339D01*
Y639339D02*
X474516Y643339D01*
X478516D01*
X476516Y639339D01*
Y619339D02*
X474516Y623339D01*
X478516D01*
X476516Y619339D01*
Y599339D02*
X474516Y603339D01*
X478516D01*
X476516Y599339D01*
Y579339D02*
X474516Y583339D01*
X478516D01*
X476516Y579339D01*
Y559339D02*
X474516Y563339D01*
X478516D01*
X476516Y559339D01*
Y539339D02*
X474516Y543339D01*
X478516D01*
X476516Y539339D01*
X413354Y477921D02*
Y481921D01*
X417354D01*
Y477921D01*
X413354D01*
Y487921D02*
Y491921D01*
X417354D01*
Y487921D01*
X413354D01*
Y497921D02*
Y501921D01*
X417354D01*
Y497921D01*
X413354D01*
Y507921D02*
Y511921D01*
X417354D01*
Y507921D01*
X413354D01*
Y517921D02*
Y521921D01*
X417354D01*
Y517921D01*
X413354D01*
Y527921D02*
Y531921D01*
X417354D01*
Y527921D01*
X413354D01*
Y537921D02*
Y541921D01*
X417354D01*
Y537921D01*
X413354D01*
Y547921D02*
Y551921D01*
X417354D01*
Y547921D01*
X413354D01*
Y557921D02*
Y561921D01*
X417354D01*
Y557921D01*
X413354D01*
Y567921D02*
Y571921D01*
X417354D01*
Y567921D01*
X413354D01*
Y577921D02*
Y581921D01*
X417354D01*
Y577921D01*
X413354D01*
Y587921D02*
Y591921D01*
X417354D01*
Y587921D01*
X413354D01*
Y597921D02*
Y601921D01*
X417354D01*
Y597921D01*
X413354D01*
Y607921D02*
Y611921D01*
X417354D01*
Y607921D01*
X413354D01*
Y617921D02*
Y621921D01*
X417354D01*
Y617921D01*
X413354D01*
Y627921D02*
Y631921D01*
X417354D01*
Y627921D01*
X413354D01*
X634772Y657449D02*
Y661449D01*
X638772D01*
Y657449D01*
X634772D01*
X624772D02*
Y661449D01*
X628772D01*
Y657449D01*
X624772D01*
X614772D02*
Y661449D01*
X618772D01*
Y657449D01*
X614772D01*
X604772D02*
Y661449D01*
X608772D01*
Y657449D01*
X604772D01*
X594772D02*
Y661449D01*
X598772D01*
Y657449D01*
X594772D01*
X584772D02*
Y661449D01*
X588772D01*
Y657449D01*
X584772D01*
X574772D02*
Y661449D01*
X578772D01*
Y657449D01*
X574772D01*
X564772D02*
Y661449D01*
X568772D01*
Y657449D01*
X564772D01*
X554772D02*
Y661449D01*
X558772D01*
Y657449D01*
X554772D01*
X544772D02*
Y661449D01*
X548772D01*
Y657449D01*
X544772D01*
X534772D02*
Y661449D01*
X538772D01*
Y657449D01*
X534772D01*
X524772D02*
Y661449D01*
X528772D01*
Y657449D01*
X524772D01*
X514772D02*
Y661449D01*
X518772D01*
Y657449D01*
X514772D01*
X504772D02*
Y661449D01*
X508772D01*
Y657449D01*
X504772D01*
X454500Y436500D02*
Y440500D01*
X458500D01*
Y436500D01*
X454500D01*
Y396500D02*
Y400500D01*
X458500D01*
Y396500D01*
X454500D01*
X515000Y645500D02*
Y649500D01*
X519000D01*
Y645500D01*
X515000D01*
Y605500D02*
Y609500D01*
X519000D01*
Y605500D01*
X515000D01*
D53*
X399638Y429134D02*
G03*
X399638Y429134I-2000J0D01*
G01*
X706724D02*
G03*
X706724Y429134I-2000J0D01*
G01*
Y653543D02*
G03*
X706724Y653543I-2000J0D01*
G01*
X399638D02*
G03*
X399638Y653543I-2000J0D01*
G01*
M02*
