%FSLAX25Y25*%
%MOIN*%
G70*
G01*
G75*
G04 Layer_Color=16711935*
%ADD10C,0.04000*%
%ADD11C,0.00800*%
%ADD12C,0.01200*%
%ADD13C,0.09000*%
%ADD14R,0.07500X0.09000*%
%ADD15O,0.06000X0.07500*%
%ADD16O,0.07500X0.09000*%
%ADD17C,0.19685*%
%ADD18C,0.11811*%
%ADD19O,0.12000X0.13000*%
%ADD20C,0.07500*%
%ADD21R,0.07500X0.07500*%
%ADD22R,0.12000X0.13000*%
%ADD23O,0.09000X0.07500*%
%ADD24O,0.09000X0.06000*%
%ADD25R,0.09000X0.07500*%
%ADD26C,0.10000*%
%ADD27C,0.03600*%
%ADD28C,0.03000*%
%ADD29C,0.01600*%
%ADD30R,0.27559X0.35433*%
%ADD31R,0.19685X0.35433*%
%ADD32C,0.01000*%
%ADD33C,0.00400*%
%ADD34C,0.01400*%
%ADD35C,0.02000*%
%ADD36C,0.09800*%
%ADD37R,0.08300X0.09800*%
%ADD38O,0.06800X0.08300*%
%ADD39O,0.08300X0.09800*%
%ADD40C,0.20485*%
%ADD41C,0.12611*%
%ADD42O,0.12800X0.13800*%
%ADD43C,0.08300*%
%ADD44R,0.08300X0.08300*%
%ADD45R,0.12800X0.13800*%
%ADD46O,0.09800X0.08300*%
%ADD47O,0.09800X0.06800*%
%ADD48R,0.09800X0.08300*%
%ADD49C,0.10800*%
D12*
X738324Y606610D02*
Y599613D01*
X741823D01*
X742990Y600779D01*
Y601945D01*
X741823Y603112D01*
X738324D01*
X741823D01*
X742990Y604278D01*
Y605444D01*
X741823Y606610D01*
X738324D01*
X748821D02*
X746488D01*
X745322Y605444D01*
Y600779D01*
X746488Y599613D01*
X748821D01*
X749987Y600779D01*
Y605444D01*
X748821Y606610D01*
X752320D02*
X756985D01*
X754653D01*
Y599613D01*
X759318Y606610D02*
X763983D01*
X761650D01*
Y599613D01*
X769814Y606610D02*
X767482D01*
X766315Y605444D01*
Y600779D01*
X767482Y599613D01*
X769814D01*
X770981Y600779D01*
Y605444D01*
X769814Y606610D01*
X773313Y599613D02*
Y606610D01*
X775646Y604278D01*
X777978Y606610D01*
Y599613D01*
X791974Y605444D02*
X790807Y606610D01*
X788475D01*
X787309Y605444D01*
Y604278D01*
X788475Y603112D01*
X790807D01*
X791974Y601945D01*
Y600779D01*
X790807Y599613D01*
X788475D01*
X787309Y600779D01*
X797805Y606610D02*
X795473D01*
X794306Y605444D01*
Y600779D01*
X795473Y599613D01*
X797805D01*
X798972Y600779D01*
Y605444D01*
X797805Y606610D01*
X801304D02*
Y599613D01*
X805969D01*
X808302Y606610D02*
Y599613D01*
X811801D01*
X812967Y600779D01*
Y605444D01*
X811801Y606610D01*
X808302D01*
X819965D02*
X815300D01*
Y599613D01*
X819965D01*
X815300Y603112D02*
X817632D01*
X822297Y599613D02*
Y606610D01*
X825796D01*
X826962Y605444D01*
Y603112D01*
X825796Y601945D01*
X822297D01*
X824630D02*
X826962Y599613D01*
D32*
X385827Y385827D02*
X716535D01*
X385827D02*
Y696850D01*
X716535D01*
Y385827D02*
Y696850D01*
D36*
X552559Y594488D02*
D03*
X502559D02*
D03*
X552559Y574803D02*
D03*
X502559D02*
D03*
X645000Y455000D02*
D03*
X595000D02*
D03*
X629500Y443000D02*
D03*
X579500D02*
D03*
X582500Y522500D02*
D03*
X532500D02*
D03*
X582500Y482500D02*
D03*
X532500D02*
D03*
X645000D02*
D03*
X595000D02*
D03*
X582500Y502500D02*
D03*
X532500D02*
D03*
X645000D02*
D03*
X595000D02*
D03*
X645000Y522500D02*
D03*
X595000D02*
D03*
D37*
X636693Y423228D02*
D03*
X506772Y659449D02*
D03*
D38*
X626693Y423228D02*
D03*
X606693D02*
D03*
X586693D02*
D03*
X566693D02*
D03*
X546693D02*
D03*
X526693D02*
D03*
X506693D02*
D03*
X486693D02*
D03*
D39*
X616693D02*
D03*
X596693D02*
D03*
X576693D02*
D03*
X556693D02*
D03*
X536693D02*
D03*
X516693D02*
D03*
X496693D02*
D03*
X476693D02*
D03*
X466693D02*
D03*
X636772Y659449D02*
D03*
X626772D02*
D03*
X616772D02*
D03*
X606772D02*
D03*
X596772D02*
D03*
X586772D02*
D03*
X576772D02*
D03*
X566772D02*
D03*
X556772D02*
D03*
X546772D02*
D03*
X536772D02*
D03*
X526772D02*
D03*
X516772D02*
D03*
D40*
X397638Y429134D02*
D03*
X704724D02*
D03*
Y653543D02*
D03*
D41*
X397638D02*
D03*
D42*
X669291Y661339D02*
D03*
Y641339D02*
D03*
Y621339D02*
D03*
Y601339D02*
D03*
Y581339D02*
D03*
Y561339D02*
D03*
Y541339D02*
D03*
Y521339D02*
D03*
Y501339D02*
D03*
Y481339D02*
D03*
Y461339D02*
D03*
Y441339D02*
D03*
Y421339D02*
D03*
Y681339D02*
D03*
X433071Y401339D02*
D03*
Y661339D02*
D03*
Y641339D02*
D03*
Y621339D02*
D03*
Y601339D02*
D03*
Y581339D02*
D03*
Y561339D02*
D03*
Y541339D02*
D03*
Y521339D02*
D03*
Y501339D02*
D03*
Y481339D02*
D03*
Y461339D02*
D03*
Y441339D02*
D03*
Y421339D02*
D03*
X476516Y681339D02*
D03*
Y661339D02*
D03*
Y641339D02*
D03*
Y621339D02*
D03*
Y601339D02*
D03*
Y581339D02*
D03*
Y561339D02*
D03*
D45*
X669291Y401339D02*
D03*
X433071Y681339D02*
D03*
X476516Y541339D02*
D03*
D46*
X415354Y479921D02*
D03*
Y489921D02*
D03*
Y499921D02*
D03*
Y509921D02*
D03*
Y519921D02*
D03*
Y529921D02*
D03*
Y559921D02*
D03*
Y569921D02*
D03*
Y579921D02*
D03*
Y589921D02*
D03*
Y599921D02*
D03*
Y609921D02*
D03*
Y619921D02*
D03*
D47*
Y539921D02*
D03*
Y549921D02*
D03*
D48*
Y629921D02*
D03*
D49*
X456500Y438500D02*
D03*
Y398500D02*
D03*
X517000Y647500D02*
D03*
Y607500D02*
D03*
M02*
