%FSLAX25Y25*%
%MOIN*%
G70*
G01*
G75*
G04 Layer_Color=65535*
%ADD10C,0.04000*%
%ADD11C,0.00800*%
%ADD12C,0.01200*%
%ADD13C,0.09000*%
%ADD14R,0.07500X0.09000*%
%ADD15O,0.06000X0.07500*%
%ADD16O,0.07500X0.09000*%
%ADD17C,0.19685*%
%ADD18C,0.11811*%
%ADD19O,0.12000X0.13000*%
%ADD20C,0.07500*%
%ADD21R,0.07500X0.07500*%
%ADD22R,0.12000X0.13000*%
%ADD23O,0.09000X0.07500*%
%ADD24O,0.09000X0.06000*%
%ADD25R,0.09000X0.07500*%
%ADD26C,0.10000*%
%ADD27C,0.03600*%
%ADD28C,0.03000*%
%ADD29C,0.01600*%
%ADD30R,0.27559X0.35433*%
%ADD31R,0.19685X0.35433*%
%ADD32C,0.01000*%
%ADD33C,0.00400*%
%ADD34C,0.01400*%
%ADD35C,0.02000*%
G36*
X589211Y557355D02*
X584841D01*
X584744Y557330D01*
X584597Y557281D01*
X584426Y557159D01*
X584402Y557135D01*
X584329Y557037D01*
X584231Y556940D01*
X584207Y556842D01*
X581570Y549934D01*
X586208D01*
X586355Y549885D01*
X586501Y549812D01*
X586574Y549714D01*
X586623Y549617D01*
Y549568D01*
X586648Y549519D01*
X586672Y549446D01*
X584402Y543002D01*
X584377Y542953D01*
X584353Y542855D01*
X584255Y542684D01*
X584158Y542489D01*
X583987Y542245D01*
X583816Y542025D01*
X583572Y541781D01*
X583303Y541561D01*
X583279D01*
X583255Y541513D01*
X583084Y541415D01*
X582864Y541293D01*
X582620Y541195D01*
X582596D01*
X582571Y541171D01*
X582425Y541147D01*
X582181Y541098D01*
X581912Y541073D01*
X570024D01*
Y541561D01*
X579666D01*
X579764Y541586D01*
X579886Y541635D01*
X580032Y541732D01*
X580057Y541757D01*
X580155Y541854D01*
X580228Y541952D01*
X580301Y542074D01*
X583206Y549422D01*
X577836Y549446D01*
X580106Y555914D01*
X580130Y555963D01*
X580155Y556061D01*
X580252Y556232D01*
X580350Y556427D01*
X580496Y556671D01*
X580692Y556915D01*
X580911Y557135D01*
X581180Y557355D01*
X581204D01*
X581253Y557404D01*
X581302Y557428D01*
X581399Y557501D01*
X581619Y557623D01*
X581863Y557721D01*
X581888D01*
X581912Y557745D01*
X581985Y557770D01*
X582083Y557794D01*
X582303Y557819D01*
X582596Y557843D01*
X589211D01*
Y557355D01*
D02*
G37*
G36*
X583315Y562855D02*
X578922D01*
X578824Y562830D01*
X578702Y562781D01*
X578555Y562659D01*
X578531Y562635D01*
X578433Y562562D01*
X578360Y562464D01*
X578287Y562342D01*
X574235Y550943D01*
X574210Y550894D01*
X574186Y550772D01*
X574113Y550601D01*
X574064Y550381D01*
X573991Y550137D01*
X573917Y549869D01*
X573893Y549624D01*
X573869Y549380D01*
Y549356D01*
Y549283D01*
X573893Y549185D01*
X573917Y549063D01*
X574015Y548770D01*
X574088Y548599D01*
X574186Y548453D01*
X574210Y548428D01*
X574235Y548404D01*
X574284Y548331D01*
X574381Y548233D01*
X574577Y548013D01*
X574869Y547769D01*
X575211Y547501D01*
X575602Y547281D01*
X575821Y547184D01*
X576041Y547110D01*
X576261Y547086D01*
X576505Y547061D01*
X580850D01*
Y546573D01*
X574113D01*
X573966Y546598D01*
X573771Y546622D01*
X573527Y546695D01*
X573258Y546769D01*
X572941Y546891D01*
X572624Y547037D01*
X572575Y547061D01*
X572477Y547135D01*
X572331Y547232D01*
X572135Y547354D01*
X571916Y547525D01*
X571696Y547696D01*
X571501Y547891D01*
X571330Y548111D01*
X571306Y548136D01*
X571257Y548209D01*
X571183Y548331D01*
X571110Y548502D01*
X571013Y548672D01*
X570915Y548868D01*
X570720Y549307D01*
Y549332D01*
X570695Y549405D01*
X570646Y549527D01*
X570622Y549673D01*
X570573Y549869D01*
X570524Y550064D01*
X570500Y550503D01*
Y550528D01*
Y550601D01*
X570524Y550723D01*
Y550869D01*
X570549Y551065D01*
X570598Y551284D01*
X570671Y551553D01*
X570744Y551821D01*
X574186Y561414D01*
X574210Y561463D01*
X574235Y561561D01*
X574332Y561732D01*
X574430Y561927D01*
X574577Y562171D01*
X574772Y562415D01*
X575016Y562635D01*
X575284Y562855D01*
X575309D01*
X575333Y562903D01*
X575504Y563001D01*
X575699Y563123D01*
X575943Y563221D01*
X575968D01*
X575992Y563245D01*
X576065Y563270D01*
X576163Y563294D01*
X576407Y563318D01*
X576676Y563343D01*
X583315D01*
Y562855D01*
D02*
G37*
G36*
X572585Y562782D02*
X566766D01*
X566636Y562749D01*
X566441Y562684D01*
X566213Y562522D01*
X566181Y562489D01*
X566083Y562359D01*
X565953Y562229D01*
X565921Y562099D01*
X562410Y552899D01*
X568587D01*
X568782Y552834D01*
X568977Y552736D01*
X569074Y552606D01*
X569139Y552476D01*
Y552411D01*
X569172Y552346D01*
X569204Y552248D01*
X566181Y543666D01*
X566148Y543601D01*
X566116Y543471D01*
X565986Y543243D01*
X565856Y542983D01*
X565628Y542658D01*
X565401Y542365D01*
X565076Y542040D01*
X564718Y541748D01*
X564685D01*
X564653Y541683D01*
X564425Y541553D01*
X564133Y541390D01*
X563808Y541260D01*
X563775D01*
X563743Y541228D01*
X563548Y541195D01*
X563223Y541130D01*
X562865Y541097D01*
X547032D01*
Y541748D01*
X559874D01*
X560004Y541780D01*
X560167Y541845D01*
X560362Y541975D01*
X560394Y542008D01*
X560524Y542138D01*
X560622Y542268D01*
X560719Y542430D01*
X564588Y552216D01*
X557436Y552248D01*
X560459Y560864D01*
X560492Y560929D01*
X560524Y561059D01*
X560654Y561286D01*
X560784Y561546D01*
X560979Y561871D01*
X561239Y562196D01*
X561532Y562489D01*
X561890Y562782D01*
X561922D01*
X561987Y562847D01*
X562052Y562879D01*
X562182Y562977D01*
X562475Y563139D01*
X562800Y563269D01*
X562832D01*
X562865Y563302D01*
X562962Y563334D01*
X563093Y563367D01*
X563385Y563399D01*
X563775Y563432D01*
X572585D01*
Y562782D01*
D02*
G37*
D32*
X385827Y385827D02*
Y696850D01*
X716535D01*
Y385827D02*
Y696850D01*
X385827Y385827D02*
X716535D01*
X651791Y391339D02*
X686791D01*
Y691339D01*
X651791D02*
X686791D01*
X651791Y391339D02*
Y691339D01*
X450571Y391339D02*
Y691339D01*
X415571Y391339D02*
X450571D01*
X415571D02*
Y691339D01*
X450571D01*
X460000Y531339D02*
X495000D01*
Y691339D01*
X460000D02*
X495000D01*
X460000Y531339D02*
Y691339D01*
X465500Y521000D02*
Y526998D01*
X468499D01*
X469499Y525998D01*
Y523999D01*
X468499Y522999D01*
X465500D01*
X475497Y525998D02*
X474497Y526998D01*
X472498D01*
X471498Y525998D01*
Y522000D01*
X472498Y521000D01*
X474497D01*
X475497Y522000D01*
Y523999D01*
X473497D01*
X481495Y525998D02*
X480495Y526998D01*
X478496D01*
X477496Y525998D01*
Y524999D01*
X478496Y523999D01*
X480495D01*
X481495Y522999D01*
Y522000D01*
X480495Y521000D01*
X478496D01*
X477496Y522000D01*
X483494Y521000D02*
Y526998D01*
X485494Y524999D01*
X487493Y526998D01*
Y521000D01*
X411000Y666500D02*
X405002D01*
Y669499D01*
X406002Y670499D01*
X408001D01*
X409001Y669499D01*
Y666500D01*
X410000Y672498D02*
X411000Y673498D01*
Y675497D01*
X410000Y676497D01*
X406002D01*
X405002Y675497D01*
Y673498D01*
X406002Y672498D01*
X407001D01*
X408001Y673498D01*
Y676497D01*
X695000Y464500D02*
X689002D01*
Y467499D01*
X690002Y468499D01*
X692001D01*
X693001Y467499D01*
Y464500D01*
X690002Y470498D02*
X689002Y471498D01*
Y473497D01*
X690002Y474497D01*
X691001D01*
X692001Y473497D01*
X693001Y474497D01*
X694000D01*
X695000Y473497D01*
Y471498D01*
X694000Y470498D01*
X693001D01*
X692001Y471498D01*
X691001Y470498D01*
X690002D01*
X692001Y471498D02*
Y473497D01*
D33*
X473559Y440786D02*
X515500D01*
X473234Y440868D02*
X515988D01*
X472990Y440949D02*
X516231D01*
X472909Y441030D02*
X516475D01*
X472747Y441111D02*
X516557D01*
X472665Y441193D02*
X516719D01*
X472584Y441274D02*
X516800D01*
X472503Y441355D02*
X473738D01*
X490297D02*
X516963D01*
X472422Y441436D02*
X473331D01*
X515890D02*
X517044D01*
X472340Y441518D02*
X473169D01*
X516134D02*
X517125D01*
X472259Y441599D02*
X473006D01*
X516296D02*
X517125D01*
X472259Y441680D02*
X472925D01*
X516459D02*
X517206D01*
X472178Y441761D02*
X472844D01*
X516540D02*
X517288D01*
X472096Y441843D02*
X472763D01*
X516621D02*
X517288D01*
X472096Y441924D02*
X472682D01*
X516703D02*
X517369D01*
X472096Y442005D02*
X472682D01*
X516784D02*
X517450D01*
X472015Y442086D02*
X472600D01*
X516865D02*
X517450D01*
X472015Y442168D02*
X472600D01*
X516865D02*
X517450D01*
X472015Y442249D02*
X472519D01*
X516947D02*
X517531D01*
X472015Y442330D02*
X472519D01*
X516947D02*
X517531D01*
X471934Y442411D02*
X472519D01*
X517028D02*
X517531D01*
X471934Y442493D02*
X472519D01*
X517028D02*
X517531D01*
X471934Y442574D02*
X472438D01*
X517028D02*
X517531D01*
X471934Y442655D02*
X472438D01*
X517028D02*
X517613D01*
X471934Y442736D02*
X472438D01*
X517028D02*
X517613D01*
X471934Y442818D02*
X472438D01*
X517028D02*
X517613D01*
X471934Y442899D02*
X472438D01*
X517028D02*
X517613D01*
X471934Y442980D02*
X472438D01*
X517028D02*
X517613D01*
X471934Y443061D02*
X472519D01*
X517028D02*
X517613D01*
X471934Y443143D02*
X472519D01*
X517028D02*
X517531D01*
X471934Y443224D02*
X472519D01*
X517028D02*
X517531D01*
X472015Y443305D02*
X472519D01*
X517028D02*
X517531D01*
X472015Y443386D02*
X472519D01*
X516947D02*
X517531D01*
X472015Y443468D02*
X472600D01*
X516947D02*
X517531D01*
X472015Y443549D02*
X472600D01*
X516947D02*
X517450D01*
X472096Y443630D02*
X472600D01*
X516865D02*
X517450D01*
X472096Y443711D02*
X472682D01*
X516865D02*
X517450D01*
X472096Y443793D02*
X472682D01*
X516784D02*
X517369D01*
X472178Y443874D02*
X472763D01*
X516784D02*
X517369D01*
X472178Y443955D02*
X472763D01*
X516703D02*
X517288D01*
X472178Y444036D02*
X472844D01*
X516621D02*
X517288D01*
X472259Y444118D02*
X472844D01*
X516540D02*
X517206D01*
X472259Y444199D02*
X472925D01*
X516540D02*
X517206D01*
X472340Y444280D02*
X473006D01*
X516459D02*
X517125D01*
X472340Y444361D02*
X473006D01*
X516459D02*
X517125D01*
X472422Y444443D02*
X473088D01*
X516378D02*
X517044D01*
X472503Y444524D02*
X473088D01*
X516378D02*
X516963D01*
X472503Y444605D02*
X473169D01*
X516296D02*
X516963D01*
X472584Y444686D02*
X473250D01*
X516215D02*
X516882D01*
X472584Y444768D02*
X473250D01*
X516215D02*
X516882D01*
X472665Y444849D02*
X473331D01*
X516134D02*
X516800D01*
X472747Y444930D02*
X473331D01*
X516134D02*
X516719D01*
X472747Y445011D02*
X473413D01*
X516053D02*
X516719D01*
X472828Y445093D02*
X473494D01*
X515972D02*
X516638D01*
X472828Y445174D02*
X473494D01*
X515972D02*
X516638D01*
X472909Y445255D02*
X473575D01*
X515890D02*
X516557D01*
X472990Y445336D02*
X473575D01*
X515890D02*
X516475D01*
X472990Y445418D02*
X473657D01*
X515809D02*
X516475D01*
X473071Y445499D02*
X473738D01*
X515728D02*
X516394D01*
X473071Y445580D02*
X473738D01*
X515728D02*
X516394D01*
X473153Y445661D02*
X473819D01*
X479084D02*
X506238D01*
X515647D02*
X516313D01*
X473234Y445743D02*
X473819D01*
X479084D02*
X510544D01*
X515647D02*
X516231D01*
X473234Y445824D02*
X473900D01*
X479165D02*
X510544D01*
X515565D02*
X516231D01*
X473315Y445905D02*
X473900D01*
X479165D02*
X510463D01*
X515484D02*
X516150D01*
X473315Y445986D02*
X473982D01*
X479247D02*
X510463D01*
X515484D02*
X516150D01*
X473396Y446068D02*
X474063D01*
X479247D02*
X510382D01*
X515403D02*
X516069D01*
X473478Y446149D02*
X474063D01*
X479328D02*
X510382D01*
X515403D02*
X515988D01*
X473478Y446230D02*
X474144D01*
X479409D02*
X510300D01*
X515321D02*
X515988D01*
X473559Y446311D02*
X474144D01*
X479409D02*
X510219D01*
X515240D02*
X515906D01*
X473559Y446393D02*
X474225D01*
X479490D02*
X510219D01*
X515240D02*
X515825D01*
X473640Y446474D02*
X474306D01*
X479490D02*
X510138D01*
X515159D02*
X515825D01*
X473722Y446555D02*
X474306D01*
X479571D02*
X510138D01*
X515159D02*
X515744D01*
X473722Y446636D02*
X474388D01*
X479571D02*
X510056D01*
X515078D02*
X515744D01*
X473803Y446718D02*
X474388D01*
X479653D02*
X509975D01*
X514996D02*
X515663D01*
X473803Y446799D02*
X474469D01*
X479734D02*
X509975D01*
X514996D02*
X515582D01*
X473884Y446880D02*
X474550D01*
X479734D02*
X509894D01*
X514915D02*
X515582D01*
X473965Y446961D02*
X474550D01*
X479815D02*
X509894D01*
X514834D02*
X515500D01*
X473965Y447043D02*
X474632D01*
X479815D02*
X509813D01*
X514834D02*
X515500D01*
X474047Y447124D02*
X474632D01*
X479896D02*
X492994D01*
X493140D02*
X509813D01*
X514753D02*
X515419D01*
X474047Y447205D02*
X474713D01*
X479896D02*
X492994D01*
X493222D02*
X509731D01*
X514753D02*
X515338D01*
X474128Y447286D02*
X474794D01*
X479978D02*
X492994D01*
X493303D02*
X509650D01*
X514672D02*
X515338D01*
X474209Y447368D02*
X474794D01*
X480059D02*
X492994D01*
X493384D02*
X509650D01*
X514590D02*
X515257D01*
X474209Y447449D02*
X474875D01*
X480059D02*
X492913D01*
X493465D02*
X509569D01*
X514590D02*
X515257D01*
X474290Y447530D02*
X474875D01*
X480140D02*
X492913D01*
X493465D02*
X509569D01*
X514509D02*
X515175D01*
X474290Y447611D02*
X474957D01*
X480140D02*
X492913D01*
X498909D02*
X509488D01*
X514509D02*
X515094D01*
X474371Y447693D02*
X475038D01*
X480222D02*
X492913D01*
X493628D02*
X509488D01*
X514428D02*
X515094D01*
X474453Y447774D02*
X475038D01*
X480303D02*
X492913D01*
X493709D02*
X509407D01*
X514347D02*
X515013D01*
X474453Y447855D02*
X475119D01*
X480303D02*
X492913D01*
X493790D02*
X509325D01*
X514347D02*
X515013D01*
X474534Y447936D02*
X475119D01*
X480384D02*
X492832D01*
X493871D02*
X509325D01*
X514265D02*
X514931D01*
X474534Y448018D02*
X475200D01*
X480384D02*
X492832D01*
X493953D02*
X509244D01*
X514265D02*
X514850D01*
X474615Y448099D02*
X475281D01*
X480465D02*
X492832D01*
X493953D02*
X509244D01*
X514184D02*
X514850D01*
X474696Y448180D02*
X475281D01*
X480465D02*
X492832D01*
X494034D02*
X509163D01*
X514103D02*
X514769D01*
X474696Y448261D02*
X475363D01*
X480547D02*
X492832D01*
X494115D02*
X509082D01*
X514103D02*
X514769D01*
X474778Y448343D02*
X475363D01*
X480628D02*
X492832D01*
X494197D02*
X509082D01*
X514021D02*
X514688D01*
X474778Y448424D02*
X475444D01*
X480628D02*
X492750D01*
X494278D02*
X509000D01*
X514021D02*
X514607D01*
X474859Y448505D02*
X475525D01*
X480709D02*
X492750D01*
X494359D02*
X509000D01*
X513940D02*
X514607D01*
X474859Y448586D02*
X475525D01*
X480709D02*
X492750D01*
X494359D02*
X508919D01*
X513859D02*
X514525D01*
X474940Y448668D02*
X475606D01*
X480790D02*
X492750D01*
X494440D02*
X508919D01*
X513859D02*
X514525D01*
X475022Y448749D02*
X475606D01*
X480790D02*
X492750D01*
X494522D02*
X508838D01*
X513778D02*
X514444D01*
X475022Y448830D02*
X475688D01*
X480871D02*
X492750D01*
X494603D02*
X508756D01*
X513778D02*
X514363D01*
X475103Y448911D02*
X475769D01*
X480953D02*
X492669D01*
X494684D02*
X508756D01*
X513696D02*
X514363D01*
X475103Y448993D02*
X475769D01*
X480953D02*
X492669D01*
X494765D02*
X508675D01*
X513615D02*
X514282D01*
X475184Y449074D02*
X475850D01*
X481034D02*
X492669D01*
X494846D02*
X508675D01*
X513615D02*
X514200D01*
X475265Y449155D02*
X475850D01*
X481034D02*
X492669D01*
X494846D02*
X508594D01*
X513534D02*
X514200D01*
X475265Y449236D02*
X475932D01*
X481115D02*
X492669D01*
X494928D02*
X508513D01*
X513534D02*
X514119D01*
X475347Y449318D02*
X476013D01*
X481115D02*
X492669D01*
X495009D02*
X508513D01*
X513453D02*
X514119D01*
X475347Y449399D02*
X476013D01*
X481196D02*
X492588D01*
X495090D02*
X508431D01*
X513372D02*
X514038D01*
X475428Y449480D02*
X476094D01*
X481278D02*
X492588D01*
X495171D02*
X508431D01*
X513372D02*
X513956D01*
X475509Y449561D02*
X476094D01*
X481278D02*
X492588D01*
X495253D02*
X508350D01*
X513290D02*
X513956D01*
X475509Y449643D02*
X476175D01*
X481359D02*
X492588D01*
X495334D02*
X508350D01*
X513209D02*
X513875D01*
X475590Y449724D02*
X476257D01*
X481359D02*
X492588D01*
X495334D02*
X508269D01*
X513209D02*
X513875D01*
X475590Y449805D02*
X476257D01*
X481440D02*
X492588D01*
X495415D02*
X508188D01*
X513128D02*
X513794D01*
X475671Y449886D02*
X476338D01*
X481440D02*
X492588D01*
X495497D02*
X508188D01*
X513128D02*
X513713D01*
X475753Y449968D02*
X476338D01*
X481522D02*
X492507D01*
X494197D02*
X494456D01*
X495578D02*
X508107D01*
X513047D02*
X513713D01*
X475753Y450049D02*
X476419D01*
X481603D02*
X492507D01*
X493546D02*
X493644D01*
X494278D02*
X494863D01*
X495659D02*
X508107D01*
X512965D02*
X513631D01*
X475834Y450130D02*
X476500D01*
X481603D02*
X492507D01*
X493465D02*
X493644D01*
X494278D02*
X495188D01*
X498909D02*
X508025D01*
X512965D02*
X513631D01*
X475834Y450211D02*
X476500D01*
X481684D02*
X492507D01*
X493303D02*
X493644D01*
X494278D02*
X495513D01*
X495740D02*
X507944D01*
X512884D02*
X513550D01*
X475915Y450293D02*
X476581D01*
X481684D02*
X492507D01*
X493222D02*
X493725D01*
X494359D02*
X507944D01*
X512884D02*
X513469D01*
X475996Y450374D02*
X476581D01*
X481765D02*
X492507D01*
X493140D02*
X493725D01*
X494359D02*
X507863D01*
X512803D02*
X513469D01*
X475996Y450455D02*
X476663D01*
X481765D02*
X492425D01*
X493059D02*
X493725D01*
X494440D02*
X507863D01*
X512721D02*
X513388D01*
X476078Y450536D02*
X476744D01*
X481847D02*
X492425D01*
X492897D02*
X493725D01*
X494440D02*
X507782D01*
X512721D02*
X513388D01*
X476078Y450618D02*
X476744D01*
X481928D02*
X492425D01*
X492815D02*
X493807D01*
X494522D02*
X507782D01*
X512640D02*
X513307D01*
X476159Y450699D02*
X476825D01*
X481928D02*
X492425D01*
X492734D02*
X493807D01*
X494522D02*
X507700D01*
X512640D02*
X513225D01*
X476240Y450780D02*
X476825D01*
X482009D02*
X492425D01*
X492571D02*
X493807D01*
X494603D02*
X507619D01*
X512559D02*
X513225D01*
X476240Y450861D02*
X476906D01*
X482009D02*
X493807D01*
X494603D02*
X507619D01*
X512478D02*
X513144D01*
X476322Y450943D02*
X476988D01*
X482090D02*
X493888D01*
X494684D02*
X507538D01*
X512478D02*
X513144D01*
X476322Y451024D02*
X476988D01*
X482090D02*
X493888D01*
X494684D02*
X507538D01*
X512396D02*
X513063D01*
X476403Y451105D02*
X477069D01*
X482171D02*
X493888D01*
X494765D02*
X507456D01*
X512396D02*
X512982D01*
X476484Y451186D02*
X477069D01*
X482253D02*
X493888D01*
X494765D02*
X507456D01*
X512315D02*
X512982D01*
X476484Y451268D02*
X477150D01*
X482253D02*
X493969D01*
X494846D02*
X507375D01*
X512234D02*
X512900D01*
X476565Y451349D02*
X477232D01*
X482334D02*
X493969D01*
X494846D02*
X507294D01*
X512234D02*
X512900D01*
X476565Y451430D02*
X477232D01*
X482334D02*
X493969D01*
X494846D02*
X507294D01*
X512153D02*
X512819D01*
X476647Y451511D02*
X477313D01*
X482415D02*
X494050D01*
X494928D02*
X507213D01*
X512153D02*
X512738D01*
X476728Y451593D02*
X477313D01*
X482415D02*
X494050D01*
X494928D02*
X507213D01*
X512072D02*
X512738D01*
X476728Y451674D02*
X477394D01*
X482497D02*
X494050D01*
X495009D02*
X507131D01*
X511990D02*
X512656D01*
X476809Y451755D02*
X477475D01*
X482578D02*
X494050D01*
X495009D02*
X507050D01*
X511990D02*
X512575D01*
X476809Y451836D02*
X477475D01*
X482578D02*
X494132D01*
X495090D02*
X507050D01*
X511909D02*
X512575D01*
X476890Y451918D02*
X477557D01*
X482659D02*
X494132D01*
X495090D02*
X506969D01*
X511909D02*
X512494D01*
X476971Y451999D02*
X477557D01*
X482659D02*
X494132D01*
X495171D02*
X506969D01*
X511828D02*
X512494D01*
X476971Y452080D02*
X477638D01*
X482740D02*
X494132D01*
X495171D02*
X506888D01*
X511747D02*
X512413D01*
X477053Y452161D02*
X477719D01*
X482740D02*
X494213D01*
X495253D02*
X506888D01*
X511747D02*
X512331D01*
X477053Y452243D02*
X477719D01*
X482822D02*
X494213D01*
X495253D02*
X506807D01*
X511665D02*
X512331D01*
X477134Y452324D02*
X477800D01*
X482903D02*
X494213D01*
X495334D02*
X506725D01*
X511584D02*
X512250D01*
X477215Y452405D02*
X477800D01*
X482903D02*
X494294D01*
X495334D02*
X506725D01*
X511584D02*
X512250D01*
X477215Y452486D02*
X477881D01*
X482984D02*
X494294D01*
X495415D02*
X506644D01*
X511503D02*
X512169D01*
X477296Y452568D02*
X477881D01*
X482984D02*
X494294D01*
X495415D02*
X506644D01*
X511503D02*
X512088D01*
X477296Y452649D02*
X477963D01*
X483065D02*
X494294D01*
X495415D02*
X506563D01*
X511421D02*
X512088D01*
X477378Y452730D02*
X478044D01*
X483065D02*
X494375D01*
X495497D02*
X506482D01*
X511340D02*
X512007D01*
X477459Y452811D02*
X478044D01*
X483146D02*
X494375D01*
X495497D02*
X506482D01*
X511340D02*
X512007D01*
X477459Y452893D02*
X478125D01*
X483228D02*
X494375D01*
X495578D02*
X506400D01*
X511259D02*
X511925D01*
X477540Y452974D02*
X478125D01*
X483228D02*
X494375D01*
X495578D02*
X506400D01*
X511259D02*
X511844D01*
X477540Y453055D02*
X478206D01*
X483309D02*
X494456D01*
X495659D02*
X506319D01*
X511178D02*
X511844D01*
X477622Y453136D02*
X478288D01*
X483309D02*
X494456D01*
X495659D02*
X506319D01*
X511096D02*
X511763D01*
X477703Y453218D02*
X478288D01*
X483390D02*
X494456D01*
X495740D02*
X506238D01*
X511096D02*
X511763D01*
X477703Y453299D02*
X478369D01*
X483390D02*
X494456D01*
X495740D02*
X506156D01*
X511015D02*
X511682D01*
X477784Y453380D02*
X478369D01*
X483471D02*
X494538D01*
X495822D02*
X506156D01*
X511015D02*
X511600D01*
X477784Y453461D02*
X478450D01*
X483553D02*
X494538D01*
X495822D02*
X506075D01*
X510934D02*
X511600D01*
X477865Y453543D02*
X478532D01*
X483553D02*
X494538D01*
X495903D02*
X506075D01*
X510853D02*
X511519D01*
X477947Y453624D02*
X478532D01*
X483634D02*
X494619D01*
X495903D02*
X505994D01*
X510853D02*
X511519D01*
X477947Y453705D02*
X478613D01*
X483634D02*
X494619D01*
X495903D02*
X505994D01*
X510772D02*
X511438D01*
X478028Y453786D02*
X478613D01*
X483715D02*
X494619D01*
X495984D02*
X505913D01*
X510772D02*
X511356D01*
X478028Y453868D02*
X478694D01*
X483715D02*
X494619D01*
X495984D02*
X505831D01*
X510690D02*
X511356D01*
X478109Y453949D02*
X478775D01*
X483797D02*
X494700D01*
X496065D02*
X505831D01*
X510609D02*
X511275D01*
X478190Y454030D02*
X478775D01*
X483878D02*
X494700D01*
X496065D02*
X505750D01*
X510609D02*
X511275D01*
X478190Y454111D02*
X478857D01*
X483878D02*
X494700D01*
X496146D02*
X505750D01*
X510528D02*
X511194D01*
X478271Y454193D02*
X478857D01*
X483959D02*
X494700D01*
X496146D02*
X505669D01*
X510528D02*
X511113D01*
X478271Y454274D02*
X478938D01*
X483959D02*
X488444D01*
X488671D02*
X494781D01*
X496228D02*
X505588D01*
X510447D02*
X511113D01*
X478353Y454355D02*
X479019D01*
X484040D02*
X488444D01*
X488915D02*
X494781D01*
X496228D02*
X505588D01*
X510365D02*
X511031D01*
X478434Y454436D02*
X479019D01*
X484040D02*
X488444D01*
X489159D02*
X494781D01*
X496309D02*
X505507D01*
X510365D02*
X510950D01*
X478434Y454518D02*
X479100D01*
X484122D02*
X488525D01*
X489403D02*
X494863D01*
X496309D02*
X505507D01*
X510284D02*
X510950D01*
X478515Y454599D02*
X479100D01*
X484203D02*
X488525D01*
X489646D02*
X494863D01*
X496390D02*
X505425D01*
X510284D02*
X510869D01*
X478515Y454680D02*
X479181D01*
X484203D02*
X488607D01*
X489890D02*
X494863D01*
X496390D02*
X505425D01*
X510203D02*
X510869D01*
X478596Y454761D02*
X479263D01*
X484284D02*
X488607D01*
X490134D02*
X494863D01*
X496472D02*
X505344D01*
X510121D02*
X510788D01*
X478596Y454843D02*
X479263D01*
X484284D02*
X488688D01*
X490378D02*
X494944D01*
X496472D02*
X505263D01*
X510121D02*
X510707D01*
X478678Y454924D02*
X479344D01*
X484365D02*
X488688D01*
X490622D02*
X494944D01*
X496472D02*
X505263D01*
X510040D02*
X510707D01*
X478759Y455005D02*
X479344D01*
X484365D02*
X488688D01*
X490865D02*
X494944D01*
X496553D02*
X505182D01*
X509959D02*
X510625D01*
X478759Y455086D02*
X479425D01*
X484446D02*
X488769D01*
X491109D02*
X494944D01*
X496553D02*
X505182D01*
X509959D02*
X510625D01*
X478840Y455168D02*
X479506D01*
X484528D02*
X488769D01*
X491271D02*
X495025D01*
X496634D02*
X505100D01*
X509878D02*
X510544D01*
X478840Y455249D02*
X479506D01*
X484528D02*
X488850D01*
X491515D02*
X495025D01*
X496634D02*
X505019D01*
X509878D02*
X510463D01*
X478922Y455330D02*
X479588D01*
X484609D02*
X488850D01*
X491759D02*
X495025D01*
X496715D02*
X505019D01*
X509796D02*
X510463D01*
X479003Y455411D02*
X479588D01*
X484609D02*
X488850D01*
X492003D02*
X495025D01*
X496715D02*
X504938D01*
X509715D02*
X510382D01*
X479003Y455493D02*
X479669D01*
X484690D02*
X488932D01*
X492246D02*
X495107D01*
X496797D02*
X504938D01*
X509715D02*
X510382D01*
X479084Y455574D02*
X479750D01*
X484690D02*
X488932D01*
X492490D02*
X495107D01*
X496797D02*
X504856D01*
X509634D02*
X510300D01*
X479084Y455655D02*
X479750D01*
X484771D02*
X489013D01*
X492734D02*
X495107D01*
X496878D02*
X504856D01*
X509634D02*
X510219D01*
X479165Y455736D02*
X479832D01*
X484853D02*
X489013D01*
X492978D02*
X495188D01*
X496878D02*
X504775D01*
X509553D02*
X510219D01*
X479247Y455818D02*
X479832D01*
X484853D02*
X489013D01*
X493222D02*
X495188D01*
X496959D02*
X504694D01*
X509472D02*
X510138D01*
X479247Y455899D02*
X479913D01*
X484934D02*
X489094D01*
X493465D02*
X495188D01*
X496959D02*
X504694D01*
X509472D02*
X510138D01*
X479328Y455980D02*
X479994D01*
X484934D02*
X489094D01*
X493709D02*
X495188D01*
X497040D02*
X504613D01*
X509390D02*
X510056D01*
X479328Y456061D02*
X479994D01*
X485015D02*
X489175D01*
X493953D02*
X495269D01*
X497040D02*
X504613D01*
X509390D02*
X509975D01*
X479409Y456143D02*
X480075D01*
X485015D02*
X489175D01*
X494197D02*
X495269D01*
X497040D02*
X504531D01*
X509309D02*
X509975D01*
X479490Y456224D02*
X480075D01*
X485097D02*
X489175D01*
X494440D02*
X495269D01*
X497121D02*
X504450D01*
X509228D02*
X509894D01*
X479490Y456305D02*
X480157D01*
X485178D02*
X489256D01*
X494684D02*
X495269D01*
X497121D02*
X504450D01*
X509228D02*
X509894D01*
X479571Y456386D02*
X480238D01*
X485178D02*
X489256D01*
X494928D02*
X495350D01*
X497203D02*
X504369D01*
X509146D02*
X509813D01*
X479571Y456468D02*
X480238D01*
X485259D02*
X489338D01*
X490865D02*
X490963D01*
X495090D02*
X495350D01*
X497203D02*
X504288D01*
X509146D02*
X509731D01*
X479653Y456549D02*
X480319D01*
X485259D02*
X489338D01*
X490865D02*
X491207D01*
X495334D02*
X495350D01*
X497284D02*
X504288D01*
X509065D02*
X509731D01*
X479734Y456630D02*
X480319D01*
X485340D02*
X489419D01*
X490946D02*
X491450D01*
X497284D02*
X504207D01*
X508984D02*
X509650D01*
X479734Y456711D02*
X480400D01*
X485340D02*
X489419D01*
X491028D02*
X491694D01*
X497365D02*
X504207D01*
X508984D02*
X509650D01*
X479815Y456793D02*
X480481D01*
X485422D02*
X489419D01*
X491028D02*
X492019D01*
X497365D02*
X504125D01*
X508903D02*
X509569D01*
X479815Y456874D02*
X480481D01*
X485503D02*
X489500D01*
X491109D02*
X492263D01*
X497446D02*
X504044D01*
X508903D02*
X509488D01*
X479896Y456955D02*
X480563D01*
X485503D02*
X489500D01*
X491109D02*
X492507D01*
X497446D02*
X504044D01*
X508821D02*
X509488D01*
X479978Y457036D02*
X480563D01*
X485584D02*
X489581D01*
X491190D02*
X492750D01*
X497528D02*
X503963D01*
X508740D02*
X509407D01*
X479978Y457118D02*
X480644D01*
X485584D02*
X489581D01*
X491190D02*
X493075D01*
X497528D02*
X503963D01*
X508740D02*
X509325D01*
X480059Y457199D02*
X480725D01*
X485665D02*
X489581D01*
X491271D02*
X493319D01*
X497609D02*
X503882D01*
X508659D02*
X509325D01*
X480059Y457280D02*
X480725D01*
X485665D02*
X489663D01*
X491271D02*
X493563D01*
X497609D02*
X503800D01*
X508659D02*
X509244D01*
X480140Y457361D02*
X480806D01*
X485746D02*
X489663D01*
X491353D02*
X493807D01*
X497609D02*
X503800D01*
X508578D02*
X509244D01*
X480222Y457443D02*
X480806D01*
X485828D02*
X489744D01*
X491353D02*
X494050D01*
X497690D02*
X503719D01*
X508497D02*
X509163D01*
X480222Y457524D02*
X480888D01*
X485828D02*
X489744D01*
X491434D02*
X494375D01*
X497690D02*
X503719D01*
X508497D02*
X509082D01*
X480303Y457605D02*
X480969D01*
X485909D02*
X489744D01*
X491434D02*
X494619D01*
X497772D02*
X503638D01*
X508415D02*
X509082D01*
X480303Y457686D02*
X480969D01*
X485909D02*
X489825D01*
X491515D02*
X494863D01*
X497772D02*
X503556D01*
X508334D02*
X509000D01*
X480384Y457768D02*
X481050D01*
X485990D02*
X489825D01*
X491515D02*
X495107D01*
X497853D02*
X503556D01*
X508334D02*
X509000D01*
X480465Y457849D02*
X481050D01*
X485990D02*
X489907D01*
X491597D02*
X495432D01*
X497853D02*
X503475D01*
X508253D02*
X508919D01*
X480465Y457930D02*
X481132D01*
X486071D02*
X489907D01*
X491597D02*
X495675D01*
X497934D02*
X503475D01*
X508253D02*
X508838D01*
X480547Y458011D02*
X481213D01*
X486153D02*
X489907D01*
X491678D02*
X495919D01*
X497934D02*
X503394D01*
X508172D02*
X508838D01*
X480547Y458093D02*
X481213D01*
X486153D02*
X489988D01*
X491759D02*
X496163D01*
X498015D02*
X503313D01*
X508090D02*
X508756D01*
X480628Y458174D02*
X481294D01*
X486234D02*
X489988D01*
X491759D02*
X496488D01*
X498015D02*
X503313D01*
X508090D02*
X508756D01*
X480709Y458255D02*
X481294D01*
X486234D02*
X490069D01*
X491840D02*
X496732D01*
X498097D02*
X503231D01*
X508009D02*
X508675D01*
X480709Y458336D02*
X481375D01*
X486315D02*
X490069D01*
X491840D02*
X496975D01*
X498097D02*
X503231D01*
X508009D02*
X508594D01*
X480790Y458418D02*
X481457D01*
X486315D02*
X490150D01*
X491922D02*
X497219D01*
X498178D02*
X503150D01*
X507928D02*
X508594D01*
X480790Y458499D02*
X481457D01*
X486397D02*
X490150D01*
X491922D02*
X497463D01*
X498178D02*
X503069D01*
X507846D02*
X508513D01*
X480871Y458580D02*
X481538D01*
X486478D02*
X490150D01*
X492003D02*
X497788D01*
X498178D02*
X503069D01*
X507846D02*
X508513D01*
X480953Y458661D02*
X481538D01*
X486478D02*
X490232D01*
X492003D02*
X498032D01*
X498259D02*
X502988D01*
X507765D02*
X508431D01*
X480953Y458743D02*
X481619D01*
X486559D02*
X490232D01*
X492084D02*
X502988D01*
X507765D02*
X508350D01*
X481034Y458824D02*
X481619D01*
X486559D02*
X490313D01*
X492084D02*
X502907D01*
X507684D02*
X508350D01*
X481034Y458905D02*
X481700D01*
X486640D02*
X490313D01*
X492165D02*
X502825D01*
X507603D02*
X508269D01*
X481115Y458986D02*
X481781D01*
X486640D02*
X490313D01*
X492165D02*
X502825D01*
X507603D02*
X508269D01*
X481196Y459068D02*
X481781D01*
X486722D02*
X490394D01*
X492246D02*
X502744D01*
X507521D02*
X508188D01*
X481196Y459149D02*
X481863D01*
X486803D02*
X490394D01*
X492246D02*
X502663D01*
X507521D02*
X508107D01*
X481278Y459230D02*
X481863D01*
X486803D02*
X490475D01*
X492328D02*
X502663D01*
X507440D02*
X508107D01*
X481278Y459311D02*
X481944D01*
X486884D02*
X490475D01*
X492409D02*
X502582D01*
X507359D02*
X508025D01*
X481359Y459393D02*
X482025D01*
X486884D02*
X490475D01*
X492409D02*
X502582D01*
X507359D02*
X508025D01*
X481440Y459474D02*
X482025D01*
X486965D02*
X490556D01*
X492490D02*
X502500D01*
X507278D02*
X507944D01*
X481440Y459555D02*
X482106D01*
X486965D02*
X490556D01*
X492490D02*
X502419D01*
X507278D02*
X507863D01*
X481522Y459636D02*
X482106D01*
X487046D02*
X490638D01*
X492571D02*
X502419D01*
X507197D02*
X507863D01*
X481522Y459718D02*
X482188D01*
X487128D02*
X490638D01*
X492571D02*
X502338D01*
X507115D02*
X507782D01*
X481603Y459799D02*
X482269D01*
X487128D02*
X490638D01*
X492653D02*
X502338D01*
X507115D02*
X507700D01*
X481684Y459880D02*
X482269D01*
X487209D02*
X490719D01*
X492653D02*
X502256D01*
X507034D02*
X507700D01*
X481684Y459961D02*
X482350D01*
X487209D02*
X490719D01*
X492734D02*
X502175D01*
X507034D02*
X507619D01*
X481765Y460043D02*
X482350D01*
X487290D02*
X490800D01*
X492734D02*
X502175D01*
X506953D02*
X507619D01*
X481765Y460124D02*
X482432D01*
X487290D02*
X490800D01*
X492815D02*
X502094D01*
X506872D02*
X507538D01*
X481847Y460205D02*
X482513D01*
X487371D02*
X490881D01*
X492815D02*
X502094D01*
X506872D02*
X507456D01*
X481928Y460286D02*
X482513D01*
X487453D02*
X490881D01*
X492897D02*
X502013D01*
X506790D02*
X507456D01*
X481928Y460368D02*
X482594D01*
X487453D02*
X490881D01*
X492897D02*
X501931D01*
X506709D02*
X507375D01*
X482009Y460449D02*
X482594D01*
X487534D02*
X490963D01*
X492978D02*
X501931D01*
X506709D02*
X507375D01*
X482009Y460530D02*
X482675D01*
X487534D02*
X490963D01*
X492978D02*
X501850D01*
X506628D02*
X507294D01*
X482090Y460611D02*
X482757D01*
X487615D02*
X491044D01*
X493059D02*
X501850D01*
X506628D02*
X507213D01*
X482171Y460693D02*
X482757D01*
X487615D02*
X491044D01*
X493140D02*
X501769D01*
X506546D02*
X507213D01*
X482171Y460774D02*
X482838D01*
X487697D02*
X491044D01*
X493140D02*
X501688D01*
X506465D02*
X507131D01*
X482253Y460855D02*
X482838D01*
X487778D02*
X491125D01*
X493222D02*
X501688D01*
X506465D02*
X507131D01*
X482253Y460936D02*
X482919D01*
X487778D02*
X491125D01*
X493222D02*
X501607D01*
X506384D02*
X507050D01*
X482334Y461018D02*
X483000D01*
X487859D02*
X491207D01*
X493303D02*
X501607D01*
X506384D02*
X506969D01*
X482415Y461099D02*
X483000D01*
X487859D02*
X491207D01*
X493303D02*
X501525D01*
X506303D02*
X506969D01*
X482415Y461180D02*
X483081D01*
X487940D02*
X491207D01*
X493384D02*
X501444D01*
X506221D02*
X506888D01*
X482497Y461261D02*
X483081D01*
X487940D02*
X491288D01*
X493384D02*
X501444D01*
X506221D02*
X506888D01*
X482497Y461343D02*
X483163D01*
X488022D02*
X491288D01*
X493465D02*
X501363D01*
X506140D02*
X506807D01*
X482578Y461424D02*
X483244D01*
X488103D02*
X491369D01*
X493465D02*
X501281D01*
X506140D02*
X506725D01*
X482578Y461505D02*
X483244D01*
X488103D02*
X491369D01*
X493546D02*
X501281D01*
X506059D02*
X506725D01*
X482659Y461586D02*
X483325D01*
X488184D02*
X491369D01*
X493546D02*
X501200D01*
X505978D02*
X506644D01*
X482740Y461668D02*
X483325D01*
X488184D02*
X491450D01*
X493628D02*
X501200D01*
X505978D02*
X506644D01*
X482740Y461749D02*
X483406D01*
X488265D02*
X491450D01*
X493628D02*
X501119D01*
X505897D02*
X506563D01*
X482822Y461830D02*
X483488D01*
X488265D02*
X491532D01*
X493709D02*
X501038D01*
X505897D02*
X506482D01*
X482822Y461911D02*
X483488D01*
X488346D02*
X491532D01*
X493709D02*
X501038D01*
X505815D02*
X506482D01*
X482903Y461993D02*
X483569D01*
X488428D02*
X491613D01*
X493790D02*
X500956D01*
X505734D02*
X506400D01*
X482984Y462074D02*
X483569D01*
X488428D02*
X491613D01*
X493871D02*
X500956D01*
X505734D02*
X506400D01*
X482984Y462155D02*
X483650D01*
X488509D02*
X491613D01*
X493871D02*
X500875D01*
X505653D02*
X506319D01*
X483065Y462236D02*
X483732D01*
X488509D02*
X491694D01*
X493953D02*
X500794D01*
X505653D02*
X506238D01*
X483065Y462318D02*
X483732D01*
X488590D02*
X491694D01*
X493953D02*
X500794D01*
X505572D02*
X506238D01*
X483146Y462399D02*
X483813D01*
X488590D02*
X491775D01*
X494034D02*
X500713D01*
X505490D02*
X506156D01*
X483228Y462480D02*
X483813D01*
X488671D02*
X491775D01*
X494034D02*
X500713D01*
X505490D02*
X506075D01*
X483228Y462561D02*
X483894D01*
X488753D02*
X491775D01*
X494115D02*
X500632D01*
X505409D02*
X506075D01*
X483309Y462643D02*
X483975D01*
X488753D02*
X491856D01*
X494115D02*
X500550D01*
X505409D02*
X505994D01*
X483309Y462724D02*
X483975D01*
X488834D02*
X491856D01*
X494197D02*
X500550D01*
X505328D02*
X505994D01*
X483390Y462805D02*
X484057D01*
X488834D02*
X491938D01*
X494197D02*
X500469D01*
X505246D02*
X505913D01*
X483471Y462886D02*
X484057D01*
X488915D02*
X491938D01*
X494278D02*
X500469D01*
X505246D02*
X505831D01*
X483471Y462968D02*
X484138D01*
X488997D02*
X491938D01*
X494278D02*
X500388D01*
X505165D02*
X505831D01*
X483553Y463049D02*
X484219D01*
X488997D02*
X492019D01*
X494359D02*
X500307D01*
X505084D02*
X505750D01*
X483553Y463130D02*
X484219D01*
X489078D02*
X492019D01*
X494359D02*
X500307D01*
X505084D02*
X505750D01*
X483634Y463211D02*
X484300D01*
X489078D02*
X492100D01*
X494440D02*
X500225D01*
X505003D02*
X505669D01*
X483715Y463293D02*
X484300D01*
X489159D02*
X492100D01*
X494440D02*
X500225D01*
X505003D02*
X505588D01*
X483715Y463374D02*
X484381D01*
X489240D02*
X492100D01*
X494522D02*
X500144D01*
X504921D02*
X505588D01*
X483797Y463455D02*
X484463D01*
X489240D02*
X492181D01*
X494603D02*
X500063D01*
X504840D02*
X505507D01*
X483797Y463536D02*
X484463D01*
X489322D02*
X492181D01*
X494603D02*
X500063D01*
X504840D02*
X505507D01*
X483878Y463618D02*
X484544D01*
X489322D02*
X492263D01*
X494684D02*
X499981D01*
X504759D02*
X505425D01*
X483959Y463699D02*
X484544D01*
X489403D02*
X492263D01*
X494684D02*
X499981D01*
X504759D02*
X505344D01*
X483959Y463780D02*
X484625D01*
X489484D02*
X492263D01*
X494765D02*
X499900D01*
X504678D02*
X505344D01*
X484040Y463861D02*
X484706D01*
X489484D02*
X492344D01*
X494765D02*
X499819D01*
X504597D02*
X505263D01*
X484040Y463943D02*
X484706D01*
X489565D02*
X492344D01*
X494846D02*
X499819D01*
X504597D02*
X505263D01*
X484122Y464024D02*
X484788D01*
X489565D02*
X492425D01*
X494846D02*
X499738D01*
X504515D02*
X505182D01*
X484203Y464105D02*
X484788D01*
X489646D02*
X492425D01*
X494928D02*
X499656D01*
X504515D02*
X505100D01*
X484203Y464186D02*
X484869D01*
X489728D02*
X492507D01*
X494928D02*
X499656D01*
X504434D02*
X505100D01*
X484284Y464268D02*
X484950D01*
X489728D02*
X492507D01*
X495009D02*
X499575D01*
X504353D02*
X505019D01*
X484284Y464349D02*
X484950D01*
X489809D02*
X492507D01*
X495009D02*
X499575D01*
X504353D02*
X505019D01*
X484365Y464430D02*
X485032D01*
X489809D02*
X492588D01*
X495090D02*
X499494D01*
X504272D02*
X504938D01*
X484446Y464511D02*
X485032D01*
X489890D02*
X492588D01*
X495090D02*
X499413D01*
X504272D02*
X504856D01*
X484446Y464593D02*
X485113D01*
X489971D02*
X492669D01*
X495171D02*
X499413D01*
X504190D02*
X504856D01*
X484528Y464674D02*
X485194D01*
X489971D02*
X492669D01*
X495253D02*
X499332D01*
X504109D02*
X504775D01*
X484528Y464755D02*
X485194D01*
X490053D02*
X492669D01*
X495253D02*
X499332D01*
X504109D02*
X504775D01*
X484609Y464836D02*
X485275D01*
X490053D02*
X492750D01*
X495334D02*
X499250D01*
X504028D02*
X504694D01*
X484690Y464918D02*
X485275D01*
X490134D02*
X492750D01*
X495334D02*
X499169D01*
X504028D02*
X504613D01*
X484690Y464999D02*
X485357D01*
X490215D02*
X492832D01*
X495415D02*
X499169D01*
X503946D02*
X504613D01*
X484771Y465080D02*
X485438D01*
X490215D02*
X492832D01*
X495415D02*
X499088D01*
X503865D02*
X504531D01*
X484771Y465161D02*
X485438D01*
X490297D02*
X492832D01*
X495497D02*
X499088D01*
X503865D02*
X504450D01*
X484853Y465243D02*
X485519D01*
X490297D02*
X492913D01*
X495497D02*
X499007D01*
X503784D02*
X504450D01*
X484934Y465324D02*
X485519D01*
X490378D02*
X492913D01*
X495578D02*
X498925D01*
X503784D02*
X504369D01*
X484934Y465405D02*
X485600D01*
X490378D02*
X492994D01*
X495578D02*
X498925D01*
X503703D02*
X504369D01*
X485015Y465486D02*
X485600D01*
X490459D02*
X492994D01*
X495659D02*
X498844D01*
X503621D02*
X504288D01*
X485015Y465568D02*
X485681D01*
X490540D02*
X492994D01*
X495659D02*
X498844D01*
X503621D02*
X504207D01*
X485097Y465649D02*
X485763D01*
X490540D02*
X493075D01*
X495740D02*
X498763D01*
X503540D02*
X504207D01*
X485178Y465730D02*
X485763D01*
X490622D02*
X493075D01*
X495740D02*
X498681D01*
X503459D02*
X504125D01*
X485178Y465811D02*
X485844D01*
X490622D02*
X493156D01*
X495822D02*
X498681D01*
X503459D02*
X504125D01*
X485259Y465893D02*
X485844D01*
X490703D02*
X493156D01*
X495822D02*
X498600D01*
X503378D02*
X504044D01*
X485259Y465974D02*
X485925D01*
X490784D02*
X493238D01*
X495903D02*
X498600D01*
X503378D02*
X503963D01*
X485340Y466055D02*
X486006D01*
X490784D02*
X493238D01*
X495984D02*
X498519D01*
X503297D02*
X503963D01*
X485422Y466136D02*
X486006D01*
X490865D02*
X493238D01*
X495984D02*
X498438D01*
X503215D02*
X503882D01*
X485422Y466218D02*
X486088D01*
X490865D02*
X493319D01*
X496065D02*
X498438D01*
X503215D02*
X503882D01*
X485503Y466299D02*
X486088D01*
X490946D02*
X493319D01*
X496065D02*
X498356D01*
X503134D02*
X503800D01*
X485503Y466380D02*
X486169D01*
X491028D02*
X493400D01*
X496146D02*
X498275D01*
X503134D02*
X503719D01*
X485584Y466461D02*
X486250D01*
X491028D02*
X493481D01*
X496146D02*
X498275D01*
X503053D02*
X503719D01*
X485665Y466543D02*
X486250D01*
X491109D02*
X498194D01*
X502972D02*
X503638D01*
X485665Y466624D02*
X486332D01*
X491109D02*
X498194D01*
X502972D02*
X503638D01*
X485746Y466705D02*
X486332D01*
X491190D02*
X498113D01*
X502890D02*
X503556D01*
X485746Y466786D02*
X486413D01*
X491271D02*
X498032D01*
X502890D02*
X503475D01*
X485828Y466868D02*
X486494D01*
X491271D02*
X498032D01*
X502809D02*
X503475D01*
X485909Y466949D02*
X486494D01*
X491353D02*
X497950D01*
X502728D02*
X503394D01*
X485909Y467030D02*
X486575D01*
X491353D02*
X497950D01*
X502728D02*
X503394D01*
X485990Y467111D02*
X486575D01*
X491434D02*
X497869D01*
X502646D02*
X503313D01*
X485990Y467193D02*
X486657D01*
X491515D02*
X497788D01*
X502646D02*
X503231D01*
X486071Y467274D02*
X486738D01*
X491515D02*
X497788D01*
X502565D02*
X503231D01*
X486153Y467355D02*
X486738D01*
X491597D02*
X497707D01*
X502484D02*
X503150D01*
X486153Y467436D02*
X486819D01*
X491597D02*
X497707D01*
X502484D02*
X503150D01*
X486234Y467518D02*
X486819D01*
X491678D02*
X497625D01*
X502403D02*
X503069D01*
X486234Y467599D02*
X486900D01*
X491759D02*
X497544D01*
X502403D02*
X502988D01*
X486315Y467680D02*
X486981D01*
X491759D02*
X497544D01*
X502321D02*
X502988D01*
X486315Y467761D02*
X486981D01*
X491840D02*
X497463D01*
X502240D02*
X502907D01*
X486397Y467843D02*
X487063D01*
X491840D02*
X497463D01*
X502240D02*
X502825D01*
X486478Y467924D02*
X487063D01*
X491922D02*
X497381D01*
X502159D02*
X502825D01*
X486478Y468005D02*
X487144D01*
X492003D02*
X497300D01*
X502159D02*
X502744D01*
X486559Y468086D02*
X487225D01*
X492003D02*
X497300D01*
X502078D02*
X502744D01*
X486559Y468168D02*
X487225D01*
X492084D02*
X497219D01*
X501997D02*
X502663D01*
X486640Y468249D02*
X487306D01*
X492084D02*
X497219D01*
X501997D02*
X502582D01*
X486722Y468330D02*
X487306D01*
X492165D02*
X497138D01*
X501915D02*
X502582D01*
X486722Y468411D02*
X487388D01*
X492246D02*
X497056D01*
X501834D02*
X502500D01*
X486803Y468493D02*
X487469D01*
X492246D02*
X497056D01*
X501834D02*
X502500D01*
X486803Y468574D02*
X487469D01*
X492328D02*
X496975D01*
X501753D02*
X502419D01*
X486884Y468655D02*
X487550D01*
X492328D02*
X496975D01*
X501753D02*
X502338D01*
X486965Y468736D02*
X487550D01*
X492409D02*
X496894D01*
X501672D02*
X502338D01*
X486965Y468818D02*
X487632D01*
X492490D02*
X496813D01*
X501590D02*
X502256D01*
X487046Y468899D02*
X487713D01*
X492490D02*
X496813D01*
X501590D02*
X502256D01*
X487046Y468980D02*
X487713D01*
X492571D02*
X496732D01*
X501509D02*
X502175D01*
X487128Y469061D02*
X487794D01*
X492571D02*
X496650D01*
X501509D02*
X502094D01*
X487209Y469143D02*
X487794D01*
X492653D02*
X496650D01*
X501428D02*
X502094D01*
X487209Y469224D02*
X487875D01*
X492734D02*
X496569D01*
X501346D02*
X502013D01*
X487290Y469305D02*
X487956D01*
X492734D02*
X496569D01*
X501346D02*
X502013D01*
X487290Y469386D02*
X487956D01*
X492815D02*
X496488D01*
X501265D02*
X501931D01*
X487371Y469468D02*
X488038D01*
X492815D02*
X496407D01*
X501265D02*
X501850D01*
X487453Y469549D02*
X488038D01*
X492897D02*
X496407D01*
X501184D02*
X501850D01*
X487453Y469630D02*
X488119D01*
X492978D02*
X496325D01*
X501103D02*
X501769D01*
X487534Y469711D02*
X488200D01*
X492978D02*
X496325D01*
X501103D02*
X501769D01*
X487534Y469793D02*
X488200D01*
X493059D02*
X496244D01*
X501021D02*
X501688D01*
X487615Y469874D02*
X488281D01*
X493059D02*
X496163D01*
X501021D02*
X501607D01*
X487697Y469955D02*
X488281D01*
X493140D02*
X496163D01*
X500940D02*
X501607D01*
X487697Y470036D02*
X488363D01*
X493222D02*
X496081D01*
X500859D02*
X501525D01*
X487778Y470118D02*
X488444D01*
X493222D02*
X496081D01*
X500859D02*
X501525D01*
X487778Y470199D02*
X488444D01*
X493303D02*
X496000D01*
X500778D02*
X501444D01*
X487859Y470280D02*
X488525D01*
X493303D02*
X495919D01*
X500778D02*
X501363D01*
X487940Y470361D02*
X488525D01*
X493384D02*
X495919D01*
X500697D02*
X501363D01*
X487940Y470443D02*
X488607D01*
X493465D02*
X495838D01*
X500615D02*
X501281D01*
X488022Y470524D02*
X488688D01*
X493465D02*
X495838D01*
X500615D02*
X501200D01*
X488022Y470605D02*
X488688D01*
X493546D02*
X495756D01*
X500534D02*
X501200D01*
X488103Y470686D02*
X488769D01*
X493546D02*
X495675D01*
X500534D02*
X501119D01*
X488184Y470768D02*
X488769D01*
X493628D02*
X495675D01*
X500453D02*
X501119D01*
X488184Y470849D02*
X488850D01*
X493709D02*
X495594D01*
X500372D02*
X501038D01*
X488265Y470930D02*
X488932D01*
X493709D02*
X495594D01*
X500372D02*
X500956D01*
X488265Y471011D02*
X488932D01*
X493790D02*
X495513D01*
X500290D02*
X500956D01*
X488346Y471093D02*
X489013D01*
X493790D02*
X495432D01*
X500209D02*
X500875D01*
X488428Y471174D02*
X489013D01*
X493871D02*
X495432D01*
X500209D02*
X500875D01*
X488428Y471255D02*
X489094D01*
X493953D02*
X495350D01*
X500128D02*
X500794D01*
X488509Y471336D02*
X489175D01*
X493953D02*
X495269D01*
X500128D02*
X500713D01*
X488509Y471418D02*
X489175D01*
X494034D02*
X495269D01*
X500046D02*
X500713D01*
X488590Y471499D02*
X489256D01*
X494034D02*
X495188D01*
X499965D02*
X500632D01*
X488671Y471580D02*
X489256D01*
X494115D02*
X495188D01*
X499965D02*
X500632D01*
X488671Y471661D02*
X489338D01*
X494197D02*
X495107D01*
X499884D02*
X500550D01*
X488753Y471743D02*
X489338D01*
X494197D02*
X495025D01*
X499884D02*
X500469D01*
X488753Y471824D02*
X489419D01*
X494278D02*
X495025D01*
X499803D02*
X500469D01*
X488834Y471905D02*
X489500D01*
X494278D02*
X494944D01*
X499721D02*
X500388D01*
X488915Y471986D02*
X489500D01*
X494359D02*
X494944D01*
X499721D02*
X500388D01*
X488915Y472068D02*
X489581D01*
X494359D02*
X494863D01*
X499640D02*
X500307D01*
X488997Y472149D02*
X489581D01*
X494440D02*
X494781D01*
X499640D02*
X500225D01*
X488997Y472230D02*
X489663D01*
X494522D02*
X494781D01*
X499559D02*
X500225D01*
X489078Y472311D02*
X489744D01*
X494522D02*
X494700D01*
X499478D02*
X500144D01*
X489159Y472393D02*
X489744D01*
X494603D02*
X494700D01*
X499478D02*
X500144D01*
X489159Y472474D02*
X489825D01*
X494603D02*
X494619D01*
X499397D02*
X500063D01*
X489240Y472555D02*
X489825D01*
X499397D02*
X499981D01*
X489240Y472636D02*
X489907D01*
X499315D02*
X499981D01*
X489322Y472718D02*
X489988D01*
X499234D02*
X499900D01*
X489403Y472799D02*
X489988D01*
X499234D02*
X499900D01*
X489403Y472880D02*
X490069D01*
X499153D02*
X499819D01*
X489484Y472961D02*
X490069D01*
X499153D02*
X499738D01*
X489484Y473043D02*
X490150D01*
X499072D02*
X499738D01*
X489565Y473124D02*
X490232D01*
X498990D02*
X499656D01*
X489646Y473205D02*
X490232D01*
X498990D02*
X499575D01*
X489646Y473286D02*
X490313D01*
X498909D02*
X499575D01*
X489728Y473368D02*
X490313D01*
X498909D02*
X499494D01*
X489728Y473449D02*
X490394D01*
X498828D02*
X499494D01*
X489809Y473530D02*
X490475D01*
X498746D02*
X499413D01*
X489890Y473611D02*
X490475D01*
X498746D02*
X499332D01*
X489890Y473693D02*
X490556D01*
X498665D02*
X499332D01*
X489971Y473774D02*
X490556D01*
X498584D02*
X499250D01*
X489971Y473855D02*
X490638D01*
X498584D02*
X499250D01*
X490053Y473936D02*
X490719D01*
X498503D02*
X499169D01*
X490134Y474018D02*
X490719D01*
X498503D02*
X499088D01*
X490134Y474099D02*
X490800D01*
X498421D02*
X499088D01*
X490215Y474180D02*
X490800D01*
X498340D02*
X499007D01*
X490215Y474261D02*
X490881D01*
X498340D02*
X499007D01*
X490297Y474343D02*
X490963D01*
X498259D02*
X498925D01*
X490297Y474424D02*
X490963D01*
X498259D02*
X498844D01*
X490378Y474505D02*
X491044D01*
X498178D02*
X498844D01*
X490459Y474586D02*
X491044D01*
X498097D02*
X498763D01*
X490459Y474668D02*
X491125D01*
X498097D02*
X498763D01*
X490540Y474749D02*
X491207D01*
X498015D02*
X498681D01*
X490540Y474830D02*
X491207D01*
X498015D02*
X498600D01*
X490622Y474911D02*
X491288D01*
X497934D02*
X498600D01*
X490703Y474993D02*
X491288D01*
X497853D02*
X498519D01*
X490703Y475074D02*
X491369D01*
X497853D02*
X498519D01*
X490784Y475155D02*
X491450D01*
X497772D02*
X498438D01*
X490784Y475236D02*
X491450D01*
X497772D02*
X498356D01*
X490865Y475318D02*
X491532D01*
X497690D02*
X498356D01*
X490946Y475399D02*
X491532D01*
X497609D02*
X498275D01*
X490946Y475480D02*
X491613D01*
X497609D02*
X498275D01*
X491028Y475561D02*
X491694D01*
X497528D02*
X498194D01*
X491028Y475643D02*
X491694D01*
X497528D02*
X498113D01*
X491109Y475724D02*
X491775D01*
X497446D02*
X498113D01*
X491190Y475805D02*
X491775D01*
X497365D02*
X498032D01*
X491190Y475886D02*
X491856D01*
X497365D02*
X498032D01*
X491271Y475968D02*
X491938D01*
X497284D02*
X497950D01*
X491271Y476049D02*
X491938D01*
X497284D02*
X497869D01*
X491353Y476130D02*
X492019D01*
X497203D02*
X497869D01*
X491434Y476211D02*
X492019D01*
X497121D02*
X497788D01*
X491434Y476293D02*
X492100D01*
X497121D02*
X497707D01*
X491515Y476374D02*
X492181D01*
X497040D02*
X497707D01*
X491515Y476455D02*
X492181D01*
X496959D02*
X497625D01*
X491597Y476536D02*
X492263D01*
X496959D02*
X497625D01*
X491678Y476618D02*
X492263D01*
X496878D02*
X497544D01*
X491678Y476699D02*
X492344D01*
X496878D02*
X497463D01*
X491759Y476780D02*
X492425D01*
X496797D02*
X497463D01*
X491759Y476861D02*
X492425D01*
X496715D02*
X497381D01*
X491840Y476943D02*
X492507D01*
X496715D02*
X497381D01*
X491922Y477024D02*
X492507D01*
X496634D02*
X497300D01*
X491922Y477105D02*
X492588D01*
X496634D02*
X497219D01*
X492003Y477186D02*
X492669D01*
X496553D02*
X497219D01*
X492003Y477268D02*
X492669D01*
X496472D02*
X497138D01*
X492084Y477349D02*
X492750D01*
X496472D02*
X497138D01*
X492165Y477430D02*
X492832D01*
X496390D02*
X497056D01*
X492165Y477511D02*
X492832D01*
X496309D02*
X496975D01*
X492246Y477593D02*
X492913D01*
X496309D02*
X496975D01*
X492328Y477674D02*
X492994D01*
X496228D02*
X496894D01*
X492328Y477755D02*
X493075D01*
X496146D02*
X496813D01*
X492409Y477836D02*
X493156D01*
X496065D02*
X496813D01*
X492490Y477918D02*
X493238D01*
X495984D02*
X496732D01*
X492571Y477999D02*
X493319D01*
X495903D02*
X496650D01*
X492571Y478080D02*
X493400D01*
X495740D02*
X496569D01*
X492653Y478161D02*
X493563D01*
X495659D02*
X496488D01*
X492734Y478243D02*
X493725D01*
X495497D02*
X496407D01*
X492815Y478324D02*
X493888D01*
X495334D02*
X496325D01*
X492897Y478405D02*
X494050D01*
X495090D02*
X496244D01*
X493059Y478486D02*
X496163D01*
X493140Y478568D02*
X496081D01*
X493222Y478649D02*
X495919D01*
X493384Y478730D02*
X495838D01*
X493546Y478811D02*
X495675D01*
X493709Y478893D02*
X495513D01*
X493953Y478974D02*
X495269D01*
X494359Y479055D02*
X494781D01*
D34*
X737402Y590462D02*
X742067D01*
X739734D01*
Y583465D01*
X747898Y590462D02*
X745566D01*
X744399Y589296D01*
Y584631D01*
X745566Y583465D01*
X747898D01*
X749064Y584631D01*
Y589296D01*
X747898Y590462D01*
X751397Y583465D02*
Y590462D01*
X754896D01*
X756062Y589296D01*
Y586963D01*
X754896Y585797D01*
X751397D01*
X768891Y590462D02*
X766559D01*
X765392Y589296D01*
Y584631D01*
X766559Y583465D01*
X768891D01*
X770058Y584631D01*
Y589296D01*
X768891Y590462D01*
X772390D02*
Y585797D01*
X774723Y583465D01*
X777055Y585797D01*
Y590462D01*
X784053D02*
X779388D01*
Y583465D01*
X784053D01*
X779388Y586963D02*
X781721D01*
X786386Y583465D02*
Y590462D01*
X789885D01*
X791051Y589296D01*
Y586963D01*
X789885Y585797D01*
X786386D01*
X788718D02*
X791051Y583465D01*
X793384Y590462D02*
Y583465D01*
X798049D01*
X800381D02*
Y588130D01*
X802714Y590462D01*
X805046Y588130D01*
Y583465D01*
Y586963D01*
X800381D01*
X807379Y590462D02*
Y589296D01*
X809711Y586963D01*
X812044Y589296D01*
Y590462D01*
X809711Y586963D02*
Y583465D01*
D35*
X507664Y624331D02*
X505998Y625997D01*
X502666D01*
X501000Y624331D01*
Y617666D01*
X502666Y616000D01*
X505998D01*
X507664Y617666D01*
X515995Y625997D02*
X512663D01*
X510997Y624331D01*
Y617666D01*
X512663Y616000D01*
X515995D01*
X517661Y617666D01*
Y624331D01*
X515995Y625997D01*
X520994Y616000D02*
Y625997D01*
X527658Y616000D01*
Y625997D01*
X530990D02*
X537655D01*
X534323D01*
Y616000D01*
X540987D02*
Y625997D01*
X545986D01*
X547652Y624331D01*
Y620998D01*
X545986Y619332D01*
X540987D01*
X544319D02*
X547652Y616000D01*
X555982Y625997D02*
X552650D01*
X550984Y624331D01*
Y617666D01*
X552650Y616000D01*
X555982D01*
X557648Y617666D01*
Y624331D01*
X555982Y625997D01*
X560981D02*
Y616000D01*
X567645D01*
X587639Y624331D02*
X585972Y625997D01*
X582640D01*
X580974Y624331D01*
Y622664D01*
X582640Y620998D01*
X585972D01*
X587639Y619332D01*
Y617666D01*
X585972Y616000D01*
X582640D01*
X580974Y617666D01*
X590971Y625997D02*
Y624331D01*
X594303Y620998D01*
X597635Y624331D01*
Y625997D01*
X594303Y620998D02*
Y616000D01*
X607632Y624331D02*
X605966Y625997D01*
X602634D01*
X600968Y624331D01*
Y622664D01*
X602634Y620998D01*
X605966D01*
X607632Y619332D01*
Y617666D01*
X605966Y616000D01*
X602634D01*
X600968Y617666D01*
X610964Y625997D02*
X617629D01*
X614297D01*
Y616000D01*
X627626Y625997D02*
X620961D01*
Y616000D01*
X627626D01*
X620961Y620998D02*
X624294D01*
X630958Y616000D02*
Y625997D01*
X634290Y622664D01*
X637622Y625997D01*
Y616000D01*
X647619Y624331D02*
X645953Y625997D01*
X642621D01*
X640955Y624331D01*
Y622664D01*
X642621Y620998D01*
X645953D01*
X647619Y619332D01*
Y617666D01*
X645953Y616000D01*
X642621D01*
X640955Y617666D01*
X545665Y640331D02*
X543998Y641997D01*
X540666D01*
X539000Y640331D01*
Y638664D01*
X540666Y636998D01*
X543998D01*
X545665Y635332D01*
Y633666D01*
X543998Y632000D01*
X540666D01*
X539000Y633666D01*
X548997Y641997D02*
X552329D01*
X550663D01*
Y632000D01*
X548997D01*
X552329D01*
X557327D02*
Y641997D01*
X560660Y638664D01*
X563992Y641997D01*
Y632000D01*
X573989Y640331D02*
X572323Y641997D01*
X568990D01*
X567324Y640331D01*
Y633666D01*
X568990Y632000D01*
X572323D01*
X573989Y633666D01*
X582319Y641997D02*
X578987D01*
X577321Y640331D01*
Y633666D01*
X578987Y632000D01*
X582319D01*
X583986Y633666D01*
Y640331D01*
X582319Y641997D01*
X587318Y632000D02*
Y641997D01*
X593982Y632000D01*
Y641997D01*
X603979Y640331D02*
X602313Y641997D01*
X598981D01*
X597315Y640331D01*
Y638664D01*
X598981Y636998D01*
X602313D01*
X603979Y635332D01*
Y633666D01*
X602313Y632000D01*
X598981D01*
X597315Y633666D01*
M02*
