%FSLAX25Y25*%
%MOIN*%
G70*
G01*
G75*
G04 Layer_Color=16711935*
%ADD10C,0.04000*%
%ADD11C,0.00800*%
%ADD12C,0.01200*%
%ADD13C,0.09000*%
%ADD14R,0.07500X0.09000*%
%ADD15O,0.06000X0.07500*%
%ADD16O,0.07500X0.09000*%
%ADD17C,0.19685*%
%ADD18C,0.11811*%
%ADD19O,0.12000X0.13000*%
%ADD20C,0.07500*%
%ADD21R,0.07500X0.07500*%
%ADD22R,0.12000X0.13000*%
%ADD23O,0.09000X0.07500*%
%ADD24O,0.09000X0.06000*%
%ADD25R,0.09000X0.07500*%
%ADD26C,0.10000*%
%ADD27C,0.03600*%
%ADD28C,0.03000*%
%ADD29C,0.01600*%
%ADD30R,0.27559X0.35433*%
%ADD31R,0.19685X0.35433*%
%ADD32C,0.01000*%
%ADD33C,0.00400*%
%ADD34C,0.01400*%
%ADD35C,0.02000*%
%ADD36C,0.09800*%
%ADD37R,0.08300X0.09800*%
%ADD38O,0.06800X0.08300*%
%ADD39O,0.08300X0.09800*%
%ADD40C,0.20485*%
%ADD41C,0.12611*%
%ADD42O,0.12800X0.13800*%
%ADD43C,0.08300*%
%ADD44R,0.08300X0.08300*%
%ADD45R,0.12800X0.13800*%
%ADD46O,0.09800X0.08300*%
%ADD47O,0.09800X0.06800*%
%ADD48R,0.09800X0.08300*%
%ADD49C,0.10800*%
%ADD50C,0.00787*%
%ADD51R,0.07874X0.03937*%
D12*
X773622Y450486D02*
X777621D01*
X775621D01*
Y444488D01*
X782619Y450486D02*
X780620D01*
X779620Y449487D01*
Y445488D01*
X780620Y444488D01*
X782619D01*
X783619Y445488D01*
Y449487D01*
X782619Y450486D01*
X785618Y444488D02*
Y450486D01*
X788617D01*
X789617Y449487D01*
Y447487D01*
X788617Y446488D01*
X785618D01*
X797614Y450486D02*
Y444488D01*
X801613D01*
X807611Y450486D02*
X803612D01*
Y444488D01*
X807611D01*
X803612Y447487D02*
X805612D01*
X813609Y449487D02*
X812609Y450486D01*
X810610D01*
X809610Y449487D01*
Y445488D01*
X810610Y444488D01*
X812609D01*
X813609Y445488D01*
Y447487D01*
X811610D01*
X819607Y450486D02*
X815609D01*
Y444488D01*
X819607D01*
X815609Y447487D02*
X817608D01*
X821607Y444488D02*
Y450486D01*
X825605Y444488D01*
Y450486D01*
X827605D02*
Y444488D01*
X830604D01*
X831603Y445488D01*
Y449487D01*
X830604Y450486D01*
X827605D01*
X774409Y415447D02*
Y409449D01*
X777409D01*
X778408Y410449D01*
Y411448D01*
X777409Y412448D01*
X774409D01*
X777409D01*
X778408Y413448D01*
Y414447D01*
X777409Y415447D01*
X774409D01*
X783406D02*
X781407D01*
X780407Y414447D01*
Y410449D01*
X781407Y409449D01*
X783406D01*
X784406Y410449D01*
Y414447D01*
X783406Y415447D01*
X786406D02*
X790404D01*
X788405D01*
Y409449D01*
X792404Y415447D02*
X796402D01*
X794403D01*
Y409449D01*
X801401Y415447D02*
X799401D01*
X798402Y414447D01*
Y410449D01*
X799401Y409449D01*
X801401D01*
X802400Y410449D01*
Y414447D01*
X801401Y415447D01*
X804400Y409449D02*
Y415447D01*
X806399Y413448D01*
X808399Y415447D01*
Y409449D01*
X820395Y414447D02*
X819395Y415447D01*
X817396D01*
X816396Y414447D01*
Y413448D01*
X817396Y412448D01*
X819395D01*
X820395Y411448D01*
Y410449D01*
X819395Y409449D01*
X817396D01*
X816396Y410449D01*
X825393Y415447D02*
X823394D01*
X822394Y414447D01*
Y410449D01*
X823394Y409449D01*
X825393D01*
X826393Y410449D01*
Y414447D01*
X825393Y415447D01*
X828392D02*
Y409449D01*
X832391D01*
X834390Y415447D02*
Y409449D01*
X837389D01*
X838389Y410449D01*
Y414447D01*
X837389Y415447D01*
X834390D01*
X844387D02*
X840388D01*
Y409449D01*
X844387D01*
X840388Y412448D02*
X842387D01*
X846386Y409449D02*
Y415447D01*
X849385D01*
X850385Y414447D01*
Y412448D01*
X849385Y411448D01*
X846386D01*
X848386D02*
X850385Y409449D01*
X774409Y439069D02*
X778408D01*
X776409D01*
Y433071D01*
X783406Y439069D02*
X781407D01*
X780407Y438069D01*
Y434071D01*
X781407Y433071D01*
X783406D01*
X784406Y434071D01*
Y438069D01*
X783406Y439069D01*
X786406Y433071D02*
Y439069D01*
X789405D01*
X790404Y438069D01*
Y436070D01*
X789405Y435070D01*
X786406D01*
X802400Y438069D02*
X801401Y439069D01*
X799401D01*
X798402Y438069D01*
Y437070D01*
X799401Y436070D01*
X801401D01*
X802400Y435070D01*
Y434071D01*
X801401Y433071D01*
X799401D01*
X798402Y434071D01*
X807399Y439069D02*
X805399D01*
X804400Y438069D01*
Y434071D01*
X805399Y433071D01*
X807399D01*
X808399Y434071D01*
Y438069D01*
X807399Y439069D01*
X810398D02*
Y433071D01*
X814396D01*
X816396Y439069D02*
Y433071D01*
X819395D01*
X820395Y434071D01*
Y438069D01*
X819395Y439069D01*
X816396D01*
X826393D02*
X822394D01*
Y433071D01*
X826393D01*
X822394Y436070D02*
X824393D01*
X828392Y433071D02*
Y439069D01*
X831391D01*
X832391Y438069D01*
Y436070D01*
X831391Y435070D01*
X828392D01*
X830391D02*
X832391Y433071D01*
X773622Y462297D02*
X777621D01*
X775621D01*
Y456299D01*
X782619Y462297D02*
X780620D01*
X779620Y461298D01*
Y457299D01*
X780620Y456299D01*
X782619D01*
X783619Y457299D01*
Y461298D01*
X782619Y462297D01*
X785618Y456299D02*
Y462297D01*
X788617D01*
X789617Y461298D01*
Y459298D01*
X788617Y458299D01*
X785618D01*
X797614Y462297D02*
Y456299D01*
X801613D01*
X803612D02*
Y460298D01*
X805612Y462297D01*
X807611Y460298D01*
Y456299D01*
Y459298D01*
X803612D01*
X809610Y462297D02*
Y461298D01*
X811610Y459298D01*
X813609Y461298D01*
Y462297D01*
X811610Y459298D02*
Y456299D01*
X819607Y462297D02*
X815609D01*
Y456299D01*
X819607D01*
X815609Y459298D02*
X817608D01*
X821607Y456299D02*
Y462297D01*
X824606D01*
X825605Y461298D01*
Y459298D01*
X824606Y458299D01*
X821607D01*
X823606D02*
X825605Y456299D01*
X837601Y461298D02*
X836602Y462297D01*
X834602D01*
X833603Y461298D01*
Y457299D01*
X834602Y456299D01*
X836602D01*
X837601Y457299D01*
X839601Y462297D02*
Y457299D01*
X840600Y456299D01*
X842600D01*
X843599Y457299D01*
Y462297D01*
X775197Y426864D02*
Y420866D01*
X778196D01*
X779196Y421866D01*
Y422865D01*
X778196Y423865D01*
X775197D01*
X778196D01*
X779196Y424865D01*
Y425865D01*
X778196Y426864D01*
X775197D01*
X784194D02*
X782195D01*
X781195Y425865D01*
Y421866D01*
X782195Y420866D01*
X784194D01*
X785194Y421866D01*
Y425865D01*
X784194Y426864D01*
X787193D02*
X791192D01*
X789192D01*
Y420866D01*
X793191Y426864D02*
X797190D01*
X795190D01*
Y420866D01*
X802188Y426864D02*
X800189D01*
X799189Y425865D01*
Y421866D01*
X800189Y420866D01*
X802188D01*
X803188Y421866D01*
Y425865D01*
X802188Y426864D01*
X805187Y420866D02*
Y426864D01*
X807187Y424865D01*
X809186Y426864D01*
Y420866D01*
X817183Y426864D02*
Y420866D01*
X821182D01*
X827180Y426864D02*
X823181D01*
Y420866D01*
X827180D01*
X823181Y423865D02*
X825181D01*
X833178Y425865D02*
X832178Y426864D01*
X830179D01*
X829179Y425865D01*
Y421866D01*
X830179Y420866D01*
X832178D01*
X833178Y421866D01*
Y423865D01*
X831179D01*
X839176Y426864D02*
X835177D01*
Y420866D01*
X839176D01*
X835177Y423865D02*
X837177D01*
X841175Y420866D02*
Y426864D01*
X845174Y420866D01*
Y426864D01*
X847174D02*
Y420866D01*
X850173D01*
X851172Y421866D01*
Y425865D01*
X850173Y426864D01*
X847174D01*
X774500Y403711D02*
Y397713D01*
X777499D01*
X778499Y398712D01*
Y399712D01*
X777499Y400712D01*
X774500D01*
X777499D01*
X778499Y401711D01*
Y402711D01*
X777499Y403711D01*
X774500D01*
X783497D02*
X781498D01*
X780498Y402711D01*
Y398712D01*
X781498Y397713D01*
X783497D01*
X784497Y398712D01*
Y402711D01*
X783497Y403711D01*
X786496D02*
X790495D01*
X788495D01*
Y397713D01*
X792494Y403711D02*
X796493D01*
X794493D01*
Y397713D01*
X801491Y403711D02*
X799492D01*
X798492Y402711D01*
Y398712D01*
X799492Y397713D01*
X801491D01*
X802491Y398712D01*
Y402711D01*
X801491Y403711D01*
X804490Y397713D02*
Y403711D01*
X806490Y401711D01*
X808489Y403711D01*
Y397713D01*
X816486Y403711D02*
Y397713D01*
X820485D01*
X822484D02*
Y401711D01*
X824484Y403711D01*
X826483Y401711D01*
Y397713D01*
Y400712D01*
X822484D01*
X828483Y403711D02*
Y402711D01*
X830482Y400712D01*
X832481Y402711D01*
Y403711D01*
X830482Y400712D02*
Y397713D01*
X838479Y403711D02*
X834481D01*
Y397713D01*
X838479D01*
X834481Y400712D02*
X836480D01*
X840479Y397713D02*
Y403711D01*
X843478D01*
X844477Y402711D01*
Y400712D01*
X843478Y399712D01*
X840479D01*
X842478D02*
X844477Y397713D01*
X856474Y402711D02*
X855474Y403711D01*
X853475D01*
X852475Y402711D01*
Y398712D01*
X853475Y397713D01*
X855474D01*
X856474Y398712D01*
X858473Y403711D02*
Y398712D01*
X859472Y397713D01*
X861472D01*
X862472Y398712D01*
Y403711D01*
X742913Y477864D02*
Y470866D01*
X747578D01*
X749911D02*
Y475531D01*
X752244Y477864D01*
X754576Y475531D01*
Y470866D01*
Y474365D01*
X749911D01*
X756909Y477864D02*
Y476698D01*
X759241Y474365D01*
X761574Y476698D01*
Y477864D01*
X759241Y474365D02*
Y470866D01*
X768572Y477864D02*
X763907D01*
Y470866D01*
X768572D01*
X763907Y474365D02*
X766239D01*
X770904Y470866D02*
Y477864D01*
X774403D01*
X775569Y476698D01*
Y474365D01*
X774403Y473199D01*
X770904D01*
X773237D02*
X775569Y470866D01*
X782567Y476698D02*
X781401Y477864D01*
X779068D01*
X777902Y476698D01*
Y475531D01*
X779068Y474365D01*
X781401D01*
X782567Y473199D01*
Y472032D01*
X781401Y470866D01*
X779068D01*
X777902Y472032D01*
X791898Y477864D02*
X796563D01*
X794230D01*
Y470866D01*
X802394Y477864D02*
X800062D01*
X798895Y476698D01*
Y472032D01*
X800062Y470866D01*
X802394D01*
X803561Y472032D01*
Y476698D01*
X802394Y477864D01*
X812891Y470866D02*
Y477864D01*
X816390D01*
X817556Y476698D01*
Y474365D01*
X816390Y473199D01*
X812891D01*
X819888Y470866D02*
Y477864D01*
X823387D01*
X824554Y476698D01*
Y474365D01*
X823387Y473199D01*
X819888D01*
X822221D02*
X824554Y470866D01*
X826886Y477864D02*
X829219D01*
X828053D01*
Y470866D01*
X826886D01*
X829219D01*
X832718D02*
Y477864D01*
X837383Y470866D01*
Y477864D01*
X839715D02*
X844381D01*
X842048D01*
Y470866D01*
X846713Y475531D02*
X847880D01*
Y474365D01*
X846713D01*
Y475531D01*
Y472032D02*
X847880D01*
Y470866D01*
X846713D01*
Y472032D01*
X742824Y520773D02*
Y527770D01*
X746323D01*
X747490Y526604D01*
Y524271D01*
X746323Y523105D01*
X742824D01*
X754487Y526604D02*
X753321Y527770D01*
X750988D01*
X749822Y526604D01*
Y521939D01*
X750988Y520773D01*
X753321D01*
X754487Y521939D01*
X756820Y527770D02*
Y520773D01*
X760319D01*
X761485Y521939D01*
Y523105D01*
X760319Y524271D01*
X756820D01*
X760319D01*
X761485Y525438D01*
Y526604D01*
X760319Y527770D01*
X756820D01*
X763818Y525438D02*
X764984D01*
Y524271D01*
X763818D01*
Y525438D01*
Y521939D02*
X764984D01*
Y520773D01*
X763818D01*
Y521939D01*
X781312Y527770D02*
X776647D01*
Y524271D01*
X778979D01*
X776647D01*
Y520773D01*
X783645D02*
Y527770D01*
X787143D01*
X788310Y526604D01*
Y524271D01*
X787143Y523105D01*
X783645D01*
X785977D02*
X788310Y520773D01*
X790642Y524271D02*
X795307D01*
X801139Y520773D02*
Y527770D01*
X797640Y524271D01*
X802305D01*
X742824Y507583D02*
X747490D01*
X745157D01*
Y500585D01*
X749822Y507583D02*
Y500585D01*
Y504084D01*
X754487D01*
Y507583D01*
Y500585D01*
X756820Y507583D02*
X759153D01*
X757986D01*
Y500585D01*
X756820D01*
X759153D01*
X767316Y506417D02*
X766150Y507583D01*
X763818D01*
X762651Y506417D01*
Y501751D01*
X763818Y500585D01*
X766150D01*
X767316Y501751D01*
X769649Y507583D02*
Y500585D01*
Y502918D01*
X774314Y507583D01*
X770815Y504084D01*
X774314Y500585D01*
X776647D02*
Y507583D01*
X781312Y500585D01*
Y507583D01*
X788310D02*
X783645D01*
Y500585D01*
X788310D01*
X783645Y504084D02*
X785977D01*
X795307Y506417D02*
X794141Y507583D01*
X791809D01*
X790642Y506417D01*
Y505250D01*
X791809Y504084D01*
X794141D01*
X795307Y502918D01*
Y501751D01*
X794141Y500585D01*
X791809D01*
X790642Y501751D01*
X802305Y506417D02*
X801139Y507583D01*
X798806D01*
X797640Y506417D01*
Y505250D01*
X798806Y504084D01*
X801139D01*
X802305Y502918D01*
Y501751D01*
X801139Y500585D01*
X798806D01*
X797640Y501751D01*
X804638Y505250D02*
X805804D01*
Y504084D01*
X804638D01*
Y505250D01*
Y501751D02*
X805804D01*
Y500585D01*
X804638D01*
Y501751D01*
X810469Y507583D02*
X815134D01*
Y506417D01*
X810469Y501751D01*
Y500585D01*
X822132Y507583D02*
X817467D01*
Y504084D01*
X819800Y505250D01*
X820966D01*
X822132Y504084D01*
Y501751D01*
X820966Y500585D01*
X818633D01*
X817467Y501751D01*
X824465Y500585D02*
Y507583D01*
X826797Y505250D01*
X829130Y507583D01*
Y500585D01*
X831462Y507583D02*
X833795D01*
X832629D01*
Y500585D01*
X831462D01*
X833795D01*
X841959Y506417D02*
X840793Y507583D01*
X838460D01*
X837294Y506417D01*
Y501751D01*
X838460Y500585D01*
X840793D01*
X841959Y501751D01*
X844292Y500585D02*
Y507583D01*
X847791D01*
X848957Y506417D01*
Y504084D01*
X847791Y502918D01*
X844292D01*
X846624D02*
X848957Y500585D01*
X854788Y507583D02*
X852456D01*
X851289Y506417D01*
Y501751D01*
X852456Y500585D01*
X854788D01*
X855954Y501751D01*
Y506417D01*
X854788Y507583D01*
X858287Y500585D02*
Y507583D01*
X862952Y500585D01*
Y507583D01*
X869950Y506417D02*
X868784Y507583D01*
X866451D01*
X865285Y506417D01*
Y505250D01*
X866451Y504084D01*
X868784D01*
X869950Y502918D01*
Y501751D01*
X868784Y500585D01*
X866451D01*
X865285Y501751D01*
X742824Y540960D02*
Y547958D01*
X746323D01*
X747490Y546792D01*
Y544459D01*
X746323Y543293D01*
X742824D01*
X754487Y546792D02*
X753321Y547958D01*
X750988D01*
X749822Y546792D01*
Y542126D01*
X750988Y540960D01*
X753321D01*
X754487Y542126D01*
X756820Y547958D02*
Y540960D01*
X760319D01*
X761485Y542126D01*
Y543293D01*
X760319Y544459D01*
X756820D01*
X760319D01*
X761485Y545625D01*
Y546792D01*
X760319Y547958D01*
X756820D01*
X770815D02*
X773148D01*
X771982D01*
Y540960D01*
X770815D01*
X773148D01*
X776647D02*
Y547958D01*
X781312Y540960D01*
Y547958D01*
X788310D02*
X783645D01*
Y544459D01*
X785977D01*
X783645D01*
Y540960D01*
X794141Y547958D02*
X791809D01*
X790642Y546792D01*
Y542126D01*
X791809Y540960D01*
X794141D01*
X795307Y542126D01*
Y546792D01*
X794141Y547958D01*
X797640Y540960D02*
Y547958D01*
X801139D01*
X802305Y546792D01*
Y544459D01*
X801139Y543293D01*
X797640D01*
X799973D02*
X802305Y540960D01*
X804638D02*
Y547958D01*
X806970Y545625D01*
X809303Y547958D01*
Y540960D01*
X811635D02*
Y545625D01*
X813968Y547958D01*
X816301Y545625D01*
Y540960D01*
Y544459D01*
X811635D01*
X818633Y547958D02*
X823298D01*
X820966D01*
Y540960D01*
X825631Y547958D02*
X827964D01*
X826797D01*
Y540960D01*
X825631D01*
X827964D01*
X834961Y547958D02*
X832629D01*
X831462Y546792D01*
Y542126D01*
X832629Y540960D01*
X834961D01*
X836128Y542126D01*
Y546792D01*
X834961Y547958D01*
X838460Y540960D02*
Y547958D01*
X843125Y540960D01*
Y547958D01*
X845458Y545625D02*
X846624D01*
Y544459D01*
X845458D01*
Y545625D01*
Y542126D02*
X846624D01*
Y540960D01*
X845458D01*
Y542126D01*
X744095Y566053D02*
Y559055D01*
Y561388D01*
X748760Y566053D01*
X745261Y562554D01*
X748760Y559055D01*
X755757Y566053D02*
X751092D01*
Y559055D01*
X755757D01*
X751092Y562554D02*
X753425D01*
X762755Y566053D02*
X758090D01*
Y559055D01*
X762755D01*
X758090Y562554D02*
X760423D01*
X765088Y559055D02*
Y566053D01*
X768587D01*
X769753Y564887D01*
Y562554D01*
X768587Y561388D01*
X765088D01*
X775584Y566053D02*
X773252D01*
X772086Y564887D01*
Y560221D01*
X773252Y559055D01*
X775584D01*
X776751Y560221D01*
Y564887D01*
X775584Y566053D01*
X779083D02*
Y560221D01*
X780250Y559055D01*
X782582D01*
X783748Y560221D01*
Y566053D01*
X786081D02*
X790746D01*
X788413D01*
Y559055D01*
X800076Y566053D02*
Y559055D01*
X804742D01*
X807074D02*
Y563720D01*
X809407Y566053D01*
X811739Y563720D01*
Y559055D01*
Y562554D01*
X807074D01*
X814072Y566053D02*
Y564887D01*
X816405Y562554D01*
X818737Y564887D01*
Y566053D01*
X816405Y562554D02*
Y559055D01*
X825735Y566053D02*
X821070D01*
Y559055D01*
X825735D01*
X821070Y562554D02*
X823402D01*
X828067Y559055D02*
Y566053D01*
X831566D01*
X832732Y564887D01*
Y562554D01*
X831566Y561388D01*
X828067D01*
X830400D02*
X832732Y559055D01*
X791809Y487170D02*
X796474D01*
X791809Y489502D02*
X796474D01*
X803471Y484837D02*
X798806D01*
X803471Y489502D01*
Y490669D01*
X802305Y491835D01*
X799973D01*
X798806Y490669D01*
X816301Y491835D02*
X813968D01*
X812802Y490669D01*
Y486003D01*
X813968Y484837D01*
X816301D01*
X817467Y486003D01*
Y490669D01*
X816301Y491835D01*
X819800D02*
X824465D01*
Y490669D01*
X819800Y486003D01*
Y484837D01*
X824465D01*
X448819Y366142D02*
Y373140D01*
X451152Y370807D01*
X453484Y373140D01*
Y366142D01*
X459315Y373140D02*
X456983D01*
X455817Y371973D01*
Y367308D01*
X456983Y366142D01*
X459315D01*
X460482Y367308D01*
Y371973D01*
X459315Y373140D01*
X462814D02*
Y367308D01*
X463981Y366142D01*
X466313D01*
X467480Y367308D01*
Y373140D01*
X469812Y366142D02*
Y373140D01*
X474477Y366142D01*
Y373140D01*
X476810D02*
X481475D01*
X479142D01*
Y366142D01*
X483808Y373140D02*
X486140D01*
X484974D01*
Y366142D01*
X483808D01*
X486140D01*
X489639D02*
Y373140D01*
X494304Y366142D01*
Y373140D01*
X501302Y371973D02*
X500136Y373140D01*
X497803D01*
X496637Y371973D01*
Y367308D01*
X497803Y366142D01*
X500136D01*
X501302Y367308D01*
Y369641D01*
X498969D01*
X510632Y373140D02*
Y366142D01*
Y369641D01*
X515297D01*
Y373140D01*
Y366142D01*
X521129Y373140D02*
X518796D01*
X517630Y371973D01*
Y367308D01*
X518796Y366142D01*
X521129D01*
X522295Y367308D01*
Y371973D01*
X521129Y373140D01*
X524628D02*
Y366142D01*
X529293D01*
X536291Y373140D02*
X531626D01*
Y366142D01*
X536291D01*
X531626Y369641D02*
X533958D01*
X550286Y371973D02*
X549120Y373140D01*
X546787D01*
X545621Y371973D01*
Y370807D01*
X546787Y369641D01*
X549120D01*
X550286Y368474D01*
Y367308D01*
X549120Y366142D01*
X546787D01*
X545621Y367308D01*
X552619Y373140D02*
X554951D01*
X553785D01*
Y366142D01*
X552619D01*
X554951D01*
X558450Y373140D02*
X563115D01*
Y371973D01*
X558450Y367308D01*
Y366142D01*
X563115D01*
X570113Y373140D02*
X565448D01*
Y366142D01*
X570113D01*
X565448Y369641D02*
X567780D01*
X579443Y373140D02*
X581776D01*
X580610D01*
Y366142D01*
X579443D01*
X581776D01*
X589940Y371973D02*
X588774Y373140D01*
X586441D01*
X585275Y371973D01*
Y370807D01*
X586441Y369641D01*
X588774D01*
X589940Y368474D01*
Y367308D01*
X588774Y366142D01*
X586441D01*
X585275Y367308D01*
X603935Y366142D02*
X599270D01*
X603935Y370807D01*
Y371973D01*
X602769Y373140D01*
X600437D01*
X599270Y371973D01*
X606268Y366142D02*
Y373140D01*
X608601Y370807D01*
X610933Y373140D01*
Y366142D01*
X613266D02*
Y373140D01*
X615598Y370807D01*
X617931Y373140D01*
Y366142D01*
D32*
X393701Y385827D02*
X716535D01*
Y696850D01*
X385827D02*
X716535D01*
X385827Y385827D02*
Y696850D01*
Y385827D02*
X393701D01*
X738437Y574803D02*
X884106D01*
Y388913D02*
Y574803D01*
X738437Y388913D02*
X884106D01*
X738437D02*
Y574803D01*
M02*
