%FSLAX25Y25*%
%MOIN*%
G70*
G01*
G75*
G04 Layer_Physical_Order=1*
G04 Layer_Color=255*
%ADD10C,0.04000*%
%ADD11C,0.00800*%
%ADD12C,0.01200*%
%ADD13C,0.09000*%
%ADD14R,0.07500X0.09000*%
%ADD15O,0.06000X0.07500*%
%ADD16O,0.07500X0.09000*%
%ADD17C,0.19685*%
%ADD18C,0.11811*%
%ADD19O,0.12000X0.13000*%
%ADD20C,0.07500*%
%ADD21R,0.07500X0.07500*%
%ADD22R,0.12000X0.13000*%
%ADD23O,0.09000X0.07500*%
%ADD24O,0.09000X0.06000*%
%ADD25R,0.09000X0.07500*%
%ADD26C,0.10000*%
G36*
X422500Y512000D02*
X427000D01*
X428500Y510500D01*
X431500Y507500D01*
X432909D01*
X433522Y506022D01*
X432500Y505000D01*
Y496500D01*
X429000D01*
X423000Y502500D01*
X419000Y506500D01*
X415000D01*
Y513500D01*
X421000D01*
X422500Y512000D01*
D02*
G37*
G36*
X433500Y517000D02*
X434022Y516478D01*
X433410Y515000D01*
X424000D01*
X422500Y516500D01*
X415000D01*
Y523500D01*
X422500D01*
X424500Y525500D01*
X426500Y527500D01*
X433500D01*
Y517000D01*
D02*
G37*
G36*
X428500Y489000D02*
X433500D01*
X436000Y486500D01*
X430178Y477096D01*
X428589Y476911D01*
X424500Y481000D01*
Y482500D01*
X420500Y486500D01*
X415000D01*
Y493500D01*
X424000D01*
X428500Y489000D01*
D02*
G37*
G36*
X476500Y615000D02*
X465500D01*
X459500Y609000D01*
Y426000D01*
Y415500D01*
X460500Y414500D01*
X462000Y413000D01*
X471500D01*
X473000Y414500D01*
Y423000D01*
X479332Y423422D01*
X480500Y422329D01*
Y411500D01*
X478500Y409500D01*
X474500Y405500D01*
X456500D01*
X451500Y410500D01*
X447000Y415000D01*
X433000D01*
Y427500D01*
X445500D01*
X449500Y431500D01*
X453000Y435000D01*
Y589500D01*
Y620000D01*
X456000Y623000D01*
X460500Y627500D01*
X476500D01*
Y615000D01*
D02*
G37*
G36*
X419500Y480000D02*
Y471500D01*
X423500Y467500D01*
X433500D01*
Y455000D01*
X415500D01*
X411000Y459500D01*
Y479334D01*
X412164Y480432D01*
X419500Y480000D01*
D02*
G37*
G36*
X424500Y567500D02*
X432345D01*
X433454Y566346D01*
X433000Y555000D01*
X422500D01*
X421000Y556500D01*
X412500D01*
X409500Y559500D01*
Y570500D01*
X412500Y573500D01*
X418500D01*
X424500Y567500D01*
D02*
G37*
G36*
X433454Y656154D02*
X432345Y655000D01*
X430000D01*
X428500Y653500D01*
X415500Y640500D01*
X410000D01*
X409000Y639500D01*
X407000Y637500D01*
Y616000D01*
X409500Y613500D01*
X415500D01*
Y606500D01*
X406500D01*
X397000Y616000D01*
Y621000D01*
Y639000D01*
X399000Y641000D01*
X410000Y652000D01*
Y658000D01*
X415000Y663000D01*
X419500Y667500D01*
X433000D01*
X433454Y656154D01*
D02*
G37*
G36*
X433000Y642000D02*
X439000D01*
Y636000D01*
X434500Y631500D01*
X430500D01*
X425500Y626500D01*
Y623751D01*
X425391Y623391D01*
X421000Y619000D01*
X418500Y616500D01*
X415000D01*
Y623500D01*
X420000D01*
X420500Y624000D01*
X420871Y624371D01*
X421654D01*
Y625154D01*
X422000Y625500D01*
Y629000D01*
X423000Y630000D01*
Y631500D01*
Y640000D01*
X428500Y645500D01*
X429500D01*
X433000Y642000D01*
D02*
G37*
G36*
X439000Y615500D02*
X436000Y612500D01*
X432000D01*
X429000Y609500D01*
X425000Y605500D01*
Y604000D01*
Y601500D01*
X424500Y601000D01*
X420000Y596500D01*
X415000D01*
Y603500D01*
X420000D01*
X422000Y605500D01*
Y614500D01*
X429500Y622000D01*
X439000D01*
Y615500D01*
D02*
G37*
G36*
X433500Y575000D02*
X424500D01*
X423000Y576500D01*
X415000D01*
Y583500D01*
X426000D01*
X430000Y587500D01*
X433500D01*
Y575000D01*
D02*
G37*
G36*
X439000Y597000D02*
X434000Y592000D01*
X428500D01*
X425500Y589000D01*
X423000Y586500D01*
X415500D01*
Y593500D01*
X422500D01*
X424500Y595500D01*
X427500Y598500D01*
Y602000D01*
X439000D01*
Y597000D01*
D02*
G37*
D10*
X405000Y615000D02*
G03*
X414422Y611662I8211J8211D01*
G01*
X413367Y608684D02*
G03*
X410380Y609921I-2987J-2987D01*
G01*
D02*
G03*
X413367Y611159I0J4225D01*
G01*
X479344Y544167D02*
G03*
X486173Y541339I6828J6828D01*
G01*
D02*
G03*
X479344Y538510I0J-9657D01*
G01*
Y564167D02*
G03*
X486173Y561339I6828J6828D01*
G01*
D02*
G03*
X479344Y558510I0J-9657D01*
G01*
X473687Y618510D02*
G03*
X466859Y621339I-6828J-6828D01*
G01*
D02*
G03*
X473687Y624167I0J9657D01*
G01*
X435913Y424153D02*
G03*
X442661Y421339I6748J6682D01*
G01*
D02*
G03*
X435913Y418524I0J-9496D01*
G01*
X433071Y656839D02*
G03*
X425389Y653657I0J-10864D01*
G01*
X426596Y654864D02*
G03*
X429071Y660839I-5975J5975D01*
G01*
X538009Y657461D02*
G03*
X536772Y654474I2987J-2987D01*
G01*
D02*
G03*
X535534Y657461I-4225J0D01*
G01*
X477930Y421241D02*
G03*
X476693Y418254I2987J-2987D01*
G01*
D02*
G03*
X475456Y421241I-4225J0D01*
G01*
X566500Y565500D02*
Y659177D01*
X556000Y555000D02*
X566500Y565500D01*
X527000Y555000D02*
X556000D01*
X566500Y659177D02*
X566772Y659449D01*
X471500Y408500D02*
X476693Y413693D01*
X462500Y408500D02*
X471500D01*
X449661Y421339D02*
X462500Y408500D01*
X465339Y621339D02*
X476516D01*
X456000Y612000D02*
X465339Y621339D01*
X410079Y609921D02*
X415354D01*
X405000Y615000D02*
X410079Y609921D01*
X405000Y615000D02*
Y640000D01*
X414000Y649000D01*
X420732D01*
X433071Y661339D01*
X476693Y413693D02*
Y423228D01*
X536772Y577772D02*
Y659449D01*
X520339Y561339D02*
X536772Y577772D01*
X476516Y561339D02*
X520339D01*
X513339Y541339D02*
X527000Y555000D01*
X476516Y541339D02*
X513339D01*
X433071Y421339D02*
X449339D01*
X449661D01*
X449339D02*
X456000Y428000D01*
Y612000D01*
D11*
X385827Y385827D02*
X716535D01*
Y696850D01*
X385827D02*
X716535D01*
X385827Y385827D02*
Y696850D01*
D12*
X524198Y403772D02*
X523365Y404605D01*
X521699D01*
X520866Y403772D01*
Y400439D01*
X521699Y399606D01*
X523365D01*
X524198Y400439D01*
X528364Y404605D02*
X526698D01*
X525865Y403772D01*
Y400439D01*
X526698Y399606D01*
X528364D01*
X529197Y400439D01*
Y403772D01*
X528364Y404605D01*
X530863Y399606D02*
Y404605D01*
X532529Y402939D01*
X534195Y404605D01*
Y399606D01*
X535861D02*
Y404605D01*
X538361D01*
X539193Y403772D01*
Y402106D01*
X538361Y401272D01*
X535861D01*
X543359Y404605D02*
X541693D01*
X540860Y403772D01*
Y400439D01*
X541693Y399606D01*
X543359D01*
X544192Y400439D01*
Y403772D01*
X543359Y404605D01*
X545858Y399606D02*
Y404605D01*
X549190Y399606D01*
Y404605D01*
X554189D02*
X550856D01*
Y399606D01*
X554189D01*
X550856Y402106D02*
X552523D01*
X555855Y399606D02*
Y404605D01*
X559187Y399606D01*
Y404605D01*
X560853D02*
X564185D01*
X562519D01*
Y399606D01*
X574182Y403772D02*
X573349Y404605D01*
X571683D01*
X570850Y403772D01*
Y402939D01*
X571683Y402106D01*
X573349D01*
X574182Y401272D01*
Y400439D01*
X573349Y399606D01*
X571683D01*
X570850Y400439D01*
X575848Y404605D02*
X577515D01*
X576681D01*
Y399606D01*
X575848D01*
X577515D01*
X580014Y404605D02*
Y399606D01*
X582513D01*
X583346Y400439D01*
Y403772D01*
X582513Y404605D01*
X580014D01*
X588344D02*
X585012D01*
Y399606D01*
X588344D01*
X585012Y402106D02*
X586678D01*
X738324Y693210D02*
X742990D01*
X740657D01*
Y686213D01*
X748821Y693210D02*
X746488D01*
X745322Y692044D01*
Y687379D01*
X746488Y686213D01*
X748821D01*
X749987Y687379D01*
Y692044D01*
X748821Y693210D01*
X752320Y686213D02*
Y693210D01*
X755819D01*
X756985Y692044D01*
Y689712D01*
X755819Y688545D01*
X752320D01*
X766315Y693210D02*
Y686213D01*
X770981D01*
X773313D02*
Y690878D01*
X775646Y693210D01*
X777978Y690878D01*
Y686213D01*
Y689712D01*
X773313D01*
X780311Y693210D02*
Y692044D01*
X782643Y689712D01*
X784976Y692044D01*
Y693210D01*
X782643Y689712D02*
Y686213D01*
X791974Y693210D02*
X787309D01*
Y686213D01*
X791974D01*
X787309Y689712D02*
X789641D01*
X794306Y686213D02*
Y693210D01*
X797805D01*
X798972Y692044D01*
Y689712D01*
X797805Y688545D01*
X794306D01*
X796639D02*
X798972Y686213D01*
X812967Y692044D02*
X811801Y693210D01*
X809468D01*
X808302Y692044D01*
Y687379D01*
X809468Y686213D01*
X811801D01*
X812967Y687379D01*
X815300Y693210D02*
Y687379D01*
X816466Y686213D01*
X818798D01*
X819965Y687379D01*
Y693210D01*
D13*
X552559Y594488D02*
D03*
X502559D02*
D03*
X552559Y574803D02*
D03*
X502559D02*
D03*
X645000Y455000D02*
D03*
X595000D02*
D03*
X629500Y443000D02*
D03*
X579500D02*
D03*
X582500Y522500D02*
D03*
X532500D02*
D03*
X582500Y482500D02*
D03*
X532500D02*
D03*
X645000D02*
D03*
X595000D02*
D03*
X582500Y502500D02*
D03*
X532500D02*
D03*
X645000D02*
D03*
X595000D02*
D03*
X645000Y522500D02*
D03*
X595000D02*
D03*
D14*
X636693Y423228D02*
D03*
X506772Y659449D02*
D03*
D15*
X626693Y423228D02*
D03*
X606693D02*
D03*
X586693D02*
D03*
X566693D02*
D03*
X546693D02*
D03*
X526693D02*
D03*
X506693D02*
D03*
X486693D02*
D03*
D16*
X616693D02*
D03*
X596693D02*
D03*
X576693D02*
D03*
X556693D02*
D03*
X536693D02*
D03*
X516693D02*
D03*
X496693D02*
D03*
X476693D02*
D03*
X466693D02*
D03*
X636772Y659449D02*
D03*
X626772D02*
D03*
X616772D02*
D03*
X606772D02*
D03*
X596772D02*
D03*
X586772D02*
D03*
X576772D02*
D03*
X566772D02*
D03*
X556772D02*
D03*
X546772D02*
D03*
X536772D02*
D03*
X526772D02*
D03*
X516772D02*
D03*
D17*
X397638Y429134D02*
D03*
X704724D02*
D03*
Y653543D02*
D03*
D18*
X397638D02*
D03*
D19*
X669291Y661339D02*
D03*
Y641339D02*
D03*
Y621339D02*
D03*
Y601339D02*
D03*
Y581339D02*
D03*
Y681339D02*
D03*
X433071Y401339D02*
D03*
Y661339D02*
D03*
Y641339D02*
D03*
Y621339D02*
D03*
Y601339D02*
D03*
Y581339D02*
D03*
Y561339D02*
D03*
Y541339D02*
D03*
Y521339D02*
D03*
Y501339D02*
D03*
Y481339D02*
D03*
Y461339D02*
D03*
Y441339D02*
D03*
Y421339D02*
D03*
X476516Y681339D02*
D03*
Y661339D02*
D03*
Y641339D02*
D03*
Y621339D02*
D03*
Y601339D02*
D03*
Y581339D02*
D03*
Y561339D02*
D03*
D20*
X669291D02*
D03*
Y541339D02*
D03*
Y521339D02*
D03*
Y501339D02*
D03*
Y481339D02*
D03*
Y461339D02*
D03*
Y441339D02*
D03*
Y421339D02*
D03*
D21*
Y401339D02*
D03*
D22*
X433071Y681339D02*
D03*
X476516Y541339D02*
D03*
D23*
X415354Y479921D02*
D03*
Y489921D02*
D03*
Y499921D02*
D03*
Y509921D02*
D03*
Y519921D02*
D03*
Y529921D02*
D03*
Y559921D02*
D03*
Y569921D02*
D03*
Y579921D02*
D03*
Y589921D02*
D03*
Y599921D02*
D03*
Y609921D02*
D03*
Y619921D02*
D03*
D24*
Y539921D02*
D03*
Y549921D02*
D03*
D25*
Y629921D02*
D03*
D26*
X456500Y438500D02*
D03*
Y398500D02*
D03*
X517000Y647500D02*
D03*
Y607500D02*
D03*
M02*
