M48
;Layer_Color=9474304
;FILE_FORMAT=2:5
INCH,LZ
;TYPE=PLATED
T1F00S00C0.03543
T2F00S00C0.07874
%
T01
X0465591Y0423228
X0475591
X0485591
X0495591
X0505591
X0515591
X0525591
X0535591
X0545591
X0555591
X0565591
X0575591
X0585591
X0595591
X0605591
X0615591
X0619685Y0440945
X0609685
X0599685
X0589685
X0579685
X0569685
X0559685
X0549685
X0539685
X0529685
X0519685
X0509685
X0499685
X0489685
X0479685
X0475Y0463
X05498Y04579
X05598
X05698
X05798
X05898
X05998
X06098
X06198
X06298
X0629685Y0440945
X0639685
X0635591Y0423228
X0645591
X0655591
X0625591
X05875Y04785
X0575Y0505
Y0515
Y0525
Y0535
Y0545
Y0555
Y0565
Y0575
X0605
Y0565
Y0555
Y0545
Y0535
Y0525
Y0515
Y0505
X0554Y05525
Y0608
X0502Y0594
X0482Y05735
X0624Y06085
X06115Y0622
X04655Y05974
Y05774
X04455Y05874
X0462Y05455
Y0514
X0465378Y0638547
X0455378
X0445378
X0435378
X0425378
X0465591Y0659449
X0475591
X0485591
X0495591
X0505591
X0515591
X0525591
X0535591
X0545591
X0555591
X0565591
X0575591
X0585591
X0595591
X0605591
X0615591
X0575378Y0638547
X0565378
X0555378
X0545378
X0535378
X0525378
X0515378
X0505378
X0495378
X0485378
X0475378
X0625591Y0659449
X0635591
X0645591
X0655591
T02
X0413386Y0413386
X0688976
X0413386Y0669291
X0688976
M30
