%FSLAX25Y25*%
%MOIN*%
G70*
G01*
G75*
G04 Layer_Color=2752767*
%ADD10C,0.03000*%
%ADD11C,0.01800*%
%ADD12C,0.02200*%
%ADD13C,0.00800*%
%ADD14C,0.01400*%
%ADD15C,0.01575*%
%ADD16C,0.19685*%
%ADD17O,0.07500X0.09000*%
%ADD18R,0.07500X0.09000*%
%ADD19C,0.09000*%
%ADD20R,0.09000X0.07500*%
%ADD21O,0.09000X0.07500*%
%ADD22C,0.07500*%
%ADD23C,0.09843*%
%ADD24R,0.06693X0.06693*%
%ADD25R,0.06693X0.06693*%
%ADD26C,0.01600*%
%ADD27C,0.00787*%
%ADD28C,0.01000*%
%ADD29C,0.20485*%
%ADD30O,0.08300X0.09800*%
%ADD31R,0.08300X0.09800*%
%ADD32C,0.09800*%
%ADD33R,0.09800X0.08300*%
%ADD34O,0.09800X0.08300*%
%ADD35C,0.08300*%
%ADD36R,0.07493X0.07493*%
%ADD37R,0.07493X0.07493*%
%ADD38C,0.01200*%
%ADD39P,0.10607X4X90.0*%
%ADD40C,0.00500*%
%ADD41C,0.00667*%
D40*
X697000Y514500D02*
Y518500D01*
X701000D01*
Y514500D01*
X697000D01*
X401724D02*
Y518500D01*
X405724D01*
Y514500D01*
X401724D01*
X697000Y636547D02*
Y640547D01*
X701000D01*
Y636547D01*
X697000D01*
X401724D02*
Y640547D01*
X405724D01*
Y636547D01*
X401724D01*
X413386Y667291D02*
X411386Y671291D01*
X415386D01*
X413386Y667291D01*
X688976D02*
X686976Y671291D01*
X690976D01*
X688976Y667291D01*
Y411386D02*
X686976Y415386D01*
X690976D01*
X688976Y411386D01*
X413386D02*
X411386Y415386D01*
X415386D01*
X413386Y411386D01*
D41*
X567378Y638547D02*
G03*
X567378Y638547I-2000J0D01*
G01*
X427378D02*
G03*
X427378Y638547I-2000J0D01*
G01*
X487378D02*
G03*
X487378Y638547I-2000J0D01*
G01*
X497378D02*
G03*
X497378Y638547I-2000J0D01*
G01*
X507378D02*
G03*
X507378Y638547I-2000J0D01*
G01*
X517378D02*
G03*
X517378Y638547I-2000J0D01*
G01*
X527378D02*
G03*
X527378Y638547I-2000J0D01*
G01*
X537378D02*
G03*
X537378Y638547I-2000J0D01*
G01*
X547378D02*
G03*
X547378Y638547I-2000J0D01*
G01*
X557378D02*
G03*
X557378Y638547I-2000J0D01*
G01*
X477378D02*
G03*
X477378Y638547I-2000J0D01*
G01*
X447378D02*
G03*
X447378Y638547I-2000J0D01*
G01*
X577378D02*
G03*
X577378Y638547I-2000J0D01*
G01*
X457378D02*
G03*
X457378Y638547I-2000J0D01*
G01*
X467378D02*
G03*
X467378Y638547I-2000J0D01*
G01*
X437378D02*
G03*
X437378Y638547I-2000J0D01*
G01*
X657591Y423228D02*
G03*
X657591Y423228I-2000J0D01*
G01*
X647591D02*
G03*
X647591Y423228I-2000J0D01*
G01*
X637591D02*
G03*
X637591Y423228I-2000J0D01*
G01*
X627591D02*
G03*
X627591Y423228I-2000J0D01*
G01*
X617591D02*
G03*
X617591Y423228I-2000J0D01*
G01*
X607591D02*
G03*
X607591Y423228I-2000J0D01*
G01*
X597591D02*
G03*
X597591Y423228I-2000J0D01*
G01*
X587591D02*
G03*
X587591Y423228I-2000J0D01*
G01*
X577591D02*
G03*
X577591Y423228I-2000J0D01*
G01*
X567591D02*
G03*
X567591Y423228I-2000J0D01*
G01*
X557591D02*
G03*
X557591Y423228I-2000J0D01*
G01*
X547591D02*
G03*
X547591Y423228I-2000J0D01*
G01*
X537591D02*
G03*
X537591Y423228I-2000J0D01*
G01*
X527591D02*
G03*
X527591Y423228I-2000J0D01*
G01*
X517591D02*
G03*
X517591Y423228I-2000J0D01*
G01*
X507591D02*
G03*
X507591Y423228I-2000J0D01*
G01*
X497591D02*
G03*
X497591Y423228I-2000J0D01*
G01*
X487591D02*
G03*
X487591Y423228I-2000J0D01*
G01*
X477591D02*
G03*
X477591Y423228I-2000J0D01*
G01*
X467591D02*
G03*
X467591Y423228I-2000J0D01*
G01*
X631800Y457900D02*
G03*
X631800Y457900I-2000J0D01*
G01*
X611800D02*
G03*
X611800Y457900I-2000J0D01*
G01*
X601800D02*
G03*
X601800Y457900I-2000J0D01*
G01*
X591800D02*
G03*
X591800Y457900I-2000J0D01*
G01*
X581800D02*
G03*
X581800Y457900I-2000J0D01*
G01*
X571800D02*
G03*
X571800Y457900I-2000J0D01*
G01*
X561800D02*
G03*
X561800Y457900I-2000J0D01*
G01*
X551800D02*
G03*
X551800Y457900I-2000J0D01*
G01*
X621800D02*
G03*
X621800Y457900I-2000J0D01*
G01*
X467500Y577400D02*
G03*
X467500Y577400I-2000J0D01*
G01*
Y597400D02*
G03*
X467500Y597400I-2000J0D01*
G01*
X447500Y587400D02*
G03*
X447500Y587400I-2000J0D01*
G01*
X577000Y505000D02*
G03*
X577000Y505000I-2000J0D01*
G01*
Y515000D02*
G03*
X577000Y515000I-2000J0D01*
G01*
Y525000D02*
G03*
X577000Y525000I-2000J0D01*
G01*
Y535000D02*
G03*
X577000Y535000I-2000J0D01*
G01*
Y545000D02*
G03*
X577000Y545000I-2000J0D01*
G01*
Y555000D02*
G03*
X577000Y555000I-2000J0D01*
G01*
Y565000D02*
G03*
X577000Y565000I-2000J0D01*
G01*
Y575000D02*
G03*
X577000Y575000I-2000J0D01*
G01*
X607000Y505000D02*
G03*
X607000Y505000I-2000J0D01*
G01*
Y515000D02*
G03*
X607000Y515000I-2000J0D01*
G01*
Y525000D02*
G03*
X607000Y525000I-2000J0D01*
G01*
Y535000D02*
G03*
X607000Y535000I-2000J0D01*
G01*
Y545000D02*
G03*
X607000Y545000I-2000J0D01*
G01*
Y555000D02*
G03*
X607000Y555000I-2000J0D01*
G01*
Y565000D02*
G03*
X607000Y565000I-2000J0D01*
G01*
Y575000D02*
G03*
X607000Y575000I-2000J0D01*
G01*
X504000Y594000D02*
G03*
X504000Y594000I-2000J0D01*
G01*
X484000Y573500D02*
G03*
X484000Y573500I-2000J0D01*
G01*
X464000Y545500D02*
G03*
X464000Y545500I-2000J0D01*
G01*
Y514000D02*
G03*
X464000Y514000I-2000J0D01*
G01*
X467591Y659449D02*
G03*
X467591Y659449I-2000J0D01*
G01*
X477591D02*
G03*
X477591Y659449I-2000J0D01*
G01*
X487591D02*
G03*
X487591Y659449I-2000J0D01*
G01*
X497591D02*
G03*
X497591Y659449I-2000J0D01*
G01*
X507591D02*
G03*
X507591Y659449I-2000J0D01*
G01*
X517591D02*
G03*
X517591Y659449I-2000J0D01*
G01*
X527591D02*
G03*
X527591Y659449I-2000J0D01*
G01*
X537591D02*
G03*
X537591Y659449I-2000J0D01*
G01*
X547591D02*
G03*
X547591Y659449I-2000J0D01*
G01*
X557591D02*
G03*
X557591Y659449I-2000J0D01*
G01*
X567591D02*
G03*
X567591Y659449I-2000J0D01*
G01*
X577591D02*
G03*
X577591Y659449I-2000J0D01*
G01*
X587591D02*
G03*
X587591Y659449I-2000J0D01*
G01*
X597591D02*
G03*
X597591Y659449I-2000J0D01*
G01*
X607591D02*
G03*
X607591Y659449I-2000J0D01*
G01*
X617591D02*
G03*
X617591Y659449I-2000J0D01*
G01*
X627591D02*
G03*
X627591Y659449I-2000J0D01*
G01*
X637591D02*
G03*
X637591Y659449I-2000J0D01*
G01*
X647591D02*
G03*
X647591Y659449I-2000J0D01*
G01*
X657591D02*
G03*
X657591Y659449I-2000J0D01*
G01*
X631685Y440945D02*
G03*
X631685Y440945I-2000J0D01*
G01*
X621685D02*
G03*
X621685Y440945I-2000J0D01*
G01*
X611685D02*
G03*
X611685Y440945I-2000J0D01*
G01*
X601685D02*
G03*
X601685Y440945I-2000J0D01*
G01*
X591685D02*
G03*
X591685Y440945I-2000J0D01*
G01*
X581685D02*
G03*
X581685Y440945I-2000J0D01*
G01*
X571685D02*
G03*
X571685Y440945I-2000J0D01*
G01*
X561685D02*
G03*
X561685Y440945I-2000J0D01*
G01*
X551685D02*
G03*
X551685Y440945I-2000J0D01*
G01*
X541685D02*
G03*
X541685Y440945I-2000J0D01*
G01*
X531685D02*
G03*
X531685Y440945I-2000J0D01*
G01*
X521685D02*
G03*
X521685Y440945I-2000J0D01*
G01*
X511685D02*
G03*
X511685Y440945I-2000J0D01*
G01*
X501685D02*
G03*
X501685Y440945I-2000J0D01*
G01*
X491685D02*
G03*
X491685Y440945I-2000J0D01*
G01*
X481685D02*
G03*
X481685Y440945I-2000J0D01*
G01*
X641685D02*
G03*
X641685Y440945I-2000J0D01*
G01*
X613500Y622000D02*
G03*
X613500Y622000I-2000J0D01*
G01*
X626000Y608500D02*
G03*
X626000Y608500I-2000J0D01*
G01*
X556000Y552500D02*
G03*
X556000Y552500I-2000J0D01*
G01*
X589500Y478500D02*
G03*
X589500Y478500I-2000J0D01*
G01*
X477000Y463000D02*
G03*
X477000Y463000I-2000J0D01*
G01*
X556000Y608000D02*
G03*
X556000Y608000I-2000J0D01*
G01*
M02*
