%FSLAX25Y25*%
%MOIN*%
G70*
G01*
G75*
G04 Layer_Color=65535*
%ADD10C,0.03000*%
%ADD11C,0.01800*%
%ADD12C,0.02200*%
%ADD13C,0.00800*%
%ADD14C,0.01400*%
%ADD15C,0.01575*%
%ADD16C,0.19685*%
%ADD17O,0.07500X0.09000*%
%ADD18R,0.07500X0.09000*%
%ADD19C,0.09000*%
%ADD20R,0.09000X0.07500*%
%ADD21O,0.09000X0.07500*%
%ADD22C,0.07500*%
%ADD23C,0.09843*%
%ADD24R,0.06693X0.06693*%
%ADD25R,0.06693X0.06693*%
%ADD26C,0.01600*%
%ADD27C,0.00787*%
%ADD28C,0.01000*%
D13*
X419500Y632500D02*
Y645000D01*
Y632500D02*
X560000D01*
X581000D01*
Y645000D01*
X419500D02*
X581000D01*
X393701Y393701D02*
Y688976D01*
X708661D01*
Y393701D02*
Y688976D01*
X393701Y393701D02*
X708661D01*
D14*
X724000Y645797D02*
X730664D01*
X727332D01*
Y635800D01*
X738995Y645797D02*
X735663D01*
X733997Y644131D01*
Y637466D01*
X735663Y635800D01*
X738995D01*
X740661Y637466D01*
Y644131D01*
X738995Y645797D01*
X743994Y635800D02*
Y645797D01*
X748992D01*
X750658Y644131D01*
Y640798D01*
X748992Y639132D01*
X743994D01*
X763987Y645797D02*
Y635800D01*
X770652D01*
X780648Y645797D02*
X773984D01*
Y635800D01*
X780648D01*
X773984Y640798D02*
X777316D01*
X790645Y644131D02*
X788979Y645797D01*
X785647D01*
X783981Y644131D01*
Y637466D01*
X785647Y635800D01*
X788979D01*
X790645Y637466D01*
Y640798D01*
X787313D01*
X800642Y645797D02*
X793977D01*
Y635800D01*
X800642D01*
X793977Y640798D02*
X797310D01*
X803974Y635800D02*
Y645797D01*
X810639Y635800D01*
Y645797D01*
X813971D02*
Y635800D01*
X818969D01*
X820635Y637466D01*
Y644131D01*
X818969Y645797D01*
X813971D01*
D27*
X423409Y547996D02*
Y603114D01*
X677346D01*
Y547996D02*
Y603114D01*
X423409Y547996D02*
X677346D01*
X393882Y506657D02*
Y648390D01*
X708843D01*
Y506657D02*
Y648390D01*
X393882Y506657D02*
X708843D01*
X474685Y435945D02*
Y445945D01*
X644685D01*
Y435945D02*
Y445945D01*
X637185Y435945D02*
X644685D01*
X474685D02*
X637185D01*
D28*
X455000Y437500D02*
Y443498D01*
X457999D01*
X458999Y442498D01*
Y440499D01*
X457999Y439499D01*
X455000D01*
X464997Y443498D02*
X460998D01*
Y440499D01*
X462997D01*
X460998D01*
Y437500D01*
X466996D02*
Y443498D01*
X469995D01*
X470995Y442498D01*
Y440499D01*
X469995Y439499D01*
X466996D01*
X409000Y501998D02*
Y496000D01*
X412999D01*
X418997Y500998D02*
X417997Y501998D01*
X415998D01*
X414998Y500998D01*
Y497000D01*
X415998Y496000D01*
X417997D01*
X418997Y497000D01*
X420996Y501998D02*
Y496000D01*
X423995D01*
X424995Y497000D01*
Y500998D01*
X423995Y501998D01*
X420996D01*
X426994Y496000D02*
X428994D01*
X427994D01*
Y501998D01*
X426994Y500998D01*
M02*
