%FSLAX25Y25*%
%MOIN*%
G70*
G01*
G75*
G04 Layer_Color=16711935*
%ADD10C,0.03000*%
%ADD11C,0.01800*%
%ADD12C,0.02200*%
%ADD13C,0.00800*%
%ADD14C,0.01400*%
%ADD15C,0.01575*%
%ADD16C,0.19685*%
%ADD17O,0.07500X0.09000*%
%ADD18R,0.07500X0.09000*%
%ADD19C,0.09000*%
%ADD20R,0.09000X0.07500*%
%ADD21O,0.09000X0.07500*%
%ADD22C,0.07500*%
%ADD23C,0.09843*%
%ADD24R,0.06693X0.06693*%
%ADD25R,0.06693X0.06693*%
%ADD26C,0.01600*%
%ADD27C,0.00787*%
%ADD28C,0.01000*%
%ADD29C,0.20485*%
%ADD30O,0.08300X0.09800*%
%ADD31R,0.08300X0.09800*%
%ADD32C,0.09800*%
%ADD33R,0.09800X0.08300*%
%ADD34O,0.09800X0.08300*%
%ADD35C,0.08300*%
%ADD36R,0.07493X0.07493*%
%ADD37R,0.07493X0.07493*%
D13*
X393701Y393701D02*
Y688976D01*
X708661D01*
Y393701D02*
Y688976D01*
X393701Y393701D02*
X708661D01*
D14*
X724000Y588497D02*
Y578500D01*
X728998D01*
X730664Y580166D01*
Y581832D01*
X728998Y583498D01*
X724000D01*
X728998D01*
X730664Y585164D01*
Y586831D01*
X728998Y588497D01*
X724000D01*
X738995D02*
X735663D01*
X733997Y586831D01*
Y580166D01*
X735663Y578500D01*
X738995D01*
X740661Y580166D01*
Y586831D01*
X738995Y588497D01*
X743994D02*
X750658D01*
X747326D01*
Y578500D01*
X753990Y588497D02*
X760655D01*
X757323D01*
Y578500D01*
X768986Y588497D02*
X765653D01*
X763987Y586831D01*
Y580166D01*
X765653Y578500D01*
X768986D01*
X770652Y580166D01*
Y586831D01*
X768986Y588497D01*
X773984Y578500D02*
Y588497D01*
X777316Y585164D01*
X780648Y588497D01*
Y578500D01*
X800642Y586831D02*
X798976Y588497D01*
X795644D01*
X793977Y586831D01*
Y585164D01*
X795644Y583498D01*
X798976D01*
X800642Y581832D01*
Y580166D01*
X798976Y578500D01*
X795644D01*
X793977Y580166D01*
X808972Y588497D02*
X805640D01*
X803974Y586831D01*
Y580166D01*
X805640Y578500D01*
X808972D01*
X810639Y580166D01*
Y586831D01*
X808972Y588497D01*
X813971D02*
Y578500D01*
X820635D01*
X823968Y588497D02*
Y578500D01*
X828966D01*
X830632Y580166D01*
Y586831D01*
X828966Y588497D01*
X823968D01*
X840629D02*
X833965D01*
Y578500D01*
X840629D01*
X833965Y583498D02*
X837297D01*
X843961Y578500D02*
Y588497D01*
X848960D01*
X850626Y586831D01*
Y583498D01*
X848960Y581832D01*
X843961D01*
X847293D02*
X850626Y578500D01*
D29*
X699000Y516500D02*
D03*
X403724D02*
D03*
X699000Y638547D02*
D03*
X403724D02*
D03*
X413386Y669291D02*
D03*
X688976D02*
D03*
Y413386D02*
D03*
X413386D02*
D03*
D30*
X565378Y638547D02*
D03*
X425378D02*
D03*
X485378D02*
D03*
X495378D02*
D03*
X505378D02*
D03*
X515378D02*
D03*
X525378D02*
D03*
X535378D02*
D03*
X545378D02*
D03*
X555378D02*
D03*
X475378D02*
D03*
X445378D02*
D03*
X575378D02*
D03*
X455378D02*
D03*
X465378D02*
D03*
X435378D02*
D03*
X645591Y423228D02*
D03*
X635591D02*
D03*
X625591D02*
D03*
X615591D02*
D03*
X605591D02*
D03*
X595591D02*
D03*
X585591D02*
D03*
X575591D02*
D03*
X565591D02*
D03*
X555591D02*
D03*
X545591D02*
D03*
X535591D02*
D03*
X525591D02*
D03*
X515591D02*
D03*
X505591D02*
D03*
X495591D02*
D03*
X485591D02*
D03*
X475591D02*
D03*
X465591D02*
D03*
X609800Y457900D02*
D03*
X599800D02*
D03*
X589800D02*
D03*
X579800D02*
D03*
X569800D02*
D03*
X559800D02*
D03*
X549800D02*
D03*
X619800D02*
D03*
X475591Y659449D02*
D03*
X485591D02*
D03*
X495591D02*
D03*
X505591D02*
D03*
X515591D02*
D03*
X525591D02*
D03*
X535591D02*
D03*
X545591D02*
D03*
X555591D02*
D03*
X565591D02*
D03*
X575591D02*
D03*
X585591D02*
D03*
X595591D02*
D03*
X605591D02*
D03*
X615591D02*
D03*
X625591D02*
D03*
X635591D02*
D03*
X645591D02*
D03*
X655591D02*
D03*
X629685Y440945D02*
D03*
X619685D02*
D03*
X609685D02*
D03*
X599685D02*
D03*
X589685D02*
D03*
X579685D02*
D03*
X569685D02*
D03*
X559685D02*
D03*
X549685D02*
D03*
X539685D02*
D03*
X529685D02*
D03*
X519685D02*
D03*
X509685D02*
D03*
X499685D02*
D03*
X489685D02*
D03*
X479685D02*
D03*
D31*
X655591Y423228D02*
D03*
X629800Y457900D02*
D03*
X465591Y659449D02*
D03*
X639685Y440945D02*
D03*
D32*
X465500Y577400D02*
D03*
Y597400D02*
D03*
X445500Y587400D02*
D03*
D33*
X575000Y505000D02*
D03*
D34*
Y515000D02*
D03*
Y525000D02*
D03*
Y535000D02*
D03*
Y545000D02*
D03*
Y555000D02*
D03*
Y565000D02*
D03*
Y575000D02*
D03*
X605000Y505000D02*
D03*
Y515000D02*
D03*
Y525000D02*
D03*
Y535000D02*
D03*
Y545000D02*
D03*
Y555000D02*
D03*
Y565000D02*
D03*
Y575000D02*
D03*
D35*
X502000Y594000D02*
D03*
X482000Y573500D02*
D03*
X462000Y545500D02*
D03*
Y514000D02*
D03*
X611500Y622000D02*
D03*
X624000Y608500D02*
D03*
X554000Y552500D02*
D03*
X587500Y478500D02*
D03*
X475000Y463000D02*
D03*
X554000Y608000D02*
D03*
D36*
X586004Y492500D02*
D03*
X598996D02*
D03*
X446004Y462500D02*
D03*
X458996D02*
D03*
X436496Y622500D02*
D03*
X423504D02*
D03*
X458996Y452500D02*
D03*
X446004D02*
D03*
D37*
X652500Y473504D02*
D03*
Y486496D02*
D03*
X475000D02*
D03*
Y473504D02*
D03*
X532500D02*
D03*
Y486496D02*
D03*
X518125D02*
D03*
Y473504D02*
D03*
X503750D02*
D03*
Y486496D02*
D03*
X489375D02*
D03*
Y473504D02*
D03*
M02*
