%FSLAX25Y25*%
%MOIN*%
G70*
G01*
G75*
G04 Layer_Color=8388736*
%ADD10C,0.03000*%
%ADD11C,0.01800*%
%ADD12C,0.02200*%
%ADD13C,0.00800*%
%ADD14C,0.01400*%
%ADD15C,0.01575*%
%ADD16C,0.19685*%
%ADD17O,0.07500X0.09000*%
%ADD18R,0.07500X0.09000*%
%ADD19C,0.09000*%
%ADD20R,0.09000X0.07500*%
%ADD21O,0.09000X0.07500*%
%ADD22C,0.07500*%
%ADD23C,0.09843*%
%ADD24R,0.06693X0.06693*%
%ADD25R,0.06693X0.06693*%
%ADD26C,0.01600*%
%ADD27C,0.00787*%
%ADD28C,0.01000*%
%ADD29C,0.20485*%
%ADD30O,0.08300X0.09800*%
%ADD31R,0.08300X0.09800*%
%ADD32C,0.09800*%
%ADD33R,0.09800X0.08300*%
%ADD34O,0.09800X0.08300*%
%ADD35C,0.08300*%
D13*
X393701Y393701D02*
Y688976D01*
X708661D01*
Y393701D02*
Y688976D01*
X393701Y393701D02*
X708661D01*
D14*
X724000Y607597D02*
X730664D01*
X727332D01*
Y597600D01*
X738995Y607597D02*
X735663D01*
X733997Y605931D01*
Y599266D01*
X735663Y597600D01*
X738995D01*
X740661Y599266D01*
Y605931D01*
X738995Y607597D01*
X743994Y597600D02*
Y607597D01*
X748992D01*
X750658Y605931D01*
Y602598D01*
X748992Y600932D01*
X743994D01*
X770652Y605931D02*
X768986Y607597D01*
X765653D01*
X763987Y605931D01*
Y604264D01*
X765653Y602598D01*
X768986D01*
X770652Y600932D01*
Y599266D01*
X768986Y597600D01*
X765653D01*
X763987Y599266D01*
X778982Y607597D02*
X775650D01*
X773984Y605931D01*
Y599266D01*
X775650Y597600D01*
X778982D01*
X780648Y599266D01*
Y605931D01*
X778982Y607597D01*
X783981D02*
Y597600D01*
X790645D01*
X793977Y607597D02*
Y597600D01*
X798976D01*
X800642Y599266D01*
Y605931D01*
X798976Y607597D01*
X793977D01*
X810639D02*
X803974D01*
Y597600D01*
X810639D01*
X803974Y602598D02*
X807306D01*
X813971Y597600D02*
Y607597D01*
X818969D01*
X820635Y605931D01*
Y602598D01*
X818969Y600932D01*
X813971D01*
X817303D02*
X820635Y597600D01*
D29*
X699000Y516500D02*
D03*
X403724D02*
D03*
X699000Y638547D02*
D03*
X403724D02*
D03*
X413386Y669291D02*
D03*
X688976D02*
D03*
Y413386D02*
D03*
X413386D02*
D03*
D30*
X565378Y638547D02*
D03*
X425378D02*
D03*
X485378D02*
D03*
X495378D02*
D03*
X505378D02*
D03*
X515378D02*
D03*
X525378D02*
D03*
X535378D02*
D03*
X545378D02*
D03*
X555378D02*
D03*
X475378D02*
D03*
X445378D02*
D03*
X575378D02*
D03*
X455378D02*
D03*
X465378D02*
D03*
X435378D02*
D03*
X645591Y423228D02*
D03*
X635591D02*
D03*
X625591D02*
D03*
X615591D02*
D03*
X605591D02*
D03*
X595591D02*
D03*
X585591D02*
D03*
X575591D02*
D03*
X565591D02*
D03*
X555591D02*
D03*
X545591D02*
D03*
X535591D02*
D03*
X525591D02*
D03*
X515591D02*
D03*
X505591D02*
D03*
X495591D02*
D03*
X485591D02*
D03*
X475591D02*
D03*
X465591D02*
D03*
X609800Y457900D02*
D03*
X599800D02*
D03*
X589800D02*
D03*
X579800D02*
D03*
X569800D02*
D03*
X559800D02*
D03*
X549800D02*
D03*
X619800D02*
D03*
X475591Y659449D02*
D03*
X485591D02*
D03*
X495591D02*
D03*
X505591D02*
D03*
X515591D02*
D03*
X525591D02*
D03*
X535591D02*
D03*
X545591D02*
D03*
X555591D02*
D03*
X565591D02*
D03*
X575591D02*
D03*
X585591D02*
D03*
X595591D02*
D03*
X605591D02*
D03*
X615591D02*
D03*
X625591D02*
D03*
X635591D02*
D03*
X645591D02*
D03*
X655591D02*
D03*
X629685Y440945D02*
D03*
X619685D02*
D03*
X609685D02*
D03*
X599685D02*
D03*
X589685D02*
D03*
X579685D02*
D03*
X569685D02*
D03*
X559685D02*
D03*
X549685D02*
D03*
X539685D02*
D03*
X529685D02*
D03*
X519685D02*
D03*
X509685D02*
D03*
X499685D02*
D03*
X489685D02*
D03*
X479685D02*
D03*
D31*
X655591Y423228D02*
D03*
X629800Y457900D02*
D03*
X465591Y659449D02*
D03*
X639685Y440945D02*
D03*
D32*
X465500Y577400D02*
D03*
Y597400D02*
D03*
X445500Y587400D02*
D03*
D33*
X575000Y505000D02*
D03*
D34*
Y515000D02*
D03*
Y525000D02*
D03*
Y535000D02*
D03*
Y545000D02*
D03*
Y555000D02*
D03*
Y565000D02*
D03*
Y575000D02*
D03*
X605000Y505000D02*
D03*
Y515000D02*
D03*
Y525000D02*
D03*
Y535000D02*
D03*
Y545000D02*
D03*
Y555000D02*
D03*
Y565000D02*
D03*
Y575000D02*
D03*
D35*
X502000Y594000D02*
D03*
X482000Y573500D02*
D03*
X462000Y545500D02*
D03*
Y514000D02*
D03*
X611500Y622000D02*
D03*
X624000Y608500D02*
D03*
X554000Y552500D02*
D03*
X587500Y478500D02*
D03*
X475000Y463000D02*
D03*
X554000Y608000D02*
D03*
M02*
