M48
;Layer_Color=9474304
;FILE_FORMAT=2:5
INCH,LZ
;TYPE=PLATED
T1F00S00C0.02800
T2F00S00C0.03000
T3F00S00C0.03543
T4F00S00C0.03937
%
T01
X04365Y04565
X05165Y0447
X0507Y04285
X05455Y04505
X0579Y04205
X06655Y04495
X06874Y04658
X0704724Y0482424
X0686Y05442
X06095Y05695
X0603Y05765
X0595Y0581
X05235Y05985
X0505Y06
Y0585
X0504Y05685
X04755Y0589
X0477004Y0604
X04735Y0616
X0476Y0489
X05045Y0503
X0504Y05165
X0559Y05275
X05635Y051
X04425Y04955
X0456Y0538
X0445Y0551
X0429Y05385
X04335Y0574
X042Y0673
X0483Y06845
X04735Y06415
X0478422Y06315
X058Y0635
Y06585
T02
X06785Y0662
Y0672
T03
X0415354Y0466614
X0475Y0461
X0505
X05245
X05545
X05985Y04535
Y04435
X06115Y04465
Y04365
Y04265
Y04565
X0527165Y0415354
X0517165
X0507165
X0497165
X06415Y04265
Y04365
Y04465
Y04565
X06545Y04495
X0676Y0448
Y0458
Y0468
X0674724Y0415354
X0664724
X0684724
X0694724
X0704724
X0714724
X0724724
X0734724
X0744724
X0754724
X0765748Y0446614
Y0456614
Y0466614
X0736Y0468
Y0458
Y0448
Y0478
Y0488
Y0498
Y0508
Y0518
Y0528
Y0538
Y0548
Y0558
Y0568
Y0578
Y0588
Y0598
Y0608
Y0618
X0765748Y0616614
Y0606614
Y0596614
Y0586614
Y0576614
Y0566614
Y0556614
Y0546614
Y0536614
Y0526614
Y0516614
Y0506614
Y0496614
Y0486614
Y0476614
X0676Y0478
Y0488
Y0498
Y0508
Y0518
Y0528
Y0538
Y0548
Y0558
Y0568
Y0578
Y0588
Y0598
Y0608
Y0618
X06475Y06115
X06375
X06275
X07039Y05766
X07165Y05765
X07203Y05472
X0724Y05395
X06581Y05146
Y04946
X06625Y04785
X0613Y04735
X0595Y05025
Y0523
X05975Y06115
X05875
X05775
X05675
X05575
X05475
X05375
X06075
X06175
X06195Y0597
X05545Y0471
X05245
X0505
X0475
X0415354Y0476614
Y0486614
Y0496614
Y0506614
Y0516614
Y0526614
Y0536614
Y0546614
Y0556614
Y0566614
Y0576614
Y0586614
Y0596614
Y0606614
Y0616614
Y0626614
Y0636614
X05375Y06715
X05475
X05575
X05675
X05775
X05875
X05975
X06075
X06175
X0615591Y0687008
X0605591
X0595591
X0625591
X0635591
X0645591
X0655591
X0665591
X0675591
X0685591
X0663Y0659
X06475Y06715
X06375
X06275
X0663Y0629
X0676Y0628
Y0638
X0736
Y0628
X0765748Y0626614
Y0636614
T04
X04175Y04115
X0432Y04335
X04175Y04515
X05919Y0465873
Y0545499
X0432Y04735
M30
