%FSLAX25Y25*%
%MOIN*%
G70*
G01*
G75*
%ADD10C,0.04000*%
%ADD11C,0.01800*%
%ADD12C,0.02400*%
%ADD13C,0.03000*%
%ADD14C,0.02200*%
%ADD15C,0.02000*%
%ADD16C,0.04400*%
%ADD17C,0.01600*%
%ADD18R,0.05906X0.06693*%
%ADD19R,0.10236X0.06693*%
%ADD20R,0.02362X0.06299*%
%ADD21R,0.06693X0.06693*%
%ADD22R,0.06693X0.05906*%
%ADD23O,0.09843X0.02756*%
%ADD24C,0.00800*%
%ADD25C,0.01200*%
%ADD26C,0.01400*%
%ADD27R,0.07500X0.09500*%
%ADD28O,0.07500X0.09500*%
%ADD29C,0.07500*%
%ADD30O,0.07500X0.09000*%
%ADD31R,0.07500X0.09000*%
%ADD32C,0.08500*%
%ADD33C,0.09000*%
%ADD34R,0.09500X0.07500*%
%ADD35O,0.09500X0.07500*%
%ADD36O,0.09000X0.07500*%
%ADD37R,0.09000X0.07500*%
%ADD38C,0.10000*%
%ADD39C,0.06000*%
%ADD40C,0.00787*%
%ADD41C,0.00984*%
%ADD42C,0.01000*%
%ADD43C,0.02362*%
%ADD44C,0.03937*%
%ADD45C,0.01500*%
%ADD46R,0.06000X0.05000*%
%ADD47R,0.07874X0.03937*%
%ADD48R,0.03445X0.12303*%
%ADD49R,0.03445X0.12303*%
%ADD50R,0.30610X0.06890*%
G04:AMPARAMS|DCode=51|XSize=18.01mil|YSize=15.74mil|CornerRadius=0mil|HoleSize=0mil|Usage=FLASHONLY|Rotation=217.000|XOffset=0mil|YOffset=0mil|HoleType=Round|Shape=Rectangle|*
%AMROTATEDRECTD51*
4,1,4,0.00246,0.01170,0.01193,-0.00087,-0.00246,-0.01170,-0.01193,0.00087,0.00246,0.01170,0.0*
%
%ADD51ROTATEDRECTD51*%

G04:AMPARAMS|DCode=52|XSize=18.01mil|YSize=15.74mil|CornerRadius=0mil|HoleSize=0mil|Usage=FLASHONLY|Rotation=143.000|XOffset=0mil|YOffset=0mil|HoleType=Round|Shape=Rectangle|*
%AMROTATEDRECTD52*
4,1,4,0.01193,0.00087,0.00246,-0.01170,-0.01193,-0.00087,-0.00246,0.01170,0.01193,0.00087,0.0*
%
%ADD52ROTATEDRECTD52*%

%ADD53R,0.06706X0.07493*%
%ADD54R,0.11036X0.07493*%
%ADD55R,0.03162X0.07099*%
%ADD56R,0.07493X0.07493*%
%ADD57R,0.07493X0.06706*%
%ADD58O,0.10642X0.03556*%
%ADD59R,0.08300X0.10300*%
%ADD60O,0.08300X0.10300*%
%ADD61C,0.08300*%
%ADD62O,0.08300X0.09800*%
%ADD63R,0.08300X0.09800*%
%ADD64C,0.09300*%
%ADD65C,0.09800*%
%ADD66R,0.10300X0.08300*%
%ADD67O,0.10300X0.08300*%
%ADD68O,0.09800X0.08300*%
%ADD69R,0.09800X0.08300*%
%ADD70C,0.10800*%
%ADD71C,0.06800*%
%ADD72C,0.00500*%
%ADD73C,0.00667*%
D72*
X662953Y415354D02*
X666496D01*
X664724Y413583D02*
Y417126D01*
X672953Y415354D02*
X676496D01*
X674724Y413583D02*
Y417126D01*
X692953Y415354D02*
X696496D01*
X694724Y413583D02*
Y417126D01*
X702953Y415354D02*
X706496D01*
X704724Y413583D02*
Y417126D01*
X712953Y415354D02*
X716496D01*
X714724Y413583D02*
Y417126D01*
X722953Y415354D02*
X726496D01*
X724724Y413583D02*
Y417126D01*
X732953Y415354D02*
X736496D01*
X734724Y413583D02*
Y417126D01*
X742953Y415354D02*
X746496D01*
X744724Y413583D02*
Y417126D01*
X752953Y415354D02*
X756496D01*
X754724Y413583D02*
Y417126D01*
X682953Y415354D02*
X686496D01*
X684724Y413583D02*
Y417126D01*
X652728Y449500D02*
X656272D01*
X654500Y447728D02*
Y451272D01*
X535728Y611500D02*
X539272D01*
X537500Y609728D02*
Y613272D01*
X545728Y611500D02*
X549272D01*
X547500Y609728D02*
Y613272D01*
X555728Y611500D02*
X559272D01*
X557500Y609728D02*
Y613272D01*
X565728Y611500D02*
X569272D01*
X567500Y609728D02*
Y613272D01*
X575728Y611500D02*
X579272D01*
X577500Y609728D02*
Y613272D01*
X585728Y611500D02*
X589272D01*
X587500Y609728D02*
Y613272D01*
X595728Y611500D02*
X599272D01*
X597500Y609728D02*
Y613272D01*
X605728Y611500D02*
X609272D01*
X607500Y609728D02*
Y613272D01*
X615728Y611500D02*
X619272D01*
X617500Y609728D02*
Y613272D01*
X625728Y611500D02*
X629272D01*
X627500Y609728D02*
Y613272D01*
X635728Y611500D02*
X639272D01*
X637500Y609728D02*
Y613272D01*
X645728Y611500D02*
X649272D01*
X647500Y609728D02*
Y613272D01*
X535728Y671500D02*
X539272D01*
X537500Y669728D02*
Y673272D01*
X545728Y671500D02*
X549272D01*
X547500Y669728D02*
Y673272D01*
X555728Y671500D02*
X559272D01*
X557500Y669728D02*
Y673272D01*
X565728Y671500D02*
X569272D01*
X567500Y669728D02*
Y673272D01*
X575728Y671500D02*
X579272D01*
X577500Y669728D02*
Y673272D01*
X585728Y671500D02*
X589272D01*
X587500Y669728D02*
Y673272D01*
X595728Y671500D02*
X599272D01*
X597500Y669728D02*
Y673272D01*
X605728Y671500D02*
X609272D01*
X607500Y669728D02*
Y673272D01*
X615728Y671500D02*
X619272D01*
X617500Y669728D02*
Y673272D01*
X625728Y671500D02*
X629272D01*
X627500Y669728D02*
Y673272D01*
X635728Y671500D02*
X639272D01*
X637500Y669728D02*
Y673272D01*
X645728Y671500D02*
X649272D01*
X647500Y669728D02*
Y673272D01*
X656328Y494600D02*
X659872D01*
X658100Y492828D02*
Y496372D01*
X656328Y514600D02*
X659872D01*
X658100Y512828D02*
Y516372D01*
X661228Y659000D02*
X664772D01*
X663000Y657228D02*
Y660772D01*
X661228Y629000D02*
X664772D01*
X663000Y627228D02*
Y630772D01*
X525394Y415354D02*
X528937D01*
X527165Y413583D02*
Y417126D01*
X515394Y415354D02*
X518937D01*
X517165Y413583D02*
Y417126D01*
X505394Y415354D02*
X508937D01*
X507165Y413583D02*
Y417126D01*
X495394Y415354D02*
X498937D01*
X497165Y413583D02*
Y417126D01*
X430031Y433500D02*
X433968D01*
X432000Y431531D02*
Y435468D01*
X430031Y473500D02*
X433968D01*
X432000Y471531D02*
Y475468D01*
X415531Y411500D02*
X419468D01*
X417500Y409531D02*
Y413469D01*
X415531Y451500D02*
X419468D01*
X417500Y449532D02*
Y453469D01*
X413583Y636614D02*
X417126D01*
X415354Y634843D02*
Y638386D01*
X413583Y626614D02*
X417126D01*
X415354Y624843D02*
Y628386D01*
X413583Y616614D02*
X417126D01*
X415354Y614843D02*
Y618386D01*
X413583Y606614D02*
X417126D01*
X415354Y604843D02*
Y608386D01*
X413583Y596614D02*
X417126D01*
X415354Y594843D02*
Y598386D01*
X413583Y586614D02*
X417126D01*
X415354Y584843D02*
Y588386D01*
X413583Y576614D02*
X417126D01*
X415354Y574843D02*
Y578386D01*
X413583Y566614D02*
X417126D01*
X415354Y564843D02*
Y568386D01*
X413583Y556614D02*
X417126D01*
X415354Y554843D02*
Y558386D01*
X413583Y546614D02*
X417126D01*
X415354Y544843D02*
Y548386D01*
X413583Y536614D02*
X417126D01*
X415354Y534843D02*
Y538386D01*
X413583Y526614D02*
X417126D01*
X415354Y524843D02*
Y528386D01*
X413583Y516614D02*
X417126D01*
X415354Y514843D02*
Y518386D01*
X413583Y506614D02*
X417126D01*
X415354Y504843D02*
Y508386D01*
X413583Y496614D02*
X417126D01*
X415354Y494843D02*
Y498386D01*
X413583Y486614D02*
X417126D01*
X415354Y484843D02*
Y488386D01*
X413583Y476614D02*
X417126D01*
X415354Y474843D02*
Y478386D01*
X413583Y466614D02*
X417126D01*
X415354Y464843D02*
Y468386D01*
X593819Y687008D02*
X597362D01*
X595591Y685236D02*
Y688779D01*
X603819Y687008D02*
X607362D01*
X605591Y685236D02*
Y688779D01*
X623819Y687008D02*
X627362D01*
X625591Y685236D02*
Y688779D01*
X633819Y687008D02*
X637362D01*
X635591Y685236D02*
Y688779D01*
X643819Y687008D02*
X647362D01*
X645591Y685236D02*
Y688779D01*
X653819Y687008D02*
X657362D01*
X655591Y685236D02*
Y688779D01*
X663819Y687008D02*
X667362D01*
X665591Y685236D02*
Y688779D01*
X673819Y687008D02*
X677362D01*
X675591Y685236D02*
Y688779D01*
X683819Y687008D02*
X687362D01*
X685591Y685236D02*
Y688779D01*
X613819Y687008D02*
X617362D01*
X615591Y685236D02*
Y688779D01*
X763976Y446614D02*
X767520D01*
X765748Y444843D02*
Y448386D01*
X763976Y456614D02*
X767520D01*
X765748Y454843D02*
Y458386D01*
X763976Y466614D02*
X767520D01*
X765748Y464843D02*
Y468386D01*
X763976Y476614D02*
X767520D01*
X765748Y474843D02*
Y478386D01*
X763976Y486614D02*
X767520D01*
X765748Y484843D02*
Y488386D01*
X763976Y496614D02*
X767520D01*
X765748Y494843D02*
Y498386D01*
X763976Y506614D02*
X767520D01*
X765748Y504843D02*
Y508386D01*
X763976Y516614D02*
X767520D01*
X765748Y514843D02*
Y518386D01*
X763976Y526614D02*
X767520D01*
X765748Y524843D02*
Y528386D01*
X763976Y536614D02*
X767520D01*
X765748Y534843D02*
Y538386D01*
X763976Y546614D02*
X767520D01*
X765748Y544843D02*
Y548386D01*
X763976Y556614D02*
X767520D01*
X765748Y554843D02*
Y558386D01*
X763976Y566614D02*
X767520D01*
X765748Y564843D02*
Y568386D01*
X763976Y576614D02*
X767520D01*
X765748Y574843D02*
Y578386D01*
X763976Y586614D02*
X767520D01*
X765748Y584843D02*
Y588386D01*
X763976Y596614D02*
X767520D01*
X765748Y594843D02*
Y598386D01*
X763976Y606614D02*
X767520D01*
X765748Y604843D02*
Y608386D01*
X763976Y616614D02*
X767520D01*
X765748Y614843D02*
Y618386D01*
X763976Y626614D02*
X767520D01*
X765748Y624843D02*
Y628386D01*
X763976Y636614D02*
X767520D01*
X765748Y634843D02*
Y638386D01*
X734228Y448000D02*
X737772D01*
X736000Y446228D02*
Y449772D01*
X734228Y458000D02*
X737772D01*
X736000Y456228D02*
Y459772D01*
X734228Y468000D02*
X737772D01*
X736000Y466228D02*
Y469772D01*
X734228Y478000D02*
X737772D01*
X736000Y476228D02*
Y479772D01*
X734228Y488000D02*
X737772D01*
X736000Y486228D02*
Y489772D01*
X734228Y498000D02*
X737772D01*
X736000Y496228D02*
Y499772D01*
X734228Y508000D02*
X737772D01*
X736000Y506228D02*
Y509772D01*
X734228Y518000D02*
X737772D01*
X736000Y516228D02*
Y519772D01*
X734228Y528000D02*
X737772D01*
X736000Y526228D02*
Y529772D01*
X734228Y538000D02*
X737772D01*
X736000Y536228D02*
Y539772D01*
X734228Y548000D02*
X737772D01*
X736000Y546228D02*
Y549772D01*
X734228Y558000D02*
X737772D01*
X736000Y556228D02*
Y559772D01*
X734228Y568000D02*
X737772D01*
X736000Y566228D02*
Y569772D01*
X734228Y578000D02*
X737772D01*
X736000Y576228D02*
Y579772D01*
X734228Y588000D02*
X737772D01*
X736000Y586228D02*
Y589772D01*
X734228Y598000D02*
X737772D01*
X736000Y596228D02*
Y599772D01*
X734228Y608000D02*
X737772D01*
X736000Y606228D02*
Y609772D01*
X734228Y618000D02*
X737772D01*
X736000Y616228D02*
Y619772D01*
X734228Y628000D02*
X737772D01*
X736000Y626228D02*
Y629772D01*
X734228Y638000D02*
X737772D01*
X736000Y636228D02*
Y639772D01*
X674228Y448000D02*
X677772D01*
X676000Y446228D02*
Y449772D01*
X674228Y458000D02*
X677772D01*
X676000Y456228D02*
Y459772D01*
X674228Y468000D02*
X677772D01*
X676000Y466228D02*
Y469772D01*
X674228Y478000D02*
X677772D01*
X676000Y476228D02*
Y479772D01*
X674228Y488000D02*
X677772D01*
X676000Y486228D02*
Y489772D01*
X674228Y498000D02*
X677772D01*
X676000Y496228D02*
Y499772D01*
X674228Y508000D02*
X677772D01*
X676000Y506228D02*
Y509772D01*
X674228Y518000D02*
X677772D01*
X676000Y516228D02*
Y519772D01*
X674228Y528000D02*
X677772D01*
X676000Y526228D02*
Y529772D01*
X674228Y538000D02*
X677772D01*
X676000Y536228D02*
Y539772D01*
X674228Y548000D02*
X677772D01*
X676000Y546228D02*
Y549772D01*
X674228Y558000D02*
X677772D01*
X676000Y556228D02*
Y559772D01*
X674228Y568000D02*
X677772D01*
X676000Y566228D02*
Y569772D01*
X674228Y578000D02*
X677772D01*
X676000Y576228D02*
Y579772D01*
X674228Y588000D02*
X677772D01*
X676000Y586228D02*
Y589772D01*
X674228Y598000D02*
X677772D01*
X676000Y596228D02*
Y599772D01*
X674228Y608000D02*
X677772D01*
X676000Y606228D02*
Y609772D01*
X674228Y618000D02*
X677772D01*
X676000Y616228D02*
Y619772D01*
X674228Y628000D02*
X677772D01*
X676000Y626228D02*
Y629772D01*
X674228Y638000D02*
X677772D01*
X676000Y636228D02*
Y639772D01*
X596728Y443500D02*
X600272D01*
X598500Y441728D02*
Y445272D01*
X596728Y453500D02*
X600272D01*
X598500Y451728D02*
Y455272D01*
X473228Y471000D02*
X476772D01*
X475000Y469228D02*
Y472772D01*
X473228Y461000D02*
X476772D01*
X475000Y459228D02*
Y462772D01*
X503228Y471000D02*
X506772D01*
X505000Y469228D02*
Y472772D01*
X503228Y461000D02*
X506772D01*
X505000Y459228D02*
Y462772D01*
X552728Y461000D02*
X556272D01*
X554500Y459228D02*
Y462772D01*
X552728Y471000D02*
X556272D01*
X554500Y469228D02*
Y472772D01*
X522728Y461000D02*
X526272D01*
X524500Y459228D02*
Y462772D01*
X522728Y471000D02*
X526272D01*
X524500Y469228D02*
Y472772D01*
X589931Y465873D02*
X593868D01*
X591900Y463905D02*
Y467842D01*
X589931Y545499D02*
X593868D01*
X591900Y543531D02*
Y547468D01*
X639728Y426500D02*
X643272D01*
X641500Y424728D02*
Y428272D01*
X639728Y436500D02*
X643272D01*
X641500Y434728D02*
Y438272D01*
X639728Y446500D02*
X643272D01*
X641500Y444728D02*
Y448272D01*
X639728Y456500D02*
X643272D01*
X641500Y454728D02*
Y458272D01*
X609728Y426500D02*
X613272D01*
X611500Y424728D02*
Y428272D01*
X609728Y436500D02*
X613272D01*
X611500Y434728D02*
Y438272D01*
X609728Y446500D02*
X613272D01*
X611500Y444728D02*
Y448272D01*
X609728Y456500D02*
X613272D01*
X611500Y454728D02*
Y458272D01*
X611228Y473500D02*
X614772D01*
X613000Y471728D02*
Y475272D01*
X677000Y672000D02*
X680000D01*
X678500Y670500D02*
Y673500D01*
X677000Y662000D02*
X680000D01*
X678500Y660500D02*
Y663500D01*
X664100Y449500D02*
X666900D01*
X665500Y448100D02*
Y450900D01*
X441100Y495500D02*
X443900D01*
X442500Y494100D02*
Y496900D01*
X593228Y502500D02*
X596772D01*
X595000Y500728D02*
Y504272D01*
X593228Y523000D02*
X596772D01*
X595000Y521228D02*
Y524772D01*
X660728Y478500D02*
X664272D01*
X662500Y476728D02*
Y480272D01*
X617728Y597000D02*
X621272D01*
X619500Y595228D02*
Y598772D01*
X714728Y576500D02*
X718272D01*
X716500Y574728D02*
Y578272D01*
X722228Y539500D02*
X725772D01*
X724000Y537728D02*
Y541272D01*
X557600Y527500D02*
X560400D01*
X559000Y526100D02*
Y528900D01*
X593600Y581000D02*
X596400D01*
X595000Y579600D02*
Y582400D01*
X474600Y489000D02*
X477400D01*
X476000Y487600D02*
Y490400D01*
X601600Y576500D02*
X604400D01*
X603000Y575100D02*
Y577900D01*
X578600Y635000D02*
X581400D01*
X580000Y633600D02*
Y636400D01*
X578600Y658500D02*
X581400D01*
X580000Y657100D02*
Y659900D01*
X562100Y510000D02*
X564900D01*
X563500Y508600D02*
Y511400D01*
X608100Y569500D02*
X610900D01*
X609500Y568100D02*
Y570900D01*
X544100Y450500D02*
X546900D01*
X545500Y449100D02*
Y451900D01*
X443600Y551000D02*
X446400D01*
X445000Y549600D02*
Y552400D01*
X427600Y538500D02*
X430400D01*
X429000Y537100D02*
Y539900D01*
X502600Y516500D02*
X505400D01*
X504000Y515100D02*
Y517900D01*
X502600Y568500D02*
X505400D01*
X504000Y567100D02*
Y569900D01*
X418600Y673000D02*
X421400D01*
X420000Y671600D02*
Y674400D01*
X481600Y684500D02*
X484400D01*
X483000Y683100D02*
Y685900D01*
X505600Y428500D02*
X508400D01*
X507000Y427100D02*
Y429900D01*
X503100Y503000D02*
X505900D01*
X504500Y501600D02*
Y504400D01*
X474100Y589000D02*
X476900D01*
X475500Y587600D02*
Y590400D01*
X522100Y598500D02*
X524900D01*
X523500Y597100D02*
Y599900D01*
X702128Y576600D02*
X705672D01*
X703900Y574828D02*
Y578372D01*
X718528Y547200D02*
X722072D01*
X720300Y545428D02*
Y548972D01*
X703324Y482424D02*
X706124D01*
X704724Y481024D02*
Y483824D01*
X684600Y544200D02*
X687400D01*
X686000Y542800D02*
Y545600D01*
Y465800D02*
X688800D01*
X687400Y464400D02*
Y467200D01*
X472100Y641500D02*
X474900D01*
X473500Y640100D02*
Y642900D01*
X472100Y616000D02*
X474900D01*
X473500Y614600D02*
Y617400D01*
X477022Y631500D02*
X479822D01*
X478422Y630100D02*
Y632900D01*
X475604Y604000D02*
X478404D01*
X477004Y602600D02*
Y605400D01*
X515100Y447000D02*
X517900D01*
X516500Y445600D02*
Y448400D01*
X435100Y456500D02*
X437900D01*
X436500Y455100D02*
Y457900D01*
X503600Y585000D02*
X506400D01*
X505000Y583600D02*
Y586400D01*
X503600Y600000D02*
X506400D01*
X505000Y598600D02*
Y601400D01*
X432100Y574000D02*
X434900D01*
X433500Y572600D02*
Y575400D01*
X454600Y538000D02*
X457400D01*
X456000Y536600D02*
Y539400D01*
X577600Y420500D02*
X580400D01*
X579000Y419100D02*
Y421900D01*
M02*
