%FSLAX25Y25*%
%MOIN*%
G70*
G01*
G75*
G04 Layer_Color=8388736*
%ADD10C,0.04000*%
%ADD11C,0.01800*%
%ADD12C,0.02400*%
%ADD13C,0.03000*%
%ADD14C,0.02200*%
%ADD15C,0.02000*%
%ADD16C,0.04400*%
%ADD17C,0.01600*%
%ADD18R,0.05906X0.06693*%
%ADD19R,0.10236X0.06693*%
%ADD20R,0.02362X0.06299*%
%ADD21R,0.06693X0.06693*%
%ADD22R,0.06693X0.05906*%
%ADD23O,0.09843X0.02756*%
%ADD24C,0.00800*%
%ADD25C,0.01200*%
%ADD26C,0.01400*%
%ADD27R,0.07500X0.09500*%
%ADD28O,0.07500X0.09500*%
%ADD29C,0.07500*%
%ADD30O,0.07500X0.09000*%
%ADD31R,0.07500X0.09000*%
%ADD32C,0.08500*%
%ADD33C,0.09000*%
%ADD34R,0.09500X0.07500*%
%ADD35O,0.09500X0.07500*%
%ADD36O,0.09000X0.07500*%
%ADD37R,0.09000X0.07500*%
%ADD38C,0.10000*%
%ADD39C,0.06000*%
%ADD40C,0.00787*%
%ADD41C,0.00984*%
%ADD42C,0.01000*%
%ADD43C,0.02362*%
%ADD44C,0.03937*%
%ADD45C,0.01500*%
%ADD46R,0.06000X0.05000*%
%ADD47R,0.07874X0.03937*%
%ADD48R,0.03445X0.12303*%
%ADD49R,0.03445X0.12303*%
%ADD50R,0.30610X0.06890*%
G04:AMPARAMS|DCode=51|XSize=18.01mil|YSize=15.74mil|CornerRadius=0mil|HoleSize=0mil|Usage=FLASHONLY|Rotation=217.000|XOffset=0mil|YOffset=0mil|HoleType=Round|Shape=Rectangle|*
%AMROTATEDRECTD51*
4,1,4,0.00246,0.01170,0.01193,-0.00087,-0.00246,-0.01170,-0.01193,0.00087,0.00246,0.01170,0.0*
%
%ADD51ROTATEDRECTD51*%

G04:AMPARAMS|DCode=52|XSize=18.01mil|YSize=15.74mil|CornerRadius=0mil|HoleSize=0mil|Usage=FLASHONLY|Rotation=143.000|XOffset=0mil|YOffset=0mil|HoleType=Round|Shape=Rectangle|*
%AMROTATEDRECTD52*
4,1,4,0.01193,0.00087,0.00246,-0.01170,-0.01193,-0.00087,-0.00246,0.01170,0.01193,0.00087,0.0*
%
%ADD52ROTATEDRECTD52*%

%ADD53R,0.06706X0.07493*%
%ADD54R,0.11036X0.07493*%
%ADD55R,0.03162X0.07099*%
%ADD56R,0.07493X0.07493*%
%ADD57R,0.07493X0.06706*%
%ADD58O,0.10642X0.03556*%
%ADD59R,0.08300X0.10300*%
%ADD60O,0.08300X0.10300*%
%ADD61C,0.08300*%
%ADD62O,0.08300X0.09800*%
%ADD63R,0.08300X0.09800*%
%ADD64C,0.09300*%
%ADD65C,0.09800*%
%ADD66R,0.10300X0.08300*%
%ADD67O,0.10300X0.08300*%
%ADD68O,0.09800X0.08300*%
%ADD69R,0.09800X0.08300*%
%ADD70C,0.10800*%
%ADD71C,0.06800*%
G36*
X590750Y443000D02*
X560250D01*
Y453000D01*
X590750D01*
Y443000D01*
D02*
G37*
D24*
X393701Y393701D02*
Y708661D01*
X787402D01*
Y393701D02*
Y708661D01*
X393701Y393701D02*
X787402D01*
D25*
X793535Y641150D02*
X798200D01*
X795867D01*
Y634152D01*
X804031Y641150D02*
X801699D01*
X800532Y639984D01*
Y635319D01*
X801699Y634152D01*
X804031D01*
X805198Y635319D01*
Y639984D01*
X804031Y641150D01*
X807530Y634152D02*
Y641150D01*
X811029D01*
X812195Y639984D01*
Y637651D01*
X811029Y636485D01*
X807530D01*
X826191Y639984D02*
X825025Y641150D01*
X822692D01*
X821526Y639984D01*
Y638818D01*
X822692Y637651D01*
X825025D01*
X826191Y636485D01*
Y635319D01*
X825025Y634152D01*
X822692D01*
X821526Y635319D01*
X832022Y641150D02*
X829690D01*
X828523Y639984D01*
Y635319D01*
X829690Y634152D01*
X832022D01*
X833189Y635319D01*
Y639984D01*
X832022Y641150D01*
X835521D02*
Y634152D01*
X840186D01*
X842519Y641150D02*
Y634152D01*
X846018D01*
X847184Y635319D01*
Y639984D01*
X846018Y641150D01*
X842519D01*
X854182D02*
X849517D01*
Y634152D01*
X854182D01*
X849517Y637651D02*
X851849D01*
X856514Y634152D02*
Y641150D01*
X860013D01*
X861180Y639984D01*
Y637651D01*
X860013Y636485D01*
X856514D01*
X858847D02*
X861180Y634152D01*
D38*
X591900Y545499D02*
D03*
D53*
X652398Y438500D02*
D03*
X664602D02*
D03*
X652398Y460500D02*
D03*
X664602D02*
D03*
X495102Y595000D02*
D03*
X482898D02*
D03*
X456398Y582500D02*
D03*
X468602D02*
D03*
X444602Y510500D02*
D03*
X432398D02*
D03*
X493602Y495500D02*
D03*
X481398D02*
D03*
X458898D02*
D03*
X471102D02*
D03*
X541102Y510000D02*
D03*
X528898D02*
D03*
Y500500D02*
D03*
X541102D02*
D03*
X545602Y484000D02*
D03*
X533398D02*
D03*
X504602Y438000D02*
D03*
X492398D02*
D03*
X460602Y471000D02*
D03*
X448398D02*
D03*
X460602Y458500D02*
D03*
X448398D02*
D03*
X488398Y482000D02*
D03*
X500602D02*
D03*
X448398Y438000D02*
D03*
X460602D02*
D03*
X541398Y570000D02*
D03*
X553602D02*
D03*
X735602Y660500D02*
D03*
X723398D02*
D03*
X481398Y510500D02*
D03*
X493602D02*
D03*
X468602D02*
D03*
X456398D02*
D03*
X481398Y563500D02*
D03*
X493602D02*
D03*
X580102Y568500D02*
D03*
X567898D02*
D03*
Y581000D02*
D03*
X580102D02*
D03*
X547398Y553500D02*
D03*
X559602D02*
D03*
X444602Y525500D02*
D03*
X432398D02*
D03*
X456398D02*
D03*
X468602D02*
D03*
X481398D02*
D03*
X493602D02*
D03*
X444602Y563500D02*
D03*
X432398D02*
D03*
X456398Y545500D02*
D03*
X468602D02*
D03*
X469102Y563500D02*
D03*
X456898D02*
D03*
X663602Y557500D02*
D03*
X651398D02*
D03*
X699398Y660500D02*
D03*
X711602D02*
D03*
Y675000D02*
D03*
X699398D02*
D03*
X663602Y533500D02*
D03*
X651398D02*
D03*
X626398Y476500D02*
D03*
X638602D02*
D03*
X628398Y592000D02*
D03*
X640602D02*
D03*
X628398Y582500D02*
D03*
X640602D02*
D03*
X526102Y562500D02*
D03*
X513898D02*
D03*
X663602Y541600D02*
D03*
X651398D02*
D03*
Y587500D02*
D03*
X663602D02*
D03*
X493602Y545500D02*
D03*
X481398D02*
D03*
X530602Y438000D02*
D03*
X518398D02*
D03*
X567102Y433500D02*
D03*
X554898D02*
D03*
X442602Y648721D02*
D03*
X430398D02*
D03*
X468602Y675000D02*
D03*
X456398D02*
D03*
X521102D02*
D03*
X508898D02*
D03*
X456398Y622443D02*
D03*
X468602D02*
D03*
X430398D02*
D03*
X442602D02*
D03*
X521102Y648721D02*
D03*
X508898D02*
D03*
X521102Y622443D02*
D03*
X508898D02*
D03*
X456398Y648721D02*
D03*
X468602D02*
D03*
X482898D02*
D03*
X495102D02*
D03*
X456398Y595000D02*
D03*
X468602D02*
D03*
X495102Y622443D02*
D03*
X482898D02*
D03*
X442602Y595000D02*
D03*
X430398D02*
D03*
Y675000D02*
D03*
X442602D02*
D03*
X495102D02*
D03*
X482898D02*
D03*
X481398Y576000D02*
D03*
X493602D02*
D03*
X468602Y610000D02*
D03*
X456398D02*
D03*
Y661861D02*
D03*
X468602D02*
D03*
X521102D02*
D03*
X508898D02*
D03*
Y609500D02*
D03*
X521102D02*
D03*
X468602Y635582D02*
D03*
X456398D02*
D03*
X521102D02*
D03*
X508898D02*
D03*
X460602Y482500D02*
D03*
X448398D02*
D03*
D54*
X637500Y561299D02*
D03*
Y548701D02*
D03*
D55*
X479740Y442331D02*
D03*
X472260D02*
D03*
X476000Y433669D02*
D03*
D56*
X723004Y675000D02*
D03*
X735996D02*
D03*
X442996Y635582D02*
D03*
X430004D02*
D03*
Y609500D02*
D03*
X442996D02*
D03*
X495496Y635582D02*
D03*
X482504D02*
D03*
X430004Y582500D02*
D03*
X442996D02*
D03*
Y661861D02*
D03*
X430004D02*
D03*
X482504D02*
D03*
X495496D02*
D03*
Y609500D02*
D03*
X482504D02*
D03*
D57*
X642500Y501102D02*
D03*
Y488898D02*
D03*
Y521102D02*
D03*
Y508898D02*
D03*
D58*
X529646Y522500D02*
D03*
Y527500D02*
D03*
Y532500D02*
D03*
Y537500D02*
D03*
Y542500D02*
D03*
Y547500D02*
D03*
Y552500D02*
D03*
X510354Y522500D02*
D03*
Y527500D02*
D03*
Y532500D02*
D03*
Y537500D02*
D03*
Y542500D02*
D03*
Y547500D02*
D03*
Y552500D02*
D03*
D59*
X664724Y415354D02*
D03*
X527165D02*
D03*
X595591Y687008D02*
D03*
D60*
X674724Y415354D02*
D03*
X694724D02*
D03*
X704724D02*
D03*
X714724D02*
D03*
X724724D02*
D03*
X734724D02*
D03*
X744724D02*
D03*
X754724D02*
D03*
X684724D02*
D03*
X517165D02*
D03*
X507165D02*
D03*
X497165D02*
D03*
X605591Y687008D02*
D03*
X625591D02*
D03*
X635591D02*
D03*
X645591D02*
D03*
X655591D02*
D03*
X665591D02*
D03*
X675591D02*
D03*
X685591D02*
D03*
X615591D02*
D03*
D61*
X654500Y449500D02*
D03*
X658100Y494600D02*
D03*
Y514600D02*
D03*
X613000Y473500D02*
D03*
X665500Y449500D02*
D03*
X703900Y576600D02*
D03*
X720300Y547200D02*
D03*
X704724Y482424D02*
D03*
X686000Y544200D02*
D03*
X687400Y465800D02*
D03*
X579000Y420500D02*
D03*
D62*
X537500Y611500D02*
D03*
X547500D02*
D03*
X557500D02*
D03*
X567500D02*
D03*
X577500D02*
D03*
X587500D02*
D03*
X597500D02*
D03*
X607500D02*
D03*
X617500D02*
D03*
X627500D02*
D03*
X637500D02*
D03*
X647500D02*
D03*
X537500Y671500D02*
D03*
X547500D02*
D03*
X557500D02*
D03*
X567500D02*
D03*
X577500D02*
D03*
X587500D02*
D03*
X597500D02*
D03*
X607500D02*
D03*
X617500D02*
D03*
X627500D02*
D03*
X637500D02*
D03*
D63*
X647500D02*
D03*
D64*
X663000Y659000D02*
D03*
Y629000D02*
D03*
D65*
X432000Y433500D02*
D03*
Y473500D02*
D03*
X417500Y411500D02*
D03*
Y451500D02*
D03*
X595000Y502500D02*
D03*
Y523000D02*
D03*
X662500Y478500D02*
D03*
X619500Y597000D02*
D03*
X716500Y576500D02*
D03*
X724000Y539500D02*
D03*
D66*
X415354Y636614D02*
D03*
X765748D02*
D03*
D67*
X415354Y626614D02*
D03*
Y616614D02*
D03*
Y606614D02*
D03*
Y596614D02*
D03*
Y586614D02*
D03*
Y576614D02*
D03*
Y566614D02*
D03*
Y556614D02*
D03*
Y546614D02*
D03*
Y536614D02*
D03*
Y526614D02*
D03*
Y516614D02*
D03*
Y506614D02*
D03*
Y496614D02*
D03*
Y486614D02*
D03*
Y476614D02*
D03*
Y466614D02*
D03*
X765748Y446614D02*
D03*
Y456614D02*
D03*
Y466614D02*
D03*
Y476614D02*
D03*
Y486614D02*
D03*
Y496614D02*
D03*
Y506614D02*
D03*
Y516614D02*
D03*
Y526614D02*
D03*
Y536614D02*
D03*
Y546614D02*
D03*
Y556614D02*
D03*
Y566614D02*
D03*
Y576614D02*
D03*
Y586614D02*
D03*
Y596614D02*
D03*
Y606614D02*
D03*
Y616614D02*
D03*
Y626614D02*
D03*
D68*
X736000Y448000D02*
D03*
Y458000D02*
D03*
Y468000D02*
D03*
Y478000D02*
D03*
Y488000D02*
D03*
Y498000D02*
D03*
Y508000D02*
D03*
Y518000D02*
D03*
Y528000D02*
D03*
Y538000D02*
D03*
Y548000D02*
D03*
Y558000D02*
D03*
Y568000D02*
D03*
Y578000D02*
D03*
Y588000D02*
D03*
Y598000D02*
D03*
Y608000D02*
D03*
Y618000D02*
D03*
Y628000D02*
D03*
Y638000D02*
D03*
X676000Y448000D02*
D03*
Y458000D02*
D03*
Y468000D02*
D03*
Y478000D02*
D03*
Y488000D02*
D03*
Y498000D02*
D03*
Y508000D02*
D03*
Y518000D02*
D03*
Y528000D02*
D03*
Y538000D02*
D03*
Y548000D02*
D03*
Y558000D02*
D03*
Y568000D02*
D03*
Y578000D02*
D03*
Y588000D02*
D03*
Y598000D02*
D03*
Y608000D02*
D03*
Y618000D02*
D03*
Y628000D02*
D03*
X598500Y443500D02*
D03*
Y453500D02*
D03*
X475000Y461000D02*
D03*
X505000Y471000D02*
D03*
Y461000D02*
D03*
X554500D02*
D03*
Y471000D02*
D03*
X524500Y461000D02*
D03*
X641500Y426500D02*
D03*
Y436500D02*
D03*
Y446500D02*
D03*
Y456500D02*
D03*
X611500Y426500D02*
D03*
Y436500D02*
D03*
Y446500D02*
D03*
X678500Y672000D02*
D03*
Y662000D02*
D03*
D69*
X676000Y638000D02*
D03*
X475000Y471000D02*
D03*
X524500D02*
D03*
X611500Y456500D02*
D03*
D70*
X591900Y465873D02*
D03*
D71*
X442500Y495500D02*
D03*
X559000Y527500D02*
D03*
X595000Y581000D02*
D03*
X476000Y489000D02*
D03*
X603000Y576500D02*
D03*
X580000Y635000D02*
D03*
Y658500D02*
D03*
X563500Y510000D02*
D03*
X609500Y569500D02*
D03*
X545500Y450500D02*
D03*
X445000Y551000D02*
D03*
X429000Y538500D02*
D03*
X504000Y516500D02*
D03*
Y568500D02*
D03*
X420000Y673000D02*
D03*
X483000Y684500D02*
D03*
X507000Y428500D02*
D03*
X504500Y503000D02*
D03*
X475500Y589000D02*
D03*
X523500Y598500D02*
D03*
X473500Y641500D02*
D03*
Y616000D02*
D03*
X478422Y631500D02*
D03*
X477004Y604000D02*
D03*
X516500Y447000D02*
D03*
X436500Y456500D02*
D03*
X505000Y585000D02*
D03*
Y600000D02*
D03*
X433500Y574000D02*
D03*
X456000Y538000D02*
D03*
M02*
