%FSLAX25Y25*%
%MOIN*%
G70*
G01*
G75*
G04 Layer_Color=16711935*
%ADD10C,0.04000*%
%ADD11C,0.01800*%
%ADD12C,0.02400*%
%ADD13C,0.03000*%
%ADD14C,0.02200*%
%ADD15C,0.02000*%
%ADD16C,0.04400*%
%ADD17C,0.01600*%
%ADD18R,0.05906X0.06693*%
%ADD19R,0.10236X0.06693*%
%ADD20R,0.02362X0.06299*%
%ADD21R,0.06693X0.06693*%
%ADD22R,0.06693X0.05906*%
%ADD23O,0.09843X0.02756*%
%ADD24C,0.00800*%
%ADD25C,0.01200*%
%ADD26C,0.01400*%
%ADD27R,0.07500X0.09500*%
%ADD28O,0.07500X0.09500*%
%ADD29C,0.07500*%
%ADD30O,0.07500X0.09000*%
%ADD31R,0.07500X0.09000*%
%ADD32C,0.08500*%
%ADD33C,0.09000*%
%ADD34R,0.09500X0.07500*%
%ADD35O,0.09500X0.07500*%
%ADD36O,0.09000X0.07500*%
%ADD37R,0.09000X0.07500*%
%ADD38C,0.10000*%
%ADD39C,0.06000*%
%ADD40C,0.00787*%
%ADD41C,0.00984*%
%ADD42C,0.01000*%
%ADD43C,0.02362*%
%ADD44C,0.03937*%
%ADD45C,0.01500*%
%ADD46R,0.06000X0.05000*%
%ADD47R,0.07874X0.03937*%
%ADD48R,0.03445X0.12303*%
%ADD49R,0.03445X0.12303*%
%ADD50R,0.30610X0.06890*%
G04:AMPARAMS|DCode=51|XSize=18.01mil|YSize=15.74mil|CornerRadius=0mil|HoleSize=0mil|Usage=FLASHONLY|Rotation=217.000|XOffset=0mil|YOffset=0mil|HoleType=Round|Shape=Rectangle|*
%AMROTATEDRECTD51*
4,1,4,0.00246,0.01170,0.01193,-0.00087,-0.00246,-0.01170,-0.01193,0.00087,0.00246,0.01170,0.0*
%
%ADD51ROTATEDRECTD51*%

G04:AMPARAMS|DCode=52|XSize=18.01mil|YSize=15.74mil|CornerRadius=0mil|HoleSize=0mil|Usage=FLASHONLY|Rotation=143.000|XOffset=0mil|YOffset=0mil|HoleType=Round|Shape=Rectangle|*
%AMROTATEDRECTD52*
4,1,4,0.01193,0.00087,0.00246,-0.01170,-0.01193,-0.00087,-0.00246,0.01170,0.01193,0.00087,0.0*
%
%ADD52ROTATEDRECTD52*%

%ADD53R,0.06706X0.07493*%
%ADD54R,0.11036X0.07493*%
%ADD55R,0.03162X0.07099*%
%ADD56R,0.07493X0.07493*%
%ADD57R,0.07493X0.06706*%
%ADD58O,0.10642X0.03556*%
%ADD59R,0.08300X0.10300*%
%ADD60O,0.08300X0.10300*%
%ADD61C,0.08300*%
%ADD62O,0.08300X0.09800*%
%ADD63R,0.08300X0.09800*%
%ADD64C,0.09300*%
%ADD65C,0.09800*%
%ADD66R,0.10300X0.08300*%
%ADD67O,0.10300X0.08300*%
%ADD68O,0.09800X0.08300*%
%ADD69R,0.09800X0.08300*%
%ADD70C,0.10800*%
%ADD71C,0.06800*%
D24*
X393701Y393701D02*
Y708661D01*
X787402D01*
Y393701D02*
Y708661D01*
X393701Y393701D02*
X787402D01*
D25*
X793535Y619500D02*
Y612502D01*
X797034D01*
X798200Y613669D01*
Y614835D01*
X797034Y616001D01*
X793535D01*
X797034D01*
X798200Y617168D01*
Y618334D01*
X797034Y619500D01*
X793535D01*
X804031D02*
X801699D01*
X800532Y618334D01*
Y613669D01*
X801699Y612502D01*
X804031D01*
X805198Y613669D01*
Y618334D01*
X804031Y619500D01*
X807530D02*
X812195D01*
X809863D01*
Y612502D01*
X814528Y619500D02*
X819193D01*
X816860D01*
Y612502D01*
X825025Y619500D02*
X822692D01*
X821526Y618334D01*
Y613669D01*
X822692Y612502D01*
X825025D01*
X826191Y613669D01*
Y618334D01*
X825025Y619500D01*
X828523Y612502D02*
Y619500D01*
X830856Y617168D01*
X833189Y619500D01*
Y612502D01*
X847184Y618334D02*
X846018Y619500D01*
X843685D01*
X842519Y618334D01*
Y617168D01*
X843685Y616001D01*
X846018D01*
X847184Y614835D01*
Y613669D01*
X846018Y612502D01*
X843685D01*
X842519Y613669D01*
X853015Y619500D02*
X850683D01*
X849517Y618334D01*
Y613669D01*
X850683Y612502D01*
X853015D01*
X854182Y613669D01*
Y618334D01*
X853015Y619500D01*
X856514D02*
Y612502D01*
X861180D01*
X863512Y619500D02*
Y612502D01*
X867011D01*
X868177Y613669D01*
Y618334D01*
X867011Y619500D01*
X863512D01*
X875175D02*
X870510D01*
Y612502D01*
X875175D01*
X870510Y616001D02*
X872842D01*
X877507Y612502D02*
Y619500D01*
X881006D01*
X882173Y618334D01*
Y616001D01*
X881006Y614835D01*
X877507D01*
X879840D02*
X882173Y612502D01*
D38*
X591900Y545499D02*
D03*
D59*
X664724Y415354D02*
D03*
X527165D02*
D03*
X595591Y687008D02*
D03*
D60*
X674724Y415354D02*
D03*
X694724D02*
D03*
X704724D02*
D03*
X714724D02*
D03*
X724724D02*
D03*
X734724D02*
D03*
X744724D02*
D03*
X754724D02*
D03*
X684724D02*
D03*
X517165D02*
D03*
X507165D02*
D03*
X497165D02*
D03*
X605591Y687008D02*
D03*
X625591D02*
D03*
X635591D02*
D03*
X645591D02*
D03*
X655591D02*
D03*
X665591D02*
D03*
X675591D02*
D03*
X685591D02*
D03*
X615591D02*
D03*
D61*
X654500Y449500D02*
D03*
X658100Y494600D02*
D03*
Y514600D02*
D03*
X613000Y473500D02*
D03*
X665500Y449500D02*
D03*
X703900Y576600D02*
D03*
X720300Y547200D02*
D03*
X704724Y482424D02*
D03*
X686000Y544200D02*
D03*
X687400Y465800D02*
D03*
X579000Y420500D02*
D03*
D62*
X537500Y611500D02*
D03*
X547500D02*
D03*
X557500D02*
D03*
X567500D02*
D03*
X577500D02*
D03*
X587500D02*
D03*
X597500D02*
D03*
X607500D02*
D03*
X617500D02*
D03*
X627500D02*
D03*
X637500D02*
D03*
X647500D02*
D03*
X537500Y671500D02*
D03*
X547500D02*
D03*
X557500D02*
D03*
X567500D02*
D03*
X577500D02*
D03*
X587500D02*
D03*
X597500D02*
D03*
X607500D02*
D03*
X617500D02*
D03*
X627500D02*
D03*
X637500D02*
D03*
D63*
X647500D02*
D03*
D64*
X663000Y659000D02*
D03*
Y629000D02*
D03*
D65*
X432000Y433500D02*
D03*
Y473500D02*
D03*
X417500Y411500D02*
D03*
Y451500D02*
D03*
X595000Y502500D02*
D03*
Y523000D02*
D03*
X662500Y478500D02*
D03*
X619500Y597000D02*
D03*
X716500Y576500D02*
D03*
X724000Y539500D02*
D03*
D66*
X415354Y636614D02*
D03*
X765748D02*
D03*
D67*
X415354Y626614D02*
D03*
Y616614D02*
D03*
Y606614D02*
D03*
Y596614D02*
D03*
Y586614D02*
D03*
Y576614D02*
D03*
Y566614D02*
D03*
Y556614D02*
D03*
Y546614D02*
D03*
Y536614D02*
D03*
Y526614D02*
D03*
Y516614D02*
D03*
Y506614D02*
D03*
Y496614D02*
D03*
Y486614D02*
D03*
Y476614D02*
D03*
Y466614D02*
D03*
X765748Y446614D02*
D03*
Y456614D02*
D03*
Y466614D02*
D03*
Y476614D02*
D03*
Y486614D02*
D03*
Y496614D02*
D03*
Y506614D02*
D03*
Y516614D02*
D03*
Y526614D02*
D03*
Y536614D02*
D03*
Y546614D02*
D03*
Y556614D02*
D03*
Y566614D02*
D03*
Y576614D02*
D03*
Y586614D02*
D03*
Y596614D02*
D03*
Y606614D02*
D03*
Y616614D02*
D03*
Y626614D02*
D03*
D68*
X736000Y448000D02*
D03*
Y458000D02*
D03*
Y468000D02*
D03*
Y478000D02*
D03*
Y488000D02*
D03*
Y498000D02*
D03*
Y508000D02*
D03*
Y518000D02*
D03*
Y528000D02*
D03*
Y538000D02*
D03*
Y548000D02*
D03*
Y558000D02*
D03*
Y568000D02*
D03*
Y578000D02*
D03*
Y588000D02*
D03*
Y598000D02*
D03*
Y608000D02*
D03*
Y618000D02*
D03*
Y628000D02*
D03*
Y638000D02*
D03*
X676000Y448000D02*
D03*
Y458000D02*
D03*
Y468000D02*
D03*
Y478000D02*
D03*
Y488000D02*
D03*
Y498000D02*
D03*
Y508000D02*
D03*
Y518000D02*
D03*
Y528000D02*
D03*
Y538000D02*
D03*
Y548000D02*
D03*
Y558000D02*
D03*
Y568000D02*
D03*
Y578000D02*
D03*
Y588000D02*
D03*
Y598000D02*
D03*
Y608000D02*
D03*
Y618000D02*
D03*
Y628000D02*
D03*
X598500Y443500D02*
D03*
Y453500D02*
D03*
X475000Y461000D02*
D03*
X505000Y471000D02*
D03*
Y461000D02*
D03*
X554500D02*
D03*
Y471000D02*
D03*
X524500Y461000D02*
D03*
X641500Y426500D02*
D03*
Y436500D02*
D03*
Y446500D02*
D03*
Y456500D02*
D03*
X611500Y426500D02*
D03*
Y436500D02*
D03*
Y446500D02*
D03*
X678500Y672000D02*
D03*
Y662000D02*
D03*
D69*
X676000Y638000D02*
D03*
X475000Y471000D02*
D03*
X524500D02*
D03*
X611500Y456500D02*
D03*
D70*
X591900Y465873D02*
D03*
D71*
X442500Y495500D02*
D03*
X559000Y527500D02*
D03*
X595000Y581000D02*
D03*
X476000Y489000D02*
D03*
X603000Y576500D02*
D03*
X580000Y635000D02*
D03*
Y658500D02*
D03*
X563500Y510000D02*
D03*
X609500Y569500D02*
D03*
X545500Y450500D02*
D03*
X445000Y551000D02*
D03*
X429000Y538500D02*
D03*
X504000Y516500D02*
D03*
Y568500D02*
D03*
X420000Y673000D02*
D03*
X483000Y684500D02*
D03*
X507000Y428500D02*
D03*
X504500Y503000D02*
D03*
X475500Y589000D02*
D03*
X523500Y598500D02*
D03*
X473500Y641500D02*
D03*
Y616000D02*
D03*
X478422Y631500D02*
D03*
X477004Y604000D02*
D03*
X516500Y447000D02*
D03*
X436500Y456500D02*
D03*
X505000Y585000D02*
D03*
Y600000D02*
D03*
X433500Y574000D02*
D03*
X456000Y538000D02*
D03*
M02*
