%FSLAX25Y25*%
%MOIN*%
G70*
G01*
G75*
G04 Layer_Color=65535*
%ADD10C,0.04000*%
%ADD11C,0.01800*%
%ADD12C,0.02400*%
%ADD13C,0.03000*%
%ADD14C,0.02200*%
%ADD15C,0.02000*%
%ADD16C,0.04400*%
%ADD17C,0.01600*%
%ADD18R,0.05906X0.06693*%
%ADD19R,0.10236X0.06693*%
%ADD20R,0.02362X0.06299*%
%ADD21R,0.06693X0.06693*%
%ADD22R,0.06693X0.05906*%
%ADD23O,0.09843X0.02756*%
%ADD24C,0.00800*%
%ADD25C,0.01200*%
%ADD26C,0.01400*%
%ADD27R,0.07500X0.09500*%
%ADD28O,0.07500X0.09500*%
%ADD29C,0.07500*%
%ADD30O,0.07500X0.09000*%
%ADD31R,0.07500X0.09000*%
%ADD32C,0.08500*%
%ADD33C,0.09000*%
%ADD34R,0.09500X0.07500*%
%ADD35O,0.09500X0.07500*%
%ADD36O,0.09000X0.07500*%
%ADD37R,0.09000X0.07500*%
%ADD38C,0.10000*%
%ADD39C,0.06000*%
%ADD40C,0.00787*%
%ADD41C,0.00984*%
%ADD42C,0.01000*%
%ADD43C,0.02362*%
%ADD44C,0.03937*%
%ADD45C,0.01500*%
%ADD46R,0.06000X0.05000*%
%ADD47R,0.07874X0.03937*%
%ADD48R,0.03445X0.12303*%
%ADD49R,0.03445X0.12303*%
%ADD50R,0.30610X0.06890*%
G04:AMPARAMS|DCode=51|XSize=18.01mil|YSize=15.74mil|CornerRadius=0mil|HoleSize=0mil|Usage=FLASHONLY|Rotation=217.000|XOffset=0mil|YOffset=0mil|HoleType=Round|Shape=Rectangle|*
%AMROTATEDRECTD51*
4,1,4,0.00246,0.01170,0.01193,-0.00087,-0.00246,-0.01170,-0.01193,0.00087,0.00246,0.01170,0.0*
%
%ADD51ROTATEDRECTD51*%

G04:AMPARAMS|DCode=52|XSize=18.01mil|YSize=15.74mil|CornerRadius=0mil|HoleSize=0mil|Usage=FLASHONLY|Rotation=143.000|XOffset=0mil|YOffset=0mil|HoleType=Round|Shape=Rectangle|*
%AMROTATEDRECTD52*
4,1,4,0.01193,0.00087,0.00246,-0.01170,-0.01193,-0.00087,-0.00246,0.01170,0.01193,0.00087,0.0*
%
%ADD52ROTATEDRECTD52*%

D11*
X571502Y692502D02*
X573001Y691003D01*
X576000D01*
X577500Y692502D01*
Y694002D01*
X576000Y695502D01*
X573001D01*
X571502Y697001D01*
Y698500D01*
X573001Y700000D01*
X576000D01*
X577500Y698500D01*
X568503Y700000D02*
X562505Y694002D01*
X559506Y700000D02*
Y691003D01*
X553508Y700000D01*
Y691003D01*
X550509Y694002D02*
X549009D01*
Y695502D01*
X550509D01*
Y694002D01*
Y698500D02*
X549009D01*
Y700000D01*
X550509D01*
Y698500D01*
D17*
X471500Y399500D02*
Y404832D01*
X474166Y407497D01*
X476832Y404832D01*
Y399500D01*
Y403499D01*
X471500D01*
X479497Y399500D02*
X482163D01*
X480830D01*
Y407497D01*
X479497Y406165D01*
X494159Y404832D02*
Y399500D01*
Y402166D01*
X495492Y403499D01*
X496825Y404832D01*
X498158D01*
X506155Y399500D02*
X503490D01*
X502157Y400833D01*
Y403499D01*
X503490Y404832D01*
X506155D01*
X507488Y403499D01*
Y402166D01*
X502157D01*
X510154Y404832D02*
X512820Y399500D01*
X515486Y404832D01*
X518152Y406165D02*
X519485Y407497D01*
X522150D01*
X523483Y406165D01*
Y404832D01*
X522150Y403499D01*
X520817D01*
X522150D01*
X523483Y402166D01*
Y400833D01*
X522150Y399500D01*
X519485D01*
X518152Y400833D01*
X526149Y399500D02*
Y400833D01*
X527482D01*
Y399500D01*
X526149D01*
X532814D02*
X535479D01*
X534146D01*
Y407497D01*
X532814Y406165D01*
D24*
X647870Y443421D02*
X655547D01*
X661453D02*
X669130D01*
X647870Y433579D02*
X655547D01*
X661453D02*
X669130D01*
Y443421D01*
X647870Y433579D02*
Y443421D01*
Y465421D02*
X655547D01*
X661453D02*
X669130D01*
X647870Y455579D02*
X655547D01*
X661453D02*
X669130D01*
Y465421D01*
X647870Y455579D02*
Y465421D01*
X393701Y393701D02*
Y708661D01*
X787402D01*
Y393701D02*
Y708661D01*
X393701Y393701D02*
X787402D01*
X487250Y598000D02*
X490750D01*
X487250Y592000D02*
X490750D01*
X460750Y579500D02*
X464250D01*
X460750Y585500D02*
X464250D01*
X441453Y505579D02*
X449130D01*
X427870D02*
X435547D01*
X441453Y515421D02*
X449130D01*
X427870D02*
X435547D01*
X427870Y505579D02*
Y515421D01*
X449130Y505579D02*
Y515421D01*
X476870Y490579D02*
Y500421D01*
X498130Y490579D02*
Y500421D01*
X490453Y490579D02*
X498130D01*
X476870D02*
X484547D01*
X490453Y500421D02*
X498130D01*
X476870D02*
X484547D01*
X463250Y492500D02*
X466750D01*
X463250Y498500D02*
X466750D01*
X537953Y505079D02*
X545630D01*
X524370D02*
X532047D01*
X537953Y514921D02*
X545630D01*
X524370D02*
X532047D01*
X524370Y505079D02*
Y514921D01*
X545630Y505079D02*
Y514921D01*
X533250Y497500D02*
X536750D01*
X533250Y503500D02*
X536750D01*
X537750Y487000D02*
X541250D01*
X537750Y481000D02*
X541250D01*
X487870Y433079D02*
Y442921D01*
X509130Y433079D02*
Y442921D01*
X501453Y433079D02*
X509130D01*
X487870D02*
X495547D01*
X501453Y442921D02*
X509130D01*
X487870D02*
X495547D01*
X443870Y466079D02*
Y475921D01*
X465130Y466079D02*
Y475921D01*
X457453Y466079D02*
X465130D01*
X443870D02*
X451547D01*
X457453Y475921D02*
X465130D01*
X443870D02*
X451547D01*
X443870Y453579D02*
Y463421D01*
X465130Y453579D02*
Y463421D01*
X457453Y453579D02*
X465130D01*
X443870D02*
X451547D01*
X457453Y463421D02*
X465130D01*
X443870D02*
X451547D01*
X492750Y479000D02*
X496250D01*
X492750Y485000D02*
X496250D01*
X443870Y442921D02*
X451547D01*
X457453D02*
X465130D01*
X443870Y433079D02*
X451547D01*
X457453D02*
X465130D01*
Y442921D01*
X443870Y433079D02*
Y442921D01*
X558130Y565079D02*
Y574921D01*
X536870Y565079D02*
Y574921D01*
X544547D01*
X550453D02*
X558130D01*
X536870Y565079D02*
X544547D01*
X550453D02*
X558130D01*
X732453Y655579D02*
X740130D01*
X718870D02*
X726547D01*
X732453Y665421D02*
X740130D01*
X718870D02*
X726547D01*
X718870Y655579D02*
Y665421D01*
X740130Y655579D02*
Y665421D01*
X498130Y505579D02*
Y515421D01*
X476870Y505579D02*
Y515421D01*
X484547D01*
X490453D02*
X498130D01*
X476870Y505579D02*
X484547D01*
X490453D02*
X498130D01*
X465453D02*
X473130D01*
X451870D02*
X459547D01*
X465453Y515421D02*
X473130D01*
X451870D02*
X459547D01*
X451870Y505579D02*
Y515421D01*
X473130Y505579D02*
Y515421D01*
X498130Y558579D02*
Y568421D01*
X476870Y558579D02*
Y568421D01*
X484547D01*
X490453D02*
X498130D01*
X476870Y558579D02*
X484547D01*
X490453D02*
X498130D01*
X576953Y563579D02*
X584630D01*
X563370D02*
X571047D01*
X576953Y573421D02*
X584630D01*
X563370D02*
X571047D01*
X563370Y563579D02*
Y573421D01*
X584630Y563579D02*
Y573421D01*
X563370Y585921D02*
X571047D01*
X576953D02*
X584630D01*
X563370Y576079D02*
X571047D01*
X576953D02*
X584630D01*
Y585921D01*
X563370Y576079D02*
Y585921D01*
X564130Y548579D02*
Y558421D01*
X542870Y548579D02*
Y558421D01*
X550547D01*
X556453D02*
X564130D01*
X542870Y548579D02*
X550547D01*
X556453D02*
X564130D01*
X441453Y520579D02*
X449130D01*
X427870D02*
X435547D01*
X441453Y530421D02*
X449130D01*
X427870D02*
X435547D01*
X427870Y520579D02*
Y530421D01*
X449130Y520579D02*
Y530421D01*
X473130Y520579D02*
Y530421D01*
X451870Y520579D02*
Y530421D01*
X459547D01*
X465453D02*
X473130D01*
X451870Y520579D02*
X459547D01*
X465453D02*
X473130D01*
X498130D02*
Y530421D01*
X476870Y520579D02*
Y530421D01*
X484547D01*
X490453D02*
X498130D01*
X476870Y520579D02*
X484547D01*
X490453D02*
X498130D01*
X427870Y558579D02*
Y568421D01*
X449130Y558579D02*
Y568421D01*
X441453Y558579D02*
X449130D01*
X427870D02*
X435547D01*
X441453Y568421D02*
X449130D01*
X427870D02*
X435547D01*
X451870Y550421D02*
X459547D01*
X465453D02*
X473130D01*
X451870Y540579D02*
X459547D01*
X465453D02*
X473130D01*
Y550421D01*
X451870Y540579D02*
Y550421D01*
X452370Y558579D02*
Y568421D01*
X473630Y558579D02*
Y568421D01*
X465953Y558579D02*
X473630D01*
X452370D02*
X460047D01*
X465953Y568421D02*
X473630D01*
X452370D02*
X460047D01*
X660453Y552579D02*
X668130D01*
X646870D02*
X654547D01*
X660453Y562421D02*
X668130D01*
X646870D02*
X654547D01*
X646870Y552579D02*
Y562421D01*
X668130Y552579D02*
Y562421D01*
X716130Y655579D02*
Y665421D01*
X694870Y655579D02*
Y665421D01*
X702547D01*
X708453D02*
X716130D01*
X694870Y655579D02*
X702547D01*
X708453D02*
X716130D01*
X732650Y679921D02*
X741311D01*
X732650Y670079D02*
X741311D01*
Y679921D01*
X719658D02*
X726351D01*
X717689Y677953D02*
X719658Y679921D01*
X717689Y672047D02*
Y677953D01*
Y672047D02*
X719658Y670079D01*
X726351D01*
X703750Y678000D02*
X707250D01*
X703750Y672000D02*
X707250D01*
X655750Y536500D02*
X659250D01*
X655750Y530500D02*
X659250D01*
X630750Y473500D02*
X634250D01*
X630750Y479500D02*
X634250D01*
X632750Y589000D02*
X636250D01*
X632750Y595000D02*
X636250D01*
X632750Y579500D02*
X636250D01*
X632750Y585500D02*
X636250D01*
X518250Y565500D02*
X521750D01*
X518250Y559500D02*
X521750D01*
X655750Y544600D02*
X659250D01*
X655750Y538600D02*
X659250D01*
X639500Y493250D02*
Y496750D01*
X645500Y493250D02*
Y496750D01*
X639500Y513250D02*
Y516750D01*
X645500Y513250D02*
Y516750D01*
X646870Y592421D02*
X654547D01*
X660453D02*
X668130D01*
X646870Y582579D02*
X654547D01*
X660453D02*
X668130D01*
Y592421D01*
X646870Y582579D02*
Y592421D01*
X490453Y540579D02*
X498130D01*
X476870D02*
X484547D01*
X490453Y550421D02*
X498130D01*
X476870D02*
X484547D01*
X476870Y540579D02*
Y550421D01*
X498130Y540579D02*
Y550421D01*
X527453Y433079D02*
X535130D01*
X513870D02*
X521547D01*
X527453Y442921D02*
X535130D01*
X513870D02*
X521547D01*
X513870Y433079D02*
Y442921D01*
X535130Y433079D02*
Y442921D01*
X563953Y428579D02*
X571630D01*
X550370D02*
X558047D01*
X563953Y438421D02*
X571630D01*
X550370D02*
X558047D01*
X550370Y428579D02*
Y438421D01*
X571630Y428579D02*
Y438421D01*
X426657Y630661D02*
X433350D01*
X424689Y632629D02*
X426657Y630661D01*
X424689Y632629D02*
Y638535D01*
X426657Y640503D01*
X433350D01*
X448311Y630661D02*
Y640503D01*
X439650Y630661D02*
X448311D01*
X439650Y640503D02*
X448311D01*
X439650Y614421D02*
X448311D01*
X439650Y604579D02*
X448311D01*
Y614421D01*
X426657D02*
X433350D01*
X424689Y612453D02*
X426657Y614421D01*
X424689Y606547D02*
Y612453D01*
Y606547D02*
X426657Y604579D01*
X433350D01*
X479157Y630661D02*
X485850D01*
X477189Y632629D02*
X479157Y630661D01*
X477189Y632629D02*
Y638535D01*
X479157Y640503D01*
X485850D01*
X500811Y630661D02*
Y640503D01*
X492150Y630661D02*
X500811D01*
X492150Y640503D02*
X500811D01*
X439650Y587421D02*
X448311D01*
X439650Y577579D02*
X448311D01*
Y587421D01*
X426657D02*
X433350D01*
X424689Y585453D02*
X426657Y587421D01*
X424689Y579547D02*
Y585453D01*
Y579547D02*
X426657Y577579D01*
X433350D01*
X426657Y656939D02*
X433350D01*
X424689Y658908D02*
X426657Y656939D01*
X424689Y658908D02*
Y664813D01*
X426657Y666782D01*
X433350D01*
X448311Y656939D02*
Y666782D01*
X439650Y656939D02*
X448311D01*
X439650Y666782D02*
X448311D01*
X492150D02*
X500811D01*
X492150Y656939D02*
X500811D01*
Y666782D01*
X479157D02*
X485850D01*
X477189Y664813D02*
X479157Y666782D01*
X477189Y658908D02*
Y664813D01*
Y658908D02*
X479157Y656939D01*
X485850D01*
X479157Y604382D02*
X485850D01*
X477189Y606350D02*
X479157Y604382D01*
X477189Y606350D02*
Y612650D01*
X479157Y614618D01*
X485850D01*
X500811Y604382D02*
Y614618D01*
X492150Y604382D02*
X500811D01*
X492150Y614618D02*
X500811D01*
X439453Y643800D02*
X447130D01*
X425870D02*
X433547D01*
X439453Y653643D02*
X447130D01*
X425870D02*
X433547D01*
X425870Y643800D02*
Y653643D01*
X447130Y643800D02*
Y653643D01*
X465453Y670079D02*
X473130D01*
X451870D02*
X459547D01*
X465453Y679921D02*
X473130D01*
X451870D02*
X459547D01*
X451870Y670079D02*
Y679921D01*
X473130Y670079D02*
Y679921D01*
X517953Y670079D02*
X525630D01*
X504370D02*
X512047D01*
X517953Y679921D02*
X525630D01*
X504370D02*
X512047D01*
X504370Y670079D02*
Y679921D01*
X525630Y670079D02*
Y679921D01*
X473130Y617521D02*
Y627364D01*
X451870Y617521D02*
Y627364D01*
X459547D01*
X465453D02*
X473130D01*
X451870Y617521D02*
X459547D01*
X465453D02*
X473130D01*
X447130D02*
Y627364D01*
X425870Y617521D02*
Y627364D01*
X433547D01*
X439453D02*
X447130D01*
X425870Y617521D02*
X433547D01*
X439453D02*
X447130D01*
X517953Y643800D02*
X525630D01*
X504370D02*
X512047D01*
X517953Y653643D02*
X525630D01*
X504370D02*
X512047D01*
X504370Y643800D02*
Y653643D01*
X525630Y643800D02*
Y653643D01*
X517953Y617521D02*
X525630D01*
X504370D02*
X512047D01*
X517953Y627364D02*
X525630D01*
X504370D02*
X512047D01*
X504370Y617521D02*
Y627364D01*
X525630Y617521D02*
Y627364D01*
X473130Y643800D02*
Y653643D01*
X451870Y643800D02*
Y653643D01*
X459547D01*
X465453D02*
X473130D01*
X451870Y643800D02*
X459547D01*
X465453D02*
X473130D01*
X499630D02*
Y653643D01*
X478370Y643800D02*
Y653643D01*
X486047D01*
X491953D02*
X499630D01*
X478370Y643800D02*
X486047D01*
X491953D02*
X499630D01*
X473130Y590079D02*
Y599921D01*
X451870Y590079D02*
Y599921D01*
X459547D01*
X465453D02*
X473130D01*
X451870Y590079D02*
X459547D01*
X465453D02*
X473130D01*
X491953Y617521D02*
X499630D01*
X478370D02*
X486047D01*
X491953Y627364D02*
X499630D01*
X478370D02*
X486047D01*
X478370Y617521D02*
Y627364D01*
X499630Y617521D02*
Y627364D01*
X425870Y590079D02*
Y599921D01*
X447130Y590079D02*
Y599921D01*
X439453Y590079D02*
X447130D01*
X425870D02*
X433547D01*
X439453Y599921D02*
X447130D01*
X425870D02*
X433547D01*
X425870Y679921D02*
X433547D01*
X439453D02*
X447130D01*
X425870Y670079D02*
X433547D01*
X439453D02*
X447130D01*
Y679921D01*
X425870Y670079D02*
Y679921D01*
X478370Y670079D02*
Y679921D01*
X499630Y670079D02*
Y679921D01*
X491953Y670079D02*
X499630D01*
X478370D02*
X486047D01*
X491953Y679921D02*
X499630D01*
X478370D02*
X486047D01*
X485750Y573000D02*
X489250D01*
X485750Y579000D02*
X489250D01*
X460750Y613000D02*
X464250D01*
X460750Y607000D02*
X464250D01*
X460750Y658861D02*
X464250D01*
X460750Y664861D02*
X464250D01*
X513250D02*
X516750D01*
X513250Y658861D02*
X516750D01*
X513250Y606500D02*
X516750D01*
X513250Y612500D02*
X516750D01*
X460750Y638582D02*
X464250D01*
X460750Y632582D02*
X464250D01*
X513250Y638582D02*
X516750D01*
X513250Y632582D02*
X516750D01*
X669000Y669500D02*
X688000D01*
X686000D02*
X687500Y671000D01*
X683500Y669500D02*
X686500Y672500D01*
X681000Y669500D02*
X681010D01*
X685753Y674243D01*
X678500Y669500D02*
X684315Y675315D01*
Y675327D01*
X676000Y669500D02*
X682500Y676000D01*
X673500Y669500D02*
X680500Y676500D01*
X671000Y669500D02*
X678500Y677000D01*
X669000Y669500D02*
Y670000D01*
X675500Y676500D01*
X443870Y477579D02*
Y487421D01*
X465130Y477579D02*
Y487421D01*
X457453Y477579D02*
X465130D01*
X443870D02*
X451547D01*
X457453Y487421D02*
X465130D01*
X443870D02*
X451547D01*
X648500Y425500D02*
Y430498D01*
X650999D01*
X651832Y429665D01*
Y427999D01*
X650999Y427166D01*
X648500D01*
X650166D02*
X651832Y425500D01*
X653498Y429665D02*
X654331Y430498D01*
X655998D01*
X656831Y429665D01*
Y428832D01*
X655998Y427999D01*
X655164D01*
X655998D01*
X656831Y427166D01*
Y426333D01*
X655998Y425500D01*
X654331D01*
X653498Y426333D01*
X661829Y425500D02*
X658497D01*
X661829Y428832D01*
Y429665D01*
X660996Y430498D01*
X659330D01*
X658497Y429665D01*
X648500Y467000D02*
Y471998D01*
X650999D01*
X651832Y471165D01*
Y469499D01*
X650999Y468666D01*
X648500D01*
X650166D02*
X651832Y467000D01*
X653498Y471165D02*
X654331Y471998D01*
X655998D01*
X656831Y471165D01*
Y470332D01*
X655998Y469499D01*
X655164D01*
X655998D01*
X656831Y468666D01*
Y467833D01*
X655998Y467000D01*
X654331D01*
X653498Y467833D01*
X658497Y467000D02*
X660163D01*
X659330D01*
Y471998D01*
X658497Y471165D01*
X426000Y482000D02*
Y486998D01*
X428499D01*
X429332Y486165D01*
Y484499D01*
X428499Y483666D01*
X426000D01*
X427666D02*
X429332Y482000D01*
X430998Y486165D02*
X431831Y486998D01*
X433498D01*
X434331Y486165D01*
Y485332D01*
X433498Y484499D01*
X432664D01*
X433498D01*
X434331Y483666D01*
Y482833D01*
X433498Y482000D01*
X431831D01*
X430998Y482833D01*
X435997Y486165D02*
X436830Y486998D01*
X438496D01*
X439329Y486165D01*
Y485332D01*
X438496Y484499D01*
X437663D01*
X438496D01*
X439329Y483666D01*
Y482833D01*
X438496Y482000D01*
X436830D01*
X435997Y482833D01*
X654800Y507898D02*
Y507065D01*
X656466Y505399D01*
X658132Y507065D01*
Y507898D01*
X656466Y505399D02*
Y502900D01*
X659798D02*
X661465D01*
X660631D01*
Y507898D01*
X659798Y507065D01*
X545000Y516000D02*
X540002D01*
Y518499D01*
X540835Y519332D01*
X542501D01*
X543334Y518499D01*
Y516000D01*
Y517666D02*
X545000Y519332D01*
Y520998D02*
Y522664D01*
Y521831D01*
X540002D01*
X540835Y520998D01*
X545000Y525164D02*
Y526830D01*
Y525997D01*
X540002D01*
X540835Y525164D01*
X544167Y529329D02*
X545000Y530162D01*
Y531828D01*
X544167Y532661D01*
X540835D01*
X540002Y531828D01*
Y530162D01*
X540835Y529329D01*
X541668D01*
X542501Y530162D01*
Y532661D01*
X499500Y491000D02*
Y495998D01*
X501999D01*
X502832Y495165D01*
Y493499D01*
X501999Y492666D01*
X499500D01*
X501166D02*
X502832Y491000D01*
X504498D02*
X506165D01*
X505331D01*
Y495998D01*
X504498Y495165D01*
X508664Y491000D02*
X510330D01*
X509497D01*
Y495998D01*
X508664Y495165D01*
X512829D02*
X513662Y495998D01*
X515328D01*
X516161Y495165D01*
Y494332D01*
X515328Y493499D01*
X516161Y492666D01*
Y491833D01*
X515328Y491000D01*
X513662D01*
X512829Y491833D01*
Y492666D01*
X513662Y493499D01*
X512829Y494332D01*
Y495165D01*
X513662Y493499D02*
X515328D01*
X428000Y499500D02*
Y504498D01*
X430499D01*
X431332Y503665D01*
Y501999D01*
X430499Y501166D01*
X428000D01*
X429666D02*
X431332Y499500D01*
X432998D02*
X434664D01*
X433831D01*
Y504498D01*
X432998Y503665D01*
X437164D02*
X437997Y504498D01*
X439663D01*
X440496Y503665D01*
Y500333D01*
X439663Y499500D01*
X437997D01*
X437164Y500333D01*
Y503665D01*
X442162D02*
X442995Y504498D01*
X444661D01*
X445494Y503665D01*
Y502832D01*
X444661Y501999D01*
X445494Y501166D01*
Y500333D01*
X444661Y499500D01*
X442995D01*
X442162Y500333D01*
Y501166D01*
X442995Y501999D01*
X442162Y502832D01*
Y503665D01*
X442995Y501999D02*
X444661D01*
X537000Y576000D02*
Y580998D01*
X539499D01*
X540332Y580165D01*
Y578499D01*
X539499Y577666D01*
X537000D01*
X538666D02*
X540332Y576000D01*
X541998D02*
X543665D01*
X542831D01*
Y580998D01*
X541998Y580165D01*
X546164D02*
X546997Y580998D01*
X548663D01*
X549496Y580165D01*
Y576833D01*
X548663Y576000D01*
X546997D01*
X546164Y576833D01*
Y580165D01*
X551162Y580998D02*
X554494D01*
Y580165D01*
X551162Y576833D01*
Y576000D01*
X742000Y658000D02*
Y662998D01*
X744499D01*
X745332Y662165D01*
Y660499D01*
X744499Y659666D01*
X742000D01*
X743666D02*
X745332Y658000D01*
X746998Y662998D02*
X750331D01*
Y662165D01*
X746998Y658833D01*
Y658000D01*
X755329Y662998D02*
X753663Y662165D01*
X751997Y660499D01*
Y658833D01*
X752830Y658000D01*
X754496D01*
X755329Y658833D01*
Y659666D01*
X754496Y660499D01*
X751997D01*
X499500Y507000D02*
Y511998D01*
X501999D01*
X502832Y511165D01*
Y509499D01*
X501999Y508666D01*
X499500D01*
X501166D02*
X502832Y507000D01*
X507831Y511998D02*
X506165Y511165D01*
X504498Y509499D01*
Y507833D01*
X505331Y507000D01*
X506998D01*
X507831Y507833D01*
Y508666D01*
X506998Y509499D01*
X504498D01*
X511996Y507000D02*
Y511998D01*
X509497Y509499D01*
X512829D01*
X452000Y499000D02*
Y503998D01*
X454499D01*
X455332Y503165D01*
Y501499D01*
X454499Y500666D01*
X452000D01*
X453666D02*
X455332Y499000D01*
X460331Y503998D02*
X458665Y503165D01*
X456998Y501499D01*
Y499833D01*
X457831Y499000D01*
X459498D01*
X460331Y499833D01*
Y500666D01*
X459498Y501499D01*
X456998D01*
X465329Y499000D02*
X461997D01*
X465329Y502332D01*
Y503165D01*
X464496Y503998D01*
X462830D01*
X461997Y503165D01*
X477000Y552500D02*
Y557498D01*
X479499D01*
X480332Y556665D01*
Y554999D01*
X479499Y554166D01*
X477000D01*
X478666D02*
X480332Y552500D01*
X485331Y557498D02*
X481998D01*
Y554999D01*
X483665Y555832D01*
X484498D01*
X485331Y554999D01*
Y553333D01*
X484498Y552500D01*
X482831D01*
X481998Y553333D01*
X486997Y556665D02*
X487830Y557498D01*
X489496D01*
X490329Y556665D01*
Y555832D01*
X489496Y554999D01*
X488663D01*
X489496D01*
X490329Y554166D01*
Y553333D01*
X489496Y552500D01*
X487830D01*
X486997Y553333D01*
X572500Y557500D02*
Y562498D01*
X574999D01*
X575832Y561665D01*
Y559999D01*
X574999Y559166D01*
X572500D01*
X574166D02*
X575832Y557500D01*
X580831D02*
X577498D01*
X580831Y560832D01*
Y561665D01*
X579998Y562498D01*
X578331D01*
X577498Y561665D01*
X582497Y557500D02*
X584163D01*
X583330D01*
Y562498D01*
X582497Y561665D01*
X563500Y587000D02*
Y591998D01*
X565999D01*
X566832Y591165D01*
Y589499D01*
X565999Y588666D01*
X563500D01*
X565166D02*
X566832Y587000D01*
X568498D02*
X570164D01*
X569331D01*
Y591998D01*
X568498Y591165D01*
X572664Y587833D02*
X573497Y587000D01*
X575163D01*
X575996Y587833D01*
Y591165D01*
X575163Y591998D01*
X573497D01*
X572664Y591165D01*
Y590332D01*
X573497Y589499D01*
X575996D01*
X543000Y542500D02*
Y547498D01*
X545499D01*
X546332Y546665D01*
Y544999D01*
X545499Y544166D01*
X543000D01*
X544666D02*
X546332Y542500D01*
X547998D02*
X549664D01*
X548831D01*
Y547498D01*
X547998Y546665D01*
X555496Y547498D02*
X553830Y546665D01*
X552164Y544999D01*
Y543333D01*
X552997Y542500D01*
X554663D01*
X555496Y543333D01*
Y544166D01*
X554663Y544999D01*
X552164D01*
X436500Y531500D02*
Y536498D01*
X438999D01*
X439832Y535665D01*
Y533999D01*
X438999Y533166D01*
X436500D01*
X438166D02*
X439832Y531500D01*
X441498D02*
X443164D01*
X442331D01*
Y536498D01*
X441498Y535665D01*
X445664D02*
X446497Y536498D01*
X448163D01*
X448996Y535665D01*
Y534832D01*
X448163Y533999D01*
X447330D01*
X448163D01*
X448996Y533166D01*
Y532333D01*
X448163Y531500D01*
X446497D01*
X445664Y532333D01*
X452000Y531500D02*
Y536498D01*
X454499D01*
X455332Y535665D01*
Y533999D01*
X454499Y533166D01*
X452000D01*
X453666D02*
X455332Y531500D01*
X456998D02*
X458665D01*
X457831D01*
Y536498D01*
X456998Y535665D01*
X461164D02*
X461997Y536498D01*
X463663D01*
X464496Y535665D01*
Y532333D01*
X463663Y531500D01*
X461997D01*
X461164Y532333D01*
Y535665D01*
X477000Y531500D02*
Y536498D01*
X479499D01*
X480332Y535665D01*
Y533999D01*
X479499Y533166D01*
X477000D01*
X478666D02*
X480332Y531500D01*
X481998Y535665D02*
X482831Y536498D01*
X484498D01*
X485331Y535665D01*
Y534832D01*
X484498Y533999D01*
X485331Y533166D01*
Y532333D01*
X484498Y531500D01*
X482831D01*
X481998Y532333D01*
Y533166D01*
X482831Y533999D01*
X481998Y534832D01*
Y535665D01*
X482831Y533999D02*
X484498D01*
X428000Y552500D02*
Y557498D01*
X430499D01*
X431332Y556665D01*
Y554999D01*
X430499Y554166D01*
X428000D01*
X429666D02*
X431332Y552500D01*
X436331Y557498D02*
X434664Y556665D01*
X432998Y554999D01*
Y553333D01*
X433831Y552500D01*
X435498D01*
X436331Y553333D01*
Y554166D01*
X435498Y554999D01*
X432998D01*
X442000Y541000D02*
Y545998D01*
X444499D01*
X445332Y545165D01*
Y543499D01*
X444499Y542666D01*
X442000D01*
X443666D02*
X445332Y541000D01*
X450331Y545998D02*
X446998D01*
Y543499D01*
X448665Y544332D01*
X449498D01*
X450331Y543499D01*
Y541833D01*
X449498Y541000D01*
X447831D01*
X446998Y541833D01*
X452500Y552500D02*
Y557498D01*
X454999D01*
X455832Y556665D01*
Y554999D01*
X454999Y554166D01*
X452500D01*
X454166D02*
X455832Y552500D01*
X459998D02*
Y557498D01*
X457498Y554999D01*
X460831D01*
X647000Y564000D02*
Y568998D01*
X649499D01*
X650332Y568165D01*
Y566499D01*
X649499Y565666D01*
X647000D01*
X648666D02*
X650332Y564000D01*
X651998Y568165D02*
X652831Y568998D01*
X654498D01*
X655331Y568165D01*
Y567332D01*
X654498Y566499D01*
X653664D01*
X654498D01*
X655331Y565666D01*
Y564833D01*
X654498Y564000D01*
X652831D01*
X651998Y564833D01*
X695000Y649500D02*
Y654498D01*
X697499D01*
X698332Y653665D01*
Y651999D01*
X697499Y651166D01*
X695000D01*
X696666D02*
X698332Y649500D01*
X699998D02*
X701664D01*
X700831D01*
Y654498D01*
X699998Y653665D01*
X742500Y676998D02*
Y672000D01*
X744999D01*
X745832Y672833D01*
Y676165D01*
X744999Y676998D01*
X742500D01*
X750831D02*
X749164Y676165D01*
X747498Y674499D01*
Y672833D01*
X748331Y672000D01*
X749998D01*
X750831Y672833D01*
Y673666D01*
X749998Y674499D01*
X747498D01*
X752497Y676998D02*
X755829D01*
Y676165D01*
X752497Y672833D01*
Y672000D01*
X700332Y684165D02*
X699499Y684998D01*
X697833D01*
X697000Y684165D01*
Y680833D01*
X697833Y680000D01*
X699499D01*
X700332Y680833D01*
X701998Y684998D02*
X705331D01*
Y684165D01*
X701998Y680833D01*
Y680000D01*
X706997Y684165D02*
X707830Y684998D01*
X709496D01*
X710329Y684165D01*
Y680833D01*
X709496Y680000D01*
X707830D01*
X706997Y680833D01*
Y684165D01*
X637332Y535665D02*
X636499Y536498D01*
X634833D01*
X634000Y535665D01*
Y532333D01*
X634833Y531500D01*
X636499D01*
X637332Y532333D01*
X642331Y536498D02*
X640664Y535665D01*
X638998Y533999D01*
Y532333D01*
X639831Y531500D01*
X641498D01*
X642331Y532333D01*
Y533166D01*
X641498Y533999D01*
X638998D01*
X643997Y532333D02*
X644830Y531500D01*
X646496D01*
X647329Y532333D01*
Y535665D01*
X646496Y536498D01*
X644830D01*
X643997Y535665D01*
Y534832D01*
X644830Y533999D01*
X647329D01*
X658332Y678165D02*
X657499Y678998D01*
X655833D01*
X655000Y678165D01*
Y674833D01*
X655833Y674000D01*
X657499D01*
X658332Y674833D01*
X663331Y678998D02*
X661664Y678165D01*
X659998Y676499D01*
Y674833D01*
X660831Y674000D01*
X662498D01*
X663331Y674833D01*
Y675666D01*
X662498Y676499D01*
X659998D01*
X664997Y678165D02*
X665830Y678998D01*
X667496D01*
X668329Y678165D01*
Y677332D01*
X667496Y676499D01*
X668329Y675666D01*
Y674833D01*
X667496Y674000D01*
X665830D01*
X664997Y674833D01*
Y675666D01*
X665830Y676499D01*
X664997Y677332D01*
Y678165D01*
X665830Y676499D02*
X667496D01*
X500832Y578165D02*
X499999Y578998D01*
X498333D01*
X497500Y578165D01*
Y574833D01*
X498333Y574000D01*
X499999D01*
X500832Y574833D01*
X505831Y578998D02*
X502498D01*
Y576499D01*
X504165Y577332D01*
X504998D01*
X505831Y576499D01*
Y574833D01*
X504998Y574000D01*
X503331D01*
X502498Y574833D01*
X507497Y578998D02*
X510829D01*
Y578165D01*
X507497Y574833D01*
Y574000D01*
X646332Y478165D02*
X645499Y478998D01*
X643833D01*
X643000Y478165D01*
Y474833D01*
X643833Y474000D01*
X645499D01*
X646332Y474833D01*
X650498Y474000D02*
Y478998D01*
X647998Y476499D01*
X651331D01*
X656329Y478998D02*
X654663Y478165D01*
X652997Y476499D01*
Y474833D01*
X653830Y474000D01*
X655496D01*
X656329Y474833D01*
Y475666D01*
X655496Y476499D01*
X652997D01*
X631332Y601165D02*
X630499Y601998D01*
X628833D01*
X628000Y601165D01*
Y597833D01*
X628833Y597000D01*
X630499D01*
X631332Y597833D01*
X636331Y597000D02*
X632998D01*
X636331Y600332D01*
Y601165D01*
X635498Y601998D01*
X633831D01*
X632998Y601165D01*
X637997D02*
X638830Y601998D01*
X640496D01*
X641329Y601165D01*
Y597833D01*
X640496Y597000D01*
X638830D01*
X637997Y597833D01*
Y601165D01*
X514832Y501665D02*
X513999Y502498D01*
X512333D01*
X511500Y501665D01*
Y498333D01*
X512333Y497500D01*
X513999D01*
X514832Y498333D01*
X516498Y497500D02*
X518164D01*
X517331D01*
Y502498D01*
X516498Y501665D01*
X523996Y502498D02*
X520664D01*
Y499999D01*
X522330Y500832D01*
X523163D01*
X523996Y499999D01*
Y498333D01*
X523163Y497500D01*
X521497D01*
X520664Y498333D01*
X614332Y584165D02*
X613499Y584998D01*
X611833D01*
X611000Y584165D01*
Y580833D01*
X611833Y580000D01*
X613499D01*
X614332Y580833D01*
X615998Y580000D02*
X617664D01*
X616831D01*
Y584998D01*
X615998Y584165D01*
X622663Y580000D02*
Y584998D01*
X620164Y582499D01*
X623496D01*
X445332Y497165D02*
X444499Y497998D01*
X442833D01*
X442000Y497165D01*
Y493833D01*
X442833Y493000D01*
X444499D01*
X445332Y493833D01*
X446998Y493000D02*
X448665D01*
X447831D01*
Y497998D01*
X446998Y497165D01*
X451164D02*
X451997Y497998D01*
X453663D01*
X454496Y497165D01*
Y496332D01*
X453663Y495499D01*
X452830D01*
X453663D01*
X454496Y494666D01*
Y493833D01*
X453663Y493000D01*
X451997D01*
X451164Y493833D01*
X514332Y571165D02*
X513499Y571998D01*
X511833D01*
X511000Y571165D01*
Y567833D01*
X511833Y567000D01*
X513499D01*
X514332Y567833D01*
X515998Y567000D02*
X517664D01*
X516831D01*
Y571998D01*
X515998Y571165D01*
X523496Y567000D02*
X520164D01*
X523496Y570332D01*
Y571165D01*
X522663Y571998D01*
X520997D01*
X520164Y571165D01*
X640332Y542665D02*
X639499Y543498D01*
X637833D01*
X637000Y542665D01*
Y539333D01*
X637833Y538500D01*
X639499D01*
X640332Y539333D01*
X641998Y538500D02*
X643665D01*
X642831D01*
Y543498D01*
X641998Y542665D01*
X646164Y538500D02*
X647830D01*
X646997D01*
Y543498D01*
X646164Y542665D01*
X523832Y485665D02*
X522999Y486498D01*
X521333D01*
X520500Y485665D01*
Y482333D01*
X521333Y481500D01*
X522999D01*
X523832Y482333D01*
X527998Y481500D02*
Y486498D01*
X525498Y483999D01*
X528831D01*
X632835Y489332D02*
X632002Y488499D01*
Y486833D01*
X632835Y486000D01*
X636167D01*
X637000Y486833D01*
Y488499D01*
X636167Y489332D01*
X632835Y490998D02*
X632002Y491831D01*
Y493498D01*
X632835Y494331D01*
X633668D01*
X634501Y493498D01*
Y492664D01*
Y493498D01*
X635334Y494331D01*
X636167D01*
X637000Y493498D01*
Y491831D01*
X636167Y490998D01*
X640832Y529665D02*
X639999Y530498D01*
X638333D01*
X637500Y529665D01*
Y526333D01*
X638333Y525500D01*
X639999D01*
X640832Y526333D01*
X645831Y525500D02*
X642498D01*
X645831Y528832D01*
Y529665D01*
X644998Y530498D01*
X643331D01*
X642498Y529665D01*
X660602Y614400D02*
X665600D01*
Y616899D01*
X664767Y617732D01*
X661435D01*
X660602Y616899D01*
Y614400D01*
X664767Y619398D02*
X665600Y620231D01*
Y621898D01*
X664767Y622731D01*
X661435D01*
X660602Y621898D01*
Y620231D01*
X661435Y619398D01*
X662268D01*
X663101Y620231D01*
Y622731D01*
X647000Y593500D02*
Y598498D01*
X649499D01*
X650332Y597665D01*
Y595999D01*
X649499Y595166D01*
X647000D01*
X648666D02*
X650332Y593500D01*
X655331D02*
X651998D01*
X655331Y596832D01*
Y597665D01*
X654498Y598498D01*
X652831D01*
X651998Y597665D01*
X486500Y534500D02*
Y539498D01*
X488999D01*
X489832Y538665D01*
Y536999D01*
X488999Y536166D01*
X486500D01*
X488166D02*
X489832Y534500D01*
X494831D02*
X491498D01*
X494831Y537832D01*
Y538665D01*
X493998Y539498D01*
X492331D01*
X491498Y538665D01*
X498996Y534500D02*
Y539498D01*
X496497Y536999D01*
X499829D01*
X474832Y483665D02*
X473999Y484498D01*
X472333D01*
X471500Y483665D01*
Y480333D01*
X472333Y479500D01*
X473999D01*
X474832Y480333D01*
X476498Y479500D02*
X478164D01*
X477331D01*
Y484498D01*
X476498Y483665D01*
X480664D02*
X481497Y484498D01*
X483163D01*
X483996Y483665D01*
Y480333D01*
X483163Y479500D01*
X481497D01*
X480664Y480333D01*
Y483665D01*
X488000Y426500D02*
Y431498D01*
X490499D01*
X491332Y430665D01*
Y428999D01*
X490499Y428166D01*
X488000D01*
X489666D02*
X491332Y426500D01*
X496331D02*
X492998D01*
X496331Y429832D01*
Y430665D01*
X495498Y431498D01*
X493831D01*
X492998Y430665D01*
X501329Y431498D02*
X497997D01*
Y428999D01*
X499663Y429832D01*
X500496D01*
X501329Y428999D01*
Y427333D01*
X500496Y426500D01*
X498830D01*
X497997Y427333D01*
X444000Y427000D02*
Y431998D01*
X446499D01*
X447332Y431165D01*
Y429499D01*
X446499Y428666D01*
X444000D01*
X445666D02*
X447332Y427000D01*
X452331D02*
X448998D01*
X452331Y430332D01*
Y431165D01*
X451498Y431998D01*
X449831D01*
X448998Y431165D01*
X457329Y431998D02*
X455663Y431165D01*
X453997Y429499D01*
Y427833D01*
X454830Y427000D01*
X456496D01*
X457329Y427833D01*
Y428666D01*
X456496Y429499D01*
X453997D01*
X442000Y465000D02*
X437002D01*
Y467499D01*
X437835Y468332D01*
X439501D01*
X440334Y467499D01*
Y465000D01*
Y466666D02*
X442000Y468332D01*
Y473331D02*
Y469998D01*
X438668Y473331D01*
X437835D01*
X437002Y472498D01*
Y470831D01*
X437835Y469998D01*
X437002Y474997D02*
Y478329D01*
X437835D01*
X441167Y474997D01*
X442000D01*
X444000Y447500D02*
Y452498D01*
X446499D01*
X447332Y451665D01*
Y449999D01*
X446499Y449166D01*
X444000D01*
X445666D02*
X447332Y447500D01*
X452331D02*
X448998D01*
X452331Y450832D01*
Y451665D01*
X451498Y452498D01*
X449831D01*
X448998Y451665D01*
X453997D02*
X454830Y452498D01*
X456496D01*
X457329Y451665D01*
Y450832D01*
X456496Y449999D01*
X457329Y449166D01*
Y448333D01*
X456496Y447500D01*
X454830D01*
X453997Y448333D01*
Y449166D01*
X454830Y449999D01*
X453997Y450832D01*
Y451665D01*
X454830Y449999D02*
X456496D01*
X514000Y427000D02*
Y431998D01*
X516499D01*
X517332Y431165D01*
Y429499D01*
X516499Y428666D01*
X514000D01*
X515666D02*
X517332Y427000D01*
X522331D02*
X518998D01*
X522331Y430332D01*
Y431165D01*
X521498Y431998D01*
X519831D01*
X518998Y431165D01*
X523997Y427833D02*
X524830Y427000D01*
X526496D01*
X527329Y427833D01*
Y431165D01*
X526496Y431998D01*
X524830D01*
X523997Y431165D01*
Y430332D01*
X524830Y429499D01*
X527329D01*
X550602Y422500D02*
Y427498D01*
X553102D01*
X553935Y426665D01*
Y424999D01*
X553102Y424166D01*
X550602D01*
X552269D02*
X553935Y422500D01*
X555601Y426665D02*
X556434Y427498D01*
X558100D01*
X558933Y426665D01*
Y425832D01*
X558100Y424999D01*
X557267D01*
X558100D01*
X558933Y424166D01*
Y423333D01*
X558100Y422500D01*
X556434D01*
X555601Y423333D01*
X560599Y426665D02*
X561432Y427498D01*
X563098D01*
X563931Y426665D01*
Y423333D01*
X563098Y422500D01*
X561432D01*
X560599Y423333D01*
Y426665D01*
X475832Y424333D02*
Y427665D01*
X474999Y428498D01*
X473333D01*
X472500Y427665D01*
Y424333D01*
X473333Y423500D01*
X474999D01*
X474166Y425166D02*
X475832Y423500D01*
X474999D02*
X475832Y424333D01*
X477498Y423500D02*
X479165D01*
X478331D01*
Y428498D01*
X477498Y427665D01*
D25*
X793535Y662800D02*
X798200D01*
X795867D01*
Y655802D01*
X804031Y662800D02*
X801699D01*
X800532Y661634D01*
Y656969D01*
X801699Y655802D01*
X804031D01*
X805198Y656969D01*
Y661634D01*
X804031Y662800D01*
X807530Y655802D02*
Y662800D01*
X811029D01*
X812195Y661634D01*
Y659301D01*
X811029Y658135D01*
X807530D01*
X821526Y662800D02*
Y655802D01*
X826191D01*
X833189Y662800D02*
X828523D01*
Y655802D01*
X833189D01*
X828523Y659301D02*
X830856D01*
X840186Y661634D02*
X839020Y662800D01*
X836687D01*
X835521Y661634D01*
Y656969D01*
X836687Y655802D01*
X839020D01*
X840186Y656969D01*
Y659301D01*
X837854D01*
X847184Y662800D02*
X842519D01*
Y655802D01*
X847184D01*
X842519Y659301D02*
X844851D01*
X849517Y655802D02*
Y662800D01*
X854182Y655802D01*
Y662800D01*
X856514D02*
Y655802D01*
X860013D01*
X861180Y656969D01*
Y661634D01*
X860013Y662800D01*
X856514D01*
D26*
X747835Y452332D02*
X746503Y450999D01*
Y448333D01*
X747835Y447000D01*
X749168D01*
X750501Y448333D01*
Y450999D01*
X751834Y452332D01*
X753167D01*
X754500Y450999D01*
Y448333D01*
X753167Y447000D01*
X746503Y454997D02*
Y457663D01*
Y456330D01*
X754500D01*
Y454997D01*
Y457663D01*
Y461662D02*
X746503D01*
X749168Y464328D01*
X746503Y466994D01*
X754500D01*
X747835Y474991D02*
X746503Y473658D01*
Y470992D01*
X747835Y469659D01*
X753167D01*
X754500Y470992D01*
Y473658D01*
X753167Y474991D01*
X746503Y481656D02*
Y478990D01*
X747835Y477657D01*
X753167D01*
X754500Y478990D01*
Y481656D01*
X753167Y482988D01*
X747835D01*
X746503Y481656D01*
X754500Y485654D02*
X746503D01*
X754500Y490986D01*
X746503D01*
X747835Y498983D02*
X746503Y497650D01*
Y494984D01*
X747835Y493652D01*
X749168D01*
X750501Y494984D01*
Y497650D01*
X751834Y498983D01*
X753167D01*
X754500Y497650D01*
Y494984D01*
X753167Y493652D01*
X747835Y514978D02*
X746503Y513645D01*
Y510979D01*
X747835Y509646D01*
X753167D01*
X754500Y510979D01*
Y513645D01*
X753167Y514978D01*
X746503Y521642D02*
Y518977D01*
X747835Y517644D01*
X753167D01*
X754500Y518977D01*
Y521642D01*
X753167Y522975D01*
X747835D01*
X746503Y521642D01*
X754500Y525641D02*
X746503D01*
X754500Y530973D01*
X746503D01*
Y533639D02*
Y538970D01*
Y536304D01*
X754500D01*
Y541636D02*
X746503D01*
Y545635D01*
X747835Y546968D01*
X750501D01*
X751834Y545635D01*
Y541636D01*
Y544302D02*
X754500Y546968D01*
X746503Y553632D02*
Y550966D01*
X747835Y549633D01*
X753167D01*
X754500Y550966D01*
Y553632D01*
X753167Y554965D01*
X747835D01*
X746503Y553632D01*
Y557631D02*
X754500D01*
Y562962D01*
X747835Y578957D02*
X746503Y577624D01*
Y574959D01*
X747835Y573626D01*
X749168D01*
X750501Y574959D01*
Y577624D01*
X751834Y578957D01*
X753167D01*
X754500Y577624D01*
Y574959D01*
X753167Y573626D01*
X746503Y581623D02*
X747835D01*
X750501Y584289D01*
X747835Y586955D01*
X746503D01*
X750501Y584289D02*
X754500D01*
X747835Y594952D02*
X746503Y593619D01*
Y590953D01*
X747835Y589620D01*
X749168D01*
X750501Y590953D01*
Y593619D01*
X751834Y594952D01*
X753167D01*
X754500Y593619D01*
Y590953D01*
X753167Y589620D01*
X746503Y597618D02*
Y602949D01*
Y600284D01*
X754500D01*
Y605615D02*
X746503D01*
X749168Y608281D01*
X746503Y610947D01*
X754500D01*
X746503Y618944D02*
Y613613D01*
X754500D01*
Y618944D01*
X750501Y613613D02*
Y616279D01*
X747835Y626942D02*
X746503Y625609D01*
Y622943D01*
X747835Y621610D01*
X749168D01*
X750501Y622943D01*
Y625609D01*
X751834Y626942D01*
X753167D01*
X754500Y625609D01*
Y622943D01*
X753167Y621610D01*
D40*
X656083Y644000D02*
G03*
X656083Y639000I0J-2500D01*
G01*
X703500Y648709D02*
G03*
X708500Y648709I2500J0D01*
G01*
X487500Y476039D02*
G03*
X492500Y476039I2500J0D01*
G01*
X537000D02*
G03*
X542000Y476039I2500J0D01*
G01*
X586012Y546976D02*
G03*
X567512Y536875I5888J-32776D01*
G01*
X616288D02*
G03*
X597788Y546976I-24388J-22675D01*
G01*
X624000Y461776D02*
G03*
X629000Y461776I2500J0D01*
G01*
X667224Y420354D02*
X759724D01*
X659724D02*
X667224D01*
X659724Y410354D02*
Y420354D01*
Y410354D02*
X759724D01*
Y420354D01*
X644193Y544567D02*
Y552047D01*
X630807Y544567D02*
Y552047D01*
Y544567D02*
X644193D01*
X632382Y566614D02*
X642618D01*
X644193Y557953D02*
Y564646D01*
X630807D02*
X632382Y566614D01*
X642618D02*
X644193Y564646D01*
X630807Y557953D02*
Y564646D01*
X528917Y616106D02*
X656083D01*
X528917Y666894D02*
X656083D01*
X528917Y616106D02*
Y666894D01*
X656083Y616106D02*
Y639000D01*
Y644000D02*
Y666894D01*
X481906Y435244D02*
Y437606D01*
X478756Y435244D02*
X481906D01*
X470094D02*
Y437606D01*
Y435244D02*
X473244D01*
X663000Y634000D02*
X666000D01*
Y654000D01*
X660000D02*
X666000D01*
X660000Y634000D02*
Y654000D01*
Y634000D02*
X663000D01*
Y654000D02*
Y654900D01*
Y633100D02*
Y634000D01*
X532165Y410354D02*
Y420354D01*
X492165Y410354D02*
X532165D01*
X492165Y420354D02*
X532165D01*
X492165Y410354D02*
Y420354D01*
X428000Y441689D02*
X436000D01*
X428000D02*
Y465311D01*
X436000D01*
Y441689D02*
Y465311D01*
X432000Y438250D02*
Y441689D01*
Y465311D02*
Y468750D01*
X413500Y419689D02*
X421500D01*
X413500D02*
Y443311D01*
X421500D01*
Y419689D02*
Y443311D01*
X417500Y416250D02*
Y419689D01*
Y443311D02*
Y446750D01*
X760748Y441614D02*
X770748D01*
X760748D02*
Y641614D01*
X770748D01*
Y634114D02*
Y641614D01*
Y441614D02*
Y634114D01*
X420354D02*
Y641614D01*
X410354D02*
X420354D01*
X410354Y461614D02*
Y641614D01*
Y461614D02*
X420354D01*
Y634114D01*
X598091Y692008D02*
X690591D01*
X590591D02*
X598091D01*
X590591Y682008D02*
Y692008D01*
Y682008D02*
X690591D01*
Y692008D01*
X680606Y437291D02*
X731394D01*
X708500Y648709D02*
X731394D01*
X680606D02*
X703500D01*
X731394Y437291D02*
Y648709D01*
X680606Y437291D02*
Y648709D01*
X516850Y520177D02*
Y554823D01*
X523150Y520177D02*
Y554823D01*
X516850D02*
X523150D01*
X516850Y520177D02*
X523150D01*
X479567Y455961D02*
Y476039D01*
X500433Y455961D02*
Y476039D01*
X479567D02*
X487500D01*
X492500D02*
X500433D01*
X479567Y455961D02*
X500433D01*
X529067D02*
X549933D01*
X542000Y476039D02*
X549933D01*
X529067D02*
X537000D01*
X549933Y455961D02*
Y476039D01*
X529067Y455961D02*
Y476039D01*
X606861Y464987D02*
Y473157D01*
X576939Y464987D02*
Y473255D01*
X584617Y554850D02*
X585994Y547074D01*
X561880Y542153D02*
X567512Y536875D01*
X616288D02*
X621920Y542153D01*
X597806Y547074D02*
X599183Y554850D01*
X616067Y421224D02*
X636933D01*
X629000Y461776D02*
X636933D01*
X616067D02*
X624000D01*
X636933Y421224D02*
Y461776D01*
X616067Y421224D02*
Y461776D01*
D41*
X483579Y442331D02*
G03*
X483579Y442331I-492J0D01*
G01*
X676492Y643118D02*
G03*
X676492Y643118I-492J0D01*
G01*
X510847Y556043D02*
G03*
X510847Y556043I-492J0D01*
G01*
X475492Y476118D02*
G03*
X475492Y476118I-492J0D01*
G01*
X524992D02*
G03*
X524992Y476118I-492J0D01*
G01*
X611992Y461618D02*
G03*
X611992Y461618I-492J0D01*
G01*
D42*
X649350Y493350D02*
G03*
X666850Y493350I8750J0D01*
G01*
Y517100D02*
G03*
X649350Y517100I-8750J0D01*
G01*
X688500Y667000D02*
G03*
X688500Y667000I-10000J0D01*
G01*
X649350Y493350D02*
Y517100D01*
X666850Y493350D02*
Y517100D01*
X591000Y443500D02*
Y453500D01*
X560500D02*
X591000D01*
X560500Y443500D02*
Y453500D01*
Y443500D02*
X591000D01*
X682000Y423500D02*
Y428498D01*
X684499D01*
X685332Y427665D01*
Y425999D01*
X684499Y425166D01*
X682000D01*
X690331Y423500D02*
X686998D01*
X690331Y426832D01*
Y427665D01*
X689498Y428498D01*
X687831D01*
X686998Y427665D01*
X696995Y423500D02*
Y428498D01*
X699494D01*
X700327Y427665D01*
Y425999D01*
X699494Y425166D01*
X696995D01*
X698661D02*
X700327Y423500D01*
X705326Y428498D02*
X701994D01*
Y423500D01*
X705326D01*
X701994Y425999D02*
X703660D01*
X706992Y428498D02*
Y423500D01*
X710324D01*
X711990D02*
Y426832D01*
X713656Y428498D01*
X715322Y426832D01*
Y423500D01*
Y425999D01*
X711990D01*
X716989Y428498D02*
Y427665D01*
X718655Y425999D01*
X720321Y427665D01*
Y428498D01*
X718655Y425999D02*
Y423500D01*
X725319Y427665D02*
X724486Y428498D01*
X722820D01*
X721987Y427665D01*
Y426832D01*
X722820Y425999D01*
X724486D01*
X725319Y425166D01*
Y424333D01*
X724486Y423500D01*
X722820D01*
X721987Y424333D01*
X623000Y418998D02*
Y414000D01*
X624000Y413000D01*
X625999D01*
X626999Y414000D01*
Y418998D01*
X628998Y414000D02*
X629998Y413000D01*
X631997D01*
X632997Y414000D01*
Y417998D01*
X631997Y418998D01*
X629998D01*
X628998Y417998D01*
Y416999D01*
X629998Y415999D01*
X632997D01*
X508500Y518998D02*
Y514000D01*
X509500Y513000D01*
X511499D01*
X512499Y514000D01*
Y518998D01*
X514498Y517998D02*
X515498Y518998D01*
X517497D01*
X518497Y517998D01*
Y516999D01*
X517497Y515999D01*
X516497D01*
X517497D01*
X518497Y514999D01*
Y514000D01*
X517497Y513000D01*
X515498D01*
X514498Y514000D01*
X576000Y440998D02*
Y439998D01*
X577999Y437999D01*
X579999Y439998D01*
Y440998D01*
X577999Y437999D02*
Y435000D01*
X585997D02*
X581998D01*
X585997Y438999D01*
Y439998D01*
X584997Y440998D01*
X582998D01*
X581998Y439998D01*
X534500Y602998D02*
Y598000D01*
X535500Y597000D01*
X537499D01*
X538499Y598000D01*
Y602998D01*
X544497Y597000D02*
X540498D01*
X544497Y600999D01*
Y601998D01*
X543497Y602998D01*
X541498D01*
X540498Y601998D01*
X739500Y645500D02*
Y651498D01*
X741499Y649499D01*
X743499Y651498D01*
Y645500D01*
X749497Y650498D02*
X748497Y651498D01*
X746498D01*
X745498Y650498D01*
Y646500D01*
X746498Y645500D01*
X748497D01*
X749497Y646500D01*
X751496Y645500D02*
X753496D01*
X752496D01*
Y651498D01*
X751496Y650498D01*
X623002Y553000D02*
X629000D01*
Y555999D01*
X628000Y556999D01*
X624002D01*
X623002Y555999D01*
Y553000D01*
X629000Y558998D02*
Y560997D01*
Y559998D01*
X623002D01*
X624002Y558998D01*
X583000Y516498D02*
Y510500D01*
X585999D01*
X586999Y511500D01*
Y512499D01*
X585999Y513499D01*
X583000D01*
X585999D01*
X586999Y514499D01*
Y515498D01*
X585999Y516498D01*
X583000D01*
X588998D02*
X592997D01*
X590997D01*
Y510500D01*
X594996D02*
X596995D01*
X595996D01*
Y516498D01*
X594996Y515498D01*
X415500Y643000D02*
X410502D01*
Y645499D01*
X411335Y646332D01*
X413001D01*
X413834Y645499D01*
Y643000D01*
X415500Y647998D02*
Y649664D01*
Y648831D01*
X410502D01*
X411335Y647998D01*
X415500Y652164D02*
X410502D01*
Y654663D01*
X411335Y655496D01*
X413001D01*
X413834Y654663D01*
Y652164D01*
X415500Y657162D02*
X412168D01*
X410502Y658828D01*
X412168Y660494D01*
X415500D01*
X413001D01*
Y657162D01*
X415500Y662160D02*
X410502D01*
X415500Y665493D01*
X410502D01*
Y670491D02*
Y667159D01*
X415500D01*
Y670491D01*
X413001Y667159D02*
Y668825D01*
X410502Y672157D02*
X415500D01*
Y675490D01*
X591200Y695400D02*
Y700398D01*
X593699D01*
X594532Y699565D01*
Y697899D01*
X593699Y697066D01*
X591200D01*
X596198Y699565D02*
X597031Y700398D01*
X598698D01*
X599531Y699565D01*
Y698732D01*
X598698Y697899D01*
X597864D01*
X598698D01*
X599531Y697066D01*
Y696233D01*
X598698Y695400D01*
X597031D01*
X596198Y696233D01*
X606195Y695400D02*
Y698732D01*
X607861Y700398D01*
X609527Y698732D01*
Y695400D01*
Y697899D01*
X606195D01*
X611194Y695400D02*
Y700398D01*
X614526Y695400D01*
Y700398D01*
X616192Y695400D02*
Y698732D01*
X617858Y700398D01*
X619524Y698732D01*
Y695400D01*
Y697899D01*
X616192D01*
X621190Y700398D02*
Y695400D01*
X624522D01*
X628688Y700398D02*
X627022D01*
X626189Y699565D01*
Y696233D01*
X627022Y695400D01*
X628688D01*
X629521Y696233D01*
Y699565D01*
X628688Y700398D01*
X634519Y699565D02*
X633686Y700398D01*
X632020D01*
X631187Y699565D01*
Y696233D01*
X632020Y695400D01*
X633686D01*
X634519Y696233D01*
Y697899D01*
X632853D01*
X780000Y620756D02*
X775002D01*
Y623255D01*
X775835Y624088D01*
X777501D01*
X778334Y623255D01*
Y620756D01*
X780000Y628254D02*
X775002D01*
X777501Y625754D01*
Y629086D01*
X775002Y630753D02*
X780000D01*
X778334D01*
X775002Y634085D01*
X777501Y631586D01*
X780000Y634085D01*
X775002Y635751D02*
X780000D01*
Y638250D01*
X779167Y639083D01*
X778334D01*
X777501Y638250D01*
Y635751D01*
Y638250D01*
X776668Y639083D01*
X775835D01*
X775002Y638250D01*
Y635751D01*
X534500Y416500D02*
Y421498D01*
X536999D01*
X537832Y420665D01*
Y418999D01*
X536999Y418166D01*
X534500D01*
X542831Y420665D02*
X541998Y421498D01*
X540331D01*
X539498Y420665D01*
Y419832D01*
X540331Y418999D01*
X541998D01*
X542831Y418166D01*
Y417333D01*
X541998Y416500D01*
X540331D01*
X539498Y417333D01*
X544497Y421498D02*
X547829D01*
X546163D01*
Y416500D01*
X549495D02*
Y421498D01*
X551994D01*
X552827Y420665D01*
Y418999D01*
X551994Y418166D01*
X549495D01*
X551161D02*
X552827Y416500D01*
X554494D02*
X556160D01*
X555327D01*
Y421498D01*
X554494Y420665D01*
X429002Y443500D02*
X435000D01*
Y446499D01*
X434000Y447499D01*
X430002D01*
X429002Y446499D01*
Y443500D01*
X430002Y449498D02*
X429002Y450498D01*
Y452497D01*
X430002Y453497D01*
X431001D01*
X432001Y452497D01*
Y451497D01*
Y452497D01*
X433001Y453497D01*
X434000D01*
X435000Y452497D01*
Y450498D01*
X434000Y449498D01*
X414502Y426500D02*
X420500D01*
Y429499D01*
X419500Y430499D01*
X415502D01*
X414502Y429499D01*
Y426500D01*
X420500Y435497D02*
X414502D01*
X417501Y432498D01*
Y436497D01*
X486500Y453998D02*
Y449000D01*
X487500Y448000D01*
X489499D01*
X490499Y449000D01*
Y453998D01*
X492498Y448000D02*
X494497D01*
X493498D01*
Y453998D01*
X492498Y452998D01*
X531500Y454498D02*
Y449500D01*
X532500Y448500D01*
X534499D01*
X535499Y449500D01*
Y454498D01*
X540497Y448500D02*
Y454498D01*
X537498Y451499D01*
X541497D01*
D43*
X685724Y644772D02*
G03*
X685724Y644772I-1181J0D01*
G01*
X484685Y472102D02*
G03*
X484685Y472102I-1181J0D01*
G01*
X534185D02*
G03*
X534185Y472102I-1181J0D01*
G01*
X621185Y457839D02*
G03*
X621185Y457839I-1181J0D01*
G01*
D44*
X606314Y475036D02*
G03*
X577608Y474991I-14414J39164D01*
G01*
D45*
X685571Y675426D02*
G03*
X671429Y675426I-7071J-8427D01*
G01*
D46*
X663000Y636500D02*
D03*
D47*
X432000Y463342D02*
D03*
X417500Y441342D02*
D03*
D48*
X578360Y470783D02*
D03*
D49*
X605426Y470783D02*
D03*
D50*
X591941Y464631D02*
D03*
D51*
X671389Y675372D02*
D03*
D52*
X685507Y675414D02*
D03*
M02*
