%FSLAX25Y25*%
%MOIN*%
G70*
G01*
G75*
G04 Layer_Color=2752767*
%ADD10C,0.04000*%
%ADD11C,0.01800*%
%ADD12C,0.02400*%
%ADD13C,0.03000*%
%ADD14C,0.02200*%
%ADD15C,0.02000*%
%ADD16C,0.04400*%
%ADD17C,0.01600*%
%ADD18R,0.05906X0.06693*%
%ADD19R,0.10236X0.06693*%
%ADD20R,0.02362X0.06299*%
%ADD21R,0.06693X0.06693*%
%ADD22R,0.06693X0.05906*%
%ADD23O,0.09843X0.02756*%
%ADD24C,0.00800*%
%ADD25C,0.01200*%
%ADD26C,0.01400*%
%ADD27R,0.07500X0.09500*%
%ADD28O,0.07500X0.09500*%
%ADD29C,0.07500*%
%ADD30O,0.07500X0.09000*%
%ADD31R,0.07500X0.09000*%
%ADD32C,0.08500*%
%ADD33C,0.09000*%
%ADD34R,0.09500X0.07500*%
%ADD35O,0.09500X0.07500*%
%ADD36O,0.09000X0.07500*%
%ADD37R,0.09000X0.07500*%
%ADD38C,0.10000*%
%ADD39C,0.06000*%
%ADD40C,0.00787*%
%ADD41C,0.00984*%
%ADD42C,0.01000*%
%ADD43C,0.02362*%
%ADD44C,0.03937*%
%ADD45C,0.01500*%
%ADD46R,0.06000X0.05000*%
%ADD47R,0.07874X0.03937*%
%ADD48R,0.03445X0.12303*%
%ADD49R,0.03445X0.12303*%
%ADD50R,0.30610X0.06890*%
G04:AMPARAMS|DCode=51|XSize=18.01mil|YSize=15.74mil|CornerRadius=0mil|HoleSize=0mil|Usage=FLASHONLY|Rotation=217.000|XOffset=0mil|YOffset=0mil|HoleType=Round|Shape=Rectangle|*
%AMROTATEDRECTD51*
4,1,4,0.00246,0.01170,0.01193,-0.00087,-0.00246,-0.01170,-0.01193,0.00087,0.00246,0.01170,0.0*
%
%ADD51ROTATEDRECTD51*%

G04:AMPARAMS|DCode=52|XSize=18.01mil|YSize=15.74mil|CornerRadius=0mil|HoleSize=0mil|Usage=FLASHONLY|Rotation=143.000|XOffset=0mil|YOffset=0mil|HoleType=Round|Shape=Rectangle|*
%AMROTATEDRECTD52*
4,1,4,0.01193,0.00087,0.00246,-0.01170,-0.01193,-0.00087,-0.00246,0.01170,0.01193,0.00087,0.0*
%
%ADD52ROTATEDRECTD52*%

%ADD53R,0.06706X0.07493*%
%ADD54R,0.11036X0.07493*%
%ADD55R,0.03162X0.07099*%
%ADD56R,0.07493X0.07493*%
%ADD57R,0.07493X0.06706*%
%ADD58O,0.10642X0.03556*%
%ADD59R,0.08300X0.10300*%
%ADD60O,0.08300X0.10300*%
%ADD61C,0.08300*%
%ADD62O,0.08300X0.09800*%
%ADD63R,0.08300X0.09800*%
%ADD64C,0.09300*%
%ADD65C,0.09800*%
%ADD66R,0.10300X0.08300*%
%ADD67O,0.10300X0.08300*%
%ADD68O,0.09800X0.08300*%
%ADD69R,0.09800X0.08300*%
%ADD70C,0.10800*%
%ADD71C,0.06800*%
%ADD72C,0.00500*%
%ADD73C,0.00667*%
D72*
X662724Y413354D02*
Y417354D01*
X666724D01*
Y413354D01*
X662724D01*
X672724D02*
Y417354D01*
X676724D01*
Y413354D01*
X672724D01*
X692724D02*
Y417354D01*
X696724D01*
Y413354D01*
X692724D01*
X702724D02*
Y417354D01*
X706724D01*
Y413354D01*
X702724D01*
X712724D02*
Y417354D01*
X716724D01*
Y413354D01*
X712724D01*
X722724D02*
Y417354D01*
X726724D01*
Y413354D01*
X722724D01*
X732724D02*
Y417354D01*
X736724D01*
Y413354D01*
X732724D01*
X742724D02*
Y417354D01*
X746724D01*
Y413354D01*
X742724D01*
X752724D02*
Y417354D01*
X756724D01*
Y413354D01*
X752724D01*
X682724D02*
Y417354D01*
X686724D01*
Y413354D01*
X682724D01*
X652500Y447500D02*
Y451500D01*
X656500D01*
Y447500D01*
X652500D01*
X535500Y609500D02*
Y613500D01*
X539500D01*
Y609500D01*
X535500D01*
X545500D02*
Y613500D01*
X549500D01*
Y609500D01*
X545500D01*
X555500D02*
Y613500D01*
X559500D01*
Y609500D01*
X555500D01*
X565500D02*
Y613500D01*
X569500D01*
Y609500D01*
X565500D01*
X575500D02*
Y613500D01*
X579500D01*
Y609500D01*
X575500D01*
X585500D02*
Y613500D01*
X589500D01*
Y609500D01*
X585500D01*
X595500D02*
Y613500D01*
X599500D01*
Y609500D01*
X595500D01*
X605500D02*
Y613500D01*
X609500D01*
Y609500D01*
X605500D01*
X615500D02*
Y613500D01*
X619500D01*
Y609500D01*
X615500D01*
X625500D02*
Y613500D01*
X629500D01*
Y609500D01*
X625500D01*
X635500D02*
Y613500D01*
X639500D01*
Y609500D01*
X635500D01*
X645500D02*
Y613500D01*
X649500D01*
Y609500D01*
X645500D01*
X535500Y669500D02*
Y673500D01*
X539500D01*
Y669500D01*
X535500D01*
X545500D02*
Y673500D01*
X549500D01*
Y669500D01*
X545500D01*
X555500D02*
Y673500D01*
X559500D01*
Y669500D01*
X555500D01*
X565500D02*
Y673500D01*
X569500D01*
Y669500D01*
X565500D01*
X575500D02*
Y673500D01*
X579500D01*
Y669500D01*
X575500D01*
X585500D02*
Y673500D01*
X589500D01*
Y669500D01*
X585500D01*
X595500D02*
Y673500D01*
X599500D01*
Y669500D01*
X595500D01*
X605500D02*
Y673500D01*
X609500D01*
Y669500D01*
X605500D01*
X615500D02*
Y673500D01*
X619500D01*
Y669500D01*
X615500D01*
X625500D02*
Y673500D01*
X629500D01*
Y669500D01*
X625500D01*
X635500D02*
Y673500D01*
X639500D01*
Y669500D01*
X635500D01*
X645500D02*
Y673500D01*
X649500D01*
Y669500D01*
X645500D01*
X656100Y492600D02*
Y496600D01*
X660100D01*
Y492600D01*
X656100D01*
Y512600D02*
Y516600D01*
X660100D01*
Y512600D01*
X656100D01*
X661000Y657000D02*
Y661000D01*
X665000D01*
Y657000D01*
X661000D01*
Y627000D02*
Y631000D01*
X665000D01*
Y627000D01*
X661000D01*
X525165Y413354D02*
Y417354D01*
X529165D01*
Y413354D01*
X525165D01*
X515165D02*
Y417354D01*
X519165D01*
Y413354D01*
X515165D01*
X505165D02*
Y417354D01*
X509165D01*
Y413354D01*
X505165D01*
X495165D02*
Y417354D01*
X499165D01*
Y413354D01*
X495165D01*
X413354Y634614D02*
Y638614D01*
X417354D01*
Y634614D01*
X413354D01*
Y624614D02*
Y628614D01*
X417354D01*
Y624614D01*
X413354D01*
Y614614D02*
Y618614D01*
X417354D01*
Y614614D01*
X413354D01*
Y604614D02*
Y608614D01*
X417354D01*
Y604614D01*
X413354D01*
Y594614D02*
Y598614D01*
X417354D01*
Y594614D01*
X413354D01*
Y584614D02*
Y588614D01*
X417354D01*
Y584614D01*
X413354D01*
Y574614D02*
Y578614D01*
X417354D01*
Y574614D01*
X413354D01*
Y564614D02*
Y568614D01*
X417354D01*
Y564614D01*
X413354D01*
Y554614D02*
Y558614D01*
X417354D01*
Y554614D01*
X413354D01*
Y544614D02*
Y548614D01*
X417354D01*
Y544614D01*
X413354D01*
Y534614D02*
Y538614D01*
X417354D01*
Y534614D01*
X413354D01*
Y524614D02*
Y528614D01*
X417354D01*
Y524614D01*
X413354D01*
Y514614D02*
Y518614D01*
X417354D01*
Y514614D01*
X413354D01*
Y504614D02*
Y508614D01*
X417354D01*
Y504614D01*
X413354D01*
Y494614D02*
Y498614D01*
X417354D01*
Y494614D01*
X413354D01*
Y484614D02*
Y488614D01*
X417354D01*
Y484614D01*
X413354D01*
Y474614D02*
Y478614D01*
X417354D01*
Y474614D01*
X413354D01*
Y464614D02*
Y468614D01*
X417354D01*
Y464614D01*
X413354D01*
X593591Y685008D02*
Y689008D01*
X597591D01*
Y685008D01*
X593591D01*
X603591D02*
Y689008D01*
X607591D01*
Y685008D01*
X603591D01*
X623591D02*
Y689008D01*
X627591D01*
Y685008D01*
X623591D01*
X633591D02*
Y689008D01*
X637591D01*
Y685008D01*
X633591D01*
X643591D02*
Y689008D01*
X647591D01*
Y685008D01*
X643591D01*
X653591D02*
Y689008D01*
X657591D01*
Y685008D01*
X653591D01*
X663591D02*
Y689008D01*
X667591D01*
Y685008D01*
X663591D01*
X673591D02*
Y689008D01*
X677591D01*
Y685008D01*
X673591D01*
X683591D02*
Y689008D01*
X687591D01*
Y685008D01*
X683591D01*
X613591D02*
Y689008D01*
X617591D01*
Y685008D01*
X613591D01*
X763748Y444614D02*
Y448614D01*
X767748D01*
Y444614D01*
X763748D01*
Y454614D02*
Y458614D01*
X767748D01*
Y454614D01*
X763748D01*
Y464614D02*
Y468614D01*
X767748D01*
Y464614D01*
X763748D01*
Y474614D02*
Y478614D01*
X767748D01*
Y474614D01*
X763748D01*
Y484614D02*
Y488614D01*
X767748D01*
Y484614D01*
X763748D01*
Y494614D02*
Y498614D01*
X767748D01*
Y494614D01*
X763748D01*
Y504614D02*
Y508614D01*
X767748D01*
Y504614D01*
X763748D01*
Y514614D02*
Y518614D01*
X767748D01*
Y514614D01*
X763748D01*
Y524614D02*
Y528614D01*
X767748D01*
Y524614D01*
X763748D01*
Y534614D02*
Y538614D01*
X767748D01*
Y534614D01*
X763748D01*
Y544614D02*
Y548614D01*
X767748D01*
Y544614D01*
X763748D01*
Y554614D02*
Y558614D01*
X767748D01*
Y554614D01*
X763748D01*
Y564614D02*
Y568614D01*
X767748D01*
Y564614D01*
X763748D01*
Y574614D02*
Y578614D01*
X767748D01*
Y574614D01*
X763748D01*
Y584614D02*
Y588614D01*
X767748D01*
Y584614D01*
X763748D01*
Y594614D02*
Y598614D01*
X767748D01*
Y594614D01*
X763748D01*
Y604614D02*
Y608614D01*
X767748D01*
Y604614D01*
X763748D01*
Y614614D02*
Y618614D01*
X767748D01*
Y614614D01*
X763748D01*
Y624614D02*
Y628614D01*
X767748D01*
Y624614D01*
X763748D01*
Y634614D02*
Y638614D01*
X767748D01*
Y634614D01*
X763748D01*
X734000Y446000D02*
Y450000D01*
X738000D01*
Y446000D01*
X734000D01*
Y456000D02*
Y460000D01*
X738000D01*
Y456000D01*
X734000D01*
Y466000D02*
Y470000D01*
X738000D01*
Y466000D01*
X734000D01*
Y476000D02*
Y480000D01*
X738000D01*
Y476000D01*
X734000D01*
Y486000D02*
Y490000D01*
X738000D01*
Y486000D01*
X734000D01*
Y496000D02*
Y500000D01*
X738000D01*
Y496000D01*
X734000D01*
Y506000D02*
Y510000D01*
X738000D01*
Y506000D01*
X734000D01*
Y516000D02*
Y520000D01*
X738000D01*
Y516000D01*
X734000D01*
Y526000D02*
Y530000D01*
X738000D01*
Y526000D01*
X734000D01*
Y536000D02*
Y540000D01*
X738000D01*
Y536000D01*
X734000D01*
Y546000D02*
Y550000D01*
X738000D01*
Y546000D01*
X734000D01*
Y556000D02*
Y560000D01*
X738000D01*
Y556000D01*
X734000D01*
Y566000D02*
Y570000D01*
X738000D01*
Y566000D01*
X734000D01*
Y576000D02*
Y580000D01*
X738000D01*
Y576000D01*
X734000D01*
Y586000D02*
Y590000D01*
X738000D01*
Y586000D01*
X734000D01*
Y596000D02*
Y600000D01*
X738000D01*
Y596000D01*
X734000D01*
Y606000D02*
Y610000D01*
X738000D01*
Y606000D01*
X734000D01*
Y616000D02*
Y620000D01*
X738000D01*
Y616000D01*
X734000D01*
Y626000D02*
Y630000D01*
X738000D01*
Y626000D01*
X734000D01*
Y636000D02*
Y640000D01*
X738000D01*
Y636000D01*
X734000D01*
X674000Y446000D02*
Y450000D01*
X678000D01*
Y446000D01*
X674000D01*
Y456000D02*
Y460000D01*
X678000D01*
Y456000D01*
X674000D01*
Y466000D02*
Y470000D01*
X678000D01*
Y466000D01*
X674000D01*
Y476000D02*
Y480000D01*
X678000D01*
Y476000D01*
X674000D01*
Y486000D02*
Y490000D01*
X678000D01*
Y486000D01*
X674000D01*
Y496000D02*
Y500000D01*
X678000D01*
Y496000D01*
X674000D01*
Y506000D02*
Y510000D01*
X678000D01*
Y506000D01*
X674000D01*
Y516000D02*
Y520000D01*
X678000D01*
Y516000D01*
X674000D01*
Y526000D02*
Y530000D01*
X678000D01*
Y526000D01*
X674000D01*
Y536000D02*
Y540000D01*
X678000D01*
Y536000D01*
X674000D01*
Y546000D02*
Y550000D01*
X678000D01*
Y546000D01*
X674000D01*
Y556000D02*
Y560000D01*
X678000D01*
Y556000D01*
X674000D01*
Y566000D02*
Y570000D01*
X678000D01*
Y566000D01*
X674000D01*
Y576000D02*
Y580000D01*
X678000D01*
Y576000D01*
X674000D01*
Y586000D02*
Y590000D01*
X678000D01*
Y586000D01*
X674000D01*
Y596000D02*
Y600000D01*
X678000D01*
Y596000D01*
X674000D01*
Y606000D02*
Y610000D01*
X678000D01*
Y606000D01*
X674000D01*
Y616000D02*
Y620000D01*
X678000D01*
Y616000D01*
X674000D01*
Y626000D02*
Y630000D01*
X678000D01*
Y626000D01*
X674000D01*
Y636000D02*
Y640000D01*
X678000D01*
Y636000D01*
X674000D01*
X596500Y441500D02*
Y445500D01*
X600500D01*
Y441500D01*
X596500D01*
Y451500D02*
Y455500D01*
X600500D01*
Y451500D01*
X596500D01*
X473000Y469000D02*
Y473000D01*
X477000D01*
Y469000D01*
X473000D01*
Y459000D02*
Y463000D01*
X477000D01*
Y459000D01*
X473000D01*
X503000Y469000D02*
Y473000D01*
X507000D01*
Y469000D01*
X503000D01*
Y459000D02*
Y463000D01*
X507000D01*
Y459000D01*
X503000D01*
X552500D02*
Y463000D01*
X556500D01*
Y459000D01*
X552500D01*
Y469000D02*
Y473000D01*
X556500D01*
Y469000D01*
X552500D01*
X522500Y459000D02*
Y463000D01*
X526500D01*
Y459000D01*
X522500D01*
Y469000D02*
Y473000D01*
X526500D01*
Y469000D01*
X522500D01*
X639500Y424500D02*
Y428500D01*
X643500D01*
Y424500D01*
X639500D01*
Y434500D02*
Y438500D01*
X643500D01*
Y434500D01*
X639500D01*
Y444500D02*
Y448500D01*
X643500D01*
Y444500D01*
X639500D01*
Y454500D02*
Y458500D01*
X643500D01*
Y454500D01*
X639500D01*
X609500Y424500D02*
Y428500D01*
X613500D01*
Y424500D01*
X609500D01*
Y434500D02*
Y438500D01*
X613500D01*
Y434500D01*
X609500D01*
Y444500D02*
Y448500D01*
X613500D01*
Y444500D01*
X609500D01*
Y454500D02*
Y458500D01*
X613500D01*
Y454500D01*
X609500D01*
X611000Y471500D02*
Y475500D01*
X615000D01*
Y471500D01*
X611000D01*
X678500Y670000D02*
X676500Y674000D01*
X680500D01*
X678500Y670000D01*
Y660000D02*
X676500Y664000D01*
X680500D01*
X678500Y660000D01*
X665500Y447500D02*
X666500Y448500D01*
X667500D01*
X666500Y449500D01*
X667500Y450500D01*
X666500D01*
X665500Y451500D01*
X664500Y450500D01*
X663500D01*
X664500Y449500D01*
X663500Y448500D01*
X664500D01*
X665500Y447500D01*
X442500Y493500D02*
X443500Y494500D01*
X444500D01*
X443500Y495500D01*
X444500Y496500D01*
X443500D01*
X442500Y497500D01*
X441500Y496500D01*
X440500D01*
X441500Y495500D01*
X440500Y494500D01*
X441500D01*
X442500Y493500D01*
X593000Y500500D02*
Y504500D01*
X597000D01*
Y500500D01*
X593000D01*
Y521000D02*
Y525000D01*
X597000D01*
Y521000D01*
X593000D01*
X660500Y476500D02*
Y480500D01*
X664500D01*
Y476500D01*
X660500D01*
X617500Y595000D02*
Y599000D01*
X621500D01*
Y595000D01*
X617500D01*
X714500Y574500D02*
Y578500D01*
X718500D01*
Y574500D01*
X714500D01*
X722000Y537500D02*
Y541500D01*
X726000D01*
Y537500D01*
X722000D01*
X559000Y525500D02*
X560000Y526500D01*
X561000D01*
X560000Y527500D01*
X561000Y528500D01*
X560000D01*
X559000Y529500D01*
X558000Y528500D01*
X557000D01*
X558000Y527500D01*
X557000Y526500D01*
X558000D01*
X559000Y525500D01*
X595000Y579000D02*
X596000Y580000D01*
X597000D01*
X596000Y581000D01*
X597000Y582000D01*
X596000D01*
X595000Y583000D01*
X594000Y582000D01*
X593000D01*
X594000Y581000D01*
X593000Y580000D01*
X594000D01*
X595000Y579000D01*
X476000Y487000D02*
X477000Y488000D01*
X478000D01*
X477000Y489000D01*
X478000Y490000D01*
X477000D01*
X476000Y491000D01*
X475000Y490000D01*
X474000D01*
X475000Y489000D01*
X474000Y488000D01*
X475000D01*
X476000Y487000D01*
X603000Y574500D02*
X604000Y575500D01*
X605000D01*
X604000Y576500D01*
X605000Y577500D01*
X604000D01*
X603000Y578500D01*
X602000Y577500D01*
X601000D01*
X602000Y576500D01*
X601000Y575500D01*
X602000D01*
X603000Y574500D01*
X580000Y633000D02*
X581000Y634000D01*
X582000D01*
X581000Y635000D01*
X582000Y636000D01*
X581000D01*
X580000Y637000D01*
X579000Y636000D01*
X578000D01*
X579000Y635000D01*
X578000Y634000D01*
X579000D01*
X580000Y633000D01*
Y656500D02*
X581000Y657500D01*
X582000D01*
X581000Y658500D01*
X582000Y659500D01*
X581000D01*
X580000Y660500D01*
X579000Y659500D01*
X578000D01*
X579000Y658500D01*
X578000Y657500D01*
X579000D01*
X580000Y656500D01*
X563500Y508000D02*
X564500Y509000D01*
X565500D01*
X564500Y510000D01*
X565500Y511000D01*
X564500D01*
X563500Y512000D01*
X562500Y511000D01*
X561500D01*
X562500Y510000D01*
X561500Y509000D01*
X562500D01*
X563500Y508000D01*
X609500Y567500D02*
X610500Y568500D01*
X611500D01*
X610500Y569500D01*
X611500Y570500D01*
X610500D01*
X609500Y571500D01*
X608500Y570500D01*
X607500D01*
X608500Y569500D01*
X607500Y568500D01*
X608500D01*
X609500Y567500D01*
X545500Y448500D02*
X546500Y449500D01*
X547500D01*
X546500Y450500D01*
X547500Y451500D01*
X546500D01*
X545500Y452500D01*
X544500Y451500D01*
X543500D01*
X544500Y450500D01*
X543500Y449500D01*
X544500D01*
X545500Y448500D01*
X445000Y549000D02*
X446000Y550000D01*
X447000D01*
X446000Y551000D01*
X447000Y552000D01*
X446000D01*
X445000Y553000D01*
X444000Y552000D01*
X443000D01*
X444000Y551000D01*
X443000Y550000D01*
X444000D01*
X445000Y549000D01*
X429000Y536500D02*
X430000Y537500D01*
X431000D01*
X430000Y538500D01*
X431000Y539500D01*
X430000D01*
X429000Y540500D01*
X428000Y539500D01*
X427000D01*
X428000Y538500D01*
X427000Y537500D01*
X428000D01*
X429000Y536500D01*
X504000Y514500D02*
X505000Y515500D01*
X506000D01*
X505000Y516500D01*
X506000Y517500D01*
X505000D01*
X504000Y518500D01*
X503000Y517500D01*
X502000D01*
X503000Y516500D01*
X502000Y515500D01*
X503000D01*
X504000Y514500D01*
Y566500D02*
X505000Y567500D01*
X506000D01*
X505000Y568500D01*
X506000Y569500D01*
X505000D01*
X504000Y570500D01*
X503000Y569500D01*
X502000D01*
X503000Y568500D01*
X502000Y567500D01*
X503000D01*
X504000Y566500D01*
X420000Y671000D02*
X421000Y672000D01*
X422000D01*
X421000Y673000D01*
X422000Y674000D01*
X421000D01*
X420000Y675000D01*
X419000Y674000D01*
X418000D01*
X419000Y673000D01*
X418000Y672000D01*
X419000D01*
X420000Y671000D01*
X483000Y682500D02*
X484000Y683500D01*
X485000D01*
X484000Y684500D01*
X485000Y685500D01*
X484000D01*
X483000Y686500D01*
X482000Y685500D01*
X481000D01*
X482000Y684500D01*
X481000Y683500D01*
X482000D01*
X483000Y682500D01*
X507000Y426500D02*
X508000Y427500D01*
X509000D01*
X508000Y428500D01*
X509000Y429500D01*
X508000D01*
X507000Y430500D01*
X506000Y429500D01*
X505000D01*
X506000Y428500D01*
X505000Y427500D01*
X506000D01*
X507000Y426500D01*
X504500Y501000D02*
X505500Y502000D01*
X506500D01*
X505500Y503000D01*
X506500Y504000D01*
X505500D01*
X504500Y505000D01*
X503500Y504000D01*
X502500D01*
X503500Y503000D01*
X502500Y502000D01*
X503500D01*
X504500Y501000D01*
X475500Y587000D02*
X476500Y588000D01*
X477500D01*
X476500Y589000D01*
X477500Y590000D01*
X476500D01*
X475500Y591000D01*
X474500Y590000D01*
X473500D01*
X474500Y589000D01*
X473500Y588000D01*
X474500D01*
X475500Y587000D01*
X523500Y596500D02*
X524500Y597500D01*
X525500D01*
X524500Y598500D01*
X525500Y599500D01*
X524500D01*
X523500Y600500D01*
X522500Y599500D01*
X521500D01*
X522500Y598500D01*
X521500Y597500D01*
X522500D01*
X523500Y596500D01*
X701900Y574600D02*
Y578600D01*
X705900D01*
Y574600D01*
X701900D01*
X718300Y545200D02*
Y549200D01*
X722300D01*
Y545200D01*
X718300D01*
X704724Y480424D02*
X705724Y481424D01*
X706724D01*
X705724Y482424D01*
X706724Y483424D01*
X705724D01*
X704724Y484424D01*
X703724Y483424D01*
X702724D01*
X703724Y482424D01*
X702724Y481424D01*
X703724D01*
X704724Y480424D01*
X686000Y542200D02*
X687000Y543200D01*
X688000D01*
X687000Y544200D01*
X688000Y545200D01*
X687000D01*
X686000Y546200D01*
X685000Y545200D01*
X684000D01*
X685000Y544200D01*
X684000Y543200D01*
X685000D01*
X686000Y542200D01*
X687400Y463800D02*
X688400Y464800D01*
X689400D01*
X688400Y465800D01*
X689400Y466800D01*
X688400D01*
X687400Y467800D01*
X686400Y466800D01*
X685400D01*
X686400Y465800D01*
X685400Y464800D01*
X686400D01*
X687400Y463800D01*
X473500Y639500D02*
X474500Y640500D01*
X475500D01*
X474500Y641500D01*
X475500Y642500D01*
X474500D01*
X473500Y643500D01*
X472500Y642500D01*
X471500D01*
X472500Y641500D01*
X471500Y640500D01*
X472500D01*
X473500Y639500D01*
Y614000D02*
X474500Y615000D01*
X475500D01*
X474500Y616000D01*
X475500Y617000D01*
X474500D01*
X473500Y618000D01*
X472500Y617000D01*
X471500D01*
X472500Y616000D01*
X471500Y615000D01*
X472500D01*
X473500Y614000D01*
X478422Y629500D02*
X479422Y630500D01*
X480422D01*
X479422Y631500D01*
X480422Y632500D01*
X479422D01*
X478422Y633500D01*
X477422Y632500D01*
X476422D01*
X477422Y631500D01*
X476422Y630500D01*
X477422D01*
X478422Y629500D01*
X477004Y602000D02*
X478004Y603000D01*
X479004D01*
X478004Y604000D01*
X479004Y605000D01*
X478004D01*
X477004Y606000D01*
X476004Y605000D01*
X475004D01*
X476004Y604000D01*
X475004Y603000D01*
X476004D01*
X477004Y602000D01*
X516500Y445000D02*
X517500Y446000D01*
X518500D01*
X517500Y447000D01*
X518500Y448000D01*
X517500D01*
X516500Y449000D01*
X515500Y448000D01*
X514500D01*
X515500Y447000D01*
X514500Y446000D01*
X515500D01*
X516500Y445000D01*
X436500Y454500D02*
X437500Y455500D01*
X438500D01*
X437500Y456500D01*
X438500Y457500D01*
X437500D01*
X436500Y458500D01*
X435500Y457500D01*
X434500D01*
X435500Y456500D01*
X434500Y455500D01*
X435500D01*
X436500Y454500D01*
X505000Y583000D02*
X506000Y584000D01*
X507000D01*
X506000Y585000D01*
X507000Y586000D01*
X506000D01*
X505000Y587000D01*
X504000Y586000D01*
X503000D01*
X504000Y585000D01*
X503000Y584000D01*
X504000D01*
X505000Y583000D01*
Y598000D02*
X506000Y599000D01*
X507000D01*
X506000Y600000D01*
X507000Y601000D01*
X506000D01*
X505000Y602000D01*
X504000Y601000D01*
X503000D01*
X504000Y600000D01*
X503000Y599000D01*
X504000D01*
X505000Y598000D01*
X433500Y572000D02*
X434500Y573000D01*
X435500D01*
X434500Y574000D01*
X435500Y575000D01*
X434500D01*
X433500Y576000D01*
X432500Y575000D01*
X431500D01*
X432500Y574000D01*
X431500Y573000D01*
X432500D01*
X433500Y572000D01*
X456000Y536000D02*
X457000Y537000D01*
X458000D01*
X457000Y538000D01*
X458000Y539000D01*
X457000D01*
X456000Y540000D01*
X455000Y539000D01*
X454000D01*
X455000Y538000D01*
X454000Y537000D01*
X455000D01*
X456000Y536000D01*
X579000Y418500D02*
X580000Y419500D01*
X581000D01*
X580000Y420500D01*
X581000Y421500D01*
X580000D01*
X579000Y422500D01*
X578000Y421500D01*
X577000D01*
X578000Y420500D01*
X577000Y419500D01*
X578000D01*
X579000Y418500D01*
D73*
X434000Y433500D02*
G03*
X434000Y433500I-2000J0D01*
G01*
Y473500D02*
G03*
X434000Y473500I-2000J0D01*
G01*
X419500Y411500D02*
G03*
X419500Y411500I-2000J0D01*
G01*
Y451500D02*
G03*
X419500Y451500I-2000J0D01*
G01*
X593900Y465873D02*
G03*
X593900Y465873I-2000J0D01*
G01*
Y545499D02*
G03*
X593900Y545499I-2000J0D01*
G01*
M02*
