G04 Layer_Color=8388736*
%FSLAX25Y25*%
%MOIN*%
G70*
G01*
G75*
%ADD22C,0.00800*%
%ADD23C,0.01200*%
%ADD36C,0.10000*%
%ADD47R,0.10400X0.32100*%
%ADD48R,0.07493X0.07493*%
%ADD49O,0.16661X0.16161*%
%ADD50O,0.10642X0.03556*%
%ADD51C,0.06800*%
%ADD52R,0.08300X0.10300*%
%ADD53O,0.08300X0.10300*%
%ADD54O,0.10300X0.08300*%
%ADD55R,0.10300X0.08300*%
%ADD56O,0.08300X0.08800*%
%ADD57R,0.08300X0.08800*%
%ADD58C,0.08300*%
%ADD59O,0.09800X0.08300*%
%ADD60R,0.09800X0.08300*%
%ADD61O,0.08300X0.09800*%
%ADD62C,0.10800*%
%ADD63R,0.08300X0.09800*%
D22*
X0Y0D02*
Y314961D01*
X393701D01*
Y0D02*
Y314961D01*
X0Y0D02*
X393701D01*
D23*
X399834Y247449D02*
X404499D01*
X402166D01*
Y240452D01*
X410330Y247449D02*
X407998D01*
X406832Y246283D01*
Y241618D01*
X407998Y240452D01*
X410330D01*
X411497Y241618D01*
Y246283D01*
X410330Y247449D01*
X413829Y240452D02*
Y247449D01*
X417328D01*
X418495Y246283D01*
Y243950D01*
X417328Y242784D01*
X413829D01*
X432490Y246283D02*
X431324Y247449D01*
X428991D01*
X427825Y246283D01*
Y245117D01*
X428991Y243950D01*
X431324D01*
X432490Y242784D01*
Y241618D01*
X431324Y240452D01*
X428991D01*
X427825Y241618D01*
X438321Y247449D02*
X435989D01*
X434823Y246283D01*
Y241618D01*
X435989Y240452D01*
X438321D01*
X439488Y241618D01*
Y246283D01*
X438321Y247449D01*
X441820D02*
Y240452D01*
X446486D01*
X448818Y247449D02*
Y240452D01*
X452317D01*
X453483Y241618D01*
Y246283D01*
X452317Y247449D01*
X448818D01*
X460481D02*
X455816D01*
Y240452D01*
X460481D01*
X455816Y243950D02*
X458148D01*
X462814Y240452D02*
Y247449D01*
X466312D01*
X467479Y246283D01*
Y243950D01*
X466312Y242784D01*
X462814D01*
X465146D02*
X467479Y240452D01*
D36*
X135968Y49268D02*
D03*
D47*
X238800Y107650D02*
D03*
D48*
X253004Y43700D02*
D03*
X265996D02*
D03*
X226604Y28800D02*
D03*
X239596D02*
D03*
X278104Y260600D02*
D03*
X291096D02*
D03*
X118169Y201299D02*
D03*
X105177D02*
D03*
X251696Y227800D02*
D03*
X238704D02*
D03*
X147896Y165499D02*
D03*
X134904D02*
D03*
X70177Y98499D02*
D03*
X83169D02*
D03*
X252704Y122300D02*
D03*
X265696D02*
D03*
X211496Y141000D02*
D03*
X198504D02*
D03*
X252704Y131999D02*
D03*
X265696D02*
D03*
Y112800D02*
D03*
X252704D02*
D03*
X110995Y177800D02*
D03*
X98003D02*
D03*
X254396Y161300D02*
D03*
X241404D02*
D03*
X318295Y281299D02*
D03*
X305303D02*
D03*
X83169Y216299D02*
D03*
X70177D02*
D03*
Y268160D02*
D03*
X83169D02*
D03*
X144169D02*
D03*
X131177D02*
D03*
Y215799D02*
D03*
X144169D02*
D03*
X83169Y241881D02*
D03*
X70177D02*
D03*
Y188799D02*
D03*
X83169D02*
D03*
X144169Y241881D02*
D03*
X131177D02*
D03*
X118169Y268160D02*
D03*
X105177D02*
D03*
X253004Y69400D02*
D03*
X265996D02*
D03*
Y56500D02*
D03*
X253004D02*
D03*
X111095Y146899D02*
D03*
X98103D02*
D03*
X265696Y147600D02*
D03*
X252704D02*
D03*
X318295Y266799D02*
D03*
X305303D02*
D03*
X83169Y166499D02*
D03*
X70177D02*
D03*
X70277Y146899D02*
D03*
X83269D02*
D03*
X57169Y166499D02*
D03*
X44177D02*
D03*
X57169Y255020D02*
D03*
X44177D02*
D03*
X98003Y112799D02*
D03*
X110995D02*
D03*
X83169Y281299D02*
D03*
X70177D02*
D03*
Y112799D02*
D03*
X83169D02*
D03*
X144169Y281299D02*
D03*
X131177D02*
D03*
X70177Y228742D02*
D03*
X83169D02*
D03*
X57169Y112799D02*
D03*
X44177D02*
D03*
Y228742D02*
D03*
X57169D02*
D03*
X144169Y255020D02*
D03*
X131177D02*
D03*
X171404Y128800D02*
D03*
X184396D02*
D03*
X144169Y228742D02*
D03*
X131177D02*
D03*
X70177Y255020D02*
D03*
X83169D02*
D03*
X171304Y140650D02*
D03*
X184296D02*
D03*
X105177Y255020D02*
D03*
X118169D02*
D03*
X184196Y153400D02*
D03*
X171204D02*
D03*
X70177Y201299D02*
D03*
X83169D02*
D03*
X118169Y228742D02*
D03*
X105177D02*
D03*
X98003Y166499D02*
D03*
X110995D02*
D03*
X83269Y128999D02*
D03*
X70277D02*
D03*
X98103D02*
D03*
X111095D02*
D03*
X342295Y266799D02*
D03*
X329303D02*
D03*
X211396Y153400D02*
D03*
X198404D02*
D03*
X57169Y128999D02*
D03*
X44177D02*
D03*
X110995Y98499D02*
D03*
X98003D02*
D03*
X211596Y128800D02*
D03*
X198604D02*
D03*
X57169Y201299D02*
D03*
X44177D02*
D03*
Y281299D02*
D03*
X57169D02*
D03*
X118169D02*
D03*
X105177D02*
D03*
X329303D02*
D03*
X342295D02*
D03*
X57169Y241881D02*
D03*
X44177D02*
D03*
Y215799D02*
D03*
X57169D02*
D03*
X118169Y241881D02*
D03*
X105177D02*
D03*
X44177Y188799D02*
D03*
X57169D02*
D03*
Y268160D02*
D03*
X44177D02*
D03*
X118169Y215799D02*
D03*
X105177D02*
D03*
D49*
X23622Y23622D02*
D03*
Y291339D02*
D03*
X370079D02*
D03*
D50*
X151046Y125500D02*
D03*
Y130500D02*
D03*
Y135500D02*
D03*
Y140500D02*
D03*
Y145500D02*
D03*
Y150500D02*
D03*
Y155500D02*
D03*
X131754Y125500D02*
D03*
Y130500D02*
D03*
Y135500D02*
D03*
Y140500D02*
D03*
Y145500D02*
D03*
Y150500D02*
D03*
Y155500D02*
D03*
D51*
X46900Y155000D02*
D03*
X9200Y56900D02*
D03*
X8300Y152200D02*
D03*
X8500Y225500D02*
D03*
X49900Y307700D02*
D03*
X79700Y307500D02*
D03*
X172500Y306300D02*
D03*
X249500Y306600D02*
D03*
X297400Y8300D02*
D03*
X384700Y138100D02*
D03*
X383300Y263600D02*
D03*
X357500Y271300D02*
D03*
X151400Y103800D02*
D03*
X330800Y122500D02*
D03*
Y145500D02*
D03*
X176900Y91300D02*
D03*
X130500Y196300D02*
D03*
X142500Y198200D02*
D03*
X321900Y205800D02*
D03*
X320400Y227700D02*
D03*
X245300Y129000D02*
D03*
X226000Y100300D02*
D03*
X207400Y18100D02*
D03*
X167400Y46600D02*
D03*
X69000Y19200D02*
D03*
X49300Y61600D02*
D03*
X91700Y58100D02*
D03*
X253400Y80600D02*
D03*
X95300Y241881D02*
D03*
X96400Y207300D02*
D03*
X56900Y141800D02*
D03*
X42300Y141700D02*
D03*
X265700Y102900D02*
D03*
X269700Y79200D02*
D03*
X229600Y227800D02*
D03*
X217400Y164700D02*
D03*
X157200Y165900D02*
D03*
X188000Y161800D02*
D03*
X33400Y167800D02*
D03*
X30900Y188000D02*
D03*
X35900Y135600D02*
D03*
X128300Y178800D02*
D03*
X136000Y291600D02*
D03*
X108600Y293200D02*
D03*
X169700Y181800D02*
D03*
X215600Y189300D02*
D03*
X207300Y190100D02*
D03*
X224600Y193000D02*
D03*
X265500Y174700D02*
D03*
X266700Y184100D02*
D03*
X318400Y85800D02*
D03*
X319900Y167000D02*
D03*
X299100Y246800D02*
D03*
X298200Y157900D02*
D03*
X297400Y66600D02*
D03*
X310500Y41000D02*
D03*
X252900Y29400D02*
D03*
X48500Y177500D02*
D03*
X156900Y225500D02*
D03*
X162200Y210600D02*
D03*
X168900Y204900D02*
D03*
X156900Y204000D02*
D03*
X93858Y228742D02*
D03*
X96400Y268160D02*
D03*
X94899Y215799D02*
D03*
D52*
X133465Y21654D02*
D03*
X201890Y293307D02*
D03*
X271024Y21654D02*
D03*
D53*
X123465D02*
D03*
X113465D02*
D03*
X103465D02*
D03*
X211890Y293307D02*
D03*
X231890D02*
D03*
X241890D02*
D03*
X251890D02*
D03*
X261890D02*
D03*
X271890D02*
D03*
X281890D02*
D03*
X291890D02*
D03*
X221890D02*
D03*
X281024Y21654D02*
D03*
X301024D02*
D03*
X311024D02*
D03*
X321024D02*
D03*
X331024D02*
D03*
X341024D02*
D03*
X351024D02*
D03*
X361024D02*
D03*
X291024D02*
D03*
D54*
X372047Y52913D02*
D03*
Y62913D02*
D03*
Y72913D02*
D03*
Y82913D02*
D03*
Y92913D02*
D03*
Y102913D02*
D03*
Y112913D02*
D03*
Y122913D02*
D03*
Y132913D02*
D03*
Y142913D02*
D03*
Y152913D02*
D03*
Y162913D02*
D03*
Y172913D02*
D03*
Y182913D02*
D03*
Y192913D02*
D03*
Y202913D02*
D03*
Y212913D02*
D03*
Y222913D02*
D03*
Y232913D02*
D03*
X21654D02*
D03*
Y222913D02*
D03*
Y212913D02*
D03*
Y202913D02*
D03*
Y192913D02*
D03*
Y182913D02*
D03*
Y172913D02*
D03*
Y162913D02*
D03*
Y152913D02*
D03*
Y142913D02*
D03*
Y132913D02*
D03*
Y122913D02*
D03*
Y112913D02*
D03*
Y102913D02*
D03*
Y92913D02*
D03*
Y82913D02*
D03*
Y72913D02*
D03*
D55*
X372047Y242913D02*
D03*
X21654D02*
D03*
D56*
X181799Y178299D02*
D03*
X191799D02*
D03*
X201799D02*
D03*
X211799D02*
D03*
X221799D02*
D03*
X231799D02*
D03*
X241799D02*
D03*
X251799D02*
D03*
X181799Y208299D02*
D03*
X191799D02*
D03*
X201799D02*
D03*
X211799D02*
D03*
X221799D02*
D03*
X231799D02*
D03*
X241799D02*
D03*
Y268799D02*
D03*
X231799D02*
D03*
X221799D02*
D03*
X211799D02*
D03*
X201799D02*
D03*
X191799D02*
D03*
X181799D02*
D03*
X251799Y238799D02*
D03*
X241799D02*
D03*
X231799D02*
D03*
X221799D02*
D03*
X211799D02*
D03*
X201799D02*
D03*
X191799D02*
D03*
X181799D02*
D03*
D57*
X251799Y208299D02*
D03*
Y268799D02*
D03*
D58*
X279900Y276000D02*
D03*
X289900D02*
D03*
X69300Y179500D02*
D03*
X44100Y293200D02*
D03*
D59*
X342299Y54299D02*
D03*
Y64299D02*
D03*
Y74299D02*
D03*
Y84299D02*
D03*
Y94299D02*
D03*
Y104299D02*
D03*
Y114299D02*
D03*
Y124299D02*
D03*
Y134299D02*
D03*
Y144299D02*
D03*
Y154299D02*
D03*
Y164299D02*
D03*
Y174299D02*
D03*
Y184299D02*
D03*
Y194299D02*
D03*
Y204299D02*
D03*
Y214299D02*
D03*
Y224299D02*
D03*
Y234299D02*
D03*
Y244299D02*
D03*
X282299Y54299D02*
D03*
Y64299D02*
D03*
Y74299D02*
D03*
Y84299D02*
D03*
Y94299D02*
D03*
Y104299D02*
D03*
Y114299D02*
D03*
Y124299D02*
D03*
Y134299D02*
D03*
Y144299D02*
D03*
Y154299D02*
D03*
Y164299D02*
D03*
Y174299D02*
D03*
Y184299D02*
D03*
Y194299D02*
D03*
Y204299D02*
D03*
Y214299D02*
D03*
Y224299D02*
D03*
Y234299D02*
D03*
D60*
Y244299D02*
D03*
D61*
X233900Y83800D02*
D03*
X243900D02*
D03*
X209700Y42300D02*
D03*
X219700D02*
D03*
X229700D02*
D03*
X239700D02*
D03*
X209700Y72300D02*
D03*
X219700D02*
D03*
X229700D02*
D03*
D62*
X192272Y105572D02*
D03*
D63*
X239700Y72300D02*
D03*
M02*
