G04 Layer_Color=16711935*
%FSLAX25Y25*%
%MOIN*%
G70*
G01*
G75*
%ADD22C,0.00800*%
%ADD23C,0.01200*%
%ADD36C,0.10000*%
%ADD51C,0.06800*%
%ADD52R,0.08300X0.10300*%
%ADD53O,0.08300X0.10300*%
%ADD54O,0.10300X0.08300*%
%ADD55R,0.10300X0.08300*%
%ADD56O,0.08300X0.08800*%
%ADD57R,0.08300X0.08800*%
%ADD58C,0.08300*%
%ADD59O,0.09800X0.08300*%
%ADD60R,0.09800X0.08300*%
%ADD61O,0.08300X0.09800*%
%ADD62C,0.10800*%
%ADD63R,0.08300X0.09800*%
D22*
X0Y0D02*
Y314961D01*
X393701D01*
Y0D02*
Y314961D01*
X0Y0D02*
X393701D01*
D23*
X399834Y225799D02*
Y218802D01*
X403333D01*
X404499Y219968D01*
Y221134D01*
X403333Y222300D01*
X399834D01*
X403333D01*
X404499Y223467D01*
Y224633D01*
X403333Y225799D01*
X399834D01*
X410330D02*
X407998D01*
X406832Y224633D01*
Y219968D01*
X407998Y218802D01*
X410330D01*
X411497Y219968D01*
Y224633D01*
X410330Y225799D01*
X413829D02*
X418495D01*
X416162D01*
Y218802D01*
X420827Y225799D02*
X425492D01*
X423160D01*
Y218802D01*
X431324Y225799D02*
X428991D01*
X427825Y224633D01*
Y219968D01*
X428991Y218802D01*
X431324D01*
X432490Y219968D01*
Y224633D01*
X431324Y225799D01*
X434823Y218802D02*
Y225799D01*
X437155Y223467D01*
X439488Y225799D01*
Y218802D01*
X453483Y224633D02*
X452317Y225799D01*
X449984D01*
X448818Y224633D01*
Y223467D01*
X449984Y222300D01*
X452317D01*
X453483Y221134D01*
Y219968D01*
X452317Y218802D01*
X449984D01*
X448818Y219968D01*
X459315Y225799D02*
X456982D01*
X455816Y224633D01*
Y219968D01*
X456982Y218802D01*
X459315D01*
X460481Y219968D01*
Y224633D01*
X459315Y225799D01*
X462814D02*
Y218802D01*
X467479D01*
X469811Y225799D02*
Y218802D01*
X473310D01*
X474476Y219968D01*
Y224633D01*
X473310Y225799D01*
X469811D01*
X481474D02*
X476809D01*
Y218802D01*
X481474D01*
X476809Y222300D02*
X479142D01*
X483807Y218802D02*
Y225799D01*
X487306D01*
X488472Y224633D01*
Y222300D01*
X487306Y221134D01*
X483807D01*
X486139D02*
X488472Y218802D01*
D36*
X135968Y49268D02*
D03*
D51*
X46900Y155000D02*
D03*
X9200Y56900D02*
D03*
X8300Y152200D02*
D03*
X8500Y225500D02*
D03*
X49900Y307700D02*
D03*
X79700Y307500D02*
D03*
X172500Y306300D02*
D03*
X249500Y306600D02*
D03*
X297400Y8300D02*
D03*
X384700Y138100D02*
D03*
X383300Y263600D02*
D03*
X357500Y271300D02*
D03*
X151400Y103800D02*
D03*
X330800Y122500D02*
D03*
Y145500D02*
D03*
X176900Y91300D02*
D03*
X130500Y196300D02*
D03*
X142500Y198200D02*
D03*
X321900Y205800D02*
D03*
X320400Y227700D02*
D03*
X245300Y129000D02*
D03*
X226000Y100300D02*
D03*
X207400Y18100D02*
D03*
X167400Y46600D02*
D03*
X69000Y19200D02*
D03*
X49300Y61600D02*
D03*
X91700Y58100D02*
D03*
X253400Y80600D02*
D03*
X95300Y241881D02*
D03*
X96400Y207300D02*
D03*
X56900Y141800D02*
D03*
X42300Y141700D02*
D03*
X265700Y102900D02*
D03*
X269700Y79200D02*
D03*
X229600Y227800D02*
D03*
X217400Y164700D02*
D03*
X157200Y165900D02*
D03*
X188000Y161800D02*
D03*
X33400Y167800D02*
D03*
X30900Y188000D02*
D03*
X35900Y135600D02*
D03*
X128300Y178800D02*
D03*
X136000Y291600D02*
D03*
X108600Y293200D02*
D03*
X169700Y181800D02*
D03*
X215600Y189300D02*
D03*
X207300Y190100D02*
D03*
X224600Y193000D02*
D03*
X265500Y174700D02*
D03*
X266700Y184100D02*
D03*
X318400Y85800D02*
D03*
X319900Y167000D02*
D03*
X299100Y246800D02*
D03*
X298200Y157900D02*
D03*
X297400Y66600D02*
D03*
X310500Y41000D02*
D03*
X252900Y29400D02*
D03*
X48500Y177500D02*
D03*
X156900Y225500D02*
D03*
X162200Y210600D02*
D03*
X168900Y204900D02*
D03*
X156900Y204000D02*
D03*
X93858Y228742D02*
D03*
X96400Y268160D02*
D03*
X94899Y215799D02*
D03*
D52*
X133465Y21654D02*
D03*
X201890Y293307D02*
D03*
X271024Y21654D02*
D03*
D53*
X123465D02*
D03*
X113465D02*
D03*
X103465D02*
D03*
X211890Y293307D02*
D03*
X231890D02*
D03*
X241890D02*
D03*
X251890D02*
D03*
X261890D02*
D03*
X271890D02*
D03*
X281890D02*
D03*
X291890D02*
D03*
X221890D02*
D03*
X281024Y21654D02*
D03*
X301024D02*
D03*
X311024D02*
D03*
X321024D02*
D03*
X331024D02*
D03*
X341024D02*
D03*
X351024D02*
D03*
X361024D02*
D03*
X291024D02*
D03*
D54*
X372047Y52913D02*
D03*
Y62913D02*
D03*
Y72913D02*
D03*
Y82913D02*
D03*
Y92913D02*
D03*
Y102913D02*
D03*
Y112913D02*
D03*
Y122913D02*
D03*
Y132913D02*
D03*
Y142913D02*
D03*
Y152913D02*
D03*
Y162913D02*
D03*
Y172913D02*
D03*
Y182913D02*
D03*
Y192913D02*
D03*
Y202913D02*
D03*
Y212913D02*
D03*
Y222913D02*
D03*
Y232913D02*
D03*
X21654D02*
D03*
Y222913D02*
D03*
Y212913D02*
D03*
Y202913D02*
D03*
Y192913D02*
D03*
Y182913D02*
D03*
Y172913D02*
D03*
Y162913D02*
D03*
Y152913D02*
D03*
Y142913D02*
D03*
Y132913D02*
D03*
Y122913D02*
D03*
Y112913D02*
D03*
Y102913D02*
D03*
Y92913D02*
D03*
Y82913D02*
D03*
Y72913D02*
D03*
D55*
X372047Y242913D02*
D03*
X21654D02*
D03*
D56*
X181799Y178299D02*
D03*
X191799D02*
D03*
X201799D02*
D03*
X211799D02*
D03*
X221799D02*
D03*
X231799D02*
D03*
X241799D02*
D03*
X251799D02*
D03*
X181799Y208299D02*
D03*
X191799D02*
D03*
X201799D02*
D03*
X211799D02*
D03*
X221799D02*
D03*
X231799D02*
D03*
X241799D02*
D03*
Y268799D02*
D03*
X231799D02*
D03*
X221799D02*
D03*
X211799D02*
D03*
X201799D02*
D03*
X191799D02*
D03*
X181799D02*
D03*
X251799Y238799D02*
D03*
X241799D02*
D03*
X231799D02*
D03*
X221799D02*
D03*
X211799D02*
D03*
X201799D02*
D03*
X191799D02*
D03*
X181799D02*
D03*
D57*
X251799Y208299D02*
D03*
Y268799D02*
D03*
D58*
X279900Y276000D02*
D03*
X289900D02*
D03*
X69300Y179500D02*
D03*
X44100Y293200D02*
D03*
D59*
X342299Y54299D02*
D03*
Y64299D02*
D03*
Y74299D02*
D03*
Y84299D02*
D03*
Y94299D02*
D03*
Y104299D02*
D03*
Y114299D02*
D03*
Y124299D02*
D03*
Y134299D02*
D03*
Y144299D02*
D03*
Y154299D02*
D03*
Y164299D02*
D03*
Y174299D02*
D03*
Y184299D02*
D03*
Y194299D02*
D03*
Y204299D02*
D03*
Y214299D02*
D03*
Y224299D02*
D03*
Y234299D02*
D03*
Y244299D02*
D03*
X282299Y54299D02*
D03*
Y64299D02*
D03*
Y74299D02*
D03*
Y84299D02*
D03*
Y94299D02*
D03*
Y104299D02*
D03*
Y114299D02*
D03*
Y124299D02*
D03*
Y134299D02*
D03*
Y144299D02*
D03*
Y154299D02*
D03*
Y164299D02*
D03*
Y174299D02*
D03*
Y184299D02*
D03*
Y194299D02*
D03*
Y204299D02*
D03*
Y214299D02*
D03*
Y224299D02*
D03*
Y234299D02*
D03*
D60*
Y244299D02*
D03*
D61*
X233900Y83800D02*
D03*
X243900D02*
D03*
X209700Y42300D02*
D03*
X219700D02*
D03*
X229700D02*
D03*
X239700D02*
D03*
X209700Y72300D02*
D03*
X219700D02*
D03*
X229700D02*
D03*
D62*
X192272Y105572D02*
D03*
D63*
X239700Y72300D02*
D03*
M02*
