G04 Layer_Color=16711935*
%FSLAX25Y25*%
%MOIN*%
G70*
G01*
G75*
%ADD22C,0.00800*%
%ADD23C,0.01200*%
%ADD40C,0.01000*%
D22*
X0Y0D02*
Y314961D01*
X393701D01*
Y0D02*
Y314961D01*
X0Y0D02*
X393701D01*
D23*
X404334Y133858D02*
Y140856D01*
X407833D01*
X408999Y139690D01*
Y137357D01*
X407833Y136191D01*
X404334D01*
X415997Y139690D02*
X414830Y140856D01*
X412498D01*
X411332Y139690D01*
Y135025D01*
X412498Y133858D01*
X414830D01*
X415997Y135025D01*
X418329Y140856D02*
Y133858D01*
X421828D01*
X422995Y135025D01*
Y136191D01*
X421828Y137357D01*
X418329D01*
X421828D01*
X422995Y138523D01*
Y139690D01*
X421828Y140856D01*
X418329D01*
X432325Y133858D02*
Y140856D01*
X436990Y133858D01*
Y140856D01*
X440489Y138523D02*
X442821D01*
X443988Y137357D01*
Y133858D01*
X440489D01*
X439323Y135025D01*
X440489Y136191D01*
X443988D01*
X446320Y133858D02*
Y138523D01*
X447487D01*
X448653Y137357D01*
Y133858D01*
Y137357D01*
X449819Y138523D01*
X450985Y137357D01*
Y133858D01*
X456817D02*
X454484D01*
X453318Y135025D01*
Y137357D01*
X454484Y138523D01*
X456817D01*
X457983Y137357D01*
Y136191D01*
X453318D01*
X460316Y138523D02*
X461482D01*
Y137357D01*
X460316D01*
Y138523D01*
Y135025D02*
X461482D01*
Y133858D01*
X460316D01*
Y135025D01*
X473145Y133858D02*
Y138523D01*
X475478Y140856D01*
X477810Y138523D01*
Y133858D01*
Y137357D01*
X473145D01*
X480143Y133858D02*
X482475D01*
X481309D01*
Y140856D01*
X480143Y139690D01*
X492972Y138523D02*
Y133858D01*
Y136191D01*
X494138Y137357D01*
X495304Y138523D01*
X496471D01*
X503469Y133858D02*
X501136D01*
X499970Y135025D01*
Y137357D01*
X501136Y138523D01*
X503469D01*
X504635Y137357D01*
Y136191D01*
X499970D01*
X506967Y138523D02*
X509300Y133858D01*
X511632Y138523D01*
X517464Y133858D02*
Y140856D01*
X513965Y137357D01*
X518630D01*
X404334Y184271D02*
Y177274D01*
Y179606D01*
X408999Y184271D01*
X405500Y180772D01*
X408999Y177274D01*
X415997Y184271D02*
X411332D01*
Y177274D01*
X415997D01*
X411332Y180772D02*
X413664D01*
X422995Y184271D02*
X418329D01*
Y177274D01*
X422995D01*
X418329Y180772D02*
X420662D01*
X425327Y177274D02*
Y184271D01*
X428826D01*
X429992Y183105D01*
Y180772D01*
X428826Y179606D01*
X425327D01*
X435824Y184271D02*
X433491D01*
X432325Y183105D01*
Y178440D01*
X433491Y177274D01*
X435824D01*
X436990Y178440D01*
Y183105D01*
X435824Y184271D01*
X439323D02*
Y178440D01*
X440489Y177274D01*
X442821D01*
X443988Y178440D01*
Y184271D01*
X446320D02*
X450985D01*
X448653D01*
Y177274D01*
X460316Y184271D02*
Y177274D01*
X464981D01*
X467313D02*
Y181939D01*
X469646Y184271D01*
X471979Y181939D01*
Y177274D01*
Y180772D01*
X467313D01*
X474311Y184271D02*
Y183105D01*
X476644Y180772D01*
X478976Y183105D01*
Y184271D01*
X476644Y180772D02*
Y177274D01*
X485974Y184271D02*
X481309D01*
Y177274D01*
X485974D01*
X481309Y180772D02*
X483642D01*
X488307Y177274D02*
Y184271D01*
X491806D01*
X492972Y183105D01*
Y180772D01*
X491806Y179606D01*
X488307D01*
X490639D02*
X492972Y177274D01*
X404334Y157086D02*
Y164084D01*
X407833D01*
X408999Y162918D01*
Y160585D01*
X407833Y159419D01*
X404334D01*
X415997Y162918D02*
X414830Y164084D01*
X412498D01*
X411332Y162918D01*
Y158252D01*
X412498Y157086D01*
X414830D01*
X415997Y158252D01*
X418329Y164084D02*
Y157086D01*
X421828D01*
X422995Y158252D01*
Y159419D01*
X421828Y160585D01*
X418329D01*
X421828D01*
X422995Y161751D01*
Y162918D01*
X421828Y164084D01*
X418329D01*
X432325D02*
X434657D01*
X433491D01*
Y157086D01*
X432325D01*
X434657D01*
X438156D02*
Y164084D01*
X442821Y157086D01*
Y164084D01*
X449819D02*
X445154D01*
Y160585D01*
X447487D01*
X445154D01*
Y157086D01*
X455651Y164084D02*
X453318D01*
X452152Y162918D01*
Y158252D01*
X453318Y157086D01*
X455651D01*
X456817Y158252D01*
Y162918D01*
X455651Y164084D01*
X459150Y157086D02*
Y164084D01*
X462648D01*
X463815Y162918D01*
Y160585D01*
X462648Y159419D01*
X459150D01*
X461482D02*
X463815Y157086D01*
X466147D02*
Y164084D01*
X468480Y161751D01*
X470812Y164084D01*
Y157086D01*
X473145D02*
Y161751D01*
X475478Y164084D01*
X477810Y161751D01*
Y157086D01*
Y160585D01*
X473145D01*
X480143Y164084D02*
X484808D01*
X482475D01*
Y157086D01*
X487140Y164084D02*
X489473D01*
X488307D01*
Y157086D01*
X487140D01*
X489473D01*
X496471Y164084D02*
X494138D01*
X492972Y162918D01*
Y158252D01*
X494138Y157086D01*
X496471D01*
X497637Y158252D01*
Y162918D01*
X496471Y164084D01*
X499970Y157086D02*
Y164084D01*
X504635Y157086D01*
Y164084D01*
X506967Y161751D02*
X508134D01*
Y160585D01*
X506967D01*
Y161751D01*
Y158252D02*
X508134D01*
Y157086D01*
X506967D01*
Y158252D01*
X404334Y100087D02*
X408999D01*
X406666D01*
Y93089D01*
X411332Y100087D02*
Y93089D01*
Y96588D01*
X415997D01*
Y100087D01*
Y93089D01*
X418329Y100087D02*
X420662D01*
X419496D01*
Y93089D01*
X418329D01*
X420662D01*
X428826Y98921D02*
X427660Y100087D01*
X425327D01*
X424161Y98921D01*
Y94255D01*
X425327Y93089D01*
X427660D01*
X428826Y94255D01*
X431158Y100087D02*
Y93089D01*
Y95422D01*
X435824Y100087D01*
X432325Y96588D01*
X435824Y93089D01*
X438156D02*
Y100087D01*
X442821Y93089D01*
Y100087D01*
X449819D02*
X445154D01*
Y93089D01*
X449819D01*
X445154Y96588D02*
X447487D01*
X456817Y98921D02*
X455651Y100087D01*
X453318D01*
X452152Y98921D01*
Y97754D01*
X453318Y96588D01*
X455651D01*
X456817Y95422D01*
Y94255D01*
X455651Y93089D01*
X453318D01*
X452152Y94255D01*
X463815Y98921D02*
X462648Y100087D01*
X460316D01*
X459150Y98921D01*
Y97754D01*
X460316Y96588D01*
X462648D01*
X463815Y95422D01*
Y94255D01*
X462648Y93089D01*
X460316D01*
X459150Y94255D01*
X466147Y97754D02*
X467313D01*
Y96588D01*
X466147D01*
Y97754D01*
Y94255D02*
X467313D01*
Y93089D01*
X466147D01*
Y94255D01*
X471979Y98921D02*
X473145Y100087D01*
X475478D01*
X476644Y98921D01*
Y97754D01*
X475478Y96588D01*
X474311D01*
X475478D01*
X476644Y95422D01*
Y94255D01*
X475478Y93089D01*
X473145D01*
X471979Y94255D01*
X483642Y100087D02*
X478976D01*
Y96588D01*
X481309Y97754D01*
X482475D01*
X483642Y96588D01*
Y94255D01*
X482475Y93089D01*
X480143D01*
X478976Y94255D01*
X485974Y93089D02*
Y100087D01*
X488307Y97754D01*
X490639Y100087D01*
Y93089D01*
X492972Y100087D02*
X495304D01*
X494138D01*
Y93089D01*
X492972D01*
X495304D01*
X503469Y98921D02*
X502302Y100087D01*
X499970D01*
X498803Y98921D01*
Y94255D01*
X499970Y93089D01*
X502302D01*
X503469Y94255D01*
X505801Y93089D02*
Y100087D01*
X509300D01*
X510466Y98921D01*
Y96588D01*
X509300Y95422D01*
X505801D01*
X508134D02*
X510466Y93089D01*
X516298Y100087D02*
X513965D01*
X512799Y98921D01*
Y94255D01*
X513965Y93089D01*
X516298D01*
X517464Y94255D01*
Y98921D01*
X516298Y100087D01*
X519797Y93089D02*
Y100087D01*
X524462Y93089D01*
Y100087D01*
X531460Y98921D02*
X530293Y100087D01*
X527961D01*
X526794Y98921D01*
Y97754D01*
X527961Y96588D01*
X530293D01*
X531460Y95422D01*
Y94255D01*
X530293Y93089D01*
X527961D01*
X526794Y94255D01*
X404334Y113277D02*
Y120274D01*
X407833D01*
X408999Y119108D01*
Y116775D01*
X407833Y115609D01*
X404334D01*
X415997Y119108D02*
X414830Y120274D01*
X412498D01*
X411332Y119108D01*
Y114443D01*
X412498Y113277D01*
X414830D01*
X415997Y114443D01*
X418329Y120274D02*
Y113277D01*
X421828D01*
X422995Y114443D01*
Y115609D01*
X421828Y116775D01*
X418329D01*
X421828D01*
X422995Y117942D01*
Y119108D01*
X421828Y120274D01*
X418329D01*
X425327Y117942D02*
X426493D01*
Y116775D01*
X425327D01*
Y117942D01*
Y114443D02*
X426493D01*
Y113277D01*
X425327D01*
Y114443D01*
X442821Y120274D02*
X438156D01*
Y116775D01*
X440489D01*
X438156D01*
Y113277D01*
X445154D02*
Y120274D01*
X448653D01*
X449819Y119108D01*
Y116775D01*
X448653Y115609D01*
X445154D01*
X447487D02*
X449819Y113277D01*
X452152Y116775D02*
X456817D01*
X462648Y113277D02*
Y120274D01*
X459150Y116775D01*
X463815D01*
X404334Y79899D02*
Y72902D01*
X408999D01*
X411332D02*
Y77567D01*
X413664Y79899D01*
X415997Y77567D01*
Y72902D01*
Y76400D01*
X411332D01*
X418329Y79899D02*
Y78733D01*
X420662Y76400D01*
X422995Y78733D01*
Y79899D01*
X420662Y76400D02*
Y72902D01*
X429992Y79899D02*
X425327D01*
Y72902D01*
X429992D01*
X425327Y76400D02*
X427660D01*
X432325Y72902D02*
Y79899D01*
X435824D01*
X436990Y78733D01*
Y76400D01*
X435824Y75234D01*
X432325D01*
X434657D02*
X436990Y72902D01*
X443988Y78733D02*
X442821Y79899D01*
X440489D01*
X439323Y78733D01*
Y77567D01*
X440489Y76400D01*
X442821D01*
X443988Y75234D01*
Y74068D01*
X442821Y72902D01*
X440489D01*
X439323Y74068D01*
X453318Y79899D02*
X457983D01*
X455651D01*
Y72902D01*
X463815Y79899D02*
X461482D01*
X460316Y78733D01*
Y74068D01*
X461482Y72902D01*
X463815D01*
X464981Y74068D01*
Y78733D01*
X463815Y79899D01*
X474311Y72902D02*
Y79899D01*
X477810D01*
X478976Y78733D01*
Y76400D01*
X477810Y75234D01*
X474311D01*
X481309Y72902D02*
Y79899D01*
X484808D01*
X485974Y78733D01*
Y76400D01*
X484808Y75234D01*
X481309D01*
X483642D02*
X485974Y72902D01*
X488307Y79899D02*
X490639D01*
X489473D01*
Y72902D01*
X488307D01*
X490639D01*
X494138D02*
Y79899D01*
X498803Y72902D01*
Y79899D01*
X501136D02*
X505801D01*
X503469D01*
Y72902D01*
X508134Y77567D02*
X509300D01*
Y76400D01*
X508134D01*
Y77567D01*
Y74068D02*
X509300D01*
Y72902D01*
X508134D01*
Y74068D01*
X436234Y15900D02*
Y9902D01*
X439233D01*
X440233Y10901D01*
Y11901D01*
X439233Y12901D01*
X436234D01*
X439233D01*
X440233Y13900D01*
Y14900D01*
X439233Y15900D01*
X436234D01*
X445231D02*
X443232D01*
X442232Y14900D01*
Y10901D01*
X443232Y9902D01*
X445231D01*
X446231Y10901D01*
Y14900D01*
X445231Y15900D01*
X448230D02*
X452229D01*
X450229D01*
Y9902D01*
X454228Y15900D02*
X458227D01*
X456227D01*
Y9902D01*
X463225Y15900D02*
X461226D01*
X460226Y14900D01*
Y10901D01*
X461226Y9902D01*
X463225D01*
X464225Y10901D01*
Y14900D01*
X463225Y15900D01*
X466224Y9902D02*
Y15900D01*
X468223Y13900D01*
X470223Y15900D01*
Y9902D01*
X478220Y15900D02*
Y9902D01*
X482219D01*
X484218D02*
Y13900D01*
X486218Y15900D01*
X488217Y13900D01*
Y9902D01*
Y12901D01*
X484218D01*
X490216Y15900D02*
Y14900D01*
X492216Y12901D01*
X494215Y14900D01*
Y15900D01*
X492216Y12901D02*
Y9902D01*
X500213Y15900D02*
X496214D01*
Y9902D01*
X500213D01*
X496214Y12901D02*
X498214D01*
X502212Y9902D02*
Y15900D01*
X505211D01*
X506211Y14900D01*
Y12901D01*
X505211Y11901D01*
X502212D01*
X504212D02*
X506211Y9902D01*
X518207Y14900D02*
X517208Y15900D01*
X515208D01*
X514209Y14900D01*
Y10901D01*
X515208Y9902D01*
X517208D01*
X518207Y10901D01*
X520207Y15900D02*
Y10901D01*
X521206Y9902D01*
X523206D01*
X524205Y10901D01*
Y15900D01*
X436234Y53025D02*
X440233D01*
X438233D01*
Y47027D01*
X445231Y53025D02*
X443232D01*
X442232Y52025D01*
Y48026D01*
X443232Y47027D01*
X445231D01*
X446231Y48026D01*
Y52025D01*
X445231Y53025D01*
X448230Y47027D02*
Y53025D01*
X451229D01*
X452229Y52025D01*
Y50026D01*
X451229Y49026D01*
X448230D01*
X460226Y53025D02*
Y47027D01*
X464225D01*
X470223Y53025D02*
X466224D01*
Y47027D01*
X470223D01*
X466224Y50026D02*
X468223D01*
X476221Y52025D02*
X475221Y53025D01*
X473222D01*
X472222Y52025D01*
Y48026D01*
X473222Y47027D01*
X475221D01*
X476221Y48026D01*
Y50026D01*
X474222D01*
X482219Y53025D02*
X478220D01*
Y47027D01*
X482219D01*
X478220Y50026D02*
X480220D01*
X484218Y47027D02*
Y53025D01*
X488217Y47027D01*
Y53025D01*
X490216D02*
Y47027D01*
X493215D01*
X494215Y48026D01*
Y52025D01*
X493215Y53025D01*
X490216D01*
X436234Y65400D02*
X440233D01*
X438233D01*
Y59402D01*
X445231Y65400D02*
X443232D01*
X442232Y64400D01*
Y60401D01*
X443232Y59402D01*
X445231D01*
X446231Y60401D01*
Y64400D01*
X445231Y65400D01*
X448230Y59402D02*
Y65400D01*
X451229D01*
X452229Y64400D01*
Y62401D01*
X451229Y61401D01*
X448230D01*
X460226Y65400D02*
Y59402D01*
X464225D01*
X466224D02*
Y63400D01*
X468223Y65400D01*
X470223Y63400D01*
Y59402D01*
Y62401D01*
X466224D01*
X472222Y65400D02*
Y64400D01*
X474222Y62401D01*
X476221Y64400D01*
Y65400D01*
X474222Y62401D02*
Y59402D01*
X482219Y65400D02*
X478220D01*
Y59402D01*
X482219D01*
X478220Y62401D02*
X480220D01*
X484218Y59402D02*
Y65400D01*
X487217D01*
X488217Y64400D01*
Y62401D01*
X487217Y61401D01*
X484218D01*
X486218D02*
X488217Y59402D01*
X500213Y64400D02*
X499214Y65400D01*
X497214D01*
X496214Y64400D01*
Y60401D01*
X497214Y59402D01*
X499214D01*
X500213Y60401D01*
X502212Y65400D02*
Y60401D01*
X503212Y59402D01*
X505211D01*
X506211Y60401D01*
Y65400D01*
X436234Y40650D02*
X440233D01*
X438233D01*
Y34652D01*
X445231Y40650D02*
X443232D01*
X442232Y39650D01*
Y35651D01*
X443232Y34652D01*
X445231D01*
X446231Y35651D01*
Y39650D01*
X445231Y40650D01*
X448230Y34652D02*
Y40650D01*
X451229D01*
X452229Y39650D01*
Y37651D01*
X451229Y36651D01*
X448230D01*
X464225Y39650D02*
X463225Y40650D01*
X461226D01*
X460226Y39650D01*
Y38650D01*
X461226Y37651D01*
X463225D01*
X464225Y36651D01*
Y35651D01*
X463225Y34652D01*
X461226D01*
X460226Y35651D01*
X469223Y40650D02*
X467224D01*
X466224Y39650D01*
Y35651D01*
X467224Y34652D01*
X469223D01*
X470223Y35651D01*
Y39650D01*
X469223Y40650D01*
X472222D02*
Y34652D01*
X476221D01*
X478220Y40650D02*
Y34652D01*
X481219D01*
X482219Y35651D01*
Y39650D01*
X481219Y40650D01*
X478220D01*
X488217D02*
X484218D01*
Y34652D01*
X488217D01*
X484218Y37651D02*
X486218D01*
X490216Y34652D02*
Y40650D01*
X493215D01*
X494215Y39650D01*
Y37651D01*
X493215Y36651D01*
X490216D01*
X492216D02*
X494215Y34652D01*
X436234Y28275D02*
Y22277D01*
X439233D01*
X440233Y23276D01*
Y24276D01*
X439233Y25276D01*
X436234D01*
X439233D01*
X440233Y26275D01*
Y27275D01*
X439233Y28275D01*
X436234D01*
X445231D02*
X443232D01*
X442232Y27275D01*
Y23276D01*
X443232Y22277D01*
X445231D01*
X446231Y23276D01*
Y27275D01*
X445231Y28275D01*
X448230D02*
X452229D01*
X450229D01*
Y22277D01*
X454228Y28275D02*
X458227D01*
X456227D01*
Y22277D01*
X463225Y28275D02*
X461226D01*
X460226Y27275D01*
Y23276D01*
X461226Y22277D01*
X463225D01*
X464225Y23276D01*
Y27275D01*
X463225Y28275D01*
X466224Y22277D02*
Y28275D01*
X468223Y26275D01*
X470223Y28275D01*
Y22277D01*
X482219Y27275D02*
X481219Y28275D01*
X479220D01*
X478220Y27275D01*
Y26275D01*
X479220Y25276D01*
X481219D01*
X482219Y24276D01*
Y23276D01*
X481219Y22277D01*
X479220D01*
X478220Y23276D01*
X487217Y28275D02*
X485218D01*
X484218Y27275D01*
Y23276D01*
X485218Y22277D01*
X487217D01*
X488217Y23276D01*
Y27275D01*
X487217Y28275D01*
X490216D02*
Y22277D01*
X494215D01*
X496214Y28275D02*
Y22277D01*
X499214D01*
X500213Y23276D01*
Y27275D01*
X499214Y28275D01*
X496214D01*
X506211D02*
X502212D01*
Y22277D01*
X506211D01*
X502212Y25276D02*
X504212D01*
X508211Y22277D02*
Y28275D01*
X511210D01*
X512209Y27275D01*
Y25276D01*
X511210Y24276D01*
X508211D01*
X510210D02*
X512209Y22277D01*
D40*
X399946Y1102D02*
Y204724D01*
Y1102D02*
X545616D01*
Y204724D01*
X399946D02*
X545616D01*
M02*
