G04 Layer_Physical_Order=1*
G04 Layer_Color=255*
%FSLAX25Y25*%
%MOIN*%
G70*
G01*
G75*
%ADD10C,0.04000*%
%ADD11C,0.02000*%
%ADD12C,0.02200*%
%ADD13C,0.02400*%
%ADD14C,0.07500*%
%ADD15C,0.03000*%
%ADD16R,0.06693X0.06693*%
%ADD17O,0.08000X0.07500*%
%ADD18O,0.09842X0.02756*%
%ADD19C,0.01800*%
%ADD20C,0.01600*%
%ADD21C,0.06500*%
%ADD22C,0.00800*%
%ADD23C,0.01200*%
%ADD24C,0.01400*%
%ADD25C,0.06000*%
%ADD26R,0.07500X0.09500*%
%ADD27O,0.07500X0.09500*%
%ADD28O,0.09500X0.07500*%
%ADD29R,0.09500X0.07500*%
%ADD30O,0.07500X0.08000*%
%ADD31R,0.07500X0.08000*%
%ADD32C,0.07500*%
%ADD33O,0.09000X0.07500*%
%ADD34R,0.09000X0.07500*%
%ADD35O,0.07500X0.09000*%
%ADD36C,0.10000*%
%ADD37R,0.07500X0.09000*%
G36*
X114320Y169398D02*
X114477Y168609D01*
X114785Y167865D01*
X115232Y167196D01*
X115502Y166898D01*
X123691Y158709D01*
X124165Y158280D01*
X125227Y157570D01*
X126408Y157081D01*
X127661Y156831D01*
X128300Y156800D01*
Y154924D01*
X128305Y154824D01*
X128344Y154627D01*
X128421Y154441D01*
X128533Y154274D01*
X128600Y154200D01*
X126486D01*
X125760Y154344D01*
X125077Y154627D01*
X124462Y155038D01*
X124200Y155300D01*
X124200Y155300D01*
X119228Y160272D01*
X118526Y160908D01*
X116952Y161960D01*
X115203Y162684D01*
X113347Y163054D01*
X112400Y163100D01*
X111911D01*
X111175Y163064D01*
X109731Y162777D01*
X108370Y162213D01*
X107146Y161395D01*
X106600Y160900D01*
X106457Y160757D01*
X106122Y160533D01*
X105749Y160379D01*
X105353Y160300D01*
X104796D01*
X106200Y163000D01*
X106427Y163227D01*
X106714Y163543D01*
X107187Y164251D01*
X107513Y165039D01*
X107679Y165874D01*
X107700Y166300D01*
X108339Y166331D01*
X109592Y166581D01*
X110773Y167070D01*
X111835Y167780D01*
X112309Y168209D01*
Y168209D01*
X113900Y169800D01*
X114300D01*
X114320Y169398D01*
D02*
G37*
G36*
X128600Y154200D02*
X128600Y154200D01*
X128600D01*
X128600Y154200D01*
D02*
G37*
G36*
X92614Y153616D02*
X93484Y153256D01*
X94267Y152733D01*
X94600Y152400D01*
X95146Y151905D01*
X96371Y151087D01*
X97731Y150523D01*
X99175Y150236D01*
X99911Y150200D01*
X101300D01*
Y149990D01*
Y149755D01*
X101208Y149293D01*
X101028Y148858D01*
X100766Y148466D01*
X100600Y148300D01*
X100434Y148134D01*
X100042Y147872D01*
X99607Y147692D01*
X99145Y147600D01*
X94800D01*
X94779Y148026D01*
X94613Y148861D01*
X94287Y149648D01*
X93814Y150357D01*
X93527Y150673D01*
X93100Y151100D01*
X93100Y151100D01*
X92802Y151370D01*
X92134Y151816D01*
X91392Y152124D01*
X90605Y152280D01*
X90203Y152300D01*
X87700D01*
X88100Y153200D01*
Y153200D01*
X88243Y153343D01*
X88578Y153567D01*
X88951Y153721D01*
X89347Y153800D01*
X91691D01*
X92614Y153616D01*
D02*
G37*
G36*
X72157Y169744D02*
X72157D01*
X72476Y169424D01*
X72978Y168673D01*
X73324Y167838D01*
X73500Y166952D01*
Y166500D01*
X73526Y165979D01*
X73729Y164958D01*
X74127Y163996D01*
X74706Y163131D01*
X75056Y162744D01*
X79500Y158300D01*
X79500D01*
X79334Y158133D01*
X78942Y157872D01*
X78507Y157692D01*
X78045Y157600D01*
X77800D01*
X75229Y160171D01*
X75229Y160171D01*
X74502Y160830D01*
X72872Y161919D01*
X71061Y162669D01*
X69138Y163052D01*
X68158Y163100D01*
X54200D01*
X55200Y168500D01*
Y168817D01*
X55197Y168884D01*
X55171Y169015D01*
X55119Y169139D01*
X55045Y169250D01*
X55000Y169300D01*
X55143Y169443D01*
X55478Y169667D01*
X55851Y169821D01*
X56247Y169900D01*
X72000D01*
X72157Y169744D01*
D02*
G37*
G36*
X208356Y168029D02*
X209164Y167695D01*
X209891Y167209D01*
X210200Y166900D01*
X210200Y166900D01*
X211474Y165626D01*
X211860Y165240D01*
X212468Y164330D01*
X212887Y163320D01*
X213100Y162247D01*
Y161700D01*
Y160563D01*
X213126Y160027D01*
X213335Y158977D01*
X213745Y157988D01*
X214340Y157097D01*
X214700Y156700D01*
X214700D01*
X214587Y156576D01*
X214402Y156298D01*
X214274Y155988D01*
X214208Y155660D01*
X214200Y155493D01*
Y154600D01*
X208824D01*
X208724Y154595D01*
X208527Y154556D01*
X208341Y154479D01*
X208174Y154367D01*
X208100Y154300D01*
Y159689D01*
X208064Y160425D01*
X207777Y161869D01*
X207213Y163230D01*
X206395Y164454D01*
X205900Y165000D01*
X205900Y165000D01*
X205528Y165338D01*
X204693Y165895D01*
X203765Y166279D01*
X202781Y166475D01*
X202279Y166500D01*
X179956D01*
X179587Y166482D01*
X178865Y166338D01*
X178185Y166057D01*
X177573Y165647D01*
X177300Y165400D01*
X176670Y164705D01*
X175629Y163147D01*
X174912Y161415D01*
X174546Y159577D01*
X174500Y158640D01*
Y150100D01*
X168797D01*
X168395Y150080D01*
X167608Y149924D01*
X166866Y149616D01*
X166198Y149170D01*
X165900Y148900D01*
Y148900D01*
X164895Y147895D01*
X164784Y147772D01*
X164600Y147497D01*
X164473Y147191D01*
X164408Y146866D01*
X164400Y146700D01*
Y145342D01*
Y144357D01*
X164016Y142425D01*
X163262Y140605D01*
X162168Y138968D01*
X161471Y138271D01*
X161471D01*
X158195Y134995D01*
X158077Y134877D01*
X157800Y134692D01*
X157493Y134565D01*
X157166Y134500D01*
X154023D01*
X153825Y134539D01*
X153639Y134617D01*
X153471Y134729D01*
X153400Y134800D01*
X153400Y134800D01*
X153500Y136700D01*
X154289D01*
X155025Y136736D01*
X156469Y137023D01*
X157829Y137587D01*
X159054Y138405D01*
X159600Y138900D01*
X159600D01*
X160025Y139325D01*
X160582Y139939D01*
X161502Y141317D01*
X162136Y142847D01*
X162459Y144472D01*
X162500Y145300D01*
Y154158D01*
Y155143D01*
X162884Y157075D01*
X163638Y158895D01*
X164733Y160532D01*
X165429Y161229D01*
Y161229D01*
X169471Y165271D01*
X170168Y165968D01*
X171805Y167062D01*
X173625Y167816D01*
X175557Y168200D01*
X207499D01*
X208356Y168029D01*
D02*
G37*
G36*
X208100Y154300D02*
X208100D01*
X208100Y154300D01*
Y154300D01*
D02*
G37*
G36*
X190022Y164667D02*
X190357Y164443D01*
X190500Y164300D01*
X190762Y164038D01*
X191173Y163423D01*
X191456Y162740D01*
X191600Y162014D01*
Y161644D01*
Y161500D01*
Y161215D01*
X191489Y160655D01*
X191270Y160128D01*
X190953Y159653D01*
X190752Y159451D01*
X189763Y158463D01*
Y158463D01*
X189254Y157901D01*
X188412Y156642D01*
X187833Y155243D01*
X187537Y153757D01*
X187500Y153000D01*
X180900Y155500D01*
Y160079D01*
Y160583D01*
X181097Y161573D01*
X181483Y162504D01*
X182043Y163343D01*
X182400Y163700D01*
X182685Y163985D01*
X183356Y164434D01*
X184102Y164743D01*
X184145Y164751D01*
X189819D01*
X190022Y164667D01*
D02*
G37*
G36*
X51141Y166881D02*
X51229Y166845D01*
X51308Y166792D01*
X51341Y166759D01*
X51341Y166759D01*
X51500Y166600D01*
Y162297D01*
X51520Y161896D01*
X51676Y161108D01*
X51984Y160366D01*
X52430Y159698D01*
X52700Y159400D01*
X53900Y157800D01*
X54671Y157029D01*
X55398Y156370D01*
X57028Y155281D01*
X58839Y154531D01*
X60762Y154148D01*
X61742Y154100D01*
X77833D01*
X78486Y153970D01*
X79101Y153715D01*
X79655Y153345D01*
X79890Y153110D01*
X80100Y152900D01*
X77721D01*
X77219Y152875D01*
X76235Y152680D01*
X75307Y152295D01*
X74472Y151737D01*
X74100Y151400D01*
X73988Y151276D01*
X73802Y150998D01*
X73673Y150688D01*
X73608Y150360D01*
X73600Y150193D01*
Y147500D01*
X73576Y147499D01*
X73530Y147490D01*
X73486Y147471D01*
X73447Y147445D01*
X73429Y147429D01*
Y147429D01*
X69500Y143500D01*
X67564D01*
X66179Y143775D01*
X64874Y144316D01*
X63699Y145101D01*
X63200Y145600D01*
X50761Y158039D01*
X50508Y158291D01*
X50112Y158885D01*
X49839Y159544D01*
X49700Y160243D01*
Y160600D01*
X50617Y161517D01*
X50681Y161587D01*
X50786Y161745D01*
X50858Y161920D01*
X50895Y162105D01*
X50900Y162200D01*
Y166659D01*
Y166692D01*
X50913Y166758D01*
X50939Y166820D01*
X50976Y166876D01*
X51000Y166900D01*
X51048D01*
X51141Y166881D01*
D02*
G37*
G36*
X218775Y167798D02*
X219258Y167598D01*
X219693Y167307D01*
X219878Y167122D01*
X220000Y167000D01*
X220000Y167000D01*
X220166Y166833D01*
X220428Y166442D01*
X220576Y166085D01*
Y140562D01*
X220350Y140017D01*
X220014Y139514D01*
X219800Y139300D01*
X219420Y138920D01*
X218525Y138322D01*
X217531Y137910D01*
X216475Y137700D01*
X210300D01*
X209801Y138199D01*
X209016Y139374D01*
X208475Y140679D01*
X208200Y142064D01*
Y142770D01*
Y143600D01*
X208187Y143860D01*
X208086Y144371D01*
X207886Y144852D01*
X207597Y145285D01*
X207422Y145478D01*
X204800Y148100D01*
X204800Y148100D01*
X204304Y148550D01*
X203190Y149294D01*
X201954Y149806D01*
X200641Y150067D01*
X199972Y150100D01*
X198200D01*
X197301Y150056D01*
X195537Y149705D01*
X193875Y149017D01*
X192380Y148018D01*
X191713Y147413D01*
X190300Y146000D01*
Y146000D01*
X189692Y145330D01*
X188689Y143827D01*
X187997Y142158D01*
X187644Y140385D01*
X187600Y139482D01*
Y138400D01*
X181100Y138200D01*
Y142400D01*
X181100D01*
X181212Y142524D01*
X181398Y142802D01*
X181527Y143112D01*
X181592Y143440D01*
X181600Y143607D01*
Y144000D01*
X182523Y144045D01*
X184333Y144405D01*
X186038Y145112D01*
X187573Y146137D01*
X188258Y146758D01*
X192737Y151237D01*
X192737D01*
X193246Y151799D01*
X194088Y153058D01*
X194667Y154457D01*
X194963Y155943D01*
X195000Y156700D01*
X201700D01*
X201731Y156061D01*
X201981Y154808D01*
X202470Y153627D01*
X203180Y152565D01*
X203609Y152091D01*
X209844Y145856D01*
X209844D01*
X210231Y145506D01*
X211096Y144927D01*
X212058Y144529D01*
X213079Y144326D01*
X213600Y144300D01*
X215286D01*
X215620Y144316D01*
X216277Y144447D01*
X216895Y144703D01*
X217452Y145075D01*
X217700Y145300D01*
X217880Y145499D01*
X218178Y145944D01*
X218382Y146439D01*
X218487Y146964D01*
X218500Y147231D01*
Y155358D01*
X218452Y156338D01*
X218069Y158261D01*
X217319Y160072D01*
X216230Y161702D01*
X215571Y162429D01*
X215100Y162900D01*
X215100Y162900D01*
X214910Y163090D01*
X214611Y163538D01*
X214405Y164035D01*
X214300Y164562D01*
Y164831D01*
Y165434D01*
Y165616D01*
X214371Y165973D01*
X214510Y166310D01*
X214713Y166613D01*
X214841Y166741D01*
X215200Y167100D01*
X215200D01*
X215390Y167290D01*
X215838Y167589D01*
X216335Y167795D01*
X216862Y167900D01*
X218262D01*
X218775Y167798D01*
D02*
G37*
G36*
X114558Y150187D02*
X114620Y150161D01*
X114676Y150124D01*
X114700Y150100D01*
X116332Y148468D01*
X116771Y148070D01*
X117755Y147413D01*
X118848Y146960D01*
X120008Y146729D01*
X120600Y146700D01*
X126867D01*
X127989Y146477D01*
X129045Y146039D01*
X129996Y145404D01*
X130400Y145000D01*
X129771Y144371D01*
X129754Y144354D01*
X129714Y144327D01*
X129670Y144309D01*
X129624Y144300D01*
X118407D01*
X118240Y144292D01*
X117912Y144227D01*
X117602Y144098D01*
X117324Y143912D01*
X117200Y143800D01*
X117152Y143752D01*
X117041Y143678D01*
X116916Y143626D01*
X116784Y143600D01*
X111916D01*
X111784Y143626D01*
X111659Y143678D01*
X111548Y143752D01*
X111500Y143800D01*
X111500Y143800D01*
X112300Y150200D01*
X114492D01*
X114558Y150187D01*
D02*
G37*
G36*
X37507Y170708D02*
X37942Y170528D01*
X38334Y170266D01*
X38500Y170100D01*
X38500Y170100D01*
X38599Y170010D01*
X38822Y169861D01*
X39069Y169759D01*
X39332Y169707D01*
X39466Y169700D01*
X42300D01*
X42340Y168895D01*
X42653Y167317D01*
X43202Y165992D01*
X47500Y165200D01*
Y160721D01*
X47525Y160219D01*
X47721Y159235D01*
X48105Y158307D01*
X48662Y157472D01*
X49000Y157100D01*
Y157100D01*
X46761Y154861D01*
X46522Y154597D01*
X46128Y154007D01*
X45856Y153351D01*
X45773Y152934D01*
X45711Y152874D01*
X45656Y152837D01*
X45241Y152715D01*
X45110Y152769D01*
X44971Y152796D01*
X44900Y152800D01*
X33792Y163908D01*
D01*
X33452Y164049D01*
X31942Y165058D01*
X31300Y165700D01*
X31390Y165799D01*
X31539Y166022D01*
X31641Y166269D01*
X31693Y166532D01*
X31700Y166666D01*
Y168200D01*
X33400Y170800D01*
X37045D01*
X37507Y170708D01*
D02*
G37*
G36*
X115520Y157487D02*
X116530Y157068D01*
X117440Y156460D01*
X117826Y156074D01*
X121000Y152900D01*
X121000Y152900D01*
X121372Y152562D01*
X122207Y152005D01*
X123135Y151620D01*
X124119Y151425D01*
X124621Y151400D01*
X128900D01*
X128782Y151394D01*
X128550Y151348D01*
X128331Y151258D01*
X128134Y151126D01*
X128046Y151046D01*
X127300Y150300D01*
X127300D01*
X127181Y150181D01*
X126901Y149994D01*
X126591Y149866D01*
X126261Y149800D01*
X124215D01*
X122676Y150106D01*
X121226Y150707D01*
X119921Y151579D01*
X119367Y152133D01*
X118100Y153400D01*
X118100Y153400D01*
X117455Y153985D01*
X116008Y154952D01*
X114400Y155618D01*
X112693Y155957D01*
X111823Y156000D01*
X111300D01*
X113900Y157700D01*
X114447D01*
X115520Y157487D01*
D02*
G37*
G36*
X348775Y227616D02*
X350595Y226862D01*
X352233Y225767D01*
X355161Y222838D01*
X355765Y222235D01*
X356714Y220815D01*
X357367Y219238D01*
X357653Y217800D01*
Y167500D01*
X357700Y167264D01*
Y163504D01*
X357728Y162935D01*
X357950Y161819D01*
X358385Y160768D01*
X359017Y159822D01*
X359400Y159400D01*
X360095Y158770D01*
X361653Y157729D01*
X363385Y157012D01*
X365223Y156646D01*
X366160Y156600D01*
X372100D01*
X372385Y149561D01*
X372039Y149200D01*
X369357D01*
X367425Y149584D01*
X365605Y150338D01*
X363967Y151433D01*
X363271Y152129D01*
X356900Y158500D01*
X356900Y158500D01*
Y158500D01*
X356589Y158871D01*
X356411Y159138D01*
X356205Y159635D01*
X356100Y160162D01*
Y160431D01*
Y211706D01*
X356061Y212509D01*
X355747Y214085D01*
X355132Y215569D01*
X354240Y216904D01*
X353871Y217312D01*
X353870Y217312D01*
X353870Y217313D01*
X353700Y217500D01*
X353529Y217671D01*
X353529Y217671D01*
X352802Y218330D01*
X351172Y219419D01*
X349361Y220169D01*
X347438Y220552D01*
X346458Y220600D01*
X342300D01*
X342051Y220997D01*
X342039Y221025D01*
X342000Y221223D01*
Y228000D01*
X346843D01*
X348775Y227616D01*
D02*
G37*
G36*
X131162Y182038D02*
X131400Y181800D01*
X135271Y177929D01*
X135968Y177233D01*
X137062Y175595D01*
X137816Y173775D01*
X138200Y171843D01*
Y170858D01*
Y166146D01*
X138230Y165543D01*
X138465Y164362D01*
X138926Y163249D01*
X139595Y162247D01*
X140000Y161800D01*
X140000D01*
X139910Y161701D01*
X139761Y161478D01*
X139659Y161231D01*
X139607Y160968D01*
X139600Y160834D01*
Y160803D01*
X138600Y158900D01*
X138583Y159255D01*
X138444Y159951D01*
X138172Y160607D01*
X137778Y161197D01*
X137539Y161461D01*
X137539Y161461D01*
X137500Y161500D01*
X137326Y161658D01*
X136937Y161918D01*
X136504Y162097D01*
X136044Y162188D01*
X135810Y162200D01*
X134800D01*
X134794Y162318D01*
X134748Y162550D01*
X134658Y162769D01*
X134526Y162966D01*
X134446Y163054D01*
X134447D01*
X131600Y165900D01*
Y169944D01*
X131582Y170312D01*
X131438Y171035D01*
X131157Y171715D01*
X130747Y172327D01*
X130500Y172600D01*
X129907Y173193D01*
X129732Y173352D01*
X129338Y173615D01*
X128901Y173796D01*
X128437Y173888D01*
X128200Y173900D01*
X127843D01*
X127144Y174039D01*
X126485Y174312D01*
X125891Y174708D01*
X125639Y174961D01*
X125200Y175400D01*
X124938Y175662D01*
X124527Y176277D01*
X124244Y176960D01*
X124100Y177686D01*
Y178056D01*
Y179527D01*
Y179830D01*
X124218Y180423D01*
X124450Y180983D01*
X124786Y181486D01*
X125000Y181700D01*
X125000D01*
X125039Y181739D01*
X125292Y181992D01*
X125869Y182378D01*
X130654D01*
X131162Y182038D01*
D02*
G37*
G36*
X245500Y177797D02*
Y177512D01*
X245389Y176954D01*
X245171Y176428D01*
X244855Y175955D01*
X244654Y175753D01*
Y175753D01*
X236129Y167229D01*
X235470Y166502D01*
X234381Y164872D01*
X233631Y163061D01*
X233248Y161138D01*
X233200Y160158D01*
Y129642D01*
Y128657D01*
X232816Y126725D01*
X232062Y124905D01*
X230967Y123267D01*
X230271Y122571D01*
X230271D01*
X222829Y115129D01*
X222132Y114433D01*
X220495Y113338D01*
X218675Y112584D01*
X216743Y112200D01*
X192314D01*
X192272Y112204D01*
X192230Y112200D01*
X184542D01*
X183562Y112152D01*
X181639Y111769D01*
X179828Y111019D01*
X178198Y109930D01*
X177471Y109271D01*
Y109271D01*
X129558Y61358D01*
X128937Y60673D01*
X127912Y59138D01*
X127205Y57433D01*
X126845Y55623D01*
X126800Y54700D01*
Y42542D01*
X126848Y41562D01*
X127231Y39639D01*
X127981Y37828D01*
X129070Y36198D01*
X129729Y35471D01*
X135474Y29726D01*
X135860Y29340D01*
X136468Y28430D01*
X136887Y27420D01*
X137100Y26347D01*
Y25800D01*
Y24928D01*
Y24256D01*
X136838Y22937D01*
X136323Y21694D01*
X135575Y20576D01*
X135100Y20100D01*
X135100D01*
X135100D01*
D01*
X129800Y21200D01*
Y27272D01*
X129767Y27941D01*
X129506Y29254D01*
X128994Y30490D01*
X128250Y31604D01*
X127800Y32100D01*
X127800Y32100D01*
X126929Y32971D01*
X126233Y33667D01*
X125138Y35305D01*
X124384Y37125D01*
X124000Y39057D01*
Y40042D01*
Y56558D01*
Y57543D01*
X124384Y59475D01*
X125138Y61295D01*
X126233Y62932D01*
X126929Y63629D01*
Y63629D01*
X174771Y111471D01*
X175468Y112168D01*
X177105Y113262D01*
X178925Y114016D01*
X180817Y114392D01*
X185032D01*
X185238Y114351D01*
X214909D01*
X215253Y114419D01*
X215838Y114448D01*
X217761Y114831D01*
X219572Y115581D01*
X221202Y116670D01*
X221929Y117329D01*
X221929D01*
X228271Y123671D01*
X228930Y124398D01*
X230019Y126028D01*
X230769Y127839D01*
X231152Y129762D01*
X231200Y130742D01*
Y162458D01*
Y163443D01*
X231584Y165375D01*
X232338Y167195D01*
X233433Y168833D01*
X234129Y169529D01*
Y169529D01*
X236100Y171500D01*
X236550Y171996D01*
X237294Y173109D01*
X237806Y174346D01*
X238067Y175659D01*
X238100Y176328D01*
Y178200D01*
X244534D01*
X244668Y178207D01*
X244931Y178259D01*
X245178Y178361D01*
X245401Y178510D01*
X245500Y178600D01*
X245500D01*
Y177797D01*
D02*
G37*
G36*
X235500Y177014D02*
Y176678D01*
X235369Y176018D01*
X235111Y175397D01*
X234738Y174838D01*
X234500Y174600D01*
Y174600D01*
X231629Y171729D01*
X230970Y171002D01*
X229881Y169372D01*
X229131Y167561D01*
X228748Y165638D01*
X228700Y164658D01*
Y131297D01*
Y130894D01*
X228542Y130102D01*
X228234Y129356D01*
X227785Y128685D01*
X227500Y128400D01*
X227500D01*
X218029Y118929D01*
X217333Y118233D01*
X215695Y117138D01*
X213875Y116384D01*
X212060Y116023D01*
X179900D01*
X179723Y116000D01*
X152142D01*
X151162Y115952D01*
X149239Y115569D01*
X147428Y114819D01*
X145798Y113730D01*
X145071Y113071D01*
Y113071D01*
X124429Y92429D01*
X123732Y91733D01*
X122095Y90638D01*
X120275Y89884D01*
X118343Y89500D01*
X83193D01*
X82402Y89657D01*
X81656Y89966D01*
X80985Y90415D01*
X80700Y90700D01*
X80486Y90914D01*
X80150Y91417D01*
X79918Y91976D01*
X79800Y92570D01*
Y92873D01*
Y98500D01*
Y98643D01*
X79856Y98922D01*
X79965Y99186D01*
X80123Y99423D01*
X80224Y99524D01*
X82500Y101800D01*
X100261D01*
X100591Y101734D01*
X100901Y101606D01*
X101181Y101419D01*
X101300Y101300D01*
X101300Y101300D01*
Y95739D01*
X101321Y95303D01*
X101491Y94450D01*
X101824Y93646D01*
X102307Y92923D01*
X102600Y92600D01*
X102727Y92473D01*
X103043Y92186D01*
X103752Y91713D01*
X104539Y91387D01*
X105374Y91221D01*
X105800Y91200D01*
X118396D01*
X118965Y91228D01*
X120081Y91450D01*
X121132Y91885D01*
X122078Y92518D01*
X122500Y92900D01*
Y92900D01*
X144896Y115296D01*
X145467Y115867D01*
X146812Y116766D01*
X148306Y117385D01*
X149892Y117700D01*
X210358D01*
X211338Y117748D01*
X213261Y118131D01*
X215072Y118881D01*
X216702Y119970D01*
X217429Y120629D01*
X217429D01*
X225839Y129039D01*
X226078Y129303D01*
X226472Y129893D01*
X226744Y130549D01*
X226883Y131245D01*
X226900Y131600D01*
Y174334D01*
Y174469D01*
X226953Y174733D01*
X227055Y174981D01*
X227205Y175205D01*
X227300Y175300D01*
X227480Y175499D01*
X227778Y175944D01*
X227982Y176438D01*
X228087Y176964D01*
X228100Y177231D01*
X228100Y178100D01*
X228171Y178171D01*
X228339Y178283D01*
X228525Y178361D01*
X228723Y178400D01*
X235500D01*
Y177014D01*
D02*
G37*
G36*
X77061Y198838D02*
X77412Y198314D01*
X77761Y198547D01*
X77933Y198703D01*
X77990Y198760D01*
Y184658D01*
X78006Y184331D01*
X78134Y183689D01*
X78384Y183085D01*
X78747Y182541D01*
X78967Y182299D01*
D01*
X79192Y182148D01*
X80800Y181482D01*
X81716Y181300D01*
X81820D01*
X81821Y181279D01*
X82507Y181143D01*
X83377Y181100D01*
X99500D01*
Y180648D01*
X99324Y179762D01*
X98978Y178927D01*
X98476Y178176D01*
X98156Y177857D01*
X94800Y174500D01*
X94552Y174725D01*
X93995Y175097D01*
X93377Y175353D01*
X92720Y175484D01*
X92386Y175500D01*
X67847D01*
X67451Y175579D01*
X67078Y175733D01*
X66743Y175957D01*
X66600Y176100D01*
X65966Y176734D01*
X65966D01*
X65831Y176869D01*
X65620Y177185D01*
X65474Y177537D01*
X65400Y177910D01*
Y178100D01*
Y180410D01*
Y180645D01*
X65492Y181107D01*
X65672Y181542D01*
X65934Y181933D01*
X66100Y182100D01*
X66280Y182299D01*
X66578Y182744D01*
X66782Y183238D01*
X66887Y183764D01*
X66900Y184031D01*
Y189600D01*
X69400Y192100D01*
X69968Y192128D01*
X71082Y192350D01*
X72131Y192784D01*
X73076Y193415D01*
X73497Y193797D01*
X75000Y195300D01*
X75000D01*
X75157Y195474D01*
X75418Y195863D01*
X75597Y196296D01*
X75688Y196756D01*
X75700Y196990D01*
Y198900D01*
X76317D01*
X76384Y198903D01*
X76515Y198929D01*
X76639Y198981D01*
X76750Y199055D01*
X76800Y199100D01*
X77061Y198838D01*
D02*
G37*
G36*
X86000Y202200D02*
X86119Y202081D01*
X86306Y201801D01*
X86434Y201491D01*
X86500Y201161D01*
Y200993D01*
Y187966D01*
X86507Y187832D01*
X86559Y187569D01*
X86661Y187322D01*
X86810Y187099D01*
X86900Y187000D01*
X86900Y187000D01*
X87123Y186797D01*
X87624Y186463D01*
X88181Y186232D01*
X88772Y186115D01*
X89073Y186100D01*
X113200D01*
X113508Y186115D01*
X114111Y186235D01*
X114680Y186471D01*
X115191Y186812D01*
X115419Y187019D01*
X117493Y189093D01*
X117661Y189261D01*
X118056Y189525D01*
X118496Y189707D01*
X118962Y189800D01*
X152821D01*
X154338Y189498D01*
X155767Y188906D01*
X157053Y188047D01*
X157600Y187500D01*
X157600Y187500D01*
X158221Y186937D01*
X159612Y186008D01*
X161158Y185368D01*
X162799Y185041D01*
X163636Y185000D01*
X170438D01*
X170904Y184907D01*
X171344Y184725D01*
X171739Y184461D01*
X171907Y184293D01*
X172400Y183800D01*
X172400Y183800D01*
X172543Y183657D01*
X172767Y183322D01*
X172921Y182949D01*
X173000Y182553D01*
Y182352D01*
Y181400D01*
Y181162D01*
X172907Y180696D01*
X172725Y180256D01*
X172461Y179861D01*
X172293Y179693D01*
X172100Y179500D01*
Y179500D01*
X171886Y179286D01*
X171383Y178950D01*
X170824Y178718D01*
X170230Y178600D01*
X165858D01*
X164599Y178850D01*
X163412Y179342D01*
X162345Y180055D01*
X161891Y180509D01*
X156200Y186200D01*
X155803Y186560D01*
X154912Y187155D01*
X153923Y187565D01*
X152873Y187774D01*
X152337Y187800D01*
X122200D01*
X121443Y187763D01*
X119957Y187467D01*
X118558Y186888D01*
X117299Y186046D01*
X116737Y185537D01*
X116400Y185200D01*
Y185200D01*
X116138Y184938D01*
X115523Y184527D01*
X114840Y184244D01*
X114114Y184100D01*
X82709D01*
X81786Y184284D01*
X80916Y184644D01*
X80133Y185167D01*
X79800Y185500D01*
Y200300D01*
X86000Y202200D01*
X86000Y202200D01*
D02*
G37*
G36*
X165200Y210324D02*
X165014Y209392D01*
X164650Y208513D01*
X164122Y207722D01*
X163786Y207386D01*
X163700Y207300D01*
Y207300D01*
X163565Y207151D01*
X163342Y206817D01*
X163188Y206446D01*
X163110Y206052D01*
X163100Y205852D01*
Y202500D01*
X163123Y202027D01*
X163308Y201098D01*
X163670Y200224D01*
X164196Y199437D01*
X164514Y199086D01*
X168000Y195600D01*
X168472Y195173D01*
X169529Y194466D01*
X170704Y193979D01*
X171951Y193731D01*
X172587Y193700D01*
X188885D01*
X190424Y193394D01*
X191874Y192793D01*
X193179Y191921D01*
X193733Y191367D01*
X194100Y191000D01*
X194100Y191000D01*
X194433Y190667D01*
X194956Y189884D01*
X195316Y189014D01*
X195500Y188091D01*
Y187620D01*
Y178000D01*
X188623D01*
X188426Y178039D01*
X188239Y178117D01*
X188071Y178229D01*
X188000Y178300D01*
X188000Y184589D01*
X187964Y185325D01*
X187677Y186769D01*
X187113Y188129D01*
X186295Y189354D01*
X185800Y189900D01*
X185328Y190328D01*
X184271Y191034D01*
X183096Y191521D01*
X181849Y191769D01*
X181213Y191800D01*
X169786D01*
X169366Y191884D01*
X168971Y192047D01*
X168615Y192285D01*
X168464Y192436D01*
X161800Y199100D01*
X161800Y199100D01*
X161729Y199171D01*
X161617Y199339D01*
X161539Y199525D01*
X161500Y199723D01*
Y199824D01*
Y203698D01*
X161540Y204000D01*
X161500Y204302D01*
Y205710D01*
X161488Y205944D01*
X161397Y206404D01*
X161218Y206837D01*
X160958Y207226D01*
X160800Y207400D01*
X160331Y207869D01*
X160062Y208138D01*
X159640Y208770D01*
X159348Y209473D01*
X159200Y210220D01*
Y210600D01*
X163500Y210700D01*
X164959D01*
X164992Y210702D01*
X165058Y210715D01*
X165120Y210740D01*
X165175Y210777D01*
X165200Y210800D01*
Y210324D01*
D02*
G37*
G36*
X159853Y200200D02*
X159869Y200121D01*
Y199824D01*
Y199723D01*
X159900Y199566D01*
Y199405D01*
X159900Y199405D01*
Y198621D01*
X159925Y198119D01*
X160120Y197135D01*
X160505Y196207D01*
X161063Y195372D01*
X161400Y195000D01*
X161400Y195000D01*
X165722Y190678D01*
X165915Y190503D01*
X166348Y190214D01*
X166829Y190014D01*
X167340Y189913D01*
X167600Y189900D01*
X177614D01*
X178340Y189756D01*
X179023Y189473D01*
X179638Y189062D01*
X179900Y188800D01*
X182571Y186129D01*
X183267Y185433D01*
X184362Y183795D01*
X185116Y181975D01*
X185500Y180043D01*
Y179058D01*
Y177900D01*
X178100Y178100D01*
Y182013D01*
X178069Y182649D01*
X177821Y183896D01*
X177334Y185071D01*
X176628Y186128D01*
X176200Y186600D01*
X175852Y186915D01*
X175073Y187436D01*
X174208Y187794D01*
X173289Y187977D01*
X172820Y188000D01*
X164370D01*
X163777Y188118D01*
X163217Y188350D01*
X162714Y188686D01*
X162500Y188900D01*
X162500Y188900D01*
X156929Y194471D01*
X156233Y195168D01*
X155138Y196805D01*
X154384Y198625D01*
X154000Y200557D01*
Y201542D01*
Y204100D01*
X159853D01*
Y200200D01*
D02*
G37*
G36*
X218371Y190729D02*
X219098Y190070D01*
X220728Y188981D01*
X222539Y188231D01*
X224462Y187848D01*
X225442Y187800D01*
X252757D01*
X253456Y187661D01*
X254115Y187388D01*
X254708Y186992D01*
X254961Y186739D01*
X262415Y179285D01*
X262415D01*
X262784Y178951D01*
X263610Y178399D01*
X264528Y178018D01*
X265503Y177824D01*
X266000Y177800D01*
X266253D01*
X266649Y177721D01*
X267022Y177567D01*
X267357Y177343D01*
X267500Y177200D01*
X267510Y177190D01*
X267729Y176971D01*
X268072Y176457D01*
X268309Y175886D01*
X268429Y175280D01*
X268429Y174971D01*
X268446Y174954D01*
X268473Y174914D01*
X268491Y174870D01*
X268500Y174824D01*
X268500Y174800D01*
X268405Y174705D01*
X268181Y174555D01*
X267933Y174452D01*
X267669Y174400D01*
X262500D01*
X262478Y174850D01*
X262302Y175732D01*
X261958Y176562D01*
X261459Y177310D01*
X261157Y177644D01*
X255100Y183700D01*
X255100Y183700D01*
X254628Y184127D01*
X253571Y184834D01*
X252396Y185321D01*
X251149Y185569D01*
X250513Y185600D01*
X215547D01*
X215151Y185679D01*
X214778Y185833D01*
X214443Y186057D01*
X214300Y186200D01*
X213690Y186810D01*
X213690Y186810D01*
X213455Y187045D01*
X213085Y187599D01*
X212830Y188214D01*
X212700Y188867D01*
Y189200D01*
X214300Y190600D01*
X215769D01*
X216036Y190613D01*
X216562Y190718D01*
X217056Y190922D01*
X217501Y191220D01*
X217700Y191400D01*
X218371Y190729D01*
D02*
G37*
G36*
X155780Y172211D02*
X157147Y171645D01*
X158377Y170823D01*
X158900Y170300D01*
X158900Y170300D01*
X159491Y169709D01*
X159945Y169255D01*
X160658Y168188D01*
X161150Y167001D01*
X161400Y165742D01*
Y165100D01*
Y164815D01*
X161289Y164255D01*
X161070Y163728D01*
X160753Y163253D01*
X160552Y163051D01*
Y163051D01*
X159800Y162300D01*
X159610Y162110D01*
X159162Y161811D01*
X158665Y161605D01*
X158138Y161500D01*
X146149D01*
X145948Y161490D01*
X145554Y161412D01*
X145183Y161258D01*
X144849Y161035D01*
X144700Y160900D01*
X144588Y160776D01*
X144402Y160498D01*
X144273Y160188D01*
X144208Y159860D01*
X144200Y159693D01*
Y159224D01*
Y159123D01*
X144161Y158925D01*
X144083Y158739D01*
X143971Y158571D01*
X143900Y158500D01*
Y158500D01*
X142600Y161500D01*
X143050Y161996D01*
X143794Y163110D01*
X144306Y164346D01*
X144567Y165659D01*
X144600Y166328D01*
Y168444D01*
Y168814D01*
X144744Y169540D01*
X145027Y170223D01*
X145438Y170838D01*
X145700Y171100D01*
X146033Y171433D01*
X146816Y171956D01*
X147686Y172316D01*
X148609Y172500D01*
X154329D01*
X155780Y172211D01*
D02*
G37*
G36*
X83498Y167430D02*
X84166Y166984D01*
X84908Y166676D01*
X85695Y166520D01*
X86097Y166500D01*
X86500D01*
X86524Y166003D01*
X86718Y165028D01*
X87099Y164110D01*
X87651Y163284D01*
X87985Y162915D01*
X88900Y162000D01*
X88900Y162000D01*
X89099Y161820D01*
X89544Y161522D01*
X90039Y161318D01*
X90564Y161213D01*
X90831Y161200D01*
X94400D01*
X94091Y160891D01*
X93364Y160405D01*
X92556Y160071D01*
X91699Y159900D01*
X89796D01*
X89003Y160058D01*
X88256Y160367D01*
X87584Y160816D01*
X87298Y161102D01*
X86500Y161900D01*
X86500Y161900D01*
X86177Y162192D01*
X85454Y162676D01*
X84650Y163009D01*
X83797Y163179D01*
X83362Y163200D01*
X81100D01*
X83200Y167700D01*
X83498Y167430D01*
D02*
G37*
G36*
X348475Y237616D02*
X350295Y236862D01*
X351933Y235768D01*
X352629Y235071D01*
X352629Y235071D01*
X359984Y227716D01*
X360433Y227044D01*
X360742Y226297D01*
X360853Y225741D01*
Y176000D01*
X360900Y175764D01*
Y172021D01*
X360925Y171519D01*
X361121Y170535D01*
X361505Y169607D01*
X362063Y168772D01*
X362400Y168400D01*
X362822Y168017D01*
X363768Y167385D01*
X364819Y166950D01*
X365935Y166728D01*
X366504Y166700D01*
X372053D01*
X372057Y166699D01*
X372221Y166623D01*
X372500Y166459D01*
Y159200D01*
X368357D01*
X366425Y159584D01*
X364605Y160338D01*
X362967Y161433D01*
X362271Y162129D01*
X361139Y163261D01*
X360701Y163699D01*
X360014Y164727D01*
X359541Y165869D01*
X359347Y166845D01*
Y216800D01*
X359300Y217036D01*
Y220558D01*
X359252Y221538D01*
X358869Y223461D01*
X358119Y225272D01*
X357030Y226902D01*
X356371Y227629D01*
X356371Y227629D01*
X356000Y228000D01*
X355354Y228585D01*
X353908Y229552D01*
X352300Y230218D01*
X350593Y230557D01*
X349723Y230600D01*
X342400D01*
X342210Y237642D01*
X342558Y238000D01*
X346543D01*
X348475Y237616D01*
D02*
G37*
G36*
X149675Y185616D02*
X151495Y184862D01*
X153132Y183767D01*
X153829Y183071D01*
X162071Y174829D01*
X162798Y174170D01*
X164428Y173081D01*
X166239Y172331D01*
X168162Y171948D01*
X169142Y171900D01*
X204300D01*
X204655Y171917D01*
X205351Y172056D01*
X206007Y172328D01*
X206597Y172722D01*
X206861Y172961D01*
X207600Y173700D01*
X207600D01*
X207713Y173824D01*
X207898Y174102D01*
X208027Y174412D01*
X208092Y174740D01*
X208100Y174907D01*
Y178700D01*
X208100Y178700D01*
X208100Y178700D01*
Y178700D01*
X208174Y178632D01*
X208341Y178521D01*
X208527Y178444D01*
X208724Y178405D01*
X208824Y178400D01*
X215500D01*
Y177568D01*
X215175Y175935D01*
X214538Y174398D01*
X213614Y173014D01*
X213025Y172425D01*
X211900Y171300D01*
X211900D01*
X211567Y170967D01*
X210784Y170444D01*
X209914Y170084D01*
X208991Y169900D01*
X166792D01*
X165206Y170215D01*
X163712Y170834D01*
X162367Y171732D01*
X161796Y172304D01*
X153029Y181071D01*
X153029Y181071D01*
X152302Y181730D01*
X150672Y182819D01*
X148861Y183569D01*
X146938Y183952D01*
X145958Y184000D01*
X143100D01*
X143400Y185700D01*
X143400D01*
X143471Y185771D01*
X143639Y185883D01*
X143825Y185961D01*
X144023Y186000D01*
X147743D01*
X149675Y185616D01*
D02*
G37*
G36*
X348175Y247616D02*
X349995Y246862D01*
X351632Y245767D01*
X352329Y245071D01*
X352329Y245071D01*
X363507Y233893D01*
X363798Y233458D01*
X363998Y232975D01*
X364100Y232462D01*
Y232200D01*
Y180856D01*
X364118Y180488D01*
X364262Y179765D01*
X364544Y179085D01*
X364952Y178473D01*
X365200Y178200D01*
X365597Y177840D01*
X366488Y177245D01*
X367477Y176835D01*
X368527Y176626D01*
X369063Y176600D01*
X372400D01*
X372424Y176576D01*
X372461Y176520D01*
X372487Y176458D01*
X372500Y176392D01*
Y169200D01*
X369848D01*
X368595Y169449D01*
X367414Y169938D01*
X366352Y170648D01*
X363416Y173584D01*
X362967Y174256D01*
X362658Y175003D01*
X362547Y175559D01*
Y227200D01*
X362500Y227436D01*
Y227758D01*
X362452Y228738D01*
X362069Y230661D01*
X361319Y232472D01*
X360230Y234102D01*
X359571Y234829D01*
X359571Y234829D01*
X355800Y238600D01*
X355304Y239050D01*
X354190Y239794D01*
X352954Y240306D01*
X351641Y240567D01*
X350972Y240600D01*
X342358D01*
X342010Y240958D01*
X342200Y248000D01*
X346243D01*
X348175Y247616D01*
D02*
G37*
G36*
X49634Y180316D02*
X50029Y180153D01*
X50385Y179915D01*
X50536Y179764D01*
X50536D01*
X50900Y179400D01*
X51043Y179257D01*
X51267Y178922D01*
X51421Y178549D01*
X51500Y178153D01*
Y177952D01*
X51500Y171500D01*
X51297Y171277D01*
X50963Y170776D01*
X50732Y170219D01*
X50615Y169628D01*
X50600Y169327D01*
Y167150D01*
X49700Y168300D01*
X49656Y169199D01*
X49305Y170963D01*
X48617Y172625D01*
X47618Y174120D01*
X47013Y174787D01*
Y174787D01*
X46500Y175300D01*
X47161Y175961D01*
X47575Y176418D01*
X48259Y177441D01*
X48730Y178578D01*
X48970Y179785D01*
X49000Y180400D01*
X49214D01*
X49634Y180316D01*
D02*
G37*
G36*
X82449Y150121D02*
X82822Y149967D01*
X83157Y149743D01*
X83300Y149600D01*
X83300Y149600D01*
X86600Y145200D01*
Y143907D01*
X86608Y143740D01*
X86673Y143412D01*
X86802Y143102D01*
X86988Y142824D01*
X87100Y142700D01*
X87110Y142690D01*
X87356Y142467D01*
X87907Y142099D01*
X88519Y141846D01*
X89169Y141716D01*
X89500Y141700D01*
X92668D01*
X93789Y141477D01*
X94845Y141039D01*
X95796Y140404D01*
X96200Y140000D01*
X96034Y139833D01*
X95642Y139572D01*
X95207Y139392D01*
X94745Y139300D01*
X83078D01*
X82418Y139431D01*
X81797Y139689D01*
X81238Y140062D01*
X81000Y140300D01*
X80738Y140562D01*
X80327Y141177D01*
X80044Y141860D01*
X79900Y142586D01*
Y142956D01*
Y150200D01*
X82053D01*
X82449Y150121D01*
D02*
G37*
G36*
X271475Y85216D02*
X273295Y84462D01*
X274933Y83368D01*
X275629Y82671D01*
X277460Y80840D01*
X277734Y80484D01*
X278090Y80210D01*
X278957Y79343D01*
X278957D01*
X279290Y79041D01*
X280038Y78542D01*
X280869Y78197D01*
X281750Y78022D01*
X282200Y78000D01*
X282414D01*
X282834Y77917D01*
X283229Y77753D01*
X283585Y77515D01*
X283736Y77364D01*
X286800Y74300D01*
X278041D01*
X278008Y74298D01*
X277942Y74285D01*
X277881Y74260D01*
X277825Y74222D01*
X277800Y74200D01*
X277759Y75028D01*
X277436Y76653D01*
X276802Y78183D01*
X275882Y79561D01*
X275325Y80175D01*
X272700Y82800D01*
X272452Y83025D01*
X271895Y83397D01*
X271277Y83653D01*
X270620Y83784D01*
X270286Y83800D01*
X270002D01*
X269700Y83840D01*
X269466Y83809D01*
X268945D01*
X268900Y83800D01*
X266900D01*
X266474Y83779D01*
X265638Y83613D01*
X264851Y83287D01*
X264143Y82814D01*
X263827Y82527D01*
X262580Y81280D01*
X262580D01*
X262134Y80788D01*
X261398Y79686D01*
X260891Y78462D01*
X260632Y77163D01*
X260600Y76500D01*
X260532Y76425D01*
X260421Y76259D01*
X260344Y76073D01*
X260305Y75876D01*
X260300Y75776D01*
Y60100D01*
X258351Y58151D01*
X258351D01*
X257889Y57642D01*
X257127Y56500D01*
X256602Y55232D01*
X256334Y53886D01*
X256300Y53200D01*
X249600D01*
X249600Y53200D01*
X249277Y53492D01*
X248554Y53976D01*
X247750Y54309D01*
X246897Y54479D01*
X246462Y54500D01*
X230122D01*
X229596Y54474D01*
X228565Y54269D01*
X227593Y53867D01*
X226719Y53282D01*
X226329Y52929D01*
X225670Y52202D01*
X224581Y50572D01*
X223831Y48761D01*
X223448Y46838D01*
X223400Y45858D01*
Y41700D01*
X216100Y42800D01*
Y45458D01*
Y46443D01*
X216484Y48375D01*
X217238Y50195D01*
X218333Y51832D01*
X219029Y52529D01*
X220500Y54000D01*
Y54000D01*
X221166Y54666D01*
X222731Y55712D01*
X224471Y56433D01*
X226318Y56800D01*
X246627D01*
X246928Y56815D01*
X247519Y56932D01*
X248076Y57163D01*
X248577Y57498D01*
X248800Y57700D01*
X249003Y57923D01*
X249337Y58424D01*
X249568Y58981D01*
X249685Y59572D01*
X249700Y59873D01*
Y59900D01*
X249700Y59900D01*
X249700Y59900D01*
Y59900D01*
X249725Y59878D01*
X249781Y59840D01*
X249842Y59815D01*
X249908Y59802D01*
X249941Y59800D01*
X254661D01*
X255097Y59821D01*
X255950Y59991D01*
X256754Y60324D01*
X257477Y60808D01*
X257800Y61100D01*
X257980Y61299D01*
X258278Y61744D01*
X258482Y62239D01*
X258587Y62764D01*
X258600Y63031D01*
Y75999D01*
Y76974D01*
X258980Y78887D01*
X259727Y80689D01*
X260810Y82310D01*
X261500Y83000D01*
X261979Y83479D01*
Y83479D01*
X262483Y83983D01*
X263669Y84776D01*
X264987Y85322D01*
X266387Y85600D01*
X269543D01*
X271475Y85216D01*
D02*
G37*
G36*
X193790Y110277D02*
X194844Y109841D01*
X195793Y109206D01*
X196197Y108803D01*
X220471Y84529D01*
X220471Y84529D01*
X221167Y83833D01*
X222262Y82195D01*
X223016Y80375D01*
X223400Y78443D01*
Y77458D01*
Y71900D01*
Y71900D01*
X223376Y71876D01*
X223320Y71839D01*
X223258Y71813D01*
X223192Y71800D01*
X216100D01*
Y78458D01*
X216052Y79438D01*
X215669Y81361D01*
X214919Y83172D01*
X213830Y84802D01*
X213171Y85529D01*
X203329Y95371D01*
X203329Y95371D01*
X202602Y96030D01*
X200972Y97119D01*
X199161Y97869D01*
X197238Y98252D01*
X196258Y98300D01*
X194368D01*
X192735Y98625D01*
X191198Y99262D01*
X189814Y100186D01*
X189225Y100775D01*
X189100Y100900D01*
X189100Y100900D01*
X188696Y101304D01*
X188061Y102255D01*
X187623Y103311D01*
X187400Y104432D01*
Y105004D01*
Y105700D01*
X192100Y110500D01*
X192671D01*
X193790Y110277D01*
D02*
G37*
G36*
X240225Y84478D02*
X240281Y84440D01*
X240342Y84415D01*
X240408Y84402D01*
X240441Y84400D01*
X247600D01*
Y82697D01*
Y82293D01*
X247443Y81502D01*
X247134Y80756D01*
X246685Y80085D01*
X246400Y79800D01*
X246400D01*
X245380Y78780D01*
X244934Y78288D01*
X244198Y77187D01*
X243691Y75962D01*
X243432Y74663D01*
X243400Y74000D01*
X243018Y73578D01*
X242385Y72632D01*
X241950Y71581D01*
X241728Y70465D01*
X241700Y69896D01*
Y69300D01*
X236000Y76800D01*
X236497Y76824D01*
X237472Y77018D01*
X238390Y77399D01*
X239216Y77951D01*
X239585Y78285D01*
X239800Y78500D01*
X239890Y78599D01*
X240039Y78822D01*
X240141Y79069D01*
X240193Y79332D01*
X240200Y79466D01*
X240200Y84500D01*
X240225Y84478D01*
D02*
G37*
G36*
X244700Y164500D02*
Y143642D01*
X244748Y142662D01*
X245131Y140739D01*
X245881Y138928D01*
X246970Y137298D01*
X247629Y136571D01*
X247700Y136500D01*
X247973Y136252D01*
X248585Y135844D01*
X249265Y135562D01*
X249988Y135418D01*
X250356Y135400D01*
X253300D01*
X253424Y135287D01*
X253702Y135102D01*
X254012Y134974D01*
X254340Y134908D01*
X254507Y134900D01*
X256000D01*
Y104570D01*
X256034Y103867D01*
X256309Y102489D01*
X256847Y101190D01*
X257628Y100021D01*
X258100Y99500D01*
X258398Y99230D01*
X259066Y98784D01*
X259808Y98476D01*
X260595Y98320D01*
X260997Y98300D01*
X265399D01*
X265700Y98260D01*
X266002Y98300D01*
X267100D01*
X267479Y98319D01*
X268221Y98466D01*
X268921Y98756D01*
X269550Y99177D01*
X269831Y99431D01*
X269831D01*
X270900Y100500D01*
X271440Y101096D01*
X272332Y102431D01*
X272947Y103916D01*
X273260Y105491D01*
X273300Y106294D01*
Y130206D01*
Y131013D01*
X273615Y132596D01*
X274233Y134087D01*
X275129Y135429D01*
X275700Y136000D01*
X276199Y136499D01*
X277374Y137284D01*
X278678Y137824D01*
X280064Y138100D01*
X282400D01*
Y131707D01*
X282408Y131540D01*
X282473Y131212D01*
X282602Y130902D01*
X282787Y130624D01*
X282900Y130500D01*
X279073D01*
X278772Y130485D01*
X278181Y130368D01*
X277624Y130137D01*
X277123Y129803D01*
X276900Y129600D01*
X276630Y129302D01*
X276184Y128634D01*
X275876Y127892D01*
X275720Y127104D01*
X275700Y126703D01*
Y97842D01*
Y96857D01*
X275316Y94925D01*
X274562Y93105D01*
X273467Y91467D01*
X272771Y90771D01*
X272771D01*
X272700Y90700D01*
X272106Y90106D01*
X270708Y89171D01*
X269154Y88528D01*
X267505Y88200D01*
X254210D01*
X252430Y88554D01*
X250752Y89249D01*
X249242Y90258D01*
X248600Y90900D01*
X248228Y91237D01*
X247393Y91795D01*
X246465Y92180D01*
X245481Y92375D01*
X244979Y92400D01*
X221857D01*
X219925Y92784D01*
X218105Y93538D01*
X216467Y94633D01*
X215771Y95329D01*
X215033Y96066D01*
X214479Y96621D01*
X213607Y97926D01*
X213006Y99376D01*
X212700Y100915D01*
Y101700D01*
Y102318D01*
X212941Y103531D01*
X213414Y104673D01*
X214101Y105701D01*
X214539Y106139D01*
X214539D01*
X215100Y106700D01*
X215314Y106914D01*
X215817Y107250D01*
X216376Y107482D01*
X216970Y107600D01*
X219200D01*
X220052Y107642D01*
X221723Y107974D01*
X223297Y108626D01*
X224714Y109573D01*
X225346Y110146D01*
X234171Y118971D01*
X234830Y119698D01*
X235919Y121328D01*
X236669Y123139D01*
X237052Y125062D01*
X237100Y126042D01*
Y162044D01*
Y162414D01*
X237244Y163140D01*
X237527Y163823D01*
X237938Y164438D01*
X238200Y164700D01*
X238200D01*
X244700Y164500D01*
D02*
G37*
G36*
X322065Y170995D02*
X322562Y170789D01*
X323010Y170490D01*
X323622Y169878D01*
Y169878D01*
X323807Y169693D01*
X324098Y169258D01*
X324298Y168775D01*
X324400Y168262D01*
Y168000D01*
Y87197D01*
Y86794D01*
X324242Y86002D01*
X323934Y85256D01*
X323485Y84585D01*
X323200Y84300D01*
X322447Y83547D01*
X321459Y82887D01*
X320360Y82432D01*
X319194Y82200D01*
X318267D01*
X317614Y82330D01*
X316999Y82585D01*
X316559Y82879D01*
X316200Y83200D01*
X316200Y83200D01*
X316200Y83200D01*
X315870Y83564D01*
X315527Y84077D01*
X315244Y84760D01*
X315231Y84825D01*
Y87356D01*
X315450Y87883D01*
X315786Y88386D01*
X316000Y88600D01*
X316090Y88699D01*
X316239Y88922D01*
X316341Y89169D01*
X316393Y89432D01*
X316400Y89566D01*
Y168252D01*
Y168453D01*
X316479Y168849D01*
X316633Y169222D01*
X316857Y169557D01*
X317000Y169700D01*
X317056Y169756D01*
X317376Y170076D01*
X318127Y170578D01*
X318962Y170924D01*
X319848Y171100D01*
X321538D01*
X322065Y170995D01*
D02*
G37*
G36*
X329631Y252390D02*
X330625Y251978D01*
X331520Y251380D01*
X331900Y251000D01*
X332566Y250334D01*
X333612Y248768D01*
X334333Y247029D01*
X334700Y245182D01*
Y244240D01*
Y162397D01*
X334720Y161995D01*
X334876Y161208D01*
X335184Y160466D01*
X335630Y159798D01*
X335900Y159500D01*
X336272Y159162D01*
X337107Y158605D01*
X338035Y158221D01*
X339019Y158025D01*
X339521Y158000D01*
X342500D01*
X342571Y157929D01*
X342683Y157761D01*
X342761Y157574D01*
X342800Y157377D01*
Y150600D01*
X339597D01*
X339195Y150580D01*
X338408Y150424D01*
X337666Y150116D01*
X336998Y149670D01*
X336700Y149400D01*
X336385Y149052D01*
X335864Y148273D01*
X335506Y147408D01*
X335323Y146489D01*
X335300Y146020D01*
Y83642D01*
Y82657D01*
X334916Y80725D01*
X334162Y78905D01*
X333067Y77267D01*
X332371Y76571D01*
X332371D01*
X332371Y76571D01*
X325829Y70029D01*
X325170Y69302D01*
X324081Y67672D01*
X323331Y65861D01*
X322948Y63938D01*
X322900Y62958D01*
Y48680D01*
Y48209D01*
X322716Y47286D01*
X322356Y46416D01*
X321833Y45633D01*
X321381Y45181D01*
X321101Y44994D01*
X320791Y44866D01*
X320461Y44800D01*
X317710D01*
X317337Y44874D01*
X316985Y45020D01*
X316669Y45231D01*
X316534Y45366D01*
Y45366D01*
X315981Y45919D01*
X315794Y46198D01*
X315666Y46509D01*
X315600Y46839D01*
Y69358D01*
Y70343D01*
X315984Y72275D01*
X316738Y74095D01*
X317832Y75732D01*
X318529Y76429D01*
Y76429D01*
X323671Y81571D01*
X324330Y82298D01*
X325419Y83928D01*
X326169Y85739D01*
X326552Y87662D01*
X326600Y88642D01*
Y169537D01*
X326574Y170073D01*
X326365Y171123D01*
X325955Y172112D01*
X325360Y173003D01*
X325000Y173400D01*
X324777Y173602D01*
X324276Y173937D01*
X323719Y174168D01*
X323128Y174285D01*
X322827Y174300D01*
X294617D01*
X293628Y174497D01*
X292695Y174883D01*
X291857Y175443D01*
X291500Y175800D01*
X291500Y175800D01*
X291166Y176146D01*
X290705Y176836D01*
X290371Y177644D01*
X290200Y178501D01*
Y178938D01*
Y225558D01*
Y226543D01*
X290584Y228475D01*
X291338Y230295D01*
X292432Y231932D01*
X293129Y232629D01*
Y232629D01*
X293838Y233338D01*
X294397Y233711D01*
X295018Y233969D01*
X295678Y234100D01*
X303513D01*
X304149Y234131D01*
X305396Y234379D01*
X306571Y234866D01*
X307628Y235573D01*
X308100Y236000D01*
X308100D01*
X308974Y236874D01*
X309340Y237277D01*
X309944Y238182D01*
X310361Y239188D01*
X310573Y240256D01*
X310600Y240800D01*
Y246422D01*
X310731Y247082D01*
X310989Y247703D01*
X311362Y248262D01*
X311600Y248500D01*
X311600D01*
X314353Y251253D01*
X315341Y251913D01*
X316440Y252368D01*
X317605Y252600D01*
X328575D01*
X329631Y252390D01*
D02*
G37*
G36*
X342300Y71566D02*
X342307Y71432D01*
X342359Y71169D01*
X342388Y71100D01*
X342171Y70680D01*
X342075Y70600D01*
X338942D01*
X337962Y70552D01*
X336039Y70169D01*
X334228Y69419D01*
X332598Y68330D01*
X331871Y67671D01*
X331871Y67671D01*
Y67671D01*
X330300Y66100D01*
X329737Y65479D01*
X328808Y64088D01*
X328168Y62542D01*
X327841Y60901D01*
X327800Y60065D01*
Y47342D01*
Y46357D01*
X327416Y44425D01*
X326662Y42605D01*
X325568Y40968D01*
X324871Y40271D01*
X324871D01*
X324871Y40271D01*
X318229Y33629D01*
X317532Y32932D01*
X315895Y31838D01*
X314075Y31084D01*
X312143Y30700D01*
X263142D01*
X262162Y30652D01*
X260239Y30269D01*
X258428Y29519D01*
X256798Y28430D01*
X256071Y27771D01*
X256071Y27771D01*
Y27771D01*
X255400Y27100D01*
X255138Y26838D01*
X254523Y26427D01*
X253840Y26144D01*
X253114Y26000D01*
X252415D01*
X251855Y26111D01*
X251328Y26330D01*
X251021Y26534D01*
X250652Y26849D01*
X250300Y27200D01*
X250298Y27202D01*
X250157Y27343D01*
X249933Y27678D01*
X249779Y28051D01*
X249700Y28447D01*
Y30145D01*
X249792Y30607D01*
X249972Y31042D01*
X250234Y31434D01*
X250400Y31600D01*
X250828Y32028D01*
X251835Y32701D01*
X252953Y33164D01*
X254140Y33400D01*
X309858D01*
X310838Y33448D01*
X312761Y33831D01*
X314572Y34581D01*
X316202Y35670D01*
X316929Y36329D01*
X316929D01*
X321871Y41271D01*
X322530Y41998D01*
X323619Y43628D01*
X324369Y45439D01*
X324752Y47362D01*
X324800Y48342D01*
Y63200D01*
Y63842D01*
X325050Y65101D01*
X325542Y66288D01*
X326255Y67355D01*
X326709Y67809D01*
X326709D01*
X333971Y75071D01*
X334667Y75767D01*
X336305Y76862D01*
X338125Y77616D01*
X340057Y78000D01*
X342300D01*
Y71566D01*
D02*
G37*
G36*
X245312Y51559D02*
X246928Y50890D01*
X248382Y49918D01*
X249000Y49300D01*
X249571Y48783D01*
X250851Y47927D01*
X252273Y47338D01*
X253783Y47038D01*
X254553Y47000D01*
X256300D01*
Y46976D01*
X256291Y46930D01*
X256273Y46886D01*
X256246Y46846D01*
X256229Y46829D01*
X256229D01*
X249700Y40300D01*
Y41923D01*
X249657Y42793D01*
X249318Y44500D01*
X248652Y46108D01*
X247685Y47554D01*
X247100Y48200D01*
X246777Y48493D01*
X246054Y48976D01*
X245250Y49309D01*
X244397Y49479D01*
X243962Y49500D01*
X239383D01*
X239316Y49497D01*
X239185Y49471D01*
X239061Y49419D01*
X238950Y49345D01*
X238900Y49300D01*
X236831D01*
X236564Y49287D01*
X236038Y49182D01*
X235544Y48978D01*
X235099Y48680D01*
X234900Y48500D01*
X234562Y48128D01*
X234005Y47293D01*
X233621Y46365D01*
X233425Y45381D01*
X233400Y44879D01*
Y41800D01*
X226000Y42400D01*
Y43058D01*
Y44043D01*
X226384Y45975D01*
X227138Y47795D01*
X228233Y49433D01*
X228929Y50129D01*
X229350Y50550D01*
X230340Y51212D01*
X231441Y51668D01*
X232609Y51900D01*
X243597D01*
X245312Y51559D01*
D02*
G37*
G36*
X269732Y81537D02*
X269991Y80238D01*
X270498Y79014D01*
X271234Y77912D01*
X271680Y77420D01*
X271900Y77200D01*
Y77200D01*
X271315Y76555D01*
X270348Y75108D01*
X269682Y73500D01*
X269343Y71793D01*
X269300Y70923D01*
Y38249D01*
Y38047D01*
X269221Y37651D01*
X269067Y37278D01*
X268843Y36943D01*
X268700Y36800D01*
X268557Y36657D01*
X268222Y36433D01*
X267849Y36279D01*
X267575Y36224D01*
X256900D01*
X256716Y36200D01*
X253500D01*
X252861Y36169D01*
X251608Y35919D01*
X250427Y35430D01*
X249365Y34720D01*
X248891Y34291D01*
X244500Y29900D01*
Y29900D01*
X244208Y29577D01*
X243724Y28854D01*
X243391Y28050D01*
X243221Y27197D01*
X243200Y26761D01*
Y25600D01*
Y25600D01*
X243176Y25576D01*
X243120Y25539D01*
X243058Y25513D01*
X242992Y25500D01*
X236000D01*
Y42500D01*
X237400Y45000D01*
X238137D01*
X239583Y44712D01*
X240945Y44148D01*
X242171Y43329D01*
X242692Y42808D01*
X243400Y42100D01*
Y41756D01*
X243418Y41388D01*
X243562Y40665D01*
X243844Y39985D01*
X244252Y39373D01*
X244500Y39100D01*
X244723Y38897D01*
X245224Y38563D01*
X245781Y38332D01*
X246372Y38215D01*
X246673Y38200D01*
X257696D01*
X258265Y38228D01*
X259381Y38450D01*
X260432Y38885D01*
X261378Y39518D01*
X261800Y39900D01*
X262002Y40123D01*
X262337Y40624D01*
X262568Y41181D01*
X262685Y41772D01*
X262700Y42073D01*
Y75637D01*
Y76175D01*
X262910Y77231D01*
X263322Y78225D01*
X263919Y79120D01*
X264300Y79500D01*
X265091Y80291D01*
X265091D01*
X265545Y80745D01*
X266612Y81458D01*
X267799Y81950D01*
X268945Y82178D01*
X269701D01*
X269732Y81537D01*
D02*
G37*
G36*
X305775Y166716D02*
X307595Y165962D01*
X309232Y164867D01*
X309929Y164171D01*
X310900Y163200D01*
X310900Y163200D01*
Y163200D01*
X311542Y162558D01*
X312551Y161048D01*
X313246Y159371D01*
X313600Y157590D01*
Y156682D01*
Y41214D01*
Y40878D01*
X313469Y40218D01*
X313211Y39597D01*
X312838Y39038D01*
X312410Y38610D01*
X311962Y38311D01*
X311465Y38105D01*
X310938Y38000D01*
X309955D01*
X309493Y38092D01*
X309058Y38272D01*
X308868Y38399D01*
X308500Y38700D01*
Y38700D01*
X308176Y39066D01*
X307889Y39497D01*
X307631Y40118D01*
X307500Y40778D01*
Y41114D01*
Y156089D01*
X307464Y156825D01*
X307177Y158269D01*
X306613Y159629D01*
X305795Y160854D01*
X305471Y161211D01*
X305470Y161212D01*
X305470Y161212D01*
X305300Y161400D01*
X305129Y161571D01*
X305129Y161571D01*
X304799Y161870D01*
X304060Y162364D01*
X303238Y162705D01*
X302365Y162878D01*
X301920Y162900D01*
X298100D01*
X297556Y162873D01*
X296488Y162661D01*
X295482Y162244D01*
X294577Y161640D01*
X294174Y161274D01*
X293685Y160785D01*
X293351Y160416D01*
X292799Y159590D01*
X292418Y158672D01*
X292224Y157697D01*
X292200Y157200D01*
Y156748D01*
X292024Y155862D01*
X291678Y155027D01*
X291176Y154276D01*
X290329Y153429D01*
X290329D01*
X289633Y152733D01*
X287995Y151638D01*
X286175Y150884D01*
X284243Y150500D01*
X282200D01*
X281900Y158000D01*
X282775Y158043D01*
X284493Y158385D01*
X286111Y159055D01*
X287567Y160028D01*
X288216Y160616D01*
X292521Y164921D01*
X294120Y165989D01*
X295896Y166725D01*
X297781Y167100D01*
X303843D01*
X305775Y166716D01*
D02*
G37*
G36*
X254380Y83799D02*
X254855Y83602D01*
X255284Y83316D01*
X255466Y83134D01*
X255600Y83000D01*
X255838Y82762D01*
X256211Y82203D01*
X256469Y81582D01*
X256600Y80922D01*
Y80586D01*
Y66100D01*
X255742D01*
X254762Y66052D01*
X252839Y65669D01*
X251028Y64919D01*
X249398Y63830D01*
X248671Y63171D01*
X247229Y61729D01*
X247229D01*
X246533Y61032D01*
X244895Y59938D01*
X243075Y59184D01*
X241143Y58800D01*
X224342D01*
X223362Y58752D01*
X221439Y58369D01*
X219628Y57619D01*
X217998Y56530D01*
X217271Y55871D01*
X215900Y54500D01*
X215900D01*
X215360Y53904D01*
X214468Y52569D01*
X213853Y51085D01*
X213539Y49509D01*
X213500Y48706D01*
Y42000D01*
X206000Y41300D01*
Y43858D01*
Y44843D01*
X206384Y46775D01*
X207138Y48595D01*
X208232Y50232D01*
X208929Y50929D01*
X216300Y58300D01*
Y58300D01*
X216990Y58990D01*
X218611Y60073D01*
X220413Y60820D01*
X222326Y61200D01*
X240500D01*
X241115Y61230D01*
X242322Y61470D01*
X243459Y61941D01*
X244482Y62625D01*
X244938Y63038D01*
X247400Y65500D01*
Y65500D01*
X247918Y66071D01*
X248773Y67351D01*
X249362Y68773D01*
X249662Y70283D01*
X249700Y71053D01*
Y80434D01*
Y80735D01*
X249817Y81326D01*
X250048Y81882D01*
X250382Y82382D01*
X250595Y82595D01*
X251264Y83264D01*
X251415Y83415D01*
X251771Y83653D01*
X252166Y83816D01*
X252586Y83900D01*
X253875D01*
X254380Y83799D01*
D02*
G37*
G36*
X299533Y161147D02*
X299781Y161045D01*
X300005Y160895D01*
X300100Y160800D01*
X300934Y159966D01*
Y159966D01*
X301069Y159831D01*
X301280Y159515D01*
X301426Y159163D01*
X301500Y158790D01*
Y158600D01*
Y67921D01*
Y67417D01*
X301303Y66427D01*
X300917Y65496D01*
X300357Y64657D01*
X300000Y64300D01*
X299493Y63793D01*
X299058Y63502D01*
X298575Y63302D01*
X298061Y63200D01*
X297186D01*
X296460Y63344D01*
X295777Y63627D01*
X295162Y64038D01*
X294900Y64300D01*
X294495Y64705D01*
Y64705D01*
X294203Y65084D01*
X294192Y65100D01*
X294065Y65407D01*
X294000Y65734D01*
Y65900D01*
Y155954D01*
Y156560D01*
X294236Y157747D01*
X294699Y158865D01*
X295372Y159872D01*
X295800Y160300D01*
X296014Y160514D01*
X296517Y160850D01*
X297077Y161082D01*
X297670Y161200D01*
X299269D01*
X299533Y161147D01*
D02*
G37*
G36*
X372300Y109200D02*
X369018D01*
X368115Y109156D01*
X366342Y108803D01*
X364673Y108112D01*
X363170Y107107D01*
X362500Y106500D01*
X362028Y105979D01*
X361247Y104810D01*
X360709Y103511D01*
X360435Y102133D01*
X360400Y101430D01*
Y50842D01*
Y49857D01*
X360016Y47925D01*
X359262Y46105D01*
X358168Y44467D01*
X357471Y43771D01*
X357471D01*
X357471Y43771D01*
X353029Y39329D01*
X352332Y38633D01*
X350695Y37538D01*
X348875Y36784D01*
X346943Y36400D01*
X334842D01*
X333862Y36352D01*
X331939Y35969D01*
X330128Y35219D01*
X328498Y34130D01*
X327771Y33471D01*
X327771Y33471D01*
Y33471D01*
X326200Y31900D01*
X325863Y31528D01*
X325305Y30693D01*
X324921Y29765D01*
X324725Y28781D01*
X324700Y28279D01*
Y21558D01*
X324342Y21210D01*
X317300Y21400D01*
Y24143D01*
X317684Y26075D01*
X318438Y27895D01*
X319532Y29533D01*
X320229Y30229D01*
Y30229D01*
X325871Y35871D01*
X326568Y36568D01*
X328205Y37662D01*
X330025Y38416D01*
X331957Y38800D01*
X344758D01*
X345738Y38848D01*
X347661Y39231D01*
X349472Y39981D01*
X351102Y41070D01*
X351829Y41729D01*
X351829D01*
X354871Y44771D01*
X355530Y45498D01*
X356619Y47128D01*
X357369Y48939D01*
X357752Y50862D01*
X357800Y51842D01*
Y104758D01*
Y105743D01*
X358184Y107675D01*
X358938Y109495D01*
X360033Y111133D01*
X360729Y111829D01*
Y111829D01*
X363400Y114500D01*
X363876Y114976D01*
X364994Y115723D01*
X366237Y116238D01*
X367556Y116500D01*
X372300D01*
Y109200D01*
D02*
G37*
G36*
X253045Y182089D02*
X253572Y181870D01*
X254047Y181553D01*
X254248Y181351D01*
X256371Y179229D01*
X256371Y179229D01*
X257067Y178533D01*
X258162Y176895D01*
X258916Y175075D01*
X259300Y173143D01*
Y172158D01*
Y160187D01*
Y159548D01*
X259051Y158295D01*
X258562Y157114D01*
X257852Y156052D01*
X257400Y155600D01*
X257107Y155277D01*
X256624Y154554D01*
X256291Y153750D01*
X256121Y152897D01*
X256100Y152462D01*
Y149742D01*
X256148Y148762D01*
X256531Y146839D01*
X257281Y145028D01*
X258370Y143398D01*
X259029Y142671D01*
X259900Y141800D01*
X259900Y141800D01*
X260347Y141395D01*
X261349Y140726D01*
X262462Y140265D01*
X263643Y140030D01*
X264246Y140000D01*
X267500D01*
X268186Y140034D01*
X269532Y140302D01*
X270800Y140827D01*
X271941Y141589D01*
X272451Y142051D01*
X276100Y145700D01*
X276100D01*
X276647Y146247D01*
X277933Y147106D01*
X279362Y147698D01*
X280879Y148000D01*
X282700D01*
X282771Y147929D01*
X282883Y147761D01*
X282961Y147574D01*
X283000Y147377D01*
Y147276D01*
Y140600D01*
X278746D01*
X278143Y140570D01*
X276962Y140335D01*
X275849Y139874D01*
X274847Y139205D01*
X274400Y138800D01*
X273129Y137529D01*
Y137529D01*
X272470Y136802D01*
X271381Y135172D01*
X270631Y133361D01*
X270248Y131438D01*
X270200Y130458D01*
Y105204D01*
Y104632D01*
X269977Y103511D01*
X269539Y102455D01*
X268904Y101504D01*
X268500Y101100D01*
X267836Y100436D01*
X267836Y100436D01*
X267685Y100285D01*
X267329Y100047D01*
X267049Y99931D01*
X266002D01*
X265957Y99922D01*
X265443D01*
X265399Y99931D01*
X264597D01*
X264258Y100072D01*
X263866Y100334D01*
X263700Y100500D01*
X263391Y100809D01*
X262905Y101536D01*
X262571Y102344D01*
X262400Y103201D01*
Y103639D01*
Y132689D01*
X262364Y133425D01*
X262077Y134869D01*
X261513Y136230D01*
X260695Y137454D01*
X260200Y138000D01*
X256929Y141271D01*
X256929Y141271D01*
X256202Y141930D01*
X254572Y143019D01*
X252761Y143769D01*
X250838Y144152D01*
X249858Y144200D01*
X249500D01*
X249500Y144200D01*
X249476Y144224D01*
X249439Y144280D01*
X249413Y144342D01*
X249400Y144408D01*
Y144441D01*
Y150900D01*
X249760Y151297D01*
X250355Y152188D01*
X250765Y153177D01*
X250974Y154227D01*
X251000Y154763D01*
Y171999D01*
X250952Y172969D01*
X250574Y174873D01*
X249831Y176666D01*
X248752Y178280D01*
X248100Y179000D01*
X250400Y180900D01*
X251346Y181846D01*
X251431Y181930D01*
X251628Y182063D01*
X251848Y182154D01*
X252081Y182200D01*
X252485D01*
X253045Y182089D01*
D02*
G37*
G36*
X201800Y143977D02*
X201843Y143107D01*
X202182Y141400D01*
X202848Y139792D01*
X203815Y138346D01*
X204400Y137700D01*
X207071Y135029D01*
X207798Y134370D01*
X209428Y133281D01*
X211239Y132531D01*
X213162Y132148D01*
X214142Y132100D01*
X214864D01*
X215701Y132141D01*
X217342Y132467D01*
X218888Y133108D01*
X220279Y134037D01*
X220900Y134600D01*
X221193Y134923D01*
X221676Y135646D01*
X222009Y136450D01*
X222179Y137303D01*
X222200Y137739D01*
Y139400D01*
X224600D01*
Y132714D01*
Y132378D01*
X224469Y131718D01*
X224211Y131097D01*
X223838Y130538D01*
X223600Y130300D01*
Y130300D01*
X221729Y128429D01*
X221033Y127733D01*
X219395Y126638D01*
X217575Y125884D01*
X215643Y125500D01*
X208200D01*
Y127247D01*
X208162Y128017D01*
X207862Y129527D01*
X207273Y130949D01*
X206417Y132229D01*
X205900Y132800D01*
X203546Y135154D01*
X202914Y135727D01*
X201497Y136674D01*
X199923Y137326D01*
X198252Y137658D01*
X197400Y137700D01*
Y143500D01*
X201800Y144100D01*
Y143977D01*
D02*
G37*
G36*
X345675Y177616D02*
X347495Y176862D01*
X349132Y175768D01*
X349829Y175071D01*
X350300Y174600D01*
X350514Y174386D01*
X350850Y173883D01*
X351082Y173324D01*
X351153Y172966D01*
Y152900D01*
X351200Y152664D01*
Y149642D01*
X351248Y148662D01*
X351631Y146739D01*
X352381Y144928D01*
X353470Y143298D01*
X354129Y142571D01*
X357171Y139529D01*
X357898Y138870D01*
X359528Y137781D01*
X361339Y137031D01*
X363262Y136648D01*
X364242Y136600D01*
X372000D01*
X372380Y129563D01*
X372037Y129200D01*
X365957D01*
X364025Y129584D01*
X362205Y130338D01*
X360567Y131432D01*
X359871Y132129D01*
X350800Y141200D01*
X350515Y141485D01*
X350066Y142156D01*
X349757Y142902D01*
X349600Y143693D01*
Y144097D01*
Y167227D01*
X349585Y167528D01*
X349468Y168119D01*
X349237Y168676D01*
X349009Y169017D01*
X349003Y169026D01*
X349003Y169026D01*
X348903Y169177D01*
X348700Y169400D01*
X348700Y169400D01*
X348402Y169670D01*
X347734Y170116D01*
X346992Y170424D01*
X346204Y170580D01*
X345803Y170600D01*
X342100D01*
X341851Y170997D01*
X341839Y171026D01*
X341800Y171223D01*
Y178000D01*
X343743D01*
X345675Y177616D01*
D02*
G37*
G36*
X130900Y129683D02*
X130903Y129616D01*
X130929Y129485D01*
X130981Y129361D01*
X131055Y129250D01*
X131100Y129200D01*
X131100D01*
X131100Y129200D01*
X131100Y129200D01*
X128063D01*
X127527Y129174D01*
X126477Y128965D01*
X125488Y128555D01*
X124597Y127960D01*
X124200Y127600D01*
X124200D01*
X117207Y120607D01*
X117039Y120439D01*
X116644Y120175D01*
X116204Y119993D01*
X115738Y119900D01*
X105914D01*
X105579Y119884D01*
X104923Y119753D01*
X104305Y119497D01*
X103748Y119125D01*
X103500Y118900D01*
X103500D01*
X102997Y118397D01*
X102615Y117976D01*
X101984Y117031D01*
X101549Y115982D01*
X101328Y114868D01*
X101300Y114300D01*
Y113987D01*
Y113348D01*
X101051Y112095D01*
X100562Y110914D01*
X99852Y109852D01*
X99400Y109400D01*
X86087D01*
X84504Y109715D01*
X83013Y110333D01*
X81671Y111229D01*
X81100Y111800D01*
X81100Y111800D01*
X83100Y116100D01*
X92347D01*
X93117Y116138D01*
X94627Y116438D01*
X96049Y117027D01*
X97329Y117883D01*
X97900Y118400D01*
Y118400D01*
X100764Y121264D01*
X100915Y121415D01*
X101271Y121653D01*
X101666Y121817D01*
X102086Y121900D01*
X113596D01*
X114165Y121928D01*
X115281Y122150D01*
X116332Y122585D01*
X117278Y123217D01*
X117700Y123600D01*
Y123600D01*
X125247Y131146D01*
X125378Y131278D01*
X125688Y131485D01*
X126032Y131627D01*
X126397Y131700D01*
X130900D01*
Y129683D01*
D02*
G37*
G36*
X30175Y156316D02*
X31995Y155562D01*
X33632Y154467D01*
X34329Y153771D01*
X44400Y143700D01*
X41024Y140324D01*
X40929Y140219D01*
X40771Y139983D01*
X40662Y139720D01*
X40607Y139442D01*
X40600Y139300D01*
X33629Y146271D01*
X33629Y146271D01*
X32902Y146930D01*
X31272Y148019D01*
X29461Y148769D01*
X27538Y149152D01*
X26558Y149200D01*
X21700D01*
X21600Y156700D01*
X28243D01*
X30175Y156316D01*
D02*
G37*
G36*
X347375Y217616D02*
X349195Y216862D01*
X350833Y215768D01*
X351529Y215071D01*
X351529Y215071D01*
X351529Y215071D01*
X352200Y214400D01*
X352723Y213877D01*
X353545Y212647D01*
X354111Y211280D01*
X354400Y209828D01*
Y209089D01*
Y157642D01*
X354448Y156662D01*
X354831Y154739D01*
X355581Y152928D01*
X356670Y151298D01*
X357329Y150571D01*
X358371Y149529D01*
X359098Y148870D01*
X360728Y147781D01*
X362539Y147031D01*
X364462Y146648D01*
X365442Y146600D01*
X372100D01*
Y139617D01*
X371900Y139200D01*
X367157D01*
X365225Y139584D01*
X363405Y140338D01*
X361768Y141432D01*
X361071Y142129D01*
X353986Y149214D01*
X353404Y150084D01*
X353004Y151051D01*
X352847Y151840D01*
Y171400D01*
X352800Y171636D01*
Y206103D01*
X352780Y206505D01*
X352624Y207292D01*
X352316Y208034D01*
X351870Y208702D01*
X351600Y209000D01*
X351600Y209000D01*
X351178Y209383D01*
X350232Y210015D01*
X349181Y210450D01*
X348065Y210672D01*
X347496Y210700D01*
X342400D01*
X342210Y217642D01*
X342559Y218000D01*
X345443D01*
X347375Y217616D01*
D02*
G37*
G36*
X26375Y166216D02*
X28195Y165462D01*
X28878Y165005D01*
X28879Y165005D01*
X29801Y164623D01*
X30610Y164082D01*
X30788Y163905D01*
X30810Y163890D01*
X30985Y163715D01*
X31046Y163654D01*
X31102Y163631D01*
X32209Y162891D01*
X32680Y162420D01*
X35362Y159738D01*
X35362Y159738D01*
X35412Y159688D01*
X50600Y144500D01*
X50838Y144262D01*
X51211Y143703D01*
X51469Y143082D01*
X51600Y142422D01*
Y142086D01*
Y138700D01*
X50295Y137395D01*
X50184Y137272D01*
X49999Y136997D01*
X49873Y136691D01*
X49808Y136366D01*
X49800Y136200D01*
Y137758D01*
X49752Y138738D01*
X49369Y140661D01*
X48619Y142472D01*
X47530Y144102D01*
X46871Y144829D01*
X34100Y157600D01*
X33653Y158005D01*
X32651Y158674D01*
X31538Y159135D01*
X30357Y159370D01*
X29754Y159400D01*
X21500D01*
X21300Y166600D01*
X24443D01*
X26375Y166216D01*
D02*
G37*
G36*
X129911Y136629D02*
X130718Y136295D01*
X131445Y135809D01*
X131754Y135500D01*
X131754D01*
X131652Y135387D01*
X131483Y135134D01*
X131367Y134853D01*
X131307Y134555D01*
X131300Y134403D01*
Y134200D01*
X119721D01*
X119219Y134175D01*
X118235Y133979D01*
X117307Y133595D01*
X116472Y133037D01*
X116100Y132700D01*
X115717Y132278D01*
X115085Y131332D01*
X114650Y130281D01*
X114428Y129165D01*
X114400Y128596D01*
Y128200D01*
X108008D01*
X107942Y128213D01*
X107880Y128239D01*
X107824Y128276D01*
X107800Y128300D01*
X107800Y128300D01*
Y129162D01*
X107779Y129597D01*
X107609Y130450D01*
X107276Y131254D01*
X106792Y131977D01*
X106500Y132300D01*
X106500Y132300D01*
X105426Y133374D01*
X105023Y133740D01*
X104118Y134344D01*
X103112Y134761D01*
X102044Y134973D01*
X101500Y135000D01*
X92904D01*
X92335Y134972D01*
X91219Y134750D01*
X90168Y134315D01*
X89222Y133683D01*
X88800Y133300D01*
X88305Y132754D01*
X87487Y131529D01*
X86923Y130169D01*
X86636Y128725D01*
X86600Y127989D01*
Y126700D01*
X81631D01*
X81367Y126752D01*
X81119Y126855D01*
X80895Y127005D01*
X80800Y127100D01*
X80700Y132300D01*
X82472D01*
X83141Y132333D01*
X84454Y132594D01*
X85690Y133106D01*
X86804Y133850D01*
X87300Y134300D01*
X87894Y134894D01*
X89292Y135828D01*
X90846Y136472D01*
X92495Y136800D01*
X129053D01*
X129911Y136629D01*
D02*
G37*
G36*
X100239Y128261D02*
X100491Y128008D01*
X100888Y127415D01*
X101161Y126756D01*
X101300Y126057D01*
Y125700D01*
X100543Y125663D01*
X99057Y125367D01*
X97658Y124788D01*
X96399Y123946D01*
X95837Y123437D01*
Y123437D01*
X94256Y121856D01*
X93886Y121486D01*
X93016Y120905D01*
X92049Y120504D01*
X91023Y120300D01*
X88693D01*
X87902Y120457D01*
X87156Y120766D01*
X86485Y121215D01*
X86200Y121500D01*
X88000Y122200D01*
X88813D01*
X89449Y122231D01*
X90696Y122479D01*
X91871Y122966D01*
X92928Y123672D01*
X93400Y124100D01*
X93400D01*
X93810Y124510D01*
X94033Y124756D01*
X94401Y125307D01*
X94655Y125919D01*
X94784Y126569D01*
X94800Y126900D01*
X95084Y126914D01*
X95641Y127025D01*
X96166Y127242D01*
X96638Y127558D01*
X96848Y127749D01*
Y127749D01*
X98800Y129700D01*
X100239Y128261D01*
D02*
G37*
G36*
X200056Y131929D02*
X200864Y131595D01*
X201591Y131109D01*
X201900Y130800D01*
X201900Y130800D01*
Y124980D01*
Y124509D01*
X201716Y123586D01*
X201356Y122716D01*
X200833Y121933D01*
X200500Y121600D01*
X200072Y121172D01*
X199065Y120499D01*
X197947Y120036D01*
X196760Y119800D01*
X162878D01*
X162218Y119931D01*
X161597Y120189D01*
X161038Y120562D01*
X160800Y120800D01*
X160800Y120800D01*
X159180Y122420D01*
X158688Y122866D01*
X157587Y123602D01*
X156362Y124109D01*
X155063Y124367D01*
X154400Y124400D01*
X153331D01*
X152606Y124544D01*
X151922Y124827D01*
X151307Y125238D01*
X151046Y125500D01*
X151046Y125500D01*
X153300Y126700D01*
X157830D01*
X158423Y126582D01*
X158983Y126350D01*
X159486Y126014D01*
X159700Y125800D01*
X161396Y124104D01*
X161993Y123563D01*
X163331Y122669D01*
X164817Y122053D01*
X166395Y121739D01*
X167200Y121700D01*
X176196D01*
X176765Y121728D01*
X177881Y121950D01*
X178932Y122385D01*
X179878Y123018D01*
X180300Y123400D01*
X180457Y123574D01*
X180718Y123963D01*
X180897Y124396D01*
X180989Y124856D01*
X181000Y125090D01*
Y131859D01*
Y131892D01*
X181013Y131958D01*
X181039Y132020D01*
X181076Y132076D01*
X181100Y132100D01*
X199199D01*
X200056Y131929D01*
D02*
G37*
G36*
X50711Y123772D02*
X50843Y123718D01*
X50962Y123638D01*
X51012Y123588D01*
X51600Y123000D01*
Y121621D01*
X51625Y121119D01*
X51820Y120135D01*
X52205Y119207D01*
X52763Y118372D01*
X53100Y118000D01*
X53597Y117550D01*
X54710Y116806D01*
X55946Y116294D01*
X57259Y116033D01*
X57928Y116000D01*
X68600D01*
Y109500D01*
X58995D01*
X57346Y109828D01*
X55792Y110471D01*
X54394Y111406D01*
X53800Y112000D01*
X53800Y112637D01*
X53774Y113173D01*
X53565Y114223D01*
X53155Y115212D01*
X52560Y116103D01*
X52200Y116500D01*
X50790Y117910D01*
X50790Y117910D01*
X50555Y118145D01*
X50185Y118699D01*
X49930Y119314D01*
X49800Y119967D01*
Y120300D01*
X50500Y123800D01*
X50571D01*
X50711Y123772D01*
D02*
G37*
G36*
X55097Y143440D02*
X55988Y142845D01*
X56977Y142435D01*
X58027Y142226D01*
X58563Y142200D01*
X59900D01*
Y135897D01*
X59920Y135495D01*
X60076Y134708D01*
X60384Y133966D01*
X60830Y133298D01*
X61100Y133000D01*
X61274Y132843D01*
X61663Y132582D01*
X62096Y132403D01*
X62556Y132311D01*
X62790Y132300D01*
X73600D01*
Y126566D01*
Y126431D01*
X73548Y126167D01*
X73445Y125919D01*
X73295Y125695D01*
X73200Y125600D01*
X73150Y125645D01*
X73039Y125719D01*
X72915Y125771D01*
X72784Y125797D01*
X72717Y125800D01*
X56500D01*
X53900Y128800D01*
Y141869D01*
Y142138D01*
X54005Y142665D01*
X54211Y143162D01*
X54510Y143610D01*
X54700Y143800D01*
X55097Y143440D01*
D02*
G37*
G36*
X174600Y128156D02*
Y127786D01*
X174456Y127060D01*
X174173Y126377D01*
X173762Y125762D01*
X173500Y125500D01*
Y125500D01*
X168362D01*
X167835Y125605D01*
X167338Y125811D01*
X166890Y126110D01*
X166700Y126300D01*
X166700Y126300D01*
X166629Y126371D01*
X165902Y127030D01*
X164272Y128119D01*
X162461Y128869D01*
X160538Y129252D01*
X159558Y129300D01*
X153900D01*
X153800Y131600D01*
X162454D01*
X163057Y131630D01*
X164238Y131865D01*
X165351Y132326D01*
X166353Y132995D01*
X166800Y133400D01*
X167070Y133698D01*
X167516Y134366D01*
X167824Y135108D01*
X167980Y135896D01*
X168000Y136297D01*
Y140000D01*
X168082D01*
X168985Y140044D01*
X170758Y140397D01*
X172427Y141088D01*
X173930Y142093D01*
X174600Y142700D01*
X174600D01*
Y128156D01*
D02*
G37*
G36*
X130055Y126750D02*
X129981Y126639D01*
X129929Y126515D01*
X129903Y126384D01*
X129900Y126317D01*
Y124100D01*
X129616Y124086D01*
X129059Y123975D01*
X128534Y123758D01*
X128062Y123442D01*
X127851Y123251D01*
X116800Y112200D01*
Y112200D01*
X116215Y111555D01*
X115248Y110108D01*
X114582Y108500D01*
X114243Y106793D01*
X114200Y105923D01*
Y95300D01*
X107800Y96100D01*
X107800Y96100D01*
X107776Y96124D01*
X107739Y96180D01*
X107713Y96242D01*
X107700Y96308D01*
Y96341D01*
Y111551D01*
Y111753D01*
X107779Y112149D01*
X107933Y112522D01*
X108157Y112857D01*
X108300Y113000D01*
X110381Y115081D01*
X110381D01*
X110599Y115299D01*
X111113Y115643D01*
X111685Y115879D01*
X112291Y116000D01*
X112600D01*
X113570Y116048D01*
X115473Y116426D01*
X117266Y117169D01*
X118879Y118247D01*
X119599Y118899D01*
X126200Y125500D01*
Y125500D01*
X126509Y125809D01*
X127236Y126295D01*
X128044Y126629D01*
X128901Y126800D01*
X130100D01*
X130055Y126750D01*
D02*
G37*
G36*
X47289Y185687D02*
Y185687D01*
X47311Y185668D01*
X47359Y185635D01*
X47413Y185613D01*
X47471Y185601D01*
X47500Y185600D01*
Y185386D01*
X47416Y184966D01*
X47253Y184571D01*
X47015Y184215D01*
X46864Y184064D01*
X37928Y175128D01*
X37928Y175128D01*
X37256Y174456D01*
X35674Y173399D01*
X33917Y172671D01*
X32051Y172300D01*
X31100D01*
X30674Y172279D01*
X29838Y172113D01*
X29052Y171787D01*
X28343Y171314D01*
X28027Y171027D01*
X27700Y170700D01*
Y170700D01*
X27343Y170343D01*
X26504Y169783D01*
X25572Y169397D01*
X24583Y169200D01*
X21700D01*
X21500Y176600D01*
X30058D01*
X31038Y176648D01*
X32961Y177031D01*
X34772Y177781D01*
X36402Y178870D01*
X37031Y179440D01*
X37054Y179455D01*
X37112Y179513D01*
X37129Y179529D01*
X39300Y181700D01*
Y181700D01*
X39638Y182072D01*
X40195Y182907D01*
X40580Y183835D01*
X40775Y184819D01*
X40800Y185321D01*
Y185900D01*
X40913Y185906D01*
X41135Y185950D01*
X41344Y186036D01*
X41532Y186162D01*
X41616Y186238D01*
X44177Y188799D01*
X47289Y185687D01*
D02*
G37*
G36*
X345398Y284059D02*
X345500Y283948D01*
Y261367D01*
Y260828D01*
X345290Y259770D01*
X344877Y258775D01*
X344278Y257878D01*
X343897Y257497D01*
Y257497D01*
X343494Y257094D01*
X342545Y256459D01*
X341490Y256023D01*
X340371Y255800D01*
X320693D01*
X319902Y255957D01*
X319156Y256266D01*
X318485Y256715D01*
X318200Y257000D01*
X317232Y257967D01*
X316138Y259605D01*
X315384Y261425D01*
X315000Y263357D01*
Y264342D01*
Y281600D01*
X320655Y283269D01*
X321100Y283400D01*
X321385Y283033D01*
X321406Y283001D01*
X321534Y282691D01*
X321600Y282361D01*
Y262190D01*
X321611Y261956D01*
X321703Y261496D01*
X321882Y261063D01*
X322143Y260674D01*
X322300Y260500D01*
X322598Y260230D01*
X323266Y259784D01*
X324008Y259476D01*
X324796Y259320D01*
X325197Y259300D01*
X335003D01*
X335404Y259320D01*
X336192Y259476D01*
X336934Y259784D01*
X337602Y260230D01*
X337900Y260500D01*
X338147Y260773D01*
X338557Y261385D01*
X338838Y262065D01*
X338982Y262788D01*
X339000Y263156D01*
Y284200D01*
X344676D01*
X344776Y284205D01*
X344973Y284244D01*
X344998Y284254D01*
X345001Y284255D01*
X345398Y284059D01*
D02*
G37*
G36*
X295600Y289497D02*
X295620Y289095D01*
X295776Y288308D01*
X296084Y287566D01*
X296530Y286898D01*
X296800Y286600D01*
X297297Y286150D01*
X298410Y285406D01*
X299646Y284894D01*
X300959Y284633D01*
X301628Y284600D01*
X307200D01*
Y280414D01*
X307216Y280080D01*
X307347Y279423D01*
X307603Y278805D01*
X307807Y278500D01*
X307540Y278000D01*
X300928D01*
X300259Y277967D01*
X298946Y277706D01*
X297709Y277194D01*
X296597Y276450D01*
X296100Y276000D01*
X295718Y275578D01*
X295085Y274632D01*
X294650Y273581D01*
X294428Y272465D01*
X294400Y271896D01*
Y260000D01*
X293523Y259123D01*
X293286Y258965D01*
X293022Y258856D01*
X292743Y258800D01*
X292600D01*
X288200Y257517D01*
X287800Y257817D01*
Y269769D01*
X287787Y270036D01*
X287682Y270562D01*
X287477Y271056D01*
X287180Y271501D01*
X287000Y271700D01*
X286810Y271890D01*
X286511Y272338D01*
X286305Y272835D01*
X286200Y273362D01*
Y278453D01*
X286279Y278849D01*
X286433Y279222D01*
X286657Y279557D01*
X286800Y279700D01*
X287115Y280048D01*
X287636Y280827D01*
X287994Y281692D01*
X288177Y282611D01*
X288200Y283080D01*
Y293200D01*
X295600D01*
Y289497D01*
D02*
G37*
G36*
X50800Y250331D02*
Y250062D01*
X50695Y249535D01*
X50489Y249038D01*
X50190Y248590D01*
X50000Y248400D01*
Y248400D01*
X49808D01*
X49742Y248413D01*
X49680Y248439D01*
X49624Y248476D01*
X49600Y248500D01*
X49600Y248500D01*
Y249510D01*
X49589Y249744D01*
X49497Y250204D01*
X49318Y250637D01*
X49057Y251026D01*
X48900Y251200D01*
X48776Y251312D01*
X48498Y251498D01*
X48188Y251626D01*
X47860Y251692D01*
X47693Y251700D01*
X47100D01*
X47093Y251842D01*
X47038Y252120D01*
X46929Y252383D01*
X46771Y252619D01*
X46676Y252724D01*
X46676D01*
X45200Y254200D01*
X44400Y258400D01*
X46627D01*
X46928Y258415D01*
X47519Y258532D01*
X48076Y258763D01*
X48577Y259098D01*
X48800Y259300D01*
X48980Y259499D01*
X49277Y259944D01*
X49482Y260438D01*
X49587Y260964D01*
X49600Y261231D01*
Y262900D01*
X50800D01*
Y250331D01*
D02*
G37*
G36*
X105600Y264800D02*
X95870D01*
X95276Y264918D01*
X94717Y265150D01*
X94214Y265486D01*
X94000Y265700D01*
X93762Y265938D01*
X93389Y266497D01*
X93131Y267118D01*
X93000Y267778D01*
Y268114D01*
Y268300D01*
Y268633D01*
X93130Y269286D01*
X93385Y269901D01*
X93755Y270455D01*
X93990Y270690D01*
X94183Y270883D01*
X94635Y271185D01*
X95139Y271394D01*
X95673Y271500D01*
X104100D01*
X105600Y264800D01*
D02*
G37*
G36*
X73524Y270903D02*
X73718Y269928D01*
X74099Y269010D01*
X74651Y268184D01*
X74985Y267815D01*
X77600Y265200D01*
Y264748D01*
X77424Y263862D01*
X77078Y263027D01*
X76576Y262276D01*
X76257Y261957D01*
X75600Y261300D01*
Y261786D01*
X75584Y262120D01*
X75453Y262777D01*
X75197Y263395D01*
X74825Y263952D01*
X74600Y264200D01*
X74600Y264200D01*
X74451Y264335D01*
X74117Y264558D01*
X73746Y264712D01*
X73352Y264790D01*
X73151Y264800D01*
X71200D01*
Y270800D01*
X72052D01*
X72252Y270810D01*
X72646Y270888D01*
X73017Y271042D01*
X73351Y271265D01*
X73500Y271400D01*
X73524Y270903D01*
D02*
G37*
G36*
X89900Y267200D02*
X90066Y267034D01*
X90328Y266642D01*
X90508Y266207D01*
X90600Y265745D01*
Y265510D01*
Y260200D01*
X89329Y258929D01*
Y258929D01*
X88670Y258202D01*
X87581Y256572D01*
X86831Y254761D01*
X86448Y252838D01*
X86400Y251858D01*
Y239100D01*
X80500Y238900D01*
X80357Y239043D01*
X80133Y239378D01*
X79979Y239751D01*
X79900Y240147D01*
Y240349D01*
Y253800D01*
X82522Y256422D01*
X82697Y256615D01*
X82986Y257048D01*
X83186Y257529D01*
X83287Y258040D01*
X83300Y258300D01*
X83844Y258327D01*
X84912Y258539D01*
X85918Y258956D01*
X86823Y259560D01*
X87226Y259926D01*
X87600Y260300D01*
Y260300D01*
X87937Y260672D01*
X88495Y261507D01*
X88880Y262435D01*
X89075Y263419D01*
X89100Y263921D01*
Y264600D01*
X89280Y264799D01*
X89578Y265244D01*
X89782Y265739D01*
X89887Y266264D01*
X89900Y266531D01*
Y267200D01*
X89900Y267200D01*
X89900Y267200D01*
Y267200D01*
D02*
G37*
G36*
X110957Y260922D02*
X111517Y260083D01*
X111903Y259151D01*
X112100Y258162D01*
Y257657D01*
Y256979D01*
X112148Y256931D01*
X112222Y256819D01*
X112274Y256695D01*
X112300Y256563D01*
Y256496D01*
Y247879D01*
X110500Y248179D01*
Y249289D01*
X110488Y249523D01*
X110397Y249983D01*
X110218Y250415D01*
X109958Y250805D01*
X109800Y250979D01*
X109626Y251136D01*
X109237Y251396D01*
X108804Y251576D01*
X108344Y251667D01*
X108110Y251679D01*
X107600D01*
X107361Y251918D01*
X107108Y252170D01*
X106712Y252763D01*
X106439Y253422D01*
X106300Y254122D01*
Y254479D01*
X106570Y254777D01*
X107016Y255445D01*
X107324Y256187D01*
X107480Y256974D01*
X107500Y257376D01*
Y258379D01*
X108210D01*
X108444Y258390D01*
X108904Y258482D01*
X109337Y258661D01*
X109726Y258921D01*
X109900Y259079D01*
X109900D01*
X110134Y259313D01*
X110239Y259429D01*
X110412Y259688D01*
X110531Y259976D01*
X110592Y260281D01*
X110600Y260437D01*
Y261279D01*
X110957Y260922D01*
D02*
G37*
G36*
X214075Y253816D02*
X215895Y253062D01*
X217532Y251968D01*
X218229Y251271D01*
X218229Y251271D01*
X222571Y246929D01*
X223268Y246233D01*
X224362Y244595D01*
X225116Y242775D01*
X225500Y240843D01*
Y238700D01*
X218100D01*
Y244464D01*
X218059Y245301D01*
X217733Y246942D01*
X217092Y248488D01*
X216162Y249879D01*
X215600Y250500D01*
X212678Y253422D01*
X212485Y253597D01*
X212431Y253633D01*
X212627Y254104D01*
X214075Y253816D01*
D02*
G37*
G36*
X207875Y248716D02*
X209695Y247962D01*
X211333Y246867D01*
X212029Y246171D01*
X212029Y246171D01*
X212029Y246171D01*
X213400Y244800D01*
X213899Y244301D01*
X214684Y243126D01*
X215225Y241822D01*
X215500Y240436D01*
Y238700D01*
X208100D01*
Y241996D01*
X208072Y242565D01*
X207850Y243681D01*
X207415Y244732D01*
X206783Y245678D01*
X206400Y246100D01*
X206201Y246280D01*
X205756Y246578D01*
X205261Y246782D01*
X204736Y246887D01*
X204469Y246900D01*
X201600D01*
Y247893D01*
X201592Y248060D01*
X201526Y248388D01*
X201439Y248600D01*
X201565Y248899D01*
X201731Y249100D01*
X205943D01*
X207875Y248716D01*
D02*
G37*
G36*
X242571Y247029D02*
X243267Y246333D01*
X244362Y244695D01*
X245116Y242875D01*
X245500Y240943D01*
Y238700D01*
X238456Y238605D01*
X238100Y238956D01*
Y244158D01*
X238052Y245138D01*
X237669Y247061D01*
X236919Y248872D01*
X235830Y250502D01*
X235171Y251229D01*
X235171Y251229D01*
X232200Y254200D01*
X231891Y254509D01*
X231405Y255236D01*
X231071Y256044D01*
X230900Y256901D01*
Y258047D01*
X231362Y258238D01*
X242571Y247029D01*
D02*
G37*
G36*
X265600Y261311D02*
X265636Y260575D01*
X265923Y259131D01*
X266487Y257770D01*
X267305Y256546D01*
X267800Y256000D01*
X268470Y255393D01*
X269973Y254388D01*
X271642Y253697D01*
X273415Y253344D01*
X274318Y253300D01*
X293643D01*
X295575Y252916D01*
X297395Y252162D01*
X299032Y251067D01*
X299729Y250371D01*
X299729Y250371D01*
X301500Y248600D01*
X298266Y245366D01*
X298131Y245231D01*
X297815Y245020D01*
X297463Y244874D01*
X297090Y244800D01*
X296900D01*
X293033Y248667D01*
X292454Y249192D01*
X291156Y250059D01*
X289713Y250657D01*
X288181Y250962D01*
X287400Y251000D01*
X269747D01*
X269351Y251079D01*
X268978Y251233D01*
X268643Y251457D01*
X268500Y251600D01*
X262051Y258049D01*
X261682Y258418D01*
X261103Y259285D01*
X260703Y260249D01*
X260500Y261272D01*
Y261793D01*
Y285269D01*
X260487Y285536D01*
X260382Y286062D01*
X260177Y286556D01*
X259880Y287001D01*
X259700Y287200D01*
X259343Y287557D01*
X258783Y288396D01*
X258397Y289328D01*
X258200Y290317D01*
Y290821D01*
Y293600D01*
X265600D01*
Y261311D01*
D02*
G37*
G36*
X308600Y269447D02*
Y246242D01*
Y245257D01*
X308216Y243325D01*
X307462Y241505D01*
X306367Y239867D01*
X305671Y239171D01*
X305400Y238900D01*
X305400D01*
X305067Y238567D01*
X304284Y238044D01*
X303414Y237684D01*
X302491Y237500D01*
X290615D01*
X290055Y237611D01*
X289528Y237830D01*
X289053Y238147D01*
X288851Y238349D01*
X287800Y239400D01*
X287800Y239400D01*
X287502Y239670D01*
X286834Y240116D01*
X286092Y240424D01*
X285304Y240580D01*
X284903Y240600D01*
X282319D01*
X282078Y241038D01*
X286500Y248000D01*
X287118D01*
X288331Y247759D01*
X289473Y247286D01*
X290501Y246599D01*
X290938Y246162D01*
X293600Y243500D01*
X293600Y243500D01*
X294221Y242937D01*
X295612Y242008D01*
X297158Y241368D01*
X298799Y241041D01*
X299636Y241000D01*
X299700D01*
X300008Y241015D01*
X300611Y241135D01*
X301180Y241371D01*
X301691Y241712D01*
X301919Y241919D01*
X303500Y243500D01*
X303500Y243500D01*
Y243500D01*
X303860Y243897D01*
X304455Y244788D01*
X304865Y245777D01*
X305074Y246827D01*
X305100Y247363D01*
Y252296D01*
X305072Y252865D01*
X304850Y253981D01*
X304415Y255032D01*
X303783Y255978D01*
X303400Y256400D01*
X303067Y256733D01*
X302544Y257516D01*
X302184Y258386D01*
X302000Y259309D01*
Y266600D01*
X302734Y266636D01*
X304172Y266922D01*
X305528Y267484D01*
X306748Y268299D01*
X307292Y268792D01*
X308138Y269638D01*
X308600Y269447D01*
D02*
G37*
G36*
X44500Y245200D02*
X44388Y245076D01*
X44202Y244798D01*
X44074Y244488D01*
X44008Y244160D01*
X44000Y243993D01*
Y238500D01*
X39914D01*
X39580Y238484D01*
X38923Y238353D01*
X38305Y238097D01*
X37748Y237725D01*
X37500Y237500D01*
X37095Y237053D01*
X36426Y236051D01*
X35965Y234938D01*
X35730Y233757D01*
X35700Y233154D01*
Y229653D01*
Y228879D01*
X35398Y227362D01*
X34806Y225933D01*
X33947Y224647D01*
X33400Y224100D01*
X31429Y222129D01*
X31429D01*
X30733Y221432D01*
X29095Y220338D01*
X27275Y219584D01*
X25343Y219200D01*
X21500D01*
X22400Y226600D01*
X26944D01*
X27312Y226618D01*
X28035Y226762D01*
X28715Y227044D01*
X29327Y227452D01*
X29600Y227700D01*
X30027Y228172D01*
X30734Y229229D01*
X31221Y230404D01*
X31469Y231651D01*
X31500Y232287D01*
Y235500D01*
Y236213D01*
X31778Y237613D01*
X32324Y238931D01*
X33117Y240117D01*
X33621Y240621D01*
X36100Y243100D01*
Y243100D01*
X36599Y243599D01*
X37774Y244384D01*
X39079Y244924D01*
X40464Y245200D01*
X44500D01*
Y245200D01*
D02*
G37*
G36*
X201500Y290049D02*
X201510Y289848D01*
X201588Y289454D01*
X201742Y289083D01*
X201463Y288600D01*
X183742D01*
X182762Y288552D01*
X180839Y288169D01*
X179028Y287419D01*
X177398Y286330D01*
X176671Y285671D01*
X176671Y285671D01*
Y285671D01*
X170800Y279800D01*
X170750Y279845D01*
X170639Y279919D01*
X170515Y279971D01*
X170384Y279997D01*
X170317Y280000D01*
X169900D01*
X169322Y280231D01*
X169221Y280721D01*
X177688Y289188D01*
X177736Y289241D01*
X177814Y289359D01*
X177869Y289490D01*
X177896Y289629D01*
X177900Y289700D01*
X183271Y295071D01*
X183967Y295767D01*
X185605Y296862D01*
X187425Y297616D01*
X189357Y298000D01*
X201500D01*
Y290049D01*
D02*
G37*
G36*
X215458Y293087D02*
X215520Y293061D01*
X215576Y293024D01*
X215600Y293000D01*
Y291257D01*
X215216Y289325D01*
X214462Y287505D01*
X213368Y285868D01*
X212671Y285171D01*
X212671D01*
X212671Y285171D01*
X206729Y279229D01*
X206032Y278533D01*
X204395Y277438D01*
X202575Y276684D01*
X200643Y276300D01*
X197200D01*
Y276776D01*
X197195Y276876D01*
X197156Y277073D01*
X197079Y277259D01*
X197384Y277702D01*
X201700Y279500D01*
X201889Y279509D01*
X202261Y279583D01*
X202610Y279728D01*
X202925Y279938D01*
X203066Y280066D01*
X207400Y284400D01*
X207603Y284623D01*
X207937Y285124D01*
X208168Y285681D01*
X208285Y286272D01*
X208300Y286573D01*
Y293100D01*
X215392D01*
X215458Y293087D01*
D02*
G37*
G36*
X225600Y288957D02*
X225216Y287025D01*
X224462Y285205D01*
X223368Y283568D01*
X222671Y282871D01*
X222671D01*
X222671Y282871D01*
X218429Y278629D01*
X217770Y277902D01*
X216681Y276272D01*
X215931Y274461D01*
X215548Y272538D01*
X215500Y271558D01*
Y269000D01*
X208461Y268715D01*
X208100Y269061D01*
Y269556D01*
X208434Y271235D01*
X209089Y272817D01*
X210040Y274240D01*
X215271Y279471D01*
X215930Y280198D01*
X217019Y281828D01*
X217769Y283639D01*
X218152Y285562D01*
X218200Y286542D01*
X218200Y292886D01*
X218659Y293300D01*
X225600D01*
Y288957D01*
D02*
G37*
G36*
X34441Y312200D02*
X272107D01*
X272898Y312042D01*
X273644Y311734D01*
X274315Y311285D01*
X274600Y311000D01*
X275004Y310596D01*
X275639Y309645D01*
X276077Y308589D01*
X276300Y307468D01*
Y305667D01*
X276170Y305014D01*
X275915Y304399D01*
X275545Y303845D01*
X275310Y303610D01*
X275000Y303300D01*
X275000D01*
X274501Y302801D01*
X273326Y302016D01*
X272022Y301476D01*
X270636Y301200D01*
X159717D01*
X158483Y301446D01*
X157320Y301927D01*
X156274Y302626D01*
X155829Y303071D01*
X155102Y303730D01*
X153472Y304819D01*
X151661Y305569D01*
X149738Y305952D01*
X148758Y306000D01*
X95436D01*
X94599Y305959D01*
X92958Y305632D01*
X91412Y304992D01*
X90021Y304063D01*
X89400Y303500D01*
X88929Y303029D01*
X88929D01*
X88232Y302332D01*
X86595Y301238D01*
X84775Y300484D01*
X82843Y300100D01*
X41880D01*
X41411Y300077D01*
X40492Y299894D01*
X39627Y299536D01*
X38848Y299015D01*
X38500Y298700D01*
X38118Y298278D01*
X37485Y297332D01*
X37050Y296281D01*
X36828Y295165D01*
X36800Y294596D01*
Y289257D01*
X36416Y287325D01*
X35662Y285505D01*
X34567Y283868D01*
X33871Y283171D01*
X16629Y265929D01*
Y265929D01*
X15970Y265202D01*
X14881Y263572D01*
X14131Y261761D01*
X13748Y259838D01*
X13700Y258858D01*
Y72728D01*
X13733Y72059D01*
X13994Y70746D01*
X14506Y69510D01*
X15250Y68397D01*
X15700Y67900D01*
X15700Y67900D01*
X16122Y67518D01*
X17068Y66885D01*
X18119Y66450D01*
X19235Y66228D01*
X19804Y66200D01*
X25020D01*
X25489Y66223D01*
X26408Y66406D01*
X27273Y66764D01*
X28052Y67285D01*
X28400Y67600D01*
X29008Y68270D01*
X30011Y69773D01*
X30703Y71442D01*
X31056Y73215D01*
X31100Y74118D01*
Y82171D01*
Y114400D01*
X31200Y117891D01*
Y134620D01*
Y135091D01*
X31384Y136014D01*
X31744Y136884D01*
X32267Y137667D01*
X32600Y138000D01*
X32719Y138119D01*
X32998Y138306D01*
X33309Y138434D01*
X33639Y138500D01*
X36180D01*
X36927Y138352D01*
X37630Y138060D01*
X38262Y137638D01*
X38531Y137369D01*
X38531Y137369D01*
X40984Y134916D01*
X41633Y134328D01*
X43089Y133355D01*
X44707Y132685D01*
X46424Y132343D01*
X47300Y132300D01*
Y111277D01*
X47343Y110407D01*
X47682Y108700D01*
X48348Y107092D01*
X49315Y105646D01*
X49900Y105000D01*
X50171Y104729D01*
X50898Y104070D01*
X52528Y102981D01*
X54339Y102231D01*
X56262Y101848D01*
X57242Y101800D01*
X68040D01*
X68977Y101846D01*
X70815Y102212D01*
X72547Y102929D01*
X74105Y103970D01*
X74800Y104600D01*
X75047Y104873D01*
X75457Y105485D01*
X75738Y106165D01*
X75882Y106887D01*
X75900Y107256D01*
Y108400D01*
X75995Y108405D01*
X76180Y108442D01*
X76355Y108514D01*
X76513Y108619D01*
X76583Y108683D01*
X77700Y109800D01*
Y106780D01*
Y106309D01*
X77516Y105386D01*
X77156Y104516D01*
X76633Y103733D01*
X76300Y103400D01*
X76300D01*
X75521Y102621D01*
X75044Y102095D01*
X74255Y100914D01*
X73712Y99602D01*
X73600Y99040D01*
Y90604D01*
X73628Y90035D01*
X73850Y88919D01*
X74285Y87868D01*
X74918Y86922D01*
X75300Y86500D01*
X75648Y86185D01*
X76427Y85664D01*
X77292Y85306D01*
X78211Y85123D01*
X78680Y85100D01*
X117858D01*
X118838Y85148D01*
X120761Y85531D01*
X122572Y86281D01*
X124202Y87370D01*
X124929Y88029D01*
X124929D01*
X145071Y108171D01*
X145767Y108868D01*
X147405Y109962D01*
X149225Y110716D01*
X151157Y111100D01*
X154768D01*
X155889Y110877D01*
X156945Y110439D01*
X157896Y109804D01*
X158300Y109400D01*
X158633Y109067D01*
X159156Y108284D01*
X159516Y107414D01*
X159700Y106491D01*
Y104158D01*
X159450Y102899D01*
X158958Y101712D01*
X158245Y100645D01*
X157791Y100191D01*
X157791Y100191D01*
Y100191D01*
X122629Y65029D01*
X121970Y64302D01*
X120881Y62672D01*
X120131Y60861D01*
X119800Y59199D01*
Y43442D01*
Y42457D01*
X119416Y40525D01*
X118662Y38705D01*
X117568Y37067D01*
X116871Y36371D01*
X115229Y34729D01*
X115229D01*
X114532Y34032D01*
X112895Y32938D01*
X111075Y32184D01*
X109143Y31800D01*
X104942D01*
X103962Y31752D01*
X102039Y31369D01*
X100228Y30619D01*
X98598Y29530D01*
X97871Y28871D01*
X97000Y28000D01*
Y28000D01*
X96393Y27330D01*
X95389Y25827D01*
X94697Y24158D01*
X94344Y22385D01*
X94300Y21482D01*
Y18070D01*
X94335Y17367D01*
X94609Y15989D01*
X95147Y14690D01*
X95928Y13521D01*
X96400Y13000D01*
X97070Y12393D01*
X98573Y11389D01*
X100242Y10697D01*
X102015Y10344D01*
X102918Y10300D01*
X136720D01*
X137189Y10323D01*
X138108Y10506D01*
X138973Y10864D01*
X139752Y11385D01*
X140100Y11700D01*
X140460Y12097D01*
X141055Y12988D01*
X141465Y13977D01*
X141674Y15027D01*
X141700Y15563D01*
Y15815D01*
X141600Y16318D01*
Y17260D01*
Y24858D01*
X141552Y25838D01*
X141169Y27761D01*
X140419Y29572D01*
X139330Y31202D01*
X138671Y31929D01*
X133129Y37471D01*
X132432Y38168D01*
X131338Y39805D01*
X130584Y41625D01*
X130200Y43557D01*
Y44542D01*
Y52958D01*
Y53943D01*
X130584Y55875D01*
X131338Y57695D01*
X132432Y59333D01*
X133129Y60029D01*
X165071Y91971D01*
Y91971D01*
X165768Y92668D01*
X167405Y93762D01*
X169225Y94516D01*
X171157Y94900D01*
X195943D01*
X197875Y94516D01*
X199695Y93762D01*
X201332Y92668D01*
X202029Y91971D01*
X210471Y83529D01*
X210471Y83529D01*
X211168Y82832D01*
X212262Y81195D01*
X213016Y79375D01*
X213400Y77443D01*
Y76458D01*
Y68242D01*
Y67257D01*
X213016Y65325D01*
X212262Y63505D01*
X211168Y61867D01*
X210471Y61171D01*
X205529Y56229D01*
Y56229D01*
X204870Y55502D01*
X203781Y53872D01*
X203031Y52061D01*
X202648Y50138D01*
X202600Y49158D01*
Y35856D01*
X202618Y35487D01*
X202762Y34765D01*
X203044Y34085D01*
X203452Y33473D01*
X203700Y33200D01*
X203973Y32952D01*
X204585Y32544D01*
X205265Y32262D01*
X205988Y32118D01*
X206356Y32100D01*
X226000D01*
X229800Y28200D01*
Y25473D01*
Y22087D01*
X229831Y21451D01*
X230079Y20204D01*
X230566Y19029D01*
X231273Y17972D01*
X231700Y17500D01*
X231700D01*
X235071Y14129D01*
X235798Y13470D01*
X237428Y12381D01*
X239239Y11631D01*
X241162Y11248D01*
X242142Y11200D01*
X363158D01*
X364138Y11248D01*
X366061Y11631D01*
X367872Y12381D01*
X369502Y13470D01*
X370229Y14129D01*
X370229D01*
X376771Y20671D01*
X377430Y21398D01*
X378519Y23028D01*
X379269Y24839D01*
X379652Y26762D01*
X379700Y27742D01*
X379700Y27742D01*
X379700Y246076D01*
X379665Y246814D01*
X379379Y248262D01*
X378815Y249625D01*
X377996Y250853D01*
X377500Y251400D01*
X377202Y251670D01*
X376534Y252116D01*
X375792Y252424D01*
X375064Y252569D01*
X375005Y252580D01*
X374603Y252600D01*
X374603Y252600D01*
X374603Y252600D01*
X374603Y252600D01*
X361057D01*
X359125Y252984D01*
X357305Y253738D01*
X355667Y254833D01*
X354971Y255529D01*
X353800Y256700D01*
X353324Y257176D01*
X352577Y258294D01*
X352062Y259537D01*
X351800Y260856D01*
X351800Y261528D01*
X351800Y282900D01*
X351762Y283681D01*
X351457Y285213D01*
X350859Y286656D01*
X349992Y287954D01*
X349466Y288533D01*
X349467Y288533D01*
X342929Y295071D01*
X342232Y295767D01*
X341138Y297405D01*
X340384Y299225D01*
X340000Y301157D01*
Y305189D01*
X340269Y306542D01*
X340797Y307816D01*
X341563Y308963D01*
X342051Y309451D01*
X342372Y309771D01*
X343126Y310276D01*
X343965Y310623D01*
X344855Y310800D01*
X345308Y310800D01*
X345308Y310800D01*
X375658Y310800D01*
X376643Y310800D01*
X378575Y310416D01*
X380395Y309662D01*
X382032Y308568D01*
X382729Y307871D01*
X382729Y307871D01*
X387371Y303229D01*
X388068Y302533D01*
X389162Y300895D01*
X389916Y299075D01*
X390300Y297143D01*
X390300Y296158D01*
X390300D01*
X390300Y296158D01*
Y295260D01*
D01*
Y294654D01*
Y283000D01*
D01*
X390300Y23742D01*
X390300Y22757D01*
X389916Y20825D01*
X389162Y19005D01*
X388068Y17368D01*
X387371Y16671D01*
X377600Y6900D01*
X377124Y6424D01*
X376006Y5677D01*
X374763Y5162D01*
X373444Y4900D01*
X372772Y4900D01*
X21557D01*
X19625Y5284D01*
X17805Y6038D01*
X16168Y7132D01*
X15471Y7829D01*
Y7829D01*
X13699Y9601D01*
D01*
X6929Y16371D01*
X6233Y17067D01*
X5678Y17622D01*
X4806Y18926D01*
X4206Y20376D01*
X3900Y21914D01*
Y22699D01*
Y292040D01*
Y292982D01*
X4267Y294829D01*
X4988Y296568D01*
X6034Y298134D01*
X6700Y298800D01*
X17271Y309371D01*
X17271Y309371D01*
Y309371D01*
X17967Y310068D01*
X19605Y311162D01*
X21425Y311916D01*
X23357Y312300D01*
X34419D01*
X34441Y312200D01*
D02*
G37*
G36*
X320475Y307016D02*
X322295Y306262D01*
X323933Y305168D01*
X324629Y304471D01*
X329671Y299429D01*
X329671Y299429D01*
X330367Y298732D01*
X331462Y297095D01*
X332216Y295275D01*
X332600Y293343D01*
Y292358D01*
Y263500D01*
X326000D01*
Y292640D01*
X325954Y293577D01*
X325588Y295415D01*
X324871Y297147D01*
X323830Y298705D01*
X323200Y299400D01*
X321629Y300971D01*
X321629Y300971D01*
X320902Y301630D01*
X319272Y302719D01*
X317461Y303469D01*
X315538Y303852D01*
X314558Y303900D01*
X293460D01*
X292523Y303854D01*
X290685Y303488D01*
X288953Y302771D01*
X287395Y301730D01*
X286700Y301100D01*
X286430Y300802D01*
X285984Y300134D01*
X285676Y299392D01*
X285520Y298604D01*
X285500Y298203D01*
Y293600D01*
X285500Y283778D01*
X285369Y283118D01*
X285111Y282497D01*
X284738Y281938D01*
X284307Y281507D01*
X284148Y281332D01*
X283885Y280938D01*
X283704Y280501D01*
X283612Y280037D01*
X283600Y279800D01*
Y273709D01*
X283416Y272786D01*
X283056Y271916D01*
X282533Y271133D01*
X282200Y270800D01*
X282020Y270601D01*
X281722Y270156D01*
X281518Y269661D01*
X281413Y269136D01*
X281400Y268869D01*
Y257825D01*
X280960Y257586D01*
X274800Y261600D01*
Y273682D01*
Y274590D01*
X275154Y276371D01*
X275849Y278048D01*
X276858Y279558D01*
X277500Y280200D01*
X277658Y280374D01*
X277918Y280763D01*
X278097Y281196D01*
X278188Y281656D01*
X278200Y281890D01*
Y291819D01*
Y297143D01*
X278584Y299075D01*
X279338Y300895D01*
X280433Y302533D01*
X282371Y304471D01*
X282371Y304471D01*
Y304471D01*
X283067Y305168D01*
X284705Y306262D01*
X286525Y307016D01*
X288457Y307400D01*
X318543D01*
X320475Y307016D01*
D02*
G37*
G36*
X96573Y303553D02*
X97185Y303144D01*
X97865Y302862D01*
X98588Y302718D01*
X98956Y302700D01*
X101000D01*
X99900Y301600D01*
X98339Y301600D01*
X97903Y301579D01*
X97050Y301409D01*
X96246Y301076D01*
X95523Y300592D01*
X95200Y300300D01*
X95200Y300300D01*
X89429Y294529D01*
X88770Y293802D01*
X87681Y292172D01*
X86931Y290361D01*
X86548Y288438D01*
X86500Y287458D01*
Y270495D01*
X79900Y265800D01*
Y286158D01*
Y287143D01*
X80284Y289075D01*
X81038Y290895D01*
X82133Y292532D01*
X82829Y293229D01*
Y293229D01*
X91349Y301749D01*
X91837Y302237D01*
X92984Y303003D01*
X94258Y303531D01*
X95610Y303800D01*
X96300Y303800D01*
X96300Y303800D01*
X96573Y303553D01*
D02*
G37*
G36*
X235523Y292521D02*
X235599Y292357D01*
X235600Y292353D01*
Y288557D01*
X235216Y286625D01*
X234462Y284805D01*
X233367Y283168D01*
X232671Y282471D01*
X232671D01*
X232671Y282471D01*
X228429Y278229D01*
X227770Y277502D01*
X226681Y275872D01*
X225931Y274061D01*
X225548Y272138D01*
X225500Y271158D01*
Y268900D01*
X218463Y268520D01*
X218100Y268864D01*
Y269308D01*
X218415Y270894D01*
X219034Y272388D01*
X219933Y273732D01*
X225271Y279071D01*
X225930Y279798D01*
X227019Y281428D01*
X227769Y283239D01*
X228152Y285162D01*
X228200Y286142D01*
Y292800D01*
X235359D01*
X235523Y292521D01*
D02*
G37*
G36*
X244761Y296638D02*
X245173Y296023D01*
X245456Y295340D01*
X245600Y294614D01*
Y294244D01*
X245600Y294244D01*
X245600D01*
Y268473D01*
Y268170D01*
X245482Y267577D01*
X245250Y267017D01*
X245017Y266669D01*
X244700Y266300D01*
X238100Y268800D01*
Y294286D01*
Y294622D01*
X238231Y295282D01*
X238489Y295903D01*
X238862Y296462D01*
X239100Y296700D01*
X239148Y296748D01*
X239259Y296822D01*
X239384Y296874D01*
X239516Y296900D01*
X244500D01*
X244761Y296638D01*
D02*
G37*
G36*
X45600Y267314D02*
X45616Y266980D01*
X45747Y266323D01*
X46003Y265705D01*
X46375Y265148D01*
X46600Y264900D01*
X46600D01*
X46600Y264900D01*
X46600Y264900D01*
X37942D01*
X36962Y264852D01*
X35039Y264469D01*
X33228Y263719D01*
X31598Y262630D01*
X30871Y261971D01*
Y261971D01*
X29229Y260329D01*
X28570Y259602D01*
X27481Y257972D01*
X26731Y256161D01*
X26348Y254238D01*
X26300Y253258D01*
X26300Y243100D01*
X26205Y243005D01*
X25981Y242855D01*
X25733Y242753D01*
X25469Y242700D01*
X17000D01*
Y254158D01*
Y255143D01*
X17384Y257075D01*
X18138Y258895D01*
X19232Y260532D01*
X19929Y261229D01*
Y261229D01*
X27700Y269000D01*
X28271Y269571D01*
X29613Y270467D01*
X31104Y271085D01*
X32687Y271400D01*
X45600D01*
Y267314D01*
D02*
G37*
G36*
X254307Y296993D02*
X254941Y296044D01*
X255377Y294990D01*
X255600Y293871D01*
Y293300D01*
X255600Y293300D01*
X255600D01*
Y264800D01*
X253500D01*
X248100Y268700D01*
Y294103D01*
Y294507D01*
X248257Y295298D01*
X248566Y296044D01*
X249015Y296715D01*
X249419Y297119D01*
X249698Y297306D01*
X250009Y297434D01*
X250339Y297500D01*
X253800D01*
X254307Y296993D01*
D02*
G37*
G36*
X137207Y294808D02*
X137642Y294628D01*
X138033Y294366D01*
X138200Y294200D01*
X138200Y294200D01*
X138414Y293986D01*
X138750Y293483D01*
X138982Y292923D01*
X139100Y292330D01*
Y292027D01*
Y274083D01*
Y274016D01*
X139074Y273884D01*
X139022Y273759D01*
X138948Y273648D01*
X138900Y273600D01*
Y273600D01*
X135878Y270578D01*
X135703Y270385D01*
X135414Y269952D01*
X135214Y269471D01*
X135113Y268960D01*
X135100Y268700D01*
Y266814D01*
X135116Y266480D01*
X135247Y265823D01*
X135365Y265539D01*
X135400Y265500D01*
X135400Y265500D01*
X137981Y262919D01*
X138199Y262701D01*
X138543Y262187D01*
X138779Y261615D01*
X138900Y261009D01*
Y260700D01*
Y260343D01*
X138761Y259644D01*
X138488Y258985D01*
X138092Y258391D01*
X137839Y258139D01*
X137839D01*
X137200Y257500D01*
X136500Y258300D01*
Y258413D01*
X136469Y259049D01*
X136221Y260296D01*
X135734Y261471D01*
X135028Y262528D01*
X134600Y263000D01*
X134600Y263000D01*
X134185Y263415D01*
X133816Y263749D01*
X132990Y264301D01*
X132072Y264682D01*
X131097Y264876D01*
X130600Y264900D01*
Y268844D01*
X130582Y269213D01*
X130438Y269935D01*
X130157Y270615D01*
X129747Y271227D01*
X129500Y271500D01*
X129972D01*
X130641Y271533D01*
X131954Y271794D01*
X133191Y272306D01*
X134303Y273050D01*
X134800Y273500D01*
X135205Y273947D01*
X135874Y274949D01*
X136335Y276062D01*
X136570Y277243D01*
X136600Y277846D01*
X136600Y279400D01*
X136650Y279355D01*
X136761Y279281D01*
X136877Y279233D01*
X136500Y284700D01*
X136484Y285031D01*
X136354Y285681D01*
X136101Y286293D01*
X135733Y286844D01*
X135510Y287090D01*
X133449Y289152D01*
X133247Y289353D01*
X132930Y289828D01*
X132711Y290355D01*
X132600Y290915D01*
Y291200D01*
Y292151D01*
Y292353D01*
X132679Y292749D01*
X132833Y293122D01*
X133057Y293457D01*
X133200Y293600D01*
Y293600D01*
X133722Y294122D01*
X133907Y294307D01*
X134342Y294598D01*
X134825Y294798D01*
X135338Y294900D01*
X136745D01*
X137207Y294808D01*
D02*
G37*
G36*
X104642Y296177D02*
X111166D01*
X111364Y296095D01*
X112091Y295609D01*
X112400Y295300D01*
X112400Y295300D01*
X112662Y295038D01*
X113073Y294423D01*
X113356Y293740D01*
X113500Y293014D01*
Y292644D01*
Y292400D01*
Y292043D01*
X113361Y291344D01*
X113088Y290685D01*
X112691Y290091D01*
X112439Y289839D01*
X112439D01*
X111002Y288402D01*
X110732Y288104D01*
X110285Y287435D01*
X109977Y286691D01*
X109820Y285902D01*
X109800Y285500D01*
Y280280D01*
X109823Y279811D01*
X110006Y278892D01*
X110364Y278027D01*
X110885Y277248D01*
X111200Y276900D01*
X111224Y276876D01*
X111261Y276820D01*
X111287Y276758D01*
X111300Y276692D01*
Y276659D01*
Y275800D01*
X109100D01*
X108597Y276303D01*
X108176Y276685D01*
X107231Y277316D01*
X106182Y277750D01*
X105068Y277972D01*
X104500Y278000D01*
X104458Y278852D01*
X104126Y280523D01*
X103474Y282097D01*
X102527Y283514D01*
X101954Y284146D01*
X101954D01*
X101800Y284300D01*
Y291679D01*
Y292183D01*
X101997Y293173D01*
X102383Y294105D01*
X102943Y294943D01*
X103300Y295300D01*
X103609Y295609D01*
X104336Y296095D01*
X104526Y296174D01*
X104606Y296182D01*
X104642Y296177D01*
D02*
G37*
G36*
X45740Y297156D02*
X46423Y296873D01*
X47038Y296462D01*
X47300Y296200D01*
X47561Y295938D01*
X47973Y295323D01*
X48256Y294640D01*
X48400Y293914D01*
Y293544D01*
Y283038D01*
X48421Y282603D01*
X48591Y281750D01*
X48924Y280946D01*
X49408Y280223D01*
X49700Y279900D01*
X49600Y272700D01*
Y274061D01*
X49579Y274497D01*
X49409Y275350D01*
X49076Y276154D01*
X48592Y276877D01*
X48300Y277200D01*
X48300Y277200D01*
X48101Y277380D01*
X47656Y277677D01*
X47161Y277882D01*
X46636Y277987D01*
X46369Y278000D01*
X45629D01*
X45489Y278028D01*
X45357Y278082D01*
X45238Y278162D01*
X45188Y278212D01*
X40900Y282500D01*
Y288610D01*
X40889Y288844D01*
X40797Y289304D01*
X40618Y289737D01*
X40358Y290126D01*
X40200Y290300D01*
X40200Y290300D01*
X40034Y290466D01*
X39772Y290858D01*
X39592Y291293D01*
X39500Y291755D01*
Y291990D01*
Y293744D01*
Y294114D01*
X39644Y294840D01*
X39927Y295523D01*
X40338Y296138D01*
X40600Y296400D01*
X40814Y296614D01*
X41317Y296950D01*
X41877Y297182D01*
X42470Y297300D01*
X45014D01*
X45740Y297156D01*
D02*
G37*
G36*
X103699Y245110D02*
X103922Y244961D01*
X104169Y244859D01*
X104432Y244807D01*
X104566Y244800D01*
X105400D01*
Y238600D01*
X94986D01*
X94260Y238744D01*
X93577Y239027D01*
X92962Y239438D01*
X92700Y239700D01*
X92510Y239890D01*
X92211Y240338D01*
X92005Y240835D01*
X91900Y241362D01*
Y241631D01*
Y242310D01*
Y242545D01*
X91992Y243007D01*
X92172Y243442D01*
X92434Y243834D01*
X92600Y244000D01*
X92885Y244285D01*
X93556Y244734D01*
X94302Y245042D01*
X95094Y245200D01*
X103600D01*
X103699Y245110D01*
D02*
G37*
G36*
X206179Y221605D02*
X207101Y221223D01*
X207932Y220668D01*
X208285Y220315D01*
X214000Y214600D01*
X214357Y214243D01*
X214917Y213404D01*
X215303Y212473D01*
X215500Y211483D01*
Y210979D01*
Y208100D01*
X214700Y207200D01*
X214452Y207425D01*
X213895Y207797D01*
X213277Y208053D01*
X212620Y208184D01*
X212286Y208200D01*
X208100D01*
Y210758D01*
X208052Y211738D01*
X207669Y213661D01*
X206919Y215472D01*
X205830Y217102D01*
X205171Y217829D01*
X205100Y217900D01*
X204678Y218283D01*
X203732Y218915D01*
X202681Y219350D01*
X201565Y219572D01*
X200996Y219600D01*
X198273D01*
X198233Y219608D01*
X195692D01*
X195600Y219700D01*
X197069D01*
X197336Y219713D01*
X197862Y219818D01*
X198356Y220023D01*
X198801Y220320D01*
X199000Y220500D01*
X199309Y220809D01*
X200036Y221295D01*
X200844Y221629D01*
X201589Y221778D01*
X205312D01*
X206179Y221605D01*
D02*
G37*
G36*
X175071Y202829D02*
X175798Y202170D01*
X177428Y201081D01*
X179239Y200331D01*
X181162Y199948D01*
X182142Y199900D01*
X201754D01*
X202357Y199930D01*
X203538Y200165D01*
X204651Y200626D01*
X205653Y201295D01*
X206100Y201700D01*
X206314Y201914D01*
X206817Y202250D01*
X207377Y202482D01*
X207970Y202600D01*
X217848D01*
X217941Y202581D01*
X218029Y202545D01*
X218108Y202492D01*
X218141Y202459D01*
X218500Y202100D01*
X218500D01*
X218191Y201791D01*
X217464Y201305D01*
X216656Y200971D01*
X216035Y200847D01*
X212500D01*
X212264Y200800D01*
X210900D01*
X210379Y200774D01*
X209358Y200571D01*
X208396Y200173D01*
X207531Y199594D01*
X207144Y199244D01*
X205000Y197100D01*
Y197100D01*
X204505Y196554D01*
X203687Y195329D01*
X203123Y193969D01*
X202836Y192525D01*
X202800Y191789D01*
Y191161D01*
X202660Y190100D01*
X202800Y189039D01*
Y187163D01*
X202826Y186627D01*
X203035Y185577D01*
X203445Y184588D01*
X204040Y183697D01*
X204400Y183300D01*
X204685Y183015D01*
X205134Y182344D01*
X205443Y181598D01*
X205600Y180807D01*
Y180403D01*
Y178300D01*
X198100Y178000D01*
Y188706D01*
X198061Y189509D01*
X197747Y191085D01*
X197132Y192569D01*
X196240Y193904D01*
X195700Y194500D01*
X195700Y194500D01*
X195377Y194792D01*
X194654Y195276D01*
X193850Y195609D01*
X192997Y195779D01*
X192561Y195800D01*
X176957D01*
X175025Y196184D01*
X173205Y196938D01*
X171567Y198032D01*
X170871Y198729D01*
X166600Y203000D01*
Y203010D01*
Y203245D01*
X166692Y203707D01*
X166872Y204142D01*
X167133Y204534D01*
X167300Y204700D01*
X168198Y205598D01*
Y205598D01*
X168484Y205884D01*
X169156Y206333D01*
X169903Y206642D01*
X170696Y206800D01*
X171100D01*
X175071Y202829D01*
D02*
G37*
G36*
X282400Y200741D02*
X282402Y200708D01*
X282415Y200642D01*
X282440Y200581D01*
X282477Y200525D01*
X282500Y200500D01*
X282500D01*
X282500Y200500D01*
X282500Y200500D01*
X274994D01*
X274191Y200461D01*
X272616Y200147D01*
X271131Y199532D01*
X269796Y198640D01*
X269200Y198100D01*
X269200D01*
X266202Y195102D01*
X265916Y194816D01*
X265244Y194367D01*
X264497Y194058D01*
X263704Y193900D01*
X232895D01*
X231246Y194228D01*
X229692Y194871D01*
X228294Y195806D01*
X228084Y196016D01*
X227881Y196281D01*
X227560Y196527D01*
X227402Y196670D01*
X227181Y196818D01*
X226920Y197018D01*
X226818Y197060D01*
X226734Y197116D01*
X225992Y197424D01*
X225893Y197443D01*
X225801Y197482D01*
X225504Y197521D01*
X225204Y197580D01*
X224960Y197592D01*
X224600Y197640D01*
X224299Y197600D01*
X215180D01*
X214711Y197577D01*
X213792Y197394D01*
X212927Y197036D01*
X212148Y196515D01*
X211800Y196200D01*
X211440Y195803D01*
X210845Y194912D01*
X210435Y193923D01*
X210226Y192873D01*
X210200Y192337D01*
Y190000D01*
X204400Y190200D01*
Y190771D01*
X204623Y191890D01*
X205059Y192945D01*
X205694Y193894D01*
X206097Y194297D01*
X206097Y194297D01*
X209500Y197700D01*
X209857Y198057D01*
X210696Y198617D01*
X211628Y199003D01*
X212371Y199151D01*
X226799D01*
X226949Y199121D01*
X227322Y198967D01*
X227657Y198743D01*
X227800Y198600D01*
X227800Y198600D01*
X230193Y196207D01*
X230368Y196048D01*
X230762Y195785D01*
X231199Y195604D01*
X231663Y195512D01*
X231900Y195500D01*
X231954D01*
X232200Y195451D01*
X260200D01*
X260446Y195500D01*
X260713D01*
X261349Y195531D01*
X262596Y195779D01*
X263771Y196266D01*
X264828Y196973D01*
X265300Y197400D01*
X265300D01*
X272971Y205071D01*
X273668Y205767D01*
X275305Y206862D01*
X277125Y207616D01*
X279057Y208000D01*
X282400D01*
Y200741D01*
D02*
G37*
G36*
X147500Y271542D02*
X147548Y270562D01*
X147931Y268639D01*
X148681Y266828D01*
X149770Y265198D01*
X150429Y264471D01*
X165149Y249751D01*
X165637Y249263D01*
X166403Y248116D01*
X166931Y246842D01*
X167200Y245490D01*
Y244800D01*
Y242742D01*
X167248Y241762D01*
X167631Y239839D01*
X168381Y238028D01*
X169470Y236398D01*
X170129Y235671D01*
X171300Y234500D01*
X171772Y234072D01*
X172829Y233366D01*
X174004Y232879D01*
X175251Y232631D01*
X175887Y232600D01*
X214143D01*
X216075Y232216D01*
X217895Y231462D01*
X219532Y230367D01*
X220229Y229671D01*
X220229Y229671D01*
X227371Y222529D01*
X228098Y221870D01*
X229728Y220781D01*
X231539Y220031D01*
X233462Y219648D01*
X234442Y219600D01*
X249536D01*
X250922Y219324D01*
X252226Y218784D01*
X253401Y217999D01*
X253900Y217500D01*
X253900Y217500D01*
X254280Y217120D01*
X254878Y216225D01*
X255290Y215231D01*
X255500Y214175D01*
Y213637D01*
Y209200D01*
X255450Y209245D01*
X255339Y209319D01*
X255215Y209371D01*
X255084Y209397D01*
X255017Y209400D01*
X248100D01*
Y212086D01*
X248084Y212420D01*
X247953Y213077D01*
X247697Y213695D01*
X247325Y214252D01*
X247100Y214500D01*
X246333Y215266D01*
X245754Y215792D01*
X244456Y216659D01*
X243013Y217257D01*
X241481Y217562D01*
X240700Y217600D01*
X231433D01*
X230311Y217823D01*
X229255Y218261D01*
X228304Y218896D01*
X227900Y219300D01*
X227900Y219300D01*
X217590Y229610D01*
X217344Y229833D01*
X216793Y230201D01*
X216181Y230454D01*
X216157Y230459D01*
X215979Y230533D01*
X215300Y230622D01*
X215300Y230622D01*
X175444D01*
X173625Y230984D01*
X171805Y231738D01*
X170194Y232815D01*
X167515Y235494D01*
X166438Y237105D01*
X165684Y238925D01*
X165300Y240857D01*
Y241842D01*
Y242558D01*
X165252Y243538D01*
X164869Y245461D01*
X164119Y247272D01*
X163030Y248902D01*
X162371Y249629D01*
X162371Y249629D01*
X150129Y261871D01*
X149402Y262530D01*
X147772Y263619D01*
X145961Y264369D01*
X144038Y264752D01*
X143058Y264800D01*
X142900D01*
Y268403D01*
X142880Y268805D01*
X142724Y269592D01*
X142416Y270334D01*
X141970Y271002D01*
X141700Y271300D01*
X141700Y271300D01*
Y275117D01*
Y275184D01*
X141726Y275316D01*
X141778Y275441D01*
X141852Y275552D01*
X141900Y275600D01*
X141900D01*
X147500Y280000D01*
Y271542D01*
D02*
G37*
G36*
Y257242D02*
X147547Y256286D01*
X147920Y254409D01*
X148652Y252642D01*
X149715Y251051D01*
X150358Y250342D01*
Y250342D01*
X164288Y236412D01*
X164346Y236337D01*
X170937Y229746D01*
X170937Y229746D01*
X171480Y229329D01*
X172112Y229067D01*
X172791Y228978D01*
X172791Y228978D01*
X213335D01*
X213882Y228869D01*
X214503Y228611D01*
X215062Y228238D01*
X215300Y228000D01*
X215609D01*
X216215Y227879D01*
X216787Y227643D01*
X217301Y227299D01*
X217519Y227081D01*
X227357Y217244D01*
X227690Y216941D01*
X228438Y216442D01*
X228664Y216348D01*
X228689Y216329D01*
X228874Y216252D01*
X229321Y216067D01*
X229620Y216028D01*
X230150Y215922D01*
X230600Y215900D01*
X238252D01*
X239505Y215651D01*
X240686Y215162D01*
X241748Y214452D01*
X242200Y214000D01*
X242200Y214000D01*
X243661Y212539D01*
X244099Y212101D01*
X244786Y211073D01*
X245259Y209931D01*
X245500Y208718D01*
Y208100D01*
X238341D01*
X238308Y208098D01*
X238242Y208085D01*
X238180Y208060D01*
X238125Y208022D01*
X238100Y208000D01*
Y208000D01*
X238100D01*
X238100Y208000D01*
Y210161D01*
X238079Y210597D01*
X237909Y211450D01*
X237576Y212254D01*
X237092Y212977D01*
X236800Y213300D01*
X236651Y213435D01*
X236317Y213658D01*
X235946Y213812D01*
X235552Y213890D01*
X235351Y213900D01*
X232144D01*
X231799Y213945D01*
X231455Y213900D01*
X230371D01*
X228920Y214189D01*
X227553Y214755D01*
X226323Y215577D01*
X225800Y216100D01*
X215961Y225939D01*
X215697Y226178D01*
X215107Y226572D01*
X214451Y226844D01*
X213755Y226983D01*
X213400Y227000D01*
X212370D01*
X212200Y227022D01*
X212200Y227022D01*
X173892D01*
X172166Y227366D01*
X170434Y228083D01*
X168875Y229125D01*
X168212Y229787D01*
X168212D01*
X162329Y235671D01*
X161602Y236330D01*
X159972Y237419D01*
X158161Y238169D01*
X156238Y238552D01*
X155258Y238600D01*
X144272D01*
X143432Y238767D01*
X142642Y239095D01*
X141930Y239570D01*
X141627Y239873D01*
X141271Y240229D01*
X141254Y240246D01*
X141227Y240286D01*
X141209Y240330D01*
X141200Y240376D01*
Y240400D01*
X141492Y240723D01*
X141976Y241446D01*
X142309Y242250D01*
X142479Y243103D01*
X142500Y243538D01*
Y257800D01*
X147500Y257900D01*
Y257242D01*
D02*
G37*
G36*
X162486Y230970D02*
X163101Y230715D01*
X163655Y230345D01*
X163890Y230110D01*
X166700Y227300D01*
X167172Y226872D01*
X168229Y226166D01*
X169404Y225679D01*
X170651Y225431D01*
X171036Y225412D01*
X171300Y225378D01*
X171300Y225378D01*
X209456D01*
X211275Y225016D01*
X213095Y224262D01*
X214733Y223167D01*
X215429Y222471D01*
X222571Y215329D01*
X222571Y215329D01*
X223268Y214633D01*
X224362Y212995D01*
X225116Y211175D01*
X225500Y209243D01*
Y208258D01*
Y208100D01*
Y208100D01*
X225476Y208076D01*
X225420Y208039D01*
X225358Y208013D01*
X225292Y208000D01*
X218100D01*
Y212264D01*
X218059Y213101D01*
X217733Y214742D01*
X217092Y216288D01*
X216162Y217679D01*
X215600Y218300D01*
X213429Y220471D01*
X213429Y220471D01*
X212702Y221130D01*
X211072Y222219D01*
X209261Y222969D01*
X207338Y223352D01*
X206358Y223400D01*
X205377D01*
X205200Y223423D01*
X169588D01*
X168540Y223632D01*
X167441Y224087D01*
X166453Y224747D01*
X166032Y225168D01*
X162300Y228900D01*
X162300Y228900D01*
X162002Y229170D01*
X161334Y229616D01*
X160592Y229924D01*
X159804Y230080D01*
X159403Y230100D01*
X158417D01*
X158372Y230109D01*
X157134D01*
X156900Y230140D01*
X156666Y230109D01*
X154992D01*
D01*
X154992D01*
X154948Y230100D01*
X151380D01*
X150911Y230077D01*
X149992Y229894D01*
X149127Y229536D01*
X148348Y229015D01*
X148000Y228700D01*
X147865Y228551D01*
X147642Y228217D01*
X147488Y227846D01*
X147410Y227452D01*
X147400Y227252D01*
Y222500D01*
X142700Y222800D01*
Y228003D01*
Y228407D01*
X142857Y229198D01*
X143166Y229944D01*
X143615Y230615D01*
X143900Y230900D01*
X143948Y230948D01*
X144059Y231022D01*
X144184Y231074D01*
X144316Y231100D01*
X161833D01*
X162486Y230970D01*
D02*
G37*
G36*
X49613Y214940D02*
X49714Y214429D01*
X49914Y213948D01*
X50203Y213515D01*
X50378Y213322D01*
X51800Y211900D01*
Y211218D01*
Y210310D01*
X51446Y208529D01*
X50751Y206852D01*
X49742Y205342D01*
X49100Y204700D01*
X48740Y204303D01*
X48145Y203412D01*
X47735Y202423D01*
X47526Y201373D01*
X47500Y200837D01*
Y198000D01*
X42200Y203700D01*
Y203976D01*
Y204077D01*
X42239Y204275D01*
X42317Y204461D01*
X42429Y204629D01*
X42500Y204700D01*
X43737D01*
X44273Y204726D01*
X45323Y204935D01*
X46312Y205345D01*
X47203Y205940D01*
X47600Y206300D01*
X48050Y206797D01*
X48794Y207909D01*
X49306Y209146D01*
X49567Y210459D01*
X49600Y211128D01*
Y215200D01*
X49613Y214940D01*
D02*
G37*
G36*
X26612Y206259D02*
X28228Y205590D01*
X29682Y204618D01*
X30300Y204000D01*
X30300Y204000D01*
X30971Y203329D01*
X31668Y202632D01*
X32762Y200995D01*
X33516Y199175D01*
X33900Y197243D01*
Y196258D01*
Y187800D01*
X27900Y187900D01*
Y188893D01*
Y189061D01*
X27966Y189391D01*
X28094Y189701D01*
X28281Y189981D01*
X28400Y190100D01*
X28558Y190274D01*
X28818Y190663D01*
X28997Y191096D01*
X29089Y191556D01*
X29100Y191790D01*
Y194354D01*
X29070Y194957D01*
X28835Y196138D01*
X28374Y197251D01*
X27705Y198253D01*
X27300Y198700D01*
X27176Y198812D01*
X26898Y198998D01*
X26588Y199127D01*
X26260Y199192D01*
X26093Y199200D01*
X22000D01*
Y206600D01*
X24897D01*
X26612Y206259D01*
D02*
G37*
G36*
X42975Y218852D02*
X42603Y218295D01*
X42347Y217677D01*
X42216Y217020D01*
X42200Y216686D01*
Y212500D01*
X41897D01*
X41495Y212480D01*
X40708Y212324D01*
X39966Y212016D01*
X39298Y211570D01*
X39000Y211300D01*
X38798Y211077D01*
X38463Y210576D01*
X38232Y210019D01*
X38115Y209428D01*
X38100Y209127D01*
Y184014D01*
Y183678D01*
X37969Y183018D01*
X37728Y182437D01*
X35900Y180609D01*
X35187Y180133D01*
X33696Y179515D01*
X32113Y179200D01*
X21500D01*
X21100Y186500D01*
X21100D01*
X21148Y186548D01*
X21259Y186622D01*
X21384Y186674D01*
X21516Y186700D01*
X23161D01*
X24653Y186403D01*
X26059Y185821D01*
X27325Y184975D01*
X27863Y184437D01*
X27900Y184400D01*
X27900Y184400D01*
X28148Y184175D01*
X28705Y183803D01*
X29323Y183547D01*
X29980Y183416D01*
X30314Y183400D01*
X30599D01*
X30900Y183360D01*
X31201Y183400D01*
X31561D01*
X31997Y183421D01*
X32850Y183591D01*
X33654Y183924D01*
X34377Y184407D01*
X34700Y184700D01*
X34925Y184948D01*
X35297Y185505D01*
X35553Y186123D01*
X35684Y186779D01*
X35700Y187114D01*
Y214886D01*
Y215222D01*
X35831Y215882D01*
X36089Y216503D01*
X36462Y217062D01*
X36700Y217300D01*
X37128Y217728D01*
X38135Y218401D01*
X39253Y218864D01*
X40440Y219100D01*
X43200D01*
X42975Y218852D01*
D02*
G37*
G36*
X124849Y184921D02*
X125222Y184767D01*
X125557Y184543D01*
X125700Y184400D01*
X125700Y184352D01*
X125681Y184259D01*
X125645Y184171D01*
X125592Y184092D01*
X125559Y184059D01*
X125559D01*
X125500Y184000D01*
X125338D01*
X124903Y183979D01*
X124050Y183809D01*
X123246Y183476D01*
X122523Y182992D01*
X122200Y182700D01*
Y182700D01*
X114512Y175012D01*
X114464Y174960D01*
X114385Y174841D01*
X114331Y174710D01*
X114304Y174571D01*
X114300Y174500D01*
X113242D01*
X112262Y174452D01*
X110339Y174069D01*
X108528Y173319D01*
X106898Y172230D01*
X106171Y171571D01*
Y171571D01*
X103775Y169175D01*
X103218Y168561D01*
X102298Y167183D01*
X101664Y165653D01*
X101341Y164028D01*
X101300Y163200D01*
X100039D01*
X99709Y163266D01*
X99398Y163394D01*
X99119Y163581D01*
X99000Y163700D01*
X96600Y169800D01*
X98489D01*
X99225Y169836D01*
X100669Y170123D01*
X102030Y170687D01*
X103254Y171505D01*
X103800Y172000D01*
X103800D01*
X106286Y174486D01*
X106604Y174837D01*
X107130Y175624D01*
X107492Y176498D01*
X107677Y177427D01*
X107700Y177900D01*
X108434Y177936D01*
X109872Y178222D01*
X111228Y178784D01*
X112448Y179599D01*
X112992Y180092D01*
X112992D01*
X114000Y181100D01*
X115779D01*
X116281Y181125D01*
X117265Y181321D01*
X118193Y181705D01*
X119028Y182263D01*
X119400Y182600D01*
Y182600D01*
X120881Y184081D01*
X121099Y184299D01*
X121613Y184643D01*
X122185Y184879D01*
X122791Y185000D01*
X124453D01*
X124849Y184921D01*
D02*
G37*
G36*
X282400Y190600D02*
X280421D01*
X279919Y190575D01*
X278935Y190380D01*
X278007Y189995D01*
X277172Y189437D01*
X276800Y189100D01*
X276529Y188829D01*
Y188829D01*
X275870Y188102D01*
X274781Y186472D01*
X274031Y184661D01*
X273648Y182738D01*
X273600Y181758D01*
Y150853D01*
Y150079D01*
X273298Y148562D01*
X272706Y147133D01*
X271847Y145847D01*
X271062Y145062D01*
X270503Y144689D01*
X269882Y144431D01*
X269222Y144300D01*
X265400D01*
X262591Y150480D01*
X262862Y150900D01*
X263423D01*
X264293Y150943D01*
X266000Y151282D01*
X267608Y151948D01*
X269055Y152915D01*
X269700Y153500D01*
X270060Y153897D01*
X270655Y154788D01*
X271065Y155777D01*
X271274Y156827D01*
X271300Y157363D01*
Y183799D01*
X271340Y184100D01*
X271308Y184340D01*
Y184703D01*
X271300Y184743D01*
Y187343D01*
X271684Y189275D01*
X272438Y191095D01*
X273533Y192733D01*
X277100Y196300D01*
X277100D01*
X277100Y196300D01*
X277504Y196704D01*
X278455Y197339D01*
X279511Y197777D01*
X280632Y198000D01*
X282400D01*
Y190600D01*
D02*
G37*
G36*
X226771Y194929D02*
X227498Y194270D01*
X227522Y194254D01*
X228806Y192970D01*
X229600Y192439D01*
X229756Y192408D01*
X230537Y192253D01*
X231832D01*
X232862Y192048D01*
X233842Y192000D01*
X260043D01*
X261975Y191616D01*
X263795Y190862D01*
X265433Y189768D01*
X266129Y189071D01*
X268851Y186348D01*
X269053Y186147D01*
X269370Y185672D01*
X269589Y185145D01*
X269677Y184703D01*
Y184277D01*
X267012Y181612D01*
Y181612D01*
X266964Y181560D01*
X266885Y181441D01*
X266831Y181310D01*
X266804Y181171D01*
X266800Y181100D01*
X265992D01*
X264406Y181415D01*
X262912Y182034D01*
X261567Y182932D01*
X260996Y183504D01*
X256400Y188100D01*
X256400Y188100D01*
X255928Y188528D01*
X254871Y189234D01*
X253696Y189721D01*
X252449Y189969D01*
X251813Y190000D01*
X224218D01*
X223656Y190112D01*
X223127Y190331D01*
X222651Y190649D01*
X222448Y190851D01*
X222247Y191053D01*
X221930Y191528D01*
X221711Y192055D01*
X221600Y192615D01*
Y192900D01*
X224100Y194500D01*
Y194500D01*
X224219Y194619D01*
X224499Y194806D01*
X224809Y194934D01*
X225139Y195000D01*
X226700D01*
X226771Y194929D01*
D02*
G37*
G36*
X137275Y226798D02*
X137758Y226598D01*
X138193Y226307D01*
X138378Y226122D01*
X138378D01*
X138900Y225600D01*
Y222790D01*
Y222555D01*
X138808Y222093D01*
X138628Y221658D01*
X138366Y221266D01*
X138200Y221100D01*
X138200D01*
X135702Y218602D01*
X135432Y218304D01*
X134985Y217635D01*
X134677Y216891D01*
X134520Y216102D01*
X134500Y215700D01*
Y212256D01*
X134518Y211888D01*
X134662Y211165D01*
X134943Y210485D01*
X135353Y209873D01*
X135600Y209600D01*
X135600Y209600D01*
X135749Y209465D01*
X136083Y209242D01*
X136425Y209100D01*
X147000D01*
X147331Y209116D01*
X147981Y209245D01*
X148593Y209499D01*
X149144Y209867D01*
X149390Y210090D01*
X154600Y215300D01*
Y215300D01*
X155266Y215966D01*
X156832Y217012D01*
X158571Y217733D01*
X160418Y218100D01*
X164022D01*
X164095Y218070D01*
X164800Y217977D01*
X198233D01*
X199196Y217785D01*
X200687Y217167D01*
X202029Y216271D01*
X202600Y215700D01*
X203025Y215275D01*
X203025D01*
X203614Y214686D01*
X204538Y213302D01*
X205175Y211765D01*
X205500Y210132D01*
Y209300D01*
Y206314D01*
Y205978D01*
X205369Y205318D01*
X205111Y204697D01*
X204738Y204138D01*
X204500Y203900D01*
X204167Y203567D01*
X203384Y203044D01*
X202514Y202684D01*
X201591Y202500D01*
X183426D01*
X181513Y202881D01*
X179711Y203627D01*
X178090Y204710D01*
X177400Y205400D01*
X170329Y212471D01*
X170329Y212471D01*
X169602Y213130D01*
X167972Y214219D01*
X166161Y214969D01*
X164238Y215352D01*
X163258Y215400D01*
X160180D01*
X159711Y215377D01*
X158792Y215194D01*
X157927Y214836D01*
X157148Y214315D01*
X156800Y214000D01*
X154587Y211787D01*
X154587Y211787D01*
X153982Y211120D01*
X152983Y209625D01*
X152295Y207963D01*
X151944Y206199D01*
X151900Y205300D01*
Y199380D01*
Y198909D01*
X151716Y197986D01*
X151356Y197116D01*
X150833Y196333D01*
X150500Y196000D01*
X150029Y195529D01*
X150029D01*
X149332Y194833D01*
X147695Y193738D01*
X145875Y192984D01*
X143943Y192600D01*
X119721D01*
X119219Y192575D01*
X118235Y192379D01*
X117307Y191995D01*
X116472Y191437D01*
X116100Y191100D01*
X114078Y189078D01*
X113893Y188893D01*
X113458Y188602D01*
X112975Y188402D01*
X112462Y188300D01*
X92578D01*
X91918Y188431D01*
X91297Y188689D01*
X90738Y189062D01*
X90500Y189300D01*
X90500Y189300D01*
X90167Y189633D01*
X89644Y190416D01*
X89284Y191286D01*
X89100Y192209D01*
Y192680D01*
Y204927D01*
X89085Y205228D01*
X88968Y205819D01*
X88737Y206376D01*
X88402Y206877D01*
X88200Y207100D01*
X87977Y207302D01*
X87476Y207637D01*
X86919Y207868D01*
X86328Y207985D01*
X86027Y208000D01*
X79307D01*
X79140Y207992D01*
X78812Y207927D01*
X78502Y207798D01*
X78224Y207612D01*
X78224Y207612D01*
X78174Y207557D01*
X78090Y207432D01*
X78033Y207294D01*
X78004Y207146D01*
X78000Y207071D01*
Y204200D01*
X77363Y204837D01*
X77191Y204766D01*
X76861Y204700D01*
X75600D01*
Y210086D01*
X75584Y210420D01*
X75453Y211077D01*
X75197Y211695D01*
X74825Y212252D01*
X74600Y212500D01*
X74600Y212500D01*
X74476Y212613D01*
X74198Y212798D01*
X73888Y212927D01*
X73560Y212992D01*
X73393Y213000D01*
X72300D01*
X72300Y213000D01*
Y213000D01*
X72300D01*
X72322Y213025D01*
X72360Y213081D01*
X72385Y213142D01*
X72398Y213208D01*
X72400Y213241D01*
Y219500D01*
X72586D01*
X72920Y219516D01*
X73577Y219647D01*
X74195Y219903D01*
X74752Y220275D01*
X75000Y220500D01*
X75135Y220649D01*
X75358Y220983D01*
X75512Y221354D01*
X75590Y221748D01*
X75600Y221949D01*
Y223700D01*
X75600D01*
X75648Y223748D01*
X75759Y223822D01*
X75884Y223874D01*
X76016Y223900D01*
X76400D01*
X76661Y223638D01*
X77073Y223023D01*
X77356Y222340D01*
X77500Y221614D01*
Y221244D01*
Y211866D01*
X77507Y211732D01*
X77559Y211469D01*
X77661Y211222D01*
X77810Y210999D01*
X77900Y210900D01*
X78024Y210788D01*
X78302Y210602D01*
X78612Y210473D01*
X78940Y210408D01*
X79107Y210400D01*
X80900D01*
X80408Y209600D01*
X87069D01*
X87333Y209547D01*
X87581Y209445D01*
X87805Y209295D01*
X87900Y209200D01*
X87900Y209200D01*
X91305Y205795D01*
X91423Y205677D01*
X91608Y205400D01*
X91735Y205093D01*
X91800Y204766D01*
Y204600D01*
Y201300D01*
X91839Y200495D01*
X92153Y198917D01*
X92769Y197431D01*
X93663Y196093D01*
X94204Y195496D01*
Y195496D01*
X94700Y195000D01*
X95196Y194550D01*
X96310Y193806D01*
X97546Y193294D01*
X98859Y193033D01*
X99528Y193000D01*
X110927D01*
X111228Y193015D01*
X111819Y193132D01*
X112376Y193363D01*
X112877Y193698D01*
X113100Y193900D01*
X113505Y194347D01*
X114174Y195349D01*
X114635Y196462D01*
X114870Y197643D01*
X114900Y198246D01*
Y199600D01*
X118769Y203469D01*
X119038Y203738D01*
X119670Y204160D01*
X120373Y204451D01*
X121120Y204600D01*
X121500D01*
X122234Y204636D01*
X123672Y204922D01*
X125028Y205484D01*
X126248Y206299D01*
X126792Y206792D01*
X126792D01*
X126800Y206800D01*
X127048Y207073D01*
X127456Y207685D01*
X127738Y208365D01*
X127882Y209087D01*
X127900Y209456D01*
Y213500D01*
X128260Y213897D01*
X128855Y214788D01*
X129265Y215777D01*
X129474Y216827D01*
X129500Y217363D01*
Y219100D01*
X130354D01*
X130957Y219130D01*
X132138Y219365D01*
X133251Y219826D01*
X134253Y220495D01*
X134700Y220900D01*
X135105Y221347D01*
X135774Y222349D01*
X136235Y223462D01*
X136470Y224643D01*
X136500Y225246D01*
Y226900D01*
X136762D01*
X137275Y226798D01*
D02*
G37*
G36*
X282577Y227975D02*
X282540Y227920D01*
X282515Y227858D01*
X282502Y227792D01*
X282500Y227759D01*
Y220600D01*
X281554Y220553D01*
X279697Y220184D01*
X277948Y219460D01*
X276374Y218408D01*
X275672Y217772D01*
X259100Y201200D01*
X259100D01*
X258981Y201081D01*
X258701Y200894D01*
X258391Y200766D01*
X258061Y200700D01*
X235120D01*
X234373Y200848D01*
X233670Y201140D01*
X233038Y201562D01*
X232769Y201831D01*
X229302Y205298D01*
X229016Y205584D01*
X228567Y206256D01*
X228258Y207003D01*
X228100Y207796D01*
Y208200D01*
X231799Y208299D01*
X235015D01*
X235082Y208302D01*
X235214Y208329D01*
X235338Y208380D01*
X235450Y208455D01*
X235500Y208500D01*
X235500Y205856D01*
X235518Y205487D01*
X235662Y204765D01*
X235944Y204085D01*
X236352Y203473D01*
X236600Y203200D01*
X236724Y203087D01*
X237002Y202902D01*
X237312Y202773D01*
X237640Y202708D01*
X237807Y202700D01*
X241443D01*
X241799Y202653D01*
X242156Y202700D01*
X247888D01*
X248049Y202668D01*
X255549D01*
X255711Y202700D01*
X255762D01*
X256197Y202721D01*
X257050Y202891D01*
X257854Y203224D01*
X258577Y203708D01*
X258900Y204000D01*
X259260Y204397D01*
X259855Y205288D01*
X260265Y206277D01*
X260474Y207327D01*
X260500Y207863D01*
Y208100D01*
Y208362D01*
X260602Y208875D01*
X260802Y209358D01*
X261093Y209793D01*
X261278Y209978D01*
X276967Y225667D01*
Y225666D01*
X277521Y226221D01*
X278826Y227093D01*
X280276Y227694D01*
X281815Y228000D01*
X282600D01*
X282577Y227975D01*
D02*
G37*
G36*
X238149Y231021D02*
X238522Y230867D01*
X238857Y230643D01*
X239000Y230500D01*
X239000Y230500D01*
X238600Y224500D01*
X229593D01*
X228802Y224657D01*
X228056Y224966D01*
X227385Y225415D01*
X227100Y225700D01*
X226934Y225866D01*
X226672Y226258D01*
X226492Y226693D01*
X226400Y227155D01*
Y227390D01*
Y228310D01*
Y228545D01*
X226492Y229007D01*
X226672Y229442D01*
X226934Y229834D01*
X227100Y230000D01*
Y230000D01*
X227564Y230464D01*
X227715Y230615D01*
X228071Y230853D01*
X228466Y231016D01*
X228886Y231100D01*
X237753D01*
X238149Y231021D01*
D02*
G37*
G36*
X255500Y238300D02*
Y224900D01*
X255000Y224400D01*
X252900Y226500D01*
X251100D01*
X248400Y228300D01*
Y238600D01*
X249800Y240000D01*
X253800D01*
X255500Y238300D01*
D02*
G37*
G36*
X235500Y268700D02*
Y266042D01*
X235548Y265062D01*
X235931Y263139D01*
X236681Y261328D01*
X237770Y259698D01*
X238429Y258971D01*
X242271Y255129D01*
X242998Y254470D01*
X244628Y253381D01*
X246439Y252631D01*
X248362Y252248D01*
X249342Y252200D01*
X255743D01*
X257675Y251816D01*
X259495Y251062D01*
X261133Y249968D01*
X261829Y249271D01*
X270171Y240929D01*
X270898Y240270D01*
X272528Y239181D01*
X274339Y238431D01*
X276262Y238048D01*
X277242Y238000D01*
X281610D01*
X282100Y238000D01*
X282370Y237619D01*
X282448Y237433D01*
X282500Y237169D01*
Y230600D01*
X280157D01*
X278225Y230984D01*
X276405Y231738D01*
X274767Y232833D01*
X274071Y233529D01*
X261129Y246471D01*
X261129Y246471D01*
X260402Y247130D01*
X258772Y248219D01*
X256961Y248969D01*
X255038Y249352D01*
X254058Y249400D01*
X247557D01*
X245625Y249784D01*
X243805Y250538D01*
X242167Y251632D01*
X241471Y252329D01*
X230292Y263508D01*
X229771Y264029D01*
X228952Y265255D01*
X228388Y266617D01*
X228100Y268063D01*
Y268444D01*
X228456Y268795D01*
X235500Y268700D01*
D02*
G37*
G36*
X75600Y235800D02*
Y236893D01*
X75592Y237060D01*
X75526Y237388D01*
X75398Y237698D01*
X75213Y237976D01*
X75100Y238100D01*
X75001Y238190D01*
X74778Y238339D01*
X74531Y238441D01*
X74268Y238493D01*
X74134Y238500D01*
X73000Y238500D01*
X72952Y238548D01*
X72878Y238659D01*
X72826Y238784D01*
X72800Y238916D01*
Y238983D01*
Y245200D01*
X73510D01*
X73744Y245212D01*
X74204Y245303D01*
X74637Y245482D01*
X75026Y245743D01*
X75200Y245900D01*
X75290Y245999D01*
X75439Y246222D01*
X75541Y246469D01*
X75593Y246732D01*
X75600Y246866D01*
Y249000D01*
X76400D01*
X75600Y235800D01*
D02*
G37*
G36*
X136957Y247783D02*
X137517Y246944D01*
X137903Y246012D01*
X138100Y245022D01*
Y244518D01*
Y243839D01*
X138148Y243792D01*
X138222Y243680D01*
X138274Y243556D01*
X138300Y243424D01*
Y243356D01*
Y234739D01*
X136500Y235039D01*
Y236149D01*
X136488Y236384D01*
X136397Y236843D01*
X136218Y237276D01*
X135958Y237666D01*
X135800Y237839D01*
X135626Y237997D01*
X135237Y238257D01*
X134804Y238437D01*
X134344Y238528D01*
X134110Y238539D01*
X133600D01*
X133361Y238779D01*
X133108Y239031D01*
X132712Y239624D01*
X132439Y240283D01*
X132300Y240983D01*
Y241339D01*
X132570Y241637D01*
X133016Y242305D01*
X133324Y243047D01*
X133480Y243835D01*
X133500Y244236D01*
Y245239D01*
X134210D01*
X134444Y245251D01*
X134904Y245342D01*
X135337Y245522D01*
X135726Y245782D01*
X135900Y245939D01*
X135900D01*
X136134Y246174D01*
X136239Y246289D01*
X136412Y246549D01*
X136531Y246836D01*
X136592Y247142D01*
X136600Y247298D01*
Y248139D01*
X136957Y247783D01*
D02*
G37*
G36*
X219148Y257799D02*
X221075Y257416D01*
X222895Y256662D01*
X224533Y255568D01*
X225229Y254871D01*
X225229Y254871D01*
X232571Y247529D01*
X233267Y246832D01*
X234362Y245195D01*
X235116Y243375D01*
X235500Y241443D01*
Y238600D01*
X228556Y238505D01*
X228200Y238856D01*
Y244258D01*
X228152Y245238D01*
X227769Y247161D01*
X227019Y248972D01*
X225930Y250602D01*
X225271Y251329D01*
X225271Y251329D01*
X221168Y255432D01*
X220729Y255830D01*
X219745Y256487D01*
X218652Y256940D01*
X217608Y257148D01*
X217413Y257430D01*
X217338Y257679D01*
X217408Y257800D01*
X219140D01*
X219148Y257799D01*
D02*
G37*
G36*
X94940Y231956D02*
X95623Y231673D01*
X96238Y231261D01*
X96500Y231000D01*
X96500Y231000D01*
X96643Y230857D01*
X96867Y230522D01*
X97021Y230149D01*
X97100Y229753D01*
Y229552D01*
Y228400D01*
Y228162D01*
X97007Y227696D01*
X96825Y227256D01*
X96561Y226861D01*
X96393Y226693D01*
X95800Y226100D01*
Y226100D01*
X95610Y225910D01*
X95162Y225611D01*
X94665Y225405D01*
X94138Y225300D01*
X90597D01*
X90196Y225280D01*
X89408Y225124D01*
X88666Y224816D01*
X87998Y224370D01*
X87700Y224100D01*
X87407Y223777D01*
X86924Y223054D01*
X86591Y222250D01*
X86421Y221397D01*
X86400Y220961D01*
Y215500D01*
X81500Y214300D01*
X81500Y214300D01*
X81096Y214704D01*
X80461Y215655D01*
X80023Y216711D01*
X79800Y217832D01*
Y218404D01*
Y228900D01*
X80392Y228929D01*
X81552Y229160D01*
X82645Y229613D01*
X83629Y230270D01*
X84068Y230668D01*
X85500Y232100D01*
X94214D01*
X94940Y231956D01*
D02*
G37*
G36*
X158872Y228270D02*
X159347Y227953D01*
X159548Y227751D01*
X164439Y222861D01*
X164703Y222622D01*
X165293Y222228D01*
X165949Y221956D01*
X166645Y221817D01*
X167000Y221800D01*
X168029D01*
X168200Y221778D01*
X168200Y221778D01*
X168797D01*
X168816Y221774D01*
X168941Y221722D01*
X169052Y221648D01*
X169100Y221600D01*
X167025Y219624D01*
X164785D01*
X164308Y219687D01*
X164261Y219684D01*
X164022Y219731D01*
X160418D01*
X160261Y219700D01*
X160100D01*
X159719Y219624D01*
X157800D01*
X157616Y219600D01*
X156178D01*
X155518Y219731D01*
X154897Y219989D01*
X154338Y220362D01*
X154100Y220600D01*
X153838Y220862D01*
X153427Y221477D01*
X153144Y222160D01*
X153000Y222886D01*
Y223256D01*
Y225627D01*
Y225930D01*
X153118Y226523D01*
X153350Y227083D01*
X153686Y227586D01*
X153900Y227800D01*
X154090Y227990D01*
X154538Y228289D01*
X154992Y228478D01*
X158372D01*
X158872Y228270D01*
D02*
G37*
G36*
X110998Y216402D02*
X110998Y216402D01*
X111284Y216116D01*
X111733Y215444D01*
X112042Y214697D01*
X112200Y213904D01*
Y213500D01*
Y209811D01*
Y209071D01*
X111911Y207620D01*
X111345Y206253D01*
X110523Y205023D01*
X110000Y204500D01*
X109662Y204128D01*
X109105Y203293D01*
X108721Y202365D01*
X108525Y201381D01*
X108500Y200879D01*
Y198000D01*
X100156D01*
X98837Y198262D01*
X97594Y198777D01*
X96475Y199524D01*
X96000Y200000D01*
X95477Y200523D01*
X94655Y201753D01*
X94089Y203120D01*
X93800Y204572D01*
Y205311D01*
Y209559D01*
Y209592D01*
X93813Y209658D01*
X93839Y209720D01*
X93876Y209776D01*
X93900Y209800D01*
X94264Y210164D01*
X94415Y210315D01*
X94771Y210553D01*
X95166Y210717D01*
X95586Y210800D01*
X97453D01*
X97849Y210721D01*
X98222Y210567D01*
X98557Y210343D01*
X98700Y210200D01*
X98923Y209998D01*
X99424Y209663D01*
X99981Y209432D01*
X100572Y209315D01*
X100873Y209300D01*
X107003D01*
X107404Y209320D01*
X108192Y209476D01*
X108934Y209784D01*
X109602Y210230D01*
X109900Y210500D01*
X110035Y210649D01*
X110258Y210983D01*
X110412Y211354D01*
X110490Y211748D01*
X110500Y211948D01*
Y213400D01*
X110545Y213450D01*
X110619Y213561D01*
X110671Y213685D01*
X110697Y213816D01*
X110700Y213883D01*
Y216700D01*
X110998Y216402D01*
D02*
G37*
G36*
X103499Y219010D02*
X103722Y218861D01*
X103969Y218759D01*
X104232Y218707D01*
X104366Y218700D01*
X106100D01*
X104900Y212500D01*
X94478D01*
X93818Y212631D01*
X93197Y212889D01*
X92638Y213262D01*
X92400Y213500D01*
X92210Y213690D01*
X91911Y214138D01*
X91705Y214635D01*
X91600Y215162D01*
Y215431D01*
Y216700D01*
Y216843D01*
X91656Y217123D01*
X91765Y217386D01*
X91923Y217623D01*
X92024Y217724D01*
X92700Y218400D01*
X92866Y218566D01*
X93258Y218828D01*
X93693Y219008D01*
X94155Y219100D01*
X103400D01*
X103499Y219010D01*
D02*
G37*
G36*
X110957Y234643D02*
X111517Y233804D01*
X111903Y232873D01*
X112100Y231883D01*
Y231379D01*
Y230700D01*
X112148Y230652D01*
X112222Y230541D01*
X112274Y230416D01*
X112300Y230284D01*
Y230217D01*
Y221600D01*
X110500Y221900D01*
Y223010D01*
X110488Y223244D01*
X110397Y223704D01*
X110218Y224137D01*
X109958Y224526D01*
X109800Y224700D01*
X109626Y224857D01*
X109237Y225118D01*
X108804Y225297D01*
X108344Y225389D01*
X108110Y225400D01*
X107600D01*
X107361Y225639D01*
X107108Y225891D01*
X106712Y226485D01*
X106439Y227144D01*
X106300Y227843D01*
Y228200D01*
X106570Y228498D01*
X107016Y229166D01*
X107324Y229908D01*
X107480Y230696D01*
X107500Y231097D01*
Y232100D01*
X108210D01*
X108444Y232112D01*
X108904Y232203D01*
X109337Y232382D01*
X109726Y232643D01*
X109900Y232800D01*
X109900D01*
X110134Y233034D01*
X110239Y233150D01*
X110412Y233409D01*
X110531Y233697D01*
X110592Y234003D01*
X110600Y234159D01*
Y235000D01*
X110957Y234643D01*
D02*
G37*
G36*
X51100Y225941D02*
X51102Y225908D01*
X51115Y225842D01*
X51140Y225781D01*
X51178Y225725D01*
X51200Y225700D01*
X51200Y225700D01*
X51271Y225629D01*
X51383Y225461D01*
X51461Y225274D01*
X51500Y225077D01*
Y224976D01*
Y220800D01*
X49600Y221800D01*
Y223252D01*
X49590Y223452D01*
X49512Y223846D01*
X49358Y224217D01*
X49135Y224551D01*
X49000Y224700D01*
X48826Y224857D01*
X48437Y225118D01*
X48004Y225297D01*
X47544Y225389D01*
X47310Y225400D01*
X46900D01*
Y231859D01*
X46898Y231892D01*
X46885Y231958D01*
X46860Y232019D01*
X46823Y232075D01*
X46800Y232100D01*
X47037Y232112D01*
X47501Y232204D01*
X47938Y232385D01*
X48331Y232648D01*
X48507Y232807D01*
X48507Y232807D01*
X48700Y233000D01*
X48902Y233223D01*
X49237Y233724D01*
X49468Y234281D01*
X49585Y234872D01*
X49600Y235173D01*
Y235900D01*
X49719Y236019D01*
X49999Y236206D01*
X50309Y236334D01*
X50639Y236400D01*
X51100D01*
Y225941D01*
D02*
G37*
%LPC*%
G36*
X27634Y34100D02*
X19100D01*
X18698Y34080D01*
X17909Y33923D01*
X17165Y33615D01*
X16567Y33215D01*
X16496Y33168D01*
X16198Y32898D01*
X16198Y32898D01*
Y32898D01*
X13300Y30000D01*
Y27292D01*
X13140Y26487D01*
X13364Y25947D01*
X13600Y24760D01*
Y21300D01*
X13634Y20614D01*
X13902Y19268D01*
X14427Y18000D01*
X15189Y16859D01*
X15651Y16349D01*
X15651Y16349D01*
X16713Y15287D01*
X17380Y14682D01*
X18875Y13683D01*
X20537Y12995D01*
X22301Y12644D01*
X23200Y12600D01*
X25462D01*
X25897Y12621D01*
X26750Y12791D01*
X27554Y13124D01*
X28277Y13608D01*
X28600Y13900D01*
X28600D01*
X33177Y18477D01*
X33414Y18635D01*
X33678Y18744D01*
X33957Y18800D01*
X34100D01*
Y21569D01*
X34152Y21833D01*
X34255Y22081D01*
X34405Y22305D01*
X34500Y22400D01*
Y22400D01*
X35500Y23400D01*
X35329Y23571D01*
X34633Y24268D01*
X33538Y25905D01*
X32784Y27725D01*
X32400Y29657D01*
Y29928D01*
X32315Y29985D01*
X32164Y30136D01*
Y30136D01*
X28600Y33700D01*
X28501Y33790D01*
X28278Y33939D01*
X28031Y34041D01*
X27768Y34093D01*
X27634Y34100D01*
D02*
G37*
G36*
X92978Y47798D02*
X19500D01*
Y36800D01*
X92978D01*
Y47798D01*
D02*
G37*
G36*
X26200Y302900D02*
X23566D01*
X23432Y302893D01*
X23169Y302841D01*
X22922Y302739D01*
X22699Y302590D01*
X22600Y302500D01*
X22124Y302024D01*
X21006Y301277D01*
X19763Y300762D01*
X18444Y300500D01*
X14800D01*
Y300143D01*
X14661Y299444D01*
X14388Y298785D01*
X13992Y298191D01*
X13739Y297939D01*
X11900Y296100D01*
X12304Y295696D01*
X12939Y294745D01*
X13377Y293689D01*
X13600Y292567D01*
Y286400D01*
X16620Y283380D01*
X16620Y283380D01*
X17112Y282934D01*
X18214Y282198D01*
X19438Y281691D01*
X20737Y281433D01*
X21400Y281400D01*
X23758D01*
X24738Y281448D01*
X26661Y281831D01*
X28472Y282581D01*
X30102Y283670D01*
X30538Y284066D01*
X30829Y284329D01*
X30900Y284400D01*
X30900Y284400D01*
X31530Y285095D01*
X32571Y286653D01*
X33288Y288385D01*
X33654Y290223D01*
X33700Y291160D01*
Y292600D01*
X33663Y293357D01*
X33367Y294843D01*
X32788Y296242D01*
X31946Y297501D01*
X31437Y298063D01*
X29698Y299802D01*
X29723Y300171D01*
X28901Y300994D01*
X28431Y301188D01*
X26866Y302234D01*
X26200Y302900D01*
D02*
G37*
G36*
X112889Y75620D02*
X33600D01*
Y65783D01*
X112889D01*
Y75620D01*
D02*
G37*
G36*
X374134Y301500D02*
X374134Y301500D01*
X364600Y301500D01*
X364600Y301310D01*
X364526Y300937D01*
X364380Y300585D01*
X364169Y300269D01*
X364034Y300134D01*
X360500Y296600D01*
X360230Y296302D01*
X359784Y295634D01*
X359476Y294892D01*
X359320Y294105D01*
X359300Y293703D01*
Y290300D01*
X359337Y289543D01*
X359633Y288057D01*
X360212Y286658D01*
X361054Y285399D01*
X361563Y284837D01*
X361563Y284837D01*
X363000Y283400D01*
X363695Y282770D01*
X365253Y281729D01*
X366985Y281012D01*
X368823Y280646D01*
X369760Y280600D01*
X373800D01*
X374131Y280616D01*
X374781Y280746D01*
X375393Y280999D01*
X375944Y281367D01*
X376190Y281590D01*
X376190Y281590D01*
X379080Y284480D01*
X378899Y284601D01*
X378400Y285100D01*
X379171Y285871D01*
X379171D01*
X379171Y285871D01*
X379830Y286598D01*
X380919Y288228D01*
X381042Y288526D01*
X381000Y288739D01*
X381000Y288907D01*
X381000Y296700D01*
X380643D01*
X379944Y296839D01*
X379285Y297112D01*
X378692Y297508D01*
X378439Y297761D01*
X375100Y301100D01*
X375001Y301190D01*
X374778Y301339D01*
X374591Y301416D01*
X374531Y301441D01*
X374531Y301441D01*
X374268Y301493D01*
X374134Y301500D01*
X374134Y301500D01*
X374134Y301500D01*
D02*
G37*
%LPD*%
G36*
X104564Y67500D02*
X103461D01*
X101587Y72146D01*
X102876D01*
X103754Y69774D01*
X104008Y68974D01*
Y68984D01*
X104027Y69023D01*
X104037Y69071D01*
X104057Y69140D01*
X104106Y69267D01*
X104125Y69325D01*
X104135Y69374D01*
Y69384D01*
X104145Y69403D01*
X104154Y69442D01*
X104174Y69501D01*
X104213Y69628D01*
X104262Y69774D01*
X105150Y72146D01*
X106409D01*
X104564Y67500D01*
D02*
G37*
G36*
X50172D02*
X48971D01*
X48962Y72546D01*
X47693Y67500D01*
X46453D01*
X45184Y72546D01*
Y67500D01*
X43984D01*
Y73912D01*
X45917D01*
X47078Y69530D01*
X48220Y73912D01*
X50172D01*
Y67500D01*
D02*
G37*
G36*
X69975D02*
X68677D01*
X66081Y71707D01*
Y67500D01*
X64880D01*
Y73912D01*
X66129D01*
X68774Y69608D01*
Y73912D01*
X69975D01*
Y67500D01*
D02*
G37*
G36*
X89144D02*
X87914D01*
Y72126D01*
X87904Y72117D01*
X87884Y72097D01*
X87845Y72068D01*
X87797Y72019D01*
X87728Y71970D01*
X87650Y71912D01*
X87562Y71843D01*
X87455Y71775D01*
X87348Y71697D01*
X87221Y71619D01*
X86957Y71472D01*
X86655Y71326D01*
X86323Y71199D01*
Y72312D01*
X86333D01*
X86342Y72321D01*
X86372Y72331D01*
X86411Y72341D01*
X86508Y72380D01*
X86635Y72448D01*
X86791Y72526D01*
X86967Y72634D01*
X87162Y72751D01*
X87367Y72907D01*
X87377Y72917D01*
X87397Y72927D01*
X87426Y72956D01*
X87455Y72985D01*
X87553Y73073D01*
X87679Y73200D01*
X87806Y73346D01*
X87933Y73522D01*
X88050Y73717D01*
X88138Y73932D01*
X89144D01*
Y67500D01*
D02*
G37*
G36*
X110498Y69862D02*
X111289D01*
Y68788D01*
X110498D01*
Y67500D01*
X109308D01*
Y68788D01*
X106682D01*
Y69852D01*
X109464Y73932D01*
X110498D01*
Y69862D01*
D02*
G37*
G36*
X85581Y67500D02*
X84176D01*
X83629Y68954D01*
X81043D01*
X80516Y67500D01*
X79149D01*
X81638Y73912D01*
X83004D01*
X85581Y67500D01*
D02*
G37*
G36*
X42774D02*
X41476D01*
Y73912D01*
X42774D01*
Y67500D01*
D02*
G37*
G36*
X54417Y74010D02*
X54515Y74000D01*
X54632Y73981D01*
X54759Y73961D01*
X54896Y73932D01*
X55052Y73893D01*
X55198Y73844D01*
X55364Y73795D01*
X55520Y73727D01*
X55677Y73639D01*
X55833Y73551D01*
X55979Y73444D01*
X56125Y73317D01*
X56135D01*
X56145Y73297D01*
X56194Y73239D01*
X56272Y73151D01*
X56369Y73014D01*
X56477Y72848D01*
X56594Y72653D01*
X56701Y72419D01*
X56789Y72146D01*
X55511Y71843D01*
Y71853D01*
X55501Y71863D01*
X55491Y71921D01*
X55452Y72009D01*
X55403Y72126D01*
X55345Y72253D01*
X55257Y72380D01*
X55159Y72507D01*
X55032Y72624D01*
X55013Y72634D01*
X54964Y72673D01*
X54896Y72722D01*
X54788Y72770D01*
X54661Y72829D01*
X54505Y72868D01*
X54339Y72907D01*
X54154Y72917D01*
X54086D01*
X54037Y72907D01*
X53978Y72897D01*
X53910Y72887D01*
X53744Y72848D01*
X53559Y72790D01*
X53363Y72702D01*
X53276Y72644D01*
X53178Y72575D01*
X53090Y72487D01*
X53002Y72399D01*
Y72390D01*
X52983Y72380D01*
X52963Y72341D01*
X52934Y72302D01*
X52905Y72243D01*
X52866Y72175D01*
X52827Y72097D01*
X52788Y71999D01*
X52739Y71892D01*
X52700Y71775D01*
X52661Y71638D01*
X52631Y71482D01*
X52602Y71326D01*
X52583Y71140D01*
X52573Y70945D01*
X52563Y70740D01*
Y70731D01*
Y70692D01*
Y70623D01*
X52573Y70545D01*
Y70438D01*
X52583Y70330D01*
X52602Y70204D01*
X52622Y70067D01*
X52670Y69784D01*
X52749Y69491D01*
X52797Y69354D01*
X52856Y69227D01*
X52914Y69110D01*
X52992Y69003D01*
X53002Y68993D01*
X53012Y68984D01*
X53071Y68925D01*
X53168Y68847D01*
X53295Y68749D01*
X53461Y68652D01*
X53656Y68574D01*
X53881Y68515D01*
X53998Y68505D01*
X54125Y68496D01*
X54173D01*
X54212Y68505D01*
X54310Y68515D01*
X54427Y68535D01*
X54574Y68574D01*
X54720Y68632D01*
X54866Y68710D01*
X55013Y68818D01*
X55032Y68837D01*
X55071Y68876D01*
X55140Y68964D01*
X55218Y69071D01*
X55306Y69218D01*
X55393Y69403D01*
X55481Y69608D01*
X55550Y69862D01*
X56809Y69472D01*
Y69462D01*
X56799Y69423D01*
X56779Y69374D01*
X56750Y69296D01*
X56721Y69208D01*
X56682Y69110D01*
X56633Y68993D01*
X56574Y68876D01*
X56447Y68622D01*
X56282Y68359D01*
X56077Y68115D01*
X55969Y67998D01*
X55842Y67900D01*
X55833Y67890D01*
X55813Y67881D01*
X55774Y67851D01*
X55725Y67822D01*
X55657Y67783D01*
X55579Y67744D01*
X55481Y67695D01*
X55374Y67646D01*
X55257Y67598D01*
X55130Y67549D01*
X54993Y67510D01*
X54847Y67471D01*
X54681Y67441D01*
X54515Y67412D01*
X54330Y67402D01*
X54144Y67393D01*
X54086D01*
X54017Y67402D01*
X53929D01*
X53822Y67422D01*
X53695Y67441D01*
X53559Y67461D01*
X53402Y67500D01*
X53237Y67549D01*
X53071Y67607D01*
X52895Y67676D01*
X52719Y67764D01*
X52543Y67861D01*
X52368Y67978D01*
X52202Y68105D01*
X52046Y68261D01*
X52036Y68271D01*
X52007Y68300D01*
X51968Y68349D01*
X51919Y68417D01*
X51860Y68505D01*
X51782Y68613D01*
X51714Y68739D01*
X51636Y68886D01*
X51558Y69042D01*
X51489Y69227D01*
X51421Y69423D01*
X51353Y69637D01*
X51304Y69862D01*
X51265Y70106D01*
X51236Y70369D01*
X51226Y70643D01*
Y70662D01*
Y70711D01*
X51236Y70799D01*
Y70906D01*
X51255Y71043D01*
X51265Y71199D01*
X51294Y71365D01*
X51333Y71550D01*
X51372Y71755D01*
X51431Y71951D01*
X51489Y72165D01*
X51568Y72370D01*
X51665Y72575D01*
X51772Y72770D01*
X51899Y72956D01*
X52046Y73132D01*
X52056Y73141D01*
X52085Y73171D01*
X52134Y73210D01*
X52192Y73268D01*
X52280Y73336D01*
X52378Y73415D01*
X52495Y73493D01*
X52631Y73580D01*
X52778Y73659D01*
X52944Y73737D01*
X53119Y73815D01*
X53315Y73883D01*
X53519Y73942D01*
X53744Y73981D01*
X53978Y74010D01*
X54222Y74020D01*
X54339D01*
X54417Y74010D01*
D02*
G37*
G36*
X37962D02*
X38069Y74000D01*
X38187Y73990D01*
X38313Y73971D01*
X38450Y73951D01*
X38743Y73893D01*
X39045Y73795D01*
X39192Y73737D01*
X39329Y73659D01*
X39465Y73580D01*
X39582Y73483D01*
X39592Y73473D01*
X39612Y73454D01*
X39641Y73424D01*
X39680Y73385D01*
X39729Y73336D01*
X39777Y73268D01*
X39836Y73190D01*
X39895Y73102D01*
X39953Y73005D01*
X40002Y72897D01*
X40109Y72663D01*
X40148Y72526D01*
X40187Y72380D01*
X40217Y72224D01*
X40226Y72068D01*
X38928Y72019D01*
Y72029D01*
Y72038D01*
X38909Y72097D01*
X38889Y72185D01*
X38850Y72292D01*
X38801Y72409D01*
X38743Y72526D01*
X38665Y72634D01*
X38567Y72722D01*
X38557Y72731D01*
X38518Y72761D01*
X38460Y72790D01*
X38372Y72839D01*
X38255Y72878D01*
X38118Y72907D01*
X37952Y72936D01*
X37757Y72946D01*
X37669D01*
X37562Y72936D01*
X37435Y72917D01*
X37298Y72887D01*
X37152Y72848D01*
X37006Y72790D01*
X36879Y72712D01*
X36869Y72702D01*
X36849Y72683D01*
X36820Y72653D01*
X36781Y72605D01*
X36742Y72546D01*
X36713Y72478D01*
X36693Y72399D01*
X36683Y72312D01*
Y72302D01*
Y72273D01*
X36693Y72234D01*
X36703Y72175D01*
X36732Y72117D01*
X36762Y72048D01*
X36810Y71990D01*
X36869Y71921D01*
X36879Y71912D01*
X36918Y71882D01*
X36996Y71843D01*
X37045Y71824D01*
X37113Y71794D01*
X37181Y71755D01*
X37269Y71726D01*
X37357Y71687D01*
X37474Y71658D01*
X37591Y71619D01*
X37728Y71580D01*
X37884Y71531D01*
X38050Y71492D01*
X38060D01*
X38089Y71482D01*
X38138Y71472D01*
X38206Y71453D01*
X38284Y71433D01*
X38372Y71404D01*
X38577Y71355D01*
X38811Y71277D01*
X39036Y71209D01*
X39260Y71121D01*
X39358Y71082D01*
X39446Y71033D01*
X39455D01*
X39465Y71023D01*
X39524Y70994D01*
X39602Y70935D01*
X39699Y70867D01*
X39816Y70770D01*
X39934Y70662D01*
X40041Y70526D01*
X40148Y70379D01*
X40158Y70360D01*
X40187Y70311D01*
X40236Y70213D01*
X40285Y70096D01*
X40324Y69950D01*
X40373Y69774D01*
X40402Y69579D01*
X40412Y69364D01*
Y69354D01*
Y69335D01*
Y69306D01*
Y69267D01*
X40392Y69159D01*
X40373Y69023D01*
X40334Y68866D01*
X40285Y68691D01*
X40207Y68505D01*
X40099Y68320D01*
Y68310D01*
X40090Y68300D01*
X40041Y68242D01*
X39973Y68154D01*
X39875Y68056D01*
X39758Y67939D01*
X39602Y67822D01*
X39436Y67705D01*
X39231Y67607D01*
X39221D01*
X39202Y67598D01*
X39172Y67588D01*
X39133Y67568D01*
X39075Y67559D01*
X39016Y67539D01*
X38938Y67519D01*
X38850Y67500D01*
X38645Y67451D01*
X38411Y67422D01*
X38148Y67393D01*
X37845Y67383D01*
X37728D01*
X37640Y67393D01*
X37542Y67402D01*
X37425Y67412D01*
X37298Y67432D01*
X37152Y67451D01*
X36849Y67519D01*
X36693Y67568D01*
X36537Y67617D01*
X36391Y67685D01*
X36244Y67754D01*
X36098Y67842D01*
X35971Y67939D01*
X35961Y67949D01*
X35942Y67968D01*
X35912Y67998D01*
X35864Y68047D01*
X35815Y68105D01*
X35756Y68173D01*
X35698Y68261D01*
X35629Y68349D01*
X35561Y68466D01*
X35493Y68583D01*
X35434Y68720D01*
X35366Y68866D01*
X35317Y69023D01*
X35268Y69198D01*
X35229Y69384D01*
X35200Y69579D01*
X36459Y69706D01*
Y69696D01*
X36469Y69677D01*
Y69647D01*
X36479Y69598D01*
X36508Y69491D01*
X36557Y69345D01*
X36615Y69198D01*
X36693Y69042D01*
X36791Y68896D01*
X36908Y68769D01*
X36928Y68759D01*
X36976Y68720D01*
X37054Y68681D01*
X37162Y68622D01*
X37298Y68574D01*
X37455Y68525D01*
X37640Y68486D01*
X37855Y68476D01*
X37962D01*
X38069Y68486D01*
X38206Y68505D01*
X38362Y68544D01*
X38518Y68583D01*
X38665Y68652D01*
X38792Y68739D01*
X38801Y68749D01*
X38840Y68788D01*
X38889Y68837D01*
X38958Y68915D01*
X39016Y69003D01*
X39065Y69110D01*
X39104Y69227D01*
X39114Y69354D01*
Y69364D01*
Y69393D01*
X39104Y69432D01*
X39094Y69491D01*
X39055Y69608D01*
X39026Y69677D01*
X38977Y69735D01*
X38967Y69745D01*
X38948Y69764D01*
X38919Y69794D01*
X38870Y69833D01*
X38801Y69881D01*
X38723Y69920D01*
X38626Y69969D01*
X38509Y70018D01*
X38499D01*
X38460Y70038D01*
X38392Y70057D01*
X38294Y70086D01*
X38235Y70106D01*
X38157Y70125D01*
X38079Y70145D01*
X37982Y70174D01*
X37874Y70204D01*
X37757Y70233D01*
X37630Y70262D01*
X37484Y70301D01*
X37474D01*
X37435Y70311D01*
X37386Y70330D01*
X37318Y70350D01*
X37230Y70369D01*
X37132Y70399D01*
X36918Y70477D01*
X36674Y70565D01*
X36430Y70672D01*
X36215Y70799D01*
X36117Y70867D01*
X36030Y70935D01*
X36020Y70945D01*
X36000Y70965D01*
X35971Y70994D01*
X35942Y71033D01*
X35893Y71082D01*
X35844Y71140D01*
X35795Y71219D01*
X35737Y71297D01*
X35629Y71482D01*
X35532Y71707D01*
X35503Y71824D01*
X35473Y71951D01*
X35454Y72087D01*
X35444Y72224D01*
Y72234D01*
Y72243D01*
Y72273D01*
Y72312D01*
X35464Y72399D01*
X35483Y72526D01*
X35512Y72663D01*
X35561Y72819D01*
X35629Y72975D01*
X35717Y73141D01*
Y73151D01*
X35727Y73161D01*
X35766Y73210D01*
X35834Y73288D01*
X35922Y73385D01*
X36030Y73493D01*
X36166Y73600D01*
X36322Y73707D01*
X36508Y73795D01*
X36518D01*
X36527Y73805D01*
X36566Y73815D01*
X36605Y73834D01*
X36654Y73844D01*
X36713Y73864D01*
X36859Y73912D01*
X37045Y73951D01*
X37259Y73981D01*
X37503Y74010D01*
X37767Y74020D01*
X37884D01*
X37962Y74010D01*
D02*
G37*
G36*
X73762D02*
X73869Y74000D01*
X73986Y73990D01*
X74113Y73971D01*
X74250Y73951D01*
X74543Y73893D01*
X74845Y73795D01*
X74992Y73737D01*
X75128Y73659D01*
X75265Y73580D01*
X75382Y73483D01*
X75392Y73473D01*
X75411Y73454D01*
X75441Y73424D01*
X75480Y73385D01*
X75528Y73336D01*
X75577Y73268D01*
X75636Y73190D01*
X75694Y73102D01*
X75753Y73005D01*
X75802Y72897D01*
X75909Y72663D01*
X75948Y72526D01*
X75987Y72380D01*
X76016Y72224D01*
X76026Y72068D01*
X74728Y72019D01*
Y72029D01*
Y72038D01*
X74708Y72097D01*
X74689Y72185D01*
X74650Y72292D01*
X74601Y72409D01*
X74543Y72526D01*
X74464Y72634D01*
X74367Y72722D01*
X74357Y72731D01*
X74318Y72761D01*
X74260Y72790D01*
X74172Y72839D01*
X74055Y72878D01*
X73918Y72907D01*
X73752Y72936D01*
X73557Y72946D01*
X73469D01*
X73362Y72936D01*
X73235Y72917D01*
X73098Y72887D01*
X72952Y72848D01*
X72805Y72790D01*
X72678Y72712D01*
X72669Y72702D01*
X72649Y72683D01*
X72620Y72653D01*
X72581Y72605D01*
X72542Y72546D01*
X72513Y72478D01*
X72493Y72399D01*
X72483Y72312D01*
Y72302D01*
Y72273D01*
X72493Y72234D01*
X72503Y72175D01*
X72532Y72117D01*
X72561Y72048D01*
X72610Y71990D01*
X72669Y71921D01*
X72678Y71912D01*
X72717Y71882D01*
X72795Y71843D01*
X72844Y71824D01*
X72913Y71794D01*
X72981Y71755D01*
X73069Y71726D01*
X73157Y71687D01*
X73274Y71658D01*
X73391Y71619D01*
X73527Y71580D01*
X73684Y71531D01*
X73850Y71492D01*
X73859D01*
X73889Y71482D01*
X73937Y71472D01*
X74006Y71453D01*
X74084Y71433D01*
X74172Y71404D01*
X74377Y71355D01*
X74611Y71277D01*
X74835Y71209D01*
X75060Y71121D01*
X75157Y71082D01*
X75245Y71033D01*
X75255D01*
X75265Y71023D01*
X75323Y70994D01*
X75401Y70935D01*
X75499Y70867D01*
X75616Y70770D01*
X75733Y70662D01*
X75841Y70526D01*
X75948Y70379D01*
X75958Y70360D01*
X75987Y70311D01*
X76036Y70213D01*
X76085Y70096D01*
X76124Y69950D01*
X76173Y69774D01*
X76202Y69579D01*
X76212Y69364D01*
Y69354D01*
Y69335D01*
Y69306D01*
Y69267D01*
X76192Y69159D01*
X76173Y69023D01*
X76133Y68866D01*
X76085Y68691D01*
X76007Y68505D01*
X75899Y68320D01*
Y68310D01*
X75889Y68300D01*
X75841Y68242D01*
X75772Y68154D01*
X75675Y68056D01*
X75558Y67939D01*
X75401Y67822D01*
X75235Y67705D01*
X75031Y67607D01*
X75021D01*
X75001Y67598D01*
X74972Y67588D01*
X74933Y67568D01*
X74874Y67559D01*
X74816Y67539D01*
X74738Y67519D01*
X74650Y67500D01*
X74445Y67451D01*
X74211Y67422D01*
X73947Y67393D01*
X73645Y67383D01*
X73527D01*
X73440Y67393D01*
X73342Y67402D01*
X73225Y67412D01*
X73098Y67432D01*
X72952Y67451D01*
X72649Y67519D01*
X72493Y67568D01*
X72337Y67617D01*
X72190Y67685D01*
X72044Y67754D01*
X71898Y67842D01*
X71771Y67939D01*
X71761Y67949D01*
X71741Y67968D01*
X71712Y67998D01*
X71663Y68047D01*
X71615Y68105D01*
X71556Y68173D01*
X71497Y68261D01*
X71429Y68349D01*
X71361Y68466D01*
X71293Y68583D01*
X71234Y68720D01*
X71166Y68866D01*
X71117Y69023D01*
X71068Y69198D01*
X71029Y69384D01*
X71000Y69579D01*
X72259Y69706D01*
Y69696D01*
X72268Y69677D01*
Y69647D01*
X72278Y69598D01*
X72307Y69491D01*
X72356Y69345D01*
X72415Y69198D01*
X72493Y69042D01*
X72591Y68896D01*
X72708Y68769D01*
X72727Y68759D01*
X72776Y68720D01*
X72854Y68681D01*
X72961Y68622D01*
X73098Y68574D01*
X73254Y68525D01*
X73440Y68486D01*
X73654Y68476D01*
X73762D01*
X73869Y68486D01*
X74006Y68505D01*
X74162Y68544D01*
X74318Y68583D01*
X74464Y68652D01*
X74591Y68739D01*
X74601Y68749D01*
X74640Y68788D01*
X74689Y68837D01*
X74757Y68915D01*
X74816Y69003D01*
X74865Y69110D01*
X74904Y69227D01*
X74913Y69354D01*
Y69364D01*
Y69393D01*
X74904Y69432D01*
X74894Y69491D01*
X74855Y69608D01*
X74826Y69677D01*
X74777Y69735D01*
X74767Y69745D01*
X74748Y69764D01*
X74718Y69794D01*
X74669Y69833D01*
X74601Y69881D01*
X74523Y69920D01*
X74425Y69969D01*
X74308Y70018D01*
X74299D01*
X74260Y70038D01*
X74191Y70057D01*
X74094Y70086D01*
X74035Y70106D01*
X73957Y70125D01*
X73879Y70145D01*
X73781Y70174D01*
X73674Y70204D01*
X73557Y70233D01*
X73430Y70262D01*
X73283Y70301D01*
X73274D01*
X73235Y70311D01*
X73186Y70330D01*
X73118Y70350D01*
X73030Y70369D01*
X72932Y70399D01*
X72717Y70477D01*
X72473Y70565D01*
X72229Y70672D01*
X72015Y70799D01*
X71917Y70867D01*
X71829Y70935D01*
X71820Y70945D01*
X71800Y70965D01*
X71771Y70994D01*
X71741Y71033D01*
X71693Y71082D01*
X71644Y71140D01*
X71595Y71219D01*
X71536Y71297D01*
X71429Y71482D01*
X71332Y71707D01*
X71302Y71824D01*
X71273Y71951D01*
X71253Y72087D01*
X71244Y72224D01*
Y72234D01*
Y72243D01*
Y72273D01*
Y72312D01*
X71263Y72399D01*
X71283Y72526D01*
X71312Y72663D01*
X71361Y72819D01*
X71429Y72975D01*
X71517Y73141D01*
Y73151D01*
X71527Y73161D01*
X71566Y73210D01*
X71634Y73288D01*
X71722Y73385D01*
X71829Y73493D01*
X71966Y73600D01*
X72122Y73707D01*
X72307Y73795D01*
X72317D01*
X72327Y73805D01*
X72366Y73815D01*
X72405Y73834D01*
X72454Y73844D01*
X72513Y73864D01*
X72659Y73912D01*
X72844Y73951D01*
X73059Y73981D01*
X73303Y74010D01*
X73567Y74020D01*
X73684D01*
X73762Y74010D01*
D02*
G37*
G36*
X99138Y72234D02*
X99226Y72224D01*
X99323Y72204D01*
X99440Y72185D01*
X99557Y72155D01*
X99684Y72117D01*
X99821Y72077D01*
X99958Y72019D01*
X100094Y71951D01*
X100231Y71873D01*
X100358Y71775D01*
X100485Y71677D01*
X100602Y71550D01*
X100611Y71541D01*
X100631Y71521D01*
X100660Y71482D01*
X100699Y71424D01*
X100738Y71345D01*
X100787Y71258D01*
X100846Y71160D01*
X100895Y71033D01*
X100953Y70897D01*
X101002Y70740D01*
X101051Y70565D01*
X101100Y70379D01*
X101129Y70174D01*
X101158Y69959D01*
X101178Y69715D01*
Y69462D01*
X98103D01*
Y69452D01*
Y69442D01*
Y69413D01*
X98113Y69374D01*
X98123Y69267D01*
X98142Y69149D01*
X98181Y69003D01*
X98230Y68866D01*
X98298Y68730D01*
X98396Y68603D01*
X98406Y68593D01*
X98445Y68554D01*
X98503Y68505D01*
X98591Y68457D01*
X98689Y68398D01*
X98816Y68349D01*
X98952Y68310D01*
X99099Y68300D01*
X99147D01*
X99206Y68310D01*
X99274Y68320D01*
X99343Y68339D01*
X99431Y68369D01*
X99509Y68408D01*
X99587Y68457D01*
X99597Y68466D01*
X99616Y68486D01*
X99655Y68525D01*
X99694Y68583D01*
X99743Y68652D01*
X99801Y68739D01*
X99850Y68837D01*
X99889Y68964D01*
X101109Y68759D01*
Y68749D01*
X101100Y68730D01*
X101080Y68691D01*
X101060Y68652D01*
X101041Y68593D01*
X101002Y68525D01*
X100924Y68378D01*
X100817Y68212D01*
X100690Y68047D01*
X100533Y67881D01*
X100358Y67734D01*
X100348D01*
X100338Y67715D01*
X100309Y67705D01*
X100270Y67676D01*
X100221Y67656D01*
X100153Y67627D01*
X100006Y67559D01*
X99821Y67490D01*
X99606Y67441D01*
X99362Y67402D01*
X99089Y67383D01*
X99040D01*
X98972Y67393D01*
X98894D01*
X98786Y67412D01*
X98679Y67422D01*
X98552Y67451D01*
X98415Y67480D01*
X98269Y67519D01*
X98123Y67578D01*
X97967Y67637D01*
X97820Y67715D01*
X97674Y67803D01*
X97537Y67910D01*
X97410Y68037D01*
X97293Y68173D01*
Y68183D01*
X97274Y68203D01*
X97254Y68242D01*
X97225Y68291D01*
X97186Y68349D01*
X97147Y68427D01*
X97108Y68515D01*
X97069Y68613D01*
X97030Y68720D01*
X96991Y68847D01*
X96952Y68974D01*
X96912Y69120D01*
X96864Y69432D01*
X96854Y69598D01*
X96844Y69774D01*
Y69784D01*
Y69823D01*
Y69881D01*
X96854Y69969D01*
X96864Y70057D01*
X96873Y70174D01*
X96893Y70301D01*
X96922Y70428D01*
X96991Y70721D01*
X97039Y70867D01*
X97098Y71023D01*
X97166Y71170D01*
X97244Y71316D01*
X97332Y71453D01*
X97439Y71580D01*
X97449Y71589D01*
X97469Y71609D01*
X97498Y71638D01*
X97547Y71687D01*
X97605Y71736D01*
X97684Y71794D01*
X97762Y71853D01*
X97859Y71912D01*
X97967Y71970D01*
X98074Y72038D01*
X98201Y72087D01*
X98337Y72136D01*
X98484Y72185D01*
X98630Y72214D01*
X98796Y72234D01*
X98962Y72243D01*
X99060D01*
X99138Y72234D01*
D02*
G37*
G36*
X60888Y74010D02*
X60986D01*
X61103Y73990D01*
X61240Y73971D01*
X61396Y73942D01*
X61562Y73912D01*
X61747Y73864D01*
X61923Y73805D01*
X62118Y73727D01*
X62304Y73649D01*
X62489Y73541D01*
X62674Y73424D01*
X62850Y73288D01*
X63016Y73132D01*
X63026Y73122D01*
X63055Y73093D01*
X63094Y73044D01*
X63153Y72966D01*
X63211Y72878D01*
X63289Y72770D01*
X63358Y72644D01*
X63445Y72497D01*
X63524Y72331D01*
X63602Y72146D01*
X63670Y71951D01*
X63728Y71736D01*
X63787Y71502D01*
X63826Y71248D01*
X63855Y70975D01*
X63865Y70692D01*
Y70672D01*
Y70623D01*
X63855Y70545D01*
Y70438D01*
X63836Y70301D01*
X63816Y70155D01*
X63797Y69979D01*
X63758Y69803D01*
X63719Y69608D01*
X63660Y69413D01*
X63592Y69208D01*
X63504Y69003D01*
X63406Y68808D01*
X63299Y68613D01*
X63162Y68427D01*
X63016Y68252D01*
X63006Y68242D01*
X62977Y68212D01*
X62928Y68173D01*
X62860Y68115D01*
X62782Y68047D01*
X62674Y67978D01*
X62557Y67900D01*
X62421Y67822D01*
X62265Y67734D01*
X62099Y67656D01*
X61913Y67588D01*
X61708Y67519D01*
X61493Y67461D01*
X61269Y67422D01*
X61025Y67393D01*
X60761Y67383D01*
X60703D01*
X60625Y67393D01*
X60527D01*
X60410Y67412D01*
X60264Y67432D01*
X60107Y67451D01*
X59942Y67490D01*
X59766Y67539D01*
X59580Y67598D01*
X59395Y67666D01*
X59210Y67754D01*
X59014Y67851D01*
X58839Y67968D01*
X58663Y68095D01*
X58497Y68252D01*
X58487Y68261D01*
X58458Y68291D01*
X58419Y68339D01*
X58370Y68408D01*
X58302Y68496D01*
X58234Y68603D01*
X58156Y68730D01*
X58077Y68876D01*
X57999Y69042D01*
X57921Y69218D01*
X57853Y69413D01*
X57785Y69628D01*
X57736Y69862D01*
X57697Y70106D01*
X57667Y70369D01*
X57658Y70653D01*
Y70662D01*
Y70701D01*
Y70750D01*
Y70818D01*
X57667Y70906D01*
X57677Y71004D01*
Y71111D01*
X57697Y71228D01*
X57726Y71492D01*
X57775Y71765D01*
X57843Y72038D01*
X57941Y72302D01*
Y72312D01*
X57951Y72321D01*
X57980Y72380D01*
X58029Y72478D01*
X58097Y72595D01*
X58185Y72731D01*
X58282Y72878D01*
X58409Y73034D01*
X58536Y73180D01*
X58556Y73200D01*
X58605Y73249D01*
X58683Y73317D01*
X58780Y73395D01*
X58907Y73493D01*
X59044Y73590D01*
X59200Y73678D01*
X59366Y73756D01*
X59376D01*
X59395Y73766D01*
X59424Y73785D01*
X59473Y73795D01*
X59532Y73815D01*
X59600Y73844D01*
X59678Y73864D01*
X59766Y73893D01*
X59971Y73932D01*
X60205Y73981D01*
X60469Y74010D01*
X60752Y74020D01*
X60810D01*
X60888Y74010D01*
D02*
G37*
G36*
X96015Y72234D02*
X96122Y72214D01*
X96239Y72185D01*
X96385Y72146D01*
X96532Y72087D01*
X96678Y72009D01*
X96298Y70935D01*
X96288Y70945D01*
X96249Y70965D01*
X96180Y71004D01*
X96112Y71043D01*
X96015Y71072D01*
X95917Y71111D01*
X95819Y71131D01*
X95712Y71140D01*
X95673D01*
X95624Y71131D01*
X95566Y71121D01*
X95497Y71101D01*
X95419Y71082D01*
X95341Y71043D01*
X95273Y70994D01*
X95263Y70984D01*
X95244Y70965D01*
X95214Y70926D01*
X95175Y70877D01*
X95126Y70809D01*
X95078Y70711D01*
X95029Y70604D01*
X94990Y70477D01*
Y70457D01*
X94980Y70438D01*
X94970Y70399D01*
Y70360D01*
X94960Y70301D01*
X94951Y70223D01*
X94941Y70145D01*
X94931Y70047D01*
X94921Y69940D01*
X94912Y69813D01*
Y69667D01*
X94902Y69511D01*
X94892Y69335D01*
Y69140D01*
Y68925D01*
Y67500D01*
X93662D01*
Y72146D01*
X94804D01*
Y71492D01*
X94814Y71502D01*
X94853Y71560D01*
X94912Y71638D01*
X94980Y71736D01*
X95058Y71843D01*
X95146Y71941D01*
X95244Y72029D01*
X95331Y72097D01*
X95341Y72107D01*
X95370Y72117D01*
X95419Y72146D01*
X95487Y72175D01*
X95566Y72195D01*
X95653Y72224D01*
X95751Y72234D01*
X95858Y72243D01*
X95927D01*
X96015Y72234D01*
D02*
G37*
%LPC*%
G36*
X109308Y72058D02*
X107824Y69862D01*
X109308D01*
Y72058D01*
D02*
G37*
G36*
X82311Y72419D02*
X81443Y70038D01*
X83209D01*
X82311Y72419D01*
D02*
G37*
G36*
X99040Y71306D02*
X98972D01*
X98904Y71287D01*
X98806Y71267D01*
X98699Y71228D01*
X98591Y71179D01*
X98484Y71101D01*
X98377Y71004D01*
X98367Y70994D01*
X98337Y70955D01*
X98298Y70887D01*
X98250Y70799D01*
X98201Y70682D01*
X98162Y70545D01*
X98132Y70389D01*
X98123Y70213D01*
X99958D01*
Y70223D01*
Y70233D01*
Y70262D01*
X99948Y70301D01*
X99938Y70399D01*
X99919Y70516D01*
X99879Y70643D01*
X99831Y70779D01*
X99762Y70906D01*
X99675Y71023D01*
X99665Y71033D01*
X99626Y71072D01*
X99577Y71111D01*
X99499Y71170D01*
X99411Y71219D01*
X99304Y71267D01*
X99177Y71297D01*
X99040Y71306D01*
D02*
G37*
G36*
X60761Y72917D02*
X60683D01*
X60625Y72907D01*
X60557Y72897D01*
X60478Y72887D01*
X60303Y72848D01*
X60098Y72780D01*
X59990Y72741D01*
X59883Y72683D01*
X59776Y72614D01*
X59668Y72546D01*
X59571Y72458D01*
X59473Y72360D01*
X59463Y72351D01*
X59454Y72331D01*
X59434Y72302D01*
X59395Y72263D01*
X59366Y72204D01*
X59327Y72126D01*
X59278Y72048D01*
X59239Y71951D01*
X59190Y71843D01*
X59151Y71716D01*
X59102Y71580D01*
X59073Y71433D01*
X59044Y71267D01*
X59014Y71092D01*
X59005Y70906D01*
X58995Y70701D01*
Y70692D01*
Y70653D01*
Y70594D01*
X59005Y70526D01*
X59014Y70428D01*
X59024Y70330D01*
X59034Y70213D01*
X59053Y70086D01*
X59112Y69813D01*
X59210Y69540D01*
X59258Y69403D01*
X59327Y69276D01*
X59405Y69149D01*
X59493Y69042D01*
X59502Y69032D01*
X59512Y69023D01*
X59541Y68993D01*
X59580Y68954D01*
X59629Y68915D01*
X59688Y68866D01*
X59834Y68769D01*
X60020Y68661D01*
X60234Y68574D01*
X60361Y68535D01*
X60488Y68505D01*
X60625Y68496D01*
X60761Y68486D01*
X60839D01*
X60888Y68496D01*
X60957Y68505D01*
X61035Y68515D01*
X61210Y68554D01*
X61406Y68622D01*
X61513Y68671D01*
X61620Y68720D01*
X61728Y68788D01*
X61835Y68857D01*
X61933Y68945D01*
X62030Y69042D01*
X62040Y69052D01*
X62050Y69071D01*
X62079Y69101D01*
X62108Y69149D01*
X62147Y69208D01*
X62186Y69276D01*
X62235Y69364D01*
X62284Y69462D01*
X62323Y69569D01*
X62372Y69696D01*
X62411Y69833D01*
X62450Y69989D01*
X62479Y70145D01*
X62508Y70330D01*
X62518Y70516D01*
X62528Y70721D01*
Y70731D01*
Y70770D01*
Y70828D01*
X62518Y70906D01*
Y70994D01*
X62499Y71101D01*
X62489Y71219D01*
X62469Y71345D01*
X62411Y71609D01*
X62323Y71882D01*
X62265Y72019D01*
X62206Y72146D01*
X62128Y72263D01*
X62040Y72370D01*
X62030Y72380D01*
X62020Y72390D01*
X61991Y72419D01*
X61952Y72458D01*
X61903Y72497D01*
X61845Y72546D01*
X61777Y72595D01*
X61698Y72644D01*
X61523Y72741D01*
X61298Y72829D01*
X61045Y72897D01*
X60908Y72907D01*
X60761Y72917D01*
D02*
G37*
%LPD*%
D10*
X381214Y291339D02*
G03*
X381214Y291339I-11135J0D01*
G01*
X34758D02*
G03*
X34758Y291339I-11135J0D01*
G01*
Y23622D02*
G03*
X34758Y23622I-11135J0D01*
G01*
X57169Y201299D02*
X57169Y201299D01*
X57169Y228742D02*
X57169Y228742D01*
X57169Y255020D02*
X57169Y255020D01*
X70177Y281299D02*
X70177Y281299D01*
X57169Y281299D02*
X57169Y281299D01*
D11*
X248351Y48353D02*
G03*
X243649Y50300I-4702J-4704D01*
G01*
X234651D02*
G03*
X231150Y48850I0J-4951D01*
G01*
D02*
G03*
X229700Y45349I3501J-3501D01*
G01*
X319900Y167000D02*
G03*
X318400Y163379I3621J-3621D01*
G01*
X310500Y158820D02*
G03*
X309100Y162200I-4780J0D01*
G01*
X308229Y163071D02*
G03*
X301158Y166000I-7071J-7071D01*
G01*
X298250D02*
G03*
X296503Y165803I0J-7846D01*
G01*
X289803Y156703D02*
G03*
X291500Y160800I-4097J4097D01*
G01*
X284711Y154299D02*
G03*
X285006Y154306I0J6490D01*
G01*
X231799Y241959D02*
G03*
X228870Y249030I-10000J0D01*
G01*
X223547Y254353D02*
G03*
X217635Y256800I-5912J-5918D01*
G01*
X187049Y293307D02*
G03*
X179978Y290378I0J-10000D01*
G01*
X170929Y281329D02*
G03*
X168000Y274258I7071J-7071D01*
G01*
Y268300D02*
G03*
X170668Y261860I9108J0D01*
G01*
X174514Y258014D02*
G03*
X174514Y258013I2930J2930D01*
G01*
D02*
G03*
X177444Y256800I2929J2931D01*
G01*
X368839Y112913D02*
G03*
X362650Y110350I0J-8752D01*
G01*
X362029Y109729D02*
G03*
X360800Y108236I7071J-7071D01*
G01*
D02*
G03*
X359100Y102658I8300J-5578D01*
G01*
X356171Y44471D02*
G03*
X359100Y51542I-7071J7071D01*
G01*
X345258Y37700D02*
G03*
X352329Y40629I0J10000D01*
G01*
X333201Y37700D02*
G03*
X326200Y34800I0J-9901D01*
G01*
X323953Y32552D02*
G03*
X321024Y25482I7071J-7071D01*
G01*
X261529Y248071D02*
G03*
X254458Y251000I-7071J-7071D01*
G01*
X272372Y237228D02*
G03*
X279443Y234299I7071J7071D01*
G01*
X231799Y268243D02*
G03*
X234728Y261172I10000J0D01*
G01*
X241971Y253929D02*
G03*
X249042Y251000I7071J7071D01*
G01*
X296503Y165803D02*
G03*
X292702Y163702I1747J-7649D01*
G01*
D02*
G03*
X291500Y160800I2902J-2902D01*
G01*
X285006Y154306D02*
G03*
X289300Y156200I-295J6483D01*
G01*
X223550Y254350D02*
G03*
X223547Y254353I-5915J-5915D01*
G01*
X248352Y48352D02*
G03*
X248351Y48353I-4703J-4703D01*
G01*
X241404Y143938D02*
G03*
X244333Y136867I10000J0D01*
G01*
X246724Y134476D02*
G03*
X252704Y131999I5980J5980D01*
G01*
X329303Y266799D02*
Y295297D01*
X252704Y147600D02*
Y177394D01*
X234651Y50300D02*
X243649D01*
X229700Y42300D02*
Y45349D01*
X318400Y85800D02*
Y163379D01*
X308229Y163071D02*
X309100Y162200D01*
X310500Y41000D02*
Y158820D01*
X298250Y166000D02*
X301158D01*
X289300Y156200D02*
X289803Y156703D01*
X282299Y154299D02*
X284711D01*
X212196Y256800D02*
X217635D01*
X187049Y293307D02*
X201890D01*
X182907D02*
X187049D01*
X223550Y254350D02*
X228870Y249030D01*
X231799Y238799D02*
Y241959D01*
X179978Y290378D02*
X182907Y293307D01*
X170929Y281329D02*
X179978Y290378D01*
X170668Y261860D02*
X174514Y258014D01*
X168000Y268300D02*
Y274258D01*
X177444Y256800D02*
X177823D01*
X174514Y258014D02*
X174514Y258013D01*
X368839Y112913D02*
X372047D01*
X362029Y109729D02*
X362650Y110350D01*
X359100Y51542D02*
Y102658D01*
X352329Y40629D02*
X356171Y44471D01*
X333201Y37700D02*
X345258D01*
X323953Y32552D02*
X326200Y34800D01*
X321024Y21654D02*
Y25482D01*
X261529Y248071D02*
X272372Y237228D01*
X249042Y251000D02*
X254458D01*
X279443Y234299D02*
X282299D01*
X231799Y268243D02*
Y268799D01*
X234728Y261172D02*
X241971Y253929D01*
X145340Y268160D02*
X166200Y247300D01*
X180508Y256726D02*
X180583Y256800D01*
X177897Y256726D02*
X180508D01*
X180583Y256800D02*
X209229D01*
X177823D02*
X177897Y256726D01*
X212138Y256859D02*
X212196Y256800D01*
X209288Y256859D02*
X212138D01*
X209229Y256800D02*
X209288Y256859D01*
X229600Y227800D02*
X238704D01*
X229300D02*
X229600D01*
X261600Y205300D02*
Y208800D01*
X257999Y201699D02*
X261600Y205300D01*
X235401Y201699D02*
X257999D01*
X231799Y205301D02*
X235401Y201699D01*
X231799Y205301D02*
Y208299D01*
X248352Y48352D02*
X253004Y43700D01*
X96400Y201800D02*
Y207300D01*
Y201800D02*
X97100Y201100D01*
X99200D01*
X99399Y201299D01*
X105177D01*
X69300Y179500D02*
X70177Y180377D01*
X155000Y188800D02*
X162000Y181800D01*
X118609Y188800D02*
X155000D01*
X114909Y185100D02*
X118609Y188800D01*
X150500Y185000D02*
X164600Y170900D01*
X123100Y185000D02*
X150500D01*
X115900Y177800D02*
X123100Y185000D01*
X110995Y177800D02*
X115900D01*
X277099Y224299D02*
X282299D01*
X261600Y208800D02*
X277099Y224299D01*
X211799Y176399D02*
Y178299D01*
X206300Y170900D02*
X211799Y176399D01*
X164600Y170900D02*
X206300D01*
X274700Y102900D02*
Y131400D01*
X269100Y97300D02*
X274700Y102900D01*
X258800Y97300D02*
X269100D01*
X265696Y112800D02*
X265700Y112796D01*
Y102900D02*
Y112796D01*
X252704Y103396D02*
X258800Y97300D01*
X252704Y103396D02*
Y112800D01*
X274700Y131400D02*
X277599Y134299D01*
X265996Y75496D02*
X269700Y79200D01*
X259600Y79700D02*
X264700Y84800D01*
X272068D02*
X282299Y74569D01*
X264700Y84800D02*
X272068D01*
X282299Y74299D02*
Y74569D01*
X265996Y69400D02*
Y75496D01*
X259600Y60800D02*
Y79700D01*
X139600Y142000D02*
Y160803D01*
X134904Y165499D02*
X139600Y160803D01*
X217000Y231600D02*
X230000Y218600D01*
X245600D01*
X215300Y228000D02*
X228401Y214899D01*
X237810D01*
X217400Y164700D02*
Y165200D01*
X253400Y186800D02*
X265500Y174700D01*
X219200Y186800D02*
X253400D01*
X147896Y165499D02*
X156799D01*
X157200Y165900D01*
X219600Y143400D02*
Y163000D01*
X217200Y141000D02*
X219600Y143400D01*
X211496Y141000D02*
X217200D01*
X70177Y180377D02*
Y188799D01*
X22140Y173400D02*
X32400D01*
X21654Y172913D02*
X22140Y173400D01*
X32400D02*
X44177Y185177D01*
X33400Y167000D02*
Y167800D01*
Y167000D02*
X34100Y166300D01*
X44077D01*
X44177Y166400D01*
X35900Y134600D02*
Y135600D01*
Y134600D02*
X41501Y128999D01*
X44177D01*
X86869Y185100D02*
X114909D01*
X83169Y188799D02*
X86869Y185100D01*
X99695Y166499D02*
X110995Y177800D01*
X98003Y166499D02*
X99695D01*
X128300Y178800D02*
X130300D01*
X134904Y174196D01*
Y165499D02*
Y174196D01*
X241799Y208299D02*
Y210910D01*
X237810Y214899D02*
X241799Y210910D01*
X159000Y72300D02*
X209700D01*
X135968Y49268D02*
X159000Y72300D01*
X162000Y181800D02*
X169700D01*
X215600Y189300D02*
X216700D01*
X219200Y186800D01*
X184396Y142250D02*
X185154D01*
X211596Y142600D02*
Y142708D01*
X251799Y178299D02*
X252704Y177394D01*
X277599Y134299D02*
X282299D01*
X252704Y112800D02*
Y122300D01*
X277996Y144299D02*
X282299D01*
X265696Y131999D02*
X277996Y144299D01*
X252704Y147600D02*
X265696Y134608D01*
Y131999D02*
Y134608D01*
Y122300D02*
Y131999D01*
Y112800D02*
Y122300D01*
X293900Y252000D02*
X299100Y246800D01*
X270400Y252000D02*
X293900D01*
X261890Y260510D02*
X270400Y252000D01*
X261890Y260510D02*
Y293307D01*
X278104Y274204D02*
X279900Y276000D01*
X278104Y260600D02*
Y274204D01*
X289900Y276000D02*
X291096Y274804D01*
Y260600D02*
Y274804D01*
X281890Y285190D02*
Y293307D01*
X279900Y283200D02*
X281890Y285190D01*
X279900Y276000D02*
Y283200D01*
X291890Y277990D02*
X295199Y281299D01*
X291890Y277990D02*
Y293307D01*
X289900Y276000D02*
X291890Y277990D01*
X295199Y281299D02*
X305303D01*
X318295Y266799D02*
Y281299D01*
X342295Y281299D02*
X342295Y281299D01*
X342295Y266799D02*
Y281299D01*
Y266799D02*
X342300Y266794D01*
Y261300D02*
Y266794D01*
X339300Y258300D02*
X342300Y261300D01*
X321700Y258300D02*
X339300D01*
X318295Y261705D02*
X321700Y258300D01*
X318295Y261705D02*
Y266799D01*
X281890Y293307D02*
Y299790D01*
X251696Y238696D02*
X251799Y238799D01*
X251696Y227800D02*
Y238696D01*
X239900Y28800D02*
X248300Y37200D01*
X260596D01*
X265996Y42600D01*
Y43700D01*
X239596Y28800D02*
X239900D01*
X255300Y56500D02*
X259600Y60800D01*
X253004Y56500D02*
X255300D01*
X209700Y62400D02*
Y72300D01*
X201100Y53800D02*
X209700Y62400D01*
X201100Y32200D02*
Y53800D01*
Y32200D02*
X204500Y28800D01*
X226604D01*
X265996Y56500D02*
Y69200D01*
Y43700D02*
Y56500D01*
X239596Y42196D02*
X239700Y42300D01*
X239596Y28800D02*
Y42196D01*
X172791Y231600D02*
X217000D01*
X171300Y228000D02*
X215300D01*
X245600Y218600D02*
X251799Y212401D01*
Y208299D02*
Y212401D01*
X212200Y224400D02*
X221799Y214801D01*
X168200Y224400D02*
X212200D01*
X70177Y98499D02*
X76800Y105122D01*
Y118100D01*
X80000Y121300D01*
X92200D01*
X98103Y127203D01*
Y128999D01*
X44177Y112799D02*
Y128999D01*
Y103123D02*
Y112799D01*
Y103123D02*
X48801Y98499D01*
X70177D01*
X138100Y140500D02*
X139600Y142000D01*
X143200Y160803D02*
X147896Y165499D01*
X143200Y141800D02*
Y160803D01*
Y141800D02*
X144500Y140500D01*
X151046D01*
X131754D02*
X138100D01*
X44177Y185177D02*
Y188799D01*
X157419Y241881D02*
X171300Y228000D01*
X144169Y241881D02*
X157419D01*
X146528Y231100D02*
X161500D01*
X168200Y224400D01*
X144169Y228742D02*
X146528Y231100D01*
X166200Y238191D02*
X172791Y231600D01*
X221799Y208299D02*
Y214801D01*
X166200Y238191D02*
Y247300D01*
X144169Y268160D02*
X145340D01*
X281890Y299790D02*
X287000Y304900D01*
X319700D01*
X329303Y295297D01*
X151046Y140500D02*
Y145500D01*
X244333Y136867D02*
X246724Y134476D01*
X185154Y142250D02*
X198604Y155700D01*
X211596Y142708D01*
X241404Y143938D02*
Y161300D01*
X252704Y122300D02*
Y131999D01*
X217400Y165200D02*
X219600Y163000D01*
X229300Y227800D02*
X229600Y227500D01*
D12*
X235229Y169129D02*
G03*
X232300Y162058I7071J-7071D01*
G01*
X229371Y123071D02*
G03*
X232251Y129151I-7071J7071D01*
G01*
X216913Y113300D02*
G03*
X221500Y115200I0J6487D01*
G01*
X184042Y113300D02*
G03*
X176971Y110371I0J-10000D01*
G01*
X128729Y62129D02*
G03*
X125800Y55058I7071J-7071D01*
G01*
Y42042D02*
G03*
X128729Y34971I10000J0D01*
G01*
X133465Y26093D02*
G03*
X133376Y27424I-10000J0D01*
G01*
D02*
G03*
X130536Y33164I-9911J-1331D01*
G01*
X160200Y271134D02*
G03*
X163129Y264063I10000J0D01*
G01*
X221799Y241759D02*
G03*
X218870Y248830I-10000J0D01*
G01*
X217529Y250171D02*
G03*
X210458Y253100I-7071J-7071D01*
G01*
X149429Y299771D02*
G03*
X142358Y302700I-7071J-7071D01*
G01*
X160200Y284858D02*
G03*
X157271Y291929I-10000J0D01*
G01*
X154200Y269642D02*
G03*
X157129Y262571I10000J0D01*
G01*
X154200Y280558D02*
G03*
X151271Y287629I-10000J0D01*
G01*
X211799Y240744D02*
G03*
X209850Y245450I-6655J0D01*
G01*
X209846Y245454D02*
G03*
X203694Y248000I-6152J-6160D01*
G01*
X168771Y250929D02*
G03*
X175842Y248000I7071J7071D01*
G01*
X104642Y298900D02*
G03*
X97571Y295971I0J-10000D01*
G01*
X142929D02*
G03*
X135858Y298900I-7071J-7071D01*
G01*
X93129Y291529D02*
G03*
X90200Y284458I7071J-7071D01*
G01*
X209850Y245450D02*
G03*
X209846Y245454I-6156J-6156D01*
G01*
X232251Y129151D02*
G03*
X232300Y130142I-9951J991D01*
G01*
X235229Y169129D02*
X241799Y175699D01*
X232300Y130142D02*
Y162058D01*
X221500Y115200D02*
X229371Y123071D01*
X184042Y113300D02*
X216913D01*
X128729Y62129D02*
X176971Y110371D01*
X125800Y42042D02*
Y55058D01*
X133465Y21654D02*
Y26093D01*
X128729Y34971D02*
X130536Y33164D01*
X95300Y242300D02*
X101996D01*
X103796D02*
X104696Y241400D01*
X96400Y268400D02*
X104817D01*
X105117Y268100D01*
X182115Y253100D02*
X210458D01*
X160200Y271134D02*
Y284858D01*
X163129Y264063D02*
X174167Y253026D01*
X221799Y238799D02*
Y241759D01*
X217529Y250171D02*
X218870Y248830D01*
X137630Y302700D02*
X142358D01*
X149429Y299771D02*
X157271Y291929D01*
X157129Y262571D02*
X168771Y250929D01*
X175842Y248000D02*
X203694D01*
X142929Y295971D02*
X151271Y287629D01*
X154200Y269642D02*
Y280558D01*
X211799Y238799D02*
Y240744D01*
X104642Y298900D02*
X135858D01*
X93129Y291529D02*
X97571Y295971D01*
X90200Y261400D02*
Y284458D01*
X83169Y289769D02*
X96161Y302761D01*
X137569D02*
X137630Y302700D01*
X96161Y302761D02*
X137569D01*
X174167Y253026D02*
X182041D01*
X182115Y253100D01*
X101996Y242300D02*
X102396Y241900D01*
X102496Y242000D01*
X102996Y241500D01*
X103796Y242300D01*
X33000Y228800D02*
Y237000D01*
X27113Y222913D02*
X33000Y228800D01*
X21654Y222913D02*
X27113D01*
X83169Y281299D02*
Y289769D01*
X34700Y181500D02*
X36800Y183600D01*
X27600Y181500D02*
X34700D01*
X26187Y182913D02*
X27600Y181500D01*
X21654Y182913D02*
X26187D01*
X36800Y183600D02*
Y213300D01*
X241799Y175699D02*
Y178299D01*
X272400Y154304D02*
Y186300D01*
X265696Y147600D02*
X272400Y154304D01*
Y186300D02*
X280399Y194299D01*
X282299D01*
X297400Y157100D02*
X298200Y157900D01*
X297400Y66600D02*
Y157100D01*
X205200Y220700D02*
X211799Y214101D01*
X164800Y220700D02*
X205200D01*
X36800Y213300D02*
X39299Y215799D01*
X33000Y237000D02*
X37881Y241881D01*
X44177D01*
X160000Y225500D02*
X164800Y220700D01*
X156900Y225500D02*
X160000D01*
X211799Y208299D02*
Y214101D01*
X83169Y228742D02*
X93858D01*
X83820Y255020D02*
X90200Y261400D01*
X83169Y255020D02*
X83820D01*
X94899Y215799D02*
X105177D01*
X104696Y241400D02*
X105177Y241881D01*
X39299Y215799D02*
X44177D01*
X105117Y268100D02*
X105177Y268160D01*
X83169Y188799D02*
Y201299D01*
Y216299D02*
Y228742D01*
Y241881D02*
Y255020D01*
Y268160D02*
Y281299D01*
X31660Y268160D02*
X44177D01*
X21654Y258154D02*
X31660Y268160D01*
X21654Y242913D02*
Y258154D01*
D13*
X208961Y284261D02*
G03*
X211890Y291332I-7071J7071D01*
G01*
X241799Y242059D02*
G03*
X238870Y249130I-10000J0D01*
G01*
X230329Y257671D02*
G03*
X223258Y260600I-7071J-7071D01*
G01*
X198058Y277500D02*
G03*
X205129Y280429I0J10000D01*
G01*
X182401Y277500D02*
G03*
X175400Y274600I0J-9901D01*
G01*
D02*
G03*
X173200Y269289I5311J-5311D01*
G01*
Y266787D02*
G03*
X174600Y263407I4780J0D01*
G01*
X176053Y261953D02*
G03*
X179321Y260600I3267J3267D01*
G01*
X340841Y74299D02*
G03*
X338786Y74086I0J-10000D01*
G01*
D02*
G03*
X333770Y71370I2056J-9786D01*
G01*
X329429Y67029D02*
G03*
X326500Y59958I7071J-7071D01*
G01*
X323571Y40871D02*
G03*
X326123Y45223I-7071J7071D01*
G01*
X313377Y32477D02*
G03*
X317729Y35029I-2719J9623D01*
G01*
X310658Y32100D02*
G03*
X313377Y32477I0J10000D01*
G01*
X240300Y60000D02*
G03*
X245937Y62334I0J7976D01*
G01*
X223742Y60000D02*
G03*
X218316Y58400I0J-10000D01*
G01*
D02*
G03*
X216671Y57071I5426J-8400D01*
G01*
X259418Y32100D02*
G03*
X252900Y29400I0J-9218D01*
G01*
X212629Y53029D02*
G03*
X209700Y45958I7071J-7071D01*
G01*
X326123Y45223D02*
G03*
X326500Y47942I-9623J2719D01*
G01*
X229990Y55648D02*
G03*
X224646Y54100I0J-10000D01*
G01*
D02*
G03*
X222919Y52719I5345J-8452D01*
G01*
X221900Y51700D02*
G03*
X219700Y46389I5311J-5311D01*
G01*
X240971Y76729D02*
G03*
X242647Y78952I-7071J7071D01*
G01*
X239700Y72300D02*
G03*
X240753Y74841I-2541J2541D01*
G01*
X242647Y78952D02*
G03*
X243900Y83800I-8747J4848D01*
G01*
X245937Y62334D02*
G03*
X245940Y62336I-5637J5643D01*
G01*
X219324Y260600D02*
X223258D01*
X241799Y238799D02*
Y242059D01*
X230329Y257671D02*
X238870Y249130D01*
X205129Y280429D02*
X208961Y284261D01*
X182401Y277500D02*
X198058D01*
X173200Y266787D02*
Y269289D01*
X179321Y260600D02*
X207655D01*
X174600Y263407D02*
X176053Y261953D01*
X198604Y141792D02*
X211596Y128800D01*
X340841Y74299D02*
X342299D01*
X329429Y67029D02*
X333770Y71370D01*
X326500Y47942D02*
Y59958D01*
X317729Y35029D02*
X323571Y40871D01*
X259418Y32100D02*
X310658D01*
X223742Y60000D02*
X240300D01*
X212629Y53029D02*
X216671Y57071D01*
X209700Y42300D02*
Y45958D01*
X211890Y291332D02*
Y293307D01*
X211799Y274199D02*
X221890Y284290D01*
Y293307D01*
X213712Y260659D02*
X213771Y260600D01*
X207714Y260659D02*
X213712D01*
X207655Y260600D02*
X207714Y260659D01*
X213771Y260600D02*
X216373D01*
X219261Y260663D02*
X219324Y260600D01*
X216436Y260663D02*
X219261D01*
X216373Y260600D02*
X216436Y260663D01*
X229990Y55648D02*
X252152D01*
X221900Y51700D02*
X222919Y52719D01*
X219700Y42300D02*
Y46389D01*
X240753Y76511D02*
X240971Y76729D01*
X240753Y74841D02*
Y76511D01*
X253400Y79400D02*
Y80600D01*
X251500Y77500D02*
X253400Y79400D01*
X251500Y70904D02*
Y77500D01*
X252152Y55648D02*
X253004Y56500D01*
X245940Y62336D02*
X253004Y69400D01*
X251500Y70904D02*
X253004Y69400D01*
X198604Y141792D02*
Y142600D01*
X118169Y197269D02*
Y201299D01*
X112700Y191800D02*
X118169Y197269D01*
X96300Y191800D02*
X112700D01*
X111700Y254900D02*
Y274776D01*
X105177Y281299D02*
X111700Y274776D01*
X90600Y197500D02*
X96300Y191800D01*
X90600Y197500D02*
Y206500D01*
X87900Y209200D02*
X90600Y206500D01*
X211799Y268799D02*
Y274199D01*
X223400Y133300D02*
Y176698D01*
X218900Y128800D02*
X223400Y133300D01*
X221799Y178299D02*
X223400Y176698D01*
X76800Y209500D02*
Y215600D01*
Y195422D02*
Y209500D01*
X77100Y209200D01*
X87900D01*
X70177Y188799D02*
X81176Y177800D01*
X98003D01*
X136000Y291600D02*
X137700Y289900D01*
Y274683D02*
Y289900D01*
X131177Y268160D02*
X137700Y274683D01*
X44100Y281376D02*
X44177Y281299D01*
X44100Y281376D02*
Y293200D01*
X108600Y284722D02*
Y293200D01*
X105177Y281299D02*
X108600Y284722D01*
X183296Y156300D02*
X188300Y161304D01*
X70177Y188799D02*
X76800Y195422D01*
X211596Y128800D02*
X218900D01*
X86600Y140500D02*
X131754D01*
X83169Y143931D02*
X86600Y140500D01*
X50800Y207922D02*
Y228800D01*
X44177Y201299D02*
X50800Y207922D01*
X83169Y143931D02*
Y145899D01*
X157800Y216800D02*
X174499D01*
X148877Y207877D02*
X157800Y216800D01*
X183000Y208299D02*
X191799D01*
X181799D02*
X183000D01*
X131177Y207877D02*
X148877D01*
X191799Y208299D02*
X201799D01*
X191799Y268799D02*
X201799D01*
X181799D02*
X191799D01*
X241799Y293216D02*
X241890Y293307D01*
X241799Y268799D02*
Y293216D01*
X251799D02*
X251890Y293307D01*
X251799Y268799D02*
Y293216D01*
X131177Y207877D02*
Y215799D01*
X124599Y201299D02*
X131177Y207877D01*
X118169Y201299D02*
X124599D01*
X137700Y241980D02*
Y261637D01*
Y222322D02*
Y241980D01*
X137602Y241881D02*
X137700Y241980D01*
X131177Y241881D02*
X137602D01*
X131177Y268160D02*
X137700Y261637D01*
X131177Y215799D02*
X137700Y222322D01*
X111700Y228600D02*
Y254900D01*
X111580Y255020D02*
X111700Y254900D01*
X105177Y255020D02*
X111580D01*
X111700Y207822D02*
Y228600D01*
X111558Y228742D02*
X111700Y228600D01*
X105177Y228742D02*
X111558D01*
X105177Y201299D02*
X111700Y207822D01*
X76800Y241400D02*
Y264400D01*
Y215600D02*
Y241400D01*
X76319Y241881D02*
X76800Y241400D01*
X70177Y241881D02*
X76319D01*
X76101Y216299D02*
X76800Y215600D01*
X70177Y216299D02*
X76101D01*
X73040Y268160D02*
X76800Y264400D01*
X70177Y268160D02*
X73040D01*
X50800Y254500D02*
Y277400D01*
Y228800D02*
Y254500D01*
X50279Y255020D02*
X50800Y254500D01*
X44177Y255020D02*
X50279D01*
X50742Y228742D02*
X50800Y228800D01*
X44177Y228742D02*
X50742D01*
X46901Y281299D02*
X50800Y277400D01*
X44177Y281299D02*
X46901D01*
X221799Y268799D02*
Y273599D01*
X231890Y283690D01*
Y293307D01*
X151046Y150500D02*
Y155500D01*
X174499Y216800D02*
X183000Y208299D01*
D14*
X232629Y82529D02*
G03*
X229700Y75458I7071J-7071D01*
G01*
X232629Y82529D02*
X233900Y83800D01*
X229700Y72300D02*
Y75458D01*
D15*
X219700Y78558D02*
G03*
X216771Y85629I-10000J0D01*
G01*
X199757Y102643D02*
G03*
X192686Y105572I-7071J-7071D01*
G01*
X199757Y102643D02*
X216771Y85629D01*
X219700Y72300D02*
Y78558D01*
X192272Y105572D02*
X192686D01*
X192272D02*
X194122Y103722D01*
X118169Y228742D02*
X118169Y228742D01*
X118169Y255020D02*
X118169Y255020D01*
X131177Y281299D02*
X131177Y281299D01*
X118169Y281299D02*
X118169Y281299D01*
X282299Y244299D02*
X285001D01*
X290000Y239300D01*
X301500D01*
X306800Y244600D01*
Y265302D01*
X305303Y266799D02*
X306800Y265302D01*
D16*
X253004Y43700D02*
D03*
X265996D02*
D03*
X226604Y28800D02*
D03*
X239596D02*
D03*
X278104Y260600D02*
D03*
X291096D02*
D03*
X118169Y201299D02*
D03*
X105177D02*
D03*
X251696Y227800D02*
D03*
X238704D02*
D03*
X147896Y165499D02*
D03*
X134904D02*
D03*
X70177Y98499D02*
D03*
X83169D02*
D03*
X252704Y122300D02*
D03*
X265696D02*
D03*
X211496Y141000D02*
D03*
X198504D02*
D03*
X252704Y131999D02*
D03*
X265696D02*
D03*
Y112800D02*
D03*
X252704D02*
D03*
X110995Y177800D02*
D03*
X98003D02*
D03*
X254396Y161300D02*
D03*
X241404D02*
D03*
X318295Y281299D02*
D03*
X305303D02*
D03*
X83169Y216299D02*
D03*
X70177D02*
D03*
Y268160D02*
D03*
X83169D02*
D03*
X144169D02*
D03*
X131177D02*
D03*
Y215799D02*
D03*
X144169D02*
D03*
X83169Y241881D02*
D03*
X70177D02*
D03*
Y188799D02*
D03*
X83169D02*
D03*
X144169Y241881D02*
D03*
X131177D02*
D03*
X118169Y268160D02*
D03*
X105177D02*
D03*
X253004Y69400D02*
D03*
X265996D02*
D03*
Y56500D02*
D03*
X253004D02*
D03*
X111095Y146899D02*
D03*
X98103D02*
D03*
X265696Y147600D02*
D03*
X252704D02*
D03*
X318295Y266799D02*
D03*
X305303D02*
D03*
X83169Y166499D02*
D03*
X70177D02*
D03*
X70277Y146899D02*
D03*
X83269D02*
D03*
X57169Y166499D02*
D03*
X44177D02*
D03*
X57169Y255020D02*
D03*
X44177D02*
D03*
X98003Y112799D02*
D03*
X110995D02*
D03*
X83169Y281299D02*
D03*
X70177D02*
D03*
Y112799D02*
D03*
X83169D02*
D03*
X144169Y281299D02*
D03*
X131177D02*
D03*
X70177Y228742D02*
D03*
X83169D02*
D03*
X57169Y112799D02*
D03*
X44177D02*
D03*
Y228742D02*
D03*
X57169D02*
D03*
X144169Y255020D02*
D03*
X131177D02*
D03*
X171404Y128800D02*
D03*
X184396D02*
D03*
X144169Y228742D02*
D03*
X131177D02*
D03*
X70177Y255020D02*
D03*
X83169D02*
D03*
X171304Y140650D02*
D03*
X184296D02*
D03*
X105177Y255020D02*
D03*
X118169D02*
D03*
X184196Y153400D02*
D03*
X171204D02*
D03*
X70177Y201299D02*
D03*
X83169D02*
D03*
X118169Y228742D02*
D03*
X105177D02*
D03*
X98003Y166499D02*
D03*
X110995D02*
D03*
X83269Y128999D02*
D03*
X70277D02*
D03*
X98103D02*
D03*
X111095D02*
D03*
X342295Y266799D02*
D03*
X329303D02*
D03*
X211396Y153400D02*
D03*
X198404D02*
D03*
X57169Y128999D02*
D03*
X44177D02*
D03*
X110995Y98499D02*
D03*
X98003D02*
D03*
X211596Y128800D02*
D03*
X198604D02*
D03*
X57169Y201299D02*
D03*
X44177D02*
D03*
Y281299D02*
D03*
X57169D02*
D03*
X118169D02*
D03*
X105177D02*
D03*
X329303D02*
D03*
X342295D02*
D03*
X57169Y241881D02*
D03*
X44177D02*
D03*
Y215799D02*
D03*
X57169D02*
D03*
X118169Y241881D02*
D03*
X105177D02*
D03*
X44177Y188799D02*
D03*
X57169D02*
D03*
Y268160D02*
D03*
X44177D02*
D03*
X118169Y215799D02*
D03*
X105177D02*
D03*
D17*
X23622Y23622D02*
D03*
Y291339D02*
D03*
X370079D02*
D03*
D18*
X151046Y125500D02*
D03*
Y130500D02*
D03*
Y135500D02*
D03*
Y140500D02*
D03*
Y145500D02*
D03*
Y150500D02*
D03*
Y155500D02*
D03*
X131754Y125500D02*
D03*
Y130500D02*
D03*
Y135500D02*
D03*
Y140500D02*
D03*
Y145500D02*
D03*
Y150500D02*
D03*
Y155500D02*
D03*
D19*
X98003Y145899D02*
Y147797D01*
X232200Y198000D02*
X260200D01*
X228500Y201700D02*
X232200Y198000D01*
X208100Y201700D02*
X228500D01*
X121100Y90300D02*
X147771Y116971D01*
X185167D01*
X185238Y116900D02*
X214909D01*
X185167Y116971D02*
X185238Y116900D01*
X214909D02*
X227800Y129791D01*
Y174300D01*
X231799Y178299D01*
X171404Y128800D02*
Y142250D01*
X170200Y155700D02*
X171404D01*
X163500Y149000D02*
X170200Y155700D01*
X163500Y141500D02*
Y149000D01*
X157500Y135500D02*
X163500Y141500D01*
X151046Y135500D02*
X157500D01*
X90170Y135900D02*
X104194D01*
X83269Y128999D02*
X90170Y135900D01*
X57169Y166400D02*
X70078D01*
X122200Y150500D02*
X131754D01*
X115800Y156900D02*
X122200Y150500D01*
X79776Y156900D02*
X115800D01*
X110995Y145899D02*
X131355D01*
X70177Y146900D02*
Y148777D01*
X64000Y146900D02*
X70177D01*
X50600Y160300D02*
X64000Y146900D01*
X50600Y160300D02*
Y175400D01*
X117596Y135500D02*
X131754D01*
X111095Y128999D02*
X117596Y135500D01*
X57169Y128999D02*
Y141531D01*
X56900Y141800D02*
X57169Y141531D01*
X42300Y141700D02*
Y142900D01*
X32287Y152913D02*
X42300Y142900D01*
X21654Y162913D02*
X30065D01*
X50700Y119269D02*
Y142278D01*
X30065Y162913D02*
X50700Y142278D01*
X276499Y214299D02*
X282299D01*
X260200Y198000D02*
X276499Y214299D01*
X201800Y195400D02*
X208100Y201700D01*
X201800Y185000D02*
Y195400D01*
X211596Y155700D02*
Y163104D01*
X207400Y167300D02*
X211596Y163104D01*
X254750Y191100D02*
X261750Y184100D01*
X226600Y191100D02*
X254750D01*
X176500Y167300D02*
X207400D01*
X171404Y162204D02*
X176500Y167300D01*
X30900Y188000D02*
Y198600D01*
X180300Y120700D02*
X184900Y125300D01*
X162800Y120700D02*
X180300D01*
X171404Y155700D02*
Y162204D01*
X181799Y178299D02*
Y184701D01*
X177500Y189000D02*
X181799Y184701D01*
X201799Y184999D02*
Y192701D01*
X225700Y192000D02*
X226600Y191100D01*
X225700Y192000D02*
X226700Y193000D01*
X224600D02*
X226700D01*
X261750Y184100D02*
X266700D01*
X201799Y184999D02*
X201800Y185000D01*
X197700Y196800D02*
X201799Y192701D01*
Y178299D02*
Y184999D01*
X164700Y189000D02*
X177500D01*
X156900Y196800D02*
X164700Y189000D01*
X103200Y90300D02*
X121100D01*
X98003Y95497D02*
X103200Y90300D01*
X98003Y95497D02*
Y98499D01*
X21654Y152913D02*
X32287D01*
X184396Y128800D02*
X198604D01*
X184396D02*
X184900Y128296D01*
Y125300D02*
Y128296D01*
X158000Y125500D02*
X162800Y120700D01*
X151046Y125500D02*
X158000D01*
X169704Y130500D02*
X171404Y128800D01*
X151046Y130500D02*
X169704D01*
X83169Y98499D02*
X98003D01*
X127500Y125500D02*
X131754D01*
X114799Y112799D02*
X127500Y125500D01*
X110995Y112799D02*
X114799D01*
X110995Y98499D02*
Y112799D01*
X125900Y130500D02*
X131754D01*
X116200Y120800D02*
X125900Y130500D01*
X102000Y120800D02*
X116200D01*
X98003Y116803D02*
X102000Y120800D01*
X98003Y112799D02*
Y116803D01*
X83169Y112799D02*
X98003D01*
X104194Y135900D02*
X111095Y128999D01*
X57169D02*
X70277D01*
X50700Y119269D02*
X57169Y112799D01*
X70177D01*
X131355Y145899D02*
X131754Y145500D01*
X70078Y166400D02*
X70177Y166499D01*
X48500Y177500D02*
X50600Y175400D01*
X70177Y148777D02*
X74600Y153200D01*
X92600D01*
X98003Y147797D01*
X89368Y160300D02*
X104796D01*
X83169Y166499D02*
X89368Y160300D01*
X70177Y166499D02*
X79776Y156900D01*
X110995Y166499D02*
X114501D01*
X125500Y155500D01*
X131754D01*
X104796Y160300D02*
X110995Y166499D01*
X30900Y198600D02*
X31100Y198800D01*
X26987Y202913D02*
X31100Y198800D01*
X21654Y202913D02*
X26987D01*
X168900Y204900D02*
X177000Y196800D01*
X156900D02*
Y204000D01*
X177000Y196800D02*
X197700D01*
D20*
X230537Y194700D02*
X263800D01*
X226837Y198400D02*
X230537Y194700D01*
X212500Y198400D02*
X226837D01*
X207300Y190100D02*
Y193200D01*
X212500Y198400D01*
X273399Y204299D02*
X282299D01*
X263800Y194700D02*
X273399Y204299D01*
X362587Y132913D02*
X372047D01*
X363587Y142913D02*
X372047D01*
X342299Y244299D02*
X351401D01*
X162200Y210600D02*
X162300Y210500D01*
Y200200D02*
X169600Y192900D01*
X162300Y200200D02*
Y210500D01*
X169600Y192900D02*
X188500D01*
X191799Y189601D01*
Y178299D02*
Y189601D01*
X351401Y244299D02*
X363300Y232400D01*
X350400Y145100D02*
X362587Y132913D01*
X353600Y152900D02*
X363587Y142913D01*
X363300Y176000D02*
Y232400D01*
Y176000D02*
X366387Y172913D01*
X372047D01*
X356900Y160700D02*
X364687Y152913D01*
X372047D01*
X360100Y167500D02*
X364687Y162913D01*
X372047D01*
X342299Y214299D02*
X348801D01*
X353600Y209500D01*
Y152900D02*
Y209500D01*
X350400Y145100D02*
Y171400D01*
X342299Y174299D02*
X347501D01*
X350400Y171400D01*
X342299Y234299D02*
X351001D01*
X360100Y225200D01*
Y167500D02*
Y225200D01*
X342299Y224299D02*
X349401D01*
X356900Y216800D01*
Y160700D02*
Y216800D01*
D21*
X144169Y268160D02*
Y281299D01*
Y215799D02*
Y228742D01*
Y241881D02*
Y255020D01*
X118169Y228742D02*
X131177D01*
X118169Y215799D02*
Y228742D01*
X118169Y255020D02*
X131177D01*
X118169Y241881D02*
Y255020D01*
X118169Y281299D02*
X131177D01*
X118169Y268160D02*
Y281299D01*
X57169Y201299D02*
X70177D01*
X57169Y188799D02*
Y201299D01*
X57169Y228742D02*
X70177D01*
X57169Y215799D02*
Y228742D01*
X57169Y255020D02*
X70177D01*
X57169Y241881D02*
Y255020D01*
X57169Y281299D02*
X70177D01*
X57169Y268160D02*
Y281299D01*
D22*
X0Y0D02*
Y314961D01*
X393701D01*
Y0D02*
Y314961D01*
X0Y0D02*
X393701D01*
D23*
X399834Y312399D02*
X404499D01*
X402166D01*
Y305402D01*
X410330Y312399D02*
X407998D01*
X406832Y311233D01*
Y306568D01*
X407998Y305402D01*
X410330D01*
X411497Y306568D01*
Y311233D01*
X410330Y312399D01*
X413829Y305402D02*
Y312399D01*
X417328D01*
X418495Y311233D01*
Y308900D01*
X417328Y307734D01*
X413829D01*
X427825Y312399D02*
Y305402D01*
X432490D01*
X434823D02*
Y310067D01*
X437155Y312399D01*
X439488Y310067D01*
Y305402D01*
Y308900D01*
X434823D01*
X441820Y312399D02*
Y311233D01*
X444153Y308900D01*
X446486Y311233D01*
Y312399D01*
X444153Y308900D02*
Y305402D01*
X453483Y312399D02*
X448818D01*
Y305402D01*
X453483D01*
X448818Y308900D02*
X451151D01*
X455816Y305402D02*
Y312399D01*
X459315D01*
X460481Y311233D01*
Y308900D01*
X459315Y307734D01*
X455816D01*
X458148D02*
X460481Y305402D01*
X474476Y311233D02*
X473310Y312399D01*
X470977D01*
X469811Y311233D01*
Y306568D01*
X470977Y305402D01*
X473310D01*
X474476Y306568D01*
X476809Y312399D02*
Y306568D01*
X477975Y305402D01*
X480308D01*
X481474Y306568D01*
Y312399D01*
D24*
X25832Y43965D02*
X24999Y44798D01*
X23333D01*
X22500Y43965D01*
Y40633D01*
X23333Y39800D01*
X24999D01*
X25832Y40633D01*
X29998Y44798D02*
X28331D01*
X27498Y43965D01*
Y40633D01*
X28331Y39800D01*
X29998D01*
X30831Y40633D01*
Y43965D01*
X29998Y44798D01*
X32497Y39800D02*
Y44798D01*
X34163Y43132D01*
X35829Y44798D01*
Y39800D01*
X37495D02*
Y44798D01*
X39994D01*
X40827Y43965D01*
Y42299D01*
X39994Y41466D01*
X37495D01*
X44993Y44798D02*
X43327D01*
X42494Y43965D01*
Y40633D01*
X43327Y39800D01*
X44993D01*
X45826Y40633D01*
Y43965D01*
X44993Y44798D01*
X47492Y39800D02*
Y44798D01*
X50824Y39800D01*
Y44798D01*
X55822D02*
X52490D01*
Y39800D01*
X55822D01*
X52490Y42299D02*
X54156D01*
X57489Y39800D02*
Y44798D01*
X60821Y39800D01*
Y44798D01*
X62487D02*
X65819D01*
X64153D01*
Y39800D01*
X75816Y43965D02*
X74983Y44798D01*
X73317D01*
X72484Y43965D01*
Y43132D01*
X73317Y42299D01*
X74983D01*
X75816Y41466D01*
Y40633D01*
X74983Y39800D01*
X73317D01*
X72484Y40633D01*
X77482Y44798D02*
X79148D01*
X78315D01*
Y39800D01*
X77482D01*
X79148D01*
X81647Y44798D02*
Y39800D01*
X84147D01*
X84980Y40633D01*
Y43965D01*
X84147Y44798D01*
X81647D01*
X89978D02*
X86646D01*
Y39800D01*
X89978D01*
X86646Y42299D02*
X88312D01*
D25*
X46900Y155000D02*
D03*
X9200Y56900D02*
D03*
X8300Y152200D02*
D03*
X8500Y225500D02*
D03*
X49900Y307700D02*
D03*
X79700Y307500D02*
D03*
X172500Y306300D02*
D03*
X249500Y306600D02*
D03*
X297400Y8300D02*
D03*
X384700Y138100D02*
D03*
X383300Y263600D02*
D03*
X357500Y271300D02*
D03*
X151400Y103800D02*
D03*
X330800Y122500D02*
D03*
Y145500D02*
D03*
X176900Y91300D02*
D03*
X130500Y196300D02*
D03*
X142500Y198200D02*
D03*
X321900Y205800D02*
D03*
X320400Y227700D02*
D03*
X245300Y129000D02*
D03*
X226000Y100300D02*
D03*
X207400Y18100D02*
D03*
X167400Y46600D02*
D03*
X69000Y19200D02*
D03*
X49300Y61600D02*
D03*
X91700Y58100D02*
D03*
X253400Y80600D02*
D03*
X95300Y241881D02*
D03*
X96400Y207300D02*
D03*
X56900Y141800D02*
D03*
X42300Y141700D02*
D03*
X265700Y102900D02*
D03*
X269700Y79200D02*
D03*
X229600Y227800D02*
D03*
X217400Y164700D02*
D03*
X157200Y165900D02*
D03*
X188000Y161800D02*
D03*
X33400Y167800D02*
D03*
X30900Y188000D02*
D03*
X35900Y135600D02*
D03*
X128300Y178800D02*
D03*
X136000Y291600D02*
D03*
X108600Y293200D02*
D03*
X169700Y181800D02*
D03*
X215600Y189300D02*
D03*
X207300Y190100D02*
D03*
X224600Y193000D02*
D03*
X265500Y174700D02*
D03*
X266700Y184100D02*
D03*
X318400Y85800D02*
D03*
X319900Y167000D02*
D03*
X299100Y246800D02*
D03*
X298200Y157900D02*
D03*
X297400Y66600D02*
D03*
X310500Y41000D02*
D03*
X252900Y29400D02*
D03*
X48500Y177500D02*
D03*
X156900Y225500D02*
D03*
X162200Y210600D02*
D03*
X168900Y204900D02*
D03*
X156900Y204000D02*
D03*
X93858Y228742D02*
D03*
X96400Y268160D02*
D03*
X94899Y215799D02*
D03*
D26*
X133465Y21654D02*
D03*
X201890Y293307D02*
D03*
X271024Y21654D02*
D03*
D27*
X123465D02*
D03*
X113465D02*
D03*
X103465D02*
D03*
X211890Y293307D02*
D03*
X231890D02*
D03*
X241890D02*
D03*
X251890D02*
D03*
X261890D02*
D03*
X271890D02*
D03*
X281890D02*
D03*
X291890D02*
D03*
X221890D02*
D03*
X281024Y21654D02*
D03*
X301024D02*
D03*
X311024D02*
D03*
X321024D02*
D03*
X331024D02*
D03*
X341024D02*
D03*
X351024D02*
D03*
X361024D02*
D03*
X291024D02*
D03*
D28*
X372047Y52913D02*
D03*
Y62913D02*
D03*
Y72913D02*
D03*
Y82913D02*
D03*
Y92913D02*
D03*
Y102913D02*
D03*
Y112913D02*
D03*
Y122913D02*
D03*
Y132913D02*
D03*
Y142913D02*
D03*
Y152913D02*
D03*
Y162913D02*
D03*
Y172913D02*
D03*
Y182913D02*
D03*
Y192913D02*
D03*
Y202913D02*
D03*
Y212913D02*
D03*
Y222913D02*
D03*
Y232913D02*
D03*
X21654D02*
D03*
Y222913D02*
D03*
Y212913D02*
D03*
Y202913D02*
D03*
Y192913D02*
D03*
Y182913D02*
D03*
Y172913D02*
D03*
Y162913D02*
D03*
Y152913D02*
D03*
Y142913D02*
D03*
Y132913D02*
D03*
Y122913D02*
D03*
Y112913D02*
D03*
Y102913D02*
D03*
Y92913D02*
D03*
Y82913D02*
D03*
Y72913D02*
D03*
D29*
X372047Y242913D02*
D03*
X21654D02*
D03*
D30*
X181799Y178299D02*
D03*
X191799D02*
D03*
X201799D02*
D03*
X211799D02*
D03*
X221799D02*
D03*
X231799D02*
D03*
X241799D02*
D03*
X251799D02*
D03*
X181799Y208299D02*
D03*
X191799D02*
D03*
X201799D02*
D03*
X211799D02*
D03*
X221799D02*
D03*
X231799D02*
D03*
X241799D02*
D03*
Y268799D02*
D03*
X231799D02*
D03*
X221799D02*
D03*
X211799D02*
D03*
X201799D02*
D03*
X191799D02*
D03*
X181799D02*
D03*
X251799Y238799D02*
D03*
X241799D02*
D03*
X231799D02*
D03*
X221799D02*
D03*
X211799D02*
D03*
X201799D02*
D03*
X191799D02*
D03*
X181799D02*
D03*
D31*
X251799Y208299D02*
D03*
Y268799D02*
D03*
D32*
X279900Y276000D02*
D03*
X289900D02*
D03*
X69300Y179500D02*
D03*
X44100Y293200D02*
D03*
D33*
X342299Y54299D02*
D03*
Y64299D02*
D03*
Y74299D02*
D03*
Y84299D02*
D03*
Y94299D02*
D03*
Y104299D02*
D03*
Y114299D02*
D03*
Y124299D02*
D03*
Y134299D02*
D03*
Y144299D02*
D03*
Y154299D02*
D03*
Y164299D02*
D03*
Y174299D02*
D03*
Y184299D02*
D03*
Y194299D02*
D03*
Y204299D02*
D03*
Y214299D02*
D03*
Y224299D02*
D03*
Y234299D02*
D03*
Y244299D02*
D03*
X282299Y54299D02*
D03*
Y64299D02*
D03*
Y74299D02*
D03*
Y84299D02*
D03*
Y94299D02*
D03*
Y104299D02*
D03*
Y114299D02*
D03*
Y124299D02*
D03*
Y134299D02*
D03*
Y144299D02*
D03*
Y154299D02*
D03*
Y164299D02*
D03*
Y174299D02*
D03*
Y184299D02*
D03*
Y194299D02*
D03*
Y204299D02*
D03*
Y214299D02*
D03*
Y224299D02*
D03*
Y234299D02*
D03*
D34*
Y244299D02*
D03*
D35*
X233900Y83800D02*
D03*
X243900D02*
D03*
X209700Y42300D02*
D03*
X219700D02*
D03*
X229700D02*
D03*
X239700D02*
D03*
X209700Y72300D02*
D03*
X219700D02*
D03*
X229700D02*
D03*
D36*
X192272Y105572D02*
D03*
X135968Y49268D02*
D03*
D37*
X239700Y72300D02*
D03*
M02*
