M48
;Layer_Color=9474304
;FILE_FORMAT=2:5
INCH,LZ
;TYPE=PLATED
T1F00S00C0.02800
T2F00S00C0.03543
T3F00S00C0.03937
%
T01
X00092Y00569
X00493Y00616
X0069Y00192
X00917Y00581
X01674Y00466
X02074Y00181
X02529Y00294
X02974Y00083
X03105Y0041
X02974Y00666
X03184Y00858
X03308Y01225
Y01455
X03199Y0167
X02982Y01579
X02655Y01747
X02667Y01841
X02453Y0129
X02657Y01029
X02697Y00792
X02534Y00806
X03847Y01381
X03219Y02058
X03204Y02277
X02296Y02278
X02246Y0193
X02156Y01893
X02073Y01901
X02174Y01647
X0188Y01618
X01572Y01659
X01697Y01818
X01689Y02049
X01622Y02106
X01569Y0204
X01425Y01982
X01305Y01963
X01283Y01788
X00964Y02073
X0094899Y0215799
X0093858Y0228742
X01569Y02255
X01514Y01038
X01769Y00913
X0226Y01003
X00569Y01418
X00423Y01417
X00359Y01356
X00469Y0155
X00485Y01775
X00334Y01678
X00309Y0188
X00083Y01522
X00085Y02255
X00499Y03077
X00797Y03075
X01086Y02932
X0136Y02916
X01725Y03063
X00964Y026816
X00953Y0241881
X02991Y02468
X03575Y02713
X03833Y02636
X02495Y03066
T02
X0021654Y0072913
X0103465Y0021654
X0113465
X0123465
X0133465
X02097Y00423
X02197
X02297
Y00723
X02197
X02097
X02397
Y00423
X0271024Y0021654
X0281024
X0291024
X0301024
X0311024
X0321024
X0331024
X0341024
X0351024
X0361024
X0372047Y0052913
Y0062913
Y0072913
X0342299Y0074299
Y0064299
Y0054299
X0282299
Y0064299
Y0074299
Y0084299
Y0094299
Y0104299
Y0114299
Y0124299
Y0134299
Y0144299
Y0154299
Y0164299
Y0174299
Y0184299
Y0194299
Y0204299
Y0214299
Y0224299
X0251799Y0208299
X0241799
X0231799
Y0178299
X0241799
X0251799
X0342299Y0174299
Y0164299
Y0154299
Y0144299
Y0134299
Y0124299
Y0114299
Y0104299
Y0094299
Y0084299
X0372047Y0082913
Y0092913
Y0102913
Y0112913
Y0122913
Y0132913
Y0142913
Y0152913
Y0162913
Y0172913
Y0182913
Y0192913
Y0202913
Y0212913
Y0222913
X0342299Y0224299
Y0214299
Y0204299
Y0194299
Y0184299
X02439Y00838
X02339
X0221799Y0178299
X0211799
X0201799
X0191799
X0181799
Y0208299
X0191799
X0201799
X0211799
X0221799
X00693Y01795
X0021654Y0182913
Y0192913
Y0202913
Y0212913
Y0222913
Y0172913
Y0162913
Y0152913
Y0142913
Y0132913
Y0122913
Y0112913
Y0102913
Y0092913
Y0082913
Y0232913
Y0242913
X00441Y02932
X020189Y0293307
X021189
X022189
X0221799Y0268799
X0211799
X0201799
X0191799
X0181799
Y0238799
X0191799
X0201799
X0211799
X0221799
X0231799
X0241799
X0251799
Y0268799
X0241799
X0231799
X023189Y0293307
X024189
X025189
X026189
X027189
X028189
X029189
X02899Y0276
X02799
X0282299Y0244299
Y0234299
X0342299
Y0244299
X0372047Y0242913
Y0232913
T03
X0135968Y0049268
X0192272Y0105572
M30
