G04 Layer_Color=128*
%FSLAX25Y25*%
%MOIN*%
G70*
G01*
G75*
%ADD64C,0.00200*%
D64*
X45500Y155000D02*
X48300D01*
X46900Y153600D02*
Y156400D01*
X7800Y56900D02*
X10600D01*
X9200Y55500D02*
Y58300D01*
X6900Y152200D02*
X9700D01*
X8300Y150800D02*
Y153600D01*
X7100Y225500D02*
X9900D01*
X8500Y224100D02*
Y226900D01*
X48500Y307700D02*
X51300D01*
X49900Y306300D02*
Y309100D01*
X78300Y307500D02*
X81100D01*
X79700Y306100D02*
Y308900D01*
X171100Y306300D02*
X173900D01*
X172500Y304900D02*
Y307700D01*
X248100Y306600D02*
X250900D01*
X249500Y305200D02*
Y308000D01*
X296000Y8300D02*
X298800D01*
X297400Y6900D02*
Y9700D01*
X383300Y138100D02*
X386100D01*
X384700Y136700D02*
Y139500D01*
X381900Y263600D02*
X384700D01*
X383300Y262200D02*
Y265000D01*
X356100Y271300D02*
X358900D01*
X357500Y269900D02*
Y272700D01*
X150000Y103800D02*
X152800D01*
X151400Y102400D02*
Y105200D01*
X131693Y21654D02*
X135236D01*
X133465Y19882D02*
Y23425D01*
X121693Y21654D02*
X125236D01*
X123465Y19882D02*
Y23425D01*
X111693Y21654D02*
X115236D01*
X113465Y19882D02*
Y23425D01*
X101693Y21654D02*
X105236D01*
X103465Y19882D02*
Y23425D01*
X370276Y52913D02*
X373819D01*
X372047Y51142D02*
Y54685D01*
X370276Y62913D02*
X373819D01*
X372047Y61142D02*
Y64685D01*
X370276Y72913D02*
X373819D01*
X372047Y71142D02*
Y74685D01*
X370276Y82913D02*
X373819D01*
X372047Y81142D02*
Y84685D01*
X370276Y92913D02*
X373819D01*
X372047Y91142D02*
Y94685D01*
X370276Y102913D02*
X373819D01*
X372047Y101142D02*
Y104685D01*
X370276Y112913D02*
X373819D01*
X372047Y111142D02*
Y114685D01*
X370276Y122913D02*
X373819D01*
X372047Y121142D02*
Y124685D01*
X370276Y132913D02*
X373819D01*
X372047Y131142D02*
Y134685D01*
X370276Y142913D02*
X373819D01*
X372047Y141142D02*
Y144685D01*
X370276Y152913D02*
X373819D01*
X372047Y151142D02*
Y154685D01*
X370276Y162913D02*
X373819D01*
X372047Y161142D02*
Y164685D01*
X370276Y172913D02*
X373819D01*
X372047Y171142D02*
Y174685D01*
X370276Y182913D02*
X373819D01*
X372047Y181142D02*
Y184685D01*
X370276Y192913D02*
X373819D01*
X372047Y191142D02*
Y194685D01*
X370276Y202913D02*
X373819D01*
X372047Y201142D02*
Y204685D01*
X370276Y212913D02*
X373819D01*
X372047Y211142D02*
Y214685D01*
X370276Y222913D02*
X373819D01*
X372047Y221142D02*
Y224685D01*
X370276Y232913D02*
X373819D01*
X372047Y231142D02*
Y234685D01*
X370276Y242913D02*
X373819D01*
X372047Y241142D02*
Y244685D01*
X200118Y293307D02*
X203661D01*
X201890Y291535D02*
Y295079D01*
X210118Y293307D02*
X213662D01*
X211890Y291535D02*
Y295079D01*
X230118Y293307D02*
X233662D01*
X231890Y291535D02*
Y295079D01*
X240118Y293307D02*
X243661D01*
X241890Y291535D02*
Y295079D01*
X250118Y293307D02*
X253661D01*
X251890Y291535D02*
Y295079D01*
X260118Y293307D02*
X263662D01*
X261890Y291535D02*
Y295079D01*
X270118Y293307D02*
X273661D01*
X271890Y291535D02*
Y295079D01*
X280118Y293307D02*
X283662D01*
X281890Y291535D02*
Y295079D01*
X290118Y293307D02*
X293661D01*
X291890Y291535D02*
Y295079D01*
X220118Y293307D02*
X223661D01*
X221890Y291535D02*
Y295079D01*
X269252Y21654D02*
X272795D01*
X271024Y19882D02*
Y23425D01*
X279252Y21654D02*
X282795D01*
X281024Y19882D02*
Y23425D01*
X299252Y21654D02*
X302795D01*
X301024Y19882D02*
Y23425D01*
X309252Y21654D02*
X312795D01*
X311024Y19882D02*
Y23425D01*
X319252Y21654D02*
X322795D01*
X321024Y19882D02*
Y23425D01*
X329252Y21654D02*
X332795D01*
X331024Y19882D02*
Y23425D01*
X339252Y21654D02*
X342795D01*
X341024Y19882D02*
Y23425D01*
X349252Y21654D02*
X352795D01*
X351024Y19882D02*
Y23425D01*
X359252Y21654D02*
X362795D01*
X361024Y19882D02*
Y23425D01*
X289252Y21654D02*
X292795D01*
X291024Y19882D02*
Y23425D01*
X19882Y242913D02*
X23425D01*
X21654Y241142D02*
Y244685D01*
X19882Y232913D02*
X23425D01*
X21654Y231142D02*
Y234685D01*
X19882Y222913D02*
X23425D01*
X21654Y221142D02*
Y224685D01*
X19882Y212913D02*
X23425D01*
X21654Y211142D02*
Y214685D01*
X19882Y202913D02*
X23425D01*
X21654Y201142D02*
Y204685D01*
X19882Y192913D02*
X23425D01*
X21654Y191142D02*
Y194685D01*
X19882Y182913D02*
X23425D01*
X21654Y181142D02*
Y184685D01*
X19882Y172913D02*
X23425D01*
X21654Y171142D02*
Y174685D01*
X19882Y162913D02*
X23425D01*
X21654Y161142D02*
Y164685D01*
X19882Y152913D02*
X23425D01*
X21654Y151142D02*
Y154685D01*
X19882Y142913D02*
X23425D01*
X21654Y141142D02*
Y144685D01*
X19882Y132913D02*
X23425D01*
X21654Y131142D02*
Y134685D01*
X19882Y122913D02*
X23425D01*
X21654Y121142D02*
Y124685D01*
X19882Y112913D02*
X23425D01*
X21654Y111142D02*
Y114685D01*
X19882Y102913D02*
X23425D01*
X21654Y101142D02*
Y104685D01*
X19882Y92913D02*
X23425D01*
X21654Y91142D02*
Y94685D01*
X19882Y82913D02*
X23425D01*
X21654Y81142D02*
Y84685D01*
X19882Y72913D02*
X23425D01*
X21654Y71142D02*
Y74685D01*
X180028Y178299D02*
X183571D01*
X181799Y176528D02*
Y180071D01*
X190028Y178299D02*
X193571D01*
X191799Y176528D02*
Y180071D01*
X200028Y178299D02*
X203571D01*
X201799Y176528D02*
Y180071D01*
X210028Y178299D02*
X213571D01*
X211799Y176528D02*
Y180071D01*
X220028Y178299D02*
X223571D01*
X221799Y176528D02*
Y180071D01*
X230028Y178299D02*
X233571D01*
X231799Y176528D02*
Y180071D01*
X240028Y178299D02*
X243571D01*
X241799Y176528D02*
Y180071D01*
X250028Y178299D02*
X253571D01*
X251799Y176528D02*
Y180071D01*
X180028Y208299D02*
X183571D01*
X181799Y206528D02*
Y210071D01*
X190028Y208299D02*
X193571D01*
X191799Y206528D02*
Y210071D01*
X200028Y208299D02*
X203571D01*
X201799Y206528D02*
Y210071D01*
X210028Y208299D02*
X213571D01*
X211799Y206528D02*
Y210071D01*
X220028Y208299D02*
X223571D01*
X221799Y206528D02*
Y210071D01*
X230028Y208299D02*
X233571D01*
X231799Y206528D02*
Y210071D01*
X240028Y208299D02*
X243571D01*
X241799Y206528D02*
Y210071D01*
X250028Y208299D02*
X253571D01*
X251799Y206528D02*
Y210071D01*
X250028Y268799D02*
X253571D01*
X251799Y267028D02*
Y270571D01*
X240028Y268799D02*
X243571D01*
X241799Y267028D02*
Y270571D01*
X230028Y268799D02*
X233571D01*
X231799Y267028D02*
Y270571D01*
X220028Y268799D02*
X223571D01*
X221799Y267028D02*
Y270571D01*
X210028Y268799D02*
X213571D01*
X211799Y267028D02*
Y270571D01*
X200028Y268799D02*
X203571D01*
X201799Y267028D02*
Y270571D01*
X190028Y268799D02*
X193571D01*
X191799Y267028D02*
Y270571D01*
X180028Y268799D02*
X183571D01*
X181799Y267028D02*
Y270571D01*
X250028Y238799D02*
X253571D01*
X251799Y237028D02*
Y240571D01*
X240028Y238799D02*
X243571D01*
X241799Y237028D02*
Y240571D01*
X230028Y238799D02*
X233571D01*
X231799Y237028D02*
Y240571D01*
X220028Y238799D02*
X223571D01*
X221799Y237028D02*
Y240571D01*
X210028Y238799D02*
X213571D01*
X211799Y237028D02*
Y240571D01*
X200028Y238799D02*
X203571D01*
X201799Y237028D02*
Y240571D01*
X190028Y238799D02*
X193571D01*
X191799Y237028D02*
Y240571D01*
X180028Y238799D02*
X183571D01*
X181799Y237028D02*
Y240571D01*
X329400Y122500D02*
X332200D01*
X330800Y121100D02*
Y123900D01*
X329400Y145500D02*
X332200D01*
X330800Y144100D02*
Y146900D01*
X175500Y91300D02*
X178300D01*
X176900Y89900D02*
Y92700D01*
X129100Y196300D02*
X131900D01*
X130500Y194900D02*
Y197700D01*
X141100Y198200D02*
X143900D01*
X142500Y196800D02*
Y199600D01*
X320500Y205800D02*
X323300D01*
X321900Y204400D02*
Y207200D01*
X319000Y227700D02*
X321800D01*
X320400Y226300D02*
Y229100D01*
X243900Y129000D02*
X246700D01*
X245300Y127600D02*
Y130400D01*
X224600Y100300D02*
X227400D01*
X226000Y98900D02*
Y101700D01*
X206000Y18100D02*
X208800D01*
X207400Y16700D02*
Y19500D01*
X166000Y46600D02*
X168800D01*
X167400Y45200D02*
Y48000D01*
X67600Y19200D02*
X70400D01*
X69000Y17800D02*
Y20600D01*
X47900Y61600D02*
X50700D01*
X49300Y60200D02*
Y63000D01*
X90300Y58100D02*
X93100D01*
X91700Y56700D02*
Y59500D01*
X278128Y276000D02*
X281672D01*
X279900Y274228D02*
Y277772D01*
X288128Y276000D02*
X291672D01*
X289900Y274228D02*
Y277772D01*
X340528Y54299D02*
X344071D01*
X342299Y52528D02*
Y56071D01*
X340528Y64299D02*
X344071D01*
X342299Y62528D02*
Y66071D01*
X340528Y74299D02*
X344071D01*
X342299Y72528D02*
Y76071D01*
X340528Y84299D02*
X344071D01*
X342299Y82528D02*
Y86071D01*
X340528Y94299D02*
X344071D01*
X342299Y92528D02*
Y96071D01*
X340528Y104299D02*
X344071D01*
X342299Y102528D02*
Y106071D01*
X340528Y114299D02*
X344071D01*
X342299Y112528D02*
Y116071D01*
X340528Y124299D02*
X344071D01*
X342299Y122528D02*
Y126071D01*
X340528Y134299D02*
X344071D01*
X342299Y132528D02*
Y136071D01*
X340528Y144299D02*
X344071D01*
X342299Y142528D02*
Y146071D01*
X340528Y154299D02*
X344071D01*
X342299Y152528D02*
Y156071D01*
X340528Y164299D02*
X344071D01*
X342299Y162528D02*
Y166071D01*
X340528Y174299D02*
X344071D01*
X342299Y172528D02*
Y176071D01*
X340528Y184299D02*
X344071D01*
X342299Y182528D02*
Y186071D01*
X340528Y194299D02*
X344071D01*
X342299Y192528D02*
Y196071D01*
X340528Y204299D02*
X344071D01*
X342299Y202528D02*
Y206071D01*
X340528Y214299D02*
X344071D01*
X342299Y212528D02*
Y216071D01*
X340528Y224299D02*
X344071D01*
X342299Y222528D02*
Y226071D01*
X340528Y234299D02*
X344071D01*
X342299Y232528D02*
Y236071D01*
X340528Y244299D02*
X344071D01*
X342299Y242528D02*
Y246071D01*
X280528Y54299D02*
X284071D01*
X282299Y52528D02*
Y56071D01*
X280528Y64299D02*
X284071D01*
X282299Y62528D02*
Y66071D01*
X280528Y74299D02*
X284071D01*
X282299Y72528D02*
Y76071D01*
X280528Y84299D02*
X284071D01*
X282299Y82528D02*
Y86071D01*
X280528Y94299D02*
X284071D01*
X282299Y92528D02*
Y96071D01*
X280528Y104299D02*
X284071D01*
X282299Y102528D02*
Y106071D01*
X280528Y114299D02*
X284071D01*
X282299Y112528D02*
Y116071D01*
X280528Y124299D02*
X284071D01*
X282299Y122528D02*
Y126071D01*
X280528Y134299D02*
X284071D01*
X282299Y132528D02*
Y136071D01*
X280528Y144299D02*
X284071D01*
X282299Y142528D02*
Y146071D01*
X280528Y154299D02*
X284071D01*
X282299Y152528D02*
Y156071D01*
X280528Y164299D02*
X284071D01*
X282299Y162528D02*
Y166071D01*
X280528Y174299D02*
X284071D01*
X282299Y172528D02*
Y176071D01*
X280528Y184299D02*
X284071D01*
X282299Y182528D02*
Y186071D01*
X280528Y194299D02*
X284071D01*
X282299Y192528D02*
Y196071D01*
X280528Y204299D02*
X284071D01*
X282299Y202528D02*
Y206071D01*
X280528Y214299D02*
X284071D01*
X282299Y212528D02*
Y216071D01*
X280528Y224299D02*
X284071D01*
X282299Y222528D02*
Y226071D01*
X280528Y234299D02*
X284071D01*
X282299Y232528D02*
Y236071D01*
X280528Y244299D02*
X284071D01*
X282299Y242528D02*
Y246071D01*
X232128Y83800D02*
X235672D01*
X233900Y82028D02*
Y85572D01*
X242128Y83800D02*
X245672D01*
X243900Y82028D02*
Y85572D01*
X190304Y105572D02*
X194241D01*
X192272Y103604D02*
Y107541D01*
X134000Y49268D02*
X137937D01*
X135968Y47300D02*
Y51237D01*
X207928Y42300D02*
X211472D01*
X209700Y40528D02*
Y44072D01*
X217928Y42300D02*
X221472D01*
X219700Y40528D02*
Y44072D01*
X227928Y42300D02*
X231472D01*
X229700Y40528D02*
Y44072D01*
X237928Y42300D02*
X241472D01*
X239700Y40528D02*
Y44072D01*
X207928Y72300D02*
X211472D01*
X209700Y70528D02*
Y74072D01*
X217928Y72300D02*
X221472D01*
X219700Y70528D02*
Y74072D01*
X227928Y72300D02*
X231472D01*
X229700Y70528D02*
Y74072D01*
X237928Y72300D02*
X241472D01*
X239700Y70528D02*
Y74072D01*
X252000Y80600D02*
X254800D01*
X253400Y79200D02*
Y82000D01*
X93900Y241881D02*
X96700D01*
X95300Y240481D02*
Y243281D01*
X95000Y207300D02*
X97800D01*
X96400Y205900D02*
Y208700D01*
X67528Y179500D02*
X71072D01*
X69300Y177728D02*
Y181272D01*
X55500Y141800D02*
X58300D01*
X56900Y140400D02*
Y143200D01*
X40900Y141700D02*
X43700D01*
X42300Y140300D02*
Y143100D01*
X264300Y102900D02*
X267100D01*
X265700Y101500D02*
Y104300D01*
X268300Y79200D02*
X271100D01*
X269700Y77800D02*
Y80600D01*
X228200Y227800D02*
X231000D01*
X229600Y226400D02*
Y229200D01*
X216000Y164700D02*
X218800D01*
X217400Y163300D02*
Y166100D01*
X155800Y165900D02*
X158600D01*
X157200Y164500D02*
Y167300D01*
X186600Y161800D02*
X189400D01*
X188000Y160400D02*
Y163200D01*
X32000Y167800D02*
X34800D01*
X33400Y166400D02*
Y169200D01*
X29500Y188000D02*
X32300D01*
X30900Y186600D02*
Y189400D01*
X34500Y135600D02*
X37300D01*
X35900Y134200D02*
Y137000D01*
X126900Y178800D02*
X129700D01*
X128300Y177400D02*
Y180200D01*
X134600Y291600D02*
X137400D01*
X136000Y290200D02*
Y293000D01*
X42328Y293200D02*
X45872D01*
X44100Y291428D02*
Y294972D01*
X107200Y293200D02*
X110000D01*
X108600Y291800D02*
Y294600D01*
X168300Y181800D02*
X171100D01*
X169700Y180400D02*
Y183200D01*
X214200Y189300D02*
X217000D01*
X215600Y187900D02*
Y190700D01*
X205900Y190100D02*
X208700D01*
X207300Y188700D02*
Y191500D01*
X223200Y193000D02*
X226000D01*
X224600Y191600D02*
Y194400D01*
X264100Y174700D02*
X266900D01*
X265500Y173300D02*
Y176100D01*
X265300Y184100D02*
X268100D01*
X266700Y182700D02*
Y185500D01*
X317000Y85800D02*
X319800D01*
X318400Y84400D02*
Y87200D01*
X318500Y167000D02*
X321300D01*
X319900Y165600D02*
Y168400D01*
X297700Y246800D02*
X300500D01*
X299100Y245400D02*
Y248200D01*
X296800Y157900D02*
X299600D01*
X298200Y156500D02*
Y159300D01*
X296000Y66600D02*
X298800D01*
X297400Y65200D02*
Y68000D01*
X309100Y41000D02*
X311900D01*
X310500Y39600D02*
Y42400D01*
X251500Y29400D02*
X254300D01*
X252900Y28000D02*
Y30800D01*
X47100Y177500D02*
X49900D01*
X48500Y176100D02*
Y178900D01*
X155500Y225500D02*
X158300D01*
X156900Y224100D02*
Y226900D01*
X160800Y210600D02*
X163600D01*
X162200Y209200D02*
Y212000D01*
X167500Y204900D02*
X170300D01*
X168900Y203500D02*
Y206300D01*
X155500Y204000D02*
X158300D01*
X156900Y202600D02*
Y205400D01*
X92458Y228742D02*
X95258D01*
X93858Y227342D02*
Y230142D01*
X95000Y268160D02*
X97800D01*
X96400Y266760D02*
Y269560D01*
X93499Y215799D02*
X96299D01*
X94899Y214399D02*
Y217199D01*
M02*
