M48
;Layer_Color=9474304
;FILE_FORMAT=2:5
INCH,LZ
;TYPE=PLATED
T1F00S00C0.02800
T2F00S00C0.03000
T3F00S00C0.03543
T4F00S00C0.07874
T5F00S00C0.11811
%
T01
X0626968Y0492126
X0663878
X0700787
X0590059
X055315
X051624
X0479331
X0442421
X0405512
X0405512Y0478346
T02
X0465Y04125
Y04225
X049
Y04125
X0562992Y0412323
Y0422323
X06125Y04225
Y04125
X06375Y0412323
Y0422323
T03
X0479685Y0440945
X0489685
X0499685
X0509685
X0519685
X0529685
X0539685
X0549685
X0559685
X0569685
X0579685
X0589685
X0599685
X0609685
X0619685
X06245Y04005
X06535Y0401
X0639685Y0440945
X0629685
T04
X0413386Y0413386
X0688976
X0413386Y0669291
X0688976
T05
X0440945Y0417323
X0514436
X0587926
X0661417
M30
