%FSLAX25Y25*%
%MOIN*%
G70*
G01*
G75*
G04 Layer_Physical_Order=1*
G04 Layer_Color=255*
%ADD10C,0.06693*%
%ADD11C,0.00787*%
%ADD12C,0.00800*%
%ADD13C,0.03600*%
%ADD14C,0.06000*%
%ADD15C,0.01400*%
%ADD16C,0.01575*%
%ADD17C,0.12598*%
%ADD18C,0.19685*%
%ADD19C,0.11811*%
%ADD20R,0.07500X0.09000*%
%ADD21O,0.07500X0.09000*%
%ADD22O,0.09000X0.07500*%
%ADD23C,0.07500*%
%ADD24C,0.08000*%
D10*
X419291Y492126D02*
G03*
X419291Y492126I-13780J0D01*
G01*
X428642D02*
G03*
X456201Y492126I13780J0D01*
G01*
X419291D02*
G03*
X391732Y492126I-13780J0D01*
G01*
X419291D02*
G03*
X391732Y492126I-13780J0D01*
G01*
X419291D02*
G03*
X391732Y492126I-13780J0D01*
G01*
X428642D02*
G03*
X456201Y492126I13780J0D01*
G01*
X419291D02*
G03*
X391732Y492126I-13780J0D01*
G01*
X456201D02*
G03*
X428642Y492126I-13780J0D01*
G01*
X465551D02*
G03*
X493110Y492126I13780J0D01*
G01*
X465551D02*
G03*
X493110Y492126I13780J0D01*
G01*
X428642D02*
G03*
X456201Y492126I13780J0D01*
G01*
D02*
G03*
X428642Y492126I-13780J0D01*
G01*
X456201D02*
G03*
X428642Y492126I-13780J0D01*
G01*
X493110D02*
G03*
X465551Y492126I-13780J0D01*
G01*
D02*
G03*
X493110Y492126I13780J0D01*
G01*
D02*
G03*
X465551Y492126I-13780J0D01*
G01*
X493110D02*
G03*
X465551Y492126I-13780J0D01*
G01*
X502461D02*
G03*
X530020Y492126I13780J0D01*
G01*
X502461D02*
G03*
X530020Y492126I13780J0D01*
G01*
X502461D02*
G03*
X530020Y492126I13780J0D01*
G01*
X539370D02*
G03*
X566929Y492126I13780J0D01*
G01*
X539370D02*
G03*
X566929Y492126I13780J0D01*
G01*
X539370D02*
G03*
X566929Y492126I13780J0D01*
G01*
X576279D02*
G03*
X603839Y492126I13780J0D01*
G01*
X687008D02*
G03*
X714567Y492126I13780J0D01*
G01*
X613189D02*
G03*
X640748Y492126I13780J0D01*
G01*
X576279D02*
G03*
X603839Y492126I13780J0D01*
G01*
X576279D02*
G03*
X603839Y492126I13780J0D01*
G01*
X650098D02*
G03*
X677657Y492126I13780J0D01*
G01*
X687008D02*
G03*
X714567Y492126I13780J0D01*
G01*
X613189D02*
G03*
X640748Y492126I13780J0D01*
G01*
X650098D02*
G03*
X677657Y492126I13780J0D01*
G01*
X530020D02*
G03*
X502461Y492126I-13780J0D01*
G01*
X530020D02*
G03*
X502461Y492126I-13780J0D01*
G01*
X566929D02*
G03*
X539370Y492126I-13780J0D01*
G01*
X566929D02*
G03*
X539370Y492126I-13780J0D01*
G01*
X530020D02*
G03*
X502461Y492126I-13780J0D01*
G01*
X566929D02*
G03*
X539370Y492126I-13780J0D01*
G01*
X603839D02*
G03*
X576279Y492126I-13780J0D01*
G01*
X640748D02*
G03*
X613189Y492126I-13780J0D01*
G01*
X603839D02*
G03*
X576279Y492126I-13780J0D01*
G01*
X603839D02*
G03*
X576279Y492126I-13780J0D01*
G01*
X613189D02*
G03*
X640748Y492126I13780J0D01*
G01*
X650098D02*
G03*
X677657Y492126I13780J0D01*
G01*
X687008D02*
G03*
X714567Y492126I13780J0D01*
G01*
X677657D02*
G03*
X650098Y492126I-13780J0D01*
G01*
X677657D02*
G03*
X650098Y492126I-13780J0D01*
G01*
X640748D02*
G03*
X613189Y492126I-13780J0D01*
G01*
X640748D02*
G03*
X613189Y492126I-13780J0D01*
G01*
X714567D02*
G03*
X687008Y492126I-13780J0D01*
G01*
X714567D02*
G03*
X687008Y492126I-13780J0D01*
G01*
X677657D02*
G03*
X650098Y492126I-13780J0D01*
G01*
X714567D02*
G03*
X687008Y492126I-13780J0D01*
G01*
X419291D02*
X428642D01*
X456201D02*
X465551D01*
X493110D02*
X502461D01*
X530020D02*
X539370D01*
X566929D02*
X576279D01*
X603839D02*
X613189D01*
D11*
X407480Y631890D02*
X694882D01*
Y523622D02*
Y631890D01*
X407480Y523622D02*
X694882D01*
X407480D02*
Y631890D01*
D12*
X730315Y362205D02*
Y720472D01*
X372047D02*
X730315D01*
X372047Y362205D02*
Y720472D01*
Y362205D02*
X730315D01*
D13*
X612500Y422500D02*
X621500D01*
X630000Y431000D01*
X637000D01*
X624500Y400500D02*
X630500Y394500D01*
X647000D01*
X653500Y401000D01*
X639685Y433685D02*
Y440945D01*
X637000Y431000D02*
X639685Y433685D01*
D14*
X640748Y492126D02*
X650098D01*
X677657D02*
X687008D01*
D15*
X750374Y710784D02*
X757038D01*
X753706D01*
Y700787D01*
X765369Y710784D02*
X762037D01*
X760371Y709118D01*
Y702454D01*
X762037Y700787D01*
X765369D01*
X767035Y702454D01*
Y709118D01*
X765369Y710784D01*
X770368Y700787D02*
Y710784D01*
X775366D01*
X777032Y709118D01*
Y705786D01*
X775366Y704120D01*
X770368D01*
X790361Y710784D02*
Y700787D01*
X797026D01*
X800358D02*
Y707452D01*
X803690Y710784D01*
X807022Y707452D01*
Y700787D01*
Y705786D01*
X800358D01*
X810355Y710784D02*
Y709118D01*
X813687Y705786D01*
X817019Y709118D01*
Y710784D01*
X813687Y705786D02*
Y700787D01*
X827016Y710784D02*
X820351D01*
Y700787D01*
X827016D01*
X820351Y705786D02*
X823684D01*
X830348Y700787D02*
Y710784D01*
X835347D01*
X837013Y709118D01*
Y705786D01*
X835347Y704120D01*
X830348D01*
X833680D02*
X837013Y700787D01*
D16*
X497748Y654060D02*
X496436Y655372D01*
X493812D01*
X492500Y654060D01*
Y648812D01*
X493812Y647500D01*
X496436D01*
X497748Y648812D01*
X501683Y647500D02*
X504307D01*
X505619Y648812D01*
Y651436D01*
X504307Y652748D01*
X501683D01*
X500372Y651436D01*
Y648812D01*
X501683Y647500D01*
X508243D02*
Y652748D01*
X509555D01*
X510867Y651436D01*
Y647500D01*
Y651436D01*
X512179Y652748D01*
X513491Y651436D01*
Y647500D01*
X516114Y644876D02*
Y652748D01*
X520050D01*
X521362Y651436D01*
Y648812D01*
X520050Y647500D01*
X516114D01*
X525298D02*
X527922D01*
X529234Y648812D01*
Y651436D01*
X527922Y652748D01*
X525298D01*
X523986Y651436D01*
Y648812D01*
X525298Y647500D01*
X531857D02*
Y652748D01*
X535793D01*
X537105Y651436D01*
Y647500D01*
X543665D02*
X541041D01*
X539729Y648812D01*
Y651436D01*
X541041Y652748D01*
X543665D01*
X544977Y651436D01*
Y650124D01*
X539729D01*
X547600Y647500D02*
Y652748D01*
X551536D01*
X552848Y651436D01*
Y647500D01*
X556784Y654060D02*
Y652748D01*
X555472D01*
X558096D01*
X556784D01*
Y648812D01*
X558096Y647500D01*
X575150Y654060D02*
X573839Y655372D01*
X571215D01*
X569903Y654060D01*
Y652748D01*
X571215Y651436D01*
X573839D01*
X575150Y650124D01*
Y648812D01*
X573839Y647500D01*
X571215D01*
X569903Y648812D01*
X577774Y647500D02*
X580398D01*
X579086D01*
Y652748D01*
X577774D01*
X589582Y655372D02*
Y647500D01*
X585646D01*
X584334Y648812D01*
Y651436D01*
X585646Y652748D01*
X589582D01*
X596141Y647500D02*
X593517D01*
X592205Y648812D01*
Y651436D01*
X593517Y652748D01*
X596141D01*
X597453Y651436D01*
Y650124D01*
X592205D01*
D17*
X661417Y417323D02*
D03*
X587926D02*
D03*
X514436D02*
D03*
X440945D02*
D03*
D18*
X413386Y669291D02*
D03*
X688976D02*
D03*
Y413386D02*
D03*
X413386D02*
D03*
D19*
X663878Y492126D02*
D03*
X590059D02*
D03*
X626968D02*
D03*
X516240D02*
D03*
X553150D02*
D03*
X479331D02*
D03*
X405512D02*
D03*
X442421D02*
D03*
X700787D02*
D03*
D20*
X639685Y440945D02*
D03*
D21*
X479685D02*
D03*
X489685D02*
D03*
X499685D02*
D03*
X509685D02*
D03*
X519685D02*
D03*
X529685D02*
D03*
X539685D02*
D03*
X549685D02*
D03*
X559685D02*
D03*
X569685D02*
D03*
X579685D02*
D03*
X589685D02*
D03*
X599685D02*
D03*
X609685D02*
D03*
X619685D02*
D03*
X629685D02*
D03*
D22*
X637500Y412323D02*
D03*
Y422323D02*
D03*
X562992Y422323D02*
D03*
Y412323D02*
D03*
X490000Y412500D02*
D03*
Y422500D02*
D03*
X465000D02*
D03*
Y412500D02*
D03*
X612500D02*
D03*
Y422500D02*
D03*
D23*
X405512Y478346D02*
D03*
D24*
X624500Y400500D02*
D03*
X653500Y401000D02*
D03*
M02*
