%FSLAX25Y25*%
%MOIN*%
G70*
G01*
G75*
G04 Layer_Color=2752767*
%ADD10C,0.06693*%
%ADD11C,0.00787*%
%ADD12C,0.00800*%
%ADD13C,0.03600*%
%ADD14C,0.06000*%
%ADD15C,0.01400*%
%ADD16C,0.01575*%
%ADD17C,0.12598*%
%ADD18C,0.19685*%
%ADD19C,0.11811*%
%ADD20R,0.07500X0.09000*%
%ADD21O,0.07500X0.09000*%
%ADD22O,0.09000X0.07500*%
%ADD23C,0.07500*%
%ADD24C,0.08000*%
%ADD25C,0.02500*%
%ADD26C,0.02800*%
%ADD27C,0.11811*%
%ADD28C,0.01600*%
%ADD29C,0.07480*%
%ADD30C,0.13398*%
%ADD31C,0.20485*%
%ADD32C,0.12611*%
%ADD33R,0.08300X0.09800*%
%ADD34O,0.08300X0.09800*%
%ADD35O,0.09800X0.08300*%
%ADD36C,0.08300*%
%ADD37C,0.08800*%
%ADD38C,0.01000*%
%ADD39C,0.01200*%
%ADD40C,0.00500*%
%ADD41C,0.00667*%
D40*
X659417Y415323D02*
Y419323D01*
X663417D01*
Y415323D01*
X659417D01*
X585926D02*
Y419323D01*
X589926D01*
Y415323D01*
X585926D01*
X512436D02*
Y419323D01*
X516436D01*
Y415323D01*
X512436D01*
X438945D02*
Y419323D01*
X442945D01*
Y415323D01*
X438945D01*
X663878Y490126D02*
X661878Y494126D01*
X665878D01*
X663878Y490126D01*
X590059D02*
X588059Y494126D01*
X592059D01*
X590059Y490126D01*
X626968D02*
X624968Y494126D01*
X628968D01*
X626968Y490126D01*
X516240D02*
X514240Y494126D01*
X518240D01*
X516240Y490126D01*
X553150D02*
X551150Y494126D01*
X555150D01*
X553150Y490126D01*
X479331D02*
X477331Y494126D01*
X481331D01*
X479331Y490126D01*
X405512D02*
X403512Y494126D01*
X407512D01*
X405512Y490126D01*
X442421D02*
X440421Y494126D01*
X444421D01*
X442421Y490126D01*
X700787D02*
X698787Y494126D01*
X702787D01*
X700787Y490126D01*
X639685Y438945D02*
X640685Y439945D01*
X641685D01*
X640685Y440945D01*
X641685Y441945D01*
X640685D01*
X639685Y442945D01*
X638685Y441945D01*
X637685D01*
X638685Y440945D01*
X637685Y439945D01*
X638685D01*
X639685Y438945D01*
X479685D02*
X480685Y439945D01*
X481685D01*
X480685Y440945D01*
X481685Y441945D01*
X480685D01*
X479685Y442945D01*
X478685Y441945D01*
X477685D01*
X478685Y440945D01*
X477685Y439945D01*
X478685D01*
X479685Y438945D01*
X489685D02*
X490685Y439945D01*
X491685D01*
X490685Y440945D01*
X491685Y441945D01*
X490685D01*
X489685Y442945D01*
X488685Y441945D01*
X487685D01*
X488685Y440945D01*
X487685Y439945D01*
X488685D01*
X489685Y438945D01*
X499685D02*
X500685Y439945D01*
X501685D01*
X500685Y440945D01*
X501685Y441945D01*
X500685D01*
X499685Y442945D01*
X498685Y441945D01*
X497685D01*
X498685Y440945D01*
X497685Y439945D01*
X498685D01*
X499685Y438945D01*
X509685D02*
X510685Y439945D01*
X511685D01*
X510685Y440945D01*
X511685Y441945D01*
X510685D01*
X509685Y442945D01*
X508685Y441945D01*
X507685D01*
X508685Y440945D01*
X507685Y439945D01*
X508685D01*
X509685Y438945D01*
X519685D02*
X520685Y439945D01*
X521685D01*
X520685Y440945D01*
X521685Y441945D01*
X520685D01*
X519685Y442945D01*
X518685Y441945D01*
X517685D01*
X518685Y440945D01*
X517685Y439945D01*
X518685D01*
X519685Y438945D01*
X529685D02*
X530685Y439945D01*
X531685D01*
X530685Y440945D01*
X531685Y441945D01*
X530685D01*
X529685Y442945D01*
X528685Y441945D01*
X527685D01*
X528685Y440945D01*
X527685Y439945D01*
X528685D01*
X529685Y438945D01*
X539685D02*
X540685Y439945D01*
X541685D01*
X540685Y440945D01*
X541685Y441945D01*
X540685D01*
X539685Y442945D01*
X538685Y441945D01*
X537685D01*
X538685Y440945D01*
X537685Y439945D01*
X538685D01*
X539685Y438945D01*
X549685D02*
X550685Y439945D01*
X551685D01*
X550685Y440945D01*
X551685Y441945D01*
X550685D01*
X549685Y442945D01*
X548685Y441945D01*
X547685D01*
X548685Y440945D01*
X547685Y439945D01*
X548685D01*
X549685Y438945D01*
X559685D02*
X560685Y439945D01*
X561685D01*
X560685Y440945D01*
X561685Y441945D01*
X560685D01*
X559685Y442945D01*
X558685Y441945D01*
X557685D01*
X558685Y440945D01*
X557685Y439945D01*
X558685D01*
X559685Y438945D01*
X569685D02*
X570685Y439945D01*
X571685D01*
X570685Y440945D01*
X571685Y441945D01*
X570685D01*
X569685Y442945D01*
X568685Y441945D01*
X567685D01*
X568685Y440945D01*
X567685Y439945D01*
X568685D01*
X569685Y438945D01*
X579685D02*
X580685Y439945D01*
X581685D01*
X580685Y440945D01*
X581685Y441945D01*
X580685D01*
X579685Y442945D01*
X578685Y441945D01*
X577685D01*
X578685Y440945D01*
X577685Y439945D01*
X578685D01*
X579685Y438945D01*
X589685D02*
X590685Y439945D01*
X591685D01*
X590685Y440945D01*
X591685Y441945D01*
X590685D01*
X589685Y442945D01*
X588685Y441945D01*
X587685D01*
X588685Y440945D01*
X587685Y439945D01*
X588685D01*
X589685Y438945D01*
X599685D02*
X600685Y439945D01*
X601685D01*
X600685Y440945D01*
X601685Y441945D01*
X600685D01*
X599685Y442945D01*
X598685Y441945D01*
X597685D01*
X598685Y440945D01*
X597685Y439945D01*
X598685D01*
X599685Y438945D01*
X609685D02*
X610685Y439945D01*
X611685D01*
X610685Y440945D01*
X611685Y441945D01*
X610685D01*
X609685Y442945D01*
X608685Y441945D01*
X607685D01*
X608685Y440945D01*
X607685Y439945D01*
X608685D01*
X609685Y438945D01*
X619685D02*
X620685Y439945D01*
X621685D01*
X620685Y440945D01*
X621685Y441945D01*
X620685D01*
X619685Y442945D01*
X618685Y441945D01*
X617685D01*
X618685Y440945D01*
X617685Y439945D01*
X618685D01*
X619685Y438945D01*
X629685D02*
X630685Y439945D01*
X631685D01*
X630685Y440945D01*
X631685Y441945D01*
X630685D01*
X629685Y442945D01*
X628685Y441945D01*
X627685D01*
X628685Y440945D01*
X627685Y439945D01*
X628685D01*
X629685Y438945D01*
X635500Y410323D02*
X636500Y412323D01*
X635500Y414323D01*
X637500Y413323D01*
X639500Y414323D01*
X638500Y412323D01*
X639500Y410323D01*
X637500Y411323D01*
X635500Y410323D01*
Y420323D02*
X636500Y422323D01*
X635500Y424323D01*
X637500Y423323D01*
X639500Y424323D01*
X638500Y422323D01*
X639500Y420323D01*
X637500Y421323D01*
X635500Y420323D01*
X560992Y420323D02*
X561992Y422323D01*
X560992Y424323D01*
X562992Y423323D01*
X564992Y424323D01*
X563992Y422323D01*
X564992Y420323D01*
X562992Y421323D01*
X560992Y420323D01*
Y410323D02*
X561992Y412323D01*
X560992Y414323D01*
X562992Y413323D01*
X564992Y414323D01*
X563992Y412323D01*
X564992Y410323D01*
X562992Y411323D01*
X560992Y410323D01*
X488000Y410500D02*
X489000Y412500D01*
X488000Y414500D01*
X490000Y413500D01*
X492000Y414500D01*
X491000Y412500D01*
X492000Y410500D01*
X490000Y411500D01*
X488000Y410500D01*
Y420500D02*
X489000Y422500D01*
X488000Y424500D01*
X490000Y423500D01*
X492000Y424500D01*
X491000Y422500D01*
X492000Y420500D01*
X490000Y421500D01*
X488000Y420500D01*
X463000D02*
X464000Y422500D01*
X463000Y424500D01*
X465000Y423500D01*
X467000Y424500D01*
X466000Y422500D01*
X467000Y420500D01*
X465000Y421500D01*
X463000Y420500D01*
Y410500D02*
X464000Y412500D01*
X463000Y414500D01*
X465000Y413500D01*
X467000Y414500D01*
X466000Y412500D01*
X467000Y410500D01*
X465000Y411500D01*
X463000Y410500D01*
X610500D02*
X611500Y412500D01*
X610500Y414500D01*
X612500Y413500D01*
X614500Y414500D01*
X613500Y412500D01*
X614500Y410500D01*
X612500Y411500D01*
X610500Y410500D01*
Y420500D02*
X611500Y422500D01*
X610500Y424500D01*
X612500Y423500D01*
X614500Y424500D01*
X613500Y422500D01*
X614500Y420500D01*
X612500Y421500D01*
X610500Y420500D01*
X405512Y476346D02*
X403512Y480346D01*
X407512D01*
X405512Y476346D01*
X624500Y398500D02*
X625500Y399500D01*
X626500D01*
X625500Y400500D01*
X626500Y401500D01*
X625500D01*
X624500Y402500D01*
X623500Y401500D01*
X622500D01*
X623500Y400500D01*
X622500Y399500D01*
X623500D01*
X624500Y398500D01*
X653500Y399000D02*
X654500Y400000D01*
X655500D01*
X654500Y401000D01*
X655500Y402000D01*
X654500D01*
X653500Y403000D01*
X652500Y402000D01*
X651500D01*
X652500Y401000D01*
X651500Y400000D01*
X652500D01*
X653500Y399000D01*
D41*
X415386Y669291D02*
G03*
X415386Y669291I-2000J0D01*
G01*
X690976D02*
G03*
X690976Y669291I-2000J0D01*
G01*
Y413386D02*
G03*
X690976Y413386I-2000J0D01*
G01*
X415386D02*
G03*
X415386Y413386I-2000J0D01*
G01*
M02*
