%FSLAX25Y25*%
%MOIN*%
G70*
G01*
G75*
G04 Layer_Color=16711935*
%ADD10C,0.06693*%
%ADD11C,0.00787*%
%ADD12C,0.00800*%
%ADD13C,0.03600*%
%ADD14C,0.06000*%
%ADD15C,0.01400*%
%ADD16C,0.01575*%
%ADD17C,0.12598*%
%ADD18C,0.19685*%
%ADD19C,0.11811*%
%ADD20R,0.07500X0.09000*%
%ADD21O,0.07500X0.09000*%
%ADD22O,0.09000X0.07500*%
%ADD23C,0.07500*%
%ADD24C,0.08000*%
%ADD25C,0.02500*%
%ADD26C,0.02800*%
%ADD27C,0.11811*%
%ADD28C,0.01600*%
%ADD29C,0.07480*%
%ADD30C,0.13398*%
%ADD31C,0.20485*%
%ADD32C,0.12611*%
%ADD33R,0.08300X0.09800*%
%ADD34O,0.08300X0.09800*%
%ADD35O,0.09800X0.08300*%
%ADD36C,0.08300*%
%ADD37C,0.08800*%
%ADD38C,0.01000*%
%ADD39C,0.01200*%
D11*
X407480Y523622D02*
X694882D01*
Y631890D01*
X407480D02*
X694882D01*
X407480Y523622D02*
Y631890D01*
X372047Y362205D02*
X730315D01*
Y720472D01*
X372047D02*
X730315D01*
X372047Y362205D02*
Y720472D01*
D15*
X748032Y382044D02*
X754696D01*
X751364D01*
Y372047D01*
X758028Y382044D02*
Y372047D01*
Y377046D01*
X759694Y378712D01*
X763027D01*
X764693Y377046D01*
Y372047D01*
X773023D02*
X769691D01*
X768025Y373713D01*
Y377046D01*
X769691Y378712D01*
X773023D01*
X774689Y377046D01*
Y375379D01*
X768025D01*
X778022Y378712D02*
Y372047D01*
Y375379D01*
X779688Y377046D01*
X781354Y378712D01*
X783020D01*
X793017Y372047D02*
X789685D01*
X788019Y373713D01*
Y377046D01*
X789685Y378712D01*
X793017D01*
X794683Y377046D01*
Y375379D01*
X788019D01*
X809678Y378712D02*
X813011D01*
X814677Y377046D01*
Y372047D01*
X809678D01*
X808012Y373713D01*
X809678Y375379D01*
X814677D01*
X818009Y378712D02*
Y372047D01*
Y375379D01*
X819675Y377046D01*
X821341Y378712D01*
X823007D01*
X833004Y372047D02*
X829672D01*
X828006Y373713D01*
Y377046D01*
X829672Y378712D01*
X833004D01*
X834670Y377046D01*
Y375379D01*
X828006D01*
X849665Y372047D02*
Y380378D01*
Y377046D01*
X847999D01*
X851332D01*
X849665D01*
Y380378D01*
X851332Y382044D01*
X857996Y372047D02*
X861328D01*
X862994Y373713D01*
Y377046D01*
X861328Y378712D01*
X857996D01*
X856330Y377046D01*
Y373713D01*
X857996Y372047D01*
X866327Y378712D02*
Y373713D01*
X867993Y372047D01*
X872991D01*
Y378712D01*
X876323D02*
Y372047D01*
Y375379D01*
X877989Y377046D01*
X879656Y378712D01*
X881322D01*
X896317Y382044D02*
Y372047D01*
X902981D01*
X912978Y382044D02*
X906314D01*
Y372047D01*
X912978D01*
X906314Y377046D02*
X909646D01*
X916311Y382044D02*
Y372047D01*
X921309D01*
X922975Y373713D01*
Y380378D01*
X921309Y382044D01*
X916311D01*
X936304D02*
Y372047D01*
Y377046D01*
X937970Y378712D01*
X941302D01*
X942968Y377046D01*
Y372047D01*
X947967D02*
X951299D01*
X952965Y373713D01*
Y377046D01*
X951299Y378712D01*
X947967D01*
X946301Y377046D01*
Y373713D01*
X947967Y372047D01*
X956297D02*
X959630D01*
X957964D01*
Y382044D01*
X956297D01*
X969627Y372047D02*
X966294D01*
X964628Y373713D01*
Y377046D01*
X966294Y378712D01*
X969627D01*
X971293Y377046D01*
Y375379D01*
X964628D01*
X974625Y372047D02*
X979623D01*
X981289Y373713D01*
X979623Y375379D01*
X976291D01*
X974625Y377046D01*
X976291Y378712D01*
X981289D01*
X996285Y372047D02*
X999617D01*
X1001283Y373713D01*
Y377046D01*
X999617Y378712D01*
X996285D01*
X994619Y377046D01*
Y373713D01*
X996285Y372047D01*
X1006281D02*
Y380378D01*
Y377046D01*
X1004615D01*
X1007948D01*
X1006281D01*
Y380378D01*
X1007948Y382044D01*
X1022943Y380378D02*
X1024609Y382044D01*
X1027941D01*
X1029607Y380378D01*
Y378712D01*
X1027941Y377046D01*
X1026275D01*
X1027941D01*
X1029607Y375379D01*
Y373713D01*
X1027941Y372047D01*
X1024609D01*
X1022943Y373713D01*
X1032939Y372047D02*
Y378712D01*
X1034606D01*
X1036272Y377046D01*
Y372047D01*
Y377046D01*
X1037938Y378712D01*
X1039604Y377046D01*
Y372047D01*
X1042936D02*
Y378712D01*
X1044602D01*
X1046268Y377046D01*
Y372047D01*
Y377046D01*
X1047935Y378712D01*
X1049601Y377046D01*
Y372047D01*
X1069594Y382044D02*
Y372047D01*
X1064596D01*
X1062930Y373713D01*
Y377046D01*
X1064596Y378712D01*
X1069594D01*
X1072927Y372047D02*
X1076259D01*
X1074593D01*
Y378712D01*
X1072927D01*
X1082923D02*
X1086255D01*
X1087922Y377046D01*
Y372047D01*
X1082923D01*
X1081257Y373713D01*
X1082923Y375379D01*
X1087922D01*
X1091254Y372047D02*
Y378712D01*
X1092920D01*
X1094586Y377046D01*
Y372047D01*
Y377046D01*
X1096252Y378712D01*
X1097918Y377046D01*
Y372047D01*
X1106249D02*
X1102917D01*
X1101251Y373713D01*
Y377046D01*
X1102917Y378712D01*
X1106249D01*
X1107915Y377046D01*
Y375379D01*
X1101251D01*
X1112914Y380378D02*
Y378712D01*
X1111248D01*
X1114580D01*
X1112914D01*
Y373713D01*
X1114580Y372047D01*
X1124576D02*
X1121244D01*
X1119578Y373713D01*
Y377046D01*
X1121244Y378712D01*
X1124576D01*
X1126243Y377046D01*
Y375379D01*
X1119578D01*
X1129575Y378712D02*
Y372047D01*
Y375379D01*
X1131241Y377046D01*
X1132907Y378712D01*
X1134573D01*
X748032Y395669D02*
Y405666D01*
X751364Y402334D01*
X754696Y405666D01*
Y395669D01*
X763027Y405666D02*
X759694D01*
X758028Y404000D01*
Y397335D01*
X759694Y395669D01*
X763027D01*
X764693Y397335D01*
Y404000D01*
X763027Y405666D01*
X768025D02*
Y397335D01*
X769691Y395669D01*
X773023D01*
X774689Y397335D01*
Y405666D01*
X778022Y395669D02*
Y405666D01*
X784686Y395669D01*
Y405666D01*
X788019D02*
X794683D01*
X791351D01*
Y395669D01*
X798015Y405666D02*
X801348D01*
X799682D01*
Y395669D01*
X798015D01*
X801348D01*
X806346D02*
Y405666D01*
X813011Y395669D01*
Y405666D01*
X823007Y404000D02*
X821341Y405666D01*
X818009D01*
X816343Y404000D01*
Y397335D01*
X818009Y395669D01*
X821341D01*
X823007Y397335D01*
Y400668D01*
X819675D01*
X836336Y405666D02*
Y395669D01*
Y400668D01*
X843001D01*
Y405666D01*
Y395669D01*
X851332Y405666D02*
X847999D01*
X846333Y404000D01*
Y397335D01*
X847999Y395669D01*
X851332D01*
X852998Y397335D01*
Y404000D01*
X851332Y405666D01*
X856330D02*
Y395669D01*
X862994D01*
X872991Y405666D02*
X866327D01*
Y395669D01*
X872991D01*
X866327Y400668D02*
X869659D01*
X882988Y404000D02*
X881322Y405666D01*
X877989D01*
X876323Y404000D01*
Y402334D01*
X877989Y400668D01*
X881322D01*
X882988Y399002D01*
Y397335D01*
X881322Y395669D01*
X877989D01*
X876323Y397335D01*
X896317Y395669D02*
Y402334D01*
X899649Y405666D01*
X902981Y402334D01*
Y395669D01*
Y400668D01*
X896317D01*
X906314Y395669D02*
Y405666D01*
X911312D01*
X912978Y404000D01*
Y400668D01*
X911312Y399002D01*
X906314D01*
X909646D02*
X912978Y395669D01*
X922975Y405666D02*
X916311D01*
Y395669D01*
X922975D01*
X916311Y400668D02*
X919643D01*
X942968Y395669D02*
X936304D01*
X942968Y402334D01*
Y404000D01*
X941302Y405666D01*
X937970D01*
X936304Y404000D01*
X946301Y395669D02*
Y405666D01*
X949633Y402334D01*
X952965Y405666D01*
Y395669D01*
X956297D02*
Y405666D01*
X959630Y402334D01*
X962962Y405666D01*
Y395669D01*
X976291Y405666D02*
Y395669D01*
X981289D01*
X982956Y397335D01*
Y404000D01*
X981289Y405666D01*
X976291D01*
X986288D02*
X989620D01*
X987954D01*
Y395669D01*
X986288D01*
X989620D01*
X994619D02*
Y402334D01*
X997951Y405666D01*
X1001283Y402334D01*
Y395669D01*
Y400668D01*
X994619D01*
D38*
X746357Y566848D02*
X892027D01*
Y413948D02*
Y566848D01*
X746357Y413948D02*
X892027D01*
X746357D02*
Y566848D01*
D39*
X776841Y435841D02*
Y429843D01*
X779840D01*
X780840Y430842D01*
Y431842D01*
X779840Y432842D01*
X776841D01*
X779840D01*
X780840Y433841D01*
Y434841D01*
X779840Y435841D01*
X776841D01*
X785838D02*
X783839D01*
X782839Y434841D01*
Y430842D01*
X783839Y429843D01*
X785838D01*
X786838Y430842D01*
Y434841D01*
X785838Y435841D01*
X788837D02*
X792836D01*
X790836D01*
Y429843D01*
X794835Y435841D02*
X798834D01*
X796835D01*
Y429843D01*
X803832Y435841D02*
X801833D01*
X800833Y434841D01*
Y430842D01*
X801833Y429843D01*
X803832D01*
X804832Y430842D01*
Y434841D01*
X803832Y435841D01*
X806831Y429843D02*
Y435841D01*
X808831Y433841D01*
X810830Y435841D01*
Y429843D01*
X822826Y434841D02*
X821826Y435841D01*
X819827D01*
X818827Y434841D01*
Y433841D01*
X819827Y432842D01*
X821826D01*
X822826Y431842D01*
Y430842D01*
X821826Y429843D01*
X819827D01*
X818827Y430842D01*
X827824Y435841D02*
X825825D01*
X824825Y434841D01*
Y430842D01*
X825825Y429843D01*
X827824D01*
X828824Y430842D01*
Y434841D01*
X827824Y435841D01*
X830824D02*
Y429843D01*
X834822D01*
X836822Y435841D02*
Y429843D01*
X839821D01*
X840820Y430842D01*
Y434841D01*
X839821Y435841D01*
X836822D01*
X846818D02*
X842820D01*
Y429843D01*
X846818D01*
X842820Y432842D02*
X844819D01*
X848818Y429843D02*
Y435841D01*
X851817D01*
X852816Y434841D01*
Y432842D01*
X851817Y431842D01*
X848818D01*
X850817D02*
X852816Y429843D01*
X775591Y458754D02*
X779589D01*
X777590D01*
Y452756D01*
X784588Y458754D02*
X782588D01*
X781589Y457754D01*
Y453756D01*
X782588Y452756D01*
X784588D01*
X785587Y453756D01*
Y457754D01*
X784588Y458754D01*
X787587Y452756D02*
Y458754D01*
X790586D01*
X791585Y457754D01*
Y455755D01*
X790586Y454755D01*
X787587D01*
X803582Y457754D02*
X802582Y458754D01*
X800583D01*
X799583Y457754D01*
Y456755D01*
X800583Y455755D01*
X802582D01*
X803582Y454755D01*
Y453756D01*
X802582Y452756D01*
X800583D01*
X799583Y453756D01*
X808580Y458754D02*
X806581D01*
X805581Y457754D01*
Y453756D01*
X806581Y452756D01*
X808580D01*
X809580Y453756D01*
Y457754D01*
X808580Y458754D01*
X811579D02*
Y452756D01*
X815578D01*
X817577Y458754D02*
Y452756D01*
X820576D01*
X821576Y453756D01*
Y457754D01*
X820576Y458754D01*
X817577D01*
X827574D02*
X823575D01*
Y452756D01*
X827574D01*
X823575Y455755D02*
X825574D01*
X829573Y452756D02*
Y458754D01*
X832572D01*
X833572Y457754D01*
Y455755D01*
X832572Y454755D01*
X829573D01*
X831572D02*
X833572Y452756D01*
X775591Y470565D02*
X779589D01*
X777590D01*
Y464567D01*
X784588Y470565D02*
X782588D01*
X781589Y469565D01*
Y465567D01*
X782588Y464567D01*
X784588D01*
X785587Y465567D01*
Y469565D01*
X784588Y470565D01*
X787587Y464567D02*
Y470565D01*
X790586D01*
X791585Y469565D01*
Y467566D01*
X790586Y466566D01*
X787587D01*
X799583Y470565D02*
Y464567D01*
X803582D01*
X805581D02*
Y468566D01*
X807580Y470565D01*
X809580Y468566D01*
Y464567D01*
Y467566D01*
X805581D01*
X811579Y470565D02*
Y469565D01*
X813578Y467566D01*
X815578Y469565D01*
Y470565D01*
X813578Y467566D02*
Y464567D01*
X821576Y470565D02*
X817577D01*
Y464567D01*
X821576D01*
X817577Y467566D02*
X819576D01*
X823575Y464567D02*
Y470565D01*
X826574D01*
X827574Y469565D01*
Y467566D01*
X826574Y466566D01*
X823575D01*
X825574D02*
X827574Y464567D01*
X839570Y469565D02*
X838570Y470565D01*
X836571D01*
X835571Y469565D01*
Y465567D01*
X836571Y464567D01*
X838570D01*
X839570Y465567D01*
X841569Y470565D02*
Y465567D01*
X842569Y464567D01*
X844568D01*
X845568Y465567D01*
Y470565D01*
X776841Y447735D02*
Y441737D01*
X779840D01*
X780840Y442737D01*
Y443737D01*
X779840Y444736D01*
X776841D01*
X779840D01*
X780840Y445736D01*
Y446736D01*
X779840Y447735D01*
X776841D01*
X785838D02*
X783839D01*
X782839Y446736D01*
Y442737D01*
X783839Y441737D01*
X785838D01*
X786838Y442737D01*
Y446736D01*
X785838Y447735D01*
X788837D02*
X792836D01*
X790836D01*
Y441737D01*
X794835Y447735D02*
X798834D01*
X796835D01*
Y441737D01*
X803832Y447735D02*
X801833D01*
X800833Y446736D01*
Y442737D01*
X801833Y441737D01*
X803832D01*
X804832Y442737D01*
Y446736D01*
X803832Y447735D01*
X806831Y441737D02*
Y447735D01*
X808831Y445736D01*
X810830Y447735D01*
Y441737D01*
X818827Y447735D02*
Y441737D01*
X822826D01*
X828824Y447735D02*
X824825D01*
Y441737D01*
X828824D01*
X824825Y444736D02*
X826825D01*
X834822Y446736D02*
X833823Y447735D01*
X831823D01*
X830824Y446736D01*
Y442737D01*
X831823Y441737D01*
X833823D01*
X834822Y442737D01*
Y444736D01*
X832823D01*
X840820Y447735D02*
X836822D01*
Y441737D01*
X840820D01*
X836822Y444736D02*
X838821D01*
X842820Y441737D02*
Y447735D01*
X846818Y441737D01*
Y447735D01*
X848818D02*
Y441737D01*
X851817D01*
X852816Y442737D01*
Y446736D01*
X851817Y447735D01*
X848818D01*
X776841Y423946D02*
Y417948D01*
X779840D01*
X780840Y418948D01*
Y419947D01*
X779840Y420947D01*
X776841D01*
X779840D01*
X780840Y421947D01*
Y422946D01*
X779840Y423946D01*
X776841D01*
X785838D02*
X783839D01*
X782839Y422946D01*
Y418948D01*
X783839Y417948D01*
X785838D01*
X786838Y418948D01*
Y422946D01*
X785838Y423946D01*
X788837D02*
X792836D01*
X790836D01*
Y417948D01*
X794835Y423946D02*
X798834D01*
X796835D01*
Y417948D01*
X803832Y423946D02*
X801833D01*
X800833Y422946D01*
Y418948D01*
X801833Y417948D01*
X803832D01*
X804832Y418948D01*
Y422946D01*
X803832Y423946D01*
X806831Y417948D02*
Y423946D01*
X808831Y421947D01*
X810830Y423946D01*
Y417948D01*
X818827Y423946D02*
Y417948D01*
X822826D01*
X824825D02*
Y421947D01*
X826825Y423946D01*
X828824Y421947D01*
Y417948D01*
Y420947D01*
X824825D01*
X830824Y423946D02*
Y422946D01*
X832823Y420947D01*
X834822Y422946D01*
Y423946D01*
X832823Y420947D02*
Y417948D01*
X840820Y423946D02*
X836822D01*
Y417948D01*
X840820D01*
X836822Y420947D02*
X838821D01*
X842820Y417948D02*
Y423946D01*
X845819D01*
X846818Y422946D01*
Y420947D01*
X845819Y419947D01*
X842820D01*
X844819D02*
X846818Y417948D01*
X858814Y422946D02*
X857815Y423946D01*
X855815D01*
X854816Y422946D01*
Y418948D01*
X855815Y417948D01*
X857815D01*
X858814Y418948D01*
X860814Y423946D02*
Y418948D01*
X861814Y417948D01*
X863813D01*
X864812Y418948D01*
Y423946D01*
X751968Y487313D02*
Y480315D01*
X756634D01*
X758966D02*
Y484980D01*
X761299Y487313D01*
X763631Y484980D01*
Y480315D01*
Y483814D01*
X758966D01*
X765964Y487313D02*
Y486146D01*
X768297Y483814D01*
X770629Y486146D01*
Y487313D01*
X768297Y483814D02*
Y480315D01*
X777627Y487313D02*
X772962D01*
Y480315D01*
X777627D01*
X772962Y483814D02*
X775294D01*
X779959Y480315D02*
Y487313D01*
X783458D01*
X784625Y486146D01*
Y483814D01*
X783458Y482648D01*
X779959D01*
X782292D02*
X784625Y480315D01*
X791622Y486146D02*
X790456Y487313D01*
X788124D01*
X786957Y486146D01*
Y484980D01*
X788124Y483814D01*
X790456D01*
X791622Y482648D01*
Y481481D01*
X790456Y480315D01*
X788124D01*
X786957Y481481D01*
X800953Y487313D02*
X805618D01*
X803285D01*
Y480315D01*
X811449Y487313D02*
X809117D01*
X807950Y486146D01*
Y481481D01*
X809117Y480315D01*
X811449D01*
X812616Y481481D01*
Y486146D01*
X811449Y487313D01*
X821946Y480315D02*
Y487313D01*
X825445D01*
X826611Y486146D01*
Y483814D01*
X825445Y482648D01*
X821946D01*
X828944Y480315D02*
Y487313D01*
X832442D01*
X833609Y486146D01*
Y483814D01*
X832442Y482648D01*
X828944D01*
X831276D02*
X833609Y480315D01*
X835941Y487313D02*
X838274D01*
X837108D01*
Y480315D01*
X835941D01*
X838274D01*
X841773D02*
Y487313D01*
X846438Y480315D01*
Y487313D01*
X848771D02*
X853436D01*
X851103D01*
Y480315D01*
X855768Y484980D02*
X856935D01*
Y483814D01*
X855768D01*
Y484980D01*
Y481481D02*
X856935D01*
Y480315D01*
X855768D01*
Y481481D01*
X751968Y515748D02*
Y522746D01*
X755467D01*
X756634Y521580D01*
Y519247D01*
X755467Y518081D01*
X751968D01*
X763631Y521580D02*
X762465Y522746D01*
X760133D01*
X758966Y521580D01*
Y516914D01*
X760133Y515748D01*
X762465D01*
X763631Y516914D01*
X765964Y522746D02*
Y515748D01*
X769463D01*
X770629Y516914D01*
Y518081D01*
X769463Y519247D01*
X765964D01*
X769463D01*
X770629Y520413D01*
Y521580D01*
X769463Y522746D01*
X765964D01*
X772962Y520413D02*
X774128D01*
Y519247D01*
X772962D01*
Y520413D01*
Y516914D02*
X774128D01*
Y515748D01*
X772962D01*
Y516914D01*
X790456Y522746D02*
X785791D01*
Y519247D01*
X788124D01*
X785791D01*
Y515748D01*
X792789D02*
Y522746D01*
X796287D01*
X797454Y521580D01*
Y519247D01*
X796287Y518081D01*
X792789D01*
X795121D02*
X797454Y515748D01*
X799786Y519247D02*
X804452D01*
X810283Y515748D02*
Y522746D01*
X806784Y519247D01*
X811449D01*
X751968Y506998D02*
X756634D01*
X754301D01*
Y500000D01*
X758966Y506998D02*
Y500000D01*
Y503499D01*
X763631D01*
Y506998D01*
Y500000D01*
X765964Y506998D02*
X768297D01*
X767130D01*
Y500000D01*
X765964D01*
X768297D01*
X776461Y505831D02*
X775294Y506998D01*
X772962D01*
X771795Y505831D01*
Y501166D01*
X772962Y500000D01*
X775294D01*
X776461Y501166D01*
X778793Y506998D02*
Y500000D01*
Y502333D01*
X783458Y506998D01*
X779959Y503499D01*
X783458Y500000D01*
X785791D02*
Y506998D01*
X790456Y500000D01*
Y506998D01*
X797454D02*
X792789D01*
Y500000D01*
X797454D01*
X792789Y503499D02*
X795121D01*
X804452Y505831D02*
X803285Y506998D01*
X800953D01*
X799786Y505831D01*
Y504665D01*
X800953Y503499D01*
X803285D01*
X804452Y502333D01*
Y501166D01*
X803285Y500000D01*
X800953D01*
X799786Y501166D01*
X811449Y505831D02*
X810283Y506998D01*
X807950D01*
X806784Y505831D01*
Y504665D01*
X807950Y503499D01*
X810283D01*
X811449Y502333D01*
Y501166D01*
X810283Y500000D01*
X807950D01*
X806784Y501166D01*
X813782Y504665D02*
X814948D01*
Y503499D01*
X813782D01*
Y504665D01*
Y501166D02*
X814948D01*
Y500000D01*
X813782D01*
Y501166D01*
X819613Y505831D02*
X820780Y506998D01*
X823112D01*
X824279Y505831D01*
Y504665D01*
X823112Y503499D01*
X821946D01*
X823112D01*
X824279Y502333D01*
Y501166D01*
X823112Y500000D01*
X820780D01*
X819613Y501166D01*
X831276Y506998D02*
X826611D01*
Y503499D01*
X828944Y504665D01*
X830110D01*
X831276Y503499D01*
Y501166D01*
X830110Y500000D01*
X827777D01*
X826611Y501166D01*
X833609Y500000D02*
Y506998D01*
X835941Y504665D01*
X838274Y506998D01*
Y500000D01*
X840606Y506998D02*
X842939D01*
X841773D01*
Y500000D01*
X840606D01*
X842939D01*
X851103Y505831D02*
X849937Y506998D01*
X847604D01*
X846438Y505831D01*
Y501166D01*
X847604Y500000D01*
X849937D01*
X851103Y501166D01*
X853436Y500000D02*
Y506998D01*
X856935D01*
X858101Y505831D01*
Y503499D01*
X856935Y502333D01*
X853436D01*
X855768D02*
X858101Y500000D01*
X863932Y506998D02*
X861600D01*
X860433Y505831D01*
Y501166D01*
X861600Y500000D01*
X863932D01*
X865099Y501166D01*
Y505831D01*
X863932Y506998D01*
X867431Y500000D02*
Y506998D01*
X872096Y500000D01*
Y506998D01*
X879094Y505831D02*
X877928Y506998D01*
X875595D01*
X874429Y505831D01*
Y504665D01*
X875595Y503499D01*
X877928D01*
X879094Y502333D01*
Y501166D01*
X877928Y500000D01*
X875595D01*
X874429Y501166D01*
X751968Y531496D02*
Y538494D01*
X755467D01*
X756634Y537327D01*
Y534995D01*
X755467Y533829D01*
X751968D01*
X763631Y537327D02*
X762465Y538494D01*
X760133D01*
X758966Y537327D01*
Y532662D01*
X760133Y531496D01*
X762465D01*
X763631Y532662D01*
X765964Y538494D02*
Y531496D01*
X769463D01*
X770629Y532662D01*
Y533829D01*
X769463Y534995D01*
X765964D01*
X769463D01*
X770629Y536161D01*
Y537327D01*
X769463Y538494D01*
X765964D01*
X779959D02*
X782292D01*
X781126D01*
Y531496D01*
X779959D01*
X782292D01*
X785791D02*
Y538494D01*
X790456Y531496D01*
Y538494D01*
X797454D02*
X792789D01*
Y534995D01*
X795121D01*
X792789D01*
Y531496D01*
X803285Y538494D02*
X800953D01*
X799786Y537327D01*
Y532662D01*
X800953Y531496D01*
X803285D01*
X804452Y532662D01*
Y537327D01*
X803285Y538494D01*
X806784Y531496D02*
Y538494D01*
X810283D01*
X811449Y537327D01*
Y534995D01*
X810283Y533829D01*
X806784D01*
X809117D02*
X811449Y531496D01*
X813782D02*
Y538494D01*
X816115Y536161D01*
X818447Y538494D01*
Y531496D01*
X820780D02*
Y536161D01*
X823112Y538494D01*
X825445Y536161D01*
Y531496D01*
Y534995D01*
X820780D01*
X827777Y538494D02*
X832442D01*
X830110D01*
Y531496D01*
X834775Y538494D02*
X837108D01*
X835941D01*
Y531496D01*
X834775D01*
X837108D01*
X844105Y538494D02*
X841773D01*
X840606Y537327D01*
Y532662D01*
X841773Y531496D01*
X844105D01*
X845272Y532662D01*
Y537327D01*
X844105Y538494D01*
X847604Y531496D02*
Y538494D01*
X852269Y531496D01*
Y538494D01*
X854602Y536161D02*
X855768D01*
Y534995D01*
X854602D01*
Y536161D01*
Y532662D02*
X855768D01*
Y531496D01*
X854602D01*
Y532662D01*
X751968Y554242D02*
Y547244D01*
Y549577D01*
X756634Y554242D01*
X753135Y550743D01*
X756634Y547244D01*
X763631Y554242D02*
X758966D01*
Y547244D01*
X763631D01*
X758966Y550743D02*
X761299D01*
X770629Y554242D02*
X765964D01*
Y547244D01*
X770629D01*
X765964Y550743D02*
X768297D01*
X772962Y547244D02*
Y554242D01*
X776461D01*
X777627Y553076D01*
Y550743D01*
X776461Y549577D01*
X772962D01*
X783458Y554242D02*
X781126D01*
X779959Y553076D01*
Y548410D01*
X781126Y547244D01*
X783458D01*
X784625Y548410D01*
Y553076D01*
X783458Y554242D01*
X786957D02*
Y548410D01*
X788124Y547244D01*
X790456D01*
X791622Y548410D01*
Y554242D01*
X793955D02*
X798620D01*
X796287D01*
Y547244D01*
X807950Y554242D02*
Y547244D01*
X812616D01*
X814948D02*
Y551909D01*
X817281Y554242D01*
X819613Y551909D01*
Y547244D01*
Y550743D01*
X814948D01*
X821946Y554242D02*
Y553076D01*
X824279Y550743D01*
X826611Y553076D01*
Y554242D01*
X824279Y550743D02*
Y547244D01*
X833609Y554242D02*
X828944D01*
Y547244D01*
X833609D01*
X828944Y550743D02*
X831276D01*
X835941Y547244D02*
Y554242D01*
X839440D01*
X840606Y553076D01*
Y550743D01*
X839440Y549577D01*
X835941D01*
X838274D02*
X840606Y547244D01*
M02*
