%FSLAX25Y25*%
%MOIN*%
G70*
G01*
G75*
G04 Layer_Color=2752767*
%ADD10C,0.02200*%
%ADD11C,0.01800*%
%ADD12C,0.03000*%
%ADD13C,0.00800*%
%ADD14C,0.01575*%
%ADD15C,0.01400*%
%ADD16R,0.07500X0.09000*%
%ADD17O,0.07500X0.09000*%
%ADD18C,0.19685*%
%ADD19C,0.07500*%
%ADD20O,0.09000X0.07500*%
%ADD21R,0.09000X0.07500*%
%ADD22C,0.09000*%
%ADD23C,0.09843*%
%ADD24R,0.06693X0.06693*%
%ADD25R,0.06693X0.06693*%
%ADD26C,0.01600*%
%ADD27C,0.00787*%
%ADD28C,0.01000*%
%ADD29R,0.08300X0.09800*%
%ADD30O,0.08300X0.09800*%
%ADD31C,0.20485*%
%ADD32C,0.08300*%
%ADD33O,0.09800X0.08300*%
%ADD34R,0.09800X0.08300*%
%ADD35C,0.09800*%
%ADD36R,0.07493X0.07493*%
%ADD37R,0.07493X0.07493*%
%ADD38C,0.01200*%
%ADD39P,0.10607X4X90.0*%
%ADD40C,0.00500*%
%ADD41C,0.00667*%
D40*
X637685Y438945D02*
Y442945D01*
X641685D01*
Y438945D01*
X637685D01*
X477685D02*
Y442945D01*
X481685D01*
Y438945D01*
X477685D01*
X487685D02*
Y442945D01*
X491685D01*
Y438945D01*
X487685D01*
X497685D02*
Y442945D01*
X501685D01*
Y438945D01*
X497685D01*
X507685D02*
Y442945D01*
X511685D01*
Y438945D01*
X507685D01*
X517685D02*
Y442945D01*
X521685D01*
Y438945D01*
X517685D01*
X527685D02*
Y442945D01*
X531685D01*
Y438945D01*
X527685D01*
X537685D02*
Y442945D01*
X541685D01*
Y438945D01*
X537685D01*
X547685D02*
Y442945D01*
X551685D01*
Y438945D01*
X547685D01*
X557685D02*
Y442945D01*
X561685D01*
Y438945D01*
X557685D01*
X567685D02*
Y442945D01*
X571685D01*
Y438945D01*
X567685D01*
X577685D02*
Y442945D01*
X581685D01*
Y438945D01*
X577685D01*
X587685D02*
Y442945D01*
X591685D01*
Y438945D01*
X587685D01*
X597685D02*
Y442945D01*
X601685D01*
Y438945D01*
X597685D01*
X607685D02*
Y442945D01*
X611685D01*
Y438945D01*
X607685D01*
X617685D02*
Y442945D01*
X621685D01*
Y438945D01*
X617685D01*
X627685D02*
Y442945D01*
X631685D01*
Y438945D01*
X627685D01*
X653591Y657449D02*
Y661449D01*
X657591D01*
Y657449D01*
X653591D01*
X643591D02*
Y661449D01*
X647591D01*
Y657449D01*
X643591D01*
X633591D02*
Y661449D01*
X637591D01*
Y657449D01*
X633591D01*
X623591D02*
Y661449D01*
X627591D01*
Y657449D01*
X623591D01*
X613591D02*
Y661449D01*
X617591D01*
Y657449D01*
X613591D01*
X603591D02*
Y661449D01*
X607591D01*
Y657449D01*
X603591D01*
X593591D02*
Y661449D01*
X597591D01*
Y657449D01*
X593591D01*
X583591D02*
Y661449D01*
X587591D01*
Y657449D01*
X583591D01*
X573591D02*
Y661449D01*
X577591D01*
Y657449D01*
X573591D01*
X563591D02*
Y661449D01*
X567591D01*
Y657449D01*
X563591D01*
X553591D02*
Y661449D01*
X557591D01*
Y657449D01*
X553591D01*
X543591D02*
Y661449D01*
X547591D01*
Y657449D01*
X543591D01*
X533591D02*
Y661449D01*
X537591D01*
Y657449D01*
X533591D01*
X523591D02*
Y661449D01*
X527591D01*
Y657449D01*
X523591D01*
X513591D02*
Y661449D01*
X517591D01*
Y657449D01*
X513591D01*
X503591D02*
Y661449D01*
X507591D01*
Y657449D01*
X503591D01*
X493591D02*
Y661449D01*
X497591D01*
Y657449D01*
X493591D01*
X483591D02*
Y661449D01*
X487591D01*
Y657449D01*
X483591D01*
X473591D02*
Y661449D01*
X477591D01*
Y657449D01*
X473591D01*
X463591D02*
Y661449D01*
X467591D01*
Y657449D01*
X463591D01*
X460000Y512000D02*
Y516000D01*
X464000D01*
Y512000D01*
X460000D01*
Y543500D02*
Y547500D01*
X464000D01*
Y543500D01*
X460000D01*
X480000Y571500D02*
Y575500D01*
X484000D01*
Y571500D01*
X480000D01*
X500000Y592000D02*
Y596000D01*
X504000D01*
Y592000D01*
X500000D01*
X603000Y573000D02*
Y577000D01*
X607000D01*
Y573000D01*
X603000D01*
Y563000D02*
Y567000D01*
X607000D01*
Y563000D01*
X603000D01*
Y553000D02*
Y557000D01*
X607000D01*
Y553000D01*
X603000D01*
Y543000D02*
Y547000D01*
X607000D01*
Y543000D01*
X603000D01*
Y533000D02*
Y537000D01*
X607000D01*
Y533000D01*
X603000D01*
Y523000D02*
Y527000D01*
X607000D01*
Y523000D01*
X603000D01*
Y513000D02*
Y517000D01*
X607000D01*
Y513000D01*
X603000D01*
Y503000D02*
Y507000D01*
X607000D01*
Y503000D01*
X603000D01*
X573000Y573000D02*
Y577000D01*
X577000D01*
Y573000D01*
X573000D01*
Y563000D02*
Y567000D01*
X577000D01*
Y563000D01*
X573000D01*
Y553000D02*
Y557000D01*
X577000D01*
Y553000D01*
X573000D01*
Y543000D02*
Y547000D01*
X577000D01*
Y543000D01*
X573000D01*
Y533000D02*
Y537000D01*
X577000D01*
Y533000D01*
X573000D01*
Y523000D02*
Y527000D01*
X577000D01*
Y523000D01*
X573000D01*
Y513000D02*
Y517000D01*
X577000D01*
Y513000D01*
X573000D01*
Y503000D02*
Y507000D01*
X577000D01*
Y503000D01*
X573000D01*
X443500Y585400D02*
Y589400D01*
X447500D01*
Y585400D01*
X443500D01*
X463500Y595400D02*
Y599400D01*
X467500D01*
Y595400D01*
X463500D01*
Y575400D02*
Y579400D01*
X467500D01*
Y575400D01*
X463500D01*
X617800Y455900D02*
Y459900D01*
X621800D01*
Y455900D01*
X617800D01*
X547800D02*
Y459900D01*
X551800D01*
Y455900D01*
X547800D01*
X557800D02*
Y459900D01*
X561800D01*
Y455900D01*
X557800D01*
X567800D02*
Y459900D01*
X571800D01*
Y455900D01*
X567800D01*
X577800D02*
Y459900D01*
X581800D01*
Y455900D01*
X577800D01*
X587800D02*
Y459900D01*
X591800D01*
Y455900D01*
X587800D01*
X597800D02*
Y459900D01*
X601800D01*
Y455900D01*
X597800D01*
X607800D02*
Y459900D01*
X611800D01*
Y455900D01*
X607800D01*
X627800D02*
Y459900D01*
X631800D01*
Y455900D01*
X627800D01*
X463591Y421228D02*
Y425228D01*
X467591D01*
Y421228D01*
X463591D01*
X473591D02*
Y425228D01*
X477591D01*
Y421228D01*
X473591D01*
X483591D02*
Y425228D01*
X487591D01*
Y421228D01*
X483591D01*
X493591D02*
Y425228D01*
X497591D01*
Y421228D01*
X493591D01*
X503591D02*
Y425228D01*
X507591D01*
Y421228D01*
X503591D01*
X513591D02*
Y425228D01*
X517591D01*
Y421228D01*
X513591D01*
X523591D02*
Y425228D01*
X527591D01*
Y421228D01*
X523591D01*
X533591D02*
Y425228D01*
X537591D01*
Y421228D01*
X533591D01*
X543591D02*
Y425228D01*
X547591D01*
Y421228D01*
X543591D01*
X553591D02*
Y425228D01*
X557591D01*
Y421228D01*
X553591D01*
X563591D02*
Y425228D01*
X567591D01*
Y421228D01*
X563591D01*
X573591D02*
Y425228D01*
X577591D01*
Y421228D01*
X573591D01*
X583591D02*
Y425228D01*
X587591D01*
Y421228D01*
X583591D01*
X593591D02*
Y425228D01*
X597591D01*
Y421228D01*
X593591D01*
X603591D02*
Y425228D01*
X607591D01*
Y421228D01*
X603591D01*
X613591D02*
Y425228D01*
X617591D01*
Y421228D01*
X613591D01*
X623591D02*
Y425228D01*
X627591D01*
Y421228D01*
X623591D01*
X633591D02*
Y425228D01*
X637591D01*
Y421228D01*
X633591D01*
X643591D02*
Y425228D01*
X647591D01*
Y421228D01*
X643591D01*
X653591D02*
Y425228D01*
X657591D01*
Y421228D01*
X653591D01*
X433378Y636547D02*
Y640547D01*
X437378D01*
Y636547D01*
X433378D01*
X463378D02*
Y640547D01*
X467378D01*
Y636547D01*
X463378D01*
X453378D02*
Y640547D01*
X457378D01*
Y636547D01*
X453378D01*
X573378D02*
Y640547D01*
X577378D01*
Y636547D01*
X573378D01*
X443378D02*
Y640547D01*
X447378D01*
Y636547D01*
X443378D01*
X473378D02*
Y640547D01*
X477378D01*
Y636547D01*
X473378D01*
X553378D02*
Y640547D01*
X557378D01*
Y636547D01*
X553378D01*
X543378D02*
Y640547D01*
X547378D01*
Y636547D01*
X543378D01*
X533378D02*
Y640547D01*
X537378D01*
Y636547D01*
X533378D01*
X523378D02*
Y640547D01*
X527378D01*
Y636547D01*
X523378D01*
X513378D02*
Y640547D01*
X517378D01*
Y636547D01*
X513378D01*
X503378D02*
Y640547D01*
X507378D01*
Y636547D01*
X503378D01*
X493378D02*
Y640547D01*
X497378D01*
Y636547D01*
X493378D01*
X483378D02*
Y640547D01*
X487378D01*
Y636547D01*
X483378D01*
X423378D02*
Y640547D01*
X427378D01*
Y636547D01*
X423378D01*
X563378D02*
Y640547D01*
X567378D01*
Y636547D01*
X563378D01*
X403724D02*
X401724Y640547D01*
X405724D01*
X403724Y636547D01*
X699000D02*
X697000Y640547D01*
X701000D01*
X699000Y636547D01*
X403724Y514500D02*
X401724Y518500D01*
X405724D01*
X403724Y514500D01*
X699000D02*
X697000Y518500D01*
X701000D01*
X699000Y514500D01*
X552000Y606000D02*
Y610000D01*
X556000D01*
Y606000D01*
X552000D01*
X473000Y461000D02*
Y465000D01*
X477000D01*
Y461000D01*
X473000D01*
X585500Y476500D02*
Y480500D01*
X589500D01*
Y476500D01*
X585500D01*
X552000Y550500D02*
Y554500D01*
X556000D01*
Y550500D01*
X552000D01*
X622000Y606500D02*
Y610500D01*
X626000D01*
Y606500D01*
X622000D01*
X609500Y620000D02*
Y624000D01*
X613500D01*
Y620000D01*
X609500D01*
D41*
X415386Y413386D02*
G03*
X415386Y413386I-2000J0D01*
G01*
X690976D02*
G03*
X690976Y413386I-2000J0D01*
G01*
Y669291D02*
G03*
X690976Y669291I-2000J0D01*
G01*
X415386D02*
G03*
X415386Y669291I-2000J0D01*
G01*
M02*
