%FSLAX25Y25*%
%MOIN*%
G70*
G01*
G75*
G04 Layer_Color=32896*
%ADD10C,0.02200*%
%ADD11C,0.01800*%
%ADD12C,0.03000*%
%ADD13C,0.00800*%
%ADD14C,0.01575*%
%ADD15C,0.01400*%
%ADD16R,0.07500X0.09000*%
%ADD17O,0.07500X0.09000*%
%ADD18C,0.19685*%
%ADD19C,0.07500*%
%ADD20O,0.09000X0.07500*%
%ADD21R,0.09000X0.07500*%
%ADD22C,0.09000*%
%ADD23C,0.09843*%
%ADD24R,0.06693X0.06693*%
%ADD25R,0.06693X0.06693*%
%ADD26C,0.01600*%
%ADD27C,0.00787*%
%ADD28C,0.01000*%
%ADD29R,0.08300X0.09800*%
%ADD30O,0.08300X0.09800*%
%ADD31C,0.20485*%
%ADD32C,0.08300*%
%ADD33O,0.09800X0.08300*%
%ADD34R,0.09800X0.08300*%
%ADD35C,0.09800*%
%ADD36R,0.07493X0.07493*%
%ADD37R,0.07493X0.07493*%
%ADD38C,0.01200*%
%ADD39P,0.10607X4X90.0*%
D13*
X494296Y468189D02*
Y477047D01*
Y482953D02*
Y491811D01*
X484454Y468189D02*
Y477047D01*
Y482953D02*
Y491811D01*
X494296D01*
X484454Y468189D02*
X494296D01*
X498829D02*
X508671D01*
X498829Y491811D02*
X508671D01*
X498829Y482953D02*
Y491811D01*
Y468189D02*
Y477047D01*
X508671Y482953D02*
Y491811D01*
Y468189D02*
Y477047D01*
X523046Y468189D02*
Y477047D01*
Y482953D02*
Y491811D01*
X513204Y468189D02*
Y477047D01*
Y482953D02*
Y491811D01*
X523046D01*
X513204Y468189D02*
X523046D01*
X527579D02*
X537421D01*
X527579Y491811D02*
X537421D01*
X527579Y482953D02*
Y491811D01*
Y468189D02*
Y477047D01*
X537421Y482953D02*
Y491811D01*
Y468189D02*
Y477047D01*
X479921Y468189D02*
Y477047D01*
Y482953D02*
Y491811D01*
X470079Y468189D02*
Y477047D01*
Y482953D02*
Y491811D01*
X479921D01*
X470079Y468189D02*
X479921D01*
X450750Y455500D02*
X454250D01*
X450750Y449500D02*
X454250D01*
X428250Y625500D02*
X431750D01*
X428250Y619500D02*
X431750D01*
X450750Y459500D02*
X454250D01*
X450750Y465500D02*
X454250D01*
X393701Y393701D02*
X708661D01*
Y688976D01*
X393701D02*
X708661D01*
X393701Y393701D02*
Y688976D01*
X647579Y468189D02*
X657421D01*
X647579Y491811D02*
X657421D01*
X647579Y482953D02*
Y491811D01*
Y468189D02*
Y477047D01*
X657421Y482953D02*
Y491811D01*
Y468189D02*
Y477047D01*
X590750Y489500D02*
X594250D01*
X590750Y495500D02*
X594250D01*
D15*
X724000Y626697D02*
Y616700D01*
X728998D01*
X730664Y618366D01*
Y620032D01*
X728998Y621698D01*
X724000D01*
X728998D01*
X730664Y623364D01*
Y625031D01*
X728998Y626697D01*
X724000D01*
X738995D02*
X735663D01*
X733997Y625031D01*
Y618366D01*
X735663Y616700D01*
X738995D01*
X740661Y618366D01*
Y625031D01*
X738995Y626697D01*
X743994D02*
X750658D01*
X747326D01*
Y616700D01*
X753990Y626697D02*
X760655D01*
X757323D01*
Y616700D01*
X768986Y626697D02*
X765653D01*
X763987Y625031D01*
Y618366D01*
X765653Y616700D01*
X768986D01*
X770652Y618366D01*
Y625031D01*
X768986Y626697D01*
X773984Y616700D02*
Y626697D01*
X777316Y623364D01*
X780648Y626697D01*
Y616700D01*
X793977Y626697D02*
Y616700D01*
X800642D01*
X810639Y626697D02*
X803974D01*
Y616700D01*
X810639D01*
X803974Y621698D02*
X807306D01*
X820635Y625031D02*
X818969Y626697D01*
X815637D01*
X813971Y625031D01*
Y618366D01*
X815637Y616700D01*
X818969D01*
X820635Y618366D01*
Y621698D01*
X817303D01*
X830632Y626697D02*
X823968D01*
Y616700D01*
X830632D01*
X823968Y621698D02*
X827300D01*
X833965Y616700D02*
Y626697D01*
X840629Y616700D01*
Y626697D01*
X843961D02*
Y616700D01*
X848960D01*
X850626Y618366D01*
Y625031D01*
X848960Y626697D01*
X843961D01*
D27*
X592500Y501221D02*
G03*
X587500Y501221I-2500J0D01*
G01*
X468091Y654449D02*
X660591D01*
X460591D02*
X468091D01*
X460591D02*
Y664449D01*
X660591D01*
Y654449D02*
Y664449D01*
X600433Y501221D02*
Y578780D01*
X579567Y501221D02*
Y578780D01*
X600433D01*
X592500Y501221D02*
X600433D01*
X579567D02*
X587500D01*
X544800Y462900D02*
X634800D01*
Y452900D02*
Y462900D01*
X544800Y452900D02*
X634800D01*
X544800D02*
Y462900D01*
X460591Y418228D02*
Y428228D01*
Y418228D02*
X660591D01*
Y428228D01*
X653091D02*
X660591D01*
X460591D02*
X653091D01*
D28*
X478000Y587400D02*
G03*
X478000Y587400I-20000J0D01*
G01*
X458000Y579900D02*
Y594900D01*
X453000Y587400D02*
X463000D01*
X456001Y624998D02*
X457001Y625998D01*
X459000D01*
X460000Y624998D01*
Y621000D01*
X459000Y620000D01*
X457001D01*
X456001Y621000D01*
X454002Y620000D02*
X452003D01*
X453002D01*
Y625998D01*
X454002Y624998D01*
X449004Y625998D02*
X445005D01*
Y624998D01*
X449004Y621000D01*
Y620000D01*
X478001Y454498D02*
X479001Y455498D01*
X481000D01*
X482000Y454498D01*
Y450500D01*
X481000Y449500D01*
X479001D01*
X478001Y450500D01*
X473003Y449500D02*
Y455498D01*
X476002Y452499D01*
X472003D01*
X467005Y449500D02*
Y455498D01*
X470004Y452499D01*
X466005D01*
X660000Y667800D02*
Y673798D01*
X657001D01*
X656001Y672798D01*
Y670799D01*
X657001Y669799D01*
X660000D01*
X650003Y673798D02*
X654002D01*
Y670799D01*
X652003Y671799D01*
X651003D01*
X650003Y670799D01*
Y668800D01*
X651003Y667800D01*
X653002D01*
X654002Y668800D01*
X495000Y410000D02*
Y415998D01*
X492001D01*
X491001Y414998D01*
Y412999D01*
X492001Y411999D01*
X495000D01*
X485003Y415998D02*
X487003Y414998D01*
X489002Y412999D01*
Y411000D01*
X488002Y410000D01*
X486003D01*
X485003Y411000D01*
Y411999D01*
X486003Y412999D01*
X489002D01*
X660000Y455000D02*
Y460998D01*
X657001D01*
X656001Y459998D01*
Y457999D01*
X657001Y456999D01*
X660000D01*
X654002Y460998D02*
Y456000D01*
X653002Y455000D01*
X651003D01*
X650003Y456000D01*
Y460998D01*
X648004D02*
Y455000D01*
X644005D01*
X642006Y460998D02*
Y455000D01*
X638007D01*
X486875Y495000D02*
X492873D01*
Y497999D01*
X491873Y498999D01*
X489874D01*
X488874Y497999D01*
Y495000D01*
Y496999D02*
X486875Y498999D01*
Y504997D02*
Y500998D01*
X490874Y504997D01*
X491873D01*
X492873Y503997D01*
Y501998D01*
X491873Y500998D01*
X492873Y510995D02*
X491873Y508995D01*
X489874Y506996D01*
X487875D01*
X486875Y507996D01*
Y509995D01*
X487875Y510995D01*
X488874D01*
X489874Y509995D01*
Y506996D01*
X530000Y495000D02*
X535998D01*
Y497999D01*
X534998Y498999D01*
X532999D01*
X531999Y497999D01*
Y495000D01*
Y496999D02*
X530000Y498999D01*
Y504997D02*
Y500998D01*
X533999Y504997D01*
X534998D01*
X535998Y503997D01*
Y501998D01*
X534998Y500998D01*
X535998Y506996D02*
Y510995D01*
X534998D01*
X531000Y506996D01*
X530000D01*
X515625Y495000D02*
X521623D01*
Y497999D01*
X520623Y498999D01*
X518624D01*
X517624Y497999D01*
Y495000D01*
Y496999D02*
X515625Y498999D01*
Y504997D02*
Y500998D01*
X519624Y504997D01*
X520623D01*
X521623Y503997D01*
Y501998D01*
X520623Y500998D01*
Y506996D02*
X521623Y507996D01*
Y509995D01*
X520623Y510995D01*
X519624D01*
X518624Y509995D01*
X517624Y510995D01*
X516625D01*
X515625Y509995D01*
Y507996D01*
X516625Y506996D01*
X517624D01*
X518624Y507996D01*
X519624Y506996D01*
X520623D01*
X518624Y507996D02*
Y509995D01*
X501250Y495000D02*
X507248D01*
Y497999D01*
X506248Y498999D01*
X504249D01*
X503249Y497999D01*
Y495000D01*
Y496999D02*
X501250Y498999D01*
Y504997D02*
Y500998D01*
X505249Y504997D01*
X506248D01*
X507248Y503997D01*
Y501998D01*
X506248Y500998D01*
X502250Y506996D02*
X501250Y507996D01*
Y509995D01*
X502250Y510995D01*
X506248D01*
X507248Y509995D01*
Y507996D01*
X506248Y506996D01*
X505249D01*
X504249Y507996D01*
Y510995D01*
X472500Y495000D02*
X478498D01*
Y497999D01*
X477498Y498999D01*
X475499D01*
X474499Y497999D01*
Y495000D01*
Y496999D02*
X472500Y498999D01*
X477498Y500998D02*
X478498Y501998D01*
Y503997D01*
X477498Y504997D01*
X476499D01*
X475499Y503997D01*
Y502997D01*
Y503997D01*
X474499Y504997D01*
X473500D01*
X472500Y503997D01*
Y501998D01*
X473500Y500998D01*
X477498Y506996D02*
X478498Y507996D01*
Y509995D01*
X477498Y510995D01*
X473500D01*
X472500Y509995D01*
Y507996D01*
X473500Y506996D01*
X477498D01*
X493500Y583500D02*
Y589498D01*
X490501D01*
X489501Y588498D01*
Y586499D01*
X490501Y585499D01*
X493500D01*
X491501D02*
X489501Y583500D01*
X487502Y588498D02*
X486502Y589498D01*
X484503D01*
X483503Y588498D01*
Y587499D01*
X484503Y586499D01*
X485503D01*
X484503D01*
X483503Y585499D01*
Y584500D01*
X484503Y583500D01*
X486502D01*
X487502Y584500D01*
X481504Y583500D02*
X479504D01*
X480504D01*
Y589498D01*
X481504Y588498D01*
X598800Y592298D02*
Y587300D01*
X597800Y586300D01*
X595801D01*
X594801Y587300D01*
Y592298D01*
X592802Y586300D02*
X590803D01*
X591802D01*
Y592298D01*
X592802Y591298D01*
X583805Y592298D02*
X587804D01*
Y589299D01*
X585804Y590299D01*
X584804D01*
X583805Y589299D01*
Y587300D01*
X584804Y586300D01*
X586804D01*
X587804Y587300D01*
X457001Y473998D02*
X458001Y474998D01*
X460000D01*
X461000Y473998D01*
Y470000D01*
X460000Y469000D01*
X458001D01*
X457001Y470000D01*
X451003Y474998D02*
X455002D01*
Y471999D01*
X453003Y472999D01*
X452003D01*
X451003Y471999D01*
Y470000D01*
X452003Y469000D01*
X454002D01*
X455002Y470000D01*
X446005Y469000D02*
Y474998D01*
X449004Y471999D01*
X445005D01*
X617301Y494098D02*
X618301Y495098D01*
X620300D01*
X621300Y494098D01*
Y490100D01*
X620300Y489100D01*
X618301D01*
X617301Y490100D01*
X611303Y495098D02*
X615302D01*
Y492099D01*
X613303Y493099D01*
X612303D01*
X611303Y492099D01*
Y490100D01*
X612303Y489100D01*
X614302D01*
X615302Y490100D01*
X605305Y495098D02*
X609304D01*
Y492099D01*
X607304Y493099D01*
X606305D01*
X605305Y492099D01*
Y490100D01*
X606305Y489100D01*
X608304D01*
X609304Y490100D01*
X650000Y495000D02*
X655998D01*
Y497999D01*
X654998Y498999D01*
X652999D01*
X651999Y497999D01*
Y495000D01*
Y496999D02*
X650000Y498999D01*
X654998Y500998D02*
X655998Y501998D01*
Y503997D01*
X654998Y504997D01*
X653999D01*
X652999Y503997D01*
Y502997D01*
Y503997D01*
X651999Y504997D01*
X651000D01*
X650000Y503997D01*
Y501998D01*
X651000Y500998D01*
X650000Y506996D02*
Y508995D01*
Y507996D01*
X655998D01*
X654998Y506996D01*
D38*
X427498Y441498D02*
X428997Y439998D01*
Y437000D01*
X427498Y435500D01*
X425998D01*
X424499Y437000D01*
Y439998D01*
X422999Y441498D01*
X421499D01*
X420000Y439998D01*
Y437000D01*
X421499Y435500D01*
X420000Y444497D02*
X425998Y450495D01*
X420000Y453494D02*
X428997D01*
X420000Y459492D01*
X428997D01*
X425998Y462491D02*
Y463991D01*
X424499D01*
Y462491D01*
X425998D01*
X421499D02*
Y463991D01*
X420000D01*
Y462491D01*
X421499D01*
X643501Y624498D02*
X644501Y625498D01*
X646500D01*
X647500Y624498D01*
Y623499D01*
X646500Y622499D01*
X644501D01*
X643501Y621499D01*
Y620500D01*
X644501Y619500D01*
X646500D01*
X647500Y620500D01*
X641502Y625498D02*
X639503D01*
X640502D01*
Y619500D01*
X641502D01*
X639503D01*
X636504D02*
Y625498D01*
X634504Y623499D01*
X632505Y625498D01*
Y619500D01*
X626507Y624498D02*
X627506Y625498D01*
X629506D01*
X630506Y624498D01*
Y620500D01*
X629506Y619500D01*
X627506D01*
X626507Y620500D01*
X621508Y625498D02*
X623508D01*
X624507Y624498D01*
Y620500D01*
X623508Y619500D01*
X621508D01*
X620509Y620500D01*
Y624498D01*
X621508Y625498D01*
X618509Y619500D02*
Y625498D01*
X614511Y619500D01*
Y625498D01*
X608513Y624498D02*
X609512Y625498D01*
X611512D01*
X612511Y624498D01*
Y623499D01*
X611512Y622499D01*
X609512D01*
X608513Y621499D01*
Y620500D01*
X609512Y619500D01*
X611512D01*
X612511Y620500D01*
X596517Y624498D02*
X597516Y625498D01*
X599515D01*
X600515Y624498D01*
Y620500D01*
X599515Y619500D01*
X597516D01*
X596517Y620500D01*
X591518Y625498D02*
X593517D01*
X594517Y624498D01*
Y620500D01*
X593517Y619500D01*
X591518D01*
X590518Y620500D01*
Y624498D01*
X591518Y625498D01*
X588519Y619500D02*
Y625498D01*
X584520Y619500D01*
Y625498D01*
X582521D02*
X578522D01*
X580522D01*
Y619500D01*
X576523D02*
Y625498D01*
X573524D01*
X572524Y624498D01*
Y622499D01*
X573524Y621499D01*
X576523D01*
X574524D02*
X572524Y619500D01*
X567526Y625498D02*
X569525D01*
X570525Y624498D01*
Y620500D01*
X569525Y619500D01*
X567526D01*
X566526Y620500D01*
Y624498D01*
X567526Y625498D01*
X564527D02*
Y619500D01*
X560528D01*
X548532Y624498D02*
X549532Y625498D01*
X551531D01*
X552531Y624498D01*
Y623499D01*
X551531Y622499D01*
X549532D01*
X548532Y621499D01*
Y620500D01*
X549532Y619500D01*
X551531D01*
X552531Y620500D01*
X546533Y625498D02*
Y624498D01*
X544533Y622499D01*
X542534Y624498D01*
Y625498D01*
X544533Y622499D02*
Y619500D01*
X536536Y624498D02*
X537536Y625498D01*
X539535D01*
X540535Y624498D01*
Y623499D01*
X539535Y622499D01*
X537536D01*
X536536Y621499D01*
Y620500D01*
X537536Y619500D01*
X539535D01*
X540535Y620500D01*
X534537Y625498D02*
X530538D01*
X532537D01*
Y619500D01*
X528539D02*
Y625498D01*
X526539Y623499D01*
X524540Y625498D01*
Y619500D01*
X518542Y625498D02*
X522540D01*
Y619500D01*
X518542D01*
X522540Y622499D02*
X520541D01*
X512544Y624498D02*
X513543Y625498D01*
X515543D01*
X516542Y624498D01*
Y623499D01*
X515543Y622499D01*
X513543D01*
X512544Y621499D01*
Y620500D01*
X513543Y619500D01*
X515543D01*
X516542Y620500D01*
X612000Y601000D02*
Y605665D01*
X609667Y607998D01*
X607335Y605665D01*
Y601000D01*
Y604499D01*
X612000D01*
X600337Y607998D02*
X605002D01*
Y604499D01*
X602670Y605665D01*
X601503D01*
X600337Y604499D01*
Y602166D01*
X601503Y601000D01*
X603836D01*
X605002Y602166D01*
X591007Y605665D02*
Y601000D01*
Y603333D01*
X589841Y604499D01*
X588674Y605665D01*
X587508D01*
X580510Y601000D02*
X582843D01*
X584009Y602166D01*
Y604499D01*
X582843Y605665D01*
X580510D01*
X579344Y604499D01*
Y603333D01*
X584009D01*
X577011Y605665D02*
X574679Y601000D01*
X572346Y605665D01*
X570014Y606832D02*
X568847Y607998D01*
X566515D01*
X565348Y606832D01*
Y605665D01*
X566515Y604499D01*
X567681D01*
X566515D01*
X565348Y603333D01*
Y602166D01*
X566515Y601000D01*
X568847D01*
X570014Y602166D01*
X563016Y601000D02*
Y602166D01*
X561849D01*
Y601000D01*
X563016D01*
X557184Y606832D02*
X556018Y607998D01*
X553686D01*
X552519Y606832D01*
Y602166D01*
X553686Y601000D01*
X556018D01*
X557184Y602166D01*
Y606832D01*
D39*
X630000Y472197D02*
D03*
M02*
