G04 Layer_Color=8388736*
%FSLAX25Y25*%
%MOIN*%
G70*
G01*
G75*
%ADD12C,0.01200*%
%ADD36C,0.01000*%
%ADD41C,0.10800*%
%ADD42C,0.06800*%
%ADD43R,0.08300X0.09800*%
%ADD44O,0.08300X0.09800*%
%ADD45R,0.09800X0.08300*%
%ADD46O,0.09800X0.08300*%
%ADD47O,0.09800X0.06800*%
%ADD48O,0.12800X0.13800*%
%ADD49R,0.12800X0.13800*%
%ADD50R,0.08300X0.08300*%
%ADD51C,0.08300*%
%ADD52C,0.16548*%
%ADD53O,0.06800X0.08300*%
%ADD54C,0.09800*%
D12*
X348561Y238497D02*
X353226D01*
X350893D01*
Y231499D01*
X359057Y238497D02*
X356725D01*
X355558Y237330D01*
Y232665D01*
X356725Y231499D01*
X359057D01*
X360224Y232665D01*
Y237330D01*
X359057Y238497D01*
X362556Y231499D02*
Y238497D01*
X366055D01*
X367221Y237330D01*
Y234998D01*
X366055Y233831D01*
X362556D01*
X381217Y237330D02*
X380050Y238497D01*
X377718D01*
X376552Y237330D01*
Y236164D01*
X377718Y234998D01*
X380050D01*
X381217Y233831D01*
Y232665D01*
X380050Y231499D01*
X377718D01*
X376552Y232665D01*
X387048Y238497D02*
X384716D01*
X383549Y237330D01*
Y232665D01*
X384716Y231499D01*
X387048D01*
X388214Y232665D01*
Y237330D01*
X387048Y238497D01*
X390547D02*
Y231499D01*
X395212D01*
X397545Y238497D02*
Y231499D01*
X401044D01*
X402210Y232665D01*
Y237330D01*
X401044Y238497D01*
X397545D01*
X409208D02*
X404542D01*
Y231499D01*
X409208D01*
X404542Y234998D02*
X406875D01*
X411540Y231499D02*
Y238497D01*
X415039D01*
X416206Y237330D01*
Y234998D01*
X415039Y233831D01*
X411540D01*
X413873D02*
X416206Y231499D01*
D36*
X322835Y0D02*
Y303150D01*
X0D02*
X322835D01*
X0Y0D02*
Y303150D01*
Y0D02*
X322835D01*
D41*
X74819Y91032D02*
D03*
Y51032D02*
D03*
X88519Y91032D02*
D03*
Y51032D02*
D03*
D42*
X82432Y74600D02*
D03*
X74932Y72000D02*
D03*
X68432Y75100D02*
D03*
X62932Y34800D02*
D03*
X57531Y29300D02*
D03*
X56432Y38600D02*
D03*
D43*
X117008Y269685D02*
D03*
X246929Y33465D02*
D03*
D44*
X127008Y269685D02*
D03*
X137008D02*
D03*
X147008D02*
D03*
X157008D02*
D03*
X167008D02*
D03*
X177008D02*
D03*
X187008D02*
D03*
X197008D02*
D03*
X207008D02*
D03*
X217008D02*
D03*
X227008D02*
D03*
X237008D02*
D03*
X247008D02*
D03*
X76929Y33465D02*
D03*
X86929D02*
D03*
X106929D02*
D03*
X126929D02*
D03*
X146929D02*
D03*
X166929D02*
D03*
X186929D02*
D03*
X206929D02*
D03*
X226929D02*
D03*
D45*
X25591Y240158D02*
D03*
D46*
Y230157D02*
D03*
Y220158D02*
D03*
Y210157D02*
D03*
Y200157D02*
D03*
Y190157D02*
D03*
Y180157D02*
D03*
Y170158D02*
D03*
Y140157D02*
D03*
Y130157D02*
D03*
Y120158D02*
D03*
Y110158D02*
D03*
Y100157D02*
D03*
Y90158D02*
D03*
D47*
Y160158D02*
D03*
Y150157D02*
D03*
D48*
X45276Y31575D02*
D03*
Y51575D02*
D03*
Y71575D02*
D03*
Y91575D02*
D03*
Y111575D02*
D03*
Y131575D02*
D03*
Y151575D02*
D03*
Y171575D02*
D03*
Y191575D02*
D03*
Y211575D02*
D03*
Y231575D02*
D03*
Y251575D02*
D03*
Y271575D02*
D03*
Y11575D02*
D03*
X277559Y291575D02*
D03*
Y191575D02*
D03*
Y211575D02*
D03*
Y231575D02*
D03*
Y251575D02*
D03*
Y271575D02*
D03*
D49*
X45276Y291575D02*
D03*
D50*
X277559Y11575D02*
D03*
D51*
Y31575D02*
D03*
Y51575D02*
D03*
Y71575D02*
D03*
Y91575D02*
D03*
Y111575D02*
D03*
Y131575D02*
D03*
Y151575D02*
D03*
Y171575D02*
D03*
D52*
X7874Y263779D02*
D03*
X314961D02*
D03*
Y39370D02*
D03*
X7874D02*
D03*
D53*
X96929Y33465D02*
D03*
X116929D02*
D03*
X136929D02*
D03*
X156929D02*
D03*
X176929D02*
D03*
X196929D02*
D03*
X216929D02*
D03*
X236929D02*
D03*
D54*
X203268Y132736D02*
D03*
X253268D02*
D03*
X203268Y112736D02*
D03*
X253268D02*
D03*
X142736D02*
D03*
X192736D02*
D03*
X203268Y92736D02*
D03*
X253268D02*
D03*
X142736D02*
D03*
X192736D02*
D03*
X142736Y132736D02*
D03*
X192736D02*
D03*
X189736Y53236D02*
D03*
X239736D02*
D03*
X203268Y65236D02*
D03*
X253268D02*
D03*
X94488Y282874D02*
D03*
Y232874D02*
D03*
X76772Y282874D02*
D03*
Y232874D02*
D03*
M02*
