M48
;Layer_Color=9474304
;FILE_FORMAT=2:5
INCH,LZ
;TYPE=PLATED
T1F00S00C0.03150
T2F00S00C0.03543
T3F00S00C0.03937
T4F00S00C0.05906
T5F00S00C0.07874
%
T01
X0057531Y00293
X0056432Y00386
X0062932Y00348
X0068432Y00751
X0074932Y0072
X0082432Y00746
T02
X0076929Y0033465
X0086929
X0096929
X0106929
X0116929
X0126929
X0136929
X0146929
X0156929
X0166929
X0176929
X0186929
X0196929
X0206929
X0216929
X0226929
X0203268Y0065236
X0189736Y0053236
X0239736
X0236929Y0033465
X0246929
X0253268Y0065236
Y0092736
Y0112736
Y0132736
X0203268
X0192736
Y0112736
X0203268
Y0092736
X0192736
X0142736
Y0112736
Y0132736
X0094488Y0232874
X0076772
X0025591Y0230157
Y0220158
Y0210157
Y0200157
Y0190157
Y0180157
Y0170158
Y0160158
Y0150157
Y0140157
Y0130157
Y0120158
Y0110158
Y0100157
Y0090158
Y0240158
X0076772Y0282874
X0094488
X0117008Y0269685
X0127008
X0137008
X0147008
X0157008
X0167008
X0177008
X0187008
X0197008
X0207008
X0217008
X0227008
X0237008
X0247008
T03
X0074819Y0051032
X0088519
Y0091032
X0074819
T04
X0045276Y0011575
Y0031575
Y0051575
Y0071575
X0277559
Y0051575
Y0031575
Y0011575
Y0091575
Y0111575
Y0131575
Y0151575
Y0171575
Y0191575
Y0211575
Y0231575
X0045276
Y0211575
Y0191575
Y0171575
Y0151575
Y0131575
Y0111575
Y0091575
Y0251575
Y0271575
Y0291575
X0277559
Y0271575
Y0251575
T05
X0007874Y003937
X0314961
X0007874Y0263779
X0314961
M30
