G04 Layer_Color=2752767*
%FSLAX25Y25*%
%MOIN*%
G70*
G01*
G75*
%ADD59C,0.00200*%
%ADD60C,0.00267*%
D59*
X74019Y90232D02*
Y91832D01*
X75619D01*
Y90232D01*
X74019D01*
Y50232D02*
Y51832D01*
X75619D01*
Y50232D01*
X74019D01*
X87719Y90232D02*
Y91832D01*
X89319D01*
Y90232D01*
X87719D01*
Y50232D02*
Y51832D01*
X89319D01*
Y50232D01*
X87719D01*
X117008Y268885D02*
X116208Y270485D01*
X117808D01*
X117008Y268885D01*
X127008D02*
X126208Y270485D01*
X127808D01*
X127008Y268885D01*
X137008D02*
X136208Y270485D01*
X137808D01*
X137008Y268885D01*
X147008D02*
X146208Y270485D01*
X147808D01*
X147008Y268885D01*
X157008D02*
X156208Y270485D01*
X157808D01*
X157008Y268885D01*
X167008D02*
X166208Y270485D01*
X167808D01*
X167008Y268885D01*
X177008D02*
X176208Y270485D01*
X177808D01*
X177008Y268885D01*
X187008D02*
X186208Y270485D01*
X187808D01*
X187008Y268885D01*
X197008D02*
X196208Y270485D01*
X197808D01*
X197008Y268885D01*
X207008D02*
X206208Y270485D01*
X207808D01*
X207008Y268885D01*
X217008D02*
X216208Y270485D01*
X217808D01*
X217008Y268885D01*
X227008D02*
X226208Y270485D01*
X227808D01*
X227008Y268885D01*
X237008D02*
X236208Y270485D01*
X237808D01*
X237008Y268885D01*
X247008D02*
X246208Y270485D01*
X247808D01*
X247008Y268885D01*
X25591Y239357D02*
X24791Y240957D01*
X26391D01*
X25591Y239357D01*
Y229358D02*
X24791Y230958D01*
X26391D01*
X25591Y229358D01*
Y219357D02*
X24791Y220957D01*
X26391D01*
X25591Y219357D01*
Y209358D02*
X24791Y210958D01*
X26391D01*
X25591Y209358D01*
Y199357D02*
X24791Y200957D01*
X26391D01*
X25591Y199357D01*
Y189357D02*
X24791Y190957D01*
X26391D01*
X25591Y189357D01*
Y179358D02*
X24791Y180957D01*
X26391D01*
X25591Y179358D01*
Y169358D02*
X24791Y170958D01*
X26391D01*
X25591Y169358D01*
Y159358D02*
X24791Y160958D01*
X26391D01*
X25591Y159358D01*
Y149357D02*
X24791Y150958D01*
X26391D01*
X25591Y149357D01*
Y139357D02*
X24791Y140957D01*
X26391D01*
X25591Y139357D01*
Y129358D02*
X24791Y130957D01*
X26391D01*
X25591Y129358D01*
Y119358D02*
X24791Y120958D01*
X26391D01*
X25591Y119358D01*
Y109358D02*
X24791Y110958D01*
X26391D01*
X25591Y109358D01*
Y99357D02*
X24791Y100958D01*
X26391D01*
X25591Y99357D01*
Y89358D02*
X24791Y90957D01*
X26391D01*
X25591Y89358D01*
X45276Y30775D02*
X45676Y31175D01*
X46076D01*
X45676Y31575D01*
X46076Y31975D01*
X45676D01*
X45276Y32375D01*
X44876Y31975D01*
X44476D01*
X44876Y31575D01*
X44476Y31175D01*
X44876D01*
X45276Y30775D01*
Y50775D02*
X45676Y51175D01*
X46076D01*
X45676Y51575D01*
X46076Y51975D01*
X45676D01*
X45276Y52375D01*
X44876Y51975D01*
X44476D01*
X44876Y51575D01*
X44476Y51175D01*
X44876D01*
X45276Y50775D01*
Y70775D02*
X45676Y71175D01*
X46076D01*
X45676Y71575D01*
X46076Y71975D01*
X45676D01*
X45276Y72375D01*
X44876Y71975D01*
X44476D01*
X44876Y71575D01*
X44476Y71175D01*
X44876D01*
X45276Y70775D01*
Y90775D02*
X45676Y91175D01*
X46076D01*
X45676Y91575D01*
X46076Y91975D01*
X45676D01*
X45276Y92375D01*
X44876Y91975D01*
X44476D01*
X44876Y91575D01*
X44476Y91175D01*
X44876D01*
X45276Y90775D01*
Y110775D02*
X45676Y111175D01*
X46076D01*
X45676Y111575D01*
X46076Y111975D01*
X45676D01*
X45276Y112375D01*
X44876Y111975D01*
X44476D01*
X44876Y111575D01*
X44476Y111175D01*
X44876D01*
X45276Y110775D01*
Y130775D02*
X45676Y131175D01*
X46076D01*
X45676Y131575D01*
X46076Y131975D01*
X45676D01*
X45276Y132375D01*
X44876Y131975D01*
X44476D01*
X44876Y131575D01*
X44476Y131175D01*
X44876D01*
X45276Y130775D01*
Y150775D02*
X45676Y151175D01*
X46076D01*
X45676Y151575D01*
X46076Y151975D01*
X45676D01*
X45276Y152375D01*
X44876Y151975D01*
X44476D01*
X44876Y151575D01*
X44476Y151175D01*
X44876D01*
X45276Y150775D01*
Y170775D02*
X45676Y171175D01*
X46076D01*
X45676Y171575D01*
X46076Y171975D01*
X45676D01*
X45276Y172375D01*
X44876Y171975D01*
X44476D01*
X44876Y171575D01*
X44476Y171175D01*
X44876D01*
X45276Y170775D01*
Y190775D02*
X45676Y191175D01*
X46076D01*
X45676Y191575D01*
X46076Y191975D01*
X45676D01*
X45276Y192375D01*
X44876Y191975D01*
X44476D01*
X44876Y191575D01*
X44476Y191175D01*
X44876D01*
X45276Y190775D01*
Y210775D02*
X45676Y211175D01*
X46076D01*
X45676Y211575D01*
X46076Y211975D01*
X45676D01*
X45276Y212375D01*
X44876Y211975D01*
X44476D01*
X44876Y211575D01*
X44476Y211175D01*
X44876D01*
X45276Y210775D01*
Y230775D02*
X45676Y231175D01*
X46076D01*
X45676Y231575D01*
X46076Y231975D01*
X45676D01*
X45276Y232375D01*
X44876Y231975D01*
X44476D01*
X44876Y231575D01*
X44476Y231175D01*
X44876D01*
X45276Y230775D01*
Y250775D02*
X45676Y251175D01*
X46076D01*
X45676Y251575D01*
X46076Y251975D01*
X45676D01*
X45276Y252375D01*
X44876Y251975D01*
X44476D01*
X44876Y251575D01*
X44476Y251175D01*
X44876D01*
X45276Y250775D01*
Y270775D02*
X45676Y271175D01*
X46076D01*
X45676Y271575D01*
X46076Y271975D01*
X45676D01*
X45276Y272375D01*
X44876Y271975D01*
X44476D01*
X44876Y271575D01*
X44476Y271175D01*
X44876D01*
X45276Y270775D01*
Y290775D02*
X45676Y291175D01*
X46076D01*
X45676Y291575D01*
X46076Y291975D01*
X45676D01*
X45276Y292375D01*
X44876Y291975D01*
X44476D01*
X44876Y291575D01*
X44476Y291175D01*
X44876D01*
X45276Y290775D01*
Y10775D02*
X45676Y11175D01*
X46076D01*
X45676Y11575D01*
X46076Y11975D01*
X45676D01*
X45276Y12375D01*
X44876Y11975D01*
X44476D01*
X44876Y11575D01*
X44476Y11175D01*
X44876D01*
X45276Y10775D01*
X277559Y290775D02*
X277959Y291175D01*
X278359D01*
X277959Y291575D01*
X278359Y291975D01*
X277959D01*
X277559Y292375D01*
X277159Y291975D01*
X276759D01*
X277159Y291575D01*
X276759Y291175D01*
X277159D01*
X277559Y290775D01*
Y10775D02*
X277959Y11175D01*
X278359D01*
X277959Y11575D01*
X278359Y11975D01*
X277959D01*
X277559Y12375D01*
X277159Y11975D01*
X276759D01*
X277159Y11575D01*
X276759Y11175D01*
X277159D01*
X277559Y10775D01*
Y30775D02*
X277959Y31175D01*
X278359D01*
X277959Y31575D01*
X278359Y31975D01*
X277959D01*
X277559Y32375D01*
X277159Y31975D01*
X276759D01*
X277159Y31575D01*
X276759Y31175D01*
X277159D01*
X277559Y30775D01*
Y50775D02*
X277959Y51175D01*
X278359D01*
X277959Y51575D01*
X278359Y51975D01*
X277959D01*
X277559Y52375D01*
X277159Y51975D01*
X276759D01*
X277159Y51575D01*
X276759Y51175D01*
X277159D01*
X277559Y50775D01*
Y70775D02*
X277959Y71175D01*
X278359D01*
X277959Y71575D01*
X278359Y71975D01*
X277959D01*
X277559Y72375D01*
X277159Y71975D01*
X276759D01*
X277159Y71575D01*
X276759Y71175D01*
X277159D01*
X277559Y70775D01*
Y90775D02*
X277959Y91175D01*
X278359D01*
X277959Y91575D01*
X278359Y91975D01*
X277959D01*
X277559Y92375D01*
X277159Y91975D01*
X276759D01*
X277159Y91575D01*
X276759Y91175D01*
X277159D01*
X277559Y90775D01*
Y110775D02*
X277959Y111175D01*
X278359D01*
X277959Y111575D01*
X278359Y111975D01*
X277959D01*
X277559Y112375D01*
X277159Y111975D01*
X276759D01*
X277159Y111575D01*
X276759Y111175D01*
X277159D01*
X277559Y110775D01*
Y130775D02*
X277959Y131175D01*
X278359D01*
X277959Y131575D01*
X278359Y131975D01*
X277959D01*
X277559Y132375D01*
X277159Y131975D01*
X276759D01*
X277159Y131575D01*
X276759Y131175D01*
X277159D01*
X277559Y130775D01*
Y150775D02*
X277959Y151175D01*
X278359D01*
X277959Y151575D01*
X278359Y151975D01*
X277959D01*
X277559Y152375D01*
X277159Y151975D01*
X276759D01*
X277159Y151575D01*
X276759Y151175D01*
X277159D01*
X277559Y150775D01*
Y170775D02*
X277959Y171175D01*
X278359D01*
X277959Y171575D01*
X278359Y171975D01*
X277959D01*
X277559Y172375D01*
X277159Y171975D01*
X276759D01*
X277159Y171575D01*
X276759Y171175D01*
X277159D01*
X277559Y170775D01*
Y190775D02*
X277959Y191175D01*
X278359D01*
X277959Y191575D01*
X278359Y191975D01*
X277959D01*
X277559Y192375D01*
X277159Y191975D01*
X276759D01*
X277159Y191575D01*
X276759Y191175D01*
X277159D01*
X277559Y190775D01*
Y210775D02*
X277959Y211175D01*
X278359D01*
X277959Y211575D01*
X278359Y211975D01*
X277959D01*
X277559Y212375D01*
X277159Y211975D01*
X276759D01*
X277159Y211575D01*
X276759Y211175D01*
X277159D01*
X277559Y210775D01*
Y230775D02*
X277959Y231175D01*
X278359D01*
X277959Y231575D01*
X278359Y231975D01*
X277959D01*
X277559Y232375D01*
X277159Y231975D01*
X276759D01*
X277159Y231575D01*
X276759Y231175D01*
X277159D01*
X277559Y230775D01*
Y250775D02*
X277959Y251175D01*
X278359D01*
X277959Y251575D01*
X278359Y251975D01*
X277959D01*
X277559Y252375D01*
X277159Y251975D01*
X276759D01*
X277159Y251575D01*
X276759Y251175D01*
X277159D01*
X277559Y250775D01*
Y270775D02*
X277959Y271175D01*
X278359D01*
X277959Y271575D01*
X278359Y271975D01*
X277959D01*
X277559Y272375D01*
X277159Y271975D01*
X276759D01*
X277159Y271575D01*
X276759Y271175D01*
X277159D01*
X277559Y270775D01*
X7074Y262980D02*
X7474Y263779D01*
X7074Y264580D01*
X7874Y264179D01*
X8674Y264580D01*
X8274Y263779D01*
X8674Y262980D01*
X7874Y263380D01*
X7074Y262980D01*
X314161D02*
X314561Y263779D01*
X314161Y264580D01*
X314961Y264179D01*
X315761Y264580D01*
X315361Y263779D01*
X315761Y262980D01*
X314961Y263380D01*
X314161Y262980D01*
Y38570D02*
X314561Y39370D01*
X314161Y40170D01*
X314961Y39770D01*
X315761Y40170D01*
X315361Y39370D01*
X315761Y38570D01*
X314961Y38970D01*
X314161Y38570D01*
X7074D02*
X7474Y39370D01*
X7074Y40170D01*
X7874Y39770D01*
X8674Y40170D01*
X8274Y39370D01*
X8674Y38570D01*
X7874Y38970D01*
X7074Y38570D01*
X76929Y32665D02*
X76129Y34265D01*
X77729D01*
X76929Y32665D01*
X86929D02*
X86129Y34265D01*
X87729D01*
X86929Y32665D01*
X96929D02*
X96129Y34265D01*
X97729D01*
X96929Y32665D01*
X106929D02*
X106129Y34265D01*
X107729D01*
X106929Y32665D01*
X116929D02*
X116129Y34265D01*
X117729D01*
X116929Y32665D01*
X126929D02*
X126129Y34265D01*
X127729D01*
X126929Y32665D01*
X136929D02*
X136129Y34265D01*
X137729D01*
X136929Y32665D01*
X146929D02*
X146129Y34265D01*
X147729D01*
X146929Y32665D01*
X156929D02*
X156129Y34265D01*
X157729D01*
X156929Y32665D01*
X166929D02*
X166129Y34265D01*
X167729D01*
X166929Y32665D01*
X176929D02*
X176129Y34265D01*
X177729D01*
X176929Y32665D01*
X186929D02*
X186129Y34265D01*
X187729D01*
X186929Y32665D01*
X196929D02*
X196129Y34265D01*
X197729D01*
X196929Y32665D01*
X206929D02*
X206129Y34265D01*
X207729D01*
X206929Y32665D01*
X216929D02*
X216129Y34265D01*
X217729D01*
X216929Y32665D01*
X226929D02*
X226129Y34265D01*
X227729D01*
X226929Y32665D01*
X236929D02*
X236129Y34265D01*
X237729D01*
X236929Y32665D01*
X246929D02*
X246129Y34265D01*
X247729D01*
X246929Y32665D01*
X203268Y131936D02*
X202468Y133536D01*
X204068D01*
X203268Y131936D01*
X253268D02*
X252468Y133536D01*
X254068D01*
X253268Y131936D01*
X203268Y111936D02*
X202468Y113536D01*
X204068D01*
X203268Y111936D01*
X253268D02*
X252468Y113536D01*
X254068D01*
X253268Y111936D01*
X142736D02*
X141936Y113536D01*
X143536D01*
X142736Y111936D01*
X192736D02*
X191936Y113536D01*
X193536D01*
X192736Y111936D01*
X203268Y91936D02*
X202468Y93536D01*
X204068D01*
X203268Y91936D01*
X253268D02*
X252468Y93536D01*
X254068D01*
X253268Y91936D01*
X142736D02*
X141936Y93536D01*
X143536D01*
X142736Y91936D01*
X192736D02*
X191936Y93536D01*
X193536D01*
X192736Y91936D01*
X142736Y131936D02*
X141936Y133536D01*
X143536D01*
X142736Y131936D01*
X192736D02*
X191936Y133536D01*
X193536D01*
X192736Y131936D01*
X189736Y52436D02*
X188936Y54036D01*
X190536D01*
X189736Y52436D01*
X239736D02*
X238936Y54036D01*
X240536D01*
X239736Y52436D01*
X203268Y64436D02*
X202468Y66036D01*
X204068D01*
X203268Y64436D01*
X253268D02*
X252468Y66036D01*
X254068D01*
X253268Y64436D01*
X94488Y282074D02*
X93688Y283674D01*
X95288D01*
X94488Y282074D01*
Y232074D02*
X93688Y233674D01*
X95288D01*
X94488Y232074D01*
X76772Y282074D02*
X75972Y283674D01*
X77572D01*
X76772Y282074D01*
Y232074D02*
X75972Y233674D01*
X77572D01*
X76772Y232074D01*
D60*
X83232Y74600D02*
G03*
X83232Y74600I-800J0D01*
G01*
X75731Y72000D02*
G03*
X75731Y72000I-800J0D01*
G01*
X69231Y75100D02*
G03*
X69231Y75100I-800J0D01*
G01*
X63731Y34800D02*
G03*
X63731Y34800I-800J0D01*
G01*
X58332Y29300D02*
G03*
X58332Y29300I-800J0D01*
G01*
X57231Y38600D02*
G03*
X57231Y38600I-800J0D01*
G01*
M02*
