M48
;Layer_Color=9474304
;FILE_FORMAT=2:5
INCH,LZ
;TYPE=PLATED
T1F00S00C0.02800
T2F00S00C0.03543
T3F00S00C0.03937
T4F00S00C0.04724
%
T01
X0543Y0445
X06325Y06795
T02
X0442205Y0423228
X0452205
X0462205
X0472205
X0482205
X0492205
X0502205
X0512205
X0522205
X0532205
X0584Y04615
X0602Y0462
X0697323Y0423228
X0707323
X0717323
X0727323
X07225Y06175
X07125
X07025
X06925
X06825
X06725
X06625
X06525
X06425
X0678Y05995
X05945Y05555
X0584Y05535
X05595Y05415
X05465
X0547Y0517
X05585
X05405Y04885
X05945Y04805
X0471Y0574
X0425197Y0569921
Y0559921
Y0549921
Y0539921
Y0529921
Y0519921
Y0509921
Y0499921
Y0489921
Y0479921
Y0579921
Y0589921
Y0599921
Y0609921
Y0619921
Y0629921
X0481339Y0659449
X0491339
X0501339
X0511339
X05885Y0658
X0617Y06285
X06315Y0656
X06425Y06475
X06525
X06625
X06725
X06825
X06925
X07025
X07125
X07225
X0718976Y0659449
X0708976
X0698976
X0688976
X0678976
X0668976
X0658976
X0648976
X0728976
X0738976
T03
X0444Y0438
X0464
Y0468
X0444
X0484
Y0438
X0514
Y0468
Y0483
X0484
Y0513
X0514
X0464
X0444
Y0483
X0464
T04
X0685968Y0447756
X0734
X0741874Y0471378
X0734Y0495
X0718878Y0522126
X0695256Y053
X0665
X0641378Y0522126
X0685968Y0495
X07425Y053
Y0578031
X0695256
X0665
X0617756
Y053
X05815Y0593
X0557878Y0585126
X0534256Y0593
X05045Y0595256
Y0578
X0512374Y0554378
X05045Y0530756
X0512374Y0618878
X0456468Y0595256
Y0578
Y06425
X05045
X0534256Y0641032
X05815
M30
