%FSLAX25Y25*%
%MOIN*%
G70*
G01*
G75*
G04 Layer_Color=16711935*
%ADD10C,0.03200*%
%ADD11C,0.02400*%
%ADD12R,0.06693X0.06693*%
%ADD13R,0.06693X0.06693*%
%ADD14C,0.00400*%
%ADD15C,0.01200*%
%ADD16R,0.07500X0.09000*%
%ADD17O,0.07500X0.09000*%
%ADD18O,0.07500X0.09000*%
%ADD19R,0.07500X0.09000*%
%ADD20O,0.09000X0.07500*%
%ADD21R,0.09000X0.07500*%
%ADD22R,0.10500X0.10500*%
%ADD23C,0.10500*%
%ADD24R,0.10500X0.10500*%
%ADD25C,0.10000*%
%ADD26C,0.09000*%
%ADD27C,0.07500*%
%ADD28C,0.06000*%
%ADD29C,0.04000*%
%ADD30R,0.06693X0.05118*%
%ADD31R,0.05118X0.06693*%
%ADD32C,0.01400*%
%ADD33C,0.00600*%
%ADD34C,0.00800*%
%ADD35C,0.00787*%
%ADD36C,0.01600*%
%ADD37C,0.01000*%
%ADD38R,0.07493X0.07493*%
%ADD39R,0.07493X0.07493*%
%ADD40R,0.08300X0.09800*%
%ADD41O,0.08300X0.09800*%
%ADD42O,0.08300X0.09800*%
%ADD43R,0.08300X0.09800*%
%ADD44O,0.09800X0.08300*%
%ADD45R,0.09800X0.08300*%
%ADD46R,0.11300X0.11300*%
%ADD47C,0.11300*%
%ADD48C,0.00800*%
%ADD49R,0.11300X0.11300*%
%ADD50C,0.10800*%
%ADD51C,0.09800*%
%ADD52C,0.08300*%
%ADD53R,0.07493X0.05918*%
%ADD54R,0.05918X0.07493*%
D14*
X393701Y393701D02*
Y420276D01*
X423228D01*
Y437992D01*
X393701D02*
X423228D01*
X393701D02*
Y644685D01*
X423228D01*
Y662402D01*
X393701D02*
X423228D01*
X393701D02*
Y688976D01*
X393701Y688976D01*
X763779D01*
X763779Y688976D01*
Y393701D02*
Y688976D01*
X393701Y393701D02*
X763779D01*
D15*
X773404Y583271D02*
Y576273D01*
X776903D01*
X778069Y577439D01*
Y578606D01*
X776903Y579772D01*
X773404D01*
X776903D01*
X778069Y580938D01*
Y582105D01*
X776903Y583271D01*
X773404D01*
X783901D02*
X781568D01*
X780402Y582105D01*
Y577439D01*
X781568Y576273D01*
X783901D01*
X785067Y577439D01*
Y582105D01*
X783901Y583271D01*
X787399D02*
X792065D01*
X789732D01*
Y576273D01*
X794397Y583271D02*
X799062D01*
X796730D01*
Y576273D01*
X804894Y583271D02*
X802561D01*
X801395Y582105D01*
Y577439D01*
X802561Y576273D01*
X804894D01*
X806060Y577439D01*
Y582105D01*
X804894Y583271D01*
X808393Y576273D02*
Y583271D01*
X810725Y580938D01*
X813058Y583271D01*
Y576273D01*
X827053Y582105D02*
X825887Y583271D01*
X823554D01*
X822388Y582105D01*
Y580938D01*
X823554Y579772D01*
X825887D01*
X827053Y578606D01*
Y577439D01*
X825887Y576273D01*
X823554D01*
X822388Y577439D01*
X832885Y583271D02*
X830552D01*
X829386Y582105D01*
Y577439D01*
X830552Y576273D01*
X832885D01*
X834051Y577439D01*
Y582105D01*
X832885Y583271D01*
X836384D02*
Y576273D01*
X841049D01*
X843381Y583271D02*
Y576273D01*
X846880D01*
X848046Y577439D01*
Y582105D01*
X846880Y583271D01*
X843381D01*
X855044D02*
X850379D01*
Y576273D01*
X855044D01*
X850379Y579772D02*
X852712D01*
X857377Y576273D02*
Y583271D01*
X860876D01*
X862042Y582105D01*
Y579772D01*
X860876Y578606D01*
X857377D01*
X859709D02*
X862042Y576273D01*
D40*
X722500Y647500D02*
D03*
D41*
X712500D02*
D03*
X702500D02*
D03*
X692500D02*
D03*
X682500D02*
D03*
X672500D02*
D03*
X662500D02*
D03*
X652500D02*
D03*
X642500D02*
D03*
X722500Y617500D02*
D03*
X712500D02*
D03*
X702500D02*
D03*
X692500D02*
D03*
X682500D02*
D03*
X672500D02*
D03*
X662500D02*
D03*
X652500D02*
D03*
X642500D02*
D03*
D42*
X511339Y659449D02*
D03*
X501339D02*
D03*
X491339D02*
D03*
X697323Y423228D02*
D03*
X707323D02*
D03*
X717323D02*
D03*
X658976Y659449D02*
D03*
X678976D02*
D03*
X688976D02*
D03*
X698976D02*
D03*
X708976D02*
D03*
X718976D02*
D03*
X728976D02*
D03*
X738976D02*
D03*
X668976D02*
D03*
X452205Y423228D02*
D03*
X472205D02*
D03*
X482205D02*
D03*
X492205D02*
D03*
X502205D02*
D03*
X512205D02*
D03*
X522205D02*
D03*
X532205D02*
D03*
X462205D02*
D03*
D43*
X481339Y659449D02*
D03*
X727323Y423228D02*
D03*
X648976Y659449D02*
D03*
X442205Y423228D02*
D03*
D44*
X425197Y479921D02*
D03*
Y489921D02*
D03*
Y499921D02*
D03*
Y509921D02*
D03*
Y519921D02*
D03*
Y529921D02*
D03*
Y539921D02*
D03*
Y549921D02*
D03*
Y559921D02*
D03*
Y569921D02*
D03*
Y579921D02*
D03*
Y589921D02*
D03*
Y599921D02*
D03*
Y609921D02*
D03*
Y619921D02*
D03*
D45*
Y629921D02*
D03*
D46*
X741874Y471378D02*
D03*
X512374Y618878D02*
D03*
Y554378D02*
D03*
D47*
X734000Y495000D02*
D03*
Y447756D02*
D03*
X685968D02*
D03*
Y495000D02*
D03*
X456468Y642500D02*
D03*
Y595256D02*
D03*
X504500D02*
D03*
Y642500D02*
D03*
X456468Y578000D02*
D03*
X504500Y530756D02*
D03*
Y578000D02*
D03*
X742500Y578031D02*
D03*
X695256D02*
D03*
Y530000D02*
D03*
X742500D02*
D03*
X581500Y593000D02*
D03*
X534256D02*
D03*
Y641032D02*
D03*
X581500D02*
D03*
X665000Y578031D02*
D03*
X617756D02*
D03*
Y530000D02*
D03*
X665000D02*
D03*
D48*
X456468Y530756D02*
D03*
D49*
X718878Y522126D02*
D03*
X557878Y585126D02*
D03*
X641378Y522126D02*
D03*
D50*
X444000Y468000D02*
D03*
Y438000D02*
D03*
X464000D02*
D03*
Y468000D02*
D03*
X484000D02*
D03*
Y438000D02*
D03*
X514000Y468000D02*
D03*
Y438000D02*
D03*
X444000Y513000D02*
D03*
Y483000D02*
D03*
X464000D02*
D03*
Y513000D02*
D03*
X484000D02*
D03*
Y483000D02*
D03*
X514000Y513000D02*
D03*
Y483000D02*
D03*
D51*
X543000Y445000D02*
D03*
X540500Y488500D02*
D03*
X559500Y541500D02*
D03*
X558500Y517000D02*
D03*
X471000Y574000D02*
D03*
X602000Y462000D02*
D03*
X584000Y461500D02*
D03*
Y553500D02*
D03*
X617000Y628500D02*
D03*
X588500Y658000D02*
D03*
X678000Y599500D02*
D03*
X594500Y555500D02*
D03*
X547000Y517000D02*
D03*
X546500Y541500D02*
D03*
X594500Y480500D02*
D03*
X631500Y656000D02*
D03*
D52*
X632500Y679500D02*
D03*
D53*
X528500Y445504D02*
D03*
Y458496D02*
D03*
Y491004D02*
D03*
Y503996D02*
D03*
X535000Y626496D02*
D03*
Y613504D02*
D03*
X725000Y478996D02*
D03*
Y466004D02*
D03*
D54*
X633004Y504500D02*
D03*
X645996D02*
D03*
X566996Y606500D02*
D03*
X554004D02*
D03*
X517004Y531000D02*
D03*
X529996D02*
D03*
X723996Y540500D02*
D03*
X711004D02*
D03*
M02*
