%FSLAX25Y25*%
%MOIN*%
G70*
G01*
G75*
G04 Layer_Physical_Order=2*
G04 Layer_Color=16711680*
%ADD10C,0.03200*%
%ADD11C,0.02400*%
%ADD12R,0.06693X0.06693*%
%ADD13R,0.06693X0.06693*%
%ADD14C,0.00400*%
%ADD15C,0.01200*%
%ADD16R,0.07500X0.09000*%
%ADD17O,0.07500X0.09000*%
%ADD18O,0.07500X0.09000*%
%ADD19R,0.07500X0.09000*%
%ADD20O,0.09000X0.07500*%
%ADD21R,0.09000X0.07500*%
%ADD22R,0.10500X0.10500*%
%ADD23C,0.10500*%
%ADD24R,0.10500X0.10500*%
%ADD25C,0.10000*%
%ADD26C,0.09000*%
%ADD27C,0.07500*%
%ADD28C,0.06000*%
%ADD29C,0.04000*%
%ADD30R,0.06693X0.05118*%
%ADD31R,0.05118X0.06693*%
%ADD32C,0.01400*%
G36*
X429500Y476000D02*
X433000Y472500D01*
X444000D01*
Y463000D01*
X426000D01*
X423500Y465500D01*
X421000Y468000D01*
Y479500D01*
Y480000D01*
X429500D01*
Y476000D01*
D02*
G37*
G36*
X543000Y440500D02*
X529300D01*
X527600Y438800D01*
X521800Y433000D01*
X513900D01*
X510400Y441400D01*
X518500Y449500D01*
X543000D01*
Y440500D01*
D02*
G37*
G36*
X610000Y484000D02*
Y478000D01*
Y427500D01*
X603500Y421000D01*
X589000Y406500D01*
X510500D01*
X510000Y407000D01*
X508500Y408500D01*
Y423000D01*
X516000D01*
Y416500D01*
X517000Y415500D01*
X561000D01*
X580500Y435000D01*
Y469500D01*
Y483000D01*
X585500Y488000D01*
X587000Y489500D01*
X604500D01*
X610000Y484000D01*
D02*
G37*
G36*
X446500Y485500D02*
X443000Y482000D01*
X440000D01*
Y482500D01*
X438500Y484000D01*
X436000Y486500D01*
X425000D01*
Y493500D01*
X438500D01*
X446500Y485500D01*
D02*
G37*
G36*
X540500Y484000D02*
X527500D01*
X524500Y481000D01*
X521500Y478000D01*
X514000D01*
X510500Y486500D01*
X517000Y493000D01*
X540500D01*
Y484000D01*
D02*
G37*
G36*
X489000Y482500D02*
Y467500D01*
X481000D01*
X480000Y466500D01*
X479000Y467500D01*
Y483000D01*
X488500D01*
X489000Y482500D01*
D02*
G37*
G36*
X667456Y462806D02*
X667500Y462762D01*
X667515Y462718D01*
Y462689D01*
Y462557D01*
Y462396D01*
X667500Y462074D01*
Y461723D01*
X667485Y461386D01*
Y461079D01*
Y460947D01*
X667471Y460830D01*
Y460727D01*
Y460654D01*
Y460610D01*
Y460595D01*
X667456Y460347D01*
Y460112D01*
Y459893D01*
X667442Y459688D01*
Y459497D01*
Y459322D01*
Y459161D01*
X667427Y459029D01*
Y458912D01*
Y458795D01*
Y458707D01*
Y458634D01*
Y458575D01*
Y458531D01*
Y458517D01*
Y458502D01*
Y458326D01*
Y458121D01*
X667442Y457872D01*
Y457609D01*
X667456Y457331D01*
Y457038D01*
X667485Y456467D01*
X667500Y456174D01*
Y455911D01*
X667515Y455676D01*
X667529Y455457D01*
Y455281D01*
X667544Y455149D01*
Y455061D01*
Y455047D01*
Y455032D01*
X667559Y454813D01*
Y454622D01*
X667573Y454461D01*
Y454329D01*
X667588Y454212D01*
Y454125D01*
Y454051D01*
Y453993D01*
X667603Y453920D01*
Y453890D01*
X667588Y453832D01*
X667573Y453788D01*
X667515Y453729D01*
X667456Y453715D01*
X667427Y453700D01*
X667368Y453685D01*
X667295D01*
X667119Y453671D01*
X666929Y453656D01*
X666724D01*
X666519Y453641D01*
X665963D01*
X665743Y453656D01*
X665553D01*
X665377Y453671D01*
X665260Y453685D01*
X665158D01*
X665099Y453700D01*
X664982D01*
X664938Y453715D01*
X664909D01*
X664880Y453759D01*
X664850Y453802D01*
Y453861D01*
Y453876D01*
Y454037D01*
Y454198D01*
Y454564D01*
X664865Y454944D01*
Y455325D01*
X664880Y455501D01*
Y455662D01*
Y455808D01*
Y455940D01*
X664894Y456042D01*
Y456116D01*
Y456174D01*
Y456189D01*
Y456467D01*
X664909Y456731D01*
Y456979D01*
Y457199D01*
Y457419D01*
Y457609D01*
X664923Y457770D01*
Y457931D01*
Y458063D01*
Y458180D01*
Y458282D01*
Y458356D01*
Y458429D01*
Y458473D01*
Y458487D01*
Y458502D01*
Y458648D01*
Y458795D01*
X664909Y459131D01*
X664894Y459468D01*
X664880Y459820D01*
Y460112D01*
X664865Y460259D01*
Y460361D01*
X664850Y460464D01*
Y460537D01*
Y460581D01*
Y460595D01*
X664836Y460844D01*
X664821Y461093D01*
Y461313D01*
X664806Y461518D01*
Y461708D01*
X664792Y461869D01*
Y462030D01*
Y462177D01*
X664777Y462294D01*
Y462396D01*
Y462484D01*
Y462557D01*
Y462616D01*
Y462660D01*
Y462674D01*
Y462689D01*
X664792Y462733D01*
X664806Y462777D01*
X664865Y462821D01*
X664938Y462835D01*
X665348D01*
X665436Y462821D01*
X665699D01*
X665831Y462806D01*
X666329D01*
X666534Y462821D01*
X666915D01*
X667032Y462835D01*
X667368D01*
X667456Y462806D01*
D02*
G37*
G36*
X640284Y463070D02*
X640636Y463026D01*
X640972Y462953D01*
X641294Y462865D01*
X641587Y462762D01*
X641865Y462630D01*
X642114Y462513D01*
X642349Y462382D01*
X642554Y462235D01*
X642729Y462118D01*
X642890Y462001D01*
X643022Y461884D01*
X643124Y461796D01*
X643198Y461723D01*
X643242Y461679D01*
X643256Y461664D01*
X643491Y461401D01*
X643681Y461123D01*
X643856Y460844D01*
X644003Y460552D01*
X644135Y460259D01*
X644237Y459981D01*
X644325Y459702D01*
X644398Y459439D01*
X644457Y459190D01*
X644486Y458970D01*
X644515Y458765D01*
X644545Y458590D01*
Y458443D01*
X644559Y458341D01*
Y458282D01*
Y458253D01*
X644545Y457887D01*
X644501Y457521D01*
X644442Y457184D01*
X644354Y456877D01*
X644252Y456569D01*
X644149Y456291D01*
X644032Y456042D01*
X643900Y455808D01*
X643783Y455589D01*
X643666Y455413D01*
X643564Y455252D01*
X643461Y455120D01*
X643373Y455018D01*
X643315Y454930D01*
X643271Y454886D01*
X643256Y454871D01*
X643007Y454622D01*
X642729Y454403D01*
X642466Y454227D01*
X642173Y454066D01*
X641895Y453920D01*
X641617Y453802D01*
X641353Y453715D01*
X641089Y453641D01*
X640855Y453583D01*
X640621Y453539D01*
X640431Y453510D01*
X640255Y453495D01*
X640109Y453480D01*
X640006Y453466D01*
X639918D01*
X639552Y453480D01*
X639201Y453524D01*
X638864Y453597D01*
X638542Y453685D01*
X638249Y453788D01*
X637971Y453905D01*
X637722Y454037D01*
X637488Y454169D01*
X637283Y454286D01*
X637093Y454417D01*
X636932Y454534D01*
X636800Y454637D01*
X636697Y454725D01*
X636624Y454798D01*
X636580Y454842D01*
X636566Y454857D01*
X636332Y455120D01*
X636141Y455398D01*
X635965Y455676D01*
X635819Y455969D01*
X635687Y456247D01*
X635585Y456540D01*
X635497Y456804D01*
X635424Y457067D01*
X635365Y457316D01*
X635336Y457536D01*
X635307Y457741D01*
X635277Y457916D01*
Y458063D01*
X635263Y458165D01*
Y458224D01*
Y458253D01*
X635277Y458619D01*
X635321Y458985D01*
X635380Y459322D01*
X635468Y459644D01*
X635570Y459937D01*
X635673Y460215D01*
X635805Y460478D01*
X635922Y460713D01*
X636039Y460932D01*
X636156Y461123D01*
X636273Y461283D01*
X636375Y461415D01*
X636463Y461518D01*
X636522Y461606D01*
X636566Y461650D01*
X636580Y461664D01*
X636844Y461913D01*
X637107Y462133D01*
X637386Y462323D01*
X637664Y462484D01*
X637942Y462630D01*
X638220Y462733D01*
X638484Y462835D01*
X638747Y462909D01*
X638996Y462967D01*
X639216Y463011D01*
X639406Y463040D01*
X639582Y463070D01*
X639728D01*
X639830Y463084D01*
X639918D01*
X640284Y463070D01*
D02*
G37*
G36*
X669784Y463099D02*
X669799D01*
X670267Y463011D01*
X670692Y462879D01*
X671072Y462747D01*
X671233Y462674D01*
X671394Y462601D01*
X671526Y462528D01*
X671658Y462469D01*
X671760Y462411D01*
X671848Y462352D01*
X671921Y462308D01*
X671965Y462279D01*
X671995Y462264D01*
X672009Y462250D01*
X672199Y462103D01*
X672375Y461942D01*
X672522Y461781D01*
X672639Y461606D01*
X672756Y461445D01*
X672844Y461283D01*
X672917Y461123D01*
X672975Y460961D01*
X673049Y460698D01*
X673078Y460566D01*
X673093Y460478D01*
Y460391D01*
X673107Y460332D01*
Y460288D01*
Y460273D01*
X673093Y459981D01*
X673034Y459688D01*
X672961Y459439D01*
X672888Y459219D01*
X672800Y459044D01*
X672741Y458897D01*
X672683Y458809D01*
X672668Y458795D01*
Y458780D01*
X672653Y458751D01*
X672609Y458707D01*
X672507Y458575D01*
X672375Y458414D01*
X672229Y458238D01*
X672082Y458077D01*
X671951Y457931D01*
X671907Y457872D01*
X671863Y457829D01*
X671848Y457799D01*
X671834Y457785D01*
X671687Y457594D01*
X671570Y457419D01*
X671497Y457258D01*
X671438Y457126D01*
X671409Y457009D01*
X671380Y456921D01*
Y456862D01*
Y456848D01*
Y456731D01*
X671409Y456613D01*
X671482Y456408D01*
X671599Y456247D01*
X671716Y456101D01*
X671848Y455999D01*
X671965Y455911D01*
X672039Y455867D01*
X672053Y455852D01*
X672068D01*
X672126Y455823D01*
X672199Y455794D01*
X672390Y455720D01*
X672595Y455662D01*
X672800Y455603D01*
X672990Y455559D01*
X673151Y455515D01*
X673224Y455501D01*
X673268D01*
X673298Y455486D01*
X673312D01*
X673356Y455457D01*
X673385Y455428D01*
X673400Y455413D01*
Y455398D01*
Y455354D01*
X673371Y455296D01*
X673312Y455135D01*
X673239Y454959D01*
X673137Y454754D01*
X673049Y454578D01*
X672961Y454417D01*
X672931Y454359D01*
X672902Y454315D01*
X672888Y454286D01*
Y454271D01*
X672800Y454110D01*
X672712Y453978D01*
X672639Y453846D01*
X672566Y453744D01*
X672507Y453656D01*
X672448Y453583D01*
X672361Y453480D01*
X672302Y453407D01*
X672258Y453378D01*
X672229Y453363D01*
X672170Y453378D01*
X672141D01*
X671629Y453495D01*
X671175Y453641D01*
X670970Y453729D01*
X670779Y453817D01*
X670589Y453905D01*
X670428Y453993D01*
X670282Y454066D01*
X670150Y454154D01*
X670033Y454227D01*
X669945Y454286D01*
X669872Y454344D01*
X669813Y454388D01*
X669784Y454403D01*
X669769Y454417D01*
X669564Y454593D01*
X669403Y454783D01*
X669242Y454974D01*
X669110Y455179D01*
X669008Y455369D01*
X668920Y455559D01*
X668847Y455735D01*
X668788Y455911D01*
X668730Y456072D01*
X668701Y456218D01*
X668671Y456350D01*
X668657Y456467D01*
X668642Y456555D01*
Y456628D01*
Y456672D01*
Y456687D01*
X668657Y456950D01*
X668715Y457214D01*
X668788Y457463D01*
X668876Y457667D01*
X668964Y457858D01*
X669037Y458004D01*
X669067Y458048D01*
X669096Y458092D01*
X669110Y458107D01*
Y458121D01*
X669125Y458136D01*
X669154Y458180D01*
X669213Y458238D01*
X669257Y458312D01*
X669403Y458487D01*
X669564Y458678D01*
X669711Y458868D01*
X669842Y459044D01*
X669901Y459102D01*
X669945Y459161D01*
X669960Y459190D01*
X669974Y459205D01*
X670135Y459410D01*
X670238Y459600D01*
X670326Y459776D01*
X670384Y459922D01*
X670413Y460024D01*
X670428Y460112D01*
X670443Y460171D01*
Y460185D01*
X670428Y460347D01*
X670384Y460478D01*
X670311Y460610D01*
X670238Y460698D01*
X670165Y460771D01*
X670091Y460830D01*
X670047Y460859D01*
X670033Y460874D01*
X669901Y460947D01*
X669755Y461005D01*
X669608Y461035D01*
X669477Y461064D01*
X669374Y461079D01*
X669272Y461093D01*
X669081D01*
X669037Y461079D01*
X669023D01*
X668935Y461064D01*
X668847D01*
X668774Y461079D01*
X668730Y461123D01*
X668715Y461152D01*
Y461166D01*
X668730Y461210D01*
X668745Y461240D01*
X668847Y461459D01*
X668949Y461664D01*
X669037Y461855D01*
X669125Y462030D01*
X669198Y462177D01*
X669257Y462323D01*
X669315Y462455D01*
X669359Y462557D01*
X669433Y462733D01*
X669491Y462865D01*
X669506Y462923D01*
X669520Y462953D01*
X669550Y463011D01*
X669564Y463040D01*
X669623Y463099D01*
X669667Y463113D01*
X669755D01*
X669784Y463099D01*
D02*
G37*
G36*
X621047D02*
X621062D01*
X621530Y463011D01*
X621955Y462879D01*
X622336Y462747D01*
X622497Y462674D01*
X622658Y462601D01*
X622789Y462528D01*
X622921Y462469D01*
X623024Y462411D01*
X623112Y462352D01*
X623185Y462308D01*
X623229Y462279D01*
X623258Y462264D01*
X623273Y462250D01*
X623463Y462103D01*
X623639Y461942D01*
X623785Y461781D01*
X623902Y461606D01*
X624019Y461445D01*
X624107Y461283D01*
X624180Y461123D01*
X624239Y460961D01*
X624312Y460698D01*
X624341Y460566D01*
X624356Y460478D01*
Y460391D01*
X624371Y460332D01*
Y460288D01*
Y460273D01*
X624356Y459981D01*
X624297Y459688D01*
X624224Y459439D01*
X624151Y459219D01*
X624063Y459044D01*
X624005Y458897D01*
X623946Y458809D01*
X623931Y458795D01*
Y458780D01*
X623917Y458751D01*
X623873Y458707D01*
X623770Y458575D01*
X623639Y458414D01*
X623492Y458238D01*
X623346Y458077D01*
X623214Y457931D01*
X623170Y457872D01*
X623126Y457829D01*
X623112Y457799D01*
X623097Y457785D01*
X622951Y457594D01*
X622833Y457419D01*
X622760Y457258D01*
X622702Y457126D01*
X622672Y457009D01*
X622643Y456921D01*
Y456862D01*
Y456848D01*
Y456731D01*
X622672Y456613D01*
X622746Y456408D01*
X622863Y456247D01*
X622980Y456101D01*
X623112Y455999D01*
X623229Y455911D01*
X623302Y455867D01*
X623317Y455852D01*
X623331D01*
X623390Y455823D01*
X623463Y455794D01*
X623653Y455720D01*
X623858Y455662D01*
X624063Y455603D01*
X624254Y455559D01*
X624415Y455515D01*
X624488Y455501D01*
X624532D01*
X624561Y455486D01*
X624576D01*
X624619Y455457D01*
X624649Y455428D01*
X624663Y455413D01*
Y455398D01*
Y455354D01*
X624634Y455296D01*
X624576Y455135D01*
X624502Y454959D01*
X624400Y454754D01*
X624312Y454578D01*
X624224Y454417D01*
X624195Y454359D01*
X624166Y454315D01*
X624151Y454286D01*
Y454271D01*
X624063Y454110D01*
X623975Y453978D01*
X623902Y453846D01*
X623829Y453744D01*
X623770Y453656D01*
X623712Y453583D01*
X623624Y453480D01*
X623565Y453407D01*
X623522Y453378D01*
X623492Y453363D01*
X623434Y453378D01*
X623404D01*
X622892Y453495D01*
X622438Y453641D01*
X622233Y453729D01*
X622043Y453817D01*
X621853Y453905D01*
X621692Y453993D01*
X621545Y454066D01*
X621413Y454154D01*
X621296Y454227D01*
X621208Y454286D01*
X621135Y454344D01*
X621077Y454388D01*
X621047Y454403D01*
X621033Y454417D01*
X620828Y454593D01*
X620667Y454783D01*
X620506Y454974D01*
X620374Y455179D01*
X620271Y455369D01*
X620184Y455559D01*
X620110Y455735D01*
X620052Y455911D01*
X619993Y456072D01*
X619964Y456218D01*
X619935Y456350D01*
X619920Y456467D01*
X619905Y456555D01*
Y456628D01*
Y456672D01*
Y456687D01*
X619920Y456950D01*
X619979Y457214D01*
X620052Y457463D01*
X620140Y457667D01*
X620227Y457858D01*
X620301Y458004D01*
X620330Y458048D01*
X620359Y458092D01*
X620374Y458107D01*
Y458121D01*
X620389Y458136D01*
X620418Y458180D01*
X620476Y458238D01*
X620520Y458312D01*
X620667Y458487D01*
X620828Y458678D01*
X620974Y458868D01*
X621106Y459044D01*
X621165Y459102D01*
X621208Y459161D01*
X621223Y459190D01*
X621238Y459205D01*
X621399Y459410D01*
X621501Y459600D01*
X621589Y459776D01*
X621648Y459922D01*
X621677Y460024D01*
X621692Y460112D01*
X621706Y460171D01*
Y460185D01*
X621692Y460347D01*
X621648Y460478D01*
X621574Y460610D01*
X621501Y460698D01*
X621428Y460771D01*
X621355Y460830D01*
X621311Y460859D01*
X621296Y460874D01*
X621165Y460947D01*
X621018Y461005D01*
X620872Y461035D01*
X620740Y461064D01*
X620637Y461079D01*
X620535Y461093D01*
X620345D01*
X620301Y461079D01*
X620286D01*
X620198Y461064D01*
X620110D01*
X620037Y461079D01*
X619993Y461123D01*
X619979Y461152D01*
Y461166D01*
X619993Y461210D01*
X620008Y461240D01*
X620110Y461459D01*
X620213Y461664D01*
X620301Y461855D01*
X620389Y462030D01*
X620462Y462177D01*
X620520Y462323D01*
X620579Y462455D01*
X620623Y462557D01*
X620696Y462733D01*
X620755Y462865D01*
X620769Y462923D01*
X620784Y462953D01*
X620813Y463011D01*
X620828Y463040D01*
X620886Y463099D01*
X620930Y463113D01*
X621018D01*
X621047Y463099D01*
D02*
G37*
G36*
X632232Y462967D02*
X632408Y462953D01*
X632481Y462938D01*
X632540D01*
X632584Y462923D01*
X632598D01*
X632730Y462894D01*
X632833Y462879D01*
X632920Y462865D01*
X632994Y462850D01*
X633052D01*
X633081Y462835D01*
X633111D01*
X633301Y462821D01*
X633477Y462806D01*
X633638D01*
X633770Y462791D01*
X634121D01*
X634179Y462762D01*
X634223Y462747D01*
X634253Y462718D01*
X634282Y462674D01*
Y462645D01*
Y462499D01*
Y462338D01*
X634267Y461986D01*
Y461606D01*
X634253Y461240D01*
Y461079D01*
X634238Y460918D01*
Y460771D01*
Y460654D01*
X634223Y460552D01*
Y460478D01*
Y460420D01*
Y460405D01*
X634209Y460127D01*
Y459878D01*
X634194Y459644D01*
Y459424D01*
X634179Y459219D01*
Y459029D01*
Y458868D01*
X634165Y458721D01*
Y458590D01*
Y458473D01*
Y458370D01*
Y458297D01*
Y458238D01*
Y458180D01*
Y458165D01*
Y458151D01*
Y458004D01*
Y457858D01*
X634179Y457521D01*
X634194Y457170D01*
Y456818D01*
X634209Y456511D01*
X634223Y456364D01*
Y456247D01*
X634238Y456145D01*
Y456072D01*
Y456028D01*
Y456013D01*
X634253Y455750D01*
Y455515D01*
X634267Y455296D01*
Y455076D01*
X634282Y454886D01*
Y454725D01*
Y454564D01*
Y454417D01*
X634297Y454300D01*
Y454183D01*
Y454095D01*
Y454022D01*
Y453964D01*
Y453920D01*
Y453905D01*
Y453890D01*
X634282Y453832D01*
X634267Y453788D01*
X634209Y453729D01*
X634150Y453700D01*
X631866D01*
X631808Y453715D01*
X631749Y453729D01*
X631705Y453817D01*
X631676Y453890D01*
Y453905D01*
Y453920D01*
Y454066D01*
Y454242D01*
Y454593D01*
X631691Y454974D01*
Y455340D01*
X631705Y455515D01*
Y455676D01*
Y455823D01*
Y455940D01*
X631720Y456042D01*
Y456130D01*
Y456174D01*
Y456189D01*
Y456467D01*
X631735Y456716D01*
Y456965D01*
X631749Y457184D01*
Y457389D01*
Y457565D01*
Y457741D01*
X631764Y457887D01*
Y458019D01*
Y458136D01*
Y458238D01*
Y458312D01*
Y458385D01*
Y458429D01*
Y458443D01*
Y458458D01*
X631749Y458531D01*
X631735Y458575D01*
X631720Y458590D01*
Y458604D01*
X631676Y458575D01*
X631647Y458546D01*
X631617Y458531D01*
X631295Y458121D01*
X631017Y457755D01*
X630783Y457448D01*
X630578Y457199D01*
X630432Y456994D01*
X630329Y456862D01*
X630256Y456774D01*
X630241Y456745D01*
X629949Y456350D01*
X629685Y455999D01*
X629436Y455676D01*
X629216Y455384D01*
X629026Y455120D01*
X628851Y454901D01*
X628704Y454696D01*
X628572Y454520D01*
X628455Y454373D01*
X628367Y454242D01*
X628294Y454154D01*
X628236Y454066D01*
X628192Y454007D01*
X628162Y453964D01*
X628133Y453949D01*
Y453934D01*
X628075Y453861D01*
X628016Y453817D01*
X627928Y453759D01*
X627870Y453729D01*
X627694D01*
X627533Y453715D01*
X627460D01*
X627401Y453700D01*
X627225D01*
X627123Y453685D01*
X626684D01*
X626537Y453700D01*
X625879D01*
X625820Y453715D01*
X625761Y453729D01*
X625717Y453788D01*
X625688Y453846D01*
Y453876D01*
Y458165D01*
Y458312D01*
Y458473D01*
X625674Y458824D01*
Y459205D01*
X625659Y459571D01*
Y459732D01*
X625644Y459893D01*
Y460039D01*
Y460156D01*
X625630Y460259D01*
Y460347D01*
Y460391D01*
Y460405D01*
X625615Y460683D01*
Y460932D01*
X625600Y461166D01*
Y461386D01*
X625586Y461591D01*
Y461767D01*
Y461942D01*
X625571Y462089D01*
Y462220D01*
Y462338D01*
Y462425D01*
Y462499D01*
Y462572D01*
Y462616D01*
Y462630D01*
Y462645D01*
Y462718D01*
X625586Y462762D01*
X625630Y462821D01*
X625688Y462850D01*
X626040D01*
X626245Y462835D01*
X626611D01*
X626742Y462821D01*
X626874D01*
X627152Y462806D01*
X627591D01*
X627752Y462791D01*
X628045D01*
X628089Y462777D01*
X628119Y462747D01*
X628162Y462674D01*
X628177Y462586D01*
Y462557D01*
Y462543D01*
Y462411D01*
Y462250D01*
X628162Y461928D01*
X628148Y461591D01*
X628133Y461254D01*
Y460947D01*
X628119Y460815D01*
Y460698D01*
X628104Y460610D01*
Y460537D01*
Y460493D01*
Y460478D01*
X628089Y460229D01*
X628075Y459995D01*
Y459776D01*
X628060Y459571D01*
Y459395D01*
X628045Y459219D01*
Y459073D01*
Y458926D01*
X628031Y458809D01*
Y458707D01*
Y458619D01*
Y458546D01*
Y458487D01*
Y458443D01*
Y458429D01*
Y458414D01*
Y458253D01*
X628045Y458121D01*
X628060Y458033D01*
X628075Y457975D01*
X628089Y457946D01*
X628104Y457931D01*
X628119Y457916D01*
X628162Y457931D01*
X628206Y457946D01*
X628294Y458019D01*
X628367Y458077D01*
X628382Y458092D01*
X628397Y458107D01*
X628631Y458414D01*
X628836Y458678D01*
X629011Y458912D01*
X629143Y459102D01*
X629260Y459234D01*
X629334Y459336D01*
X629378Y459410D01*
X629392Y459424D01*
X631837Y462747D01*
X631896Y462821D01*
X631940Y462879D01*
X631983Y462923D01*
X632013Y462953D01*
X632057Y462982D01*
X632071D01*
X632232Y462967D01*
D02*
G37*
G36*
X648834Y463040D02*
X649185Y462996D01*
X649493Y462923D01*
X649800Y462835D01*
X650078Y462718D01*
X650342Y462601D01*
X650591Y462469D01*
X650810Y462338D01*
X651001Y462191D01*
X651177Y462059D01*
X651323Y461942D01*
X651455Y461840D01*
X651543Y461737D01*
X651616Y461664D01*
X651660Y461620D01*
X651674Y461606D01*
X651879Y461342D01*
X652070Y461064D01*
X652231Y460786D01*
X652362Y460493D01*
X652479Y460215D01*
X652582Y459937D01*
X652655Y459658D01*
X652728Y459395D01*
X652772Y459161D01*
X652816Y458941D01*
X652831Y458736D01*
X652860Y458575D01*
Y458429D01*
X652875Y458326D01*
Y458268D01*
Y458238D01*
X652860Y457858D01*
X652816Y457506D01*
X652758Y457170D01*
X652684Y456848D01*
X652597Y456540D01*
X652494Y456262D01*
X652377Y456013D01*
X652260Y455779D01*
X652157Y455559D01*
X652040Y455384D01*
X651938Y455223D01*
X651850Y455091D01*
X651777Y454974D01*
X651718Y454901D01*
X651674Y454857D01*
X651660Y454842D01*
X651411Y454593D01*
X651147Y454388D01*
X650884Y454198D01*
X650605Y454051D01*
X650327Y453920D01*
X650064Y453802D01*
X649786Y453715D01*
X649537Y453641D01*
X649288Y453583D01*
X649068Y453539D01*
X648878Y453510D01*
X648702Y453495D01*
X648556Y453480D01*
X648453Y453466D01*
X648366D01*
X648000Y453480D01*
X647663Y453524D01*
X647341Y453597D01*
X647033Y453685D01*
X646755Y453802D01*
X646492Y453920D01*
X646257Y454037D01*
X646038Y454183D01*
X645848Y454315D01*
X645672Y454432D01*
X645525Y454564D01*
X645408Y454666D01*
X645306Y454754D01*
X645247Y454827D01*
X645203Y454871D01*
X645189Y454886D01*
X645101Y455003D01*
X645057Y455091D01*
X645042Y455149D01*
Y455164D01*
Y455179D01*
X645057Y455223D01*
X645116Y455325D01*
X645189Y455442D01*
X645277Y455589D01*
X645379Y455720D01*
X645452Y455837D01*
X645511Y455925D01*
X645525Y455940D01*
Y455955D01*
X645686Y456189D01*
X645818Y456379D01*
X645906Y456526D01*
X645979Y456628D01*
X646038Y456701D01*
X646067Y456745D01*
X646096Y456774D01*
X646140Y456818D01*
X646184Y456833D01*
X646213Y456848D01*
X646228D01*
X646243Y456833D01*
X646287Y456804D01*
X646404Y456731D01*
X646506Y456643D01*
X646536Y456613D01*
X646550Y456599D01*
X646799Y456408D01*
X646916Y456321D01*
X647019Y456262D01*
X647092Y456203D01*
X647165Y456159D01*
X647209Y456145D01*
X647224Y456130D01*
X647414Y456057D01*
X647604Y455999D01*
X647780Y455955D01*
X647941Y455925D01*
X648087Y455911D01*
X648190Y455896D01*
X648292D01*
X648468Y455911D01*
X648629Y455925D01*
X648937Y456013D01*
X649185Y456130D01*
X649405Y456262D01*
X649581Y456394D01*
X649713Y456496D01*
X649786Y456584D01*
X649815Y456599D01*
Y456613D01*
X649991Y456877D01*
X650108Y457155D01*
X650196Y457433D01*
X650269Y457697D01*
X650298Y457931D01*
X650313Y458033D01*
Y458121D01*
X650327Y458180D01*
Y458238D01*
Y458268D01*
Y458282D01*
X650298Y458634D01*
X650240Y458956D01*
X650166Y459234D01*
X650064Y459468D01*
X649976Y459658D01*
X649888Y459805D01*
X649830Y459893D01*
X649815Y459922D01*
X649698Y460054D01*
X649581Y460171D01*
X649449Y460259D01*
X649332Y460347D01*
X649068Y460478D01*
X648819Y460566D01*
X648615Y460610D01*
X648439Y460639D01*
X648366Y460654D01*
X648278D01*
X648073Y460639D01*
X647883Y460610D01*
X647692Y460566D01*
X647531Y460522D01*
X647399Y460478D01*
X647297Y460434D01*
X647238Y460405D01*
X647209Y460391D01*
X646960Y460244D01*
X646843Y460156D01*
X646741Y460083D01*
X646653Y460010D01*
X646580Y459966D01*
X646536Y459922D01*
X646521Y459907D01*
X646419Y459820D01*
X646345Y459761D01*
X646287Y459702D01*
X646243Y459673D01*
X646213Y459644D01*
X646199D01*
X646140Y459658D01*
X646111Y459673D01*
X646082Y459688D01*
X646067Y459702D01*
X646038Y459732D01*
X646009Y459761D01*
X645921Y459878D01*
X645833Y460024D01*
X645730Y460171D01*
X645643Y460332D01*
X645569Y460464D01*
X645511Y460552D01*
X645496Y460566D01*
Y460581D01*
X645423Y460727D01*
X645350Y460844D01*
X645233Y461064D01*
X645159Y461225D01*
X645101Y461342D01*
X645072Y461415D01*
X645042Y461474D01*
Y461503D01*
X645057Y461591D01*
X645101Y461664D01*
X645159Y461723D01*
X645174Y461752D01*
X645408Y461986D01*
X645657Y462177D01*
X645921Y462352D01*
X646199Y462499D01*
X646477Y462630D01*
X646755Y462733D01*
X647019Y462821D01*
X647282Y462894D01*
X647531Y462953D01*
X647751Y462982D01*
X647956Y463011D01*
X648131Y463040D01*
X648278D01*
X648395Y463055D01*
X648483D01*
X648834Y463040D01*
D02*
G37*
G36*
X654353Y462894D02*
X654427D01*
X654485Y462879D01*
X654544D01*
X654661Y462865D01*
X654851D01*
X654924Y462850D01*
X655232D01*
X655407Y462865D01*
X655627D01*
X655759Y462879D01*
X655876D01*
X655978Y462894D01*
X656198D01*
X656242Y462879D01*
X656286Y462850D01*
X656374Y462762D01*
X656432Y462674D01*
X656447Y462645D01*
Y462630D01*
X656681Y462133D01*
X656901Y461664D01*
X657106Y461225D01*
X657296Y460815D01*
X657472Y460449D01*
X657633Y460112D01*
X657779Y459805D01*
X657896Y459527D01*
X658013Y459293D01*
X658116Y459073D01*
X658204Y458897D01*
X658277Y458765D01*
X658321Y458648D01*
X658365Y458561D01*
X658379Y458517D01*
X658394Y458502D01*
X658467Y458341D01*
X658540Y458209D01*
X658599Y458121D01*
X658628Y458063D01*
X658672Y458033D01*
X658687Y458019D01*
X658701Y458004D01*
X658760Y458019D01*
X658804Y458077D01*
X658862Y458136D01*
X658921Y458224D01*
X658965Y458297D01*
X659009Y458370D01*
X659024Y458414D01*
X659038Y458429D01*
X660941Y462616D01*
X660985Y462704D01*
X661029Y462777D01*
X661059Y462821D01*
X661088Y462865D01*
X661117Y462894D01*
X661454D01*
X661629Y462879D01*
X661966D01*
X662098Y462865D01*
X662464D01*
X662683Y462850D01*
X663372D01*
X663445Y462835D01*
X663489Y462806D01*
X663518Y462791D01*
X663547Y462733D01*
Y462718D01*
Y462601D01*
X663533Y462220D01*
X663518Y461898D01*
X663503Y461620D01*
X663489Y461401D01*
Y461225D01*
Y461093D01*
Y461020D01*
Y460991D01*
X663474Y460610D01*
X663459Y460273D01*
Y459951D01*
X663445Y459673D01*
Y459410D01*
X663430Y459175D01*
Y458970D01*
Y458795D01*
X663415Y458634D01*
Y458502D01*
Y458385D01*
Y458297D01*
Y458238D01*
Y458194D01*
Y458165D01*
Y458151D01*
Y458004D01*
Y457858D01*
X663430Y457521D01*
X663445Y457170D01*
Y456818D01*
X663459Y456511D01*
X663474Y456364D01*
Y456247D01*
X663489Y456145D01*
Y456072D01*
Y456028D01*
Y456013D01*
X663503Y455750D01*
Y455515D01*
X663518Y455296D01*
Y455076D01*
X663533Y454886D01*
Y454710D01*
Y454549D01*
Y454417D01*
X663547Y454286D01*
Y454183D01*
Y454081D01*
Y454007D01*
Y453949D01*
Y453905D01*
Y453890D01*
Y453876D01*
Y453817D01*
X663533Y453759D01*
Y453744D01*
Y453729D01*
X663489Y453715D01*
X663445Y453700D01*
X661205D01*
X661146Y453715D01*
X661088Y453729D01*
X661044Y453817D01*
X661015Y453890D01*
Y453905D01*
Y453920D01*
Y454051D01*
Y454183D01*
Y454491D01*
X661029Y454813D01*
Y455120D01*
Y455398D01*
X661044Y455530D01*
Y455632D01*
Y455720D01*
Y455779D01*
Y455823D01*
Y455837D01*
Y456072D01*
X661059Y456291D01*
Y456482D01*
Y456672D01*
Y456848D01*
Y456994D01*
X661073Y457140D01*
Y457272D01*
Y457375D01*
Y457477D01*
Y457550D01*
Y457623D01*
Y457667D01*
Y457711D01*
Y457741D01*
Y457829D01*
X661059Y457887D01*
Y457916D01*
Y457931D01*
X661015Y457887D01*
X661000Y457872D01*
Y457858D01*
X660941Y457726D01*
X660868Y457580D01*
X660722Y457258D01*
X660575Y456921D01*
X660429Y456584D01*
X660283Y456262D01*
X660224Y456130D01*
X660180Y456013D01*
X660136Y455911D01*
X660107Y455837D01*
X660078Y455794D01*
Y455779D01*
X659975Y455530D01*
X659873Y455296D01*
X659785Y455076D01*
X659697Y454871D01*
X659609Y454681D01*
X659536Y454520D01*
X659463Y454359D01*
X659404Y454227D01*
X659346Y454095D01*
X659302Y453993D01*
X659258Y453905D01*
X659214Y453832D01*
X659185Y453773D01*
X659170Y453729D01*
X659155Y453715D01*
Y453700D01*
X659111Y453656D01*
X659053Y453627D01*
X658921Y453597D01*
X658862Y453583D01*
X658482D01*
X658409Y453627D01*
X658365Y453671D01*
X658335Y453729D01*
X658321Y453744D01*
X658145Y454183D01*
X657969Y454593D01*
X657808Y454988D01*
X657662Y455340D01*
X657603Y455486D01*
X657545Y455632D01*
X657486Y455750D01*
X657442Y455852D01*
X657413Y455940D01*
X657384Y455999D01*
X657369Y456042D01*
Y456057D01*
X657223Y456408D01*
X657106Y456701D01*
X656989Y456965D01*
X656901Y457199D01*
X656813Y457389D01*
X656754Y457550D01*
X656696Y457682D01*
X656637Y457785D01*
X656608Y457872D01*
X656564Y457931D01*
X656549Y457975D01*
X656535Y458019D01*
X656505Y458048D01*
X656476Y458033D01*
X656461Y458019D01*
X656447Y457960D01*
X656432Y457887D01*
Y457872D01*
Y457858D01*
Y457726D01*
Y457580D01*
X656447Y457272D01*
Y456950D01*
X656461Y456628D01*
X656476Y456335D01*
Y456203D01*
Y456101D01*
X656491Y456013D01*
Y455940D01*
Y455896D01*
Y455881D01*
Y455647D01*
X656505Y455428D01*
Y455223D01*
X656520Y455032D01*
Y454857D01*
Y454696D01*
Y454549D01*
X656535Y454417D01*
Y454300D01*
Y454198D01*
Y454110D01*
Y454037D01*
Y453993D01*
Y453949D01*
Y453934D01*
Y453920D01*
X656520Y453846D01*
X656505Y453788D01*
X656476Y453759D01*
X656447Y453729D01*
X656388Y453700D01*
X654031D01*
X653973Y453715D01*
X653914Y453729D01*
X653870Y453802D01*
X653841Y453861D01*
Y453876D01*
Y453890D01*
Y454037D01*
Y454183D01*
X653856Y454520D01*
Y454871D01*
X653870Y455223D01*
X653885Y455530D01*
Y455662D01*
Y455779D01*
X653899Y455881D01*
Y455955D01*
Y455999D01*
Y456013D01*
X653914Y456277D01*
Y456511D01*
X653929Y456745D01*
Y456950D01*
X653943Y457140D01*
Y457316D01*
Y457477D01*
Y457623D01*
X653958Y457741D01*
Y457858D01*
Y457946D01*
Y458019D01*
Y458077D01*
Y458121D01*
Y458136D01*
Y458151D01*
Y458312D01*
Y458473D01*
X653943Y458839D01*
Y459219D01*
X653929Y459585D01*
Y459761D01*
X653914Y459922D01*
Y460068D01*
Y460200D01*
X653899Y460303D01*
Y460376D01*
Y460434D01*
Y460449D01*
X653885Y460727D01*
Y460991D01*
X653870Y461240D01*
Y461459D01*
X653856Y461664D01*
Y461855D01*
Y462030D01*
X653841Y462177D01*
Y462323D01*
Y462440D01*
Y462543D01*
Y462616D01*
Y462674D01*
Y462733D01*
Y462747D01*
Y462762D01*
X653856Y462806D01*
X653870Y462850D01*
X653943Y462894D01*
X654017Y462909D01*
X654192D01*
X654353Y462894D01*
D02*
G37*
G36*
X585000Y644500D02*
X581500Y636000D01*
X565500D01*
X562000Y639500D01*
X540500Y661000D01*
X523000D01*
X521000Y663000D01*
X518000Y666000D01*
X512712D01*
X512505Y666063D01*
X511339Y666178D01*
X510172Y666063D01*
X509966Y666000D01*
X502712D01*
X502505Y666063D01*
X501339Y666178D01*
X500172Y666063D01*
X499965Y666000D01*
X492712D01*
X492505Y666063D01*
X491339Y666178D01*
X490172Y666063D01*
X489965Y666000D01*
X487289D01*
Y666149D01*
X475389D01*
Y666000D01*
X466000D01*
X447000Y647000D01*
Y631500D01*
X446000Y630500D01*
X432000Y616500D01*
X425000D01*
Y623000D01*
X431500D01*
X439500Y631000D01*
Y638000D01*
Y651216D01*
X459784Y671500D01*
X558000D01*
X585000Y644500D01*
D02*
G37*
G36*
X516000Y643000D02*
X529500Y629500D01*
X535500D01*
Y624500D01*
X535000Y624000D01*
X525500D01*
X522000Y627500D01*
X516000Y633500D01*
X495500D01*
X490500Y628500D01*
X475500Y613500D01*
Y601500D01*
Y553000D01*
X482000Y546500D01*
X525500D01*
X526500Y547500D01*
X533000Y554000D01*
Y556500D01*
Y557500D01*
Y562500D01*
X538000Y567500D01*
X540500Y570000D01*
X568000D01*
X568500Y570500D01*
X576500Y578500D01*
Y593000D01*
X586500D01*
Y577500D01*
X575000Y566000D01*
X568000Y559000D01*
Y547500D01*
X574000Y541500D01*
X575500Y540000D01*
X592000D01*
X606500Y554500D01*
X627000Y575000D01*
Y590000D01*
Y615500D01*
X632000Y620500D01*
X633500Y622000D01*
X642500D01*
X646000Y617500D01*
Y611000D01*
X643000Y608000D01*
X637000Y602000D01*
Y588500D01*
Y571000D01*
X629000Y563000D01*
X596500Y530500D01*
X536500D01*
X535000Y529000D01*
X534000Y528000D01*
X533500Y527500D01*
X527500D01*
Y530000D01*
Y534500D01*
X526500Y535500D01*
X523500Y538500D01*
X473500D01*
X465500Y546500D01*
Y570500D01*
Y625500D01*
X487000Y647000D01*
X489500Y649500D01*
X509500D01*
X516000Y643000D01*
D02*
G37*
G36*
X464100Y642300D02*
Y641800D01*
Y634900D01*
X461100Y631900D01*
X458000Y628800D01*
Y624500D01*
Y616300D01*
X451100Y609400D01*
X447600Y605900D01*
Y602300D01*
Y589800D01*
X446700Y588900D01*
X444000Y586200D01*
X425100D01*
Y593700D01*
X434200D01*
X435700Y595200D01*
X438200Y597700D01*
Y602000D01*
Y617700D01*
X449500Y629000D01*
X451300Y630800D01*
Y642700D01*
X456300D01*
X460000Y646400D01*
X464100Y642300D01*
D02*
G37*
G36*
X644700Y672600D02*
X647600D01*
Y670800D01*
X635900D01*
X629700Y677000D01*
X635000Y682300D01*
X644700Y672600D01*
D02*
G37*
G36*
X590000Y664500D02*
X594500Y660000D01*
Y657000D01*
X590000Y652500D01*
X587000D01*
X585500Y654000D01*
X564500Y675000D01*
X460000D01*
X436500Y651500D01*
Y633500D01*
X429500Y626500D01*
X420500D01*
Y636000D01*
X423000Y638500D01*
X429500Y645000D01*
Y653500D01*
Y661000D01*
X440000Y671500D01*
X452500Y684000D01*
X570500D01*
X590000Y664500D01*
D02*
G37*
G36*
X637500Y661500D02*
Y658500D01*
Y654500D01*
X640000Y652000D01*
X642500D01*
Y643000D01*
X639000D01*
X634000Y648000D01*
X623500D01*
X618500Y653000D01*
Y658500D01*
Y660500D01*
X621000Y663000D01*
X636000D01*
X637500Y661500D01*
D02*
G37*
G36*
X460100Y581600D02*
Y581400D01*
X456600Y577900D01*
X460200Y574300D01*
X458500Y572600D01*
X444700D01*
X444500Y572800D01*
X441100Y576200D01*
X424800D01*
Y583700D01*
X458000D01*
X460100Y581600D01*
D02*
G37*
G36*
X469000Y513000D02*
Y506500D01*
X462500Y500000D01*
X437500D01*
X433500Y504000D01*
X431000Y506500D01*
X424500D01*
Y513500D01*
X431000D01*
X439500Y505000D01*
X457000D01*
X459000Y507000D01*
Y513000D01*
X468000D01*
X468500Y513500D01*
X469000Y513000D01*
D02*
G37*
G36*
X684000Y598000D02*
Y527500D01*
Y522500D01*
X688500Y518000D01*
X691000Y515500D01*
Y495000D01*
X681000D01*
Y508500D01*
X676500Y513000D01*
X673500Y516000D01*
Y599500D01*
X682500D01*
X684000Y598000D01*
D02*
G37*
G36*
X670000Y513500D02*
X670500Y513000D01*
Y493500D01*
Y482500D01*
X669000Y481000D01*
X659500Y471500D01*
X629500D01*
X612500Y488500D01*
X608000Y493000D01*
X581500D01*
X575000Y486500D01*
Y450000D01*
Y435500D01*
X565500Y426000D01*
X558500Y419000D01*
X532000D01*
X528500Y423000D01*
Y428500D01*
X530500Y430500D01*
X533000Y433000D01*
X545500D01*
X548000Y435500D01*
X562500Y450000D01*
Y452000D01*
Y464000D01*
X558500Y468000D01*
X536500D01*
X535000Y466500D01*
X532000Y463500D01*
Y455500D01*
X519500D01*
X510500Y464500D01*
Y469000D01*
X514000Y472500D01*
X525500D01*
X528500Y475500D01*
X558500D01*
X562500Y479500D01*
Y497000D01*
X557000Y502500D01*
X549000Y510500D01*
X535500D01*
X534500Y509500D01*
X532000Y507000D01*
Y501500D01*
X531500Y501000D01*
X521500D01*
X514000Y508500D01*
Y516347D01*
X514462Y516538D01*
X514500Y516500D01*
X537500D01*
X539000Y518000D01*
X542500Y521500D01*
X599500D01*
X612500Y508500D01*
X619000Y502000D01*
X626000Y495000D01*
X640000D01*
X643000Y498000D01*
Y503000D01*
Y507500D01*
X643500Y508000D01*
X644500Y509000D01*
X653000D01*
X655500Y511500D01*
X660000Y516000D01*
Y530000D01*
X670000D01*
Y513500D01*
D02*
G37*
G36*
X485000Y524000D02*
X489000Y520000D01*
Y512500D01*
X479000D01*
Y515000D01*
X476500Y517500D01*
X471000Y523000D01*
X440000D01*
X438500Y521500D01*
X433500Y516500D01*
X425000D01*
Y523500D01*
X434500D01*
X435500Y524500D01*
X438500Y527500D01*
X481500D01*
X485000Y524000D01*
D02*
G37*
G36*
X517500Y613500D02*
X501000D01*
X492000Y604500D01*
Y585500D01*
Y569500D01*
X496000Y565500D01*
X502000Y559500D01*
X517500D01*
Y549000D01*
X488500D01*
X481000Y556500D01*
Y612500D01*
X492500Y624000D01*
X517500D01*
Y613500D01*
D02*
G37*
G36*
X620500Y626000D02*
X599000Y604500D01*
Y591500D01*
X600000D01*
X600500Y591000D01*
X604000Y587500D01*
Y569500D01*
Y558000D01*
X591000Y545000D01*
X579000D01*
X578000Y546000D01*
X575000Y549000D01*
Y552000D01*
Y557000D01*
X590000Y572000D01*
Y590000D01*
Y607500D01*
X591000Y608500D01*
X614500Y632000D01*
X620500Y626000D01*
D02*
G37*
%LPC*%
G36*
X640006Y460654D02*
X639918D01*
X639743Y460639D01*
X639567Y460625D01*
X639259Y460537D01*
X638996Y460434D01*
X638762Y460303D01*
X638586Y460171D01*
X638454Y460054D01*
X638367Y459966D01*
X638337Y459951D01*
Y459937D01*
X638132Y459673D01*
X637986Y459380D01*
X637883Y459102D01*
X637810Y458839D01*
X637766Y458619D01*
X637752Y458517D01*
Y458429D01*
X637737Y458370D01*
Y458312D01*
Y458282D01*
Y458268D01*
X637766Y457931D01*
X637839Y457623D01*
X637927Y457345D01*
X638044Y457111D01*
X638162Y456921D01*
X638249Y456774D01*
X638293Y456716D01*
X638323Y456672D01*
X638337Y456657D01*
X638352Y456643D01*
X638469Y456511D01*
X638601Y456408D01*
X638732Y456306D01*
X638864Y456218D01*
X639128Y456086D01*
X639377Y455999D01*
X639596Y455955D01*
X639757Y455925D01*
X639830Y455911D01*
X639918D01*
X640094Y455925D01*
X640270Y455940D01*
X640577Y456013D01*
X640855Y456130D01*
X641089Y456262D01*
X641265Y456379D01*
X641397Y456496D01*
X641485Y456569D01*
X641499Y456599D01*
X641514D01*
X641704Y456862D01*
X641851Y457140D01*
X641939Y457419D01*
X642012Y457667D01*
X642056Y457902D01*
X642070Y458004D01*
Y458092D01*
X642085Y458151D01*
Y458209D01*
Y458238D01*
Y458253D01*
X642056Y458590D01*
X641983Y458912D01*
X641895Y459190D01*
X641778Y459439D01*
X641660Y459629D01*
X641573Y459776D01*
X641529Y459834D01*
X641499Y459878D01*
X641470Y459893D01*
Y459907D01*
X641353Y460039D01*
X641221Y460156D01*
X641089Y460259D01*
X640958Y460347D01*
X640709Y460478D01*
X640460Y460566D01*
X640240Y460610D01*
X640065Y460639D01*
X640006Y460654D01*
D02*
G37*
%LPD*%
D10*
X528499Y503997D02*
G03*
X514139Y509603I-13573J-13573D01*
G01*
X523338Y509158D02*
G03*
X514008Y512800I-8819J-8819D01*
G01*
X519496Y513000D02*
G03*
X517042Y511482I0J-2742D01*
G01*
Y514518D02*
G03*
X519496Y513000I2453J1224D01*
G01*
X484000Y474792D02*
G03*
X481596Y480596I-8208J0D01*
G01*
X486404D02*
G03*
X484000Y474792I5804J-5804D01*
G01*
X480600Y513000D02*
G03*
X476782Y522218I-13037J0D01*
G01*
X459500Y503000D02*
G03*
X460940Y511519I-5272J5272D01*
G01*
X462683Y506183D02*
G03*
X463820Y512913I-4165J4165D01*
G01*
X464000Y507500D02*
G03*
X462480Y509959I-2748J0D01*
G01*
X465520D02*
G03*
X464000Y507500I1228J-2458D01*
G01*
X438196Y488804D02*
G03*
X444000Y486400I5804J5804D01*
G01*
X440600Y483000D02*
G03*
X438196Y488804I-8208J0D01*
G01*
X519804Y462196D02*
G03*
X514000Y464600I-5804J-5804D01*
G01*
X517400Y468000D02*
G03*
X519804Y462196I8208J0D01*
G01*
X484000Y476208D02*
G03*
X486404Y470404I8208J0D01*
G01*
X481596D02*
G03*
X484000Y476208I-5804J5804D01*
G01*
X435792Y468000D02*
G03*
X441596Y470404I0J8208D01*
G01*
Y465596D02*
G03*
X435792Y468000I-5804J-5804D01*
G01*
X617756Y521188D02*
G03*
X615175Y527419I-8812J0D01*
G01*
X620337D02*
G03*
X617756Y521188I6231J-6231D01*
G01*
X624875Y538375D02*
G03*
X621406Y530000I8375J-8375D01*
G01*
X617756Y533650D02*
G03*
X621843Y535343I0J5780D01*
G01*
X575269Y647262D02*
G03*
X581500Y644682I6231J6231D01*
G01*
X577850Y641032D02*
G03*
X575269Y647262I-8812J0D01*
G01*
X540487Y599231D02*
G03*
X537906Y593000I6231J-6231D01*
G01*
X534256Y596650D02*
G03*
X540487Y599231I0J8812D01*
G01*
X542789Y604789D02*
G03*
X537906Y593000I11789J-11789D01*
G01*
X537326Y599326D02*
G03*
X534706Y593000I6326J-6326D01*
G01*
X581500Y584188D02*
G03*
X578919Y590419I-8812J0D01*
G01*
X584081D02*
G03*
X581500Y584188I6231J-6231D01*
G01*
X574926Y599373D02*
G03*
X581500Y596650I6574J6574D01*
G01*
X577850Y593000D02*
G03*
X575411Y598888I-8327J0D01*
G01*
X736269Y536231D02*
G03*
X742500Y533650I6231J6231D01*
G01*
X738850Y530000D02*
G03*
X736269Y536231I-8812J0D01*
G01*
X701500Y530000D02*
G03*
X698436Y528209I0J-3515D01*
G01*
Y531791D02*
G03*
X701500Y530000I3063J1725D01*
G01*
X695324Y533649D02*
G03*
X711791Y540291I424J22684D01*
G01*
X695264Y530450D02*
G03*
X706469Y534969I288J15435D01*
G01*
X695205Y527250D02*
G03*
X701147Y529647I153J8187D01*
G01*
X503857Y554500D02*
G03*
X509793Y556959I0J8395D01*
G01*
Y551797D02*
G03*
X503267Y554500I-6526J-6526D01*
G01*
X510731Y524525D02*
G03*
X504500Y527106I-6231J-6231D01*
G01*
X508150Y530756D02*
G03*
X510731Y524525I8812J0D01*
G01*
X513901Y531000D02*
G03*
X507081Y528175I0J-9645D01*
G01*
Y533337D02*
G03*
X512723Y531000I5642J5642D01*
G01*
X503562Y618878D02*
G03*
X509793Y621459I0J8812D01*
G01*
Y616297D02*
G03*
X503562Y618878I-6231J-6231D01*
G01*
X518769Y632939D02*
G03*
X504500Y638850I-14269J-14269D01*
G01*
X513306Y638402D02*
G03*
X504500Y642050I-8806J-8806D01*
G01*
X513312Y595256D02*
G03*
X507081Y592675I0J-8812D01*
G01*
Y597837D02*
G03*
X513312Y595256I6231J6231D01*
G01*
X686500Y502529D02*
G03*
X688549Y497581I6997J0D01*
G01*
X683388D02*
G03*
X686500Y505095I-7514J7514D01*
G01*
X726479Y454521D02*
G03*
X734000Y451406I7521J7521D01*
G01*
X730350Y447756D02*
G03*
X728304Y452696I-6987J0D01*
G01*
X742812Y447756D02*
G03*
X736581Y445175I0J-8812D01*
G01*
Y450337D02*
G03*
X742812Y447756I6231J6231D01*
G01*
X727769Y488769D02*
G03*
X730350Y495000I-6231J6231D01*
G01*
X734000Y491350D02*
G03*
X727769Y488769I0J-8812D01*
G01*
X430148Y634872D02*
G03*
X428097Y629921I4951J-4951D01*
G01*
X425947Y632071D02*
G03*
X428337Y633061I0J3380D01*
G01*
X431327Y620000D02*
G03*
X427467Y618401I0J-5459D01*
G01*
Y621442D02*
G03*
X430947Y620000I3480J3480D01*
G01*
X431137Y519921D02*
G03*
X427467Y518401I0J-5191D01*
G01*
Y521442D02*
G03*
X431137Y519921I3670J3670D01*
G01*
X430579Y509921D02*
G03*
X427589Y508534I0J-3914D01*
G01*
Y511309D02*
G03*
X430579Y509921I2990J2526D01*
G01*
X437499Y503001D02*
G03*
X425951Y507771I-11518J-11518D01*
G01*
X432051Y508449D02*
G03*
X425945Y510971I-6090J-6090D01*
G01*
X431137Y489921D02*
G03*
X427467Y488401I0J-5191D01*
G01*
Y491441D02*
G03*
X431137Y489921I3670J3670D01*
G01*
X425197Y474731D02*
G03*
X423677Y478401I-5191J0D01*
G01*
X426717D02*
G03*
X425197Y474731I3670J-3670D01*
G01*
X537395Y423228D02*
G03*
X533725Y421708I0J-5191D01*
G01*
Y424749D02*
G03*
X537395Y423228I3670J3670D01*
G01*
X512205Y417288D02*
G03*
X510684Y420958I-5191J0D01*
G01*
X513725D02*
G03*
X512205Y417288I3670J-3670D01*
G01*
X652500Y611559D02*
G03*
X650980Y615230I-5191J0D01*
G01*
X654020D02*
G03*
X652500Y611559I3670J-3670D01*
G01*
X660350Y618250D02*
G03*
X656178Y628322I-14244J0D01*
G01*
X663550Y618250D02*
G03*
X661641Y622859I-6518J0D01*
G01*
X672500Y611559D02*
G03*
X670980Y615230I-5191J0D01*
G01*
X674020D02*
G03*
X672500Y611559I3670J-3670D01*
G01*
X682500D02*
G03*
X680980Y615230I-5191J0D01*
G01*
X684020D02*
G03*
X682500Y611559I3670J-3670D01*
G01*
X684650Y616750D02*
G03*
X689883Y604117I17865J0D01*
G01*
X681450Y616750D02*
G03*
X684420Y609580I10140J0D01*
G01*
X692500Y622500D02*
G03*
X693774Y619982I3125J0D01*
G01*
X691226D02*
G03*
X692500Y622500I-1852J2518D01*
G01*
X690350Y618250D02*
G03*
X685824Y629176I-15451J0D01*
G01*
X693550Y618250D02*
G03*
X691287Y623713I-7726J0D01*
G01*
X702500Y611559D02*
G03*
X700980Y615230I-5191J0D01*
G01*
X704020D02*
G03*
X702500Y611559I3670J-3670D01*
G01*
X724500Y462995D02*
G03*
X723534Y465326I-3297J0D01*
G01*
X534213Y612545D02*
G03*
X528805Y610305I0J-7648D01*
G01*
X529996Y625709D02*
G03*
X533534Y627174I0J5004D01*
G01*
X526754Y503996D02*
G03*
X525519Y506977I-4216J0D01*
G01*
X526786Y503748D02*
G03*
X525081Y505970I-3536J-947D01*
G01*
X710326Y541965D02*
G03*
X711791Y545504I-3538J3538D01*
G01*
X709219Y537719D02*
G03*
X710045Y539713I-1993J1993D01*
G01*
X710756Y538786D02*
G03*
X708721Y538518I-694J-2590D01*
G01*
X727005Y540000D02*
G03*
X724674Y539035I0J-3297D01*
G01*
X550995Y607000D02*
G03*
X553326Y607966I0J3297D01*
G01*
X571348Y602951D02*
G03*
X566996Y604753I-4352J-4352D01*
G01*
X625755Y509249D02*
G03*
X633004Y506247I7249J7249D01*
G01*
X594500Y473499D02*
G03*
X592449Y478449I-7001J0D01*
G01*
X596551D02*
G03*
X594500Y473499I4951J-4951D01*
G01*
X552441Y548841D02*
G03*
X549400Y541500I7341J-7341D01*
G01*
X546500Y544400D02*
G03*
X549061Y545461I0J3621D01*
G01*
X544449Y539449D02*
G03*
X533463Y544000I-10986J-10986D01*
G01*
X546712Y541712D02*
G03*
X541189Y544000I-5523J-5523D01*
G01*
X542049Y512049D02*
G03*
X544100Y517000I-4951J4951D01*
G01*
X547000Y514100D02*
G03*
X542049Y512049I0J-7001D01*
G01*
X594500Y562501D02*
G03*
X596551Y557551I7001J0D01*
G01*
X592449D02*
G03*
X594500Y562501I-4951J4951D01*
G01*
X678500Y593977D02*
G03*
X676694Y596911I-3285J0D01*
G01*
X679979Y597380D02*
G03*
X678500Y593978I3175J-3402D01*
G01*
Y591292D02*
G03*
X675949Y597449I-8708J0D01*
G01*
X680051D02*
G03*
X678500Y593706I3743J-3743D01*
G01*
X586110Y661890D02*
G03*
X588500Y660900I2390J2390D01*
G01*
X585600Y658000D02*
G03*
X582489Y665511I-10622J0D01*
G01*
X612756Y625256D02*
G03*
X614100Y628500I-3243J3243D01*
G01*
X617000Y625600D02*
G03*
X610342Y622842I0J-9415D01*
G01*
X468949Y576051D02*
G03*
X472500Y584622I-8572J8572D01*
G01*
Y563378D02*
G03*
X468949Y571949I-12122J0D01*
G01*
X532000Y613500D02*
X541000D01*
X548256Y607000D02*
X554701D01*
X733244Y447756D02*
X743756D01*
X594500Y607000D02*
X617000Y629500D01*
X723209Y540000D02*
X732500D01*
X567299Y607000D02*
X581299Y593000D01*
X526000Y625709D02*
X536500D01*
X472500Y550500D02*
Y616500D01*
X711791Y540291D02*
Y582209D01*
X701500Y530000D02*
X711791Y540291D01*
X686500Y497968D02*
X689468Y495000D01*
X617756Y517248D02*
X631752Y503252D01*
X617756Y517248D02*
Y530000D01*
Y531256D02*
X648000Y561500D01*
X617756Y530000D02*
Y531256D01*
X565500Y498500D02*
X566000Y498000D01*
X536600Y522000D02*
X540500Y525900D01*
X598400D01*
X504500Y530756D02*
X513256Y522000D01*
X536600D01*
X528500Y512000D02*
X542000D01*
X547000Y517000D01*
X598400Y525900D02*
X641500Y569000D01*
X479000Y544000D02*
X544000D01*
X566000Y473000D02*
Y498000D01*
Y458500D02*
Y473000D01*
X533500D02*
X566000D01*
X528500Y468000D02*
X533500Y473000D01*
X528500Y458496D02*
Y468000D01*
Y503996D02*
Y512000D01*
X565996Y458496D02*
X566000Y458500D01*
Y444500D02*
Y458500D01*
X559000Y504000D02*
X559500Y504500D01*
X544728Y423228D02*
X566000Y444500D01*
X523504Y458496D02*
X528500D01*
X514000Y468000D02*
X523504Y458496D01*
X519496Y513000D02*
X528500Y503996D01*
X724500Y456500D02*
Y463791D01*
Y456500D02*
X733244Y447756D01*
X725000Y486000D02*
X734000Y495000D01*
X725000Y480709D02*
Y486000D01*
X541000Y613500D02*
X557500Y630000D01*
X513756Y595256D02*
X532000Y613500D01*
X495500Y554500D02*
X512252D01*
X484500Y565500D02*
X495500Y554500D01*
X484500Y565500D02*
Y607500D01*
X512252Y554500D02*
X512374Y554378D01*
X634500Y630000D02*
X654500D01*
X627000Y637500D02*
X634500Y630000D01*
X603637Y637500D02*
X627000D01*
X602000Y643500D02*
X631000D01*
X496000Y640000D02*
X497500D01*
X500000Y642500D01*
X595000Y556000D02*
Y559000D01*
X594500Y555500D02*
X595000Y556000D01*
X594500Y559500D02*
X595000Y559000D01*
X677500Y595000D02*
X678500Y594000D01*
Y516500D02*
Y594000D01*
Y516500D02*
X686500Y508500D01*
X588500Y658000D02*
Y659500D01*
X570600Y677400D02*
X588500Y659500D01*
X531500Y666500D02*
X556032D01*
X581500Y641032D01*
X530000Y668000D02*
X531500Y666500D01*
X431500Y620000D02*
X443000Y631500D01*
X425276Y620000D02*
X431500D01*
X425197Y619921D02*
X425276Y620000D01*
X617000Y628500D02*
Y629500D01*
X588500Y630000D02*
X602000Y643500D01*
X504500Y642500D02*
X509209D01*
X500000D02*
X504500D01*
X509209D02*
X526000Y625709D01*
X578209Y596291D02*
X581500Y593000D01*
X534256D02*
Y596256D01*
X504500Y595256D02*
X513756D01*
X677000Y599500D02*
X678000D01*
X695256Y530000D02*
X701500D01*
X512205Y423228D02*
X512500Y423524D01*
X732500Y540000D02*
X742500Y530000D01*
X734000Y495000D02*
X737500D01*
X686500Y497968D02*
Y508500D01*
X743756Y447756D02*
X752500Y456500D01*
X654500Y630000D02*
X662500Y622000D01*
Y617500D02*
Y622000D01*
X692500Y617500D02*
Y622500D01*
X682500Y611500D02*
Y617500D01*
Y611500D02*
X711791Y582209D01*
X752500Y456500D02*
Y543500D01*
X723000Y573000D02*
X752500Y543500D01*
X581299Y593000D02*
X581500D01*
X534256D02*
X548256Y607000D01*
X534256Y596256D02*
X555000Y617000D01*
X583137D01*
X603637Y637500D01*
X557500Y630000D02*
X588500D01*
X425197Y509921D02*
X430579D01*
X437500Y503000D01*
X459500D02*
X464000Y507500D01*
Y513000D01*
X437500Y503000D02*
X459500D01*
X437079Y489921D02*
X444000Y483000D01*
X425197Y489921D02*
X437079D01*
X425197Y472303D02*
Y479921D01*
Y472303D02*
X429500Y468000D01*
X444000D01*
X532205Y423228D02*
X544728D01*
X514000Y513000D02*
X519496D01*
X512205Y414295D02*
Y423228D01*
Y414295D02*
X514500Y412000D01*
X567000D01*
X594500Y439500D01*
X641500Y596000D02*
X652500Y607000D01*
Y617500D01*
X425197Y629921D02*
X435100Y639824D01*
Y652237D01*
X460263Y677400D01*
X570600D01*
X463000Y668000D02*
X530000D01*
X443000Y631500D02*
Y648000D01*
X463000Y668000D01*
X472500Y616500D02*
X496000Y640000D01*
X484500Y607500D02*
X495878Y618878D01*
X512374D01*
X594500Y559500D02*
Y607000D01*
X641500Y569000D02*
Y596000D01*
X594500Y439500D02*
Y480500D01*
X472500Y550500D02*
X479000Y544000D01*
X544000D02*
X546500Y541500D01*
X425197Y519921D02*
X433921D01*
X439500Y525500D01*
X473500D01*
X484000Y515000D01*
Y513000D02*
Y515000D01*
Y468000D02*
Y483000D01*
X648000Y561500D02*
Y591000D01*
X662500Y605500D01*
X668500D01*
X672500Y609500D01*
Y617500D01*
X546500Y541500D02*
Y542900D01*
X581500Y577900D01*
Y593000D01*
X504744Y531000D02*
X517004D01*
X504500Y530756D02*
X504744Y531000D01*
X631000Y643500D02*
X639000Y635500D01*
X679500D02*
X692500Y622500D01*
X639000Y635500D02*
X679500D01*
X702500Y609000D02*
Y617500D01*
Y609000D02*
X723000Y588500D01*
Y573000D02*
Y588500D01*
D11*
X520299Y483000D02*
G03*
X517361Y481228I0J-3321D01*
G01*
Y484772D02*
G03*
X520299Y483000I2937J1549D01*
G01*
X520799Y438000D02*
G03*
X517237Y436009I0J-4182D01*
G01*
Y439991D02*
G03*
X520799Y438000I3562J2191D01*
G01*
X492205Y416322D02*
G03*
X490402Y420675I-6157J0D01*
G01*
X494008D02*
G03*
X492205Y416322I4353J-4353D01*
G01*
X668976Y653524D02*
G03*
X667423Y656677I-3976J0D01*
G01*
X670530D02*
G03*
X668976Y653524I2423J-3153D01*
G01*
X721339Y657739D02*
G03*
X722500Y652000I4906J-1994D01*
G01*
X719115Y658642D02*
G03*
X719942Y654558I3491J-1419D01*
G01*
X711361Y657796D02*
G03*
X712500Y652500I4668J-1767D01*
G01*
X701317Y657688D02*
G03*
X702500Y651500I5147J-2223D01*
G01*
X699114Y658639D02*
G03*
X700001Y653999I3860J-1667D01*
G01*
X691339Y657739D02*
G03*
X692500Y652000I4906J-1994D01*
G01*
X689115Y658642D02*
G03*
X689942Y654558I3491J-1419D01*
G01*
X678976Y653024D02*
G03*
X677283Y656792I-5040J0D01*
G01*
X680670D02*
G03*
X678976Y653024I3346J-3768D01*
G01*
X661317Y657688D02*
G03*
X662500Y651500I5147J-2223D01*
G01*
X659114Y658639D02*
G03*
X660001Y653999I3860J-1667D01*
G01*
X651297Y657642D02*
G03*
X652500Y651000I5391J-2454D01*
G01*
X649113Y658637D02*
G03*
X650052Y653448I4211J-1917D01*
G01*
X648976Y654524D02*
G03*
X647812Y656430I-2143J0D01*
G01*
X650141D02*
G03*
X648976Y654524I978J-1906D01*
G01*
X650871Y650211D02*
G03*
X651364Y652968I-1388J1671D01*
G01*
X650119Y649162D02*
G03*
X648977Y654523I-4703J1801D01*
G01*
X652360Y648304D02*
G03*
X651592Y651908I-3161J1210D01*
G01*
X660141Y649218D02*
G03*
X658977Y655023I-4941J2028D01*
G01*
X662361Y648307D02*
G03*
X661525Y652475I-3548J1456D01*
G01*
X660940Y650267D02*
G03*
X661518Y653201I-1390J1798D01*
G01*
X670070Y649024D02*
G03*
X668976Y653523I-4242J1352D01*
G01*
X680281Y651719D02*
G03*
X682500Y650800I2219J2219D01*
G01*
X680045Y648939D02*
G03*
X678976Y653023I-4023J1129D01*
G01*
X690162Y649268D02*
G03*
X688976Y655523I-5183J2258D01*
G01*
X692362Y648310D02*
G03*
X691467Y653033I-3914J1705D01*
G01*
X700141Y649218D02*
G03*
X698977Y655023I-4941J2028D01*
G01*
X702361Y648307D02*
G03*
X701525Y652475I-3548J1456D01*
G01*
X700940Y650267D02*
G03*
X701518Y653201I-1390J1798D01*
G01*
X712500Y652500D02*
G03*
X713700Y650500I2266J0D01*
G01*
X711300D02*
G03*
X712500Y652500I-1067J2000D01*
G01*
X710182Y649313D02*
G03*
X708977Y656023I-5428J2489D01*
G01*
X712364Y648313D02*
G03*
X711417Y653583I-4263J1955D01*
G01*
X720162Y649268D02*
G03*
X718976Y655523I-5183J2258D01*
G01*
X722363Y648310D02*
G03*
X721467Y653033I-3914J1705D01*
G01*
X524975Y487676D02*
G03*
X526354Y491004I-3328J3328D01*
G01*
X524975Y442176D02*
G03*
X526354Y445504I-3328J3328D01*
G01*
X520299Y483000D02*
X528500Y491201D01*
X520799Y438000D02*
X528500Y445701D01*
Y445504D02*
X529004Y445000D01*
X543000D01*
X528500Y491004D02*
X537996D01*
X540500Y488500D01*
X733600Y403100D02*
X757500Y427000D01*
X501400Y403100D02*
X733600D01*
X492205Y412295D02*
X501400Y403100D01*
X757500Y427000D02*
Y657500D01*
X492205Y412295D02*
Y423228D01*
X514000Y438000D02*
X520799D01*
X514000Y483000D02*
X520299D01*
X743000Y672000D02*
X757500Y657500D01*
X652500Y647500D02*
Y651000D01*
X648976Y654524D02*
X652500Y651000D01*
X648976Y654524D02*
Y659449D01*
X662500Y647500D02*
Y651500D01*
X658976Y655024D02*
X662500Y651500D01*
X658976Y655024D02*
Y659449D01*
X672500Y647500D02*
Y650000D01*
X668976Y653524D02*
X672500Y650000D01*
X668976Y653524D02*
Y659449D01*
X682500Y647500D02*
Y649500D01*
X678976Y653024D02*
X682500Y649500D01*
X678976Y653024D02*
Y659449D01*
X692500Y647500D02*
Y652000D01*
X688976Y655524D02*
X692500Y652000D01*
X688976Y655524D02*
Y659449D01*
X702500Y647500D02*
Y651500D01*
X698976Y655024D02*
X702500Y651500D01*
X698976Y655024D02*
Y659449D01*
X712500Y647500D02*
Y652500D01*
X708976Y656024D02*
X712500Y652500D01*
X708976Y656024D02*
Y659449D01*
X722500Y647500D02*
Y652000D01*
X718976Y655524D02*
X722500Y652000D01*
X718976Y655524D02*
Y659449D01*
X643500Y672000D02*
X743000D01*
X636000Y679500D02*
X643500Y672000D01*
X632500Y679500D02*
X636000D01*
D14*
X393701Y420276D02*
X423228D01*
Y437992D01*
X393701D02*
X423228D01*
X393701D02*
Y644685D01*
X423228D01*
Y662402D01*
X393701D02*
X423228D01*
X393701D02*
Y688976D01*
X763779D01*
Y393701D02*
Y688976D01*
X393701Y393701D02*
X763779D01*
X393701D02*
Y420276D01*
D15*
X773404Y665511D02*
Y658513D01*
X776903D01*
X778069Y659680D01*
Y660846D01*
X776903Y662012D01*
X773404D01*
X776903D01*
X778069Y663178D01*
Y664345D01*
X776903Y665511D01*
X773404D01*
X783901D02*
X781568D01*
X780402Y664345D01*
Y659680D01*
X781568Y658513D01*
X783901D01*
X785067Y659680D01*
Y664345D01*
X783901Y665511D01*
X787399D02*
X792065D01*
X789732D01*
Y658513D01*
X794397Y665511D02*
X799062D01*
X796730D01*
Y658513D01*
X804894Y665511D02*
X802561D01*
X801395Y664345D01*
Y659680D01*
X802561Y658513D01*
X804894D01*
X806060Y659680D01*
Y664345D01*
X804894Y665511D01*
X808393Y658513D02*
Y665511D01*
X810725Y663178D01*
X813058Y665511D01*
Y658513D01*
X822388Y665511D02*
Y658513D01*
X827053D01*
X829386D02*
Y663178D01*
X831718Y665511D01*
X834051Y663178D01*
Y658513D01*
Y662012D01*
X829386D01*
X836384Y665511D02*
Y664345D01*
X838716Y662012D01*
X841049Y664345D01*
Y665511D01*
X838716Y662012D02*
Y658513D01*
X848046Y665511D02*
X843381D01*
Y658513D01*
X848046D01*
X843381Y662012D02*
X845714D01*
X850379Y658513D02*
Y665511D01*
X853878D01*
X855044Y664345D01*
Y662012D01*
X853878Y660846D01*
X850379D01*
X852712D02*
X855044Y658513D01*
X869040Y664345D02*
X867873Y665511D01*
X865541D01*
X864375Y664345D01*
Y659680D01*
X865541Y658513D01*
X867873D01*
X869040Y659680D01*
X871372Y665511D02*
Y659680D01*
X872539Y658513D01*
X874871D01*
X876038Y659680D01*
Y665511D01*
X688200Y410800D02*
X684264D01*
X682952Y412112D01*
X684264Y413424D01*
X686888D01*
X688200Y414736D01*
X686888Y416048D01*
X682952D01*
X679017Y410800D02*
X676393D01*
X675081Y412112D01*
Y414736D01*
X676393Y416048D01*
X679017D01*
X680329Y414736D01*
Y412112D01*
X679017Y410800D01*
X672457D02*
X669833D01*
X671145D01*
Y418672D01*
X672457D01*
X660650D02*
Y410800D01*
X664586D01*
X665898Y412112D01*
Y414736D01*
X664586Y416048D01*
X660650D01*
X654090Y410800D02*
X656714D01*
X658026Y412112D01*
Y414736D01*
X656714Y416048D01*
X654090D01*
X652778Y414736D01*
Y413424D01*
X658026D01*
X650154Y416048D02*
Y410800D01*
Y413424D01*
X648843Y414736D01*
X647531Y416048D01*
X646219D01*
X634412Y410800D02*
X630476D01*
X629164Y412112D01*
X630476Y413424D01*
X633100D01*
X634412Y414736D01*
X633100Y416048D01*
X629164D01*
X626540Y410800D02*
X623916D01*
X625228D01*
Y416048D01*
X626540D01*
X614733Y418672D02*
Y410800D01*
X618669D01*
X619980Y412112D01*
Y414736D01*
X618669Y416048D01*
X614733D01*
X608173Y410800D02*
X610797D01*
X612109Y412112D01*
Y414736D01*
X610797Y416048D01*
X608173D01*
X606861Y414736D01*
Y413424D01*
X612109D01*
D16*
X722500Y647500D02*
D03*
D17*
X712500D02*
D03*
X702500D02*
D03*
X692500D02*
D03*
X682500D02*
D03*
X672500D02*
D03*
X662500D02*
D03*
X652500D02*
D03*
X642500D02*
D03*
X722500Y617500D02*
D03*
X712500D02*
D03*
X702500D02*
D03*
X692500D02*
D03*
X682500D02*
D03*
X672500D02*
D03*
X662500D02*
D03*
X652500D02*
D03*
X642500D02*
D03*
D18*
X511339Y659449D02*
D03*
X501339D02*
D03*
X491339D02*
D03*
X697323Y423228D02*
D03*
X707323D02*
D03*
X717323D02*
D03*
X658976Y659449D02*
D03*
X678976D02*
D03*
X688976D02*
D03*
X698976D02*
D03*
X708976D02*
D03*
X718976D02*
D03*
X728976D02*
D03*
X738976D02*
D03*
X668976D02*
D03*
X452205Y423228D02*
D03*
X472205D02*
D03*
X482205D02*
D03*
X492205D02*
D03*
X502205D02*
D03*
X512205D02*
D03*
X522205D02*
D03*
X532205D02*
D03*
X462205D02*
D03*
D19*
X481339Y659449D02*
D03*
X727323Y423228D02*
D03*
X648976Y659449D02*
D03*
X442205Y423228D02*
D03*
D20*
X425197Y479921D02*
D03*
Y489921D02*
D03*
Y499921D02*
D03*
Y509921D02*
D03*
Y519921D02*
D03*
Y529921D02*
D03*
Y539921D02*
D03*
Y549921D02*
D03*
Y559921D02*
D03*
Y569921D02*
D03*
Y579921D02*
D03*
Y589921D02*
D03*
Y599921D02*
D03*
Y609921D02*
D03*
Y619921D02*
D03*
D21*
Y629921D02*
D03*
D22*
X741874Y471378D02*
D03*
X512374Y618878D02*
D03*
Y554378D02*
D03*
D23*
X734000Y495000D02*
D03*
Y447756D02*
D03*
X685968D02*
D03*
Y495000D02*
D03*
X456468Y642500D02*
D03*
Y595256D02*
D03*
X504500D02*
D03*
Y642500D02*
D03*
X456468Y578000D02*
D03*
X504500Y530756D02*
D03*
Y578000D02*
D03*
X742500Y578031D02*
D03*
X695256D02*
D03*
Y530000D02*
D03*
X742500D02*
D03*
X581500Y593000D02*
D03*
X534256D02*
D03*
Y641032D02*
D03*
X581500D02*
D03*
X665000Y578031D02*
D03*
X617756D02*
D03*
Y530000D02*
D03*
X665000D02*
D03*
D24*
X718878Y522126D02*
D03*
X557878Y585126D02*
D03*
X641378Y522126D02*
D03*
D25*
X444000Y468000D02*
D03*
Y438000D02*
D03*
X464000D02*
D03*
Y468000D02*
D03*
X484000D02*
D03*
Y438000D02*
D03*
X514000Y468000D02*
D03*
Y438000D02*
D03*
X444000Y513000D02*
D03*
Y483000D02*
D03*
X464000D02*
D03*
Y513000D02*
D03*
X484000D02*
D03*
Y483000D02*
D03*
X514000Y513000D02*
D03*
Y483000D02*
D03*
D26*
X543000Y445000D02*
D03*
X540500Y488500D02*
D03*
X559500Y541500D02*
D03*
X558500Y517000D02*
D03*
X471000Y574000D02*
D03*
X602000Y462000D02*
D03*
X584000Y461500D02*
D03*
Y553500D02*
D03*
X617000Y628500D02*
D03*
X588500Y658000D02*
D03*
X678000Y599500D02*
D03*
X594500Y555500D02*
D03*
X547000Y517000D02*
D03*
X546500Y541500D02*
D03*
X594500Y480500D02*
D03*
X631500Y656000D02*
D03*
D27*
X632500Y679500D02*
D03*
D28*
X665000Y524568D02*
G03*
X663409Y528409I-5432J0D01*
G01*
X666591D02*
G03*
X665000Y524568I3841J-3841D01*
G01*
X642444Y616002D02*
G03*
X633000Y612500I-907J-12038D01*
G01*
X560561Y542561D02*
G03*
X580021Y534500I19460J19460D01*
G01*
X556318Y538318D02*
G03*
X565535Y534500I9217J9217D01*
G01*
X553500D02*
X594500D01*
X645996Y504500D02*
X665000D01*
Y530000D01*
Y490000D02*
Y504500D01*
X609500Y498500D02*
X626500Y481500D01*
X565500Y498500D02*
X609500D01*
X626500Y481500D02*
X656500D01*
X665000Y490000D01*
X547000Y517000D02*
X559500Y504500D01*
X565500Y498500D01*
X546500Y541500D02*
X553500Y534500D01*
X638000Y617500D02*
X642500D01*
X633000Y612500D02*
X638000Y617500D01*
X633000Y573000D02*
Y612500D01*
X594500Y534500D02*
X633000Y573000D01*
D29*
X529996Y532346D02*
G03*
X532295Y533298I0J3251D01*
G01*
X546500Y539000D02*
G03*
X531983Y532987I0J-20530D01*
G01*
X546500Y543000D02*
G03*
X538811Y539815I0J-10874D01*
G01*
X540496Y541500D02*
G03*
X544726Y543261I0J5959D01*
G01*
Y539739D02*
G03*
X540496Y541500I-4229J-4198D01*
G01*
X529996Y531000D02*
X540496Y541500D01*
X546500D01*
D30*
X528500Y445504D02*
D03*
Y458496D02*
D03*
Y491004D02*
D03*
Y503996D02*
D03*
X535000Y626496D02*
D03*
Y613504D02*
D03*
X725000Y478996D02*
D03*
Y466004D02*
D03*
D31*
X633004Y504500D02*
D03*
X645996D02*
D03*
X566996Y606500D02*
D03*
X554004D02*
D03*
X517004Y531000D02*
D03*
X529996D02*
D03*
X723996Y540500D02*
D03*
X711004D02*
D03*
D32*
X672500Y431799D02*
Y427800D01*
Y429799D01*
X671500Y430799D01*
X670501Y431799D01*
X669501D01*
X663503Y427800D02*
X665502D01*
X666502Y428800D01*
Y430799D01*
X665502Y431799D01*
X663503D01*
X662503Y430799D01*
Y429799D01*
X666502D01*
X660504Y431799D02*
X658504Y427800D01*
X656505Y431799D01*
X654506Y432798D02*
X653506Y433798D01*
X651507D01*
X650507Y432798D01*
Y431799D01*
X651507Y430799D01*
X652506D01*
X651507D01*
X650507Y429799D01*
Y428800D01*
X651507Y427800D01*
X653506D01*
X654506Y428800D01*
X648508Y427800D02*
Y428800D01*
X647508D01*
Y427800D01*
X648508D01*
X643509D02*
X641510D01*
X642510D01*
Y433798D01*
X643509Y432798D01*
X672500Y438800D02*
Y445465D01*
X669168Y448797D01*
X665836Y445465D01*
Y438800D01*
Y443798D01*
X672500D01*
X655839Y438800D02*
X662503D01*
X655839Y445465D01*
Y447131D01*
X657505Y448797D01*
X660837D01*
X662503Y447131D01*
M02*
