%FSLAX25Y25*%
%MOIN*%
G70*
G01*
G75*
G04 Layer_Color=32896*
%ADD10C,0.03200*%
%ADD11C,0.02400*%
%ADD12R,0.06693X0.06693*%
%ADD13R,0.06693X0.06693*%
%ADD14C,0.00400*%
%ADD15C,0.01200*%
%ADD16R,0.07500X0.09000*%
%ADD17O,0.07500X0.09000*%
%ADD18O,0.07500X0.09000*%
%ADD19R,0.07500X0.09000*%
%ADD20O,0.09000X0.07500*%
%ADD21R,0.09000X0.07500*%
%ADD22R,0.10500X0.10500*%
%ADD23C,0.10500*%
%ADD24R,0.10500X0.10500*%
%ADD25C,0.10000*%
%ADD26C,0.09000*%
%ADD27C,0.07500*%
%ADD28C,0.06000*%
%ADD29C,0.04000*%
%ADD30R,0.06693X0.05118*%
%ADD31R,0.05118X0.06693*%
%ADD32C,0.01400*%
%ADD33C,0.00600*%
%ADD34C,0.00800*%
%ADD35C,0.00787*%
%ADD36C,0.01600*%
%ADD37C,0.01000*%
%ADD38R,0.07493X0.07493*%
%ADD39R,0.07493X0.07493*%
%ADD40R,0.08300X0.09800*%
%ADD41O,0.08300X0.09800*%
%ADD42O,0.08300X0.09800*%
%ADD43R,0.08300X0.09800*%
%ADD44O,0.09800X0.08300*%
%ADD45R,0.09800X0.08300*%
%ADD46R,0.11300X0.11300*%
%ADD47C,0.11300*%
%ADD48C,0.00800*%
%ADD49R,0.11300X0.11300*%
%ADD50C,0.10800*%
%ADD51C,0.09800*%
%ADD52C,0.08300*%
%ADD53R,0.07493X0.05918*%
%ADD54R,0.05918X0.07493*%
D15*
X773404Y624391D02*
Y617393D01*
X776903D01*
X778069Y618560D01*
Y619726D01*
X776903Y620892D01*
X773404D01*
X776903D01*
X778069Y622058D01*
Y623225D01*
X776903Y624391D01*
X773404D01*
X783901D02*
X781568D01*
X780402Y623225D01*
Y618560D01*
X781568Y617393D01*
X783901D01*
X785067Y618560D01*
Y623225D01*
X783901Y624391D01*
X787399D02*
X792065D01*
X789732D01*
Y617393D01*
X794397Y624391D02*
X799062D01*
X796730D01*
Y617393D01*
X804894Y624391D02*
X802561D01*
X801395Y623225D01*
Y618560D01*
X802561Y617393D01*
X804894D01*
X806060Y618560D01*
Y623225D01*
X804894Y624391D01*
X808393Y617393D02*
Y624391D01*
X810725Y622058D01*
X813058Y624391D01*
Y617393D01*
X822388Y624391D02*
Y617393D01*
X827053D01*
X834051Y624391D02*
X829386D01*
Y617393D01*
X834051D01*
X829386Y620892D02*
X831718D01*
X841049Y623225D02*
X839882Y624391D01*
X837550D01*
X836384Y623225D01*
Y618560D01*
X837550Y617393D01*
X839882D01*
X841049Y618560D01*
Y620892D01*
X838716D01*
X848046Y624391D02*
X843381D01*
Y617393D01*
X848046D01*
X843381Y620892D02*
X845714D01*
X850379Y617393D02*
Y624391D01*
X855044Y617393D01*
Y624391D01*
X857377D02*
Y617393D01*
X860876D01*
X862042Y618560D01*
Y623225D01*
X860876Y624391D01*
X857377D01*
D32*
X577100Y427900D02*
X582432D01*
X585097Y430566D01*
X582432Y433232D01*
X577100D01*
X581099D01*
Y427900D01*
X577100Y441229D02*
Y435897D01*
X582432Y441229D01*
X583765D01*
X585097Y439896D01*
Y437230D01*
X583765Y435897D01*
X582432Y451892D02*
X577100D01*
X579766D01*
X581099Y453225D01*
X582432Y454558D01*
Y455891D01*
X577100Y463888D02*
Y461223D01*
X578433Y459890D01*
X581099D01*
X582432Y461223D01*
Y463888D01*
X581099Y465221D01*
X579766D01*
Y459890D01*
X582432Y467887D02*
X577100Y470553D01*
X582432Y473219D01*
X583765Y475884D02*
X585097Y477217D01*
Y479883D01*
X583765Y481216D01*
X582432D01*
X581099Y479883D01*
Y478550D01*
Y479883D01*
X579766Y481216D01*
X578433D01*
X577100Y479883D01*
Y477217D01*
X578433Y475884D01*
X577100Y483882D02*
X578433D01*
Y485215D01*
X577100D01*
Y483882D01*
Y490546D02*
Y493212D01*
Y491879D01*
X585097D01*
X583765Y490546D01*
X601864Y433232D02*
X603197Y431899D01*
Y429233D01*
X601864Y427900D01*
X600532D01*
X599199Y429233D01*
Y431899D01*
X597866Y433232D01*
X596533D01*
X595200Y431899D01*
Y429233D01*
X596533Y427900D01*
X603197Y435897D02*
Y438563D01*
Y437230D01*
X595200D01*
Y435897D01*
Y438563D01*
Y442562D02*
X603197D01*
X600532Y445228D01*
X603197Y447893D01*
X595200D01*
X601864Y455891D02*
X603197Y454558D01*
Y451892D01*
X601864Y450559D01*
X596533D01*
X595200Y451892D01*
Y454558D01*
X596533Y455891D01*
X603197Y462556D02*
Y459890D01*
X601864Y458557D01*
X596533D01*
X595200Y459890D01*
Y462556D01*
X596533Y463888D01*
X601864D01*
X603197Y462556D01*
X595200Y466554D02*
X603197D01*
X595200Y471886D01*
X603197D01*
X601864Y479883D02*
X603197Y478550D01*
Y475884D01*
X601864Y474552D01*
X600532D01*
X599199Y475884D01*
Y478550D01*
X597866Y479883D01*
X596533D01*
X595200Y478550D01*
Y475884D01*
X596533Y474552D01*
X601864Y495878D02*
X603197Y494545D01*
Y491879D01*
X601864Y490546D01*
X596533D01*
X595200Y491879D01*
Y494545D01*
X596533Y495878D01*
X603197Y502542D02*
Y499877D01*
X601864Y498544D01*
X596533D01*
X595200Y499877D01*
Y502542D01*
X596533Y503875D01*
X601864D01*
X603197Y502542D01*
X595200Y506541D02*
X603197D01*
X595200Y511873D01*
X603197D01*
Y514539D02*
Y519870D01*
Y517204D01*
X595200D01*
Y522536D02*
X603197D01*
Y526535D01*
X601864Y527868D01*
X599199D01*
X597866Y526535D01*
Y522536D01*
Y525202D02*
X595200Y527868D01*
X603197Y534532D02*
Y531866D01*
X601864Y530533D01*
X596533D01*
X595200Y531866D01*
Y534532D01*
X596533Y535865D01*
X601864D01*
X603197Y534532D01*
Y538531D02*
X595200D01*
Y543862D01*
X601864Y559857D02*
X603197Y558524D01*
Y555859D01*
X601864Y554526D01*
X600532D01*
X599199Y555859D01*
Y558524D01*
X597866Y559857D01*
X596533D01*
X595200Y558524D01*
Y555859D01*
X596533Y554526D01*
X603197Y562523D02*
X601864D01*
X599199Y565189D01*
X601864Y567855D01*
X603197D01*
X599199Y565189D02*
X595200D01*
X601864Y575852D02*
X603197Y574519D01*
Y571853D01*
X601864Y570520D01*
X600532D01*
X599199Y571853D01*
Y574519D01*
X597866Y575852D01*
X596533D01*
X595200Y574519D01*
Y571853D01*
X596533Y570520D01*
X603197Y578518D02*
Y583849D01*
Y581184D01*
X595200D01*
X603197Y591847D02*
Y586515D01*
X595200D01*
Y591847D01*
X599199Y586515D02*
Y589181D01*
X595200Y594513D02*
X603197D01*
X600532Y597179D01*
X603197Y599844D01*
X595200D01*
X601864Y607842D02*
X603197Y606509D01*
Y603843D01*
X601864Y602510D01*
X600532D01*
X599199Y603843D01*
Y606509D01*
X597866Y607842D01*
X596533D01*
X595200Y606509D01*
Y603843D01*
X596533Y602510D01*
D34*
X533618Y454756D02*
Y461055D01*
X531650Y463024D02*
X533618Y461055D01*
X525350Y463024D02*
X531650D01*
X523382Y461055D02*
X525350Y463024D01*
X523382Y454756D02*
Y461055D01*
X523579Y441370D02*
X533421D01*
Y449047D01*
X523579Y441370D02*
Y449047D01*
X393701Y393701D02*
Y420276D01*
Y393701D02*
X393701Y393701D01*
X763780D01*
Y688976D01*
X763780Y688976D02*
X763780Y688976D01*
X393701Y688976D02*
X763780D01*
X393701Y662402D02*
Y688976D01*
Y662402D02*
X423228D01*
Y644685D02*
Y662402D01*
X393701Y644685D02*
X423228D01*
X393701Y437992D02*
Y644685D01*
Y437992D02*
X423228D01*
Y420276D02*
Y437992D01*
X393701Y420276D02*
X423228D01*
X393701Y393701D02*
Y420276D01*
Y393701D02*
X393701Y393701D01*
X763780D01*
X642256Y499382D02*
X648555D01*
X650524Y501350D01*
Y507650D01*
X648555Y509618D02*
X650524Y507650D01*
X642256Y509618D02*
X648555D01*
X628870Y499579D02*
Y509421D01*
Y499579D02*
X636547D01*
X628870Y509421D02*
X636547D01*
X549870Y611421D02*
X557547D01*
X549870Y601579D02*
X557547D01*
X549870D02*
Y611421D01*
X563256Y611618D02*
X569555D01*
X571524Y609650D01*
Y603350D02*
Y609650D01*
X569555Y601382D02*
X571524Y603350D01*
X563256Y601382D02*
X569555D01*
X526256Y525882D02*
X532555D01*
X534524Y527850D01*
Y534150D01*
X532555Y536118D02*
X534524Y534150D01*
X526256Y536118D02*
X532555D01*
X512870Y526079D02*
Y535921D01*
Y526079D02*
X520547D01*
X512870Y535921D02*
X520547D01*
X706870Y545421D02*
X714547D01*
X706870Y535579D02*
X714547D01*
X706870D02*
Y545421D01*
X720256Y545618D02*
X726555D01*
X728524Y543650D01*
Y537350D02*
Y543650D01*
X726555Y535382D02*
X728524Y537350D01*
X720256Y535382D02*
X726555D01*
X533618Y500256D02*
Y506555D01*
X531650Y508524D02*
X533618Y506555D01*
X525350Y508524D02*
X531650D01*
X523382Y506555D02*
X525350Y508524D01*
X523382Y500256D02*
Y506555D01*
X523579Y486870D02*
X533421D01*
Y494547D01*
X523579Y486870D02*
Y494547D01*
X530079Y609370D02*
Y617047D01*
X539921Y609370D02*
Y617047D01*
X530079Y609370D02*
X539921D01*
X529882Y622756D02*
Y629055D01*
X531850Y631024D01*
X538150D01*
X540118Y629055D01*
Y622756D02*
Y629055D01*
X720079Y461870D02*
Y469547D01*
X729921Y461870D02*
Y469547D01*
X720079Y461870D02*
X729921D01*
X719882Y475256D02*
Y481555D01*
X721850Y483524D01*
X728150D01*
X730118Y481555D01*
Y475256D02*
Y481555D01*
D36*
X709068Y409965D02*
X710401Y411297D01*
X713067D01*
X714400Y409965D01*
Y408632D01*
X713067Y407299D01*
X710401D01*
X709068Y405966D01*
Y404633D01*
X710401Y403300D01*
X713067D01*
X714400Y404633D01*
X706403Y403300D02*
X701071Y408632D01*
X698405Y403300D02*
Y411297D01*
X693074Y403300D01*
Y411297D01*
X690408Y408632D02*
X689075D01*
Y407299D01*
X690408D01*
Y408632D01*
Y404633D02*
X689075D01*
Y403300D01*
X690408D01*
Y404633D01*
D37*
X729300Y492498D02*
Y486500D01*
X726301D01*
X725301Y487500D01*
Y491498D01*
X726301Y492498D01*
X729300D01*
X723302Y486500D02*
X721303D01*
X722302D01*
Y492498D01*
X723302Y491498D01*
X533500Y437498D02*
Y431500D01*
X530501D01*
X529501Y432500D01*
Y436498D01*
X530501Y437498D01*
X533500D01*
X523503Y431500D02*
X527502D01*
X523503Y435499D01*
Y436498D01*
X524503Y437498D01*
X526502D01*
X527502Y436498D01*
X539300Y639998D02*
Y634000D01*
X536301D01*
X535301Y635000D01*
Y638998D01*
X536301Y639998D01*
X539300D01*
X533302Y638998D02*
X532302Y639998D01*
X530303D01*
X529303Y638998D01*
Y637999D01*
X530303Y636999D01*
X531303D01*
X530303D01*
X529303Y635999D01*
Y635000D01*
X530303Y634000D01*
X532302D01*
X533302Y635000D01*
X532800Y517498D02*
Y511500D01*
X529801D01*
X528801Y512500D01*
Y516498D01*
X529801Y517498D01*
X532800D01*
X523803Y511500D02*
Y517498D01*
X526802Y514499D01*
X522803D01*
X727500Y554798D02*
Y548800D01*
X724501D01*
X723501Y549800D01*
Y553798D01*
X724501Y554798D01*
X727500D01*
X717503D02*
X721502D01*
Y551799D01*
X719503Y552799D01*
X718503D01*
X717503Y551799D01*
Y549800D01*
X718503Y548800D01*
X720502D01*
X721502Y549800D01*
X533900Y545498D02*
Y539500D01*
X530901D01*
X529901Y540500D01*
Y544498D01*
X530901Y545498D01*
X533900D01*
X523903D02*
X525903Y544498D01*
X527902Y542499D01*
Y540500D01*
X526902Y539500D01*
X524903D01*
X523903Y540500D01*
Y541499D01*
X524903Y542499D01*
X527902D01*
X570500Y620798D02*
Y614800D01*
X567501D01*
X566501Y615800D01*
Y619798D01*
X567501Y620798D01*
X570500D01*
X564502D02*
X560503D01*
Y619798D01*
X564502Y615800D01*
Y614800D01*
X649500Y518798D02*
Y512800D01*
X646501D01*
X645501Y513800D01*
Y517798D01*
X646501Y518798D01*
X649500D01*
X643502Y517798D02*
X642502Y518798D01*
X640503D01*
X639503Y517798D01*
Y516799D01*
X640503Y515799D01*
X639503Y514799D01*
Y513800D01*
X640503Y512800D01*
X642502D01*
X643502Y513800D01*
Y514799D01*
X642502Y515799D01*
X643502Y516799D01*
Y517798D01*
X642502Y515799D02*
X640503D01*
M02*
