M48
;Layer_Color=9474304
;FILE_FORMAT=2:5
INCH,LZ
;TYPE=PLATED
T1F00S00C0.02800
T2F00S00C0.03543
T3F00S00C0.03937
%
T01
X0521Y04515
X0543Y04425
X06025
X0611Y04285
X06265Y04295
X07165Y04265
X0653Y0501
X0638453Y0515453
X06475Y05275
X06495Y0579
X06545Y05855
X0665Y0583
X06755Y05795
X0623Y0539
X0601Y05315
X05945Y05255
X0543Y0509
X05015Y0561
X0511Y05915
X0462Y0532
X04325Y05275
T02
X0415354Y0465591
X05615Y04315
Y04215
X0595669Y0415354
X0605669
X0615669
X0625669
X0635669
X0645669
X0655669
X0665669
X0675669
X0685669
X0691Y04295
X0661
X0765748Y0465591
Y0475591
Y0485591
Y0495591
Y0505591
Y0515591
Y0525591
Y0535591
Y0545591
Y0555591
Y0565591
Y0575591
Y0585591
Y0595591
Y0605591
Y0615591
X0701Y05125
X0691
X0671Y05295
X0661
X06165Y0515
X06065
X0581Y0533
Y0543
X0558Y06
X0548
X0415354Y0595591
Y0585591
Y0575591
Y0565591
Y0555591
Y0545591
Y0535591
Y0525591
Y0515591
Y0505591
Y0495591
Y0485591
Y0475591
Y0605591
Y0615591
Y0625591
Y0635591
X04555Y0638
Y0658
X0458032Y0687008
X0448032
X0438032
X0468032
X0478032
X0488032
X0498032
X0508032
X0518032
X0528032
X0538032
X0548032
X0713071
X0723071
X0733071
X0743071
X0765748Y0655591
Y0645591
Y0635591
Y0625591
T03
X0465638Y0414913
Y0434913
X04305Y04615
X04805
X048926Y0434913
Y0414913
X0512882
Y0434913
X06675Y05965
X07135Y0584
X0727Y0569
X05925Y062
X04855Y05995
Y05795
X04805Y0488
X0512Y05
Y0473
X0462
Y05
X04305Y0488
X044Y05795
Y05995
X046275
Y05795
X04285Y06365
Y06765
X0483Y06695
Y06295
X0505Y06475
X0525
X0555807Y0645374
X0569193
X0575886Y0629626
X05625
X0549114
X06025Y06325
X05925Y066
X06275Y06325
X06675Y06265
X0667Y06695
X0657
X0677
X07145Y06725
Y06525
X07135Y0634
M30
