%FSLAX25Y25*%
%MOIN*%
G70*
G01*
G75*
G04 Layer_Physical_Order=2*
G04 Layer_Color=16711680*
%ADD10C,0.01800*%
%ADD11C,0.04000*%
%ADD12C,0.02000*%
%ADD13C,0.02200*%
%ADD14C,0.02400*%
%ADD15C,0.03200*%
%ADD16C,0.03000*%
%ADD17R,0.05512X0.06693*%
%ADD18O,0.09843X0.02756*%
%ADD19R,0.05118X0.06693*%
%ADD20R,0.06693X0.05512*%
%ADD21C,0.00800*%
%ADD22C,0.01200*%
%ADD23C,0.09000*%
%ADD24O,0.07500X0.09000*%
%ADD25R,0.07500X0.09000*%
%ADD26O,0.09000X0.07500*%
%ADD27O,0.07500X0.06000*%
%ADD28R,0.09000X0.07500*%
%ADD29R,0.09500X0.09500*%
%ADD30C,0.09500*%
%ADD31C,0.10000*%
%ADD32R,0.09000X0.09000*%
%ADD33C,0.07500*%
%ADD34C,0.08500*%
%ADD35R,0.07500X0.10000*%
%ADD36O,0.07500X0.10000*%
%ADD37C,0.06000*%
%ADD38C,0.01400*%
G36*
X429500Y491500D02*
X429500Y491500D01*
X430500Y491086D01*
Y489000D01*
X434000Y485500D01*
X430500Y482000D01*
X415500D01*
Y489000D01*
X425500D01*
X427000Y490500D01*
X428000Y491500D01*
X429500D01*
X429500Y491500D01*
D02*
G37*
G36*
X757500Y690500D02*
Y650000D01*
Y481500D01*
X760000Y479000D01*
X767000D01*
Y472000D01*
X756500D01*
X751500Y477000D01*
X749000Y479500D01*
Y588500D01*
Y666000D01*
X743500Y671500D01*
X739500Y675500D01*
Y688000D01*
Y689000D01*
Y692000D01*
X742500Y695000D01*
X743000Y695500D01*
X752500D01*
X757500Y690500D01*
D02*
G37*
G36*
X726000D02*
X726500Y690000D01*
Y689500D01*
Y679000D01*
X728500Y677000D01*
X731500Y674000D01*
Y669500D01*
X743000Y658000D01*
Y608000D01*
Y550793D01*
Y537000D01*
Y477500D01*
X750500Y470000D01*
X751500Y469000D01*
X768000D01*
X770000Y467000D01*
Y462000D01*
Y450000D01*
X767000Y447000D01*
X759500Y439500D01*
X712000D01*
X705500Y433000D01*
Y419500D01*
Y412000D01*
X704000Y410500D01*
X695026Y401526D01*
X558974D01*
X542000Y418500D01*
X531500Y429000D01*
Y460000D01*
Y503000D01*
X529000Y505500D01*
X514000Y520500D01*
X457500D01*
X452500Y525500D01*
Y536000D01*
X456500Y540000D01*
X474500D01*
X528000Y593500D01*
X538000Y603500D01*
X548500D01*
X551500Y600500D01*
Y591500D01*
X553000Y590000D01*
Y543500D01*
Y529000D01*
X575000Y507000D01*
X579500Y502500D01*
X587500D01*
X594000Y496000D01*
Y483000D01*
Y458500D01*
X592500Y457000D01*
X587500Y452000D01*
Y445000D01*
X581500Y439000D01*
X556000D01*
X554500Y437500D01*
X552500Y435500D01*
Y428000D01*
X555500Y425000D01*
X570500D01*
X584500Y411000D01*
X588500Y407000D01*
X677500D01*
X682000Y411500D01*
Y417500D01*
Y429500D01*
X674500Y437000D01*
X673500Y438000D01*
X639500D01*
X627500Y450000D01*
X620000Y457500D01*
Y468000D01*
Y474500D01*
X624000Y478500D01*
X626500Y481000D01*
X674000D01*
X682000Y489000D01*
X689500Y496500D01*
X706000D01*
X714000Y504500D01*
X714500Y505000D01*
Y515000D01*
Y520000D01*
X704000Y530500D01*
X688000D01*
X685500Y528000D01*
X680500Y523000D01*
X671000D01*
X669500Y524500D01*
X667000Y527000D01*
Y532500D01*
X664500Y535000D01*
X661744D01*
X661000Y535098D01*
X660256Y535000D01*
X607500D01*
X605500Y537000D01*
X596000D01*
X592500Y533500D01*
X589500Y530500D01*
Y522500D01*
X591500Y520500D01*
X598500D01*
X600777Y522777D01*
X638723D01*
X641000Y520500D01*
X648000Y513500D01*
Y506500D01*
Y495500D01*
X646000Y493500D01*
X645500Y493000D01*
X616500D01*
X610000Y499500D01*
Y508500D01*
X613000Y511500D01*
Y519000D01*
X611000Y521000D01*
X604000D01*
X601500Y518500D01*
X597500Y514500D01*
X592500D01*
X590000Y517000D01*
X583500D01*
X576500Y524000D01*
X574000Y526500D01*
Y534000D01*
X576500Y536500D01*
X584000D01*
X584500Y537000D01*
X589000Y541500D01*
Y542500D01*
Y547000D01*
X586500Y549500D01*
X576000D01*
X573500Y547000D01*
X566500D01*
X562000Y551500D01*
Y577500D01*
X562500Y578000D01*
X566500Y582000D01*
X636000D01*
X640500Y577500D01*
X647000Y571000D01*
X678500D01*
X680500Y573000D01*
X724000D01*
X726500Y575500D01*
X731000Y580000D01*
Y591000D01*
Y602500D01*
X725500Y608000D01*
Y641000D01*
X720500Y646000D01*
X710500D01*
X707500Y649000D01*
Y655500D01*
X708000Y656000D01*
X710500Y658500D01*
X719000D01*
X724000Y663500D01*
Y667500D01*
Y675500D01*
X717000Y682500D01*
X677000D01*
X670500Y676000D01*
Y668500D01*
Y660000D01*
X676000Y654500D01*
X690500D01*
X695500Y649500D01*
Y623500D01*
Y612000D01*
X706000Y601500D01*
X717000D01*
X724500Y594000D01*
Y584500D01*
X717500Y577500D01*
X703000D01*
X693000Y587500D01*
X689000Y591500D01*
X665000D01*
X657000Y599500D01*
X594000D01*
X580500Y613000D01*
X579000Y614500D01*
X506000D01*
X497500Y623000D01*
X496000Y624500D01*
Y638000D01*
Y649500D01*
X500000Y653500D01*
X508500D01*
X512000Y650000D01*
X512500Y649500D01*
Y638500D01*
Y627500D01*
X521500Y618500D01*
X554500D01*
X558000Y622000D01*
Y632500D01*
X559500Y634000D01*
X560500Y635000D01*
X578500D01*
X581000Y632500D01*
Y627500D01*
X583500Y625000D01*
X594500D01*
X597500Y622000D01*
X599500Y620000D01*
X652000D01*
X655500Y616500D01*
X658000Y614000D01*
X665000Y607000D01*
X673500D01*
X677500Y611000D01*
Y633000D01*
X671000Y639500D01*
X641000D01*
X635000Y645500D01*
X624500D01*
X620500Y649500D01*
X617000Y653000D01*
Y669000D01*
Y689500D01*
X623500Y696000D01*
X626000Y698500D01*
X718000D01*
X726000Y690500D01*
D02*
G37*
G36*
X475500Y492500D02*
X480500D01*
Y483500D01*
X472500D01*
X459000Y497000D01*
X465000Y503000D01*
X475500Y492500D01*
D02*
G37*
G36*
X523000Y468000D02*
Y453500D01*
Y452500D01*
X519500Y449000D01*
X507500Y461000D01*
Y473000D01*
X515000Y476000D01*
X523000Y468000D01*
D02*
G37*
G36*
X528700Y443100D02*
Y425400D01*
X527300Y426800D01*
X525000D01*
X521300Y430500D01*
X520200Y431600D01*
X514000D01*
Y438500D01*
X513100Y439400D01*
X522900D01*
X527400Y443900D01*
X528700Y443100D01*
D02*
G37*
G36*
X475000Y466000D02*
X481000D01*
Y457500D01*
X480500Y457000D01*
X472000D01*
X459500Y469500D01*
X464237Y475098D01*
X465836Y475165D01*
X475000Y466000D01*
D02*
G37*
G36*
X434000Y464000D02*
X430500Y460500D01*
Y457000D01*
X418000D01*
X412000Y463000D01*
X415500Y469000D01*
X429000D01*
X434000Y464000D01*
D02*
G37*
G36*
X612500Y656000D02*
Y631500D01*
X608500Y627500D01*
X596000D01*
X591000Y632500D01*
X583000Y640500D01*
Y650500D01*
X578000Y655500D01*
X565000D01*
X560000Y650500D01*
Y645000D01*
X556000Y641000D01*
X551000D01*
X547000Y645000D01*
Y656000D01*
X549000Y658000D01*
X556000Y665000D01*
X603500D01*
X612500Y656000D01*
D02*
G37*
G36*
X436500Y639500D02*
Y634000D01*
X434500Y632000D01*
X411000D01*
Y639500D01*
X414000Y642500D01*
X433500D01*
X436500Y639500D01*
D02*
G37*
G36*
X719500Y674000D02*
Y668000D01*
X716500Y665000D01*
X715500Y664000D01*
X676000D01*
X674000Y666000D01*
X673500Y669500D01*
Y674000D01*
X678000Y678500D01*
X715000D01*
X719500Y674000D01*
D02*
G37*
G36*
X473500Y653500D02*
X489500Y637500D01*
Y627000D01*
Y625500D01*
X487500Y623500D01*
X477000D01*
X475000Y625500D01*
Y627500D01*
Y641000D01*
X469000Y647000D01*
X466500Y649500D01*
X453500D01*
X450000Y653000D01*
Y661000D01*
X452000Y663000D01*
X452500Y663500D01*
X463500D01*
X473500Y653500D01*
D02*
G37*
G36*
X637000Y636000D02*
X638000Y635000D01*
X668500D01*
X673000Y630500D01*
Y628000D01*
Y624000D01*
X669500Y620500D01*
X663500D01*
X661500Y622500D01*
X657500Y626500D01*
X627000D01*
X623000Y630500D01*
Y634500D01*
X625500Y637000D01*
X636000D01*
X637000Y636000D01*
D02*
G37*
G36*
X464000Y639000D02*
Y638500D01*
Y628000D01*
X463000Y627000D01*
X458000Y622000D01*
X415000D01*
Y629000D01*
X445000D01*
X445500Y629500D01*
X450000Y634000D01*
Y642500D01*
X451000Y643500D01*
X459500D01*
X464000Y639000D01*
D02*
G37*
G36*
X435000Y677500D02*
X487500D01*
X490000Y675000D01*
X518000D01*
X529500Y663500D01*
X530000Y663000D01*
Y641500D01*
X535000Y636500D01*
X552000D01*
X554000Y634500D01*
Y624000D01*
X553000Y623000D01*
X530000D01*
X522500Y630500D01*
X519000Y634000D01*
Y649000D01*
Y654500D01*
X512500Y661000D01*
X479000D01*
X472000Y668000D01*
X443000D01*
X437500Y662500D01*
X419500D01*
X417000Y665000D01*
X416000Y666000D01*
Y673000D01*
Y681500D01*
X417500Y683000D01*
X419500Y685000D01*
X427500D01*
X435000Y677500D01*
D02*
G37*
%LPC*%
G36*
X659500Y680000D02*
X651000D01*
X649500Y678500D01*
X647000Y676000D01*
Y669000D01*
Y664500D01*
X650500Y661000D01*
X661000D01*
X662000Y662000D01*
X663478Y663478D01*
X663500Y663500D01*
Y676000D01*
X659500Y680000D01*
D02*
G37*
%LPD*%
D10*
X518900Y451500D02*
G03*
X517415Y455085I-5070J0D01*
G01*
X517415Y455085D02*
G03*
X521000Y453600I3585J3585D01*
G01*
X602485Y532985D02*
G03*
X606070Y531500I3585J3585D01*
G01*
D02*
G03*
X602485Y530015I0J-5070D01*
G01*
X645400Y527500D02*
G03*
X643915Y531085I-5070J0D01*
G01*
X643915Y531085D02*
G03*
X647500Y529600I3585J3585D01*
G01*
X651515Y502485D02*
G03*
X653000Y506070I-3585J3585D01*
G01*
D02*
G03*
X654485Y502485I5070J0D01*
G01*
X595985Y526985D02*
G03*
X599570Y525500I3585J3585D01*
G01*
D02*
G03*
X595985Y524015I0J-5070D01*
G01*
X608900Y428500D02*
G03*
X607415Y432085I-5070J0D01*
G01*
X607415Y432085D02*
G03*
X611000Y430600I3585J3585D01*
G01*
X626200Y429500D02*
G03*
X624220Y434280I-6760J0D01*
G01*
X624400Y429500D02*
G03*
X621147Y437353I-11105J0D01*
G01*
X675500Y577400D02*
G03*
X671915Y575915I0J-5070D01*
G01*
X671915Y575915D02*
G03*
X673400Y579500I-3585J3585D01*
G01*
X664700Y583000D02*
G03*
X663427Y586073I-4346J0D01*
G01*
X662900Y583000D02*
G03*
X660354Y589146I-8691J0D01*
G01*
X651600Y578964D02*
G03*
X653000Y575500I4782J-82D01*
G01*
X653000Y575500D02*
G03*
X649536Y576900I-3382J-3382D01*
G01*
X653015Y584015D02*
G03*
X648223Y586000I-4792J-4792D01*
G01*
X650637D02*
G03*
X653015Y586985I0J3363D01*
G01*
X511000Y589400D02*
G03*
X507415Y587915I0J-5070D01*
G01*
X507415Y587915D02*
G03*
X508900Y591500I-3585J3585D01*
G01*
X465600Y473000D02*
G03*
X468146Y466854I8691J0D01*
G01*
X468146Y466854D02*
G03*
X462000Y469400I-6146J-6146D01*
G01*
X514546Y470454D02*
G03*
X512000Y464309I6146J-6146D01*
G01*
D02*
G03*
X509454Y470454I-8691J0D01*
G01*
X465600Y500000D02*
G03*
X468146Y493854I8691J0D01*
G01*
X468146Y493854D02*
G03*
X462000Y496400I-6146J-6146D01*
G01*
X441910Y576448D02*
G03*
X440000Y573000I2158J-3448D01*
G01*
D02*
G03*
X438090Y576448I-4068J0D01*
G01*
X608515Y512985D02*
G03*
X606500Y508119I4865J-4865D01*
G01*
D02*
G03*
X604485Y512985I-6881J0D01*
G01*
X563515Y433515D02*
G03*
X568380Y431500I4865J4865D01*
G01*
D02*
G03*
X563515Y429485I0J-6881D01*
G01*
X691000Y509650D02*
G03*
X686135Y507635I0J-6881D01*
G01*
X686135Y507635D02*
G03*
X688150Y512500I-4865J4865D01*
G01*
X662643Y527172D02*
G03*
X661000Y524000I2238J-3171D01*
G01*
D02*
G03*
X659357Y527172I-3881J0D01*
G01*
X578985Y540985D02*
G03*
X574120Y543000I-4865J-4865D01*
G01*
D02*
G03*
X578985Y545015I0J6881D01*
G01*
X560015Y597985D02*
G03*
X558000Y593119I4865J-4865D01*
G01*
D02*
G03*
X555985Y597985I-6881J0D01*
G01*
X418120Y587606D02*
G03*
X422985Y585591I4865J4865D01*
G01*
D02*
G03*
X418120Y583575I0J-6881D01*
G01*
X418120Y547606D02*
G03*
X423204Y545500I5084J5084D01*
G01*
X422766D02*
G03*
X418120Y543575I0J-6571D01*
G01*
X603654Y418120D02*
G03*
X605669Y422985I-4865J4865D01*
G01*
D02*
G03*
X607685Y418120I6881J0D01*
G01*
X646419Y416104D02*
G03*
X643961Y422039I-8393J0D01*
G01*
X644619Y416104D02*
G03*
X640888Y425112I-12738J0D01*
G01*
X642819Y416104D02*
G03*
X637815Y428185I-17084J0D01*
G01*
X644601Y418747D02*
G03*
X645669Y420331I-640J1584D01*
G01*
D02*
G03*
X646737Y418747I1709J0D01*
G01*
X617286Y421286D02*
G03*
X616595Y416601I2808J-2808D01*
G01*
X619000Y423000D02*
G03*
X618181Y417451I3325J-3325D01*
G01*
X477572Y459406D02*
G03*
X473500Y461500I-4071J-2911D01*
G01*
D02*
G03*
X477572Y463594I0J5005D01*
G01*
X477448Y486090D02*
G03*
X474000Y488000I-3448J-2158D01*
G01*
D02*
G03*
X477448Y489910I0J4068D01*
G01*
X429500Y573000D02*
X441500Y561000D01*
X429500Y573000D02*
Y580500D01*
X440000Y573000D02*
Y579500D01*
Y573000D02*
X445500Y567500D01*
X441500Y561000D02*
X484000D01*
X424409Y585591D02*
X429500Y580500D01*
X582000Y428000D02*
X602000D01*
X578500Y431500D02*
X582000Y428000D01*
X561500Y431500D02*
X578500D01*
X580500Y508000D02*
X588000D01*
X558000Y530500D02*
X580500Y508000D01*
X558000Y530500D02*
Y600000D01*
X598500Y455000D02*
Y497500D01*
X588000Y508000D02*
X598500Y497500D01*
X581500Y513500D02*
X588000D01*
X568500Y526500D02*
X581500Y513500D01*
X568500Y526500D02*
Y538500D01*
X665000Y583000D02*
Y584500D01*
X658000Y591500D02*
X665000Y584500D01*
X581091Y591500D02*
X658000D01*
X576000Y596591D02*
X581091Y591500D01*
X671500Y575500D02*
X675500Y579500D01*
X653000Y575500D02*
X671500D01*
X649500Y579000D02*
X653000Y575500D01*
X531500Y611000D02*
X563909D01*
X521500Y601000D02*
X531500Y611000D01*
X510500Y601000D02*
X521500D01*
X500500Y591000D02*
X510500Y601000D01*
X506000Y583000D02*
Y586500D01*
X484000Y561000D02*
X506000Y583000D01*
Y586500D02*
X511000Y591500D01*
X536000Y607000D02*
X566000D01*
X500500Y582591D02*
Y591000D01*
X485409Y567500D02*
X500500Y582591D01*
X445500Y567500D02*
X485409D01*
X415354Y585591D02*
X424409D01*
X564009Y611100D02*
X566991D01*
X563909Y611000D02*
X564009Y611100D01*
X568500Y611000D02*
X576000Y603500D01*
X567091Y611000D02*
X568500D01*
X566991Y611100D02*
X567091Y611000D01*
X566000Y607000D02*
X572000Y601000D01*
Y595500D02*
Y601000D01*
X576000Y596591D02*
Y603500D01*
X572000Y595500D02*
X581500Y586000D01*
X654000D01*
X654500Y585500D01*
X645669Y415354D02*
Y420331D01*
X614000Y452000D02*
X645669Y420331D01*
X614000Y452000D02*
Y477500D01*
X622500Y486000D01*
X610000Y448500D02*
X626500Y432000D01*
X606400Y446661D02*
X619000Y434061D01*
Y423000D02*
Y434061D01*
X610000Y448500D02*
Y479500D01*
X606400Y446661D02*
Y480991D01*
X615669Y419669D02*
X619000Y423000D01*
X615669Y415354D02*
Y419669D01*
X622500Y486000D02*
X670500D01*
X610000Y479500D02*
X620500Y490000D01*
X670500Y486000D02*
X687000Y502500D01*
X668500Y490000D02*
X691000Y512500D01*
X620500Y490000D02*
X668500D01*
X687000Y502500D02*
X703500D01*
X710000Y509000D01*
Y517500D01*
X701500Y526000D02*
X710000Y517500D01*
X689500Y526000D02*
X701500D01*
X681500Y518000D02*
X689500Y526000D01*
X667000Y518000D02*
X681500D01*
X661000Y524000D02*
X667000Y518000D01*
X661000Y524000D02*
Y529500D01*
X626500Y429500D02*
Y432000D01*
X602000Y428000D02*
X605669Y424331D01*
Y415354D02*
Y424331D01*
X605500Y434000D02*
X611000Y428500D01*
X598500Y434000D02*
X605500D01*
X593000Y439500D02*
X598500Y434000D01*
X593000Y439500D02*
Y449500D01*
X598500Y455000D01*
X602500Y442500D02*
Y499000D01*
X606500Y481091D02*
Y515000D01*
X606400Y480991D02*
X606500Y481091D01*
X588000Y513500D02*
X602500Y499000D01*
X568500Y538500D02*
X573000Y543000D01*
X581000D01*
X594500Y526000D02*
X595000Y525500D01*
X594500D02*
Y526000D01*
X595000Y525500D02*
X641439D01*
X645139Y521800D01*
X645200D01*
X653000Y514000D01*
Y501000D02*
Y514000D01*
X643500Y531500D02*
X647500Y527500D01*
X601000Y531500D02*
X643500D01*
X512000Y460500D02*
Y473000D01*
Y460500D02*
X521000Y451500D01*
X462000Y500000D02*
X474000Y488000D01*
X480500D01*
X462000Y473000D02*
X473500Y461500D01*
X480500D01*
X474500Y545500D02*
X536000Y607000D01*
X415354Y545591D02*
X415445Y545500D01*
X474500D01*
D11*
X543707Y441793D02*
G03*
X542500Y438879I2914J-2914D01*
G01*
X725232Y567232D02*
G03*
X720964Y569000I-4268J-4268D01*
G01*
D02*
G03*
X725232Y570768I0J6036D01*
G01*
X503561Y563561D02*
G03*
X502500Y561000I2561J-2561D01*
G01*
X502207Y560293D02*
G03*
X499000Y552550I7743J-7743D01*
G01*
X678237Y670737D02*
G03*
X681225Y669500I2987J2987D01*
G01*
D02*
G03*
X678237Y668263I0J-4225D01*
G01*
X427439Y675439D02*
G03*
X435743Y672000I8303J8303D01*
G01*
X430268Y678268D02*
G03*
X445400Y672000I15132J15132D01*
G01*
X600000Y632500D02*
G03*
X598232Y636768I-6036J0D01*
G01*
X598232Y636768D02*
G03*
X602500Y635000I4268J4268D01*
G01*
X463870Y413146D02*
G03*
X459602Y414913I-4268J-4268D01*
G01*
D02*
G03*
X463870Y416681I0J6036D01*
G01*
X467406D02*
G03*
X471673Y414913I4268J4268D01*
G01*
D02*
G03*
X467406Y413146I0J-6036D01*
G01*
X487492D02*
G03*
X483224Y414913I-4268J-4268D01*
G01*
D02*
G03*
X487492Y416681I0J6036D01*
G01*
X491028D02*
G03*
X495295Y414913I4268J4268D01*
G01*
D02*
G03*
X491028Y413146I0J-6036D01*
G01*
X511114D02*
G03*
X506846Y414913I-4268J-4268D01*
G01*
D02*
G03*
X511114Y416681I0J6036D01*
G01*
X441768Y601268D02*
G03*
X446035Y599500I4268J4268D01*
G01*
D02*
G03*
X441768Y597732I0J-6036D01*
G01*
X438225Y597740D02*
G03*
X434000Y599500I-4225J-4189D01*
G01*
D02*
G03*
X438225Y601260I0J5949D01*
G01*
X433302Y600198D02*
G03*
X440270Y598024I5555J5555D01*
G01*
X427910Y605590D02*
G03*
X439551Y601959I9282J9282D01*
G01*
X464518Y601268D02*
G03*
X468785Y599500I4268J4268D01*
G01*
D02*
G03*
X464518Y597732I0J-6036D01*
G01*
Y601268D02*
G03*
X468785Y599500I4268J4268D01*
G01*
D02*
G03*
X464518Y597732I0J-6036D01*
G01*
Y601268D02*
G03*
X468785Y599500I4268J4268D01*
G01*
D02*
G03*
X464518Y597732I0J-6036D01*
G01*
Y601268D02*
G03*
X468785Y599500I4268J4268D01*
G01*
D02*
G03*
X464518Y597732I0J-6036D01*
G01*
Y601268D02*
G03*
X468785Y599500I4268J4268D01*
G01*
D02*
G03*
X464518Y597732I0J-6036D01*
G01*
Y601268D02*
G03*
X468785Y599500I4268J4268D01*
G01*
D02*
G03*
X464518Y597732I0J-6036D01*
G01*
X460982D02*
G03*
X456714Y599500I-4268J-4268D01*
G01*
D02*
G03*
X460982Y601268I0J6036D01*
G01*
X483732Y597732D02*
G03*
X479464Y599500I-4268J-4268D01*
G01*
D02*
G03*
X483732Y601268I0J6036D01*
G01*
Y597732D02*
G03*
X479464Y599500I-4268J-4268D01*
G01*
D02*
G03*
X483732Y601268I0J6036D01*
G01*
Y597732D02*
G03*
X479464Y599500I-4268J-4268D01*
G01*
D02*
G03*
X483732Y601268I0J6036D01*
G01*
Y597732D02*
G03*
X479464Y599500I-4268J-4268D01*
G01*
D02*
G03*
X483732Y601268I0J6036D01*
G01*
Y597732D02*
G03*
X479464Y599500I-4268J-4268D01*
G01*
D02*
G03*
X483732Y601268I0J6036D01*
G01*
Y597732D02*
G03*
X479464Y599500I-4268J-4268D01*
G01*
D02*
G03*
X483732Y601268I0J6036D01*
G01*
X569609Y416391D02*
G03*
X561500Y419750I-8109J-8109D01*
G01*
X560263Y420263D02*
G03*
X557275Y421500I-2987J-2987D01*
G01*
D02*
G03*
X560263Y422737I0J4225D01*
G01*
X581000Y534750D02*
G03*
X585144Y536466I0J5860D01*
G01*
X549237Y598763D02*
G03*
X548000Y595775I2987J-2987D01*
G01*
D02*
G03*
X546763Y598763I-4225J0D01*
G01*
X554039Y647142D02*
G03*
X555807Y651409I-4268J4268D01*
G01*
D02*
G03*
X557575Y647142I6036J0D01*
G01*
X547346Y627858D02*
G03*
X543079Y629626I-4268J-4268D01*
G01*
D02*
G03*
X547346Y631394I0J6036D01*
G01*
X710879Y669500D02*
G03*
X715561Y671439I0J6621D01*
G01*
X701222Y669500D02*
G03*
X712732Y674268I0J16278D01*
G01*
X457444Y659944D02*
G03*
X462139Y658000I4695J4695D01*
G01*
D02*
G03*
X457444Y656055I0J-6639D01*
G01*
X454452Y632452D02*
G03*
X456750Y638000I-5548J5548D01*
G01*
X447623Y625624D02*
G03*
X452750Y638000I-12376J12376D01*
G01*
X526768Y645732D02*
G03*
X525000Y641465I4268J-4268D01*
G01*
D02*
G03*
X523232Y645732I-6036J0D01*
G01*
Y649268D02*
G03*
X525000Y653536I-4268J4268D01*
G01*
D02*
G03*
X526768Y649268I6036J0D01*
G01*
X590732Y658232D02*
G03*
X586465Y660000I-4268J-4268D01*
G01*
D02*
G03*
X590732Y661768I0J6036D01*
G01*
X594268Y658232D02*
G03*
X592500Y653965I4268J-4268D01*
G01*
D02*
G03*
X590732Y658232I-6036J0D01*
G01*
X481232Y667732D02*
G03*
X470929Y672000I-10303J-10303D01*
G01*
X484768Y671268D02*
G03*
X489036Y669500I4268J4268D01*
G01*
D02*
G03*
X484768Y667732I0J-6036D01*
G01*
X481232Y631268D02*
G03*
X483000Y635535I-4268J4268D01*
G01*
D02*
G03*
X484768Y631268I6036J0D01*
G01*
X417342Y626828D02*
G03*
X420329Y625591I2987J2987D01*
G01*
D02*
G03*
X417342Y624353I0J-4225D01*
G01*
Y606828D02*
G03*
X420329Y605591I2987J2987D01*
G01*
D02*
G03*
X417342Y604353I0J-4225D01*
G01*
X413367Y524353D02*
G03*
X410380Y525591I-2987J-2987D01*
G01*
D02*
G03*
X413367Y526828I0J4225D01*
G01*
X686907Y413367D02*
G03*
X685669Y410380I2987J-2987D01*
G01*
D02*
G03*
X684432Y413367I-4225J0D01*
G01*
X462750Y599500D02*
X485000D01*
X440000D02*
X462750D01*
X499000Y559000D02*
X505500Y565500D01*
X415354Y625591D02*
X447591D01*
X520000Y532000D02*
X543000Y509000D01*
X423087Y414913D02*
X465638D01*
X403000Y435000D02*
X423087Y414913D01*
X403000Y435000D02*
Y521500D01*
X505500Y565500D02*
X536000D01*
X548000Y577500D02*
Y600000D01*
X499000Y532000D02*
Y559000D01*
Y532000D02*
X520000D01*
X462000D02*
X499000D01*
X536000Y565500D02*
X548000Y577500D01*
X665000Y569000D02*
X727000D01*
X635000Y539000D02*
X665000Y569000D01*
X623000Y539000D02*
X635000D01*
X587677D02*
X623000D01*
X581677Y533000D02*
X587677Y539000D01*
X581000Y533000D02*
X581677D01*
X427000Y676500D02*
X431500Y672000D01*
X427000Y676500D02*
X427750Y675750D01*
X431500Y672000D01*
X543000Y442500D02*
Y509000D01*
Y509500D01*
X542500Y442000D02*
X543000Y442500D01*
X542500Y429000D02*
Y442000D01*
Y429000D02*
X550000Y421500D01*
X561500D01*
X564500D01*
X680500Y403500D02*
X685669Y408669D01*
Y415354D01*
X461500Y532000D02*
X462000D01*
X561500Y660000D02*
X592500D01*
X555807Y654307D02*
X561500Y660000D01*
X489260Y414913D02*
X512882D01*
X465638D02*
X489260D01*
X403000Y521500D02*
X407091Y525591D01*
X415354D01*
X434000Y599500D02*
X440000D01*
X427909Y605591D02*
X434000Y599500D01*
X415354Y605591D02*
X427909D01*
X431500Y672000D02*
X480500D01*
X483000Y669500D01*
X447591Y625591D02*
X455500Y633500D01*
Y638000D01*
Y658000D02*
X463500D01*
X483000Y638500D01*
Y629500D02*
Y638500D01*
Y669500D02*
X512500D01*
X525000Y657000D01*
Y647500D02*
Y657000D01*
X530374Y629626D02*
X549114D01*
X525000Y635000D02*
X530374Y629626D01*
X525000Y635000D02*
Y647500D01*
X555807Y645374D02*
Y654307D01*
X592500Y642500D02*
X602500Y632500D01*
X592500Y642500D02*
Y660000D01*
X711500Y669500D02*
X714500Y672500D01*
X677000Y669500D02*
X711500D01*
X564500Y421500D02*
X582500Y403500D01*
X680500D01*
D12*
X637039Y514039D02*
G03*
X634718Y515000I-2321J-2321D01*
G01*
X632531D02*
G03*
X637039Y516867I0J6374D01*
G01*
X618444Y516945D02*
G03*
X623139Y515000I4695J4695D01*
G01*
D02*
G03*
X618444Y513056I0J-6639D01*
G01*
X616500Y515000D02*
X638000D01*
X638453Y515453D01*
D14*
X717773Y425227D02*
G03*
X716500Y422154I3073J-3073D01*
G01*
D02*
G03*
X715227Y425227I-4346J0D01*
G01*
X515867Y436321D02*
G03*
X518086Y434913I2220J1047D01*
G01*
D02*
G03*
X515867Y433506I0J-2454D01*
G01*
X519206Y433794D02*
G03*
X512882Y436413I-6324J-6324D01*
G01*
X523303Y429697D02*
G03*
X512882Y434013I-10422J-10422D01*
G01*
X527400Y425600D02*
G03*
X512882Y431613I-14519J-14519D01*
G01*
Y434913D02*
X519913D01*
X432500Y527500D02*
X444000Y516000D01*
X512000D01*
X527500Y500500D01*
Y442500D02*
Y500500D01*
X519913Y434913D02*
X527500Y442500D01*
X527400Y425600D02*
X555000Y398000D01*
X701000D01*
X716500Y413500D01*
Y422154D01*
Y426500D01*
D15*
X668520Y666730D02*
G03*
X667000Y663059I3670J-3670D01*
G01*
D02*
G03*
X665480Y666730I-5191J0D01*
G01*
X426449Y634449D02*
G03*
X421499Y636500I-4951J-4951D01*
G01*
D02*
G03*
X426449Y638551I0J7001D01*
G01*
X669904Y598904D02*
G03*
X675708Y596500I5804J5804D01*
G01*
D02*
G03*
X669904Y594096I0J-8208D01*
G01*
X664100Y596500D02*
G03*
X661696Y602304I-8208J0D01*
G01*
X661696Y602304D02*
G03*
X667500Y599900I5804J5804D01*
G01*
X575588Y629661D02*
G03*
X577322Y624678I6017J-699D01*
G01*
X578766Y629291D02*
G03*
X582000Y620000I11221J-1303D01*
G01*
X573835Y627575D02*
G03*
X568885Y629626I-4951J-4951D01*
G01*
D02*
G03*
X573835Y631677I0J7001D01*
G01*
X564551D02*
G03*
X569501Y629626I4951J4951D01*
G01*
D02*
G03*
X564551Y627575I0J-7001D01*
G01*
D02*
G03*
X562500Y622625I4951J-4951D01*
G01*
D02*
G03*
X560449Y627575I-7001J0D01*
G01*
X707525Y583475D02*
G03*
X713500Y581000I5975J5975D01*
G01*
X702062Y588938D02*
G03*
X713500Y584200I11438J11438D01*
G01*
X696600Y594400D02*
G03*
X713500Y587400I16900J16900D01*
G01*
X710707Y582061D02*
G03*
X707000Y584000I-3707J-2574D01*
G01*
D02*
G03*
X710707Y585939I0J4513D01*
G01*
X507051Y645449D02*
G03*
X505000Y640499I4951J-4951D01*
G01*
D02*
G03*
X502949Y645449I-7001J0D01*
G01*
X595400Y620000D02*
G03*
X597451Y615049I7001J0D01*
G01*
D02*
G03*
X592500Y617100I-4951J-4951D01*
G01*
X590449Y617949D02*
G03*
X585499Y620000I-4951J-4951D01*
G01*
D02*
G03*
X590449Y622051I0J7001D01*
G01*
X423490Y636500D02*
G03*
X417625Y634070I0J-8295D01*
G01*
X518500Y617000D02*
X557500D01*
X505000Y630500D02*
X518500Y617000D01*
X557500D02*
X562500Y622000D01*
Y629626D01*
X505000Y630500D02*
Y647500D01*
X694500Y596500D02*
X707000Y584000D01*
X667500Y596500D02*
X681500D01*
X707000Y584000D02*
X713500D01*
X681500Y596500D02*
Y643000D01*
X599500Y613000D02*
X651000D01*
X667500Y596500D01*
X416264Y636500D02*
X427000D01*
X415354Y635591D02*
X416264Y636500D01*
X582000Y620000D02*
X592500D01*
X575886Y626114D02*
X582000Y620000D01*
X575886Y626114D02*
Y629626D01*
X562500D02*
X575886D01*
X592500Y620000D02*
X599500Y613000D01*
X667000Y657500D02*
Y669500D01*
Y657500D02*
X681500Y643000D01*
Y596500D02*
X694500D01*
D16*
X417229Y487539D02*
G03*
X422247Y486878I3306J5727D01*
G01*
X420634Y486446D02*
G03*
X418053Y484466I1100J-4106D01*
G01*
X417695Y487182D02*
G03*
X421536Y485591I3841J3841D01*
G01*
D02*
G03*
X417695Y484000I0J-5432D01*
G01*
X418315Y465170D02*
G03*
X419445Y461500I4033J-767D01*
G01*
X418665Y462280D02*
G03*
X416104Y463341I-2561J-2561D01*
G01*
X428379Y459379D02*
G03*
X423257Y461500I-5121J-5121D01*
G01*
D02*
G03*
X428379Y463621I0J7243D01*
G01*
X424683Y485591D02*
G03*
X430500Y488000I0J8226D01*
G01*
X417441Y485591D02*
G03*
X428379Y490121I0J15469D01*
G01*
X415354Y485591D02*
X428091D01*
X430500Y488000D01*
X415354Y465591D02*
X419445Y461500D01*
X430500D01*
D21*
X393701Y393701D02*
Y708661D01*
X787402D01*
Y393701D02*
Y708661D01*
X393701Y393701D02*
X787402D01*
D22*
X799100Y683348D02*
Y676350D01*
X802599D01*
X803765Y677516D01*
Y678683D01*
X802599Y679849D01*
X799100D01*
X802599D01*
X803765Y681015D01*
Y682182D01*
X802599Y683348D01*
X799100D01*
X809597D02*
X807264D01*
X806098Y682182D01*
Y677516D01*
X807264Y676350D01*
X809597D01*
X810763Y677516D01*
Y682182D01*
X809597Y683348D01*
X813095D02*
X817761D01*
X815428D01*
Y676350D01*
X820093Y683348D02*
X824758D01*
X822426D01*
Y676350D01*
X830590Y683348D02*
X828257D01*
X827091Y682182D01*
Y677516D01*
X828257Y676350D01*
X830590D01*
X831756Y677516D01*
Y682182D01*
X830590Y683348D01*
X834089Y676350D02*
Y683348D01*
X836421Y681015D01*
X838754Y683348D01*
Y676350D01*
X848084Y683348D02*
Y676350D01*
X852749D01*
X855082D02*
Y681015D01*
X857415Y683348D01*
X859747Y681015D01*
Y676350D01*
Y679849D01*
X855082D01*
X862080Y683348D02*
Y682182D01*
X864412Y679849D01*
X866745Y682182D01*
Y683348D01*
X864412Y679849D02*
Y676350D01*
X873743Y683348D02*
X869077D01*
Y676350D01*
X873743D01*
X869077Y679849D02*
X871410D01*
X876075Y676350D02*
Y683348D01*
X879574D01*
X880740Y682182D01*
Y679849D01*
X879574Y678683D01*
X876075D01*
X878408D02*
X880740Y676350D01*
X894736Y682182D02*
X893569Y683348D01*
X891237D01*
X890071Y682182D01*
Y677516D01*
X891237Y676350D01*
X893569D01*
X894736Y677516D01*
X897068Y683348D02*
Y677516D01*
X898235Y676350D01*
X900567D01*
X901733Y677516D01*
Y683348D01*
X537668Y701665D02*
X538501Y702498D01*
X540167D01*
X541000Y701665D01*
Y700832D01*
X540167Y699999D01*
X538501D01*
X537668Y699166D01*
Y698333D01*
X538501Y697500D01*
X540167D01*
X541000Y698333D01*
X533502Y702498D02*
X535169D01*
X536002Y701665D01*
Y698333D01*
X535169Y697500D01*
X533502D01*
X532669Y698333D01*
Y701665D01*
X533502Y702498D01*
X531003D02*
Y697500D01*
X527671D01*
X526005Y702498D02*
Y697500D01*
X523506D01*
X522673Y698333D01*
Y701665D01*
X523506Y702498D01*
X526005D01*
X517674D02*
X521006D01*
Y697500D01*
X517674D01*
X521006Y699999D02*
X519340D01*
X516008Y697500D02*
Y702498D01*
X513509D01*
X512676Y701665D01*
Y699999D01*
X513509Y699166D01*
X516008D01*
X514342D02*
X512676Y697500D01*
X502679Y701665D02*
X503512Y702498D01*
X505178D01*
X506011Y701665D01*
Y700832D01*
X505178Y699999D01*
X503512D01*
X502679Y699166D01*
Y698333D01*
X503512Y697500D01*
X505178D01*
X506011Y698333D01*
X501013Y702498D02*
X499347D01*
X500180D01*
Y697500D01*
X501013D01*
X499347D01*
X496848Y702498D02*
Y697500D01*
X494348D01*
X493515Y698333D01*
Y701665D01*
X494348Y702498D01*
X496848D01*
X488517D02*
X491849D01*
Y697500D01*
X488517D01*
X491849Y699999D02*
X490183D01*
X768168Y430165D02*
X769001Y430998D01*
X770667D01*
X771500Y430165D01*
Y429332D01*
X770667Y428499D01*
X769001D01*
X768168Y427666D01*
Y426833D01*
X769001Y426000D01*
X770667D01*
X771500Y426833D01*
X766502Y430998D02*
X764836D01*
X765669D01*
Y426000D01*
X766502D01*
X764836D01*
X762336D02*
Y430998D01*
X760670Y429332D01*
X759004Y430998D01*
Y426000D01*
X754006Y430165D02*
X754839Y430998D01*
X756505D01*
X757338Y430165D01*
Y426833D01*
X756505Y426000D01*
X754839D01*
X754006Y426833D01*
X749840Y430998D02*
X751507D01*
X752340Y430165D01*
Y426833D01*
X751507Y426000D01*
X749840D01*
X749007Y426833D01*
Y430165D01*
X749840Y430998D01*
X747341Y426000D02*
Y430998D01*
X744009Y426000D01*
Y430998D01*
X739010Y430165D02*
X739844Y430998D01*
X741510D01*
X742343Y430165D01*
Y429332D01*
X741510Y428499D01*
X739844D01*
X739010Y427666D01*
Y426833D01*
X739844Y426000D01*
X741510D01*
X742343Y426833D01*
D23*
X480500Y488000D02*
D03*
X430500D02*
D03*
X480500Y461500D02*
D03*
X430500D02*
D03*
X483000Y629500D02*
D03*
Y669500D02*
D03*
X592500Y620000D02*
D03*
Y660000D02*
D03*
X525000Y647500D02*
D03*
X505000D02*
D03*
X714500Y652500D02*
D03*
Y672500D02*
D03*
X555807Y645374D02*
D03*
X562500Y629626D02*
D03*
X569193Y645374D02*
D03*
X575886Y629626D02*
D03*
X485500Y579500D02*
D03*
X462750D02*
D03*
X440000D02*
D03*
X512882Y434913D02*
D03*
X489260D02*
D03*
X465638D02*
D03*
X602500Y632500D02*
D03*
X627500D02*
D03*
X428500Y676500D02*
D03*
Y636500D02*
D03*
X512000Y500000D02*
D03*
X462000D02*
D03*
X512000Y473000D02*
D03*
X462000D02*
D03*
X727000Y569000D02*
D03*
D24*
X615669Y415354D02*
D03*
X685669D02*
D03*
X675669D02*
D03*
X665669D02*
D03*
X655669D02*
D03*
X645669D02*
D03*
X635669D02*
D03*
X625669D02*
D03*
X605669D02*
D03*
X448032Y687008D02*
D03*
X458032D02*
D03*
X468032D02*
D03*
X478032D02*
D03*
X488032D02*
D03*
X498032D02*
D03*
X508032D02*
D03*
X518032D02*
D03*
X528032D02*
D03*
X538032D02*
D03*
X548032D02*
D03*
X733071D02*
D03*
X723071D02*
D03*
X713071D02*
D03*
D25*
X595669Y415354D02*
D03*
X438032Y687008D02*
D03*
X743071D02*
D03*
D26*
X415354Y465591D02*
D03*
Y485591D02*
D03*
Y505591D02*
D03*
Y525591D02*
D03*
Y545591D02*
D03*
Y565591D02*
D03*
Y585591D02*
D03*
Y605591D02*
D03*
Y625591D02*
D03*
X765748Y655591D02*
D03*
Y645591D02*
D03*
Y635591D02*
D03*
Y625591D02*
D03*
Y615591D02*
D03*
Y605591D02*
D03*
Y595591D02*
D03*
Y585591D02*
D03*
Y575591D02*
D03*
Y565591D02*
D03*
Y555591D02*
D03*
Y545591D02*
D03*
Y535591D02*
D03*
Y525591D02*
D03*
Y515591D02*
D03*
Y505591D02*
D03*
Y495591D02*
D03*
Y485591D02*
D03*
Y475591D02*
D03*
D27*
X415354D02*
D03*
Y495591D02*
D03*
Y515591D02*
D03*
Y535591D02*
D03*
Y555591D02*
D03*
Y575591D02*
D03*
Y595591D02*
D03*
Y615591D02*
D03*
D28*
Y635591D02*
D03*
X765748Y465591D02*
D03*
D29*
X455500Y638000D02*
D03*
D30*
Y658000D02*
D03*
D31*
X713500Y634000D02*
D03*
Y584000D02*
D03*
X667500Y626500D02*
D03*
Y596500D02*
D03*
X485500Y599500D02*
D03*
X462750D02*
D03*
X440000D02*
D03*
X512882Y414913D02*
D03*
X489260D02*
D03*
X465638D02*
D03*
D32*
X549114Y629626D02*
D03*
D33*
X548000Y600000D02*
D03*
X558000D02*
D03*
X581000Y533000D02*
D03*
Y543000D02*
D03*
X671000Y529500D02*
D03*
X661000D02*
D03*
X701000Y512500D02*
D03*
X691000D02*
D03*
X561500Y421500D02*
D03*
Y431500D02*
D03*
X616500Y515000D02*
D03*
X606500D02*
D03*
D34*
X661000Y429500D02*
D03*
X691000D02*
D03*
D35*
X657000Y669500D02*
D03*
D36*
X667000D02*
D03*
X677000D02*
D03*
D37*
X432500Y527500D02*
D03*
X511000Y591500D02*
D03*
X501500Y561000D02*
D03*
X654500Y585500D02*
D03*
X649500Y579000D02*
D03*
X665000Y583000D02*
D03*
X602500Y442500D02*
D03*
X675500Y579500D02*
D03*
X626500Y429500D02*
D03*
X611000Y428500D02*
D03*
X594500Y525500D02*
D03*
X638453Y515453D02*
D03*
X623000Y539000D02*
D03*
X543000Y509000D02*
D03*
Y442500D02*
D03*
X462000Y532000D02*
D03*
X653000Y501000D02*
D03*
X647500Y527500D02*
D03*
X601000Y531500D02*
D03*
X521000Y451500D02*
D03*
X716500Y426500D02*
D03*
D38*
X771000Y410500D02*
Y417165D01*
X767668Y420497D01*
X764335Y417165D01*
Y410500D01*
Y415498D01*
X771000D01*
X756005Y410500D02*
Y420497D01*
X761003Y415498D01*
X754339D01*
X771000Y404999D02*
Y401000D01*
Y402999D01*
X770000Y403999D01*
X769001Y404999D01*
X768001D01*
X762003Y401000D02*
X764002D01*
X765002Y402000D01*
Y403999D01*
X764002Y404999D01*
X762003D01*
X761003Y403999D01*
Y402999D01*
X765002D01*
X759004Y404999D02*
X757004Y401000D01*
X755005Y404999D01*
X753006Y405998D02*
X752006Y406998D01*
X750007D01*
X749007Y405998D01*
Y404999D01*
X750007Y403999D01*
X751007D01*
X750007D01*
X749007Y402999D01*
Y402000D01*
X750007Y401000D01*
X752006D01*
X753006Y402000D01*
X747008Y401000D02*
Y402000D01*
X746008D01*
Y401000D01*
X747008D01*
X742009D02*
X740010D01*
X741010D01*
Y406998D01*
X742009Y405998D01*
M02*
