%FSLAX25Y25*%
%MOIN*%
G70*
G01*
G75*
G04 Layer_Physical_Order=1*
G04 Layer_Color=255*
%ADD10C,0.01800*%
%ADD11C,0.04000*%
%ADD12C,0.02000*%
%ADD13C,0.02200*%
%ADD14C,0.02400*%
%ADD15C,0.03200*%
%ADD16C,0.03000*%
%ADD17R,0.05512X0.06693*%
%ADD18O,0.09843X0.02756*%
%ADD19R,0.05118X0.06693*%
%ADD20R,0.06693X0.05512*%
%ADD21C,0.00800*%
%ADD22C,0.01200*%
%ADD23C,0.09000*%
%ADD24O,0.07500X0.09000*%
%ADD25R,0.07500X0.09000*%
%ADD26O,0.09000X0.07500*%
%ADD27O,0.07500X0.06000*%
%ADD28R,0.09000X0.07500*%
%ADD29R,0.09500X0.09500*%
%ADD30C,0.09500*%
%ADD31C,0.10000*%
%ADD32R,0.09000X0.09000*%
%ADD33C,0.07500*%
%ADD34C,0.08500*%
%ADD35R,0.07500X0.10000*%
%ADD36O,0.07500X0.10000*%
%ADD37C,0.06000*%
G36*
X531500Y682500D02*
X532000Y682000D01*
X534000Y680000D01*
X563500D01*
X566000Y677500D01*
Y670500D01*
X561500Y666000D01*
X525500D01*
X513500Y654000D01*
Y629000D01*
X521500Y621000D01*
X555500D01*
X558000Y623500D01*
Y632500D01*
X560500Y635000D01*
X583500D01*
X597000Y621500D01*
X604500Y614000D01*
X685500D01*
X691500Y608000D01*
Y603000D01*
Y595500D01*
X691000Y595000D01*
X687000Y591000D01*
X661000D01*
X655500Y596500D01*
X602000D01*
X596500Y602000D01*
X583000Y615500D01*
X439000D01*
X429500Y625000D01*
X422500Y632000D01*
X415000D01*
X411000Y638000D01*
Y639500D01*
X414000Y642500D01*
X430000D01*
X442000Y630500D01*
X449500Y623000D01*
X493000D01*
X499000Y629000D01*
Y642000D01*
Y660000D01*
X519000Y680000D01*
X522000D01*
X524500Y682500D01*
Y686500D01*
X531500D01*
Y682500D01*
D02*
G37*
G36*
X724000Y696000D02*
X727000Y693000D01*
Y684000D01*
X725000Y682000D01*
X709500D01*
X704500Y677000D01*
Y674000D01*
Y663500D01*
X709500Y658500D01*
X719500D01*
X728000Y650000D01*
X741500D01*
X742500Y651000D01*
X745500Y654000D01*
Y669500D01*
X750500D01*
X752500Y667500D01*
Y649000D01*
X752038Y648538D01*
D01*
X744000Y640500D01*
Y490500D01*
Y471500D01*
X744500Y471000D01*
X746500Y469000D01*
X766000D01*
X766500Y468500D01*
Y462000D01*
X752000D01*
X749000Y459000D01*
X744000Y454000D01*
Y432500D01*
X722500Y411000D01*
X685500D01*
X682000Y414500D01*
Y415000D01*
Y455000D01*
X681500Y455500D01*
X680378D01*
X680047Y455875D01*
X680500Y459500D01*
X694500D01*
X697000Y457000D01*
X700500Y453500D01*
Y424000D01*
X705000Y419500D01*
X721500D01*
X725500Y423500D01*
Y428000D01*
Y471500D01*
X736000Y482000D01*
Y501000D01*
X733500Y503500D01*
X722000Y515000D01*
Y565500D01*
Y572000D01*
X729500Y579500D01*
X736000Y586000D01*
Y599000D01*
Y628500D01*
X719500Y645000D01*
X704000D01*
X702500Y646500D01*
X695000Y654000D01*
Y683500D01*
Y693000D01*
X693000Y695000D01*
X680000D01*
X678000Y693000D01*
Y690000D01*
Y684500D01*
X674000Y680500D01*
X670500Y677000D01*
Y669500D01*
X663500D01*
Y693500D01*
X673000Y703000D01*
X717000D01*
X724000Y696000D01*
D02*
G37*
G36*
X755000Y692500D02*
X762000Y685500D01*
Y671000D01*
Y667000D01*
X759000Y664000D01*
Y651500D01*
Y642500D01*
X757000Y640500D01*
Y482000D01*
X760000Y479000D01*
X775500D01*
X776500Y478000D01*
X781000Y473500D01*
Y466500D01*
Y442000D01*
X748500Y409500D01*
X738000Y399000D01*
X678000D01*
X675000Y402000D01*
X672000Y405000D01*
Y415000D01*
X677829Y415416D01*
X679000Y414326D01*
Y410000D01*
X681500Y407500D01*
X728000D01*
X738000Y417500D01*
X750000Y429500D01*
Y441500D01*
Y450000D01*
X751500Y451500D01*
X757000Y457000D01*
X772000D01*
X774000Y459000D01*
Y470000D01*
X772000Y472000D01*
X756000D01*
X755500Y472500D01*
X751500Y476500D01*
Y478000D01*
X749500Y480000D01*
Y615500D01*
Y640000D01*
X750500Y641000D01*
X755000Y645500D01*
Y664000D01*
Y669000D01*
X754000Y670000D01*
X752461Y671538D01*
Y671646D01*
X752353D01*
X751500Y672500D01*
X742000D01*
X741500Y672000D01*
X740000Y670500D01*
Y665500D01*
Y654500D01*
X739500Y654000D01*
X739000Y653500D01*
X731000D01*
X730000Y654500D01*
X722500Y662000D01*
X712500D01*
X711000Y663500D01*
X709000Y665500D01*
Y673000D01*
Y674500D01*
X711000Y676500D01*
X712000Y677500D01*
X734000D01*
X737500Y681000D01*
X739500Y683000D01*
Y691500D01*
X742000Y694000D01*
X753500D01*
X755000Y692500D01*
D02*
G37*
G36*
X692000Y691500D02*
Y674500D01*
X686000Y668500D01*
Y657000D01*
X681500Y652500D01*
X680500Y651500D01*
X672500D01*
Y657500D01*
X673500Y658500D01*
Y669000D01*
Y673500D01*
X681500Y681500D01*
X683500Y683500D01*
Y687500D01*
Y691500D01*
X684500Y692500D01*
X691000D01*
X692000Y691500D01*
D02*
G37*
G36*
X587500Y674000D02*
Y670500D01*
X581500Y664500D01*
Y646500D01*
X580500Y645500D01*
X575000Y640000D01*
X568500D01*
X566000Y642500D01*
Y643000D01*
X565500Y643500D01*
X565000Y644000D01*
Y645000D01*
X566000Y646000D01*
Y648500D01*
X573000Y655500D01*
Y677000D01*
X584500D01*
X587500Y674000D01*
D02*
G37*
G36*
X658500Y691500D02*
Y686500D01*
Y675500D01*
X660500Y673500D01*
Y663500D01*
X662500Y661500D01*
X666500Y657500D01*
Y650000D01*
X684500Y632000D01*
X698000D01*
X702000Y636000D01*
X705000Y639000D01*
X716500D01*
X719500Y636000D01*
Y626500D01*
X718000Y625000D01*
X724500Y618500D01*
X727500D01*
X728000Y618000D01*
Y615000D01*
X723500D01*
X722700Y615800D01*
D01*
X718500Y620000D01*
X625000D01*
X619000Y626000D01*
Y635500D01*
X621500Y638000D01*
X622000Y638500D01*
X631500D01*
X639500Y630500D01*
X665500D01*
Y633000D01*
X654500Y644000D01*
X650000Y648500D01*
X627500D01*
X617000Y659000D01*
X605000Y671000D01*
X595000D01*
X594500Y671500D01*
Y680000D01*
X593500Y681000D01*
X591000Y683500D01*
X548000D01*
X545000Y686000D01*
Y690000D01*
X545500Y690500D01*
X547500Y692500D01*
X657500D01*
X658500Y691500D01*
D02*
G37*
D10*
X522485Y452985D02*
G03*
X526070Y451500I3585J3585D01*
G01*
D02*
G03*
X522485Y450015I0J-5070D01*
G01*
X599515Y530015D02*
G03*
X595930Y531500I-3585J-3585D01*
G01*
D02*
G03*
X599515Y532985I0J5070D01*
G01*
Y530015D02*
G03*
X595930Y531500I-3585J-3585D01*
G01*
D02*
G03*
X599515Y532985I0J5070D01*
G01*
X649600Y527500D02*
G03*
X651085Y523915I5070J0D01*
G01*
X651085Y523915D02*
G03*
X647500Y525400I-3585J-3585D01*
G01*
X594377Y523404D02*
G03*
X592000Y522500I-182J-3098D01*
G01*
X592000Y522500D02*
G03*
X592520Y524799I-1562J1562D01*
G01*
X594377Y523404D02*
G03*
X592000Y522500I-182J-3098D01*
G01*
X592000Y522500D02*
G03*
X592520Y524799I-1562J1562D01*
G01*
X612485Y429985D02*
G03*
X616070Y428500I3585J3585D01*
G01*
D02*
G03*
X612485Y427015I0J-5070D01*
G01*
X624400Y429500D02*
G03*
X622915Y433085I-5070J0D01*
G01*
X622915Y433085D02*
G03*
X626500Y431600I3585J3585D01*
G01*
X676985Y580985D02*
G03*
X680570Y579500I3585J3585D01*
G01*
D02*
G03*
X676985Y578015I0J-5070D01*
G01*
X604600Y442464D02*
G03*
X606000Y439000I4782J-82D01*
G01*
X606000Y439000D02*
G03*
X602536Y440400I-3382J-3382D01*
G01*
X647400Y579000D02*
G03*
X645915Y582585I-5070J0D01*
G01*
X645915Y582585D02*
G03*
X649500Y581100I3585J3585D01*
G01*
X656600Y585500D02*
G03*
X658792Y580208I7484J0D01*
G01*
X656378Y582622D02*
G03*
X654500Y583400I-1878J-1878D01*
G01*
X511062Y593599D02*
G03*
X516100Y595600I201J6838D01*
G01*
X513878Y593378D02*
G03*
X513100Y591500I1878J-1878D01*
G01*
X512000Y585324D02*
G03*
X509745Y589816I-5601J0D01*
G01*
X512485Y590015D02*
G03*
X510594Y585451I4564J-4564D01*
G01*
Y587409D02*
G03*
X509515Y590015I-3685J0D01*
G01*
X512009Y589658D02*
G03*
X510100Y587227I1890J-3449D01*
G01*
X510100Y587227D02*
G03*
X509424Y590112I-3029J812D01*
G01*
X514546Y502546D02*
G03*
X520691Y500000I6146J6146D01*
G01*
D02*
G03*
X514546Y497454I0J-8691D01*
G01*
X665481Y436575D02*
G03*
X662550Y429500I7075J-7075D01*
G01*
X668553Y439648D02*
G03*
X664350Y429500I10148J-10148D01*
G01*
X660829Y426154D02*
G03*
X655669Y424169I-347J-6798D01*
G01*
X655669Y424169D02*
G03*
X657654Y429329I-4813J4813D01*
G01*
X467461Y440461D02*
G03*
X465638Y434913I4579J-4579D01*
G01*
X469980Y442980D02*
G03*
X467417Y435183I6435J-6435D01*
G01*
X472500Y445500D02*
G03*
X469197Y435452I8292J-8292D01*
G01*
X492398Y436677D02*
G03*
X495413Y434913I3015J1695D01*
G01*
D02*
G03*
X492398Y433149I0J-3459D01*
G01*
X465296Y576954D02*
G03*
X462750Y570809I6146J-6146D01*
G01*
D02*
G03*
X460204Y576954I-8691J0D01*
G01*
X488046Y582046D02*
G03*
X494191Y579500I6146J6146D01*
G01*
D02*
G03*
X488046Y576954I0J-8691D01*
G01*
X604485Y512985D02*
G03*
X600827Y514500I-3658J-3658D01*
G01*
X602758D02*
G03*
X605758Y515742I0J4242D01*
G01*
X598412Y514500D02*
G03*
X604485Y517015I0J8588D01*
G01*
X562231Y434255D02*
G03*
X565000Y435000I737J2777D01*
G01*
D02*
G03*
X564255Y432231I2031J-2031D01*
G01*
X688985Y510485D02*
G03*
X684120Y512500I-4865J-4865D01*
G01*
D02*
G03*
X688985Y514515I0J6881D01*
G01*
X698985D02*
G03*
X701000Y519381I-4865J4865D01*
G01*
D02*
G03*
X703015Y514515I6881J0D01*
G01*
X659967Y529685D02*
G03*
X658436Y534564I-5433J975D01*
G01*
X658195Y530003D02*
G03*
X656000Y537000I-7793J1398D01*
G01*
X580042Y542569D02*
G03*
X576284Y545000I-3759J-1691D01*
G01*
X578401Y541831D02*
G03*
X573500Y545000I-4901J-2204D01*
G01*
X563371Y602500D02*
G03*
X558966Y599588I0J-4788D01*
G01*
X566094Y602500D02*
G03*
X560622Y598883I0J-5948D01*
G01*
X715126Y632374D02*
G03*
X713500Y628447I3926J-3926D01*
G01*
X716399Y631101D02*
G03*
X713500Y624102I6999J-6999D01*
G01*
Y628447D02*
G03*
X711874Y632374I-5553J0D01*
G01*
X713500Y624102D02*
G03*
X710601Y631101I-9898J0D01*
G01*
X593654Y418120D02*
G03*
X595669Y422985I-4865J4865D01*
G01*
D02*
G03*
X597684Y418120I6881J0D01*
G01*
X623951Y418378D02*
G03*
X625669Y421831I-2609J3452D01*
G01*
D02*
G03*
X627388Y418378I4327J0D01*
G01*
X633654Y418120D02*
G03*
X635669Y422985I-4865J4865D01*
G01*
D02*
G03*
X637684Y418120I6881J0D01*
G01*
X653654D02*
G03*
X655669Y422985I-4865J4865D01*
G01*
D02*
G03*
X657685Y418120I6881J0D01*
G01*
X529782Y450188D02*
G03*
X526614Y451500I-3168J-3168D01*
G01*
D02*
G03*
X529782Y452812I0J4481D01*
G01*
X532407Y449597D02*
G03*
X531094Y446429I3168J-3168D01*
G01*
D02*
G03*
X529782Y449597I-4481J0D01*
G01*
X661782Y447903D02*
G03*
X663094Y451071I-3168J3168D01*
G01*
D02*
G03*
X664407Y447903I4481J0D01*
G01*
X674906Y443553D02*
G03*
X670729Y441824I0J-5906D01*
G01*
X672155Y443249D02*
G03*
X673050Y445409I-2160J2160D01*
G01*
X603950Y539409D02*
G03*
X604845Y537249I3055J0D01*
G01*
X606271Y535824D02*
G03*
X602094Y537554I-4176J-4176D01*
G01*
Y542447D02*
G03*
X605256Y543756I0J4471D01*
G01*
X605265Y543765D02*
G03*
X603950Y540590I3175J-3175D01*
G01*
X646302Y488965D02*
G03*
X649309Y489809I752J3100D01*
G01*
X639069Y463023D02*
G03*
X635000Y461500I-362J-5230D01*
G01*
X605975Y565025D02*
G03*
X601934Y566523I-3654J-3654D01*
G01*
X510555Y584630D02*
G03*
X512000Y588119I-3489J3489D01*
G01*
X509282Y585903D02*
G03*
X512000Y592464I-6562J6562D01*
G01*
X509282Y585903D02*
G03*
X510594Y589071I-3168J3168D01*
G01*
D02*
G03*
X511907Y585903I4481J0D01*
G01*
X582594Y481387D02*
G03*
X578418Y479657I0J-5906D01*
G01*
X579844Y481083D02*
G03*
X580738Y483243I-2160J2160D01*
G01*
X592550Y484424D02*
G03*
X591655Y486584I-3055J0D01*
G01*
X590229Y488010D02*
G03*
X594406Y486280I4176J4176D01*
G01*
X595718Y485146D02*
G03*
X598886Y483833I3168J3168D01*
G01*
D02*
G03*
X595718Y482521I0J-4481D01*
G01*
X568406Y486280D02*
G03*
X572582Y488010I0J5906D01*
G01*
X571156Y486584D02*
G03*
X570261Y484424I2160J-2160D01*
G01*
X554739D02*
G03*
X553844Y486584I-3055J0D01*
G01*
X552418Y488010D02*
G03*
X556594Y486280I4176J4176D01*
G01*
X531094Y483187D02*
G03*
X527838Y481838I0J-4605D01*
G01*
X531094Y481387D02*
G03*
X524765Y478765I0J-8951D01*
G01*
X532153Y487059D02*
G03*
X531150Y484427I2435J-2435D01*
G01*
X534994Y489900D02*
G03*
X532947Y484530I4969J-4969D01*
G01*
X544218Y481930D02*
G03*
X542906Y478762I3168J-3168D01*
G01*
D02*
G03*
X541593Y481930I-4481J0D01*
G01*
X595718Y515812D02*
G03*
X598886Y514500I3168J3168D01*
G01*
D02*
G03*
X595718Y513188I0J-4481D01*
G01*
X584450Y513909D02*
G03*
X585345Y511749I3055J0D01*
G01*
X586771Y510324D02*
G03*
X582594Y512053I-4176J-4176D01*
G01*
X569718Y501312D02*
G03*
X572886Y500000I3168J3168D01*
G01*
D02*
G03*
X569718Y498688I0J-4481D01*
G01*
X556594Y497553D02*
G03*
X551403Y495403I0J-7341D01*
G01*
X594350Y500591D02*
G03*
X592827Y504268I-5201J0D01*
G01*
X592550Y500591D02*
G03*
X589754Y507341I-9546J0D01*
G01*
X595718Y501312D02*
G03*
X598886Y500000I3168J3168D01*
G01*
D02*
G03*
X595718Y498688I0J-4481D01*
G01*
X581282D02*
G03*
X578114Y500000I-3168J-3168D01*
G01*
D02*
G03*
X581282Y501312I0J4481D01*
G01*
X582640Y499377D02*
G03*
X582904Y496096I2060J-1485D01*
G01*
X584100Y498324D02*
G03*
X584400Y494600I2338J-1686D01*
G01*
X583425Y497750D02*
G03*
X582594Y496406I672J-1344D01*
G01*
D02*
G03*
X581764Y497750I-1503J0D01*
G01*
X579459Y467667D02*
G03*
X582555Y468949I0J4378D01*
G01*
X575113Y467667D02*
G03*
X581282Y470222I0J8724D01*
G01*
X579459Y467667D02*
G03*
X582555Y468949I0J4378D01*
G01*
X575113Y467667D02*
G03*
X581282Y470222I0J8724D01*
G01*
X579459Y467667D02*
G03*
X582555Y468949I0J4378D01*
G01*
X575113Y467667D02*
G03*
X581282Y470222I0J8724D01*
G01*
X579459Y467667D02*
G03*
X582555Y468949I0J4378D01*
G01*
X575113Y467667D02*
G03*
X581282Y470222I0J8724D01*
G01*
X579459Y467667D02*
G03*
X582555Y468949I0J4378D01*
G01*
X575113Y467667D02*
G03*
X581282Y470222I0J8724D01*
G01*
X579459Y467667D02*
G03*
X582555Y468949I0J4378D01*
G01*
X575113Y467667D02*
G03*
X581282Y470222I0J8724D01*
G01*
X579459Y467667D02*
G03*
X582555Y468949I0J4378D01*
G01*
X575113Y467667D02*
G03*
X581282Y470222I0J8724D01*
G01*
X584450Y468910D02*
G03*
X585345Y466749I3055J0D01*
G01*
X586771Y465324D02*
G03*
X582594Y467054I-4176J-4176D01*
G01*
X569718Y468979D02*
G03*
X572886Y467667I3168J3168D01*
G01*
D02*
G03*
X569718Y466354I0J-4481D01*
G01*
Y468979D02*
G03*
X572886Y467667I3168J3168D01*
G01*
D02*
G03*
X569718Y466354I0J-4481D01*
G01*
Y468979D02*
G03*
X572886Y467667I3168J3168D01*
G01*
D02*
G03*
X569718Y466354I0J-4481D01*
G01*
Y468979D02*
G03*
X572886Y467667I3168J3168D01*
G01*
D02*
G03*
X569718Y466354I0J-4481D01*
G01*
Y468979D02*
G03*
X572886Y467667I3168J3168D01*
G01*
D02*
G03*
X569718Y466354I0J-4481D01*
G01*
Y468979D02*
G03*
X572886Y467667I3168J3168D01*
G01*
D02*
G03*
X569718Y466354I0J-4481D01*
G01*
Y468979D02*
G03*
X572886Y467667I3168J3168D01*
G01*
D02*
G03*
X569718Y466354I0J-4481D01*
G01*
X556594Y465220D02*
G03*
X552418Y463490I0J-5906D01*
G01*
X553844Y464916D02*
G03*
X554739Y467076I-2160J2160D01*
G01*
X534148Y465852D02*
G03*
X531097Y467020I-2833J-2833D01*
G01*
X537000Y463000D02*
G03*
X531195Y465223I-5393J-5393D01*
G01*
X581282Y433688D02*
G03*
X578114Y435000I-3168J-3168D01*
G01*
D02*
G03*
X581282Y436312I0J4481D01*
G01*
X593093Y436903D02*
G03*
X594406Y440071I-3168J3168D01*
G01*
D02*
G03*
X595718Y436903I4481J0D01*
G01*
X569718Y452812D02*
G03*
X572886Y451500I3168J3168D01*
G01*
D02*
G03*
X569718Y450188I0J-4481D01*
G01*
X557907Y449597D02*
G03*
X556594Y446429I3168J-3168D01*
G01*
D02*
G03*
X555282Y449597I-4481J0D01*
G01*
X595718Y452812D02*
G03*
X598886Y451500I3168J3168D01*
G01*
D02*
G03*
X595718Y450188I0J-4481D01*
G01*
Y449597D02*
G03*
X594406Y446429I3168J-3168D01*
G01*
D02*
G03*
X593093Y449597I-4481J0D01*
G01*
X581282Y450188D02*
G03*
X578114Y451500I-3168J-3168D01*
G01*
D02*
G03*
X581282Y452812I0J4481D01*
G01*
X584054Y456554D02*
G03*
X582649Y452100I3576J-3576D01*
G01*
X586500Y459000D02*
G03*
X584422Y452413I5289J-5289D01*
G01*
X581764Y453750D02*
G03*
X582594Y455094I-672J1344D01*
G01*
D02*
G03*
X583425Y453750I1503J0D01*
G01*
X661782Y456778D02*
G03*
X657625Y458500I-4157J-4157D01*
G01*
X659602D02*
G03*
X661782Y459403I0J3083D01*
G01*
X664407Y455597D02*
G03*
X663094Y452429I3168J-3168D01*
G01*
D02*
G03*
X661782Y455597I-4481J0D01*
G01*
X664407Y489722D02*
G03*
X663094Y486554I3168J-3168D01*
G01*
D02*
G03*
X661782Y489722I-4481J0D01*
G01*
X676218Y492937D02*
G03*
X679386Y491625I3168J3168D01*
G01*
D02*
G03*
X676218Y490313I0J-4481D01*
G01*
X673050Y492215D02*
G03*
X672155Y494376I-3055J0D01*
G01*
X670729Y495801D02*
G03*
X674906Y494071I4176J4176D01*
G01*
X627906Y448920D02*
G03*
X631000Y449905I594J3486D01*
G01*
X630345Y449251D02*
G03*
X629450Y447090I2160J-2160D01*
G01*
X637550D02*
G03*
X636655Y449251I-3055J0D01*
G01*
X635229Y450676D02*
G03*
X639406Y448947I4176J4176D01*
G01*
X661699Y468277D02*
G03*
X659000Y469500I-2698J-2365D01*
G01*
D02*
G03*
X661699Y470723I0J3588D01*
G01*
X688532Y490313D02*
G03*
X685364Y491625I-3168J-3168D01*
G01*
D02*
G03*
X688532Y492937I0J4481D01*
G01*
X729718D02*
G03*
X732886Y491625I3168J3168D01*
G01*
D02*
G03*
X729718Y490313I0J-4481D01*
G01*
X674906Y509946D02*
G03*
X679082Y511676I0J5906D01*
G01*
X677656Y510251D02*
G03*
X676761Y508090I2160J-2160D01*
G01*
X661782Y506188D02*
G03*
X658614Y507500I-3168J-3168D01*
G01*
D02*
G03*
X661782Y508812I0J4481D01*
G01*
X662000Y513000D02*
G03*
X663965Y509729I3704J0D01*
G01*
X662000Y513000D02*
G03*
X663965Y509729I3704J0D01*
G01*
X664137Y505374D02*
G03*
X663094Y503406I1337J-1968D01*
G01*
D02*
G03*
X662052Y505374I-2379J0D01*
G01*
X484718Y523812D02*
G03*
X487886Y522500I3168J3168D01*
G01*
D02*
G03*
X484718Y521188I0J-4481D01*
G01*
X472871Y520562D02*
G03*
X471594Y517595I2812J-2968D01*
G01*
D02*
G03*
X470318Y520562I-4088J0D01*
G01*
X509218Y523812D02*
G03*
X512386Y522500I3168J3168D01*
G01*
D02*
G03*
X509218Y521188I0J-4481D01*
G01*
X494782D02*
G03*
X491614Y522500I-3168J-3168D01*
G01*
D02*
G03*
X494782Y523812I0J4481D01*
G01*
X497294Y520493D02*
G03*
X496094Y517906I2191J-2587D01*
G01*
D02*
G03*
X494895Y520493I-3391J0D01*
G01*
X647906Y566553D02*
G03*
X646451Y565951I0J-2057D01*
G01*
X644028Y563527D02*
G03*
X646050Y568409I-4882J4882D01*
G01*
X649218Y570312D02*
G03*
X652386Y569000I3168J3168D01*
G01*
D02*
G03*
X649218Y567688I0J-4481D01*
G01*
X661305Y566551D02*
G03*
X655393Y569000I-5912J-5912D01*
G01*
X660032Y565278D02*
G03*
X651047Y569000I-8985J-8985D01*
G01*
X659488Y566590D02*
G03*
X658594Y568751I-3055J0D01*
G01*
X658345Y569000D02*
G03*
X660819Y568370I1767J1767D01*
G01*
X674468Y567312D02*
G03*
X677636Y566000I3168J3168D01*
G01*
D02*
G03*
X674468Y564688I0J-4481D01*
G01*
X671873Y567931D02*
G03*
X673156Y570935I-2875J3004D01*
G01*
D02*
G03*
X674439Y567931I4158J0D01*
G01*
X685282Y564688D02*
G03*
X682114Y566000I-3168J-3168D01*
G01*
D02*
G03*
X685282Y567312I0J4481D01*
G01*
X649218Y538312D02*
G03*
X652386Y537000I3168J3168D01*
G01*
D02*
G03*
X649218Y535688I0J-4481D01*
G01*
X634782Y538903D02*
G03*
X636094Y542071I-3168J3168D01*
G01*
D02*
G03*
X637407Y538903I4481J0D01*
G01*
X660032Y550688D02*
G03*
X656864Y552000I-3168J-3168D01*
G01*
D02*
G03*
X660032Y553312I0J4481D01*
G01*
X671300Y552591D02*
G03*
X670405Y554751I-3055J0D01*
G01*
X668979Y556176D02*
G03*
X673156Y554447I4176J4176D01*
G01*
X674468Y550097D02*
G03*
X673156Y546929I3168J-3168D01*
G01*
D02*
G03*
X671843Y550097I-4481J0D01*
G01*
X634782Y550778D02*
G03*
X631833Y552000I-2950J-2950D01*
G01*
X631395D02*
G03*
X634782Y553403I0J4790D01*
G01*
X637407Y549597D02*
G03*
X636094Y546429I3168J-3168D01*
G01*
D02*
G03*
X634782Y549597I-4481J0D01*
G01*
X646050Y552091D02*
G03*
X645155Y554251I-3055J0D01*
G01*
X643729Y555676D02*
G03*
X647906Y553946I4176J4176D01*
G01*
X649218Y553403D02*
G03*
X652605Y552000I3387J3387D01*
G01*
X652168D02*
G03*
X649218Y550778I0J-4171D01*
G01*
X539900Y554241D02*
G03*
X540969Y551531I3655J-125D01*
G01*
X541699Y554180D02*
G03*
X543900Y548600I7524J-256D01*
G01*
X538532Y553521D02*
G03*
X535364Y554833I-3168J-3168D01*
G01*
D02*
G03*
X538532Y556146I0J4481D01*
G01*
X523718D02*
G03*
X526886Y554833I3168J3168D01*
G01*
D02*
G03*
X523718Y553521I0J-4481D01*
G01*
X509235Y553569D02*
G03*
X506334Y554833I-2902J-2699D01*
G01*
D02*
G03*
X509235Y556097I0J3963D01*
G01*
X482450Y554243D02*
G03*
X483345Y552083I3055J0D01*
G01*
X484771Y550657D02*
G03*
X480594Y552387I-4176J-4176D01*
G01*
X479282Y553521D02*
G03*
X476114Y554833I-3168J-3168D01*
G01*
D02*
G03*
X479282Y556146I0J4481D01*
G01*
X562593Y529403D02*
G03*
X563906Y532571I-3168J3168D01*
G01*
D02*
G03*
X565218Y529403I4481J0D01*
G01*
X550782D02*
G03*
X551406Y530908I-1505J1505D01*
G01*
Y534234D02*
G03*
X553407Y529403I6832J0D01*
G01*
X550782D02*
G03*
X551406Y530908I-1505J1505D01*
G01*
Y534234D02*
G03*
X553407Y529403I6832J0D01*
G01*
X550782D02*
G03*
X551406Y530908I-1505J1505D01*
G01*
Y534234D02*
G03*
X553407Y529403I6832J0D01*
G01*
X550782D02*
G03*
X551406Y530908I-1505J1505D01*
G01*
Y534234D02*
G03*
X553407Y529403I6832J0D01*
G01*
X523718Y541312D02*
G03*
X526886Y540000I3168J3168D01*
G01*
D02*
G03*
X523718Y538688I0J-4481D01*
G01*
Y541312D02*
G03*
X526886Y540000I3168J3168D01*
G01*
D02*
G03*
X523718Y538688I0J-4481D01*
G01*
Y541312D02*
G03*
X526886Y540000I3168J3168D01*
G01*
D02*
G03*
X523718Y538688I0J-4481D01*
G01*
Y541312D02*
G03*
X526886Y540000I3168J3168D01*
G01*
D02*
G03*
X523718Y538688I0J-4481D01*
G01*
Y541312D02*
G03*
X526886Y540000I3168J3168D01*
G01*
D02*
G03*
X523718Y538688I0J-4481D01*
G01*
Y541312D02*
G03*
X526886Y540000I3168J3168D01*
G01*
D02*
G03*
X523718Y538688I0J-4481D01*
G01*
Y541312D02*
G03*
X526886Y540000I3168J3168D01*
G01*
D02*
G03*
X523718Y538688I0J-4481D01*
G01*
Y541312D02*
G03*
X526886Y540000I3168J3168D01*
G01*
D02*
G03*
X523718Y538688I0J-4481D01*
G01*
X510594Y537554D02*
G03*
X508973Y536882I0J-2293D01*
G01*
X506785Y534694D02*
G03*
X508739Y539409I-4715J4715D01*
G01*
X552718Y537097D02*
G03*
X551406Y533929I3168J-3168D01*
G01*
D02*
G03*
X550093Y537097I-4481J0D01*
G01*
X552718D02*
G03*
X551406Y533929I3168J-3168D01*
G01*
D02*
G03*
X550093Y537097I-4481J0D01*
G01*
X552718D02*
G03*
X551406Y533929I3168J-3168D01*
G01*
D02*
G03*
X550093Y537097I-4481J0D01*
G01*
X552718D02*
G03*
X551406Y533929I3168J-3168D01*
G01*
D02*
G03*
X550093Y537097I-4481J0D01*
G01*
X552718Y540312D02*
G03*
X555886Y539000I3168J3168D01*
G01*
D02*
G03*
X552718Y537688I0J-4481D01*
G01*
X543500Y545000D02*
G03*
X541448Y539681I4973J-4973D01*
G01*
X538282Y538278D02*
G03*
X534125Y540000I-4157J-4157D01*
G01*
X536102D02*
G03*
X538282Y540903I0J3083D01*
G01*
Y538278D02*
G03*
X534125Y540000I-4157J-4157D01*
G01*
X536102D02*
G03*
X538282Y540903I0J3083D01*
G01*
Y538278D02*
G03*
X534125Y540000I-4157J-4157D01*
G01*
X536102D02*
G03*
X538282Y540903I0J3083D01*
G01*
Y538278D02*
G03*
X534125Y540000I-4157J-4157D01*
G01*
X536102D02*
G03*
X538282Y540903I0J3083D01*
G01*
Y538278D02*
G03*
X534125Y540000I-4157J-4157D01*
G01*
X536102D02*
G03*
X538282Y540903I0J3083D01*
G01*
Y538278D02*
G03*
X534125Y540000I-4157J-4157D01*
G01*
X536102D02*
G03*
X538282Y540903I0J3083D01*
G01*
Y538278D02*
G03*
X534125Y540000I-4157J-4157D01*
G01*
X536102D02*
G03*
X538282Y540903I0J3083D01*
G01*
Y538278D02*
G03*
X534125Y540000I-4157J-4157D01*
G01*
X536102D02*
G03*
X538282Y540903I0J3083D01*
G01*
X579593Y569569D02*
G03*
X580906Y572738I-3168J3168D01*
G01*
D02*
G03*
X582218Y569569I4481J0D01*
G01*
X551656Y570113D02*
G03*
X555832Y571843I-0J5906D01*
G01*
X554406Y570417D02*
G03*
X553511Y568257I2160J-2160D01*
G01*
X538532Y566354D02*
G03*
X535364Y567667I-3168J-3168D01*
G01*
D02*
G03*
X538532Y568979I0J4481D01*
G01*
X510594Y570113D02*
G03*
X514771Y571843I0J5906D01*
G01*
X513345Y570417D02*
G03*
X512450Y568257I2160J-2160D01*
G01*
X508739D02*
G03*
X507844Y570417I-3055J0D01*
G01*
X506418Y571843D02*
G03*
X510594Y570113I4176J4176D01*
G01*
X508739Y568257D02*
G03*
X507844Y570417I-3055J0D01*
G01*
X506418Y571843D02*
G03*
X510594Y570113I4176J4176D01*
G01*
X567239Y600091D02*
G03*
X566344Y602251I-3055J0D01*
G01*
X566094Y602500D02*
G03*
X568569Y601870I1767J1767D01*
G01*
X569055Y600051D02*
G03*
X563142Y602500I-5912J-5912D01*
G01*
X567782Y598778D02*
G03*
X558797Y602500I-8985J-8985D01*
G01*
X582218Y597597D02*
G03*
X580906Y594429I3168J-3168D01*
G01*
D02*
G03*
X579593Y597597I-4481J0D01*
G01*
X552968Y585312D02*
G03*
X556136Y584000I3168J3168D01*
G01*
D02*
G03*
X552968Y582688I0J-4481D01*
G01*
X538532Y585903D02*
G03*
X539844Y589071I-3168J3168D01*
G01*
D02*
G03*
X541157Y585903I4481J0D01*
G01*
X582218Y585312D02*
G03*
X585386Y584000I3168J3168D01*
G01*
D02*
G03*
X582218Y582688I0J-4481D01*
G01*
X579593Y585903D02*
G03*
X580906Y589071I-3168J3168D01*
G01*
D02*
G03*
X582218Y585903I4481J0D01*
G01*
X567782Y582688D02*
G03*
X564614Y584000I-3168J-3168D01*
G01*
D02*
G03*
X567782Y585312I0J4481D01*
G01*
X570294Y581993D02*
G03*
X569094Y579406I2191J-2587D01*
G01*
D02*
G03*
X567895Y581993I-3391J0D01*
G01*
X481669Y537896D02*
G03*
X480594Y535815I1479J-2082D01*
G01*
D02*
G03*
X479520Y537896I-2554J0D01*
G01*
X697142Y546642D02*
G03*
X698352Y551394I-3393J3393D01*
G01*
X695000Y544500D02*
G03*
X696626Y550884I-4560J4560D01*
G01*
X699448Y549874D02*
G03*
X698406Y547906I1337J-1968D01*
G01*
D02*
G03*
X697363Y549874I-2379J0D01*
G01*
X529782Y498688D02*
G03*
X526614Y500000I-3168J-3168D01*
G01*
D02*
G03*
X529782Y501312I0J4481D01*
G01*
X532950Y499409D02*
G03*
X533845Y497249I3055J0D01*
G01*
X535271Y495824D02*
G03*
X531094Y497553I-4176J-4176D01*
G01*
X625782Y499903D02*
G03*
X628047Y505371I-5469J5469D01*
G01*
X628950Y497409D02*
G03*
X629845Y495249I3055J0D01*
G01*
X631000Y494095D02*
G03*
X627192Y495556I-3545J-3545D01*
G01*
X741625Y491625D02*
X742000Y492000D01*
X542906Y476000D02*
X574761D01*
X445094Y514500D02*
X468500D01*
X531094Y436406D02*
Y451500D01*
Y436406D02*
X535000Y432500D01*
X537000Y438500D02*
Y446500D01*
Y438500D02*
X539000Y436500D01*
X535000Y432500D02*
X551000D01*
X631000Y449906D02*
Y494094D01*
X630500Y473500D02*
X631000Y474000D01*
X609300Y587300D02*
X627700D01*
X628047Y497047D02*
Y518953D01*
X627094Y498000D02*
X631000Y494094D01*
X623354Y473500D02*
X630500D01*
X542906Y476000D02*
Y483833D01*
X471594Y517594D02*
Y522500D01*
X468500Y514500D02*
X471594Y517594D01*
X521500Y475500D02*
X530464Y484464D01*
X521500Y469000D02*
Y475500D01*
X515500Y463000D02*
X521500Y469000D01*
X511500Y463000D02*
X515500D01*
X494000Y445500D02*
X511500Y463000D01*
X472500Y445500D02*
X494000D01*
X465638Y438638D02*
X472500Y445500D01*
X465638Y434913D02*
Y438638D01*
X529828Y485100D02*
X531094Y483833D01*
X530464Y484464D02*
X531094Y483833D01*
X517591Y459500D02*
X537000D01*
X517491Y459400D02*
X517591Y459500D01*
X516900Y459400D02*
X517491D01*
X504000Y446500D02*
X516900Y459400D01*
X537000Y446500D02*
Y463000D01*
X504000Y443500D02*
Y446500D01*
X510594Y590094D02*
X516100Y595600D01*
X512000Y585406D02*
Y593000D01*
X511000Y591500D02*
Y592000D01*
X512000Y593000D01*
X516500Y588015D02*
X519985Y591500D01*
X516500Y573572D02*
Y588015D01*
X510594Y584000D02*
X512000Y585406D01*
X485500Y579500D02*
X498761D01*
X501761Y576500D01*
X654000Y585000D02*
X654500Y585500D01*
X658344Y569000D02*
X661344Y566000D01*
X647906Y569000D02*
X658344D01*
X667000Y577091D02*
Y581000D01*
Y577091D02*
X673156Y570936D01*
X665000Y583000D02*
X667000Y581000D01*
X673156Y566000D02*
Y570936D01*
X667000Y558156D02*
Y572000D01*
X728406Y491625D02*
X741625D01*
X577000Y545000D02*
X581000Y541000D01*
X563906Y525500D02*
Y535406D01*
X602500Y442500D02*
X606000Y439000D01*
X628000D01*
X635669Y431331D01*
X621500Y434500D02*
X626500Y429500D01*
X607000Y434500D02*
X621500D01*
X558000Y602500D02*
X566094D01*
X625669Y415354D02*
Y421831D01*
X619000Y428500D02*
X625669Y421831D01*
X611000Y428500D02*
X619000D01*
X595669Y423169D02*
X607000Y434500D01*
X595669Y415354D02*
Y423169D01*
X594406Y451500D02*
X609000D01*
X551656Y584000D02*
X569094D01*
X561500Y431500D02*
X565000Y435000D01*
X582594D01*
X671622Y500000D02*
X692000D01*
X635669Y415354D02*
Y431331D01*
X663094Y444000D02*
Y457125D01*
X661719Y458500D02*
X663094Y457125D01*
X509844Y537753D02*
Y540000D01*
X551406Y526189D02*
Y539000D01*
X521656Y540000D02*
X539844D01*
X539594D02*
X539844D01*
X539594Y539000D02*
Y541094D01*
X593000Y531500D02*
X601000D01*
X656600Y486109D02*
Y495600D01*
X568406Y467667D02*
X582594D01*
X549500Y446000D02*
Y460572D01*
X594500Y526000D02*
X595000Y525500D01*
X592000Y522500D02*
X595000Y525500D01*
X662000Y507500D02*
Y513000D01*
X501761Y576500D02*
X510594Y567667D01*
X575509Y526100D02*
X584600D01*
X577000Y522500D02*
X592000D01*
X570500Y516000D02*
X577000Y522500D01*
X584600Y526100D02*
X590000Y531500D01*
X602094Y540594D02*
X605976Y544476D01*
X602094Y540000D02*
X610094Y532000D01*
X615000D01*
X602094Y540000D02*
Y540594D01*
X594500Y525500D02*
Y526000D01*
X593000Y531500D02*
X596500D01*
X590000D02*
X593000D01*
X627700Y587300D02*
X641200D01*
X625000D02*
X627700D01*
X641200D02*
X649500Y579000D01*
X539000Y436500D02*
X547500D01*
X549500Y438500D01*
Y446000D02*
Y449000D01*
Y438500D02*
Y446000D01*
X537000Y446500D02*
Y451000D01*
X556594Y438094D02*
Y451500D01*
X551000Y432500D02*
X556594Y438094D01*
X506333Y554833D02*
X510594D01*
X502000Y550500D02*
X506333Y554833D01*
X502000Y535000D02*
Y550500D01*
X675500Y579500D02*
X691500D01*
X713500Y601500D01*
Y630406D01*
X673156Y566000D02*
X686594D01*
X641406Y558000D02*
X647906Y551500D01*
X628000Y558000D02*
X641406D01*
X501761Y576500D02*
X504261Y574000D01*
X650500Y473500D02*
X663094Y486094D01*
X563906Y535406D02*
X573500Y545000D01*
X642646Y478500D02*
X648991D01*
X656600Y486109D02*
Y491500D01*
X648991Y478500D02*
X656600Y486109D01*
X653000Y487600D02*
Y501000D01*
X648900Y483500D02*
X653000Y487600D01*
X649309Y489809D02*
Y496630D01*
X648000Y488500D02*
X649309Y489809D01*
X642646Y488500D02*
X648000D01*
X642646Y483500D02*
X648900D01*
X651000Y468500D02*
X661500Y479000D01*
X663094Y486094D02*
Y491625D01*
X659500Y498500D02*
X668031D01*
X661500Y479000D02*
X689000D01*
X642646Y473500D02*
X650500D01*
X659000Y469500D02*
X663094D01*
X653000Y463500D02*
X659000Y469500D01*
X642646Y468500D02*
X651000D01*
X689000Y479000D02*
X695500Y485500D01*
X701000Y512500D02*
Y529500D01*
X695500Y485500D02*
Y496500D01*
X692000Y500000D02*
X695500Y496500D01*
X669522Y502100D02*
X671622Y500000D01*
X668031Y498500D02*
X674906Y491625D01*
X605976Y583976D02*
X609300Y587300D01*
X605976Y565024D02*
Y583976D01*
X713500Y630406D02*
Y634000D01*
X617646Y562000D02*
X642500D01*
X627000Y557000D02*
X628000Y558000D01*
X617646Y557000D02*
X627000D01*
X489260Y434913D02*
X495413D01*
X504000Y443500D01*
X496094Y517906D02*
Y522500D01*
Y517906D02*
X498000Y516000D01*
X570500D01*
X568600Y519600D02*
X575000Y526000D01*
X544900Y519600D02*
X568600D01*
X542000Y522500D02*
X544900Y519600D01*
X575409Y526000D02*
X575509Y526100D01*
X575000Y526000D02*
X575409D01*
X651700Y506700D02*
X652500Y507500D01*
X650639Y506700D02*
X651700D01*
X647300Y503361D02*
X650639Y506700D01*
X647300Y498639D02*
Y503361D01*
Y498639D02*
X649309Y496630D01*
X656600Y495600D02*
X659500Y498500D01*
X652500Y507500D02*
X662000D01*
X663094D01*
X647500Y527500D02*
X662000Y513000D01*
X507906Y522500D02*
X542000D01*
X573500Y545000D02*
X577000D01*
X549500Y460572D02*
X556594Y467667D01*
X532333D02*
X537000Y463000D01*
X531094Y467667D02*
X532333D01*
X574761Y476000D02*
X582594Y483833D01*
X664400Y502100D02*
X669522D01*
X663094Y503406D02*
X664400Y502100D01*
X663094Y503406D02*
Y507500D01*
X516100Y595600D02*
X534400D01*
X528500Y591500D02*
X531000Y589000D01*
X519985Y591500D02*
X528500D01*
X510594Y584000D02*
Y590094D01*
X566094Y602500D02*
X569094Y599500D01*
X667000Y558156D02*
X673156Y552000D01*
X462750Y563750D02*
Y579500D01*
X604000Y567000D02*
X605976Y565024D01*
X673156Y546844D02*
X675500Y544500D01*
X584400Y494600D02*
X588730D01*
X582594Y496406D02*
X584400Y494600D01*
X582594Y496406D02*
Y500000D01*
X568406Y483833D02*
X575572Y491000D01*
X587239D01*
X591330Y492000D02*
X604000D01*
X588730Y494600D02*
X591330Y492000D01*
X587239Y491000D02*
X594406Y483833D01*
X531094Y500000D02*
X537594Y493500D01*
X549500D01*
X556000Y500000D01*
X556594D01*
X550528Y489900D02*
X556594Y483833D01*
X534994Y489900D02*
X550528D01*
X546040Y548646D02*
X556555D01*
X545994Y548600D02*
X546040Y548646D01*
X543900Y548600D02*
X545994D01*
X539844Y552656D02*
X543900Y548600D01*
X558000Y545000D02*
X570000Y557000D01*
X627094Y498000D02*
X628047Y497047D01*
X615000Y532000D02*
X628047Y518953D01*
X594406Y483833D02*
X603167D01*
X675500Y544500D02*
X695000D01*
X512000Y500000D02*
X531094D01*
X521000Y451500D02*
X531094D01*
X500600Y533600D02*
X502000Y535000D01*
X487900Y533600D02*
X500600D01*
X486500Y535000D02*
X487900Y533600D01*
X502091Y530000D02*
X509844Y537753D01*
X486409Y530000D02*
X502091D01*
X480594Y535814D02*
X486409Y530000D01*
X486500Y535000D02*
Y548928D01*
X480594Y535814D02*
Y540000D01*
Y554833D02*
X486500Y548928D01*
X471667Y554833D02*
X480594D01*
X462750Y563750D02*
X471667Y554833D01*
X627594Y446500D02*
X631000Y449906D01*
X483406Y522500D02*
X496094D01*
X510594Y567667D02*
X516500Y573572D01*
X656000Y537000D02*
X661000Y532000D01*
X534400Y595600D02*
X539844Y590156D01*
X679906Y512500D02*
X691000D01*
X674906Y507500D02*
X679906Y512500D01*
X582594Y514500D02*
X594406Y502689D01*
Y500000D02*
Y502689D01*
Y514500D02*
X606000D01*
X661000Y432094D02*
X674906Y446000D01*
X661000Y429500D02*
Y432094D01*
X655669Y424169D02*
X661000Y429500D01*
X655669Y415354D02*
Y424169D01*
X531094Y486000D02*
X534994Y489900D01*
X531094Y483833D02*
Y486000D01*
X586500Y459000D02*
X608500D01*
X582594Y455094D02*
X586500Y459000D01*
X582594Y451500D02*
Y455094D01*
X589094Y463000D02*
X605000D01*
X582594Y469500D02*
X589094Y463000D01*
X610500Y468500D02*
X623354D01*
X605000Y463000D02*
X610500Y468500D01*
X568406Y451500D02*
X582594D01*
X637000Y463500D02*
X642646D01*
X635000Y461500D02*
X637000Y463500D01*
X635000Y450906D02*
Y461500D01*
Y450906D02*
X639406Y446500D01*
X594406Y500000D02*
X604000D01*
X615500Y488500D01*
X623354D01*
X568406Y500000D02*
X582594D01*
X604000Y492000D02*
X612500Y483500D01*
X623354D01*
X608500Y478500D02*
X623354D01*
X603167Y483833D02*
X608500Y478500D01*
X616000Y458500D02*
X623354D01*
X609000Y451500D02*
X616000Y458500D01*
X613000Y463500D02*
X623354D01*
X608500Y459000D02*
X613000Y463500D01*
X594406Y435000D02*
Y451500D01*
X674906Y491625D02*
X689844D01*
X642646Y463500D02*
X653000D01*
X642646Y458500D02*
X661719D01*
X605976Y544476D02*
Y565024D01*
X598354Y567000D02*
X604000D01*
X647906Y537000D02*
X656000D01*
X661000Y529500D02*
Y532000D01*
X647906Y551500D02*
X648406Y552000D01*
X661344D01*
X673156Y546844D02*
Y552000D01*
X695000Y544500D02*
X698406Y547906D01*
Y552000D01*
X636094Y537000D02*
Y551500D01*
X635594Y552000D02*
X636094Y551500D01*
X617646Y552000D02*
X635594D01*
X642500Y562000D02*
X647906Y567406D01*
Y569000D01*
X580906Y584000D02*
Y599500D01*
Y584000D02*
X588500D01*
X590500Y582000D01*
X598354D01*
X557091Y539000D02*
X570091Y552000D01*
X539844Y584000D02*
Y590156D01*
X531000Y571500D02*
Y589000D01*
Y571500D02*
X534833Y567667D01*
X539844D01*
X569094Y579406D02*
Y584000D01*
Y579406D02*
X570900Y577600D01*
X587991D01*
X588591Y577000D01*
X598354D01*
X586500Y574000D02*
X588500Y572000D01*
X581000Y574000D02*
X586500D01*
X557989D02*
X581000D01*
X543500Y545000D02*
X547485D01*
X539594Y541094D02*
X543500Y545000D01*
X556555Y548646D02*
X568509Y560600D01*
X547485Y545000D02*
X547531Y545046D01*
X570091Y552000D02*
X598354D01*
X539844Y552656D02*
Y554833D01*
X580906Y573906D02*
X581000Y574000D01*
X580906Y567667D02*
Y573906D01*
X588500Y572000D02*
X598354D01*
X551656Y567667D02*
X557989Y574000D01*
X547531Y545046D02*
X555326D01*
Y545000D02*
Y545046D01*
X570000Y557000D02*
X598354D01*
X555326Y545000D02*
X558000D01*
X551406Y539000D02*
X557091D01*
X568509Y560600D02*
X585600D01*
X587000Y562000D01*
X598354D01*
X521656Y554833D02*
X522406D01*
X539844D01*
X654000Y585000D02*
X667000Y572000D01*
D11*
X462259Y531034D02*
G03*
X459953Y529265I983J-3667D01*
G01*
X728768Y570768D02*
G03*
X733036Y569000I4268J4268D01*
G01*
D02*
G03*
X728768Y567232I0J-6036D01*
G01*
X678237Y670737D02*
G03*
X681225Y669500I2987J2987D01*
G01*
D02*
G03*
X678237Y668263I0J-4225D01*
G01*
Y667013D02*
G03*
X677000Y664025I2987J-2987D01*
G01*
D02*
G03*
X675763Y667013I-4225J0D01*
G01*
X655594Y678368D02*
G03*
X658237Y671987I9024J0D01*
G01*
Y667013D02*
G03*
X657000Y664025I2987J-2987D01*
G01*
D02*
G03*
X655763Y667013I-4225J0D01*
G01*
X654770Y668545D02*
G03*
X656470Y663530I5931J-785D01*
G01*
X658735Y668020D02*
G03*
X662200Y657800I12086J-1600D01*
G01*
X691000Y427250D02*
G03*
X687159Y425659I0J-5432D01*
G01*
D02*
G03*
X688750Y429500I-3841J3841D01*
G01*
X689409Y431091D02*
G03*
X691000Y434932I-3841J3841D01*
G01*
D02*
G03*
X692591Y431091I5432J0D01*
G01*
X630000Y632500D02*
G03*
X631768Y628232I6036J0D01*
G01*
X631768Y628232D02*
G03*
X627500Y630000I-4268J-4268D01*
G01*
X763761Y464353D02*
G03*
X760773Y465591I-2987J-2987D01*
G01*
D02*
G03*
X763761Y466828I0J4225D01*
G01*
X767735Y476828D02*
G03*
X770723Y475591I2987J2987D01*
G01*
D02*
G03*
X767735Y474353I0J-4225D01*
G01*
X763761D02*
G03*
X760773Y475591I-2987J-2987D01*
G01*
D02*
G03*
X763761Y476828I0J4225D01*
G01*
X665379Y624379D02*
G03*
X660257Y626500I-5121J-5121D01*
G01*
D02*
G03*
X665379Y628621I0J7243D01*
G01*
X669621D02*
G03*
X674743Y626500I5121J5121D01*
G01*
D02*
G03*
X669621Y624379I0J-7243D01*
G01*
X665379Y628621D02*
G03*
X667500Y633743I-5121J5121D01*
G01*
D02*
G03*
X669621Y628621I7243J0D01*
G01*
X569193Y647874D02*
G03*
X573461Y649642I0J6036D01*
G01*
X573461Y649642D02*
G03*
X571693Y645374I4268J-4268D01*
G01*
X715968Y674523D02*
G03*
X722000Y675000I2737J3771D01*
G01*
X716500Y674000D02*
G03*
X719500Y672500I3000J2250D01*
G01*
D02*
G03*
X716500Y671000I0J-3750D01*
G01*
X716268Y674268D02*
G03*
X720536Y672500I4268J4268D01*
G01*
D02*
G03*
X716268Y670732I0J-6036D01*
G01*
X716500Y674000D02*
G03*
X719500Y672500I3000J2250D01*
G01*
D02*
G03*
X716500Y671000I0J-3750D01*
G01*
X711379Y586121D02*
G03*
X713500Y591243I-5121J5121D01*
G01*
D02*
G03*
X715621Y586121I7243J0D01*
G01*
X713557Y634998D02*
G03*
X707809Y632809I-433J-7506D01*
G01*
X713327Y631005D02*
G03*
X701500Y626500I-890J-15441D01*
G01*
X716500Y634000D02*
G03*
X721163Y622743I15920J0D01*
G01*
X744308Y685020D02*
G03*
X743071Y682033I2987J-2987D01*
G01*
D02*
G03*
X741833Y685020I-4225J0D01*
G01*
X549269Y688245D02*
G03*
X552256Y687008I2987J2987D01*
G01*
D02*
G03*
X549269Y685770I0J-4225D01*
G01*
X674234Y415030D02*
G03*
X675669Y410000I5240J-1225D01*
G01*
X677373Y414206D02*
G03*
X680000Y405000I9591J-2241D01*
G01*
X676907Y413367D02*
G03*
X675669Y410380I2987J-2987D01*
G01*
D02*
G03*
X674432Y413367I-4225J0D01*
G01*
X686907Y416592D02*
G03*
X689894Y415354I2987J2987D01*
G01*
D02*
G03*
X686907Y414117I0J-4225D01*
G01*
X684432Y417342D02*
G03*
X685669Y420329I-2987J2987D01*
G01*
D02*
G03*
X686907Y417342I4225J0D01*
G01*
X733796Y668798D02*
G03*
X736094Y667846I2299J2299D01*
G01*
X614440Y539944D02*
G03*
X616719Y539000I2279J2279D01*
G01*
X724201Y603296D02*
G03*
X725153Y605594I-2299J2299D01*
G01*
Y617406D02*
G03*
X724201Y619704I-3251J0D01*
G01*
X674404Y655683D02*
G03*
X677000Y661950I-6268J6268D01*
G01*
X659000Y654500D02*
G03*
X661900Y654184I1647J1647D01*
G01*
X662760Y653713D02*
G03*
X664862Y648638I7176J0D01*
G01*
X661642Y655287D02*
G03*
X659470Y660530I-7414J0D01*
G01*
X460894Y530894D02*
G03*
X457661Y523091I7803J-7803D01*
G01*
X742000Y434500D02*
Y475094D01*
X727000Y569000D02*
X742000D01*
Y646500D01*
Y492000D02*
Y569000D01*
Y475094D02*
Y492000D01*
X500500Y561000D02*
X501500D01*
X614906Y539000D02*
X623000D01*
X659000Y654500D02*
X667500Y646000D01*
X722854Y415354D02*
X742000Y434500D01*
X685669Y415354D02*
X722854D01*
X743000Y675000D02*
X743071Y675071D01*
X722000Y675000D02*
X753000D01*
X743071Y675071D02*
Y687008D01*
X674906Y457500D02*
X685500D01*
X691000Y452000D01*
Y429500D02*
Y452000D01*
X542906Y500000D02*
X543000Y500094D01*
Y509000D01*
X542906Y451500D02*
X543000Y451406D01*
Y442500D02*
Y451406D01*
X456906Y522500D02*
Y526906D01*
X462000Y532000D01*
X667500Y626500D02*
X701500D01*
X757000Y643646D02*
Y671000D01*
X752000Y638646D02*
X757000Y643646D01*
X752000Y503000D02*
Y638646D01*
X667500Y626500D02*
Y646000D01*
X655594Y670906D02*
Y688000D01*
X633500Y626500D02*
X667500D01*
X596906Y674000D02*
Y682594D01*
X592492Y687008D02*
X596906Y682594D01*
X548032Y687008D02*
X592492D01*
X575406Y651587D02*
Y674000D01*
X742000Y475094D02*
X742094Y475000D01*
X713500Y630406D02*
X726500Y617406D01*
X719500Y672500D02*
X722000Y675000D01*
X719500Y672500D02*
X730094D01*
X765748Y475591D02*
X773409D01*
X777000Y472000D01*
Y451500D02*
Y472000D01*
X730500Y405000D02*
X777000Y451500D01*
X680000Y405000D02*
X730500D01*
X675669Y409331D02*
X680000Y405000D01*
X675669Y409331D02*
Y415354D01*
X685669Y424169D02*
X691000Y429500D01*
X685669Y415354D02*
Y424169D01*
X753906Y475000D02*
Y501094D01*
X713500Y584000D02*
Y592594D01*
X726500Y605594D01*
X575406Y674000D02*
X585094D01*
X569193Y645374D02*
X575406Y651587D01*
X596906Y674000D02*
X608000D01*
X659000Y654500D02*
X662201D01*
X627500D02*
X659000D01*
X608000Y674000D02*
X627500Y654500D01*
X657000Y663000D02*
Y669500D01*
Y663000D02*
X662201Y657799D01*
Y654500D02*
Y657799D01*
X674799Y654500D02*
X677000Y656701D01*
Y669500D01*
X655594Y670906D02*
X657000Y669500D01*
X677000D02*
X683000D01*
X730094Y672500D02*
X736094Y666500D01*
X627500Y632500D02*
X633500Y626500D01*
X709000Y634000D02*
X713500D01*
X683000Y669500D02*
X687406Y673906D01*
Y688000D01*
X701500Y626500D02*
X709000Y634000D01*
X736094Y657000D02*
Y666500D01*
X714500Y672500D02*
X719500D01*
X753000Y675000D02*
X757000Y671000D01*
X752000Y503000D02*
X753906Y501094D01*
X742094Y467906D02*
X744409Y465591D01*
X765748D01*
X742094Y467906D02*
Y475000D01*
X754496Y475591D02*
X765748D01*
X753906Y475000D02*
X754496Y475591D01*
D12*
X636453Y515453D02*
G03*
X635039Y518867I-4828J0D01*
G01*
X635039Y518867D02*
G03*
X638453Y517453I3414J3414D01*
G01*
X639867Y514039D02*
G03*
X638453Y510624I3414J-3414D01*
G01*
D02*
G03*
X637039Y514039I-4828J0D01*
G01*
X639867D02*
G03*
X638453Y510624I3414J-3414D01*
G01*
D02*
G03*
X637039Y514039I-4828J0D01*
G01*
X672944Y531445D02*
G03*
X677639Y529500I4695J4695D01*
G01*
D02*
G03*
X672944Y527556I0J-6639D01*
G01*
X713500Y580000D02*
G03*
X711632Y579226I0J-2642D01*
G01*
X711445Y579040D02*
G03*
X713500Y584000I-4960J4960D01*
G01*
X708031Y575626D02*
G03*
X711500Y584000I-8374J8374D01*
G01*
X704617Y572211D02*
G03*
X709500Y584000I-11789J11789D01*
G01*
X541664Y453332D02*
G03*
X542906Y456330I-2998J2998D01*
G01*
D02*
G03*
X544147Y453332I4239J0D01*
G01*
X615661Y539409D02*
G03*
X616486Y537420I2813J0D01*
G01*
X617911Y535994D02*
G03*
X613906Y537653I-4006J-4006D01*
G01*
X612150Y540590D02*
G03*
X611326Y542580I-2813J0D01*
G01*
X609925Y543981D02*
G03*
X613897Y542346I3946J3946D01*
G01*
X635722Y475278D02*
G03*
X639102Y473878I3381J3381D01*
G01*
X614097Y566622D02*
G03*
X609925Y564925I-74J-5797D01*
G01*
X584350Y483243D02*
G03*
X585174Y481253I2813J0D01*
G01*
X586600Y479828D02*
G03*
X582594Y481487I-4006J-4006D01*
G01*
X544147Y482001D02*
G03*
X542906Y479004I2998J-2998D01*
G01*
D02*
G03*
X541664Y482001I-4239J0D01*
G01*
X594650Y470090D02*
G03*
X593456Y472971I-4074J0D01*
G01*
X592650Y470090D02*
G03*
X590042Y476386I-8902J0D01*
G01*
X541664Y469499D02*
G03*
X542906Y472496I-2998J2998D01*
G01*
D02*
G03*
X544147Y469499I4239J0D01*
G01*
Y465834D02*
G03*
X542906Y462837I2998J-2998D01*
G01*
D02*
G03*
X541664Y465834I-4239J0D01*
G01*
X673664Y459332D02*
G03*
X674906Y462330I-2998J2998D01*
G01*
D02*
G03*
X676147Y459332I4239J0D01*
G01*
Y467668D02*
G03*
X674906Y464670I2998J-2998D01*
G01*
D02*
G03*
X673664Y467668I-4239J0D01*
G01*
X634853Y567758D02*
G03*
X631855Y569000I-2998J-2998D01*
G01*
D02*
G03*
X634853Y570242I0J4239D01*
G01*
X698406Y568347D02*
G03*
X702411Y570006I0J5665D01*
G01*
X700985Y568580D02*
G03*
X700162Y566590I1989J-1989D01*
G01*
Y565410D02*
G03*
X700985Y563420I2813J0D01*
G01*
X702411Y561994D02*
G03*
X698406Y563654I-4006J-4006D01*
G01*
D02*
G03*
X694400Y561994I0J-5665D01*
G01*
X695826Y563420D02*
G03*
X696650Y565410I-1989J1989D01*
G01*
X690722Y558316D02*
G03*
X688350Y552591I5726J-5726D01*
G01*
X637664Y499832D02*
G03*
X638453Y501736I-1904J1904D01*
G01*
Y503923D02*
G03*
X640147Y499832I5785J0D01*
G01*
X638897Y495654D02*
G03*
X634925Y494019I-26J-5581D01*
G01*
X636326Y495420D02*
G03*
X637150Y497409I-1989J1989D01*
G01*
X638453Y497547D02*
Y515453D01*
X634924Y494019D02*
X638453Y497547D01*
X613906Y540000D02*
X614906Y539000D01*
X638453Y515453D01*
X542906Y467667D02*
Y476000D01*
X609924Y543981D02*
X613906Y540000D01*
X630500Y569000D02*
X636094D01*
X628500Y567000D02*
X630500Y569000D01*
X617646Y567000D02*
X628500D01*
X582594Y483833D02*
X594406Y472022D01*
X706500Y541000D02*
Y557906D01*
X701000Y535500D02*
X706500Y541000D01*
X701000Y529500D02*
Y535500D01*
X671000Y529500D02*
X701000D01*
X698406Y566000D02*
X706500Y557906D01*
X686594Y554189D02*
X698406Y566000D01*
X713500Y581094D01*
X612000Y567000D02*
X617646D01*
X609924Y564924D02*
X612000Y567000D01*
X609924Y543981D02*
Y564924D01*
X634924Y476076D02*
Y494019D01*
X674906Y457500D02*
Y469500D01*
X713500Y581094D02*
Y584000D01*
X542906Y451500D02*
Y467667D01*
X638453Y497547D02*
X638906Y498000D01*
X637500Y473500D02*
X642646D01*
X634924Y476076D02*
X637500Y473500D01*
X594406Y469500D02*
Y472022D01*
X686594Y552000D02*
Y554189D01*
D13*
X502844Y562344D02*
G03*
X505894Y561080I3051J3051D01*
G01*
X506280D02*
G03*
X502844Y559656I0J-4860D01*
G01*
X501008Y559165D02*
G03*
X497151Y558657I-1316J-4911D01*
G01*
X497759Y559008D02*
G03*
X499665Y561492I-2045J3542D01*
G01*
X501008Y559165D02*
G03*
X497151Y558657I-1316J-4911D01*
G01*
X497759Y559008D02*
G03*
X499665Y561492I-2045J3542D01*
G01*
X501500Y559100D02*
G03*
X496549Y557049I0J-7001D01*
G01*
X501500Y559100D02*
G03*
X496549Y557049I0J-7001D01*
G01*
X523576Y582239D02*
G03*
X522406Y579412I2827J-2827D01*
G01*
D02*
G03*
X521235Y582239I-3998J0D01*
G01*
X550000Y555424D02*
G03*
X548178Y559822I-6220J0D01*
G01*
X551656Y557080D02*
G03*
X555490Y558668I0J5423D01*
G01*
X554065Y557243D02*
G03*
X553311Y555424I1819J-1819D01*
G01*
X492406Y554880D02*
G03*
X495776Y556276I0J4766D01*
G01*
X492406Y557080D02*
G03*
X499532Y560032I0J10078D01*
G01*
X492406Y554880D02*
G03*
X495776Y556276I0J4766D01*
G01*
X492406Y557080D02*
G03*
X499532Y560032I0J10078D01*
G01*
X567923Y566496D02*
G03*
X565097Y567667I-2827J-2827D01*
G01*
D02*
G03*
X567923Y568837I0J3998D01*
G01*
X518398Y561398D02*
G03*
X520750Y567076I-5678J5678D01*
G01*
X524061D02*
G03*
X526280Y561720I7575J0D01*
G01*
X521235Y569428D02*
G03*
X522406Y572255I-2827J2827D01*
G01*
D02*
G03*
X523576Y569428I3998J0D01*
G01*
X500580Y561080D02*
X518080D01*
X500500Y561000D02*
X500580Y561080D01*
X492406Y554833D02*
X494333D01*
X500500Y561000D01*
X551656Y554833D02*
X564489Y567667D01*
X522406D02*
Y584000D01*
Y565594D02*
Y567667D01*
Y565406D02*
Y565594D01*
X526920Y561080D02*
X546920D01*
X551656Y554833D02*
Y556344D01*
X546920Y561080D02*
X551656Y556344D01*
X564489Y567667D02*
X569094D01*
X518080Y561080D02*
X522406Y565406D01*
Y565594D02*
X526920Y561080D01*
D14*
X715227Y427773D02*
G03*
X716500Y430846I-3073J3073D01*
G01*
D02*
G03*
X717773Y427773I4346J0D01*
G01*
X717695Y489934D02*
G03*
X716500Y487050I2884J-2884D01*
G01*
Y487506D02*
G03*
X715494Y489934I-3434J0D01*
G01*
X432500Y530905D02*
X439094Y537500D01*
X432500Y527500D02*
Y530905D01*
X716500Y491531D02*
X716594Y491625D01*
X716500Y428500D02*
Y491531D01*
X716000Y428000D02*
X716500Y428500D01*
D15*
X665480Y672270D02*
G03*
X667000Y675941I-3670J3670D01*
G01*
D02*
G03*
X668520Y672270I5191J0D01*
G01*
X426449Y634449D02*
G03*
X423694Y635591I-2755J-2755D01*
G01*
X419303D02*
G03*
X426449Y638551I0J10106D01*
G01*
X431400Y636500D02*
G03*
X432390Y634110I3380J0D01*
G01*
X436011Y630489D02*
G03*
X428500Y633600I-7511J-7511D01*
G01*
X712449Y650449D02*
G03*
X707499Y652500I-4951J-4951D01*
G01*
D02*
G03*
X712449Y654551I0J7001D01*
G01*
X719386Y651114D02*
G03*
X714462Y652798I-4178J-4178D01*
G01*
X724000Y646500D02*
G03*
X714866Y649623I-7751J-7751D01*
G01*
X507051Y645449D02*
G03*
X505000Y640499I4951J-4951D01*
G01*
D02*
G03*
X502949Y645449I-7001J0D01*
G01*
Y649551D02*
G03*
X505000Y654501I-4951J4951D01*
G01*
D02*
G03*
X507051Y649551I7001J0D01*
G01*
X480949Y631551D02*
G03*
X483000Y636501I-4951J4951D01*
G01*
D02*
G03*
X485051Y631551I7001J0D01*
G01*
X714086Y687490D02*
G03*
X711498Y694217I-5952J1572D01*
G01*
X714121Y687758D02*
G03*
X711908Y693100I-7555J0D01*
G01*
X710921Y687758D02*
G03*
X706445Y698562I-15280J0D01*
G01*
X711551Y685488D02*
G03*
X707880Y687008I-3670J-3670D01*
G01*
D02*
G03*
X711551Y688528I0J5191D01*
G01*
X714647Y688470D02*
G03*
X718000Y687008I3353J3112D01*
G01*
D02*
G03*
X714647Y685545I0J-4575D01*
G01*
Y688470D02*
G03*
X718000Y687008I3353J3112D01*
G01*
D02*
G03*
X714647Y685545I0J-4575D01*
G01*
X714591Y688528D02*
G03*
X718261Y687008I3670J3670D01*
G01*
D02*
G03*
X714591Y685488I0J-5191D01*
G01*
X714926Y690081D02*
G03*
X723071Y686708I8144J8144D01*
G01*
X709464Y695544D02*
G03*
X723071Y689908I13607J13607D01*
G01*
X721551Y685488D02*
G03*
X717880Y687008I-3670J-3670D01*
G01*
D02*
G03*
X721551Y688528I0J5191D01*
G01*
X721525Y685513D02*
G03*
X718000Y687008I-3525J-3409D01*
G01*
D02*
G03*
X721525Y688503I0J4904D01*
G01*
Y685513D02*
G03*
X718000Y687008I-3525J-3409D01*
G01*
D02*
G03*
X721525Y688503I0J4904D01*
G01*
X529552Y684737D02*
G03*
X528032Y681067I3670J-3670D01*
G01*
D02*
G03*
X526511Y684737I-5191J0D01*
G01*
X509552D02*
G03*
X508032Y681067I3670J-3670D01*
G01*
D02*
G03*
X506511Y684737I-5191J0D01*
G01*
X417625Y637111D02*
G03*
X421295Y635591I3670J3670D01*
G01*
D02*
G03*
X417625Y634070I0J-5191D01*
G01*
X748723Y665092D02*
G03*
X747906Y663119I1973J-1973D01*
G01*
D02*
G03*
X747088Y665092I-2791J0D01*
G01*
X668223Y688817D02*
G03*
X670196Y688000I1973J1973D01*
G01*
D02*
G03*
X668223Y687183I0J-2791D01*
G01*
X670662Y693662D02*
G03*
X668562Y688590I5072J-5072D01*
G01*
X668223Y686592D02*
G03*
X667000Y683640I2952J-2952D01*
G01*
X748723Y655592D02*
G03*
X747906Y653619I1973J-1973D01*
G01*
D02*
G03*
X747088Y655592I-2791J0D01*
G01*
Y658408D02*
G03*
X747906Y660381I-1973J1973D01*
G01*
D02*
G03*
X748723Y658408I2791J0D01*
G01*
X674777Y687183D02*
G03*
X672804Y688000I-1973J-1973D01*
G01*
D02*
G03*
X674777Y688817I0J2791D01*
G01*
X702473Y492442D02*
G03*
X704446Y491625I1973J1973D01*
G01*
D02*
G03*
X702473Y490808I0J-2791D01*
G01*
X715777D02*
G03*
X713804Y491625I-1973J-1973D01*
G01*
D02*
G03*
X715777Y492442I0J2791D01*
G01*
X493223Y553426D02*
G03*
X492406Y551452I1973J-1973D01*
G01*
D02*
G03*
X491588Y553426I-2791J0D01*
G01*
X559815Y673000D02*
G03*
X562777Y674227I0J4188D01*
G01*
X491588Y541408D02*
G03*
X492406Y543381I-1973J1973D01*
G01*
D02*
G03*
X493223Y541408I2791J0D01*
G01*
X705508Y699500D02*
X718000Y687008D01*
X415354Y635591D02*
X430909D01*
X724000Y646500D02*
X742000D01*
X743500D02*
X747906Y650906D01*
X718000Y652500D02*
X724000Y646500D01*
X747906Y650906D02*
Y657000D01*
X667000Y669500D02*
Y687594D01*
X446000Y620500D02*
X494500D01*
X701656Y491625D02*
X716594D01*
X492406Y540000D02*
Y554833D01*
X505000Y631000D02*
Y647500D01*
X528032Y676532D02*
Y687008D01*
X505000Y647500D02*
Y659000D01*
X519000Y673000D01*
X667000Y687594D02*
X667406Y688000D01*
X675594D01*
X714500Y652500D02*
X718000D01*
X747906Y657000D02*
Y666500D01*
X562594Y673000D02*
X563594Y674000D01*
X524500Y673000D02*
X528032Y676532D01*
X519000Y673000D02*
X524500D01*
X562594D01*
X705500Y652500D02*
X714500D01*
X701000Y657000D02*
X705500Y652500D01*
X701000Y657000D02*
Y680500D01*
X707508Y687008D01*
X713071D01*
X676500Y699500D02*
X705508D01*
X667406Y690406D02*
X676500Y699500D01*
X667406Y688000D02*
Y690406D01*
X713071Y687008D02*
X718000D01*
X723071D01*
X430909Y635591D02*
X446000Y620500D01*
X494500D02*
X505000Y631000D01*
X483000Y629500D02*
Y652000D01*
X508032Y677032D01*
Y687008D01*
D16*
X417695Y567182D02*
G03*
X421536Y565591I3841J3841D01*
G01*
D02*
G03*
X417695Y564000I0J-5432D01*
G01*
Y507182D02*
G03*
X421536Y505591I3841J3841D01*
G01*
D02*
G03*
X417695Y504000I0J-5432D01*
G01*
X445983Y521021D02*
G03*
X445094Y518877I2144J-2144D01*
G01*
D02*
G03*
X444206Y521021I-3032J0D01*
G01*
X445983D02*
G03*
X445094Y518877I2144J-2144D01*
G01*
D02*
G03*
X444206Y521021I-3032J0D01*
G01*
X445983D02*
G03*
X445094Y518877I2144J-2144D01*
G01*
D02*
G03*
X444206Y521021I-3032J0D01*
G01*
X479706Y539112D02*
G03*
X477562Y540000I-2144J-2144D01*
G01*
D02*
G03*
X479706Y540888I0J3032D01*
G01*
X450906Y532905D02*
Y537500D01*
X445094Y527094D02*
X450906Y532905D01*
X445094Y522500D02*
Y527094D01*
Y514500D02*
Y522500D01*
Y510094D02*
Y514500D01*
X435409Y565591D02*
X461000Y540000D01*
X415354Y565591D02*
X435409D01*
X461000Y540000D02*
X480594D01*
X415354Y505591D02*
X440591D01*
X445094Y510094D01*
D17*
X450906Y537500D02*
D03*
X439094D02*
D03*
X531094Y500000D02*
D03*
X542906D02*
D03*
X627094Y498000D02*
D03*
X638906D02*
D03*
X698406Y552000D02*
D03*
X686594D02*
D03*
X480594Y540000D02*
D03*
X492406D02*
D03*
X575406Y674000D02*
D03*
X563594D02*
D03*
X596906D02*
D03*
X585094D02*
D03*
X569094Y584000D02*
D03*
X580906D02*
D03*
X539844D02*
D03*
X551656D02*
D03*
X580906Y599500D02*
D03*
X569094D02*
D03*
X522406Y567667D02*
D03*
X510594D02*
D03*
X539844D02*
D03*
X551656D02*
D03*
X580906D02*
D03*
X569094D02*
D03*
X539594Y539000D02*
D03*
X551406D02*
D03*
X510594Y540000D02*
D03*
X522406D02*
D03*
X552094Y527500D02*
D03*
X563906D02*
D03*
X492406Y554833D02*
D03*
X480594D02*
D03*
X510594D02*
D03*
X522406D02*
D03*
X539844D02*
D03*
X551656D02*
D03*
X647906Y551500D02*
D03*
X636094D02*
D03*
X673156Y552000D02*
D03*
X661344D02*
D03*
X636094Y537000D02*
D03*
X647906D02*
D03*
X698406Y566000D02*
D03*
X686594D02*
D03*
X673156D02*
D03*
X661344D02*
D03*
X647906Y569000D02*
D03*
X636094D02*
D03*
X496094Y522500D02*
D03*
X507906D02*
D03*
X471594D02*
D03*
X483406D02*
D03*
X663094Y507500D02*
D03*
X674906D02*
D03*
X728406Y491625D02*
D03*
X716594D02*
D03*
X701656D02*
D03*
X689844D02*
D03*
X674906Y469500D02*
D03*
X663094D02*
D03*
X639406Y446500D02*
D03*
X627594D02*
D03*
X674906Y491625D02*
D03*
X663094D02*
D03*
X674906Y457500D02*
D03*
X663094D02*
D03*
X582594Y451500D02*
D03*
X594406D02*
D03*
X556594D02*
D03*
X568406D02*
D03*
X594406Y435000D02*
D03*
X582594D02*
D03*
X542906Y467667D02*
D03*
X531094D02*
D03*
X556594D02*
D03*
X568406D02*
D03*
X582594Y469500D02*
D03*
X594406D02*
D03*
X582594Y500000D02*
D03*
X594406D02*
D03*
X556594D02*
D03*
X568406D02*
D03*
X582594Y514500D02*
D03*
X594406D02*
D03*
X542906Y483833D02*
D03*
X531094D02*
D03*
X556594D02*
D03*
X568406D02*
D03*
X594406D02*
D03*
X582594D02*
D03*
X510594Y584000D02*
D03*
X522406D02*
D03*
X445094Y522500D02*
D03*
X456906D02*
D03*
X675594Y688000D02*
D03*
X687406D02*
D03*
X736094Y657000D02*
D03*
X747906D02*
D03*
X613906Y540000D02*
D03*
X602094D02*
D03*
X753906Y475000D02*
D03*
X742094D02*
D03*
X667406Y688000D02*
D03*
X655594D02*
D03*
X736094Y666500D02*
D03*
X747906D02*
D03*
X674906Y446000D02*
D03*
X663094D02*
D03*
X531094Y451500D02*
D03*
X542906D02*
D03*
D18*
X617646Y552000D02*
D03*
Y557000D02*
D03*
Y562000D02*
D03*
Y567000D02*
D03*
Y572000D02*
D03*
Y577000D02*
D03*
Y582000D02*
D03*
X598354Y552000D02*
D03*
Y557000D02*
D03*
Y562000D02*
D03*
Y567000D02*
D03*
Y572000D02*
D03*
Y577000D02*
D03*
Y582000D02*
D03*
X642646Y458500D02*
D03*
Y463500D02*
D03*
Y468500D02*
D03*
Y473500D02*
D03*
Y478500D02*
D03*
Y483500D02*
D03*
Y488500D02*
D03*
X623354Y458500D02*
D03*
Y463500D02*
D03*
Y468500D02*
D03*
Y473500D02*
D03*
Y478500D02*
D03*
Y483500D02*
D03*
Y488500D02*
D03*
D19*
X662201Y654500D02*
D03*
X674799D02*
D03*
D20*
X726500Y617406D02*
D03*
Y605594D02*
D03*
D21*
X393701Y393701D02*
Y708661D01*
X787402D01*
Y393701D02*
Y708661D01*
X393701Y393701D02*
X787402D01*
D22*
X799100Y704998D02*
X803765D01*
X801433D01*
Y698000D01*
X809597Y704998D02*
X807264D01*
X806098Y703831D01*
Y699166D01*
X807264Y698000D01*
X809597D01*
X810763Y699166D01*
Y703831D01*
X809597Y704998D01*
X813095Y698000D02*
Y704998D01*
X816594D01*
X817761Y703831D01*
Y701499D01*
X816594Y700333D01*
X813095D01*
X827091Y704998D02*
Y698000D01*
X831756D01*
X834089D02*
Y702665D01*
X836421Y704998D01*
X838754Y702665D01*
Y698000D01*
Y701499D01*
X834089D01*
X841086Y704998D02*
Y703831D01*
X843419Y701499D01*
X845752Y703831D01*
Y704998D01*
X843419Y701499D02*
Y698000D01*
X852749Y704998D02*
X848084D01*
Y698000D01*
X852749D01*
X848084Y701499D02*
X850417D01*
X855082Y698000D02*
Y704998D01*
X858581D01*
X859747Y703831D01*
Y701499D01*
X858581Y700333D01*
X855082D01*
X857415D02*
X859747Y698000D01*
X873743Y703831D02*
X872576Y704998D01*
X870244D01*
X869077Y703831D01*
Y699166D01*
X870244Y698000D01*
X872576D01*
X873743Y699166D01*
X876075Y704998D02*
Y699166D01*
X877241Y698000D01*
X879574D01*
X880740Y699166D01*
Y704998D01*
X484832Y701665D02*
X483999Y702498D01*
X482333D01*
X481500Y701665D01*
Y698333D01*
X482333Y697500D01*
X483999D01*
X484832Y698333D01*
X488998Y702498D02*
X487331D01*
X486498Y701665D01*
Y698333D01*
X487331Y697500D01*
X488998D01*
X489831Y698333D01*
Y701665D01*
X488998Y702498D01*
X491497Y697500D02*
Y702498D01*
X493163Y700832D01*
X494829Y702498D01*
Y697500D01*
X496495D02*
Y702498D01*
X498994D01*
X499827Y701665D01*
Y699999D01*
X498994Y699166D01*
X496495D01*
X503993Y702498D02*
X502327D01*
X501494Y701665D01*
Y698333D01*
X502327Y697500D01*
X503993D01*
X504826Y698333D01*
Y701665D01*
X503993Y702498D01*
X506492Y697500D02*
Y702498D01*
X509824Y697500D01*
Y702498D01*
X514822D02*
X511490D01*
Y697500D01*
X514822D01*
X511490Y699999D02*
X513156D01*
X516489Y697500D02*
Y702498D01*
X519821Y697500D01*
Y702498D01*
X521487D02*
X524819D01*
X523153D01*
Y697500D01*
X534816Y701665D02*
X533983Y702498D01*
X532317D01*
X531484Y701665D01*
Y700832D01*
X532317Y699999D01*
X533983D01*
X534816Y699166D01*
Y698333D01*
X533983Y697500D01*
X532317D01*
X531484Y698333D01*
X536482Y702498D02*
X538148D01*
X537315D01*
Y697500D01*
X536482D01*
X538148D01*
X540648Y702498D02*
Y697500D01*
X543147D01*
X543980Y698333D01*
Y701665D01*
X543147Y702498D01*
X540648D01*
X548978D02*
X545646D01*
Y697500D01*
X548978D01*
X545646Y699999D02*
X547312D01*
D23*
X480500Y488000D02*
D03*
X430500D02*
D03*
X480500Y461500D02*
D03*
X430500D02*
D03*
X483000Y629500D02*
D03*
Y669500D02*
D03*
X592500Y620000D02*
D03*
Y660000D02*
D03*
X525000Y647500D02*
D03*
X505000D02*
D03*
X714500Y652500D02*
D03*
Y672500D02*
D03*
X555807Y645374D02*
D03*
X562500Y629626D02*
D03*
X569193Y645374D02*
D03*
X575886Y629626D02*
D03*
X485500Y579500D02*
D03*
X462750D02*
D03*
X440000D02*
D03*
X512882Y434913D02*
D03*
X489260D02*
D03*
X465638D02*
D03*
X602500Y632500D02*
D03*
X627500D02*
D03*
X428500Y676500D02*
D03*
Y636500D02*
D03*
X512000Y500000D02*
D03*
X462000D02*
D03*
X512000Y473000D02*
D03*
X462000D02*
D03*
X727000Y569000D02*
D03*
D24*
X615669Y415354D02*
D03*
X685669D02*
D03*
X675669D02*
D03*
X665669D02*
D03*
X655669D02*
D03*
X645669D02*
D03*
X635669D02*
D03*
X625669D02*
D03*
X605669D02*
D03*
X448032Y687008D02*
D03*
X458032D02*
D03*
X468032D02*
D03*
X478032D02*
D03*
X488032D02*
D03*
X498032D02*
D03*
X508032D02*
D03*
X518032D02*
D03*
X528032D02*
D03*
X538032D02*
D03*
X548032D02*
D03*
X733071D02*
D03*
X723071D02*
D03*
X713071D02*
D03*
D25*
X595669Y415354D02*
D03*
X438032Y687008D02*
D03*
X743071D02*
D03*
D26*
X415354Y465591D02*
D03*
Y485591D02*
D03*
Y505591D02*
D03*
Y525591D02*
D03*
Y545591D02*
D03*
Y565591D02*
D03*
Y585591D02*
D03*
Y605591D02*
D03*
Y625591D02*
D03*
X765748Y655591D02*
D03*
Y645591D02*
D03*
Y635591D02*
D03*
Y625591D02*
D03*
Y615591D02*
D03*
Y605591D02*
D03*
Y595591D02*
D03*
Y585591D02*
D03*
Y575591D02*
D03*
Y565591D02*
D03*
Y555591D02*
D03*
Y545591D02*
D03*
Y535591D02*
D03*
Y525591D02*
D03*
Y515591D02*
D03*
Y505591D02*
D03*
Y495591D02*
D03*
Y485591D02*
D03*
Y475591D02*
D03*
D27*
X415354D02*
D03*
Y495591D02*
D03*
Y515591D02*
D03*
Y535591D02*
D03*
Y555591D02*
D03*
Y575591D02*
D03*
Y595591D02*
D03*
Y615591D02*
D03*
D28*
Y635591D02*
D03*
X765748Y465591D02*
D03*
D29*
X455500Y638000D02*
D03*
D30*
Y658000D02*
D03*
D31*
X713500Y634000D02*
D03*
Y584000D02*
D03*
X667500Y626500D02*
D03*
Y596500D02*
D03*
D32*
X549114Y629626D02*
D03*
D33*
X548000Y600000D02*
D03*
X558000D02*
D03*
X581000Y533000D02*
D03*
Y543000D02*
D03*
X671000Y529500D02*
D03*
X661000D02*
D03*
X701000Y512500D02*
D03*
X691000D02*
D03*
X561500Y421500D02*
D03*
Y431500D02*
D03*
X616500Y515000D02*
D03*
X606500D02*
D03*
D34*
X661000Y429500D02*
D03*
X691000D02*
D03*
D35*
X657000Y669500D02*
D03*
D36*
X667000D02*
D03*
X677000D02*
D03*
D37*
X432500Y527500D02*
D03*
X511000Y591500D02*
D03*
X501500Y561000D02*
D03*
X654500Y585500D02*
D03*
X649500Y579000D02*
D03*
X665000Y583000D02*
D03*
X602500Y442500D02*
D03*
X675500Y579500D02*
D03*
X626500Y429500D02*
D03*
X611000Y428500D02*
D03*
X594500Y525500D02*
D03*
X638453Y515453D02*
D03*
X623000Y539000D02*
D03*
X543000Y509000D02*
D03*
Y442500D02*
D03*
X462000Y532000D02*
D03*
X653000Y501000D02*
D03*
X647500Y527500D02*
D03*
X601000Y531500D02*
D03*
X521000Y451500D02*
D03*
X716500Y426500D02*
D03*
M02*
