%FSLAX25Y25*%
%MOIN*%
G70*
G01*
G75*
G04 Layer_Color=16711935*
%ADD10C,0.01800*%
%ADD11C,0.04000*%
%ADD12C,0.02000*%
%ADD13C,0.02200*%
%ADD14C,0.02400*%
%ADD15C,0.03200*%
%ADD16C,0.03000*%
%ADD17R,0.05512X0.06693*%
%ADD18O,0.09843X0.02756*%
%ADD19R,0.05118X0.06693*%
%ADD20R,0.06693X0.05512*%
%ADD21C,0.00800*%
%ADD22C,0.01200*%
%ADD23C,0.09000*%
%ADD24O,0.07500X0.09000*%
%ADD25R,0.07500X0.09000*%
%ADD26O,0.09000X0.07500*%
%ADD27O,0.07500X0.06000*%
%ADD28R,0.09000X0.07500*%
%ADD29R,0.09500X0.09500*%
%ADD30C,0.09500*%
%ADD31C,0.10000*%
%ADD32R,0.09000X0.09000*%
%ADD33C,0.07500*%
%ADD34C,0.08500*%
%ADD35R,0.07500X0.10000*%
%ADD36O,0.07500X0.10000*%
%ADD37C,0.06000*%
%ADD38C,0.01400*%
%ADD39C,0.01500*%
%ADD40C,0.01000*%
%ADD41C,0.00984*%
%ADD42C,0.00787*%
%ADD43C,0.00400*%
G04:AMPARAMS|DCode=44|XSize=18.01mil|YSize=15.73mil|CornerRadius=0mil|HoleSize=0mil|Usage=FLASHONLY|Rotation=233.000|XOffset=0mil|YOffset=0mil|HoleType=Round|Shape=Rectangle|*
%AMROTATEDRECTD44*
4,1,4,-0.00086,0.01193,0.01170,0.00246,0.00086,-0.01193,-0.01170,-0.00246,-0.00086,0.01193,0.0*
%
%ADD44ROTATEDRECTD44*%

G04:AMPARAMS|DCode=45|XSize=18.01mil|YSize=15.74mil|CornerRadius=0mil|HoleSize=0mil|Usage=FLASHONLY|Rotation=307.000|XOffset=0mil|YOffset=0mil|HoleType=Round|Shape=Rectangle|*
%AMROTATEDRECTD45*
4,1,4,-0.01170,0.00246,0.00087,0.01193,0.01170,-0.00246,-0.00087,-0.01193,-0.01170,0.00246,0.0*
%
%ADD45ROTATEDRECTD45*%

G04:AMPARAMS|DCode=46|XSize=18.01mil|YSize=15.73mil|CornerRadius=0mil|HoleSize=0mil|Usage=FLASHONLY|Rotation=37.000|XOffset=0mil|YOffset=0mil|HoleType=Round|Shape=Rectangle|*
%AMROTATEDRECTD46*
4,1,4,-0.00246,-0.01170,-0.01193,0.00087,0.00246,0.01170,0.01193,-0.00087,-0.00246,-0.01170,0.0*
%
%ADD46ROTATEDRECTD46*%

G04:AMPARAMS|DCode=47|XSize=18.01mil|YSize=15.74mil|CornerRadius=0mil|HoleSize=0mil|Usage=FLASHONLY|Rotation=323.000|XOffset=0mil|YOffset=0mil|HoleType=Round|Shape=Rectangle|*
%AMROTATEDRECTD47*
4,1,4,-0.01193,-0.00087,-0.00246,0.01170,0.01193,0.00087,0.00246,-0.01170,-0.01193,-0.00087,0.0*
%
%ADD47ROTATEDRECTD47*%

G04:AMPARAMS|DCode=48|XSize=18.01mil|YSize=15.73mil|CornerRadius=0mil|HoleSize=0mil|Usage=FLASHONLY|Rotation=53.000|XOffset=0mil|YOffset=0mil|HoleType=Round|Shape=Rectangle|*
%AMROTATEDRECTD48*
4,1,4,0.00087,-0.01193,-0.01170,-0.00246,-0.00087,0.01193,0.01170,0.00246,0.00087,-0.01193,0.0*
%
%ADD48ROTATEDRECTD48*%

G04:AMPARAMS|DCode=49|XSize=18.01mil|YSize=15.74mil|CornerRadius=0mil|HoleSize=0mil|Usage=FLASHONLY|Rotation=323.000|XOffset=0mil|YOffset=0mil|HoleType=Round|Shape=Rectangle|*
%AMROTATEDRECTD49*
4,1,4,-0.01193,-0.00087,-0.00246,0.01170,0.01193,0.00087,0.00246,-0.01170,-0.01193,-0.00087,0.0*
%
%ADD49ROTATEDRECTD49*%

%ADD50R,0.07874X0.03937*%
%ADD51R,0.05000X0.06000*%
%ADD52R,0.06312X0.07493*%
%ADD53O,0.10642X0.03556*%
%ADD54R,0.05918X0.07493*%
%ADD55R,0.07493X0.06312*%
%ADD56C,0.09800*%
%ADD57O,0.08300X0.09800*%
%ADD58R,0.08300X0.09800*%
%ADD59O,0.09800X0.08300*%
%ADD60O,0.08300X0.06800*%
%ADD61R,0.09800X0.08300*%
%ADD62R,0.10300X0.10300*%
%ADD63C,0.10300*%
%ADD64C,0.10800*%
%ADD65R,0.09800X0.09800*%
%ADD66C,0.08300*%
%ADD67C,0.00800*%
%ADD68C,0.09300*%
%ADD69R,0.08300X0.10800*%
%ADD70O,0.08300X0.10800*%
%ADD71C,0.06800*%
D22*
X799100Y618398D02*
Y611400D01*
X802599D01*
X803765Y612566D01*
Y613733D01*
X802599Y614899D01*
X799100D01*
X802599D01*
X803765Y616065D01*
Y617232D01*
X802599Y618398D01*
X799100D01*
X809597D02*
X807264D01*
X806098Y617232D01*
Y612566D01*
X807264Y611400D01*
X809597D01*
X810763Y612566D01*
Y617232D01*
X809597Y618398D01*
X813095D02*
X817761D01*
X815428D01*
Y611400D01*
X820093Y618398D02*
X824758D01*
X822426D01*
Y611400D01*
X830590Y618398D02*
X828257D01*
X827091Y617232D01*
Y612566D01*
X828257Y611400D01*
X830590D01*
X831756Y612566D01*
Y617232D01*
X830590Y618398D01*
X834089Y611400D02*
Y618398D01*
X836421Y616065D01*
X838754Y618398D01*
Y611400D01*
X852749Y617232D02*
X851583Y618398D01*
X849251D01*
X848084Y617232D01*
Y616065D01*
X849251Y614899D01*
X851583D01*
X852749Y613733D01*
Y612566D01*
X851583Y611400D01*
X849251D01*
X848084Y612566D01*
X858581Y618398D02*
X856248D01*
X855082Y617232D01*
Y612566D01*
X856248Y611400D01*
X858581D01*
X859747Y612566D01*
Y617232D01*
X858581Y618398D01*
X862080D02*
Y611400D01*
X866745D01*
X869077Y618398D02*
Y611400D01*
X872576D01*
X873743Y612566D01*
Y617232D01*
X872576Y618398D01*
X869077D01*
X880740D02*
X876075D01*
Y611400D01*
X880740D01*
X876075Y614899D02*
X878408D01*
X883073Y611400D02*
Y618398D01*
X886572D01*
X887738Y617232D01*
Y614899D01*
X886572Y613733D01*
X883073D01*
X885406D02*
X887738Y611400D01*
D40*
X393701Y393701D02*
X787402D01*
Y708661D01*
X393701D02*
X787402D01*
X393701Y393701D02*
Y708661D01*
D56*
X480500Y488000D02*
D03*
X430500D02*
D03*
X480500Y461500D02*
D03*
X430500D02*
D03*
X483000Y629500D02*
D03*
Y669500D02*
D03*
X592500Y620000D02*
D03*
Y660000D02*
D03*
X525000Y647500D02*
D03*
X505000D02*
D03*
X714500Y652500D02*
D03*
Y672500D02*
D03*
X555807Y645374D02*
D03*
X562500Y629626D02*
D03*
X569193Y645374D02*
D03*
X575886Y629626D02*
D03*
X485500Y579500D02*
D03*
X462750D02*
D03*
X440000D02*
D03*
X512882Y434913D02*
D03*
X489260D02*
D03*
X465638D02*
D03*
X602500Y632500D02*
D03*
X627500D02*
D03*
X428500Y676500D02*
D03*
Y636500D02*
D03*
X512000Y500000D02*
D03*
X462000D02*
D03*
X512000Y473000D02*
D03*
X462000D02*
D03*
X727000Y569000D02*
D03*
D57*
X615669Y415354D02*
D03*
X685669D02*
D03*
X675669D02*
D03*
X665669D02*
D03*
X655669D02*
D03*
X645669D02*
D03*
X635669D02*
D03*
X625669D02*
D03*
X605669D02*
D03*
X448032Y687008D02*
D03*
X458032D02*
D03*
X468032D02*
D03*
X478032D02*
D03*
X488032D02*
D03*
X498032D02*
D03*
X508032D02*
D03*
X518032D02*
D03*
X528032D02*
D03*
X538032D02*
D03*
X548032D02*
D03*
X733071D02*
D03*
X723071D02*
D03*
X713071D02*
D03*
D58*
X595669Y415354D02*
D03*
X438032Y687008D02*
D03*
X743071D02*
D03*
D59*
X415354Y465591D02*
D03*
Y485591D02*
D03*
Y505591D02*
D03*
Y525591D02*
D03*
Y545591D02*
D03*
Y565591D02*
D03*
Y585591D02*
D03*
Y605591D02*
D03*
Y625591D02*
D03*
X765748Y655591D02*
D03*
Y645591D02*
D03*
Y635591D02*
D03*
Y625591D02*
D03*
Y615591D02*
D03*
Y605591D02*
D03*
Y595591D02*
D03*
Y585591D02*
D03*
Y575591D02*
D03*
Y565591D02*
D03*
Y555591D02*
D03*
Y545591D02*
D03*
Y535591D02*
D03*
Y525591D02*
D03*
Y515591D02*
D03*
Y505591D02*
D03*
Y495591D02*
D03*
Y485591D02*
D03*
Y475591D02*
D03*
D60*
X415354D02*
D03*
Y495591D02*
D03*
Y515591D02*
D03*
Y535591D02*
D03*
Y555591D02*
D03*
Y575591D02*
D03*
Y595591D02*
D03*
Y615591D02*
D03*
D61*
Y635591D02*
D03*
X765748Y465591D02*
D03*
D62*
X455500Y638000D02*
D03*
D63*
Y658000D02*
D03*
D64*
X713500Y634000D02*
D03*
Y584000D02*
D03*
X667500Y626500D02*
D03*
Y596500D02*
D03*
X485500Y599500D02*
D03*
X462750D02*
D03*
X440000D02*
D03*
X512882Y414913D02*
D03*
X489260D02*
D03*
X465638D02*
D03*
D65*
X549114Y629626D02*
D03*
D66*
X548000Y600000D02*
D03*
X558000D02*
D03*
X581000Y533000D02*
D03*
Y543000D02*
D03*
X671000Y529500D02*
D03*
X661000D02*
D03*
X701000Y512500D02*
D03*
X691000D02*
D03*
X561500Y421500D02*
D03*
Y431500D02*
D03*
X616500Y515000D02*
D03*
X606500D02*
D03*
D68*
X661000Y429500D02*
D03*
X691000D02*
D03*
D69*
X657000Y669500D02*
D03*
D70*
X667000D02*
D03*
X677000D02*
D03*
D71*
X432500Y527500D02*
D03*
X511000Y591500D02*
D03*
X501500Y561000D02*
D03*
X654500Y585500D02*
D03*
X649500Y579000D02*
D03*
X665000Y583000D02*
D03*
X602500Y442500D02*
D03*
X675500Y579500D02*
D03*
X626500Y429500D02*
D03*
X611000Y428500D02*
D03*
X594500Y525500D02*
D03*
X638453Y515453D02*
D03*
X623000Y539000D02*
D03*
X543000Y509000D02*
D03*
Y442500D02*
D03*
X462000Y532000D02*
D03*
X653000Y501000D02*
D03*
X647500Y527500D02*
D03*
X601000Y531500D02*
D03*
X521000Y451500D02*
D03*
X716500Y426500D02*
D03*
M02*
